<svg width="324" height="544" viewBox="0 0 324 544" fill="none" xmlns="http://www.w3.org/2000/svg">
<rect width="270" height="108" rx="20" fill="#1B2137"/>
<g filter="url(#filter0_d)">
<rect x="24" y="24" width="222" height="60" rx="20" fill="white"/>
</g>
<path d="M123.271 55.6706H121.095V60H119.142V48.7637H123.093C124.39 48.7637 125.391 49.0544 126.095 49.6358C126.8 50.2171 127.153 51.0583 127.153 52.1593C127.153 52.9104 126.97 53.5407 126.605 54.05C126.245 54.5542 125.74 54.9426 125.092 55.2153L127.616 59.8997V60H125.524L123.271 55.6706ZM121.095 54.104H123.101C123.76 54.104 124.274 53.9394 124.645 53.6101C125.015 53.2757 125.2 52.8204 125.2 52.2442C125.2 51.6422 125.028 51.1766 124.683 50.8474C124.344 50.5181 123.834 50.3483 123.155 50.338H121.095V54.104ZM128.472 55.7478C128.472 54.9298 128.634 54.1941 128.958 53.5407C129.283 52.8821 129.738 52.378 130.324 52.0281C130.911 51.6731 131.585 51.4956 132.346 51.4956C133.473 51.4956 134.386 51.8583 135.086 52.5837C135.791 53.3092 136.171 54.2712 136.228 55.47L136.236 55.9099C136.236 56.733 136.076 57.4688 135.757 58.117C135.444 58.7652 134.991 59.2669 134.399 59.6219C133.813 59.9768 133.133 60.1543 132.362 60.1543C131.184 60.1543 130.24 59.7633 129.53 58.9813C128.825 58.1942 128.472 57.1472 128.472 55.8404V55.7478ZM130.348 55.9099C130.348 56.7691 130.525 57.443 130.88 57.9318C131.235 58.4154 131.729 58.6572 132.362 58.6572C132.995 58.6572 133.486 58.4103 133.836 57.9163C134.191 57.4224 134.368 56.6996 134.368 55.7478C134.368 54.9041 134.186 54.2352 133.82 53.7413C133.46 53.2474 132.969 53.0005 132.346 53.0005C131.734 53.0005 131.248 53.2449 130.888 53.7336C130.528 54.2172 130.348 54.9426 130.348 55.9099ZM137.471 55.7478C137.471 54.9298 137.633 54.1941 137.957 53.5407C138.281 52.8821 138.736 52.378 139.323 52.0281C139.909 51.6731 140.583 51.4956 141.345 51.4956C142.471 51.4956 143.385 51.8583 144.084 52.5837C144.789 53.3092 145.17 54.2712 145.226 55.47L145.234 55.9099C145.234 56.733 145.075 57.4688 144.756 58.117C144.442 58.7652 143.989 59.2669 143.397 59.6219C142.811 59.9768 142.132 60.1543 141.36 60.1543C140.182 60.1543 139.238 59.7633 138.528 58.9813C137.823 58.1942 137.471 57.1472 137.471 55.8404V55.7478ZM139.346 55.9099C139.346 56.7691 139.523 57.443 139.878 57.9318C140.233 58.4154 140.727 58.6572 141.36 58.6572C141.993 58.6572 142.484 58.4103 142.834 57.9163C143.189 57.4224 143.367 56.6996 143.367 55.7478C143.367 54.9041 143.184 54.2352 142.819 53.7413C142.458 53.2474 141.967 53.0005 141.345 53.0005C140.732 53.0005 140.246 53.2449 139.886 53.7336C139.526 54.2172 139.346 54.9426 139.346 55.9099ZM147.48 60V53.0391H146.206V51.65H147.48V50.886C147.48 49.9599 147.737 49.2448 148.252 48.7406C148.766 48.2364 149.486 47.9843 150.412 47.9843C150.742 47.9843 151.091 48.0306 151.462 48.1232L151.416 49.5895C151.21 49.5483 150.971 49.5277 150.698 49.5277C149.803 49.5277 149.355 49.9882 149.355 50.9091V51.65H151.053V53.0391H149.355V60H147.48Z" fill="#1B2137"/>
<path opacity="0.2" d="M298.165 55.2693C298.165 56.8848 297.861 58.1041 297.254 58.9273C296.652 59.7453 295.734 60.1543 294.499 60.1543C293.285 60.1543 292.369 59.7556 291.752 58.9582C291.14 58.1556 290.826 56.9697 290.81 55.4005V53.4558C290.81 51.8403 291.111 50.6287 291.713 49.821C292.32 49.0132 293.244 48.6094 294.484 48.6094C295.713 48.6094 296.629 49.003 297.231 49.7901C297.838 50.5773 298.149 51.7554 298.165 53.3246V55.2693ZM296.29 53.1703C296.29 52.1156 296.145 51.3438 295.857 50.8551C295.569 50.3612 295.111 50.1142 294.484 50.1142C293.871 50.1142 293.421 50.3483 293.133 50.8165C292.845 51.2795 292.693 52.005 292.678 52.9928V55.5394C292.678 56.589 292.825 57.371 293.118 57.8855C293.411 58.4 293.871 58.6572 294.499 58.6572C295.101 58.6572 295.546 58.4205 295.834 57.9472C296.122 57.4688 296.274 56.7228 296.29 55.7092V53.1703ZM304.902 60H303.034V50.9786L300.279 51.9201V50.338L304.663 48.7251H304.902V60Z" fill="#1B2137"/>
<path opacity="0.2" d="M298.165 274.269C298.165 275.885 297.861 277.104 297.254 277.927C296.652 278.745 295.734 279.154 294.499 279.154C293.285 279.154 292.369 278.756 291.752 277.958C291.14 277.156 290.826 275.97 290.81 274.401V272.456C290.81 270.84 291.111 269.629 291.713 268.821C292.32 268.013 293.244 267.609 294.484 267.609C295.713 267.609 296.629 268.003 297.231 268.79C297.838 269.577 298.149 270.755 298.165 272.325V274.269ZM296.29 272.17C296.29 271.116 296.145 270.344 295.857 269.855C295.569 269.361 295.111 269.114 294.484 269.114C293.871 269.114 293.421 269.348 293.133 269.817C292.845 270.28 292.693 271.005 292.678 271.993V274.539C292.678 275.589 292.825 276.371 293.118 276.885C293.411 277.4 293.871 277.657 294.499 277.657C295.101 277.657 295.546 277.421 295.834 276.947C296.122 276.469 296.274 275.723 296.29 274.709V272.17ZM307.379 279H299.824V277.711L303.567 273.629C304.107 273.027 304.49 272.525 304.717 272.124C304.948 271.718 305.064 271.311 305.064 270.905C305.064 270.37 304.912 269.937 304.609 269.608C304.31 269.279 303.906 269.114 303.397 269.114C302.79 269.114 302.319 269.299 301.985 269.67C301.65 270.04 301.483 270.547 301.483 271.19H299.608C299.608 270.506 299.762 269.891 300.071 269.346C300.385 268.795 300.83 268.368 301.406 268.065C301.987 267.761 302.656 267.609 303.413 267.609C304.503 267.609 305.362 267.885 305.99 268.435C306.623 268.98 306.939 269.737 306.939 270.704C306.939 271.265 306.78 271.854 306.461 272.471C306.147 273.083 305.63 273.781 304.91 274.563L302.162 277.503H307.379V279Z" fill="#1B2137"/>
<path opacity="0.2" d="M298.165 490.269C298.165 491.885 297.861 493.104 297.254 493.927C296.652 494.745 295.734 495.154 294.499 495.154C293.285 495.154 292.369 494.756 291.752 493.958C291.14 493.156 290.826 491.97 290.81 490.401V488.456C290.81 486.84 291.111 485.629 291.713 484.821C292.32 484.013 293.244 483.609 294.484 483.609C295.713 483.609 296.629 484.003 297.231 484.79C297.838 485.577 298.149 486.755 298.165 488.325V490.269ZM296.29 488.17C296.29 487.116 296.145 486.344 295.857 485.855C295.569 485.361 295.111 485.114 294.484 485.114C293.871 485.114 293.421 485.348 293.133 485.817C292.845 486.28 292.693 487.005 292.678 487.993V490.539C292.678 491.589 292.825 492.371 293.118 492.885C293.411 493.4 293.871 493.657 294.499 493.657C295.101 493.657 295.546 493.421 295.834 492.947C296.122 492.469 296.274 491.723 296.29 490.709V488.17ZM301.993 488.525H303.135C303.711 488.52 304.166 488.371 304.501 488.078C304.84 487.784 305.01 487.36 305.01 486.804C305.01 486.269 304.869 485.855 304.586 485.562C304.308 485.263 303.881 485.114 303.304 485.114C302.8 485.114 302.386 485.261 302.062 485.554C301.738 485.842 301.576 486.22 301.576 486.689H299.701C299.701 486.112 299.852 485.588 300.156 485.114C300.465 484.641 300.892 484.273 301.437 484.011C301.987 483.743 302.602 483.609 303.281 483.609C304.403 483.609 305.283 483.892 305.921 484.458C306.564 485.019 306.885 485.801 306.885 486.804C306.885 487.308 306.723 487.784 306.399 488.232C306.08 488.674 305.666 489.009 305.157 489.235C305.774 489.446 306.242 489.778 306.561 490.231C306.885 490.683 307.047 491.224 307.047 491.851C307.047 492.86 306.7 493.662 306.006 494.259C305.316 494.856 304.408 495.154 303.281 495.154C302.201 495.154 301.316 494.866 300.627 494.29C299.937 493.714 299.593 492.947 299.593 491.99H301.468C301.468 492.484 301.632 492.885 301.962 493.194C302.296 493.503 302.744 493.657 303.304 493.657C303.886 493.657 304.344 493.503 304.678 493.194C305.013 492.885 305.18 492.438 305.18 491.851C305.18 491.26 305.005 490.804 304.655 490.485C304.305 490.166 303.786 490.007 303.096 490.007H301.993V488.525Z" fill="#1B2137"/>
<rect opacity="0.1" y="218" width="270" height="108" rx="20" fill="#013666"/>
<g filter="url(#filter1_d)">
<rect x="24" y="242" width="222" height="60" rx="20" fill="white"/>
</g>
<path d="M111.813 272.148C111.813 273.152 111.639 274.033 111.292 274.792C110.945 275.547 110.448 276.128 109.802 276.536C109.159 276.939 108.419 277.141 107.58 277.141C106.75 277.141 106.009 276.939 105.358 276.536C104.711 276.128 104.209 275.549 103.853 274.799C103.502 274.049 103.323 273.184 103.319 272.205V271.628C103.319 270.63 103.495 269.748 103.846 268.984C104.202 268.22 104.702 267.637 105.344 267.234C105.991 266.826 106.731 266.622 107.566 266.622C108.4 266.622 109.138 266.823 109.78 267.227C110.427 267.625 110.927 268.202 111.278 268.956C111.63 269.706 111.808 270.58 111.813 271.579V272.148ZM110.034 271.614C110.034 270.48 109.818 269.61 109.387 269.005C108.96 268.401 108.353 268.098 107.566 268.098C106.797 268.098 106.195 268.401 105.759 269.005C105.327 269.605 105.107 270.456 105.098 271.558V272.148C105.098 273.273 105.316 274.143 105.752 274.757C106.192 275.371 106.802 275.678 107.58 275.678C108.367 275.678 108.972 275.378 109.394 274.778C109.82 274.178 110.034 273.302 110.034 272.148V271.614ZM120.095 273.273C120.095 274.455 119.83 275.395 119.301 276.093C118.776 276.791 118.052 277.141 117.128 277.141C116.238 277.141 115.544 276.82 115.047 276.177L114.963 277H113.416V266.2H115.124V270.123C115.616 269.542 116.28 269.252 117.114 269.252C118.042 269.252 118.771 269.596 119.301 270.285C119.83 270.974 120.095 271.937 120.095 273.175V273.273ZM118.387 273.126C118.387 272.301 118.241 271.682 117.951 271.27C117.66 270.857 117.238 270.651 116.685 270.651C115.945 270.651 115.424 270.974 115.124 271.621V274.757C115.429 275.418 115.954 275.748 116.699 275.748C117.234 275.748 117.646 275.549 117.937 275.151C118.227 274.752 118.377 274.15 118.387 273.344V273.126ZM125.798 274.933C125.798 274.628 125.671 274.396 125.418 274.237C125.17 274.077 124.755 273.937 124.173 273.815C123.592 273.693 123.107 273.538 122.718 273.351C121.865 272.938 121.438 272.341 121.438 271.558C121.438 270.902 121.715 270.353 122.268 269.912C122.821 269.472 123.524 269.252 124.377 269.252C125.287 269.252 126.02 269.477 126.578 269.927C127.141 270.377 127.422 270.96 127.422 271.677H125.713C125.713 271.349 125.591 271.077 125.348 270.862C125.104 270.641 124.78 270.531 124.377 270.531C124.002 270.531 123.695 270.618 123.456 270.791C123.222 270.965 123.105 271.197 123.105 271.487C123.105 271.75 123.215 271.954 123.435 272.099C123.655 272.245 124.101 272.392 124.771 272.542C125.441 272.687 125.966 272.863 126.346 273.07C126.73 273.271 127.014 273.515 127.197 273.801C127.384 274.087 127.478 274.434 127.478 274.841C127.478 275.526 127.195 276.081 126.627 276.508C126.06 276.93 125.317 277.141 124.398 277.141C123.775 277.141 123.22 277.028 122.732 276.803C122.245 276.578 121.865 276.269 121.593 275.875C121.321 275.481 121.185 275.057 121.185 274.602H122.845C122.868 275.005 123.02 275.317 123.302 275.537C123.583 275.753 123.955 275.861 124.42 275.861C124.87 275.861 125.212 275.777 125.446 275.608C125.68 275.434 125.798 275.209 125.798 274.933ZM131.113 267.543V269.392H132.456V270.658H131.113V274.905C131.113 275.195 131.17 275.406 131.282 275.537C131.399 275.664 131.605 275.727 131.901 275.727C132.098 275.727 132.297 275.704 132.498 275.657V276.979C132.109 277.087 131.734 277.141 131.373 277.141C130.061 277.141 129.405 276.416 129.405 274.968V270.658H128.153V269.392H129.405V267.543H131.113ZM138.313 277C138.238 276.855 138.173 276.618 138.116 276.29C137.573 276.857 136.907 277.141 136.12 277.141C135.355 277.141 134.732 276.923 134.249 276.487C133.766 276.051 133.525 275.512 133.525 274.87C133.525 274.059 133.825 273.437 134.425 273.006C135.03 272.57 135.892 272.352 137.013 272.352H138.06V271.853C138.06 271.459 137.95 271.145 137.73 270.911C137.509 270.672 137.174 270.552 136.724 270.552C136.335 270.552 136.016 270.651 135.768 270.848C135.52 271.04 135.395 271.286 135.395 271.586H133.687C133.687 271.169 133.825 270.78 134.102 270.419C134.378 270.053 134.753 269.767 135.227 269.561C135.705 269.355 136.237 269.252 136.823 269.252C137.713 269.252 138.423 269.477 138.953 269.927C139.483 270.372 139.755 271 139.769 271.811V275.242C139.769 275.927 139.865 276.473 140.057 276.88V277H138.313ZM136.436 275.77C136.773 275.77 137.09 275.687 137.385 275.523C137.685 275.359 137.91 275.139 138.06 274.862V273.428H137.139C136.506 273.428 136.03 273.538 135.712 273.759C135.393 273.979 135.234 274.291 135.234 274.694C135.234 275.022 135.341 275.284 135.557 275.481C135.777 275.673 136.07 275.77 136.436 275.77ZM144.684 275.777C145.11 275.777 145.464 275.652 145.745 275.404C146.027 275.155 146.177 274.848 146.195 274.483H147.805C147.787 274.956 147.639 275.399 147.363 275.812C147.086 276.22 146.711 276.543 146.238 276.782C145.764 277.021 145.253 277.141 144.705 277.141C143.641 277.141 142.797 276.796 142.173 276.107C141.55 275.418 141.238 274.466 141.238 273.252V273.077C141.238 271.919 141.548 270.993 142.166 270.299C142.785 269.601 143.629 269.252 144.698 269.252C145.602 269.252 146.338 269.516 146.905 270.046C147.477 270.571 147.777 271.262 147.805 272.12H146.195C146.177 271.684 146.027 271.326 145.745 271.045C145.469 270.763 145.115 270.623 144.684 270.623C144.13 270.623 143.704 270.824 143.404 271.227C143.104 271.626 142.952 272.233 142.947 273.048V273.323C142.947 274.148 143.095 274.764 143.39 275.172C143.69 275.575 144.121 275.777 144.684 275.777ZM150.913 277H149.205V266.2H150.913V277ZM156.13 277.141C155.048 277.141 154.169 276.801 153.494 276.121C152.823 275.437 152.488 274.527 152.488 273.393V273.182C152.488 272.423 152.634 271.745 152.924 271.15C153.22 270.55 153.632 270.084 154.162 269.751C154.691 269.418 155.282 269.252 155.934 269.252C156.97 269.252 157.769 269.582 158.331 270.243C158.898 270.904 159.182 271.839 159.182 273.048V273.737H154.211C154.263 274.366 154.471 274.862 154.837 275.228C155.207 275.594 155.671 275.777 156.229 275.777C157.012 275.777 157.649 275.46 158.141 274.827L159.063 275.706C158.758 276.161 158.35 276.515 157.839 276.768C157.333 277.016 156.763 277.141 156.13 277.141ZM155.927 270.623C155.458 270.623 155.078 270.787 154.788 271.115C154.502 271.443 154.319 271.9 154.239 272.486H157.495V272.359C157.457 271.787 157.305 271.356 157.038 271.066C156.77 270.77 156.4 270.623 155.927 270.623ZM164.779 274.933C164.779 274.628 164.652 274.396 164.399 274.237C164.151 274.077 163.736 273.937 163.155 273.815C162.573 273.693 162.088 273.538 161.699 273.351C160.846 272.938 160.42 272.341 160.42 271.558C160.42 270.902 160.696 270.353 161.249 269.912C161.802 269.472 162.505 269.252 163.359 269.252C164.268 269.252 165.002 269.477 165.559 269.927C166.122 270.377 166.403 270.96 166.403 271.677H164.695C164.695 271.349 164.573 271.077 164.329 270.862C164.085 270.641 163.762 270.531 163.359 270.531C162.984 270.531 162.677 270.618 162.438 270.791C162.203 270.965 162.086 271.197 162.086 271.487C162.086 271.75 162.196 271.954 162.416 272.099C162.637 272.245 163.082 272.392 163.752 272.542C164.423 272.687 164.948 272.863 165.327 273.07C165.712 273.271 165.995 273.515 166.178 273.801C166.366 274.087 166.459 274.434 166.459 274.841C166.459 275.526 166.176 276.081 165.609 276.508C165.041 276.93 164.298 277.141 163.38 277.141C162.756 277.141 162.201 277.028 161.713 276.803C161.226 276.578 160.846 276.269 160.574 275.875C160.302 275.481 160.166 275.057 160.166 274.602H161.826C161.849 275.005 162.002 275.317 162.283 275.537C162.564 275.753 162.937 275.861 163.401 275.861C163.851 275.861 164.193 275.777 164.427 275.608C164.662 275.434 164.779 275.209 164.779 274.933Z" fill="#1B2137"/>
<rect opacity="0.1" y="436" width="270" height="108" rx="20" fill="#013666"/>
<g filter="url(#filter2_d)">
<rect x="24" y="460" width="222" height="60" rx="20" fill="white"/>
</g>
<path d="M89.825 490.029H85.6203V493.179H90.5352V494.6H83.8414V484.362H90.4859V485.796H85.6203V488.623H89.825V490.029ZM94.55 489.495L95.9984 486.992H97.8969L95.5695 490.739L97.9742 494.6H96.0898L94.5711 491.998L93.0594 494.6H91.1609L93.5656 490.739L91.2453 486.992H93.1297L94.55 489.495ZM102.045 493.376C102.472 493.376 102.826 493.252 103.107 493.004C103.388 492.755 103.538 492.448 103.557 492.082H105.167C105.148 492.556 105.001 492.999 104.724 493.411C104.448 493.819 104.073 494.143 103.599 494.382C103.126 494.621 102.615 494.74 102.066 494.74C101.002 494.74 100.159 494.396 99.5352 493.707C98.9117 493.018 98.6 492.066 98.6 490.852V490.676C98.6 489.518 98.9094 488.593 99.5281 487.899C100.147 487.2 100.991 486.851 102.059 486.851C102.964 486.851 103.7 487.116 104.267 487.646C104.839 488.171 105.139 488.862 105.167 489.72H103.557C103.538 489.284 103.388 488.925 103.107 488.644C102.83 488.363 102.477 488.222 102.045 488.222C101.492 488.222 101.066 488.424 100.766 488.827C100.466 489.225 100.313 489.832 100.309 490.648V490.922C100.309 491.747 100.456 492.364 100.752 492.771C101.052 493.175 101.483 493.376 102.045 493.376ZM108.275 494.6H106.566V483.8H108.275V494.6ZM114.751 493.854C114.249 494.445 113.537 494.74 112.613 494.74C111.788 494.74 111.163 494.499 110.736 494.016C110.314 493.533 110.103 492.835 110.103 491.921V486.992H111.812V491.9C111.812 492.865 112.213 493.348 113.014 493.348C113.844 493.348 114.404 493.05 114.695 492.455V486.992H116.403V494.6H114.793L114.751 493.854ZM122.408 492.532C122.408 492.228 122.281 491.996 122.028 491.836C121.78 491.677 121.365 491.536 120.784 491.414C120.202 491.293 119.717 491.138 119.328 490.95C118.475 490.538 118.048 489.94 118.048 489.157C118.048 488.501 118.325 487.953 118.878 487.512C119.431 487.071 120.134 486.851 120.988 486.851C121.897 486.851 122.63 487.076 123.188 487.526C123.751 487.976 124.032 488.56 124.032 489.277H122.323C122.323 488.949 122.202 488.677 121.958 488.461C121.714 488.241 121.391 488.131 120.988 488.131C120.613 488.131 120.305 488.218 120.066 488.391C119.832 488.564 119.715 488.796 119.715 489.087C119.715 489.35 119.825 489.554 120.045 489.699C120.266 489.844 120.711 489.992 121.381 490.142C122.052 490.287 122.577 490.463 122.956 490.669C123.341 490.871 123.624 491.114 123.807 491.4C123.995 491.686 124.088 492.033 124.088 492.441C124.088 493.125 123.805 493.681 123.238 494.107C122.67 494.529 121.927 494.74 121.009 494.74C120.385 494.74 119.83 494.628 119.342 494.403C118.855 494.178 118.475 493.868 118.203 493.475C117.931 493.081 117.795 492.657 117.795 492.202H119.455C119.478 492.605 119.63 492.917 119.912 493.137C120.193 493.353 120.566 493.461 121.03 493.461C121.48 493.461 121.822 493.376 122.056 493.207C122.291 493.034 122.408 492.809 122.408 492.532ZM127.4 494.6H125.691V486.992H127.4V494.6ZM125.586 485.016C125.586 484.754 125.668 484.536 125.832 484.362C126.001 484.189 126.24 484.102 126.549 484.102C126.859 484.102 127.098 484.189 127.266 484.362C127.435 484.536 127.52 484.754 127.52 485.016C127.52 485.274 127.435 485.489 127.266 485.663C127.098 485.832 126.859 485.916 126.549 485.916C126.24 485.916 126.001 485.832 125.832 485.663C125.668 485.489 125.586 485.274 125.586 485.016ZM128.947 490.725C128.947 489.98 129.095 489.31 129.39 488.714C129.685 488.114 130.1 487.655 130.634 487.336C131.169 487.013 131.783 486.851 132.477 486.851C133.503 486.851 134.335 487.182 134.973 487.843C135.615 488.504 135.962 489.38 136.013 490.472L136.02 490.873C136.02 491.623 135.875 492.293 135.584 492.884C135.298 493.475 134.886 493.932 134.347 494.255C133.813 494.579 133.194 494.74 132.491 494.74C131.417 494.74 130.557 494.384 129.91 493.671C129.268 492.954 128.947 492 128.947 490.81V490.725ZM130.655 490.873C130.655 491.656 130.817 492.27 131.141 492.715C131.464 493.156 131.914 493.376 132.491 493.376C133.067 493.376 133.515 493.151 133.834 492.701C134.157 492.251 134.319 491.593 134.319 490.725C134.319 489.957 134.152 489.347 133.82 488.897C133.491 488.447 133.044 488.222 132.477 488.222C131.919 488.222 131.476 488.445 131.148 488.89C130.82 489.331 130.655 489.992 130.655 490.873ZM139.051 486.992L139.1 487.871C139.663 487.191 140.401 486.851 141.315 486.851C142.899 486.851 143.705 487.758 143.734 489.572V494.6H142.025V489.671C142.025 489.188 141.92 488.832 141.709 488.602C141.502 488.368 141.163 488.25 140.689 488.25C140 488.25 139.487 488.562 139.149 489.186V494.6H137.441V486.992H139.051ZM150.891 493.236H154.941V494.6H148.768V493.482L152.628 488.37H148.838V486.992H154.794V488.075L150.891 493.236ZM155.877 490.725C155.877 489.98 156.024 489.31 156.32 488.714C156.615 488.114 157.03 487.655 157.564 487.336C158.098 487.013 158.713 486.851 159.406 486.851C160.433 486.851 161.265 487.182 161.902 487.843C162.545 488.504 162.891 489.38 162.943 490.472L162.95 490.873C162.95 491.623 162.805 492.293 162.514 492.884C162.228 493.475 161.816 493.932 161.277 494.255C160.742 494.579 160.123 494.74 159.42 494.74C158.347 494.74 157.487 494.384 156.84 493.671C156.198 492.954 155.877 492 155.877 490.81V490.725ZM157.585 490.873C157.585 491.656 157.747 492.27 158.07 492.715C158.394 493.156 158.844 493.376 159.42 493.376C159.997 493.376 160.445 493.151 160.763 492.701C161.087 492.251 161.248 491.593 161.248 490.725C161.248 489.957 161.082 489.347 160.749 488.897C160.421 488.447 159.973 488.222 159.406 488.222C158.848 488.222 158.405 488.445 158.077 488.89C157.749 489.331 157.585 489.992 157.585 490.873ZM165.98 486.992L166.03 487.871C166.592 487.191 167.33 486.851 168.245 486.851C169.829 486.851 170.635 487.758 170.663 489.572V494.6H168.955V489.671C168.955 489.188 168.849 488.832 168.638 488.602C168.432 488.368 168.092 488.25 167.619 488.25C166.93 488.25 166.416 488.562 166.079 489.186V494.6H164.37V486.992H165.98ZM175.761 494.74C174.678 494.74 173.799 494.4 173.124 493.721C172.454 493.036 172.119 492.127 172.119 490.993V490.782C172.119 490.022 172.264 489.345 172.555 488.75C172.85 488.15 173.263 487.683 173.792 487.35C174.322 487.018 174.913 486.851 175.564 486.851C176.6 486.851 177.399 487.182 177.962 487.843C178.529 488.504 178.813 489.439 178.813 490.648V491.337H173.841C173.893 491.965 174.102 492.462 174.467 492.828C174.838 493.193 175.302 493.376 175.859 493.376C176.642 493.376 177.28 493.06 177.772 492.427L178.693 493.306C178.388 493.761 177.98 494.114 177.47 494.368C176.963 494.616 176.394 494.74 175.761 494.74ZM175.557 488.222C175.088 488.222 174.709 488.386 174.418 488.714C174.132 489.043 173.949 489.5 173.87 490.086H177.125V489.959C177.088 489.387 176.935 488.956 176.668 488.665C176.401 488.37 176.03 488.222 175.557 488.222ZM184.409 492.532C184.409 492.228 184.283 491.996 184.03 491.836C183.781 491.677 183.366 491.536 182.785 491.414C182.204 491.293 181.719 491.138 181.33 490.95C180.477 490.538 180.05 489.94 180.05 489.157C180.05 488.501 180.327 487.953 180.88 487.512C181.433 487.071 182.136 486.851 182.989 486.851C183.898 486.851 184.632 487.076 185.19 487.526C185.752 487.976 186.034 488.56 186.034 489.277H184.325C184.325 488.949 184.203 488.677 183.959 488.461C183.716 488.241 183.392 488.131 182.989 488.131C182.614 488.131 182.307 488.218 182.068 488.391C181.834 488.564 181.716 488.796 181.716 489.087C181.716 489.35 181.827 489.554 182.047 489.699C182.267 489.844 182.713 489.992 183.383 490.142C184.053 490.287 184.578 490.463 184.958 490.669C185.342 490.871 185.626 491.114 185.809 491.4C185.996 491.686 186.09 492.033 186.09 492.441C186.09 493.125 185.806 493.681 185.239 494.107C184.672 494.529 183.929 494.74 183.01 494.74C182.387 494.74 181.831 494.628 181.344 494.403C180.856 494.178 180.477 493.868 180.205 493.475C179.933 493.081 179.797 492.657 179.797 492.202H181.456C181.48 492.605 181.632 492.917 181.913 493.137C182.195 493.353 182.567 493.461 183.031 493.461C183.481 493.461 183.823 493.376 184.058 493.207C184.292 493.034 184.409 492.809 184.409 492.532Z" fill="#1B2137"/>
<line x1="136" y1="124" x2="136" y2="202" stroke="#E0E0E0" stroke-width="2" stroke-linecap="round" stroke-dasharray="5.5 5.5"/>
<line x1="136" y1="342" x2="136" y2="420" stroke="#E0E0E0" stroke-width="2" stroke-linecap="round" stroke-dasharray="5.5 5.5"/>
<defs>
<filter id="filter0_d" x="18" y="18" width="234" height="72" filterUnits="userSpaceOnUse" color-interpolation-filters="sRGB">
<feFlood flood-opacity="0" result="BackgroundImageFix"/>
<feColorMatrix in="SourceAlpha" type="matrix" values="0 0 0 0 0 0 0 0 0 0 0 0 0 0 0 0 0 0 127 0"/>
<feOffset/>
<feGaussianBlur stdDeviation="3"/>
<feColorMatrix type="matrix" values="0 0 0 0 0 0 0 0 0 0 0 0 0 0 0 0 0 0 0.1 0"/>
<feBlend mode="normal" in2="BackgroundImageFix" result="effect1_dropShadow"/>
<feBlend mode="normal" in="SourceGraphic" in2="effect1_dropShadow" result="shape"/>
</filter>
<filter id="filter1_d" x="18" y="236" width="234" height="72" filterUnits="userSpaceOnUse" color-interpolation-filters="sRGB">
<feFlood flood-opacity="0" result="BackgroundImageFix"/>
<feColorMatrix in="SourceAlpha" type="matrix" values="0 0 0 0 0 0 0 0 0 0 0 0 0 0 0 0 0 0 127 0"/>
<feOffset/>
<feGaussianBlur stdDeviation="3"/>
<feColorMatrix type="matrix" values="0 0 0 0 0 0 0 0 0 0 0 0 0 0 0 0 0 0 0.1 0"/>
<feBlend mode="normal" in2="BackgroundImageFix" result="effect1_dropShadow"/>
<feBlend mode="normal" in="SourceGraphic" in2="effect1_dropShadow" result="shape"/>
</filter>
<filter id="filter2_d" x="18" y="454" width="234" height="72" filterUnits="userSpaceOnUse" color-interpolation-filters="sRGB">
<feFlood flood-opacity="0" result="BackgroundImageFix"/>
<feColorMatrix in="SourceAlpha" type="matrix" values="0 0 0 0 0 0 0 0 0 0 0 0 0 0 0 0 0 0 127 0"/>
<feOffset/>
<feGaussianBlur stdDeviation="3"/>
<feColorMatrix type="matrix" values="0 0 0 0 0 0 0 0 0 0 0 0 0 0 0 0 0 0 0.1 0"/>
<feBlend mode="normal" in2="BackgroundImageFix" result="effect1_dropShadow"/>
<feBlend mode="normal" in="SourceGraphic" in2="effect1_dropShadow" result="shape"/>
</filter>
</defs>
</svg>
