<svg width="320" height="565" viewBox="0 0 320 565" fill="none" xmlns="http://www.w3.org/2000/svg">
<mask id="mask0" mask-type="alpha" maskUnits="userSpaceOnUse" x="-192" y="-445" width="1105" height="1113">
<path d="M671.338 327.64C846.285 406.327 893.554 591.043 876.965 667.231L912.623 632.452V-444.68L-188.441 31.9369C-212.489 370.701 -107.186 473.426 38.7342 451.886C200.417 426.215 413.503 222.437 671.338 327.64Z" fill="#0E8EE2"/>
</mask>
<g mask="url(#mask0)">
<rect x="13.6025" y="-26.5615" width="581.748" height="445.318" fill="#376EB2"/>
<rect width="1179.63" height="669.82" transform="matrix(-1 0 0 1 772.366 -54.2178)" fill="url(#paint0_linear)"/>
<rect width="1179.63" height="669.82" transform="matrix(-1 0 0 1 772.366 -54.2178)" fill="url(#paint1_linear)"/>
<rect width="1179.63" height="669.82" transform="matrix(-1 0 0 1 772.366 -54.2178)" fill="url(#paint2_linear)"/>
<path opacity="0.7" fill-rule="evenodd" clip-rule="evenodd" d="M386.982 -7.85497C387.658 -8.15412 387.964 -8.94475 387.665 -9.62101C387.365 -10.2975 386.575 -10.6033 385.898 -10.3041L187.565 77.4393C186.889 77.7385 186.583 78.5291 186.882 79.2054C187.182 79.8818 187.972 80.1876 188.649 79.8884L386.982 -7.85497Z" fill="#B9EEE8"/>
<path opacity="0.8" fill-rule="evenodd" clip-rule="evenodd" d="M-298.953 275.063C-206.829 306.08 -76.2623 320.688 24.0361 189.56C124.335 58.4318 171.252 13.8768 217.389 20.7779C263.656 27.6448 540.372 66.0324 604.406 35.9224C668.311 5.84664 659.574 -27.1611 659.574 -27.1611L578.403 -333.809L-392.115 -76.8901L-298.953 275.063Z" fill="url(#paint3_linear)"/>
<path opacity="0.67" fill-rule="evenodd" clip-rule="evenodd" d="M598.58 392.699C517.327 342.888 394.712 298.433 264.065 392.699C133.418 486.965 76.6616 515.887 33.5588 498.614C-9.4101 481.341 -267.491 380.782 -337.098 392.699C-406.705 404.616 -406.705 436.484 -406.705 436.484V616.312H598.58V392.699Z" fill="url(#paint4_linear)"/>
<path opacity="0.67" fill-rule="evenodd" clip-rule="evenodd" d="M440.162 510.617C457.895 241.117 157.153 186.259 61.4236 372.611C-34.3059 558.963 -154.284 361.472 -154.284 361.472L-185.707 599.849L417.751 680.628L440.162 510.617Z" fill="url(#paint5_radial)"/>
<path opacity="0.7" fill-rule="evenodd" clip-rule="evenodd" d="M-0.578279 63.8566C-0.240182 63.707 -0.0873119 63.3117 -0.236812 62.9735C-0.386353 62.6353 -0.78179 62.4824 -1.11998 62.632L-116.569 113.707C-116.907 113.857 -117.06 114.252 -116.911 114.59C-116.761 114.929 -116.366 115.082 -116.028 114.932L-0.578279 63.8566Z" fill="#B9EEE8"/>
<path fill-rule="evenodd" clip-rule="evenodd" d="M70.276 -9.08418L69.7346 -10.3088L-2.25308 21.5388L-1.71162 22.7635L70.276 -9.08418Z" fill="#B9EEE8"/>
<path opacity="0.25" fill-rule="evenodd" clip-rule="evenodd" d="M49.0633 367.407L47.9804 364.958L-152.801 453.785L-151.719 456.234L49.0633 367.407Z" fill="#B9EEE8"/>
<path opacity="0.25" fill-rule="evenodd" clip-rule="evenodd" d="M112.543 351.757L112.001 350.532L-88.7804 439.359L-88.2389 440.584L112.543 351.757Z" fill="#B9EEE8"/>
<path opacity="0.8" fill-rule="evenodd" clip-rule="evenodd" d="M24.5189 -144.985C159.65 -47.6256 67.6254 117.051 -58.5947 89.4561C-184.815 61.8614 -138.014 196.497 -138.014 196.497L-289.599 101.684L-91.0136 -217.248L24.5189 -144.985Z" fill="url(#paint6_radial)"/>
<path opacity="0.1" fill-rule="evenodd" clip-rule="evenodd" d="M139.822 -21.0376C140.499 -21.3367 140.804 -22.1274 140.505 -22.8036C140.206 -23.4801 139.415 -23.7859 138.739 -23.4867L-59.5938 64.2567C-60.27 64.5558 -60.5757 65.3465 -60.2767 66.0227C-59.9776 66.6992 -59.1868 67.005 -58.5104 66.7058L139.822 -21.0376Z" fill="#B9EEE8"/>
<path fill-rule="evenodd" clip-rule="evenodd" d="M300.289 302.042C299.895 302.32 299.367 302.602 298.831 302.617L298.43 302.627L281.987 298.646C281.177 298.4 280.627 297.879 280.476 297.213C280.324 296.548 280.44 295.875 280.961 295.325L292.552 283.094C292.939 282.548 293.738 282.393 294.411 282.509C295.221 282.755 295.771 283.276 295.922 283.942L300.774 300.154C300.926 300.819 300.81 301.492 300.289 302.042ZM295.892 297.873L293.092 288.303L286.189 295.587L295.892 297.873Z" fill="white"/>
</g>
<defs>
<linearGradient id="paint0_linear" x1="1755.97" y1="319.604" x2="1173.86" y2="-682.131" gradientUnits="userSpaceOnUse">
<stop stop-color="#81C3F3"/>
<stop offset="1" stop-color="#3055A0"/>
</linearGradient>
<linearGradient id="paint1_linear" x1="1755.97" y1="319.604" x2="1173.86" y2="-682.131" gradientUnits="userSpaceOnUse">
<stop stop-color="#81C3F3"/>
<stop offset="1" stop-color="#3055A0"/>
</linearGradient>
<linearGradient id="paint2_linear" x1="1098.54" y1="242.485" x2="960.741" y2="-429.637" gradientUnits="userSpaceOnUse">
<stop stop-color="#0095E4"/>
<stop offset="1" stop-color="#8854D0"/>
</linearGradient>
<linearGradient id="paint3_linear" x1="-251.559" y1="184.391" x2="-77.1543" y2="585.785" gradientUnits="userSpaceOnUse">
<stop stop-color="#0095E4"/>
<stop offset="1" stop-color="#8854D0"/>
</linearGradient>
<linearGradient id="paint4_linear" x1="-501.159" y1="448.29" x2="-477.109" y2="83.2625" gradientUnits="userSpaceOnUse">
<stop stop-color="#8854D0" stop-opacity="0.01"/>
<stop offset="1" stop-color="#0097E5"/>
</linearGradient>
<radialGradient id="paint5_radial" cx="0" cy="0" r="1" gradientUnits="userSpaceOnUse" gradientTransform="translate(141.597 446.393) rotate(97.5093) scale(375.424 582.655)">
<stop stop-color="#01BEF1"/>
<stop offset="1" stop-color="#376EB2"/>
</radialGradient>
<radialGradient id="paint6_radial" cx="0" cy="0" r="1" gradientUnits="userSpaceOnUse" gradientTransform="translate(-75.1349 14.2318) rotate(-147.975) scale(240.448 331.587)">
<stop stop-color="#00BDF1"/>
<stop offset="1" stop-color="#8854D0"/>
</radialGradient>
</defs>
</svg>
