<svg width="320" height="600" viewBox="0 0 320 600" fill="none" xmlns="http://www.w3.org/2000/svg">
<rect x="15.5" y="160.5" width="289" height="59" rx="29.5" fill="#FCFCFC" stroke="#E69D44"/>
<path d="M85.0625 195H83.5547V189.742H77.8203V195H76.3203V183.625H77.8203V188.516H83.5547V183.625H85.0625V195ZM91.2656 192.883L93.2344 186.547H94.7812L91.3828 196.305C90.8568 197.711 90.0208 198.414 88.875 198.414L88.6016 198.391L88.0625 198.289V197.117L88.4531 197.148C88.9427 197.148 89.3229 197.049 89.5938 196.852C89.8698 196.654 90.0964 196.292 90.2734 195.766L90.5938 194.906L87.5781 186.547H89.1562L91.2656 192.883ZM104.219 190.867C104.219 192.154 103.924 193.19 103.336 193.977C102.747 194.763 101.951 195.156 100.945 195.156C99.9193 195.156 99.112 194.831 98.5234 194.18V198.25H97.0781V186.547H98.3984L98.4688 187.484C99.0573 186.755 99.875 186.391 100.922 186.391C101.938 186.391 102.74 186.773 103.328 187.539C103.922 188.305 104.219 189.37 104.219 190.734V190.867ZM102.773 190.703C102.773 189.75 102.57 188.997 102.164 188.445C101.758 187.893 101.201 187.617 100.492 187.617C99.6172 187.617 98.9609 188.005 98.5234 188.781V192.82C98.9557 193.591 99.6172 193.977 100.508 193.977C101.201 193.977 101.75 193.703 102.156 193.156C102.568 192.604 102.773 191.786 102.773 190.703ZM106.68 190.695C106.68 189.867 106.841 189.122 107.164 188.461C107.492 187.799 107.945 187.289 108.523 186.93C109.107 186.57 109.771 186.391 110.516 186.391C111.667 186.391 112.596 186.789 113.305 187.586C114.018 188.383 114.375 189.443 114.375 190.766V190.867C114.375 191.69 114.216 192.43 113.898 193.086C113.586 193.737 113.135 194.245 112.547 194.609C111.964 194.974 111.292 195.156 110.531 195.156C109.385 195.156 108.456 194.758 107.742 193.961C107.034 193.164 106.68 192.109 106.68 190.797V190.695ZM108.133 190.867C108.133 191.805 108.349 192.557 108.781 193.125C109.219 193.693 109.802 193.977 110.531 193.977C111.266 193.977 111.849 193.69 112.281 193.117C112.714 192.539 112.93 191.732 112.93 190.695C112.93 189.768 112.708 189.018 112.266 188.445C111.828 187.867 111.245 187.578 110.516 187.578C109.802 187.578 109.227 187.862 108.789 188.43C108.352 188.997 108.133 189.81 108.133 190.867ZM119.148 184.5V186.547H120.727V187.664H119.148V192.906C119.148 193.245 119.219 193.5 119.359 193.672C119.5 193.839 119.74 193.922 120.078 193.922C120.245 193.922 120.474 193.891 120.766 193.828V195C120.385 195.104 120.016 195.156 119.656 195.156C119.01 195.156 118.523 194.961 118.195 194.57C117.867 194.18 117.703 193.625 117.703 192.906V187.664H116.164V186.547H117.703V184.5H119.148ZM124.867 187.57C125.508 186.784 126.341 186.391 127.367 186.391C129.154 186.391 130.055 187.398 130.07 189.414V195H128.625V189.406C128.62 188.797 128.479 188.346 128.203 188.055C127.932 187.763 127.508 187.617 126.93 187.617C126.461 187.617 126.049 187.742 125.695 187.992C125.341 188.242 125.065 188.57 124.867 188.977V195H123.422V183H124.867V187.57ZM136.742 195.156C135.596 195.156 134.664 194.781 133.945 194.031C133.227 193.276 132.867 192.268 132.867 191.008V190.742C132.867 189.904 133.026 189.156 133.344 188.5C133.667 187.839 134.115 187.323 134.688 186.953C135.266 186.578 135.891 186.391 136.562 186.391C137.661 186.391 138.516 186.753 139.125 187.477C139.734 188.201 140.039 189.237 140.039 190.586V191.188H134.312C134.333 192.021 134.576 192.695 135.039 193.211C135.508 193.721 136.102 193.977 136.82 193.977C137.331 193.977 137.763 193.872 138.117 193.664C138.471 193.456 138.781 193.18 139.047 192.836L139.93 193.523C139.221 194.612 138.159 195.156 136.742 195.156ZM136.562 187.578C135.979 187.578 135.49 187.792 135.094 188.219C134.698 188.641 134.453 189.234 134.359 190H138.594V189.891C138.552 189.156 138.354 188.589 138 188.188C137.646 187.781 137.167 187.578 136.562 187.578ZM147.641 192.758C147.641 192.367 147.492 192.065 147.195 191.852C146.904 191.633 146.391 191.445 145.656 191.289C144.927 191.133 144.346 190.945 143.914 190.727C143.487 190.508 143.169 190.247 142.961 189.945C142.758 189.643 142.656 189.284 142.656 188.867C142.656 188.174 142.948 187.589 143.531 187.109C144.12 186.63 144.87 186.391 145.781 186.391C146.74 186.391 147.516 186.638 148.109 187.133C148.708 187.628 149.008 188.26 149.008 189.031H147.555C147.555 188.635 147.385 188.294 147.047 188.008C146.714 187.721 146.292 187.578 145.781 187.578C145.255 187.578 144.844 187.693 144.547 187.922C144.25 188.151 144.102 188.451 144.102 188.82C144.102 189.169 144.24 189.432 144.516 189.609C144.792 189.786 145.289 189.956 146.008 190.117C146.732 190.279 147.318 190.471 147.766 190.695C148.214 190.919 148.544 191.19 148.758 191.508C148.977 191.82 149.086 192.203 149.086 192.656C149.086 193.411 148.784 194.018 148.18 194.477C147.576 194.93 146.792 195.156 145.828 195.156C145.151 195.156 144.552 195.036 144.031 194.797C143.51 194.557 143.102 194.224 142.805 193.797C142.513 193.365 142.367 192.898 142.367 192.398H143.812C143.839 192.883 144.031 193.268 144.391 193.555C144.755 193.836 145.234 193.977 145.828 193.977C146.375 193.977 146.812 193.867 147.141 193.648C147.474 193.424 147.641 193.128 147.641 192.758ZM153.539 195H152.094V186.547H153.539V195ZM151.977 184.305C151.977 184.07 152.047 183.872 152.188 183.711C152.333 183.549 152.547 183.469 152.828 183.469C153.109 183.469 153.323 183.549 153.469 183.711C153.615 183.872 153.688 184.07 153.688 184.305C153.688 184.539 153.615 184.734 153.469 184.891C153.323 185.047 153.109 185.125 152.828 185.125C152.547 185.125 152.333 185.047 152.188 184.891C152.047 184.734 151.977 184.539 151.977 184.305ZM161.781 192.758C161.781 192.367 161.633 192.065 161.336 191.852C161.044 191.633 160.531 191.445 159.797 191.289C159.068 191.133 158.487 190.945 158.055 190.727C157.628 190.508 157.31 190.247 157.102 189.945C156.898 189.643 156.797 189.284 156.797 188.867C156.797 188.174 157.089 187.589 157.672 187.109C158.26 186.63 159.01 186.391 159.922 186.391C160.88 186.391 161.656 186.638 162.25 187.133C162.849 187.628 163.148 188.26 163.148 189.031H161.695C161.695 188.635 161.526 188.294 161.188 188.008C160.854 187.721 160.432 187.578 159.922 187.578C159.396 187.578 158.984 187.693 158.688 187.922C158.391 188.151 158.242 188.451 158.242 188.82C158.242 189.169 158.38 189.432 158.656 189.609C158.932 189.786 159.43 189.956 160.148 190.117C160.872 190.279 161.458 190.471 161.906 190.695C162.354 190.919 162.685 191.19 162.898 191.508C163.117 191.82 163.227 192.203 163.227 192.656C163.227 193.411 162.924 194.018 162.32 194.477C161.716 194.93 160.932 195.156 159.969 195.156C159.292 195.156 158.693 195.036 158.172 194.797C157.651 194.557 157.242 194.224 156.945 193.797C156.654 193.365 156.508 192.898 156.508 192.398H157.953C157.979 192.883 158.172 193.268 158.531 193.555C158.896 193.836 159.375 193.977 159.969 193.977C160.516 193.977 160.953 193.867 161.281 193.648C161.615 193.424 161.781 193.128 161.781 192.758ZM173.039 184.5V186.547H174.617V187.664H173.039V192.906C173.039 193.245 173.109 193.5 173.25 193.672C173.391 193.839 173.63 193.922 173.969 193.922C174.135 193.922 174.365 193.891 174.656 193.828V195C174.276 195.104 173.906 195.156 173.547 195.156C172.901 195.156 172.414 194.961 172.086 194.57C171.758 194.18 171.594 193.625 171.594 192.906V187.664H170.055V186.547H171.594V184.5H173.039ZM180.82 195.156C179.674 195.156 178.742 194.781 178.023 194.031C177.305 193.276 176.945 192.268 176.945 191.008V190.742C176.945 189.904 177.104 189.156 177.422 188.5C177.745 187.839 178.193 187.323 178.766 186.953C179.344 186.578 179.969 186.391 180.641 186.391C181.74 186.391 182.594 186.753 183.203 187.477C183.812 188.201 184.117 189.237 184.117 190.586V191.188H178.391C178.411 192.021 178.654 192.695 179.117 193.211C179.586 193.721 180.18 193.977 180.898 193.977C181.409 193.977 181.841 193.872 182.195 193.664C182.549 193.456 182.859 193.18 183.125 192.836L184.008 193.523C183.299 194.612 182.237 195.156 180.82 195.156ZM180.641 187.578C180.057 187.578 179.568 187.792 179.172 188.219C178.776 188.641 178.531 189.234 178.438 190H182.672V189.891C182.63 189.156 182.432 188.589 182.078 188.188C181.724 187.781 181.245 187.578 180.641 187.578ZM191.719 192.758C191.719 192.367 191.57 192.065 191.273 191.852C190.982 191.633 190.469 191.445 189.734 191.289C189.005 191.133 188.424 190.945 187.992 190.727C187.565 190.508 187.247 190.247 187.039 189.945C186.836 189.643 186.734 189.284 186.734 188.867C186.734 188.174 187.026 187.589 187.609 187.109C188.198 186.63 188.948 186.391 189.859 186.391C190.818 186.391 191.594 186.638 192.188 187.133C192.786 187.628 193.086 188.26 193.086 189.031H191.633C191.633 188.635 191.464 188.294 191.125 188.008C190.792 187.721 190.37 187.578 189.859 187.578C189.333 187.578 188.922 187.693 188.625 187.922C188.328 188.151 188.18 188.451 188.18 188.82C188.18 189.169 188.318 189.432 188.594 189.609C188.87 189.786 189.367 189.956 190.086 190.117C190.81 190.279 191.396 190.471 191.844 190.695C192.292 190.919 192.622 191.19 192.836 191.508C193.055 191.82 193.164 192.203 193.164 192.656C193.164 193.411 192.862 194.018 192.258 194.477C191.654 194.93 190.87 195.156 189.906 195.156C189.229 195.156 188.63 195.036 188.109 194.797C187.589 194.557 187.18 194.224 186.883 193.797C186.591 193.365 186.445 192.898 186.445 192.398H187.891C187.917 192.883 188.109 193.268 188.469 193.555C188.833 193.836 189.312 193.977 189.906 193.977C190.453 193.977 190.891 193.867 191.219 193.648C191.552 193.424 191.719 193.128 191.719 192.758ZM198.008 184.5V186.547H199.586V187.664H198.008V192.906C198.008 193.245 198.078 193.5 198.219 193.672C198.359 193.839 198.599 193.922 198.938 193.922C199.104 193.922 199.333 193.891 199.625 193.828V195C199.245 195.104 198.875 195.156 198.516 195.156C197.87 195.156 197.383 194.961 197.055 194.57C196.727 194.18 196.562 193.625 196.562 192.906V187.664H195.023V186.547H196.562V184.5H198.008ZM203.852 195H202.406V186.547H203.852V195ZM202.289 184.305C202.289 184.07 202.359 183.872 202.5 183.711C202.646 183.549 202.859 183.469 203.141 183.469C203.422 183.469 203.635 183.549 203.781 183.711C203.927 183.872 204 184.07 204 184.305C204 184.539 203.927 184.734 203.781 184.891C203.635 185.047 203.422 185.125 203.141 185.125C202.859 185.125 202.646 185.047 202.5 184.891C202.359 184.734 202.289 184.539 202.289 184.305ZM208.539 186.547L208.586 187.609C209.232 186.797 210.076 186.391 211.117 186.391C212.904 186.391 213.805 187.398 213.82 189.414V195H212.375V189.406C212.37 188.797 212.229 188.346 211.953 188.055C211.682 187.763 211.258 187.617 210.68 187.617C210.211 187.617 209.799 187.742 209.445 187.992C209.091 188.242 208.815 188.57 208.617 188.977V195H207.172V186.547H208.539ZM216.656 190.703C216.656 189.385 216.961 188.339 217.57 187.562C218.18 186.781 218.987 186.391 219.992 186.391C221.023 186.391 221.828 186.755 222.406 187.484L222.477 186.547H223.797V194.797C223.797 195.891 223.471 196.753 222.82 197.383C222.174 198.013 221.305 198.328 220.211 198.328C219.602 198.328 219.005 198.198 218.422 197.938C217.839 197.677 217.393 197.32 217.086 196.867L217.836 196C218.456 196.766 219.214 197.148 220.109 197.148C220.812 197.148 221.359 196.951 221.75 196.555C222.146 196.159 222.344 195.602 222.344 194.883V194.156C221.766 194.823 220.977 195.156 219.977 195.156C218.987 195.156 218.185 194.758 217.57 193.961C216.961 193.164 216.656 192.078 216.656 190.703ZM218.109 190.867C218.109 191.82 218.305 192.57 218.695 193.117C219.086 193.659 219.633 193.93 220.336 193.93C221.247 193.93 221.917 193.516 222.344 192.688V188.828C221.901 188.021 221.237 187.617 220.352 187.617C219.648 187.617 219.099 187.891 218.703 188.438C218.307 188.984 218.109 189.794 218.109 190.867ZM231.898 190.383C231.898 189.206 232.055 188.076 232.367 186.992C232.685 185.909 233.156 184.924 233.781 184.039C234.406 183.154 235.055 182.529 235.727 182.164L236.023 183.117C235.263 183.701 234.638 184.591 234.148 185.789C233.664 186.987 233.398 188.328 233.352 189.812L233.344 190.477C233.344 192.487 233.711 194.232 234.445 195.711C234.888 196.596 235.414 197.289 236.023 197.789L235.727 198.672C235.034 198.286 234.372 197.641 233.742 196.734C232.513 194.964 231.898 192.846 231.898 190.383ZM243.945 183.617V184.844H243.68C242.555 184.865 241.659 185.198 240.992 185.844C240.326 186.49 239.94 187.398 239.836 188.57C240.435 187.883 241.253 187.539 242.289 187.539C243.279 187.539 244.068 187.888 244.656 188.586C245.25 189.284 245.547 190.185 245.547 191.289C245.547 192.461 245.227 193.398 244.586 194.102C243.951 194.805 243.096 195.156 242.023 195.156C240.935 195.156 240.052 194.74 239.375 193.906C238.698 193.068 238.359 191.99 238.359 190.672V190.117C238.359 188.023 238.805 186.424 239.695 185.32C240.591 184.211 241.922 183.643 243.688 183.617H243.945ZM242.047 188.742C241.552 188.742 241.096 188.891 240.68 189.188C240.263 189.484 239.974 189.857 239.812 190.305V190.836C239.812 191.773 240.023 192.529 240.445 193.102C240.867 193.674 241.393 193.961 242.023 193.961C242.674 193.961 243.185 193.721 243.555 193.242C243.93 192.763 244.117 192.135 244.117 191.359C244.117 190.578 243.927 189.948 243.547 189.469C243.172 188.984 242.672 188.742 242.047 188.742ZM249.852 187.57C250.492 186.784 251.326 186.391 252.352 186.391C254.138 186.391 255.039 187.398 255.055 189.414V195H253.609V189.406C253.604 188.797 253.464 188.346 253.188 188.055C252.917 187.763 252.492 187.617 251.914 187.617C251.445 187.617 251.034 187.742 250.68 187.992C250.326 188.242 250.049 188.57 249.852 188.977V195H248.406V183H249.852V187.57ZM261.555 190.461C261.555 191.622 261.401 192.737 261.094 193.805C260.792 194.867 260.326 195.849 259.695 196.75C259.07 197.651 258.414 198.292 257.727 198.672L257.422 197.789C258.224 197.174 258.867 196.221 259.352 194.93C259.841 193.633 260.091 192.195 260.102 190.617V190.367C260.102 189.273 259.987 188.258 259.758 187.32C259.529 186.378 259.208 185.534 258.797 184.789C258.391 184.044 257.932 183.464 257.422 183.047L257.727 182.164C258.414 182.544 259.068 183.18 259.688 184.07C260.312 184.961 260.779 185.943 261.086 187.016C261.398 188.089 261.555 189.237 261.555 190.461Z" fill="#1A1C1E"/>
<rect x="25" y="170" width="40" height="40" rx="20" fill="#E69D44"/>
<rect x="15.5" y="80.5" width="196" height="59" rx="29.5" fill="#FCFCFC" stroke="#0B9219"/>
<path d="M84.3281 103.625V111.359C84.3229 112.432 83.9844 113.31 83.3125 113.992C82.6458 114.674 81.7396 115.057 80.5938 115.141L80.1953 115.156C78.9505 115.156 77.9583 114.82 77.2188 114.148C76.4792 113.477 76.1042 112.552 76.0938 111.375V103.625H77.5781V111.328C77.5781 112.151 77.8047 112.792 78.2578 113.25C78.7109 113.703 79.3568 113.93 80.1953 113.93C81.0443 113.93 81.6927 113.703 82.1406 113.25C82.5938 112.797 82.8203 112.159 82.8203 111.336V103.625H84.3281ZM92.3906 112.758C92.3906 112.367 92.2422 112.065 91.9453 111.852C91.6536 111.633 91.1406 111.445 90.4062 111.289C89.6771 111.133 89.0964 110.945 88.6641 110.727C88.237 110.508 87.9193 110.247 87.7109 109.945C87.5078 109.643 87.4062 109.284 87.4062 108.867C87.4062 108.174 87.6979 107.589 88.2812 107.109C88.8698 106.63 89.6198 106.391 90.5312 106.391C91.4896 106.391 92.2656 106.638 92.8594 107.133C93.4583 107.628 93.7578 108.26 93.7578 109.031H92.3047C92.3047 108.635 92.1354 108.294 91.7969 108.008C91.4635 107.721 91.0417 107.578 90.5312 107.578C90.0052 107.578 89.5938 107.693 89.2969 107.922C89 108.151 88.8516 108.451 88.8516 108.82C88.8516 109.169 88.9896 109.432 89.2656 109.609C89.5417 109.786 90.0391 109.956 90.7578 110.117C91.4818 110.279 92.0677 110.471 92.5156 110.695C92.9635 110.919 93.2943 111.19 93.5078 111.508C93.7266 111.82 93.8359 112.203 93.8359 112.656C93.8359 113.411 93.5339 114.018 92.9297 114.477C92.3255 114.93 91.5417 115.156 90.5781 115.156C89.901 115.156 89.3021 115.036 88.7812 114.797C88.2604 114.557 87.8516 114.224 87.5547 113.797C87.263 113.365 87.1172 112.898 87.1172 112.398H88.5625C88.5885 112.883 88.7812 113.268 89.1406 113.555C89.5052 113.836 89.9844 113.977 90.5781 113.977C91.125 113.977 91.5625 113.867 91.8906 113.648C92.224 113.424 92.3906 113.128 92.3906 112.758ZM100.227 115.156C99.0807 115.156 98.1484 114.781 97.4297 114.031C96.7109 113.276 96.3516 112.268 96.3516 111.008V110.742C96.3516 109.904 96.5104 109.156 96.8281 108.5C97.151 107.839 97.599 107.323 98.1719 106.953C98.75 106.578 99.375 106.391 100.047 106.391C101.146 106.391 102 106.753 102.609 107.477C103.219 108.201 103.523 109.237 103.523 110.586V111.188H97.7969C97.8177 112.021 98.0599 112.695 98.5234 113.211C98.9922 113.721 99.5859 113.977 100.305 113.977C100.815 113.977 101.247 113.872 101.602 113.664C101.956 113.456 102.266 113.18 102.531 112.836L103.414 113.523C102.706 114.612 101.643 115.156 100.227 115.156ZM100.047 107.578C99.4635 107.578 98.974 107.792 98.5781 108.219C98.1823 108.641 97.9375 109.234 97.8438 110H102.078V109.891C102.036 109.156 101.839 108.589 101.484 108.188C101.13 107.781 100.651 107.578 100.047 107.578ZM110.289 107.844C110.07 107.807 109.833 107.789 109.578 107.789C108.63 107.789 107.987 108.193 107.648 109V115H106.203V106.547H107.609L107.633 107.523C108.107 106.768 108.779 106.391 109.648 106.391C109.93 106.391 110.143 106.427 110.289 106.5V107.844ZM122.875 104.227C122.229 104.122 121.708 104.07 121.312 104.07C120.271 104.07 119.75 104.617 119.75 105.711V106.547H121.555V107.664H119.75V115H118.305V107.664H116.969V106.547H118.305V105.625C118.31 104.724 118.562 104.034 119.062 103.555C119.562 103.076 120.273 102.836 121.195 102.836C121.721 102.836 122.763 102.995 124.32 103.312V115H122.875V104.227ZM127.305 110.695C127.305 109.867 127.466 109.122 127.789 108.461C128.117 107.799 128.57 107.289 129.148 106.93C129.732 106.57 130.396 106.391 131.141 106.391C132.292 106.391 133.221 106.789 133.93 107.586C134.643 108.383 135 109.443 135 110.766V110.867C135 111.69 134.841 112.43 134.523 113.086C134.211 113.737 133.76 114.245 133.172 114.609C132.589 114.974 131.917 115.156 131.156 115.156C130.01 115.156 129.081 114.758 128.367 113.961C127.659 113.164 127.305 112.109 127.305 110.797V110.695ZM128.758 110.867C128.758 111.805 128.974 112.557 129.406 113.125C129.844 113.693 130.427 113.977 131.156 113.977C131.891 113.977 132.474 113.69 132.906 113.117C133.339 112.539 133.555 111.732 133.555 110.695C133.555 109.768 133.333 109.018 132.891 108.445C132.453 107.867 131.87 107.578 131.141 107.578C130.427 107.578 129.852 107.862 129.414 108.43C128.977 108.997 128.758 109.81 128.758 110.867ZM145.297 113.008L146.922 106.547H148.367L145.906 115H144.734L142.68 108.594L140.68 115H139.508L137.055 106.547H138.492L140.156 112.875L142.125 106.547H143.289L145.297 113.008ZM155.758 110.383C155.758 109.206 155.914 108.076 156.227 106.992C156.544 105.909 157.016 104.924 157.641 104.039C158.266 103.154 158.914 102.529 159.586 102.164L159.883 103.117C159.122 103.701 158.497 104.591 158.008 105.789C157.523 106.987 157.258 108.328 157.211 109.812L157.203 110.477C157.203 112.487 157.57 114.232 158.305 115.711C158.747 116.596 159.273 117.289 159.883 117.789L159.586 118.672C158.893 118.286 158.232 117.641 157.602 116.734C156.372 114.964 155.758 112.846 155.758 110.383ZM164.234 108.609H165.32C166.003 108.599 166.539 108.419 166.93 108.07C167.32 107.721 167.516 107.25 167.516 106.656C167.516 105.323 166.852 104.656 165.523 104.656C164.898 104.656 164.398 104.836 164.023 105.195C163.654 105.549 163.469 106.021 163.469 106.609H162.023C162.023 105.708 162.352 104.961 163.008 104.367C163.669 103.768 164.508 103.469 165.523 103.469C166.596 103.469 167.438 103.753 168.047 104.32C168.656 104.888 168.961 105.677 168.961 106.688C168.961 107.182 168.799 107.661 168.477 108.125C168.159 108.589 167.724 108.935 167.172 109.164C167.797 109.362 168.279 109.69 168.617 110.148C168.961 110.607 169.133 111.167 169.133 111.828C169.133 112.849 168.799 113.659 168.133 114.258C167.466 114.857 166.599 115.156 165.531 115.156C164.464 115.156 163.594 114.867 162.922 114.289C162.255 113.711 161.922 112.948 161.922 112H163.375C163.375 112.599 163.57 113.078 163.961 113.438C164.352 113.797 164.875 113.977 165.531 113.977C166.229 113.977 166.763 113.794 167.133 113.43C167.503 113.065 167.688 112.542 167.688 111.859C167.688 111.198 167.484 110.69 167.078 110.336C166.672 109.982 166.086 109.799 165.32 109.789H164.234V108.609ZM173.711 107.57C174.352 106.784 175.185 106.391 176.211 106.391C177.997 106.391 178.898 107.398 178.914 109.414V115H177.469V109.406C177.464 108.797 177.323 108.346 177.047 108.055C176.776 107.763 176.352 107.617 175.773 107.617C175.305 107.617 174.893 107.742 174.539 107.992C174.185 108.242 173.909 108.57 173.711 108.977V115H172.266V103H173.711V107.57ZM185.414 110.461C185.414 111.622 185.26 112.737 184.953 113.805C184.651 114.867 184.185 115.849 183.555 116.75C182.93 117.651 182.273 118.292 181.586 118.672L181.281 117.789C182.083 117.174 182.727 116.221 183.211 114.93C183.701 113.633 183.951 112.195 183.961 110.617V110.367C183.961 109.273 183.846 108.258 183.617 107.32C183.388 106.378 183.068 105.534 182.656 104.789C182.25 104.044 181.792 103.464 181.281 103.047L181.586 102.164C182.273 102.544 182.927 103.18 183.547 104.07C184.172 104.961 184.638 105.943 184.945 107.016C185.258 108.089 185.414 109.237 185.414 110.461Z" fill="#1A1C1E"/>
<rect x="25" y="90" width="40" height="40" rx="20" fill="#0B9219"/>
<rect x="15.5" y="240.5" width="557" height="59" rx="29.5" fill="#FCFCFC" stroke="#AD6DA9"/>
<path d="M76.3203 275V263.625H79.5312C80.5208 263.625 81.3958 263.844 82.1562 264.281C82.9167 264.719 83.5026 265.341 83.9141 266.148C84.3307 266.956 84.5417 267.883 84.5469 268.93V269.656C84.5469 270.729 84.3385 271.669 83.9219 272.477C83.5104 273.284 82.9193 273.904 82.1484 274.336C81.3828 274.768 80.4896 274.99 79.4688 275H76.3203ZM77.8203 264.859V273.773H79.3984C80.5547 273.773 81.4531 273.414 82.0938 272.695C82.7396 271.977 83.0625 270.953 83.0625 269.625V268.961C83.0625 267.669 82.7578 266.667 82.1484 265.953C81.5443 265.234 80.6849 264.87 79.5703 264.859H77.8203ZM91.1016 275.156C89.9557 275.156 89.0234 274.781 88.3047 274.031C87.5859 273.276 87.2266 272.268 87.2266 271.008V270.742C87.2266 269.904 87.3854 269.156 87.7031 268.5C88.026 267.839 88.474 267.323 89.0469 266.953C89.625 266.578 90.25 266.391 90.9219 266.391C92.0208 266.391 92.875 266.753 93.4844 267.477C94.0938 268.201 94.3984 269.237 94.3984 270.586V271.188H88.6719C88.6927 272.021 88.9349 272.695 89.3984 273.211C89.8672 273.721 90.4609 273.977 91.1797 273.977C91.6901 273.977 92.1224 273.872 92.4766 273.664C92.8307 273.456 93.1406 273.18 93.4062 272.836L94.2891 273.523C93.5807 274.612 92.5182 275.156 91.1016 275.156ZM90.9219 267.578C90.3385 267.578 89.849 267.792 89.4531 268.219C89.0573 268.641 88.8125 269.234 88.7188 270H92.9531V269.891C92.9115 269.156 92.7135 268.589 92.3594 268.188C92.0052 267.781 91.526 267.578 90.9219 267.578ZM102 272.758C102 272.367 101.852 272.065 101.555 271.852C101.263 271.633 100.75 271.445 100.016 271.289C99.2865 271.133 98.7057 270.945 98.2734 270.727C97.8464 270.508 97.5286 270.247 97.3203 269.945C97.1172 269.643 97.0156 269.284 97.0156 268.867C97.0156 268.174 97.3073 267.589 97.8906 267.109C98.4792 266.63 99.2292 266.391 100.141 266.391C101.099 266.391 101.875 266.638 102.469 267.133C103.068 267.628 103.367 268.26 103.367 269.031H101.914C101.914 268.635 101.745 268.294 101.406 268.008C101.073 267.721 100.651 267.578 100.141 267.578C99.6146 267.578 99.2031 267.693 98.9062 267.922C98.6094 268.151 98.4609 268.451 98.4609 268.82C98.4609 269.169 98.599 269.432 98.875 269.609C99.151 269.786 99.6484 269.956 100.367 270.117C101.091 270.279 101.677 270.471 102.125 270.695C102.573 270.919 102.904 271.19 103.117 271.508C103.336 271.82 103.445 272.203 103.445 272.656C103.445 273.411 103.143 274.018 102.539 274.477C101.935 274.93 101.151 275.156 100.188 275.156C99.5104 275.156 98.9115 275.036 98.3906 274.797C97.8698 274.557 97.4609 274.224 97.1641 273.797C96.8724 273.365 96.7266 272.898 96.7266 272.398H98.1719C98.1979 272.883 98.3906 273.268 98.75 273.555C99.1146 273.836 99.5938 273.977 100.188 273.977C100.734 273.977 101.172 273.867 101.5 273.648C101.833 273.424 102 273.128 102 272.758ZM108.688 271.086L107.781 272.031V275H106.336V263H107.781V270.258L108.555 269.328L111.188 266.547H112.945L109.656 270.078L113.328 275H111.633L108.688 271.086ZM117.398 264.5V266.547H118.977V267.664H117.398V272.906C117.398 273.245 117.469 273.5 117.609 273.672C117.75 273.839 117.99 273.922 118.328 273.922C118.495 273.922 118.724 273.891 119.016 273.828V275C118.635 275.104 118.266 275.156 117.906 275.156C117.26 275.156 116.773 274.961 116.445 274.57C116.117 274.18 115.953 273.625 115.953 272.906V267.664H114.414V266.547H115.953V264.5H117.398ZM121.133 270.695C121.133 269.867 121.294 269.122 121.617 268.461C121.945 267.799 122.398 267.289 122.977 266.93C123.56 266.57 124.224 266.391 124.969 266.391C126.12 266.391 127.049 266.789 127.758 267.586C128.471 268.383 128.828 269.443 128.828 270.766V270.867C128.828 271.69 128.669 272.43 128.352 273.086C128.039 273.737 127.589 274.245 127 274.609C126.417 274.974 125.745 275.156 124.984 275.156C123.839 275.156 122.909 274.758 122.195 273.961C121.487 273.164 121.133 272.109 121.133 270.797V270.695ZM122.586 270.867C122.586 271.805 122.802 272.557 123.234 273.125C123.672 273.693 124.255 273.977 124.984 273.977C125.719 273.977 126.302 273.69 126.734 273.117C127.167 272.539 127.383 271.732 127.383 270.695C127.383 269.768 127.161 269.018 126.719 268.445C126.281 267.867 125.698 267.578 124.969 267.578C124.255 267.578 123.68 267.862 123.242 268.43C122.805 268.997 122.586 269.81 122.586 270.867ZM138.781 270.867C138.781 272.154 138.487 273.19 137.898 273.977C137.31 274.763 136.513 275.156 135.508 275.156C134.482 275.156 133.674 274.831 133.086 274.18V278.25H131.641V266.547H132.961L133.031 267.484C133.62 266.755 134.438 266.391 135.484 266.391C136.5 266.391 137.302 266.773 137.891 267.539C138.484 268.305 138.781 269.37 138.781 270.734V270.867ZM137.336 270.703C137.336 269.75 137.133 268.997 136.727 268.445C136.32 267.893 135.763 267.617 135.055 267.617C134.18 267.617 133.523 268.005 133.086 268.781V272.82C133.518 273.591 134.18 273.977 135.07 273.977C135.763 273.977 136.312 273.703 136.719 273.156C137.13 272.604 137.336 271.786 137.336 270.703ZM148.32 270.547V275H146.82V263.625H151.016C152.26 263.625 153.234 263.943 153.938 264.578C154.646 265.214 155 266.055 155 267.102C155 268.206 154.654 269.057 153.961 269.656C153.273 270.25 152.286 270.547 151 270.547H148.32ZM148.32 269.32H151.016C151.818 269.32 152.432 269.133 152.859 268.758C153.286 268.378 153.5 267.831 153.5 267.117C153.5 266.44 153.286 265.898 152.859 265.492C152.432 265.086 151.846 264.875 151.102 264.859H148.32V269.32ZM161.773 267.844C161.555 267.807 161.318 267.789 161.062 267.789C160.115 267.789 159.471 268.193 159.133 269V275H157.688V266.547H159.094L159.117 267.523C159.591 266.768 160.263 266.391 161.133 266.391C161.414 266.391 161.628 266.427 161.773 266.5V267.844ZM163.57 270.695C163.57 269.867 163.732 269.122 164.055 268.461C164.383 267.799 164.836 267.289 165.414 266.93C165.997 266.57 166.661 266.391 167.406 266.391C168.557 266.391 169.487 266.789 170.195 267.586C170.909 268.383 171.266 269.443 171.266 270.766V270.867C171.266 271.69 171.107 272.43 170.789 273.086C170.477 273.737 170.026 274.245 169.438 274.609C168.854 274.974 168.182 275.156 167.422 275.156C166.276 275.156 165.346 274.758 164.633 273.961C163.924 273.164 163.57 272.109 163.57 270.797V270.695ZM165.023 270.867C165.023 271.805 165.24 272.557 165.672 273.125C166.109 273.693 166.693 273.977 167.422 273.977C168.156 273.977 168.74 273.69 169.172 273.117C169.604 272.539 169.82 271.732 169.82 270.695C169.82 269.768 169.599 269.018 169.156 268.445C168.719 267.867 168.135 267.578 167.406 267.578C166.693 267.578 166.117 267.862 165.68 268.43C165.242 268.997 165.023 269.81 165.023 270.867ZM176.039 264.5V266.547H177.617V267.664H176.039V272.906C176.039 273.245 176.109 273.5 176.25 273.672C176.391 273.839 176.63 273.922 176.969 273.922C177.135 273.922 177.365 273.891 177.656 273.828V275C177.276 275.104 176.906 275.156 176.547 275.156C175.901 275.156 175.414 274.961 175.086 274.57C174.758 274.18 174.594 273.625 174.594 272.906V267.664H173.055V266.547H174.594V264.5H176.039ZM179.773 270.695C179.773 269.867 179.935 269.122 180.258 268.461C180.586 267.799 181.039 267.289 181.617 266.93C182.201 266.57 182.865 266.391 183.609 266.391C184.76 266.391 185.69 266.789 186.398 267.586C187.112 268.383 187.469 269.443 187.469 270.766V270.867C187.469 271.69 187.31 272.43 186.992 273.086C186.68 273.737 186.229 274.245 185.641 274.609C185.057 274.974 184.385 275.156 183.625 275.156C182.479 275.156 181.549 274.758 180.836 273.961C180.128 273.164 179.773 272.109 179.773 270.797V270.695ZM181.227 270.867C181.227 271.805 181.443 272.557 181.875 273.125C182.312 273.693 182.896 273.977 183.625 273.977C184.359 273.977 184.943 273.69 185.375 273.117C185.807 272.539 186.023 271.732 186.023 270.695C186.023 269.768 185.802 269.018 185.359 268.445C184.922 267.867 184.339 267.578 183.609 267.578C182.896 267.578 182.32 267.862 181.883 268.43C181.445 268.997 181.227 269.81 181.227 270.867ZM192.242 264.5V266.547H193.82V267.664H192.242V272.906C192.242 273.245 192.312 273.5 192.453 273.672C192.594 273.839 192.833 273.922 193.172 273.922C193.339 273.922 193.568 273.891 193.859 273.828V275C193.479 275.104 193.109 275.156 192.75 275.156C192.104 275.156 191.617 274.961 191.289 274.57C190.961 274.18 190.797 273.625 190.797 272.906V267.664H189.258V266.547H190.797V264.5H192.242ZM199.281 272.883L201.25 266.547H202.797L199.398 276.305C198.872 277.711 198.036 278.414 196.891 278.414L196.617 278.391L196.078 278.289V277.117L196.469 277.148C196.958 277.148 197.339 277.049 197.609 276.852C197.885 276.654 198.112 276.292 198.289 275.766L198.609 274.906L195.594 266.547H197.172L199.281 272.883ZM212.234 270.867C212.234 272.154 211.94 273.19 211.352 273.977C210.763 274.763 209.966 275.156 208.961 275.156C207.935 275.156 207.128 274.831 206.539 274.18V278.25H205.094V266.547H206.414L206.484 267.484C207.073 266.755 207.891 266.391 208.938 266.391C209.953 266.391 210.755 266.773 211.344 267.539C211.938 268.305 212.234 269.37 212.234 270.734V270.867ZM210.789 270.703C210.789 269.75 210.586 268.997 210.18 268.445C209.773 267.893 209.216 267.617 208.508 267.617C207.633 267.617 206.977 268.005 206.539 268.781V272.82C206.971 273.591 207.633 273.977 208.523 273.977C209.216 273.977 209.766 273.703 210.172 273.156C210.583 272.604 210.789 271.786 210.789 270.703ZM218.586 275.156C217.44 275.156 216.508 274.781 215.789 274.031C215.07 273.276 214.711 272.268 214.711 271.008V270.742C214.711 269.904 214.87 269.156 215.188 268.5C215.51 267.839 215.958 267.323 216.531 266.953C217.109 266.578 217.734 266.391 218.406 266.391C219.505 266.391 220.359 266.753 220.969 267.477C221.578 268.201 221.883 269.237 221.883 270.586V271.188H216.156C216.177 272.021 216.419 272.695 216.883 273.211C217.352 273.721 217.945 273.977 218.664 273.977C219.174 273.977 219.607 273.872 219.961 273.664C220.315 273.456 220.625 273.18 220.891 272.836L221.773 273.523C221.065 274.612 220.003 275.156 218.586 275.156ZM218.406 267.578C217.823 267.578 217.333 267.792 216.938 268.219C216.542 268.641 216.297 269.234 216.203 270H220.438V269.891C220.396 269.156 220.198 268.589 219.844 268.188C219.49 267.781 219.01 267.578 218.406 267.578ZM229.484 272.758C229.484 272.367 229.336 272.065 229.039 271.852C228.747 271.633 228.234 271.445 227.5 271.289C226.771 271.133 226.19 270.945 225.758 270.727C225.331 270.508 225.013 270.247 224.805 269.945C224.602 269.643 224.5 269.284 224.5 268.867C224.5 268.174 224.792 267.589 225.375 267.109C225.964 266.63 226.714 266.391 227.625 266.391C228.583 266.391 229.359 266.638 229.953 267.133C230.552 267.628 230.852 268.26 230.852 269.031H229.398C229.398 268.635 229.229 268.294 228.891 268.008C228.557 267.721 228.135 267.578 227.625 267.578C227.099 267.578 226.688 267.693 226.391 267.922C226.094 268.151 225.945 268.451 225.945 268.82C225.945 269.169 226.083 269.432 226.359 269.609C226.635 269.786 227.133 269.956 227.852 270.117C228.576 270.279 229.161 270.471 229.609 270.695C230.057 270.919 230.388 271.19 230.602 271.508C230.82 271.82 230.93 272.203 230.93 272.656C230.93 273.411 230.628 274.018 230.023 274.477C229.419 274.93 228.635 275.156 227.672 275.156C226.995 275.156 226.396 275.036 225.875 274.797C225.354 274.557 224.945 274.224 224.648 273.797C224.357 273.365 224.211 272.898 224.211 272.398H225.656C225.682 272.883 225.875 273.268 226.234 273.555C226.599 273.836 227.078 273.977 227.672 273.977C228.219 273.977 228.656 273.867 228.984 273.648C229.318 273.424 229.484 273.128 229.484 272.758ZM238.727 270.383C238.727 269.206 238.883 268.076 239.195 266.992C239.513 265.909 239.984 264.924 240.609 264.039C241.234 263.154 241.883 262.529 242.555 262.164L242.852 263.117C242.091 263.701 241.466 264.591 240.977 265.789C240.492 266.987 240.227 268.328 240.18 269.812L240.172 270.477C240.172 272.487 240.539 274.232 241.273 275.711C241.716 276.596 242.242 277.289 242.852 277.789L242.555 278.672C241.862 278.286 241.201 277.641 240.57 276.734C239.341 274.964 238.727 272.846 238.727 270.383ZM251.203 271.18H252.781V272.359H251.203V275H249.75V272.359H244.57V271.508L249.664 263.625H251.203V271.18ZM246.211 271.18H249.75V265.602L249.578 265.914L246.211 271.18ZM262.219 270.148C262.219 271.841 261.93 273.099 261.352 273.922C260.773 274.745 259.87 275.156 258.641 275.156C257.427 275.156 256.529 274.755 255.945 273.953C255.362 273.146 255.06 271.943 255.039 270.344V268.414C255.039 266.742 255.328 265.5 255.906 264.688C256.484 263.875 257.391 263.469 258.625 263.469C259.849 263.469 260.75 263.862 261.328 264.648C261.906 265.43 262.203 266.638 262.219 268.273V270.148ZM260.773 268.172C260.773 266.948 260.602 266.057 260.258 265.5C259.914 264.938 259.37 264.656 258.625 264.656C257.885 264.656 257.346 264.935 257.008 265.492C256.669 266.049 256.495 266.906 256.484 268.062V270.375C256.484 271.604 256.661 272.513 257.016 273.102C257.375 273.685 257.917 273.977 258.641 273.977C259.354 273.977 259.883 273.701 260.227 273.148C260.576 272.596 260.758 271.727 260.773 270.539V268.172ZM266.664 267.57C267.305 266.784 268.138 266.391 269.164 266.391C270.951 266.391 271.852 267.398 271.867 269.414V275H270.422V269.406C270.417 268.797 270.276 268.346 270 268.055C269.729 267.763 269.305 267.617 268.727 267.617C268.258 267.617 267.846 267.742 267.492 267.992C267.138 268.242 266.862 268.57 266.664 268.977V275H265.219V263H266.664V267.57ZM278.367 270.461C278.367 271.622 278.214 272.737 277.906 273.805C277.604 274.867 277.138 275.849 276.508 276.75C275.883 277.651 275.227 278.292 274.539 278.672L274.234 277.789C275.036 277.174 275.68 276.221 276.164 274.93C276.654 273.633 276.904 272.195 276.914 270.617V270.367C276.914 269.273 276.799 268.258 276.57 267.32C276.341 266.378 276.021 265.534 275.609 264.789C275.203 264.044 274.745 263.464 274.234 263.047L274.539 262.164C275.227 262.544 275.88 263.18 276.5 264.07C277.125 264.961 277.591 265.943 277.898 267.016C278.211 268.089 278.367 269.237 278.367 270.461Z" fill="#1A1C1E"/>
<rect x="25" y="250" width="40" height="40" rx="20" fill="#AD6DA9"/>
<rect x="-252.5" y="310.5" width="557" height="59" rx="29.5" fill="#FCFCFC" stroke="#AD6DA9"/>
<path d="M78.2578 333.625L81.9766 342.906L85.6953 333.625H87.6406V345H86.1406V340.57L86.2812 335.789L82.5469 345H81.3984L77.6719 335.812L77.8203 340.57V345H76.3203V333.625H78.2578ZM90.6797 340.695C90.6797 339.867 90.8411 339.122 91.1641 338.461C91.4922 337.799 91.9453 337.289 92.5234 336.93C93.1068 336.57 93.7708 336.391 94.5156 336.391C95.6667 336.391 96.5964 336.789 97.3047 337.586C98.0182 338.383 98.375 339.443 98.375 340.766V340.867C98.375 341.69 98.2161 342.43 97.8984 343.086C97.5859 343.737 97.1354 344.245 96.5469 344.609C95.9635 344.974 95.2917 345.156 94.5312 345.156C93.3854 345.156 92.4557 344.758 91.7422 343.961C91.0339 343.164 90.6797 342.109 90.6797 340.797V340.695ZM92.1328 340.867C92.1328 341.805 92.349 342.557 92.7812 343.125C93.2188 343.693 93.8021 343.977 94.5312 343.977C95.2656 343.977 95.849 343.69 96.2812 343.117C96.7135 342.539 96.9297 341.732 96.9297 340.695C96.9297 339.768 96.7083 339.018 96.2656 338.445C95.8281 337.867 95.2448 337.578 94.5156 337.578C93.8021 337.578 93.2266 337.862 92.7891 338.43C92.3516 338.997 92.1328 339.81 92.1328 340.867ZM108.344 340.867C108.344 342.159 108.047 343.198 107.453 343.984C106.859 344.766 106.062 345.156 105.062 345.156C103.995 345.156 103.169 344.779 102.586 344.023L102.516 345H101.188V333H102.633V337.477C103.216 336.753 104.021 336.391 105.047 336.391C106.073 336.391 106.878 336.779 107.461 337.555C108.049 338.331 108.344 339.393 108.344 340.742V340.867ZM106.898 340.703C106.898 339.719 106.708 338.958 106.328 338.422C105.948 337.885 105.401 337.617 104.688 337.617C103.734 337.617 103.049 338.06 102.633 338.945V342.602C103.076 343.487 103.766 343.93 104.703 343.93C105.396 343.93 105.935 343.661 106.32 343.125C106.706 342.589 106.898 341.781 106.898 340.703ZM112.742 345H111.297V336.547H112.742V345ZM111.18 334.305C111.18 334.07 111.25 333.872 111.391 333.711C111.536 333.549 111.75 333.469 112.031 333.469C112.312 333.469 112.526 333.549 112.672 333.711C112.818 333.872 112.891 334.07 112.891 334.305C112.891 334.539 112.818 334.734 112.672 334.891C112.526 335.047 112.312 335.125 112.031 335.125C111.75 335.125 111.536 335.047 111.391 334.891C111.25 334.734 111.18 334.539 111.18 334.305ZM117.633 345H116.188V333H117.633V345ZM124.461 345.156C123.315 345.156 122.383 344.781 121.664 344.031C120.945 343.276 120.586 342.268 120.586 341.008V340.742C120.586 339.904 120.745 339.156 121.062 338.5C121.385 337.839 121.833 337.323 122.406 336.953C122.984 336.578 123.609 336.391 124.281 336.391C125.38 336.391 126.234 336.753 126.844 337.477C127.453 338.201 127.758 339.237 127.758 340.586V341.188H122.031C122.052 342.021 122.294 342.695 122.758 343.211C123.227 343.721 123.82 343.977 124.539 343.977C125.049 343.977 125.482 343.872 125.836 343.664C126.19 343.456 126.5 343.18 126.766 342.836L127.648 343.523C126.94 344.612 125.878 345.156 124.461 345.156ZM124.281 337.578C123.698 337.578 123.208 337.792 122.812 338.219C122.417 338.641 122.172 339.234 122.078 340H126.312V339.891C126.271 339.156 126.073 338.589 125.719 338.188C125.365 337.781 124.885 337.578 124.281 337.578ZM137.133 340.547V345H135.633V333.625H139.828C141.073 333.625 142.047 333.943 142.75 334.578C143.458 335.214 143.812 336.055 143.812 337.102C143.812 338.206 143.466 339.057 142.773 339.656C142.086 340.25 141.099 340.547 139.812 340.547H137.133ZM137.133 339.32H139.828C140.63 339.32 141.245 339.133 141.672 338.758C142.099 338.378 142.312 337.831 142.312 337.117C142.312 336.44 142.099 335.898 141.672 335.492C141.245 335.086 140.659 334.875 139.914 334.859H137.133V339.32ZM150.586 337.844C150.367 337.807 150.13 337.789 149.875 337.789C148.927 337.789 148.284 338.193 147.945 339V345H146.5V336.547H147.906L147.93 337.523C148.404 336.768 149.076 336.391 149.945 336.391C150.227 336.391 150.44 336.427 150.586 336.5V337.844ZM152.383 340.695C152.383 339.867 152.544 339.122 152.867 338.461C153.195 337.799 153.648 337.289 154.227 336.93C154.81 336.57 155.474 336.391 156.219 336.391C157.37 336.391 158.299 336.789 159.008 337.586C159.721 338.383 160.078 339.443 160.078 340.766V340.867C160.078 341.69 159.919 342.43 159.602 343.086C159.289 343.737 158.839 344.245 158.25 344.609C157.667 344.974 156.995 345.156 156.234 345.156C155.089 345.156 154.159 344.758 153.445 343.961C152.737 343.164 152.383 342.109 152.383 340.797V340.695ZM153.836 340.867C153.836 341.805 154.052 342.557 154.484 343.125C154.922 343.693 155.505 343.977 156.234 343.977C156.969 343.977 157.552 343.69 157.984 343.117C158.417 342.539 158.633 341.732 158.633 340.695C158.633 339.768 158.411 339.018 157.969 338.445C157.531 337.867 156.948 337.578 156.219 337.578C155.505 337.578 154.93 337.862 154.492 338.43C154.055 338.997 153.836 339.81 153.836 340.867ZM164.852 334.5V336.547H166.43V337.664H164.852V342.906C164.852 343.245 164.922 343.5 165.062 343.672C165.203 343.839 165.443 343.922 165.781 343.922C165.948 343.922 166.177 343.891 166.469 343.828V345C166.089 345.104 165.719 345.156 165.359 345.156C164.714 345.156 164.227 344.961 163.898 344.57C163.57 344.18 163.406 343.625 163.406 342.906V337.664H161.867V336.547H163.406V334.5H164.852ZM168.586 340.695C168.586 339.867 168.747 339.122 169.07 338.461C169.398 337.799 169.852 337.289 170.43 336.93C171.013 336.57 171.677 336.391 172.422 336.391C173.573 336.391 174.503 336.789 175.211 337.586C175.924 338.383 176.281 339.443 176.281 340.766V340.867C176.281 341.69 176.122 342.43 175.805 343.086C175.492 343.737 175.042 344.245 174.453 344.609C173.87 344.974 173.198 345.156 172.438 345.156C171.292 345.156 170.362 344.758 169.648 343.961C168.94 343.164 168.586 342.109 168.586 340.797V340.695ZM170.039 340.867C170.039 341.805 170.255 342.557 170.688 343.125C171.125 343.693 171.708 343.977 172.438 343.977C173.172 343.977 173.755 343.69 174.188 343.117C174.62 342.539 174.836 341.732 174.836 340.695C174.836 339.768 174.615 339.018 174.172 338.445C173.734 337.867 173.151 337.578 172.422 337.578C171.708 337.578 171.133 337.862 170.695 338.43C170.258 338.997 170.039 339.81 170.039 340.867ZM181.055 334.5V336.547H182.633V337.664H181.055V342.906C181.055 343.245 181.125 343.5 181.266 343.672C181.406 343.839 181.646 343.922 181.984 343.922C182.151 343.922 182.38 343.891 182.672 343.828V345C182.292 345.104 181.922 345.156 181.562 345.156C180.917 345.156 180.43 344.961 180.102 344.57C179.773 344.18 179.609 343.625 179.609 342.906V337.664H178.07V336.547H179.609V334.5H181.055ZM188.094 342.883L190.062 336.547H191.609L188.211 346.305C187.685 347.711 186.849 348.414 185.703 348.414L185.43 348.391L184.891 348.289V347.117L185.281 347.148C185.771 347.148 186.151 347.049 186.422 346.852C186.698 346.654 186.924 346.292 187.102 345.766L187.422 344.906L184.406 336.547H185.984L188.094 342.883ZM201.047 340.867C201.047 342.154 200.753 343.19 200.164 343.977C199.576 344.763 198.779 345.156 197.773 345.156C196.747 345.156 195.94 344.831 195.352 344.18V348.25H193.906V336.547H195.227L195.297 337.484C195.885 336.755 196.703 336.391 197.75 336.391C198.766 336.391 199.568 336.773 200.156 337.539C200.75 338.305 201.047 339.37 201.047 340.734V340.867ZM199.602 340.703C199.602 339.75 199.398 338.997 198.992 338.445C198.586 337.893 198.029 337.617 197.32 337.617C196.445 337.617 195.789 338.005 195.352 338.781V342.82C195.784 343.591 196.445 343.977 197.336 343.977C198.029 343.977 198.578 343.703 198.984 343.156C199.396 342.604 199.602 341.786 199.602 340.703ZM207.398 345.156C206.253 345.156 205.32 344.781 204.602 344.031C203.883 343.276 203.523 342.268 203.523 341.008V340.742C203.523 339.904 203.682 339.156 204 338.5C204.323 337.839 204.771 337.323 205.344 336.953C205.922 336.578 206.547 336.391 207.219 336.391C208.318 336.391 209.172 336.753 209.781 337.477C210.391 338.201 210.695 339.237 210.695 340.586V341.188H204.969C204.99 342.021 205.232 342.695 205.695 343.211C206.164 343.721 206.758 343.977 207.477 343.977C207.987 343.977 208.419 343.872 208.773 343.664C209.128 343.456 209.438 343.18 209.703 342.836L210.586 343.523C209.878 344.612 208.815 345.156 207.398 345.156ZM207.219 337.578C206.635 337.578 206.146 337.792 205.75 338.219C205.354 338.641 205.109 339.234 205.016 340H209.25V339.891C209.208 339.156 209.01 338.589 208.656 338.188C208.302 337.781 207.823 337.578 207.219 337.578ZM218.297 342.758C218.297 342.367 218.148 342.065 217.852 341.852C217.56 341.633 217.047 341.445 216.312 341.289C215.583 341.133 215.003 340.945 214.57 340.727C214.143 340.508 213.826 340.247 213.617 339.945C213.414 339.643 213.312 339.284 213.312 338.867C213.312 338.174 213.604 337.589 214.188 337.109C214.776 336.63 215.526 336.391 216.438 336.391C217.396 336.391 218.172 336.638 218.766 337.133C219.365 337.628 219.664 338.26 219.664 339.031H218.211C218.211 338.635 218.042 338.294 217.703 338.008C217.37 337.721 216.948 337.578 216.438 337.578C215.911 337.578 215.5 337.693 215.203 337.922C214.906 338.151 214.758 338.451 214.758 338.82C214.758 339.169 214.896 339.432 215.172 339.609C215.448 339.786 215.945 339.956 216.664 340.117C217.388 340.279 217.974 340.471 218.422 340.695C218.87 340.919 219.201 341.19 219.414 341.508C219.633 341.82 219.742 342.203 219.742 342.656C219.742 343.411 219.44 344.018 218.836 344.477C218.232 344.93 217.448 345.156 216.484 345.156C215.807 345.156 215.208 345.036 214.688 344.797C214.167 344.557 213.758 344.224 213.461 343.797C213.169 343.365 213.023 342.898 213.023 342.398H214.469C214.495 342.883 214.688 343.268 215.047 343.555C215.411 343.836 215.891 343.977 216.484 343.977C217.031 343.977 217.469 343.867 217.797 343.648C218.13 343.424 218.297 343.128 218.297 342.758ZM227.539 340.383C227.539 339.206 227.695 338.076 228.008 336.992C228.326 335.909 228.797 334.924 229.422 334.039C230.047 333.154 230.695 332.529 231.367 332.164L231.664 333.117C230.904 333.701 230.279 334.591 229.789 335.789C229.305 336.987 229.039 338.328 228.992 339.812L228.984 340.477C228.984 342.487 229.352 344.232 230.086 345.711C230.529 346.596 231.055 347.289 231.664 347.789L231.367 348.672C230.674 348.286 230.013 347.641 229.383 346.734C228.154 344.964 227.539 342.846 227.539 340.383ZM241.367 345H233.914V343.961L237.852 339.586C238.435 338.924 238.836 338.388 239.055 337.977C239.279 337.56 239.391 337.13 239.391 336.688C239.391 336.094 239.211 335.607 238.852 335.227C238.492 334.846 238.013 334.656 237.414 334.656C236.695 334.656 236.135 334.862 235.734 335.273C235.339 335.68 235.141 336.247 235.141 336.977H233.695C233.695 335.93 234.031 335.083 234.703 334.438C235.38 333.792 236.284 333.469 237.414 333.469C238.471 333.469 239.307 333.747 239.922 334.305C240.536 334.857 240.844 335.594 240.844 336.516C240.844 337.635 240.13 338.969 238.703 340.516L235.656 343.82H241.367V345ZM250.797 336.594C250.797 337.161 250.646 337.667 250.344 338.109C250.047 338.552 249.643 338.898 249.133 339.148C249.727 339.404 250.195 339.776 250.539 340.266C250.888 340.755 251.062 341.31 251.062 341.93C251.062 342.914 250.729 343.698 250.062 344.281C249.401 344.865 248.529 345.156 247.445 345.156C246.352 345.156 245.474 344.865 244.812 344.281C244.156 343.693 243.828 342.909 243.828 341.93C243.828 341.315 243.995 340.76 244.328 340.266C244.667 339.771 245.133 339.396 245.727 339.141C245.221 338.891 244.823 338.544 244.531 338.102C244.24 337.659 244.094 337.156 244.094 336.594C244.094 335.635 244.401 334.875 245.016 334.312C245.63 333.75 246.44 333.469 247.445 333.469C248.445 333.469 249.253 333.75 249.867 334.312C250.487 334.875 250.797 335.635 250.797 336.594ZM249.617 341.898C249.617 341.263 249.414 340.745 249.008 340.344C248.607 339.943 248.081 339.742 247.43 339.742C246.779 339.742 246.255 339.94 245.859 340.336C245.469 340.732 245.273 341.253 245.273 341.898C245.273 342.544 245.464 343.052 245.844 343.422C246.229 343.792 246.763 343.977 247.445 343.977C248.122 343.977 248.654 343.792 249.039 343.422C249.424 343.047 249.617 342.539 249.617 341.898ZM247.445 334.656C246.878 334.656 246.417 334.833 246.062 335.188C245.714 335.536 245.539 336.013 245.539 336.617C245.539 337.195 245.711 337.664 246.055 338.023C246.404 338.378 246.867 338.555 247.445 338.555C248.023 338.555 248.484 338.378 248.828 338.023C249.177 337.664 249.352 337.195 249.352 336.617C249.352 336.039 249.172 335.568 248.812 335.203C248.453 334.839 247.997 334.656 247.445 334.656ZM255.477 337.57C256.117 336.784 256.951 336.391 257.977 336.391C259.763 336.391 260.664 337.398 260.68 339.414V345H259.234V339.406C259.229 338.797 259.089 338.346 258.812 338.055C258.542 337.763 258.117 337.617 257.539 337.617C257.07 337.617 256.659 337.742 256.305 337.992C255.951 338.242 255.674 338.57 255.477 338.977V345H254.031V333H255.477V337.57ZM267.18 340.461C267.18 341.622 267.026 342.737 266.719 343.805C266.417 344.867 265.951 345.849 265.32 346.75C264.695 347.651 264.039 348.292 263.352 348.672L263.047 347.789C263.849 347.174 264.492 346.221 264.977 344.93C265.466 343.633 265.716 342.195 265.727 340.617V340.367C265.727 339.273 265.612 338.258 265.383 337.32C265.154 336.378 264.833 335.534 264.422 334.789C264.016 334.044 263.557 333.464 263.047 333.047L263.352 332.164C264.039 332.544 264.693 333.18 265.312 334.07C265.938 334.961 266.404 335.943 266.711 337.016C267.023 338.089 267.18 339.237 267.18 340.461Z" fill="#1A1C1E"/>
<rect x="25" y="320" width="40" height="40" rx="20" fill="#E292DD"/>
<rect x="15.5" y="390.5" width="225" height="59" rx="29.5" fill="#FCFCFC" stroke="#F2C94C"/>
<path d="M85.0703 419.68C85.0703 420.794 84.8828 421.768 84.5078 422.602C84.1328 423.43 83.6016 424.062 82.9141 424.5C82.2266 424.938 81.4245 425.156 80.5078 425.156C79.612 425.156 78.8177 424.938 78.125 424.5C77.4323 424.057 76.8932 423.43 76.5078 422.617C76.1276 421.799 75.9323 420.854 75.9219 419.781V418.961C75.9219 417.867 76.112 416.901 76.4922 416.062C76.8724 415.224 77.4089 414.583 78.1016 414.141C78.7995 413.693 79.5964 413.469 80.4922 413.469C81.4036 413.469 82.2057 413.69 82.8984 414.133C83.5964 414.57 84.1328 415.208 84.5078 416.047C84.8828 416.88 85.0703 417.852 85.0703 418.961V419.68ZM83.5781 418.945C83.5781 417.596 83.3073 416.562 82.7656 415.844C82.224 415.12 81.4661 414.758 80.4922 414.758C79.5443 414.758 78.7969 415.12 78.25 415.844C77.7083 416.562 77.4297 417.562 77.4141 418.844V419.68C77.4141 420.987 77.6875 422.016 78.2344 422.766C78.7865 423.51 79.5443 423.883 80.5078 423.883C81.4766 423.883 82.2266 423.531 82.7578 422.828C83.2891 422.12 83.5625 421.107 83.5781 419.789V418.945ZM95.2344 420.867C95.2344 422.154 94.9401 423.19 94.3516 423.977C93.763 424.763 92.9661 425.156 91.9609 425.156C90.9349 425.156 90.1276 424.831 89.5391 424.18V428.25H88.0938V416.547H89.4141L89.4844 417.484C90.0729 416.755 90.8906 416.391 91.9375 416.391C92.9531 416.391 93.7552 416.773 94.3438 417.539C94.9375 418.305 95.2344 419.37 95.2344 420.734V420.867ZM93.7891 420.703C93.7891 419.75 93.5859 418.997 93.1797 418.445C92.7734 417.893 92.2161 417.617 91.5078 417.617C90.6328 417.617 89.9766 418.005 89.5391 418.781V422.82C89.9714 423.591 90.6328 423.977 91.5234 423.977C92.2161 423.977 92.7656 423.703 93.1719 423.156C93.5833 422.604 93.7891 421.786 93.7891 420.703ZM100.039 414.5V416.547H101.617V417.664H100.039V422.906C100.039 423.245 100.109 423.5 100.25 423.672C100.391 423.839 100.63 423.922 100.969 423.922C101.135 423.922 101.365 423.891 101.656 423.828V425C101.276 425.104 100.906 425.156 100.547 425.156C99.901 425.156 99.4141 424.961 99.0859 424.57C98.7578 424.18 98.5938 423.625 98.5938 422.906V417.664H97.0547V416.547H98.5938V414.5H100.039ZM105.883 425H104.438V416.547H105.883V425ZM104.32 414.305C104.32 414.07 104.391 413.872 104.531 413.711C104.677 413.549 104.891 413.469 105.172 413.469C105.453 413.469 105.667 413.549 105.812 413.711C105.958 413.872 106.031 414.07 106.031 414.305C106.031 414.539 105.958 414.734 105.812 414.891C105.667 415.047 105.453 415.125 105.172 415.125C104.891 415.125 104.677 415.047 104.531 414.891C104.391 414.734 104.32 414.539 104.32 414.305ZM110.562 416.547L110.602 417.484C111.221 416.755 112.057 416.391 113.109 416.391C114.292 416.391 115.096 416.844 115.523 417.75C115.805 417.344 116.169 417.016 116.617 416.766C117.07 416.516 117.604 416.391 118.219 416.391C120.073 416.391 121.016 417.372 121.047 419.336V425H119.602V419.422C119.602 418.818 119.464 418.367 119.188 418.07C118.911 417.768 118.448 417.617 117.797 417.617C117.26 417.617 116.815 417.779 116.461 418.102C116.107 418.419 115.901 418.849 115.844 419.391V425H114.391V419.461C114.391 418.232 113.789 417.617 112.586 417.617C111.638 417.617 110.99 418.021 110.641 418.828V425H109.195V416.547H110.562ZM125.805 425H124.359V416.547H125.805V425ZM124.242 414.305C124.242 414.07 124.312 413.872 124.453 413.711C124.599 413.549 124.812 413.469 125.094 413.469C125.375 413.469 125.589 413.549 125.734 413.711C125.88 413.872 125.953 414.07 125.953 414.305C125.953 414.539 125.88 414.734 125.734 414.891C125.589 415.047 125.375 415.125 125.094 415.125C124.812 415.125 124.599 415.047 124.453 414.891C124.312 414.734 124.242 414.539 124.242 414.305ZM130.484 423.82H135.43V425H128.719V423.938L133.383 417.742H128.789V416.547H135.195V417.57L130.484 423.82ZM143.281 425C143.198 424.833 143.13 424.536 143.078 424.109C142.406 424.807 141.604 425.156 140.672 425.156C139.839 425.156 139.154 424.922 138.617 424.453C138.086 423.979 137.82 423.38 137.82 422.656C137.82 421.776 138.154 421.094 138.82 420.609C139.492 420.12 140.435 419.875 141.648 419.875H143.055V419.211C143.055 418.706 142.904 418.305 142.602 418.008C142.299 417.706 141.854 417.555 141.266 417.555C140.75 417.555 140.318 417.685 139.969 417.945C139.62 418.206 139.445 418.521 139.445 418.891H137.992C137.992 418.469 138.141 418.062 138.438 417.672C138.74 417.276 139.146 416.964 139.656 416.734C140.172 416.505 140.737 416.391 141.352 416.391C142.326 416.391 143.089 416.635 143.641 417.125C144.193 417.609 144.479 418.279 144.5 419.133V423.023C144.5 423.799 144.599 424.417 144.797 424.875V425H143.281ZM140.883 423.898C141.336 423.898 141.766 423.781 142.172 423.547C142.578 423.312 142.872 423.008 143.055 422.633V420.898H141.922C140.151 420.898 139.266 421.417 139.266 422.453C139.266 422.906 139.417 423.26 139.719 423.516C140.021 423.771 140.409 423.898 140.883 423.898ZM149.727 414.5V416.547H151.305V417.664H149.727V422.906C149.727 423.245 149.797 423.5 149.938 423.672C150.078 423.839 150.318 423.922 150.656 423.922C150.823 423.922 151.052 423.891 151.344 423.828V425C150.964 425.104 150.594 425.156 150.234 425.156C149.589 425.156 149.102 424.961 148.773 424.57C148.445 424.18 148.281 423.625 148.281 422.906V417.664H146.742V416.547H148.281V414.5H149.727ZM155.57 425H154.125V416.547H155.57V425ZM154.008 414.305C154.008 414.07 154.078 413.872 154.219 413.711C154.365 413.549 154.578 413.469 154.859 413.469C155.141 413.469 155.354 413.549 155.5 413.711C155.646 413.872 155.719 414.07 155.719 414.305C155.719 414.539 155.646 414.734 155.5 414.891C155.354 415.047 155.141 415.125 154.859 415.125C154.578 415.125 154.365 415.047 154.219 414.891C154.078 414.734 154.008 414.539 154.008 414.305ZM158.508 420.695C158.508 419.867 158.669 419.122 158.992 418.461C159.32 417.799 159.773 417.289 160.352 416.93C160.935 416.57 161.599 416.391 162.344 416.391C163.495 416.391 164.424 416.789 165.133 417.586C165.846 418.383 166.203 419.443 166.203 420.766V420.867C166.203 421.69 166.044 422.43 165.727 423.086C165.414 423.737 164.964 424.245 164.375 424.609C163.792 424.974 163.12 425.156 162.359 425.156C161.214 425.156 160.284 424.758 159.57 423.961C158.862 423.164 158.508 422.109 158.508 420.797V420.695ZM159.961 420.867C159.961 421.805 160.177 422.557 160.609 423.125C161.047 423.693 161.63 423.977 162.359 423.977C163.094 423.977 163.677 423.69 164.109 423.117C164.542 422.539 164.758 421.732 164.758 420.695C164.758 419.768 164.536 419.018 164.094 418.445C163.656 417.867 163.073 417.578 162.344 417.578C161.63 417.578 161.055 417.862 160.617 418.43C160.18 418.997 159.961 419.81 159.961 420.867ZM170.383 416.547L170.43 417.609C171.076 416.797 171.919 416.391 172.961 416.391C174.747 416.391 175.648 417.398 175.664 419.414V425H174.219V419.406C174.214 418.797 174.073 418.346 173.797 418.055C173.526 417.763 173.102 417.617 172.523 417.617C172.055 417.617 171.643 417.742 171.289 417.992C170.935 418.242 170.659 418.57 170.461 418.977V425H169.016V416.547H170.383ZM183.758 420.383C183.758 419.206 183.914 418.076 184.227 416.992C184.544 415.909 185.016 414.924 185.641 414.039C186.266 413.154 186.914 412.529 187.586 412.164L187.883 413.117C187.122 413.701 186.497 414.591 186.008 415.789C185.523 416.987 185.258 418.328 185.211 419.812L185.203 420.477C185.203 422.487 185.57 424.232 186.305 425.711C186.747 426.596 187.273 427.289 187.883 427.789L187.586 428.672C186.893 428.286 186.232 427.641 185.602 426.734C184.372 424.964 183.758 422.846 183.758 420.383ZM197.031 416.594C197.031 417.161 196.88 417.667 196.578 418.109C196.281 418.552 195.878 418.898 195.367 419.148C195.961 419.404 196.43 419.776 196.773 420.266C197.122 420.755 197.297 421.31 197.297 421.93C197.297 422.914 196.964 423.698 196.297 424.281C195.635 424.865 194.763 425.156 193.68 425.156C192.586 425.156 191.708 424.865 191.047 424.281C190.391 423.693 190.062 422.909 190.062 421.93C190.062 421.315 190.229 420.76 190.562 420.266C190.901 419.771 191.367 419.396 191.961 419.141C191.456 418.891 191.057 418.544 190.766 418.102C190.474 417.659 190.328 417.156 190.328 416.594C190.328 415.635 190.635 414.875 191.25 414.312C191.865 413.75 192.674 413.469 193.68 413.469C194.68 413.469 195.487 413.75 196.102 414.312C196.721 414.875 197.031 415.635 197.031 416.594ZM195.852 421.898C195.852 421.263 195.648 420.745 195.242 420.344C194.841 419.943 194.315 419.742 193.664 419.742C193.013 419.742 192.49 419.94 192.094 420.336C191.703 420.732 191.508 421.253 191.508 421.898C191.508 422.544 191.698 423.052 192.078 423.422C192.464 423.792 192.997 423.977 193.68 423.977C194.357 423.977 194.888 423.792 195.273 423.422C195.659 423.047 195.852 422.539 195.852 421.898ZM193.68 414.656C193.112 414.656 192.651 414.833 192.297 415.188C191.948 415.536 191.773 416.013 191.773 416.617C191.773 417.195 191.945 417.664 192.289 418.023C192.638 418.378 193.102 418.555 193.68 418.555C194.258 418.555 194.719 418.378 195.062 418.023C195.411 417.664 195.586 417.195 195.586 416.617C195.586 416.039 195.406 415.568 195.047 415.203C194.688 414.839 194.232 414.656 193.68 414.656ZM201.711 417.57C202.352 416.784 203.185 416.391 204.211 416.391C205.997 416.391 206.898 417.398 206.914 419.414V425H205.469V419.406C205.464 418.797 205.323 418.346 205.047 418.055C204.776 417.763 204.352 417.617 203.773 417.617C203.305 417.617 202.893 417.742 202.539 417.992C202.185 418.242 201.909 418.57 201.711 418.977V425H200.266V413H201.711V417.57ZM213.414 420.461C213.414 421.622 213.26 422.737 212.953 423.805C212.651 424.867 212.185 425.849 211.555 426.75C210.93 427.651 210.273 428.292 209.586 428.672L209.281 427.789C210.083 427.174 210.727 426.221 211.211 424.93C211.701 423.633 211.951 422.195 211.961 420.617V420.367C211.961 419.273 211.846 418.258 211.617 417.32C211.388 416.378 211.068 415.534 210.656 414.789C210.25 414.044 209.792 413.464 209.281 413.047L209.586 412.164C210.273 412.544 210.927 413.18 211.547 414.07C212.172 414.961 212.638 415.943 212.945 417.016C213.258 418.089 213.414 419.237 213.414 420.461Z" fill="#1A1C1E"/>
<rect x="25" y="400" width="40" height="40" rx="20" fill="#F2C94C"/>
<rect x="15.5" y="470.5" width="415" height="59" rx="29.5" fill="#FCFCFC" stroke="#F67A7A"/>
<path d="M76.3203 505V493.625H79.5312C80.5208 493.625 81.3958 493.844 82.1562 494.281C82.9167 494.719 83.5026 495.341 83.9141 496.148C84.3307 496.956 84.5417 497.883 84.5469 498.93V499.656C84.5469 500.729 84.3385 501.669 83.9219 502.477C83.5104 503.284 82.9193 503.904 82.1484 504.336C81.3828 504.768 80.4896 504.99 79.4688 505H76.3203ZM77.8203 494.859V503.773H79.3984C80.5547 503.773 81.4531 503.414 82.0938 502.695C82.7396 501.977 83.0625 500.953 83.0625 499.625V498.961C83.0625 497.669 82.7578 496.667 82.1484 495.953C81.5443 495.234 80.6849 494.87 79.5703 494.859H77.8203ZM91.1016 505.156C89.9557 505.156 89.0234 504.781 88.3047 504.031C87.5859 503.276 87.2266 502.268 87.2266 501.008V500.742C87.2266 499.904 87.3854 499.156 87.7031 498.5C88.026 497.839 88.474 497.323 89.0469 496.953C89.625 496.578 90.25 496.391 90.9219 496.391C92.0208 496.391 92.875 496.753 93.4844 497.477C94.0938 498.201 94.3984 499.237 94.3984 500.586V501.188H88.6719C88.6927 502.021 88.9349 502.695 89.3984 503.211C89.8672 503.721 90.4609 503.977 91.1797 503.977C91.6901 503.977 92.1224 503.872 92.4766 503.664C92.8307 503.456 93.1406 503.18 93.4062 502.836L94.2891 503.523C93.5807 504.612 92.5182 505.156 91.1016 505.156ZM90.9219 497.578C90.3385 497.578 89.849 497.792 89.4531 498.219C89.0573 498.641 88.8125 499.234 88.7188 500H92.9531V499.891C92.9115 499.156 92.7135 498.589 92.3594 498.188C92.0052 497.781 91.526 497.578 90.9219 497.578ZM102 502.758C102 502.367 101.852 502.065 101.555 501.852C101.263 501.633 100.75 501.445 100.016 501.289C99.2865 501.133 98.7057 500.945 98.2734 500.727C97.8464 500.508 97.5286 500.247 97.3203 499.945C97.1172 499.643 97.0156 499.284 97.0156 498.867C97.0156 498.174 97.3073 497.589 97.8906 497.109C98.4792 496.63 99.2292 496.391 100.141 496.391C101.099 496.391 101.875 496.638 102.469 497.133C103.068 497.628 103.367 498.26 103.367 499.031H101.914C101.914 498.635 101.745 498.294 101.406 498.008C101.073 497.721 100.651 497.578 100.141 497.578C99.6146 497.578 99.2031 497.693 98.9062 497.922C98.6094 498.151 98.4609 498.451 98.4609 498.82C98.4609 499.169 98.599 499.432 98.875 499.609C99.151 499.786 99.6484 499.956 100.367 500.117C101.091 500.279 101.677 500.471 102.125 500.695C102.573 500.919 102.904 501.19 103.117 501.508C103.336 501.82 103.445 502.203 103.445 502.656C103.445 503.411 103.143 504.018 102.539 504.477C101.935 504.93 101.151 505.156 100.188 505.156C99.5104 505.156 98.9115 505.036 98.3906 504.797C97.8698 504.557 97.4609 504.224 97.1641 503.797C96.8724 503.365 96.7266 502.898 96.7266 502.398H98.1719C98.1979 502.883 98.3906 503.268 98.75 503.555C99.1146 503.836 99.5938 503.977 100.188 503.977C100.734 503.977 101.172 503.867 101.5 503.648C101.833 503.424 102 503.128 102 502.758ZM108.688 501.086L107.781 502.031V505H106.336V493H107.781V500.258L108.555 499.328L111.188 496.547H112.945L109.656 500.078L113.328 505H111.633L108.688 501.086ZM117.398 494.5V496.547H118.977V497.664H117.398V502.906C117.398 503.245 117.469 503.5 117.609 503.672C117.75 503.839 117.99 503.922 118.328 503.922C118.495 503.922 118.724 503.891 119.016 503.828V505C118.635 505.104 118.266 505.156 117.906 505.156C117.26 505.156 116.773 504.961 116.445 504.57C116.117 504.18 115.953 503.625 115.953 502.906V497.664H114.414V496.547H115.953V494.5H117.398ZM121.133 500.695C121.133 499.867 121.294 499.122 121.617 498.461C121.945 497.799 122.398 497.289 122.977 496.93C123.56 496.57 124.224 496.391 124.969 496.391C126.12 496.391 127.049 496.789 127.758 497.586C128.471 498.383 128.828 499.443 128.828 500.766V500.867C128.828 501.69 128.669 502.43 128.352 503.086C128.039 503.737 127.589 504.245 127 504.609C126.417 504.974 125.745 505.156 124.984 505.156C123.839 505.156 122.909 504.758 122.195 503.961C121.487 503.164 121.133 502.109 121.133 500.797V500.695ZM122.586 500.867C122.586 501.805 122.802 502.557 123.234 503.125C123.672 503.693 124.255 503.977 124.984 503.977C125.719 503.977 126.302 503.69 126.734 503.117C127.167 502.539 127.383 501.732 127.383 500.695C127.383 499.768 127.161 499.018 126.719 498.445C126.281 497.867 125.698 497.578 124.969 497.578C124.255 497.578 123.68 497.862 123.242 498.43C122.805 498.997 122.586 499.81 122.586 500.867ZM138.781 500.867C138.781 502.154 138.487 503.19 137.898 503.977C137.31 504.763 136.513 505.156 135.508 505.156C134.482 505.156 133.674 504.831 133.086 504.18V508.25H131.641V496.547H132.961L133.031 497.484C133.62 496.755 134.438 496.391 135.484 496.391C136.5 496.391 137.302 496.773 137.891 497.539C138.484 498.305 138.781 499.37 138.781 500.734V500.867ZM137.336 500.703C137.336 499.75 137.133 498.997 136.727 498.445C136.32 497.893 135.763 497.617 135.055 497.617C134.18 497.617 133.523 498.005 133.086 498.781V502.82C133.518 503.591 134.18 503.977 135.07 503.977C135.763 503.977 136.312 503.703 136.719 503.156C137.13 502.604 137.336 501.786 137.336 500.703ZM154.828 493.625V501.359C154.823 502.432 154.484 503.31 153.812 503.992C153.146 504.674 152.24 505.057 151.094 505.141L150.695 505.156C149.451 505.156 148.458 504.82 147.719 504.148C146.979 503.477 146.604 502.552 146.594 501.375V493.625H148.078V501.328C148.078 502.151 148.305 502.792 148.758 503.25C149.211 503.703 149.857 503.93 150.695 503.93C151.544 503.93 152.193 503.703 152.641 503.25C153.094 502.797 153.32 502.159 153.32 501.336V493.625H154.828ZM159.805 505H158.305V493.625H159.805V505ZM168.242 500.383C168.242 499.206 168.398 498.076 168.711 496.992C169.029 495.909 169.5 494.924 170.125 494.039C170.75 493.154 171.398 492.529 172.07 492.164L172.367 493.117C171.607 493.701 170.982 494.591 170.492 495.789C170.008 496.987 169.742 498.328 169.695 499.812L169.688 500.477C169.688 502.487 170.055 504.232 170.789 505.711C171.232 506.596 171.758 507.289 172.367 507.789L172.07 508.672C171.378 508.286 170.716 507.641 170.086 506.734C168.857 504.964 168.242 502.846 168.242 500.383ZM176.719 498.609H177.805C178.487 498.599 179.023 498.419 179.414 498.07C179.805 497.721 180 497.25 180 496.656C180 495.323 179.336 494.656 178.008 494.656C177.383 494.656 176.883 494.836 176.508 495.195C176.138 495.549 175.953 496.021 175.953 496.609H174.508C174.508 495.708 174.836 494.961 175.492 494.367C176.154 493.768 176.992 493.469 178.008 493.469C179.081 493.469 179.922 493.753 180.531 494.32C181.141 494.888 181.445 495.677 181.445 496.688C181.445 497.182 181.284 497.661 180.961 498.125C180.643 498.589 180.208 498.935 179.656 499.164C180.281 499.362 180.763 499.69 181.102 500.148C181.445 500.607 181.617 501.167 181.617 501.828C181.617 502.849 181.284 503.659 180.617 504.258C179.951 504.857 179.083 505.156 178.016 505.156C176.948 505.156 176.078 504.867 175.406 504.289C174.74 503.711 174.406 502.948 174.406 502H175.859C175.859 502.599 176.055 503.078 176.445 503.438C176.836 503.797 177.359 503.977 178.016 503.977C178.714 503.977 179.247 503.794 179.617 503.43C179.987 503.065 180.172 502.542 180.172 501.859C180.172 501.198 179.969 500.69 179.562 500.336C179.156 499.982 178.57 499.799 177.805 499.789H176.719V498.609ZM192.055 505H184.602V503.961L188.539 499.586C189.122 498.924 189.523 498.388 189.742 497.977C189.966 497.56 190.078 497.13 190.078 496.688C190.078 496.094 189.898 495.607 189.539 495.227C189.18 494.846 188.701 494.656 188.102 494.656C187.383 494.656 186.823 494.862 186.422 495.273C186.026 495.68 185.828 496.247 185.828 496.977H184.383C184.383 495.93 184.719 495.083 185.391 494.438C186.068 493.792 186.971 493.469 188.102 493.469C189.159 493.469 189.995 493.747 190.609 494.305C191.224 494.857 191.531 495.594 191.531 496.516C191.531 497.635 190.818 498.969 189.391 500.516L186.344 503.82H192.055V505ZM196.18 497.57C196.82 496.784 197.654 496.391 198.68 496.391C200.466 496.391 201.367 497.398 201.383 499.414V505H199.938V499.406C199.932 498.797 199.792 498.346 199.516 498.055C199.245 497.763 198.82 497.617 198.242 497.617C197.773 497.617 197.362 497.742 197.008 497.992C196.654 498.242 196.378 498.57 196.18 498.977V505H194.734V493H196.18V497.57ZM207.883 500.461C207.883 501.622 207.729 502.737 207.422 503.805C207.12 504.867 206.654 505.849 206.023 506.75C205.398 507.651 204.742 508.292 204.055 508.672L203.75 507.789C204.552 507.174 205.195 506.221 205.68 504.93C206.169 503.633 206.419 502.195 206.43 500.617V500.367C206.43 499.273 206.315 498.258 206.086 497.32C205.857 496.378 205.536 495.534 205.125 494.789C204.719 494.044 204.26 493.464 203.75 493.047L204.055 492.164C204.742 492.544 205.396 493.18 206.016 494.07C206.641 494.961 207.107 495.943 207.414 497.016C207.727 498.089 207.883 499.237 207.883 500.461Z" fill="#1A1C1E"/>
<rect x="25" y="480" width="40" height="40" rx="20" fill="#F67A7A"/>
<rect x="15.5" y="0.5" width="224" height="59" rx="29.5" fill="#FCFCFC" stroke="#2F80ED"/>
<path d="M80.4922 30.3984H77.8203V35H76.3125V23.625H80.0781C81.3594 23.625 82.3438 23.9167 83.0312 24.5C83.724 25.0833 84.0703 25.9323 84.0703 27.0469C84.0703 27.7552 83.8776 28.3724 83.4922 28.8984C83.112 29.4245 82.5807 29.8177 81.8984 30.0781L84.5703 34.9062V35H82.9609L80.4922 30.3984ZM77.8203 29.1719H80.125C80.8698 29.1719 81.4609 28.9792 81.8984 28.5938C82.3411 28.2083 82.5625 27.6927 82.5625 27.0469C82.5625 26.3438 82.3516 25.8047 81.9297 25.4297C81.513 25.0547 80.9089 24.8646 80.1172 24.8594H77.8203V29.1719ZM90.4609 35.1562C89.3151 35.1562 88.3828 34.7812 87.6641 34.0312C86.9453 33.276 86.5859 32.2682 86.5859 31.0078V30.7422C86.5859 29.9036 86.7448 29.1562 87.0625 28.5C87.3854 27.8385 87.8333 27.3229 88.4062 26.9531C88.9844 26.5781 89.6094 26.3906 90.2812 26.3906C91.3802 26.3906 92.2344 26.7526 92.8438 27.4766C93.4531 28.2005 93.7578 29.237 93.7578 30.5859V31.1875H88.0312C88.0521 32.0208 88.2943 32.6953 88.7578 33.2109C89.2266 33.7214 89.8203 33.9766 90.5391 33.9766C91.0495 33.9766 91.4818 33.8724 91.8359 33.6641C92.1901 33.4557 92.5 33.1797 92.7656 32.8359L93.6484 33.5234C92.9401 34.612 91.8776 35.1562 90.4609 35.1562ZM90.2812 27.5781C89.6979 27.5781 89.2083 27.7917 88.8125 28.2188C88.4167 28.6406 88.1719 29.2344 88.0781 30H92.3125V29.8906C92.2708 29.1562 92.0729 28.5885 91.7188 28.1875C91.3646 27.7812 90.8854 27.5781 90.2812 27.5781ZM101.359 32.7578C101.359 32.3672 101.211 32.0651 100.914 31.8516C100.622 31.6328 100.109 31.4453 99.375 31.2891C98.6458 31.1328 98.0651 30.9453 97.6328 30.7266C97.2057 30.5078 96.888 30.2474 96.6797 29.9453C96.4766 29.6432 96.375 29.2839 96.375 28.8672C96.375 28.1745 96.6667 27.5885 97.25 27.1094C97.8385 26.6302 98.5885 26.3906 99.5 26.3906C100.458 26.3906 101.234 26.638 101.828 27.1328C102.427 27.6276 102.727 28.2604 102.727 29.0312H101.273C101.273 28.6354 101.104 28.2943 100.766 28.0078C100.432 27.7214 100.01 27.5781 99.5 27.5781C98.974 27.5781 98.5625 27.6927 98.2656 27.9219C97.9688 28.151 97.8203 28.4505 97.8203 28.8203C97.8203 29.1693 97.9583 29.4323 98.2344 29.6094C98.5104 29.7865 99.0078 29.9557 99.7266 30.1172C100.451 30.2786 101.036 30.4714 101.484 30.6953C101.932 30.9193 102.263 31.1901 102.477 31.5078C102.695 31.8203 102.805 32.2031 102.805 32.6562C102.805 33.4115 102.503 34.0182 101.898 34.4766C101.294 34.9297 100.51 35.1562 99.5469 35.1562C98.8698 35.1562 98.2708 35.0365 97.75 34.7969C97.2292 34.5573 96.8203 34.224 96.5234 33.7969C96.2318 33.3646 96.0859 32.8984 96.0859 32.3984H97.5312C97.5573 32.8828 97.75 33.2682 98.1094 33.5547C98.474 33.8359 98.9531 33.9766 99.5469 33.9766C100.094 33.9766 100.531 33.8672 100.859 33.6484C101.193 33.4245 101.359 33.1276 101.359 32.7578ZM109.195 35.1562C108.049 35.1562 107.117 34.7812 106.398 34.0312C105.68 33.276 105.32 32.2682 105.32 31.0078V30.7422C105.32 29.9036 105.479 29.1562 105.797 28.5C106.12 27.8385 106.568 27.3229 107.141 26.9531C107.719 26.5781 108.344 26.3906 109.016 26.3906C110.115 26.3906 110.969 26.7526 111.578 27.4766C112.188 28.2005 112.492 29.237 112.492 30.5859V31.1875H106.766C106.786 32.0208 107.029 32.6953 107.492 33.2109C107.961 33.7214 108.555 33.9766 109.273 33.9766C109.784 33.9766 110.216 33.8724 110.57 33.6641C110.924 33.4557 111.234 33.1797 111.5 32.8359L112.383 33.5234C111.674 34.612 110.612 35.1562 109.195 35.1562ZM109.016 27.5781C108.432 27.5781 107.943 27.7917 107.547 28.2188C107.151 28.6406 106.906 29.2344 106.812 30H111.047V29.8906C111.005 29.1562 110.807 28.5885 110.453 28.1875C110.099 27.7812 109.62 27.5781 109.016 27.5781ZM120.391 35C120.307 34.8333 120.24 34.5365 120.188 34.1094C119.516 34.8073 118.714 35.1562 117.781 35.1562C116.948 35.1562 116.263 34.9219 115.727 34.4531C115.195 33.9792 114.93 33.3802 114.93 32.6562C114.93 31.776 115.263 31.0938 115.93 30.6094C116.602 30.1198 117.544 29.875 118.758 29.875H120.164V29.2109C120.164 28.7057 120.013 28.3047 119.711 28.0078C119.409 27.7057 118.964 27.5547 118.375 27.5547C117.859 27.5547 117.427 27.6849 117.078 27.9453C116.729 28.2057 116.555 28.5208 116.555 28.8906H115.102C115.102 28.4688 115.25 28.0625 115.547 27.6719C115.849 27.276 116.255 26.9635 116.766 26.7344C117.281 26.5052 117.846 26.3906 118.461 26.3906C119.435 26.3906 120.198 26.6354 120.75 27.125C121.302 27.6094 121.589 28.2786 121.609 29.1328V33.0234C121.609 33.7995 121.708 34.4167 121.906 34.875V35H120.391ZM117.992 33.8984C118.445 33.8984 118.875 33.7812 119.281 33.5469C119.688 33.3125 119.982 33.0078 120.164 32.6328V30.8984H119.031C117.26 30.8984 116.375 31.4167 116.375 32.4531C116.375 32.9062 116.526 33.2604 116.828 33.5156C117.13 33.7708 117.518 33.8984 117.992 33.8984ZM128.961 27.8438C128.742 27.8073 128.505 27.7891 128.25 27.7891C127.302 27.7891 126.659 28.1927 126.32 29V35H124.875V26.5469H126.281L126.305 27.5234C126.779 26.7682 127.451 26.3906 128.32 26.3906C128.602 26.3906 128.815 26.4271 128.961 26.5V27.8438ZM134.531 33.9766C135.047 33.9766 135.497 33.8203 135.883 33.5078C136.268 33.1953 136.482 32.8047 136.523 32.3359H137.891C137.865 32.8203 137.698 33.2812 137.391 33.7188C137.083 34.1562 136.672 34.5052 136.156 34.7656C135.646 35.026 135.104 35.1562 134.531 35.1562C133.38 35.1562 132.464 34.7734 131.781 34.0078C131.104 33.237 130.766 32.1849 130.766 30.8516V30.6094C130.766 29.7865 130.917 29.0547 131.219 28.4141C131.521 27.7734 131.953 27.276 132.516 26.9219C133.083 26.5677 133.753 26.3906 134.523 26.3906C135.471 26.3906 136.258 26.6745 136.883 27.2422C137.513 27.8099 137.849 28.5469 137.891 29.4531H136.523C136.482 28.9062 136.273 28.4583 135.898 28.1094C135.529 27.7552 135.07 27.5781 134.523 27.5781C133.789 27.5781 133.219 27.8438 132.812 28.375C132.411 28.901 132.211 29.6641 132.211 30.6641V30.9375C132.211 31.9115 132.411 32.6615 132.812 33.1875C133.214 33.7135 133.786 33.9766 134.531 33.9766ZM141.961 27.5703C142.602 26.7839 143.435 26.3906 144.461 26.3906C146.247 26.3906 147.148 27.3984 147.164 29.4141V35H145.719V29.4062C145.714 28.7969 145.573 28.3464 145.297 28.0547C145.026 27.763 144.602 27.6172 144.023 27.6172C143.555 27.6172 143.143 27.7422 142.789 27.9922C142.435 28.2422 142.159 28.5703 141.961 28.9766V35H140.516V23H141.961V27.5703ZM155.242 30.3828C155.242 29.2057 155.398 28.0755 155.711 26.9922C156.029 25.9089 156.5 24.9245 157.125 24.0391C157.75 23.1536 158.398 22.5286 159.07 22.1641L159.367 23.1172C158.607 23.7005 157.982 24.5911 157.492 25.7891C157.008 26.987 156.742 28.3281 156.695 29.8125L156.688 30.4766C156.688 32.487 157.055 34.2318 157.789 35.7109C158.232 36.5964 158.758 37.2891 159.367 37.7891L159.07 38.6719C158.378 38.2865 157.716 37.6406 157.086 36.7344C155.857 34.9635 155.242 32.8464 155.242 30.3828ZM167.719 31.1797H169.297V32.3594H167.719V35H166.266V32.3594H161.086V31.5078L166.18 23.625H167.719V31.1797ZM162.727 31.1797H166.266V25.6016L166.094 25.9141L162.727 31.1797ZM173.195 27.5703C173.836 26.7839 174.669 26.3906 175.695 26.3906C177.482 26.3906 178.383 27.3984 178.398 29.4141V35H176.953V29.4062C176.948 28.7969 176.807 28.3464 176.531 28.0547C176.26 27.763 175.836 27.6172 175.258 27.6172C174.789 27.6172 174.378 27.7422 174.023 27.9922C173.669 28.2422 173.393 28.5703 173.195 28.9766V35H171.75V23H173.195V27.5703ZM184.898 30.4609C184.898 31.6224 184.745 32.737 184.438 33.8047C184.135 34.8672 183.669 35.849 183.039 36.75C182.414 37.651 181.758 38.2917 181.07 38.6719L180.766 37.7891C181.568 37.1745 182.211 36.2214 182.695 34.9297C183.185 33.6328 183.435 32.1953 183.445 30.6172V30.3672C183.445 29.2734 183.331 28.2578 183.102 27.3203C182.872 26.3776 182.552 25.5339 182.141 24.7891C181.734 24.0443 181.276 23.4635 180.766 23.0469L181.07 22.1641C181.758 22.5443 182.411 23.1797 183.031 24.0703C183.656 24.9609 184.122 25.9427 184.43 27.0156C184.742 28.0885 184.898 29.237 184.898 30.4609Z" fill="#1A1C1E"/>
<rect x="25" y="10" width="40" height="40" rx="20" fill="#2F80ED"/>
<rect x="-110.5" y="540.5" width="415" height="59" rx="29.5" fill="#FCFCFC" stroke="#F67A7A"/>
<path d="M78.2578 563.625L81.9766 572.906L85.6953 563.625H87.6406V575H86.1406V570.57L86.2812 565.789L82.5469 575H81.3984L77.6719 565.812L77.8203 570.57V575H76.3203V563.625H78.2578ZM90.6797 570.695C90.6797 569.867 90.8411 569.122 91.1641 568.461C91.4922 567.799 91.9453 567.289 92.5234 566.93C93.1068 566.57 93.7708 566.391 94.5156 566.391C95.6667 566.391 96.5964 566.789 97.3047 567.586C98.0182 568.383 98.375 569.443 98.375 570.766V570.867C98.375 571.69 98.2161 572.43 97.8984 573.086C97.5859 573.737 97.1354 574.245 96.5469 574.609C95.9635 574.974 95.2917 575.156 94.5312 575.156C93.3854 575.156 92.4557 574.758 91.7422 573.961C91.0339 573.164 90.6797 572.109 90.6797 570.797V570.695ZM92.1328 570.867C92.1328 571.805 92.349 572.557 92.7812 573.125C93.2188 573.693 93.8021 573.977 94.5312 573.977C95.2656 573.977 95.849 573.69 96.2812 573.117C96.7135 572.539 96.9297 571.732 96.9297 570.695C96.9297 569.768 96.7083 569.018 96.2656 568.445C95.8281 567.867 95.2448 567.578 94.5156 567.578C93.8021 567.578 93.2266 567.862 92.7891 568.43C92.3516 568.997 92.1328 569.81 92.1328 570.867ZM108.344 570.867C108.344 572.159 108.047 573.198 107.453 573.984C106.859 574.766 106.062 575.156 105.062 575.156C103.995 575.156 103.169 574.779 102.586 574.023L102.516 575H101.188V563H102.633V567.477C103.216 566.753 104.021 566.391 105.047 566.391C106.073 566.391 106.878 566.779 107.461 567.555C108.049 568.331 108.344 569.393 108.344 570.742V570.867ZM106.898 570.703C106.898 569.719 106.708 568.958 106.328 568.422C105.948 567.885 105.401 567.617 104.688 567.617C103.734 567.617 103.049 568.06 102.633 568.945V572.602C103.076 573.487 103.766 573.93 104.703 573.93C105.396 573.93 105.935 573.661 106.32 573.125C106.706 572.589 106.898 571.781 106.898 570.703ZM112.742 575H111.297V566.547H112.742V575ZM111.18 564.305C111.18 564.07 111.25 563.872 111.391 563.711C111.536 563.549 111.75 563.469 112.031 563.469C112.312 563.469 112.526 563.549 112.672 563.711C112.818 563.872 112.891 564.07 112.891 564.305C112.891 564.539 112.818 564.734 112.672 564.891C112.526 565.047 112.312 565.125 112.031 565.125C111.75 565.125 111.536 565.047 111.391 564.891C111.25 564.734 111.18 564.539 111.18 564.305ZM117.633 575H116.188V563H117.633V575ZM124.461 575.156C123.315 575.156 122.383 574.781 121.664 574.031C120.945 573.276 120.586 572.268 120.586 571.008V570.742C120.586 569.904 120.745 569.156 121.062 568.5C121.385 567.839 121.833 567.323 122.406 566.953C122.984 566.578 123.609 566.391 124.281 566.391C125.38 566.391 126.234 566.753 126.844 567.477C127.453 568.201 127.758 569.237 127.758 570.586V571.188H122.031C122.052 572.021 122.294 572.695 122.758 573.211C123.227 573.721 123.82 573.977 124.539 573.977C125.049 573.977 125.482 573.872 125.836 573.664C126.19 573.456 126.5 573.18 126.766 572.836L127.648 573.523C126.94 574.612 125.878 575.156 124.461 575.156ZM124.281 567.578C123.698 567.578 123.208 567.792 122.812 568.219C122.417 568.641 122.172 569.234 122.078 570H126.312V569.891C126.271 569.156 126.073 568.589 125.719 568.188C125.365 567.781 124.885 567.578 124.281 567.578ZM143.641 563.625V571.359C143.635 572.432 143.297 573.31 142.625 573.992C141.958 574.674 141.052 575.057 139.906 575.141L139.508 575.156C138.263 575.156 137.271 574.82 136.531 574.148C135.792 573.477 135.417 572.552 135.406 571.375V563.625H136.891V571.328C136.891 572.151 137.117 572.792 137.57 573.25C138.023 573.703 138.669 573.93 139.508 573.93C140.357 573.93 141.005 573.703 141.453 573.25C141.906 572.797 142.133 572.159 142.133 571.336V563.625H143.641ZM148.617 575H147.117V563.625H148.617V575ZM157.055 570.383C157.055 569.206 157.211 568.076 157.523 566.992C157.841 565.909 158.312 564.924 158.938 564.039C159.562 563.154 160.211 562.529 160.883 562.164L161.18 563.117C160.419 563.701 159.794 564.591 159.305 565.789C158.82 566.987 158.555 568.328 158.508 569.812L158.5 570.477C158.5 572.487 158.867 574.232 159.602 575.711C160.044 576.596 160.57 577.289 161.18 577.789L160.883 578.672C160.19 578.286 159.529 577.641 158.898 576.734C157.669 574.964 157.055 572.846 157.055 570.383ZM168.18 575H166.727V565.367L163.812 566.438V565.125L167.953 563.57H168.18V575ZM180.312 566.594C180.312 567.161 180.161 567.667 179.859 568.109C179.562 568.552 179.159 568.898 178.648 569.148C179.242 569.404 179.711 569.776 180.055 570.266C180.404 570.755 180.578 571.31 180.578 571.93C180.578 572.914 180.245 573.698 179.578 574.281C178.917 574.865 178.044 575.156 176.961 575.156C175.867 575.156 174.99 574.865 174.328 574.281C173.672 573.693 173.344 572.909 173.344 571.93C173.344 571.315 173.51 570.76 173.844 570.266C174.182 569.771 174.648 569.396 175.242 569.141C174.737 568.891 174.339 568.544 174.047 568.102C173.755 567.659 173.609 567.156 173.609 566.594C173.609 565.635 173.917 564.875 174.531 564.312C175.146 563.75 175.956 563.469 176.961 563.469C177.961 563.469 178.768 563.75 179.383 564.312C180.003 564.875 180.312 565.635 180.312 566.594ZM179.133 571.898C179.133 571.263 178.93 570.745 178.523 570.344C178.122 569.943 177.596 569.742 176.945 569.742C176.294 569.742 175.771 569.94 175.375 570.336C174.984 570.732 174.789 571.253 174.789 571.898C174.789 572.544 174.979 573.052 175.359 573.422C175.745 573.792 176.279 573.977 176.961 573.977C177.638 573.977 178.169 573.792 178.555 573.422C178.94 573.047 179.133 572.539 179.133 571.898ZM176.961 564.656C176.393 564.656 175.932 564.833 175.578 565.188C175.229 565.536 175.055 566.013 175.055 566.617C175.055 567.195 175.227 567.664 175.57 568.023C175.919 568.378 176.383 568.555 176.961 568.555C177.539 568.555 178 568.378 178.344 568.023C178.693 567.664 178.867 567.195 178.867 566.617C178.867 566.039 178.688 565.568 178.328 565.203C177.969 564.839 177.513 564.656 176.961 564.656ZM184.992 567.57C185.633 566.784 186.466 566.391 187.492 566.391C189.279 566.391 190.18 567.398 190.195 569.414V575H188.75V569.406C188.745 568.797 188.604 568.346 188.328 568.055C188.057 567.763 187.633 567.617 187.055 567.617C186.586 567.617 186.174 567.742 185.82 567.992C185.466 568.242 185.19 568.57 184.992 568.977V575H183.547V563H184.992V567.57ZM196.695 570.461C196.695 571.622 196.542 572.737 196.234 573.805C195.932 574.867 195.466 575.849 194.836 576.75C194.211 577.651 193.555 578.292 192.867 578.672L192.562 577.789C193.365 577.174 194.008 576.221 194.492 574.93C194.982 573.633 195.232 572.195 195.242 570.617V570.367C195.242 569.273 195.128 568.258 194.898 567.32C194.669 566.378 194.349 565.534 193.938 564.789C193.531 564.044 193.073 563.464 192.562 563.047L192.867 562.164C193.555 562.544 194.208 563.18 194.828 564.07C195.453 564.961 195.919 565.943 196.227 567.016C196.539 568.089 196.695 569.237 196.695 570.461Z" fill="#1A1C1E"/>
<rect x="25" y="550" width="40" height="40" rx="20" fill="#FF5353"/>
</svg>
