<svg width="1720" height="421" viewBox="0 0 1720 421" fill="none" xmlns="http://www.w3.org/2000/svg">
<path d="M104.195 12.9375L109.773 26.8594L115.352 12.9375H118.27V30H116.02V23.3555L116.23 16.1836L110.629 30H108.906L103.316 16.2188L103.539 23.3555V30H101.289V12.9375H104.195ZM121.328 23.543C121.328 22.3008 121.57 21.1836 122.055 20.1914C122.547 19.1992 123.227 18.4336 124.094 17.8945C124.969 17.3555 125.965 17.0859 127.082 17.0859C128.809 17.0859 130.203 17.6836 131.266 18.8789C132.336 20.0742 132.871 21.6641 132.871 23.6484V23.8008C132.871 25.0352 132.633 26.1445 132.156 27.1289C131.688 28.1055 131.012 28.8672 130.129 29.4141C129.254 29.9609 128.246 30.2344 127.105 30.2344C125.387 30.2344 123.992 29.6367 122.922 28.4414C121.859 27.2461 121.328 25.6641 121.328 23.6953V23.543ZM123.508 23.8008C123.508 25.207 123.832 26.3359 124.48 27.1875C125.137 28.0391 126.012 28.4648 127.105 28.4648C128.207 28.4648 129.082 28.0352 129.73 27.1758C130.379 26.3086 130.703 25.0977 130.703 23.543C130.703 22.1523 130.371 21.0273 129.707 20.168C129.051 19.3008 128.176 18.8672 127.082 18.8672C126.012 18.8672 125.148 19.293 124.492 20.1445C123.836 20.9961 123.508 22.2148 123.508 23.8008ZM137.641 17.3203L137.711 18.9141C138.68 17.6953 139.945 17.0859 141.508 17.0859C144.188 17.0859 145.539 18.5977 145.562 21.6211V30H143.395V21.6094C143.387 20.6953 143.176 20.0195 142.762 19.582C142.355 19.1445 141.719 18.9258 140.852 18.9258C140.148 18.9258 139.531 19.1133 139 19.4883C138.469 19.8633 138.055 20.3555 137.758 20.9648V30H135.59V17.3203H137.641ZM151.773 14.25V17.3203H154.141V18.9961H151.773V26.8594C151.773 27.3672 151.879 27.75 152.09 28.0078C152.301 28.2578 152.66 28.3828 153.168 28.3828C153.418 28.3828 153.762 28.3359 154.199 28.2422V30C153.629 30.1562 153.074 30.2344 152.535 30.2344C151.566 30.2344 150.836 29.9414 150.344 29.3555C149.852 28.7695 149.605 27.9375 149.605 26.8594V18.9961H147.297V17.3203H149.605V14.25H151.773ZM158.852 18.8555C159.812 17.6758 161.062 17.0859 162.602 17.0859C165.281 17.0859 166.633 18.5977 166.656 21.6211V30H164.488V21.6094C164.48 20.6953 164.27 20.0195 163.855 19.582C163.449 19.1445 162.812 18.9258 161.945 18.9258C161.242 18.9258 160.625 19.1133 160.094 19.4883C159.562 19.8633 159.148 20.3555 158.852 20.9648V30H156.684V12H158.852V18.8555ZM182.758 30H180.578V15.5508L176.207 17.1562V15.1875L182.418 12.8555H182.758V30Z" fill="#E0E0E0"/>
<path d="M391.195 12.9375L396.773 26.8594L402.352 12.9375H405.27V30H403.02V23.3555L403.23 16.1836L397.629 30H395.906L390.316 16.2188L390.539 23.3555V30H388.289V12.9375H391.195ZM408.328 23.543C408.328 22.3008 408.57 21.1836 409.055 20.1914C409.547 19.1992 410.227 18.4336 411.094 17.8945C411.969 17.3555 412.965 17.0859 414.082 17.0859C415.809 17.0859 417.203 17.6836 418.266 18.8789C419.336 20.0742 419.871 21.6641 419.871 23.6484V23.8008C419.871 25.0352 419.633 26.1445 419.156 27.1289C418.688 28.1055 418.012 28.8672 417.129 29.4141C416.254 29.9609 415.246 30.2344 414.105 30.2344C412.387 30.2344 410.992 29.6367 409.922 28.4414C408.859 27.2461 408.328 25.6641 408.328 23.6953V23.543ZM410.508 23.8008C410.508 25.207 410.832 26.3359 411.48 27.1875C412.137 28.0391 413.012 28.4648 414.105 28.4648C415.207 28.4648 416.082 28.0352 416.73 27.1758C417.379 26.3086 417.703 25.0977 417.703 23.543C417.703 22.1523 417.371 21.0273 416.707 20.168C416.051 19.3008 415.176 18.8672 414.082 18.8672C413.012 18.8672 412.148 19.293 411.492 20.1445C410.836 20.9961 410.508 22.2148 410.508 23.8008ZM424.641 17.3203L424.711 18.9141C425.68 17.6953 426.945 17.0859 428.508 17.0859C431.188 17.0859 432.539 18.5977 432.562 21.6211V30H430.395V21.6094C430.387 20.6953 430.176 20.0195 429.762 19.582C429.355 19.1445 428.719 18.9258 427.852 18.9258C427.148 18.9258 426.531 19.1133 426 19.4883C425.469 19.8633 425.055 20.3555 424.758 20.9648V30H422.59V17.3203H424.641ZM438.773 14.25V17.3203H441.141V18.9961H438.773V26.8594C438.773 27.3672 438.879 27.75 439.09 28.0078C439.301 28.2578 439.66 28.3828 440.168 28.3828C440.418 28.3828 440.762 28.3359 441.199 28.2422V30C440.629 30.1562 440.074 30.2344 439.535 30.2344C438.566 30.2344 437.836 29.9414 437.344 29.3555C436.852 28.7695 436.605 27.9375 436.605 26.8594V18.9961H434.297V17.3203H436.605V14.25H438.773ZM445.852 18.8555C446.812 17.6758 448.062 17.0859 449.602 17.0859C452.281 17.0859 453.633 18.5977 453.656 21.6211V30H451.488V21.6094C451.48 20.6953 451.27 20.0195 450.855 19.582C450.449 19.1445 449.812 18.9258 448.945 18.9258C448.242 18.9258 447.625 19.1133 447.094 19.4883C446.562 19.8633 446.148 20.3555 445.852 20.9648V30H443.684V12H445.852V18.8555ZM473.812 30H462.633V28.4414L468.539 21.8789C469.414 20.8867 470.016 20.082 470.344 19.4648C470.68 18.8398 470.848 18.1953 470.848 17.5312C470.848 16.6406 470.578 15.9102 470.039 15.3398C469.5 14.7695 468.781 14.4844 467.883 14.4844C466.805 14.4844 465.965 14.793 465.363 15.4102C464.77 16.0195 464.473 16.8711 464.473 17.9648H462.305C462.305 16.3945 462.809 15.125 463.816 14.1562C464.832 13.1875 466.188 12.7031 467.883 12.7031C469.469 12.7031 470.723 13.1211 471.645 13.957C472.566 14.7852 473.027 15.8906 473.027 17.2734C473.027 18.9531 471.957 20.9531 469.816 23.2734L465.246 28.2305H473.812V30Z" fill="#E0E0E0"/>
<path d="M678.195 12.9375L683.773 26.8594L689.352 12.9375H692.27V30H690.02V23.3555L690.23 16.1836L684.629 30H682.906L677.316 16.2188L677.539 23.3555V30H675.289V12.9375H678.195ZM695.328 23.543C695.328 22.3008 695.57 21.1836 696.055 20.1914C696.547 19.1992 697.227 18.4336 698.094 17.8945C698.969 17.3555 699.965 17.0859 701.082 17.0859C702.809 17.0859 704.203 17.6836 705.266 18.8789C706.336 20.0742 706.871 21.6641 706.871 23.6484V23.8008C706.871 25.0352 706.633 26.1445 706.156 27.1289C705.688 28.1055 705.012 28.8672 704.129 29.4141C703.254 29.9609 702.246 30.2344 701.105 30.2344C699.387 30.2344 697.992 29.6367 696.922 28.4414C695.859 27.2461 695.328 25.6641 695.328 23.6953V23.543ZM697.508 23.8008C697.508 25.207 697.832 26.3359 698.48 27.1875C699.137 28.0391 700.012 28.4648 701.105 28.4648C702.207 28.4648 703.082 28.0352 703.73 27.1758C704.379 26.3086 704.703 25.0977 704.703 23.543C704.703 22.1523 704.371 21.0273 703.707 20.168C703.051 19.3008 702.176 18.8672 701.082 18.8672C700.012 18.8672 699.148 19.293 698.492 20.1445C697.836 20.9961 697.508 22.2148 697.508 23.8008ZM711.641 17.3203L711.711 18.9141C712.68 17.6953 713.945 17.0859 715.508 17.0859C718.188 17.0859 719.539 18.5977 719.562 21.6211V30H717.395V21.6094C717.387 20.6953 717.176 20.0195 716.762 19.582C716.355 19.1445 715.719 18.9258 714.852 18.9258C714.148 18.9258 713.531 19.1133 713 19.4883C712.469 19.8633 712.055 20.3555 711.758 20.9648V30H709.59V17.3203H711.641ZM725.773 14.25V17.3203H728.141V18.9961H725.773V26.8594C725.773 27.3672 725.879 27.75 726.09 28.0078C726.301 28.2578 726.66 28.3828 727.168 28.3828C727.418 28.3828 727.762 28.3359 728.199 28.2422V30C727.629 30.1562 727.074 30.2344 726.535 30.2344C725.566 30.2344 724.836 29.9414 724.344 29.3555C723.852 28.7695 723.605 27.9375 723.605 26.8594V18.9961H721.297V17.3203H723.605V14.25H725.773ZM732.852 18.8555C733.812 17.6758 735.062 17.0859 736.602 17.0859C739.281 17.0859 740.633 18.5977 740.656 21.6211V30H738.488V21.6094C738.48 20.6953 738.27 20.0195 737.855 19.582C737.449 19.1445 736.812 18.9258 735.945 18.9258C735.242 18.9258 734.625 19.1133 734.094 19.4883C733.562 19.8633 733.148 20.3555 732.852 20.9648V30H730.684V12H732.852V18.8555ZM752.785 20.4141H754.414C755.438 20.3984 756.242 20.1289 756.828 19.6055C757.414 19.082 757.707 18.375 757.707 17.4844C757.707 15.4844 756.711 14.4844 754.719 14.4844C753.781 14.4844 753.031 14.7539 752.469 15.293C751.914 15.8242 751.637 16.5312 751.637 17.4141H749.469C749.469 16.0625 749.961 14.9414 750.945 14.0508C751.938 13.1523 753.195 12.7031 754.719 12.7031C756.328 12.7031 757.59 13.1289 758.504 13.9805C759.418 14.832 759.875 16.0156 759.875 17.5312C759.875 18.2734 759.633 18.9922 759.148 19.6875C758.672 20.3828 758.02 20.9023 757.191 21.2461C758.129 21.543 758.852 22.0352 759.359 22.7227C759.875 23.4102 760.133 24.25 760.133 25.2422C760.133 26.7734 759.633 27.9883 758.633 28.8867C757.633 29.7852 756.332 30.2344 754.73 30.2344C753.129 30.2344 751.824 29.8008 750.816 28.9336C749.816 28.0664 749.316 26.9219 749.316 25.5H751.496C751.496 26.3984 751.789 27.1172 752.375 27.6562C752.961 28.1953 753.746 28.4648 754.73 28.4648C755.777 28.4648 756.578 28.1914 757.133 27.6445C757.688 27.0977 757.965 26.3125 757.965 25.2891C757.965 24.2969 757.66 23.5352 757.051 23.0039C756.441 22.4727 755.562 22.1992 754.414 22.1836H752.785V20.4141Z" fill="#E0E0E0"/>
<path d="M964.195 12.9375L969.773 26.8594L975.352 12.9375H978.27V30H976.02V23.3555L976.23 16.1836L970.629 30H968.906L963.316 16.2188L963.539 23.3555V30H961.289V12.9375H964.195ZM981.328 23.543C981.328 22.3008 981.57 21.1836 982.055 20.1914C982.547 19.1992 983.227 18.4336 984.094 17.8945C984.969 17.3555 985.965 17.0859 987.082 17.0859C988.809 17.0859 990.203 17.6836 991.266 18.8789C992.336 20.0742 992.871 21.6641 992.871 23.6484V23.8008C992.871 25.0352 992.633 26.1445 992.156 27.1289C991.688 28.1055 991.012 28.8672 990.129 29.4141C989.254 29.9609 988.246 30.2344 987.105 30.2344C985.387 30.2344 983.992 29.6367 982.922 28.4414C981.859 27.2461 981.328 25.6641 981.328 23.6953V23.543ZM983.508 23.8008C983.508 25.207 983.832 26.3359 984.48 27.1875C985.137 28.0391 986.012 28.4648 987.105 28.4648C988.207 28.4648 989.082 28.0352 989.73 27.1758C990.379 26.3086 990.703 25.0977 990.703 23.543C990.703 22.1523 990.371 21.0273 989.707 20.168C989.051 19.3008 988.176 18.8672 987.082 18.8672C986.012 18.8672 985.148 19.293 984.492 20.1445C983.836 20.9961 983.508 22.2148 983.508 23.8008ZM997.641 17.3203L997.711 18.9141C998.68 17.6953 999.945 17.0859 1001.51 17.0859C1004.19 17.0859 1005.54 18.5977 1005.56 21.6211V30H1003.39V21.6094C1003.39 20.6953 1003.18 20.0195 1002.76 19.582C1002.36 19.1445 1001.72 18.9258 1000.85 18.9258C1000.15 18.9258 999.531 19.1133 999 19.4883C998.469 19.8633 998.055 20.3555 997.758 20.9648V30H995.59V17.3203H997.641ZM1011.77 14.25V17.3203H1014.14V18.9961H1011.77V26.8594C1011.77 27.3672 1011.88 27.75 1012.09 28.0078C1012.3 28.2578 1012.66 28.3828 1013.17 28.3828C1013.42 28.3828 1013.76 28.3359 1014.2 28.2422V30C1013.63 30.1562 1013.07 30.2344 1012.54 30.2344C1011.57 30.2344 1010.84 29.9414 1010.34 29.3555C1009.85 28.7695 1009.61 27.9375 1009.61 26.8594V18.9961H1007.3V17.3203H1009.61V14.25H1011.77ZM1018.85 18.8555C1019.81 17.6758 1021.06 17.0859 1022.6 17.0859C1025.28 17.0859 1026.63 18.5977 1026.66 21.6211V30H1024.49V21.6094C1024.48 20.6953 1024.27 20.0195 1023.86 19.582C1023.45 19.1445 1022.81 18.9258 1021.95 18.9258C1021.24 18.9258 1020.62 19.1133 1020.09 19.4883C1019.56 19.8633 1019.15 20.3555 1018.85 20.9648V30H1016.68V12H1018.85V18.8555ZM1044.79 24.2695H1047.15V26.0391H1044.79V30H1042.61V26.0391H1034.84V24.7617L1042.48 12.9375H1044.79V24.2695ZM1037.3 24.2695H1042.61V15.9023L1042.35 16.3711L1037.3 24.2695Z" fill="#E0E0E0"/>
<path d="M1251.2 12.9375L1256.77 26.8594L1262.35 12.9375H1265.27V30H1263.02V23.3555L1263.23 16.1836L1257.63 30H1255.91L1250.32 16.2188L1250.54 23.3555V30H1248.29V12.9375H1251.2ZM1268.33 23.543C1268.33 22.3008 1268.57 21.1836 1269.05 20.1914C1269.55 19.1992 1270.23 18.4336 1271.09 17.8945C1271.97 17.3555 1272.96 17.0859 1274.08 17.0859C1275.81 17.0859 1277.2 17.6836 1278.27 18.8789C1279.34 20.0742 1279.87 21.6641 1279.87 23.6484V23.8008C1279.87 25.0352 1279.63 26.1445 1279.16 27.1289C1278.69 28.1055 1278.01 28.8672 1277.13 29.4141C1276.25 29.9609 1275.25 30.2344 1274.11 30.2344C1272.39 30.2344 1270.99 29.6367 1269.92 28.4414C1268.86 27.2461 1268.33 25.6641 1268.33 23.6953V23.543ZM1270.51 23.8008C1270.51 25.207 1270.83 26.3359 1271.48 27.1875C1272.14 28.0391 1273.01 28.4648 1274.11 28.4648C1275.21 28.4648 1276.08 28.0352 1276.73 27.1758C1277.38 26.3086 1277.7 25.0977 1277.7 23.543C1277.7 22.1523 1277.37 21.0273 1276.71 20.168C1276.05 19.3008 1275.18 18.8672 1274.08 18.8672C1273.01 18.8672 1272.15 19.293 1271.49 20.1445C1270.84 20.9961 1270.51 22.2148 1270.51 23.8008ZM1284.64 17.3203L1284.71 18.9141C1285.68 17.6953 1286.95 17.0859 1288.51 17.0859C1291.19 17.0859 1292.54 18.5977 1292.56 21.6211V30H1290.39V21.6094C1290.39 20.6953 1290.18 20.0195 1289.76 19.582C1289.36 19.1445 1288.72 18.9258 1287.85 18.9258C1287.15 18.9258 1286.53 19.1133 1286 19.4883C1285.47 19.8633 1285.05 20.3555 1284.76 20.9648V30H1282.59V17.3203H1284.64ZM1298.77 14.25V17.3203H1301.14V18.9961H1298.77V26.8594C1298.77 27.3672 1298.88 27.75 1299.09 28.0078C1299.3 28.2578 1299.66 28.3828 1300.17 28.3828C1300.42 28.3828 1300.76 28.3359 1301.2 28.2422V30C1300.63 30.1562 1300.07 30.2344 1299.54 30.2344C1298.57 30.2344 1297.84 29.9414 1297.34 29.3555C1296.85 28.7695 1296.61 27.9375 1296.61 26.8594V18.9961H1294.3V17.3203H1296.61V14.25H1298.77ZM1305.85 18.8555C1306.81 17.6758 1308.06 17.0859 1309.6 17.0859C1312.28 17.0859 1313.63 18.5977 1313.66 21.6211V30H1311.49V21.6094C1311.48 20.6953 1311.27 20.0195 1310.86 19.582C1310.45 19.1445 1309.81 18.9258 1308.95 18.9258C1308.24 18.9258 1307.62 19.1133 1307.09 19.4883C1306.56 19.8633 1306.15 20.3555 1305.85 20.9648V30H1303.68V12H1305.85V18.8555ZM1323.63 21.4453L1324.5 12.9375H1333.24V14.9414H1326.34L1325.82 19.5938C1326.66 19.1016 1327.61 18.8555 1328.67 18.8555C1330.22 18.8555 1331.46 19.3711 1332.37 20.4023C1333.29 21.4258 1333.74 22.8125 1333.74 24.5625C1333.74 26.3203 1333.27 27.707 1332.31 28.7227C1331.37 29.7305 1330.04 30.2344 1328.34 30.2344C1326.83 30.2344 1325.6 29.8164 1324.65 28.9805C1323.7 28.1445 1323.15 26.9883 1323.02 25.5117H1325.07C1325.2 26.4883 1325.55 27.2266 1326.11 27.7266C1326.68 28.2188 1327.42 28.4648 1328.34 28.4648C1329.35 28.4648 1330.14 28.1211 1330.71 27.4336C1331.29 26.7461 1331.57 25.7969 1331.57 24.5859C1331.57 23.4453 1331.26 22.5312 1330.64 21.8438C1330.02 21.1484 1329.2 20.8008 1328.16 20.8008C1327.22 20.8008 1326.48 21.0078 1325.94 21.4219L1325.36 21.8906L1323.63 21.4453Z" fill="#E0E0E0"/>
<path d="M1537.2 12.9375L1542.77 26.8594L1548.35 12.9375H1551.27V30H1549.02V23.3555L1549.23 16.1836L1543.63 30H1541.91L1536.32 16.2188L1536.54 23.3555V30H1534.29V12.9375H1537.2ZM1554.33 23.543C1554.33 22.3008 1554.57 21.1836 1555.05 20.1914C1555.55 19.1992 1556.23 18.4336 1557.09 17.8945C1557.97 17.3555 1558.96 17.0859 1560.08 17.0859C1561.81 17.0859 1563.2 17.6836 1564.27 18.8789C1565.34 20.0742 1565.87 21.6641 1565.87 23.6484V23.8008C1565.87 25.0352 1565.63 26.1445 1565.16 27.1289C1564.69 28.1055 1564.01 28.8672 1563.13 29.4141C1562.25 29.9609 1561.25 30.2344 1560.11 30.2344C1558.39 30.2344 1556.99 29.6367 1555.92 28.4414C1554.86 27.2461 1554.33 25.6641 1554.33 23.6953V23.543ZM1556.51 23.8008C1556.51 25.207 1556.83 26.3359 1557.48 27.1875C1558.14 28.0391 1559.01 28.4648 1560.11 28.4648C1561.21 28.4648 1562.08 28.0352 1562.73 27.1758C1563.38 26.3086 1563.7 25.0977 1563.7 23.543C1563.7 22.1523 1563.37 21.0273 1562.71 20.168C1562.05 19.3008 1561.18 18.8672 1560.08 18.8672C1559.01 18.8672 1558.15 19.293 1557.49 20.1445C1556.84 20.9961 1556.51 22.2148 1556.51 23.8008ZM1570.64 17.3203L1570.71 18.9141C1571.68 17.6953 1572.95 17.0859 1574.51 17.0859C1577.19 17.0859 1578.54 18.5977 1578.56 21.6211V30H1576.39V21.6094C1576.39 20.6953 1576.18 20.0195 1575.76 19.582C1575.36 19.1445 1574.72 18.9258 1573.85 18.9258C1573.15 18.9258 1572.53 19.1133 1572 19.4883C1571.47 19.8633 1571.05 20.3555 1570.76 20.9648V30H1568.59V17.3203H1570.64ZM1584.77 14.25V17.3203H1587.14V18.9961H1584.77V26.8594C1584.77 27.3672 1584.88 27.75 1585.09 28.0078C1585.3 28.2578 1585.66 28.3828 1586.17 28.3828C1586.42 28.3828 1586.76 28.3359 1587.2 28.2422V30C1586.63 30.1562 1586.07 30.2344 1585.54 30.2344C1584.57 30.2344 1583.84 29.9414 1583.34 29.3555C1582.85 28.7695 1582.61 27.9375 1582.61 26.8594V18.9961H1580.3V17.3203H1582.61V14.25H1584.77ZM1591.85 18.8555C1592.81 17.6758 1594.06 17.0859 1595.6 17.0859C1598.28 17.0859 1599.63 18.5977 1599.66 21.6211V30H1597.49V21.6094C1597.48 20.6953 1597.27 20.0195 1596.86 19.582C1596.45 19.1445 1595.81 18.9258 1594.95 18.9258C1594.24 18.9258 1593.62 19.1133 1593.09 19.4883C1592.56 19.8633 1592.15 20.3555 1591.85 20.9648V30H1589.68V12H1591.85V18.8555ZM1617.14 12.9258V14.7656H1616.74C1615.05 14.7969 1613.71 15.2969 1612.71 16.2656C1611.71 17.2344 1611.13 18.5977 1610.98 20.3555C1611.88 19.3242 1613.1 18.8086 1614.66 18.8086C1616.14 18.8086 1617.32 19.332 1618.21 20.3789C1619.1 21.4258 1619.54 22.7773 1619.54 24.4336C1619.54 26.1914 1619.06 27.5977 1618.1 28.6523C1617.15 29.707 1615.87 30.2344 1614.26 30.2344C1612.62 30.2344 1611.3 29.6094 1610.29 28.3594C1609.27 27.1016 1608.76 25.4844 1608.76 23.5078V22.6758C1608.76 19.5352 1609.43 17.1367 1610.77 15.4805C1612.11 13.8164 1614.11 12.9648 1616.75 12.9258H1617.14ZM1614.29 20.6133C1613.55 20.6133 1612.87 20.8359 1612.24 21.2812C1611.62 21.7266 1611.18 22.2852 1610.94 22.957V23.7539C1610.94 25.1602 1611.26 26.293 1611.89 27.1523C1612.52 28.0117 1613.31 28.4414 1614.26 28.4414C1615.23 28.4414 1616 28.082 1616.55 27.3633C1617.12 26.6445 1617.4 25.7031 1617.4 24.5391C1617.4 23.3672 1617.11 22.4219 1616.54 21.7031C1615.98 20.9766 1615.23 20.6133 1614.29 20.6133Z" fill="#E0E0E0"/>
<line x1="0.5" y1="2.18557e-08" x2="0.499982" y2="421" stroke="#E0E0E0" stroke-dasharray="20 20"/>
<line x1="287" y1="2.18557e-08" x2="287" y2="421" stroke="#E0E0E0" stroke-dasharray="20 20"/>
<line x1="573.5" y1="2.18557e-08" x2="573.5" y2="421" stroke="#E0E0E0" stroke-dasharray="20 20"/>
<line x1="860" y1="2.18557e-08" x2="860" y2="421" stroke="#E0E0E0" stroke-dasharray="20 20"/>
<line x1="1146.5" y1="2.18557e-08" x2="1146.5" y2="421" stroke="#E0E0E0" stroke-dasharray="20 20"/>
<line x1="1433" y1="2.18557e-08" x2="1433" y2="421" stroke="#E0E0E0" stroke-dasharray="20 20"/>
<line x1="1719.5" y1="2.18557e-08" x2="1719.5" y2="421" stroke="#E0E0E0" stroke-dasharray="20 20"/>
<path d="M0.5 151C0.5 134.708 13.7076 121.5 30 121.5H129C145.292 121.5 158.5 134.708 158.5 151C158.5 167.292 145.292 180.5 129 180.5H30C13.7076 180.5 0.5 167.292 0.5 151Z" fill="#FCFCFC" stroke="#2F80ED"/>
<path d="M65.4922 151.398H62.8203V156H61.3125V144.625H65.0781C66.3594 144.625 67.3438 144.917 68.0312 145.5C68.724 146.083 69.0703 146.932 69.0703 148.047C69.0703 148.755 68.8776 149.372 68.4922 149.898C68.112 150.424 67.5807 150.818 66.8984 151.078L69.5703 155.906V156H67.9609L65.4922 151.398ZM62.8203 150.172H65.125C65.8698 150.172 66.4609 149.979 66.8984 149.594C67.3411 149.208 67.5625 148.693 67.5625 148.047C67.5625 147.344 67.3516 146.805 66.9297 146.43C66.513 146.055 65.9089 145.865 65.1172 145.859H62.8203V150.172ZM75.4609 156.156C74.3151 156.156 73.3828 155.781 72.6641 155.031C71.9453 154.276 71.5859 153.268 71.5859 152.008V151.742C71.5859 150.904 71.7448 150.156 72.0625 149.5C72.3854 148.839 72.8333 148.323 73.4062 147.953C73.9844 147.578 74.6094 147.391 75.2812 147.391C76.3802 147.391 77.2344 147.753 77.8438 148.477C78.4531 149.201 78.7578 150.237 78.7578 151.586V152.188H73.0312C73.0521 153.021 73.2943 153.695 73.7578 154.211C74.2266 154.721 74.8203 154.977 75.5391 154.977C76.0495 154.977 76.4818 154.872 76.8359 154.664C77.1901 154.456 77.5 154.18 77.7656 153.836L78.6484 154.523C77.9401 155.612 76.8776 156.156 75.4609 156.156ZM75.2812 148.578C74.6979 148.578 74.2083 148.792 73.8125 149.219C73.4167 149.641 73.1719 150.234 73.0781 151H77.3125V150.891C77.2708 150.156 77.0729 149.589 76.7188 149.188C76.3646 148.781 75.8854 148.578 75.2812 148.578ZM86.3594 153.758C86.3594 153.367 86.2109 153.065 85.9141 152.852C85.6224 152.633 85.1094 152.445 84.375 152.289C83.6458 152.133 83.0651 151.945 82.6328 151.727C82.2057 151.508 81.888 151.247 81.6797 150.945C81.4766 150.643 81.375 150.284 81.375 149.867C81.375 149.174 81.6667 148.589 82.25 148.109C82.8385 147.63 83.5885 147.391 84.5 147.391C85.4583 147.391 86.2344 147.638 86.8281 148.133C87.4271 148.628 87.7266 149.26 87.7266 150.031H86.2734C86.2734 149.635 86.1042 149.294 85.7656 149.008C85.4323 148.721 85.0104 148.578 84.5 148.578C83.974 148.578 83.5625 148.693 83.2656 148.922C82.9688 149.151 82.8203 149.451 82.8203 149.82C82.8203 150.169 82.9583 150.432 83.2344 150.609C83.5104 150.786 84.0078 150.956 84.7266 151.117C85.4505 151.279 86.0365 151.471 86.4844 151.695C86.9323 151.919 87.263 152.19 87.4766 152.508C87.6953 152.82 87.8047 153.203 87.8047 153.656C87.8047 154.411 87.5026 155.018 86.8984 155.477C86.2943 155.93 85.5104 156.156 84.5469 156.156C83.8698 156.156 83.2708 156.036 82.75 155.797C82.2292 155.557 81.8203 155.224 81.5234 154.797C81.2318 154.365 81.0859 153.898 81.0859 153.398H82.5312C82.5573 153.883 82.75 154.268 83.1094 154.555C83.474 154.836 83.9531 154.977 84.5469 154.977C85.0938 154.977 85.5312 154.867 85.8594 154.648C86.1927 154.424 86.3594 154.128 86.3594 153.758ZM94.1953 156.156C93.0495 156.156 92.1172 155.781 91.3984 155.031C90.6797 154.276 90.3203 153.268 90.3203 152.008V151.742C90.3203 150.904 90.4792 150.156 90.7969 149.5C91.1198 148.839 91.5677 148.323 92.1406 147.953C92.7188 147.578 93.3438 147.391 94.0156 147.391C95.1146 147.391 95.9688 147.753 96.5781 148.477C97.1875 149.201 97.4922 150.237 97.4922 151.586V152.188H91.7656C91.7865 153.021 92.0286 153.695 92.4922 154.211C92.9609 154.721 93.5547 154.977 94.2734 154.977C94.7839 154.977 95.2161 154.872 95.5703 154.664C95.9245 154.456 96.2344 154.18 96.5 153.836L97.3828 154.523C96.6745 155.612 95.612 156.156 94.1953 156.156ZM94.0156 148.578C93.4323 148.578 92.9427 148.792 92.5469 149.219C92.151 149.641 91.9062 150.234 91.8125 151H96.0469V150.891C96.0052 150.156 95.8073 149.589 95.4531 149.188C95.099 148.781 94.6198 148.578 94.0156 148.578ZM105.391 156C105.307 155.833 105.24 155.536 105.188 155.109C104.516 155.807 103.714 156.156 102.781 156.156C101.948 156.156 101.263 155.922 100.727 155.453C100.195 154.979 99.9297 154.38 99.9297 153.656C99.9297 152.776 100.263 152.094 100.93 151.609C101.602 151.12 102.544 150.875 103.758 150.875H105.164V150.211C105.164 149.706 105.013 149.305 104.711 149.008C104.409 148.706 103.964 148.555 103.375 148.555C102.859 148.555 102.427 148.685 102.078 148.945C101.729 149.206 101.555 149.521 101.555 149.891H100.102C100.102 149.469 100.25 149.062 100.547 148.672C100.849 148.276 101.255 147.964 101.766 147.734C102.281 147.505 102.846 147.391 103.461 147.391C104.435 147.391 105.198 147.635 105.75 148.125C106.302 148.609 106.589 149.279 106.609 150.133V154.023C106.609 154.799 106.708 155.417 106.906 155.875V156H105.391ZM102.992 154.898C103.445 154.898 103.875 154.781 104.281 154.547C104.688 154.312 104.982 154.008 105.164 153.633V151.898H104.031C102.26 151.898 101.375 152.417 101.375 153.453C101.375 153.906 101.526 154.26 101.828 154.516C102.13 154.771 102.518 154.898 102.992 154.898ZM113.961 148.844C113.742 148.807 113.505 148.789 113.25 148.789C112.302 148.789 111.659 149.193 111.32 150V156H109.875V147.547H111.281L111.305 148.523C111.779 147.768 112.451 147.391 113.32 147.391C113.602 147.391 113.815 147.427 113.961 147.5V148.844ZM119.531 154.977C120.047 154.977 120.497 154.82 120.883 154.508C121.268 154.195 121.482 153.805 121.523 153.336H122.891C122.865 153.82 122.698 154.281 122.391 154.719C122.083 155.156 121.672 155.505 121.156 155.766C120.646 156.026 120.104 156.156 119.531 156.156C118.38 156.156 117.464 155.773 116.781 155.008C116.104 154.237 115.766 153.185 115.766 151.852V151.609C115.766 150.786 115.917 150.055 116.219 149.414C116.521 148.773 116.953 148.276 117.516 147.922C118.083 147.568 118.753 147.391 119.523 147.391C120.471 147.391 121.258 147.674 121.883 148.242C122.513 148.81 122.849 149.547 122.891 150.453H121.523C121.482 149.906 121.273 149.458 120.898 149.109C120.529 148.755 120.07 148.578 119.523 148.578C118.789 148.578 118.219 148.844 117.812 149.375C117.411 149.901 117.211 150.664 117.211 151.664V151.938C117.211 152.911 117.411 153.661 117.812 154.188C118.214 154.714 118.786 154.977 119.531 154.977ZM126.961 148.57C127.602 147.784 128.435 147.391 129.461 147.391C131.247 147.391 132.148 148.398 132.164 150.414V156H130.719V150.406C130.714 149.797 130.573 149.346 130.297 149.055C130.026 148.763 129.602 148.617 129.023 148.617C128.555 148.617 128.143 148.742 127.789 148.992C127.435 149.242 127.159 149.57 126.961 149.977V156H125.516V144H126.961V148.57Z" fill="#1A1C1E"/>
<rect x="10" y="131" width="40" height="40" rx="20" fill="#2F80ED"/>
<rect x="113.5" y="211.5" width="229" height="59" rx="29.5" fill="#FCFCFC" stroke="#0B9219"/>
<path d="M182.328 234.625V242.359C182.323 243.432 181.984 244.31 181.312 244.992C180.646 245.674 179.74 246.057 178.594 246.141L178.195 246.156C176.951 246.156 175.958 245.82 175.219 245.148C174.479 244.477 174.104 243.552 174.094 242.375V234.625H175.578V242.328C175.578 243.151 175.805 243.792 176.258 244.25C176.711 244.703 177.357 244.93 178.195 244.93C179.044 244.93 179.693 244.703 180.141 244.25C180.594 243.797 180.82 243.159 180.82 242.336V234.625H182.328ZM190.391 243.758C190.391 243.367 190.242 243.065 189.945 242.852C189.654 242.633 189.141 242.445 188.406 242.289C187.677 242.133 187.096 241.945 186.664 241.727C186.237 241.508 185.919 241.247 185.711 240.945C185.508 240.643 185.406 240.284 185.406 239.867C185.406 239.174 185.698 238.589 186.281 238.109C186.87 237.63 187.62 237.391 188.531 237.391C189.49 237.391 190.266 237.638 190.859 238.133C191.458 238.628 191.758 239.26 191.758 240.031H190.305C190.305 239.635 190.135 239.294 189.797 239.008C189.464 238.721 189.042 238.578 188.531 238.578C188.005 238.578 187.594 238.693 187.297 238.922C187 239.151 186.852 239.451 186.852 239.82C186.852 240.169 186.99 240.432 187.266 240.609C187.542 240.786 188.039 240.956 188.758 241.117C189.482 241.279 190.068 241.471 190.516 241.695C190.964 241.919 191.294 242.19 191.508 242.508C191.727 242.82 191.836 243.203 191.836 243.656C191.836 244.411 191.534 245.018 190.93 245.477C190.326 245.93 189.542 246.156 188.578 246.156C187.901 246.156 187.302 246.036 186.781 245.797C186.26 245.557 185.852 245.224 185.555 244.797C185.263 244.365 185.117 243.898 185.117 243.398H186.562C186.589 243.883 186.781 244.268 187.141 244.555C187.505 244.836 187.984 244.977 188.578 244.977C189.125 244.977 189.562 244.867 189.891 244.648C190.224 244.424 190.391 244.128 190.391 243.758ZM198.227 246.156C197.081 246.156 196.148 245.781 195.43 245.031C194.711 244.276 194.352 243.268 194.352 242.008V241.742C194.352 240.904 194.51 240.156 194.828 239.5C195.151 238.839 195.599 238.323 196.172 237.953C196.75 237.578 197.375 237.391 198.047 237.391C199.146 237.391 200 237.753 200.609 238.477C201.219 239.201 201.523 240.237 201.523 241.586V242.188H195.797C195.818 243.021 196.06 243.695 196.523 244.211C196.992 244.721 197.586 244.977 198.305 244.977C198.815 244.977 199.247 244.872 199.602 244.664C199.956 244.456 200.266 244.18 200.531 243.836L201.414 244.523C200.706 245.612 199.643 246.156 198.227 246.156ZM198.047 238.578C197.464 238.578 196.974 238.792 196.578 239.219C196.182 239.641 195.938 240.234 195.844 241H200.078V240.891C200.036 240.156 199.839 239.589 199.484 239.188C199.13 238.781 198.651 238.578 198.047 238.578ZM208.289 238.844C208.07 238.807 207.833 238.789 207.578 238.789C206.63 238.789 205.987 239.193 205.648 240V246H204.203V237.547H205.609L205.633 238.523C206.107 237.768 206.779 237.391 207.648 237.391C207.93 237.391 208.143 237.427 208.289 237.5V238.844ZM220.875 235.227C220.229 235.122 219.708 235.07 219.312 235.07C218.271 235.07 217.75 235.617 217.75 236.711V237.547H219.555V238.664H217.75V246H216.305V238.664H214.969V237.547H216.305V236.625C216.31 235.724 216.562 235.034 217.062 234.555C217.562 234.076 218.273 233.836 219.195 233.836C219.721 233.836 220.763 233.995 222.32 234.312V246H220.875V235.227ZM225.305 241.695C225.305 240.867 225.466 240.122 225.789 239.461C226.117 238.799 226.57 238.289 227.148 237.93C227.732 237.57 228.396 237.391 229.141 237.391C230.292 237.391 231.221 237.789 231.93 238.586C232.643 239.383 233 240.443 233 241.766V241.867C233 242.69 232.841 243.43 232.523 244.086C232.211 244.737 231.76 245.245 231.172 245.609C230.589 245.974 229.917 246.156 229.156 246.156C228.01 246.156 227.081 245.758 226.367 244.961C225.659 244.164 225.305 243.109 225.305 241.797V241.695ZM226.758 241.867C226.758 242.805 226.974 243.557 227.406 244.125C227.844 244.693 228.427 244.977 229.156 244.977C229.891 244.977 230.474 244.69 230.906 244.117C231.339 243.539 231.555 242.732 231.555 241.695C231.555 240.768 231.333 240.018 230.891 239.445C230.453 238.867 229.87 238.578 229.141 238.578C228.427 238.578 227.852 238.862 227.414 239.43C226.977 239.997 226.758 240.81 226.758 241.867ZM243.297 244.008L244.922 237.547H246.367L243.906 246H242.734L240.68 239.594L238.68 246H237.508L235.055 237.547H236.492L238.156 243.875L240.125 237.547H241.289L243.297 244.008ZM257.203 244.977C257.719 244.977 258.169 244.82 258.555 244.508C258.94 244.195 259.154 243.805 259.195 243.336H260.562C260.536 243.82 260.37 244.281 260.062 244.719C259.755 245.156 259.344 245.505 258.828 245.766C258.318 246.026 257.776 246.156 257.203 246.156C256.052 246.156 255.135 245.773 254.453 245.008C253.776 244.237 253.438 243.185 253.438 241.852V241.609C253.438 240.786 253.589 240.055 253.891 239.414C254.193 238.773 254.625 238.276 255.188 237.922C255.755 237.568 256.424 237.391 257.195 237.391C258.143 237.391 258.93 237.674 259.555 238.242C260.185 238.81 260.521 239.547 260.562 240.453H259.195C259.154 239.906 258.945 239.458 258.57 239.109C258.201 238.755 257.742 238.578 257.195 238.578C256.461 238.578 255.891 238.844 255.484 239.375C255.083 239.901 254.883 240.664 254.883 241.664V241.938C254.883 242.911 255.083 243.661 255.484 244.188C255.885 244.714 256.458 244.977 257.203 244.977ZM267.273 238.844C267.055 238.807 266.818 238.789 266.562 238.789C265.615 238.789 264.971 239.193 264.633 240V246H263.188V237.547H264.594L264.617 238.523C265.091 237.768 265.763 237.391 266.633 237.391C266.914 237.391 267.128 237.427 267.273 237.5V238.844ZM272.961 246.156C271.815 246.156 270.883 245.781 270.164 245.031C269.445 244.276 269.086 243.268 269.086 242.008V241.742C269.086 240.904 269.245 240.156 269.562 239.5C269.885 238.839 270.333 238.323 270.906 237.953C271.484 237.578 272.109 237.391 272.781 237.391C273.88 237.391 274.734 237.753 275.344 238.477C275.953 239.201 276.258 240.237 276.258 241.586V242.188H270.531C270.552 243.021 270.794 243.695 271.258 244.211C271.727 244.721 272.32 244.977 273.039 244.977C273.549 244.977 273.982 244.872 274.336 244.664C274.69 244.456 275 244.18 275.266 243.836L276.148 244.523C275.44 245.612 274.378 246.156 272.961 246.156ZM272.781 238.578C272.198 238.578 271.708 238.792 271.312 239.219C270.917 239.641 270.672 240.234 270.578 241H274.812V240.891C274.771 240.156 274.573 239.589 274.219 239.188C273.865 238.781 273.385 238.578 272.781 238.578ZM284.156 246C284.073 245.833 284.005 245.536 283.953 245.109C283.281 245.807 282.479 246.156 281.547 246.156C280.714 246.156 280.029 245.922 279.492 245.453C278.961 244.979 278.695 244.38 278.695 243.656C278.695 242.776 279.029 242.094 279.695 241.609C280.367 241.12 281.31 240.875 282.523 240.875H283.93V240.211C283.93 239.706 283.779 239.305 283.477 239.008C283.174 238.706 282.729 238.555 282.141 238.555C281.625 238.555 281.193 238.685 280.844 238.945C280.495 239.206 280.32 239.521 280.32 239.891H278.867C278.867 239.469 279.016 239.062 279.312 238.672C279.615 238.276 280.021 237.964 280.531 237.734C281.047 237.505 281.612 237.391 282.227 237.391C283.201 237.391 283.964 237.635 284.516 238.125C285.068 238.609 285.354 239.279 285.375 240.133V244.023C285.375 244.799 285.474 245.417 285.672 245.875V246H284.156ZM281.758 244.898C282.211 244.898 282.641 244.781 283.047 244.547C283.453 244.312 283.747 244.008 283.93 243.633V241.898H282.797C281.026 241.898 280.141 242.417 280.141 243.453C280.141 243.906 280.292 244.26 280.594 244.516C280.896 244.771 281.284 244.898 281.758 244.898ZM290.602 235.5V237.547H292.18V238.664H290.602V243.906C290.602 244.245 290.672 244.5 290.812 244.672C290.953 244.839 291.193 244.922 291.531 244.922C291.698 244.922 291.927 244.891 292.219 244.828V246C291.839 246.104 291.469 246.156 291.109 246.156C290.464 246.156 289.977 245.961 289.648 245.57C289.32 245.18 289.156 244.625 289.156 243.906V238.664H287.617V237.547H289.156V235.5H290.602ZM296.445 246H295V237.547H296.445V246ZM294.883 235.305C294.883 235.07 294.953 234.872 295.094 234.711C295.24 234.549 295.453 234.469 295.734 234.469C296.016 234.469 296.229 234.549 296.375 234.711C296.521 234.872 296.594 235.07 296.594 235.305C296.594 235.539 296.521 235.734 296.375 235.891C296.229 236.047 296.016 236.125 295.734 236.125C295.453 236.125 295.24 236.047 295.094 235.891C294.953 235.734 294.883 235.539 294.883 235.305ZM299.383 241.695C299.383 240.867 299.544 240.122 299.867 239.461C300.195 238.799 300.648 238.289 301.227 237.93C301.81 237.57 302.474 237.391 303.219 237.391C304.37 237.391 305.299 237.789 306.008 238.586C306.721 239.383 307.078 240.443 307.078 241.766V241.867C307.078 242.69 306.919 243.43 306.602 244.086C306.289 244.737 305.839 245.245 305.25 245.609C304.667 245.974 303.995 246.156 303.234 246.156C302.089 246.156 301.159 245.758 300.445 244.961C299.737 244.164 299.383 243.109 299.383 241.797V241.695ZM300.836 241.867C300.836 242.805 301.052 243.557 301.484 244.125C301.922 244.693 302.505 244.977 303.234 244.977C303.969 244.977 304.552 244.69 304.984 244.117C305.417 243.539 305.633 242.732 305.633 241.695C305.633 240.768 305.411 240.018 304.969 239.445C304.531 238.867 303.948 238.578 303.219 238.578C302.505 238.578 301.93 238.862 301.492 239.43C301.055 239.997 300.836 240.81 300.836 241.867ZM311.258 237.547L311.305 238.609C311.951 237.797 312.794 237.391 313.836 237.391C315.622 237.391 316.523 238.398 316.539 240.414V246H315.094V240.406C315.089 239.797 314.948 239.346 314.672 239.055C314.401 238.763 313.977 238.617 313.398 238.617C312.93 238.617 312.518 238.742 312.164 238.992C311.81 239.242 311.534 239.57 311.336 239.977V246H309.891V237.547H311.258Z" fill="#1A1C1E"/>
<rect x="123" y="221" width="40" height="40" rx="20" fill="#0B9219"/>
<path d="M224.5 331C224.5 314.708 237.708 301.5 254 301.5H552C568.292 301.5 581.5 314.708 581.5 331C581.5 347.292 568.292 360.5 552 360.5H254C237.708 360.5 224.5 347.292 224.5 331Z" fill="#FCFCFC" stroke="#E69D44"/>
<path d="M293.328 324.625V332.359C293.323 333.432 292.984 334.31 292.312 334.992C291.646 335.674 290.74 336.057 289.594 336.141L289.195 336.156C287.951 336.156 286.958 335.82 286.219 335.148C285.479 334.477 285.104 333.552 285.094 332.375V324.625H286.578V332.328C286.578 333.151 286.805 333.792 287.258 334.25C287.711 334.703 288.357 334.93 289.195 334.93C290.044 334.93 290.693 334.703 291.141 334.25C291.594 333.797 291.82 333.159 291.82 332.336V324.625H293.328ZM300.406 328.984L303.133 324.625H304.898L301.305 330.266L304.984 336H303.203L300.406 331.562L297.594 336H295.82L299.508 330.266L295.906 324.625H297.664L300.406 328.984ZM307.789 336.977H306.547L311.297 324.625H312.531L307.789 336.977ZM323.328 324.625V332.359C323.323 333.432 322.984 334.31 322.312 334.992C321.646 335.674 320.74 336.057 319.594 336.141L319.195 336.156C317.951 336.156 316.958 335.82 316.219 335.148C315.479 334.477 315.104 333.552 315.094 332.375V324.625H316.578V332.328C316.578 333.151 316.805 333.792 317.258 334.25C317.711 334.703 318.357 334.93 319.195 334.93C320.044 334.93 320.693 334.703 321.141 334.25C321.594 333.797 321.82 333.159 321.82 332.336V324.625H323.328ZM328.305 336H326.805V324.625H328.305V336ZM336.445 331.703C336.445 330.406 336.753 329.365 337.367 328.578C337.982 327.786 338.786 327.391 339.781 327.391C340.771 327.391 341.555 327.729 342.133 328.406V324H343.578V336H342.25L342.18 335.094C341.602 335.802 340.797 336.156 339.766 336.156C338.786 336.156 337.987 335.755 337.367 334.953C336.753 334.151 336.445 333.104 336.445 331.812V331.703ZM337.891 331.867C337.891 332.826 338.089 333.576 338.484 334.117C338.88 334.659 339.427 334.93 340.125 334.93C341.042 334.93 341.711 334.518 342.133 333.695V329.812C341.701 329.016 341.036 328.617 340.141 328.617C339.432 328.617 338.88 328.891 338.484 329.438C338.089 329.984 337.891 330.794 337.891 331.867ZM350.336 336.156C349.19 336.156 348.258 335.781 347.539 335.031C346.82 334.276 346.461 333.268 346.461 332.008V331.742C346.461 330.904 346.62 330.156 346.938 329.5C347.26 328.839 347.708 328.323 348.281 327.953C348.859 327.578 349.484 327.391 350.156 327.391C351.255 327.391 352.109 327.753 352.719 328.477C353.328 329.201 353.633 330.237 353.633 331.586V332.188H347.906C347.927 333.021 348.169 333.695 348.633 334.211C349.102 334.721 349.695 334.977 350.414 334.977C350.924 334.977 351.357 334.872 351.711 334.664C352.065 334.456 352.375 334.18 352.641 333.836L353.523 334.523C352.815 335.612 351.753 336.156 350.336 336.156ZM350.156 328.578C349.573 328.578 349.083 328.792 348.688 329.219C348.292 329.641 348.047 330.234 347.953 331H352.188V330.891C352.146 330.156 351.948 329.589 351.594 329.188C351.24 328.781 350.76 328.578 350.156 328.578ZM361.234 333.758C361.234 333.367 361.086 333.065 360.789 332.852C360.497 332.633 359.984 332.445 359.25 332.289C358.521 332.133 357.94 331.945 357.508 331.727C357.081 331.508 356.763 331.247 356.555 330.945C356.352 330.643 356.25 330.284 356.25 329.867C356.25 329.174 356.542 328.589 357.125 328.109C357.714 327.63 358.464 327.391 359.375 327.391C360.333 327.391 361.109 327.638 361.703 328.133C362.302 328.628 362.602 329.26 362.602 330.031H361.148C361.148 329.635 360.979 329.294 360.641 329.008C360.307 328.721 359.885 328.578 359.375 328.578C358.849 328.578 358.438 328.693 358.141 328.922C357.844 329.151 357.695 329.451 357.695 329.82C357.695 330.169 357.833 330.432 358.109 330.609C358.385 330.786 358.883 330.956 359.602 331.117C360.326 331.279 360.911 331.471 361.359 331.695C361.807 331.919 362.138 332.19 362.352 332.508C362.57 332.82 362.68 333.203 362.68 333.656C362.68 334.411 362.378 335.018 361.773 335.477C361.169 335.93 360.385 336.156 359.422 336.156C358.745 336.156 358.146 336.036 357.625 335.797C357.104 335.557 356.695 335.224 356.398 334.797C356.107 334.365 355.961 333.898 355.961 333.398H357.406C357.432 333.883 357.625 334.268 357.984 334.555C358.349 334.836 358.828 334.977 359.422 334.977C359.969 334.977 360.406 334.867 360.734 334.648C361.068 334.424 361.234 334.128 361.234 333.758ZM367.133 336H365.688V327.547H367.133V336ZM365.57 325.305C365.57 325.07 365.641 324.872 365.781 324.711C365.927 324.549 366.141 324.469 366.422 324.469C366.703 324.469 366.917 324.549 367.062 324.711C367.208 324.872 367.281 325.07 367.281 325.305C367.281 325.539 367.208 325.734 367.062 325.891C366.917 326.047 366.703 326.125 366.422 326.125C366.141 326.125 365.927 326.047 365.781 325.891C365.641 325.734 365.57 325.539 365.57 325.305ZM370.109 331.703C370.109 330.385 370.414 329.339 371.023 328.562C371.633 327.781 372.44 327.391 373.445 327.391C374.477 327.391 375.281 327.755 375.859 328.484L375.93 327.547H377.25V335.797C377.25 336.891 376.924 337.753 376.273 338.383C375.628 339.013 374.758 339.328 373.664 339.328C373.055 339.328 372.458 339.198 371.875 338.938C371.292 338.677 370.846 338.32 370.539 337.867L371.289 337C371.909 337.766 372.667 338.148 373.562 338.148C374.266 338.148 374.812 337.951 375.203 337.555C375.599 337.159 375.797 336.602 375.797 335.883V335.156C375.219 335.823 374.43 336.156 373.43 336.156C372.44 336.156 371.638 335.758 371.023 334.961C370.414 334.164 370.109 333.078 370.109 331.703ZM371.562 331.867C371.562 332.82 371.758 333.57 372.148 334.117C372.539 334.659 373.086 334.93 373.789 334.93C374.701 334.93 375.37 334.516 375.797 333.688V329.828C375.354 329.021 374.69 328.617 373.805 328.617C373.102 328.617 372.552 328.891 372.156 329.438C371.76 329.984 371.562 330.794 371.562 331.867ZM381.805 327.547L381.852 328.609C382.497 327.797 383.341 327.391 384.383 327.391C386.169 327.391 387.07 328.398 387.086 330.414V336H385.641V330.406C385.635 329.797 385.495 329.346 385.219 329.055C384.948 328.763 384.523 328.617 383.945 328.617C383.477 328.617 383.065 328.742 382.711 328.992C382.357 329.242 382.081 329.57 381.883 329.977V336H380.438V327.547H381.805ZM395.945 336V328.664H394.609V327.547H395.945V326.68C395.945 325.773 396.188 325.073 396.672 324.578C397.156 324.083 397.841 323.836 398.727 323.836C399.06 323.836 399.391 323.88 399.719 323.969L399.641 325.141C399.396 325.094 399.135 325.07 398.859 325.07C398.391 325.07 398.029 325.208 397.773 325.484C397.518 325.755 397.391 326.146 397.391 326.656V327.547H399.195V328.664H397.391V336H395.945ZM401.414 331.695C401.414 330.867 401.576 330.122 401.898 329.461C402.227 328.799 402.68 328.289 403.258 327.93C403.841 327.57 404.505 327.391 405.25 327.391C406.401 327.391 407.331 327.789 408.039 328.586C408.753 329.383 409.109 330.443 409.109 331.766V331.867C409.109 332.69 408.951 333.43 408.633 334.086C408.32 334.737 407.87 335.245 407.281 335.609C406.698 335.974 406.026 336.156 405.266 336.156C404.12 336.156 403.19 335.758 402.477 334.961C401.768 334.164 401.414 333.109 401.414 331.797V331.695ZM402.867 331.867C402.867 332.805 403.083 333.557 403.516 334.125C403.953 334.693 404.536 334.977 405.266 334.977C406 334.977 406.583 334.69 407.016 334.117C407.448 333.539 407.664 332.732 407.664 331.695C407.664 330.768 407.443 330.018 407 329.445C406.562 328.867 405.979 328.578 405.25 328.578C404.536 328.578 403.961 328.862 403.523 329.43C403.086 329.997 402.867 330.81 402.867 331.867ZM416.008 328.844C415.789 328.807 415.552 328.789 415.297 328.789C414.349 328.789 413.706 329.193 413.367 330V336H411.922V327.547H413.328L413.352 328.523C413.826 327.768 414.497 327.391 415.367 327.391C415.648 327.391 415.862 327.427 416.008 327.5V328.844ZM428.531 336C428.448 335.833 428.38 335.536 428.328 335.109C427.656 335.807 426.854 336.156 425.922 336.156C425.089 336.156 424.404 335.922 423.867 335.453C423.336 334.979 423.07 334.38 423.07 333.656C423.07 332.776 423.404 332.094 424.07 331.609C424.742 331.12 425.685 330.875 426.898 330.875H428.305V330.211C428.305 329.706 428.154 329.305 427.852 329.008C427.549 328.706 427.104 328.555 426.516 328.555C426 328.555 425.568 328.685 425.219 328.945C424.87 329.206 424.695 329.521 424.695 329.891H423.242C423.242 329.469 423.391 329.062 423.688 328.672C423.99 328.276 424.396 327.964 424.906 327.734C425.422 327.505 425.987 327.391 426.602 327.391C427.576 327.391 428.339 327.635 428.891 328.125C429.443 328.609 429.729 329.279 429.75 330.133V334.023C429.75 334.799 429.849 335.417 430.047 335.875V336H428.531ZM426.133 334.898C426.586 334.898 427.016 334.781 427.422 334.547C427.828 334.312 428.122 334.008 428.305 333.633V331.898H427.172C425.401 331.898 424.516 332.417 424.516 333.453C424.516 333.906 424.667 334.26 424.969 334.516C425.271 334.771 425.659 334.898 426.133 334.898ZM434.586 336H433.141V324H434.586V336ZM439.477 336H438.031V324H439.477V336ZM447.414 331.703C447.414 330.406 447.721 329.365 448.336 328.578C448.951 327.786 449.755 327.391 450.75 327.391C451.74 327.391 452.523 327.729 453.102 328.406V324H454.547V336H453.219L453.148 335.094C452.57 335.802 451.766 336.156 450.734 336.156C449.755 336.156 448.956 335.755 448.336 334.953C447.721 334.151 447.414 333.104 447.414 331.812V331.703ZM448.859 331.867C448.859 332.826 449.057 333.576 449.453 334.117C449.849 334.659 450.396 334.93 451.094 334.93C452.01 334.93 452.68 334.518 453.102 333.695V329.812C452.669 329.016 452.005 328.617 451.109 328.617C450.401 328.617 449.849 328.891 449.453 329.438C449.057 329.984 448.859 330.794 448.859 331.867ZM461.305 336.156C460.159 336.156 459.227 335.781 458.508 335.031C457.789 334.276 457.43 333.268 457.43 332.008V331.742C457.43 330.904 457.589 330.156 457.906 329.5C458.229 328.839 458.677 328.323 459.25 327.953C459.828 327.578 460.453 327.391 461.125 327.391C462.224 327.391 463.078 327.753 463.688 328.477C464.297 329.201 464.602 330.237 464.602 331.586V332.188H458.875C458.896 333.021 459.138 333.695 459.602 334.211C460.07 334.721 460.664 334.977 461.383 334.977C461.893 334.977 462.326 334.872 462.68 334.664C463.034 334.456 463.344 334.18 463.609 333.836L464.492 334.523C463.784 335.612 462.721 336.156 461.305 336.156ZM461.125 328.578C460.542 328.578 460.052 328.792 459.656 329.219C459.26 329.641 459.016 330.234 458.922 331H463.156V330.891C463.115 330.156 462.917 329.589 462.562 329.188C462.208 328.781 461.729 328.578 461.125 328.578ZM469.961 334.039L472.055 327.547H473.531L470.5 336H469.398L466.336 327.547H467.812L469.961 334.039ZM477.492 336H476.047V327.547H477.492V336ZM475.93 325.305C475.93 325.07 476 324.872 476.141 324.711C476.286 324.549 476.5 324.469 476.781 324.469C477.062 324.469 477.276 324.549 477.422 324.711C477.568 324.872 477.641 325.07 477.641 325.305C477.641 325.539 477.568 325.734 477.422 325.891C477.276 326.047 477.062 326.125 476.781 326.125C476.5 326.125 476.286 326.047 476.141 325.891C476 325.734 475.93 325.539 475.93 325.305ZM484.203 334.977C484.719 334.977 485.169 334.82 485.555 334.508C485.94 334.195 486.154 333.805 486.195 333.336H487.562C487.536 333.82 487.37 334.281 487.062 334.719C486.755 335.156 486.344 335.505 485.828 335.766C485.318 336.026 484.776 336.156 484.203 336.156C483.052 336.156 482.135 335.773 481.453 335.008C480.776 334.237 480.438 333.185 480.438 331.852V331.609C480.438 330.786 480.589 330.055 480.891 329.414C481.193 328.773 481.625 328.276 482.188 327.922C482.755 327.568 483.424 327.391 484.195 327.391C485.143 327.391 485.93 327.674 486.555 328.242C487.185 328.81 487.521 329.547 487.562 330.453H486.195C486.154 329.906 485.945 329.458 485.57 329.109C485.201 328.755 484.742 328.578 484.195 328.578C483.461 328.578 482.891 328.844 482.484 329.375C482.083 329.901 481.883 330.664 481.883 331.664V331.938C481.883 332.911 482.083 333.661 482.484 334.188C482.885 334.714 483.458 334.977 484.203 334.977ZM493.695 336.156C492.549 336.156 491.617 335.781 490.898 335.031C490.18 334.276 489.82 333.268 489.82 332.008V331.742C489.82 330.904 489.979 330.156 490.297 329.5C490.62 328.839 491.068 328.323 491.641 327.953C492.219 327.578 492.844 327.391 493.516 327.391C494.615 327.391 495.469 327.753 496.078 328.477C496.688 329.201 496.992 330.237 496.992 331.586V332.188H491.266C491.286 333.021 491.529 333.695 491.992 334.211C492.461 334.721 493.055 334.977 493.773 334.977C494.284 334.977 494.716 334.872 495.07 334.664C495.424 334.456 495.734 334.18 496 333.836L496.883 334.523C496.174 335.612 495.112 336.156 493.695 336.156ZM493.516 328.578C492.932 328.578 492.443 328.792 492.047 329.219C491.651 329.641 491.406 330.234 491.312 331H495.547V330.891C495.505 330.156 495.307 329.589 494.953 329.188C494.599 328.781 494.12 328.578 493.516 328.578ZM504.594 333.758C504.594 333.367 504.445 333.065 504.148 332.852C503.857 332.633 503.344 332.445 502.609 332.289C501.88 332.133 501.299 331.945 500.867 331.727C500.44 331.508 500.122 331.247 499.914 330.945C499.711 330.643 499.609 330.284 499.609 329.867C499.609 329.174 499.901 328.589 500.484 328.109C501.073 327.63 501.823 327.391 502.734 327.391C503.693 327.391 504.469 327.638 505.062 328.133C505.661 328.628 505.961 329.26 505.961 330.031H504.508C504.508 329.635 504.339 329.294 504 329.008C503.667 328.721 503.245 328.578 502.734 328.578C502.208 328.578 501.797 328.693 501.5 328.922C501.203 329.151 501.055 329.451 501.055 329.82C501.055 330.169 501.193 330.432 501.469 330.609C501.745 330.786 502.242 330.956 502.961 331.117C503.685 331.279 504.271 331.471 504.719 331.695C505.167 331.919 505.497 332.19 505.711 332.508C505.93 332.82 506.039 333.203 506.039 333.656C506.039 334.411 505.737 335.018 505.133 335.477C504.529 335.93 503.745 336.156 502.781 336.156C502.104 336.156 501.505 336.036 500.984 335.797C500.464 335.557 500.055 335.224 499.758 334.797C499.466 334.365 499.32 333.898 499.32 333.398H500.766C500.792 333.883 500.984 334.268 501.344 334.555C501.708 334.836 502.188 334.977 502.781 334.977C503.328 334.977 503.766 334.867 504.094 334.648C504.427 334.424 504.594 334.128 504.594 333.758Z" fill="#1A1C1E"/>
<rect x="234" y="311" width="40" height="40" rx="20" fill="#E69D44"/>
<path d="M1288.5 331C1288.5 314.708 1301.71 301.5 1318 301.5H1422C1438.29 301.5 1451.5 314.708 1451.5 331C1451.5 347.292 1438.29 360.5 1422 360.5H1318C1301.71 360.5 1288.5 347.292 1288.5 331Z" fill="#FCFCFC" stroke="#F2C94C"/>
<path d="M1349.32 336V324.625H1353.04C1354.27 324.625 1355.2 324.88 1355.82 325.391C1356.45 325.901 1356.76 326.656 1356.76 327.656C1356.76 328.188 1356.61 328.659 1356.3 329.07C1356 329.477 1355.59 329.792 1355.07 330.016C1355.68 330.188 1356.17 330.516 1356.52 331C1356.88 331.479 1357.06 332.052 1357.06 332.719C1357.06 333.74 1356.73 334.542 1356.07 335.125C1355.41 335.708 1354.47 336 1353.27 336H1349.32ZM1350.82 330.68V334.773H1353.3C1353.99 334.773 1354.54 334.594 1354.95 334.234C1355.35 333.87 1355.55 333.37 1355.55 332.734C1355.55 331.365 1354.81 330.68 1353.32 330.68H1350.82ZM1350.82 329.477H1353.09C1353.74 329.477 1354.27 329.312 1354.66 328.984C1355.05 328.656 1355.25 328.211 1355.25 327.648C1355.25 327.023 1355.07 326.57 1354.7 326.289C1354.34 326.003 1353.78 325.859 1353.04 325.859H1350.82V329.477ZM1365.28 335.164C1364.72 335.826 1363.89 336.156 1362.8 336.156C1361.9 336.156 1361.22 335.896 1360.74 335.375C1360.27 334.849 1360.04 334.073 1360.03 333.047V327.547H1361.48V333.008C1361.48 334.289 1362 334.93 1363.04 334.93C1364.14 334.93 1364.88 334.518 1365.24 333.695V327.547H1366.69V336H1365.31L1365.28 335.164ZM1369.55 331.703C1369.55 330.385 1369.85 329.339 1370.46 328.562C1371.07 327.781 1371.88 327.391 1372.88 327.391C1373.91 327.391 1374.72 327.755 1375.3 328.484L1375.37 327.547H1376.69V335.797C1376.69 336.891 1376.36 337.753 1375.71 338.383C1375.07 339.013 1374.2 339.328 1373.1 339.328C1372.49 339.328 1371.9 339.198 1371.31 338.938C1370.73 338.677 1370.28 338.32 1369.98 337.867L1370.73 337C1371.35 337.766 1372.1 338.148 1373 338.148C1373.7 338.148 1374.25 337.951 1374.64 337.555C1375.04 337.159 1375.23 336.602 1375.23 335.883V335.156C1374.66 335.823 1373.87 336.156 1372.87 336.156C1371.88 336.156 1371.08 335.758 1370.46 334.961C1369.85 334.164 1369.55 333.078 1369.55 331.703ZM1371 331.867C1371 332.82 1371.2 333.57 1371.59 334.117C1371.98 334.659 1372.52 334.93 1373.23 334.93C1374.14 334.93 1374.81 334.516 1375.23 333.688V329.828C1374.79 329.021 1374.13 328.617 1373.24 328.617C1372.54 328.617 1371.99 328.891 1371.59 329.438C1371.2 329.984 1371 330.794 1371 331.867ZM1382.88 331.758H1379.07V330.578H1382.88V331.758ZM1385.78 336V328.664H1384.45V327.547H1385.78V326.828C1385.78 325.885 1386.05 325.151 1386.59 324.625C1387.13 324.099 1387.89 323.836 1388.88 323.836C1389.46 323.836 1390.2 323.995 1391.09 324.312L1390.84 325.531C1390.19 325.271 1389.57 325.141 1388.98 325.141C1388.36 325.141 1387.92 325.281 1387.64 325.562C1387.37 325.839 1387.23 326.255 1387.23 326.812V327.547H1388.96V328.664H1387.23V336H1385.78ZM1391.8 336H1390.35V327.547H1391.8V336ZM1397.99 330.633L1399.87 327.547H1401.55L1398.79 331.727L1401.64 336H1399.97L1398.02 332.836L1396.06 336H1394.38L1397.23 331.727L1394.47 327.547H1396.14L1397.99 330.633ZM1405.66 336H1404.22V327.547H1405.66V336ZM1404.1 325.305C1404.1 325.07 1404.17 324.872 1404.31 324.711C1404.46 324.549 1404.67 324.469 1404.95 324.469C1405.23 324.469 1405.45 324.549 1405.59 324.711C1405.74 324.872 1405.81 325.07 1405.81 325.305C1405.81 325.539 1405.74 325.734 1405.59 325.891C1405.45 326.047 1405.23 326.125 1404.95 326.125C1404.67 326.125 1404.46 326.047 1404.31 325.891C1404.17 325.734 1404.1 325.539 1404.1 325.305ZM1410.35 327.547L1410.4 328.609C1411.04 327.797 1411.89 327.391 1412.93 327.391C1414.72 327.391 1415.62 328.398 1415.63 330.414V336H1414.19V330.406C1414.18 329.797 1414.04 329.346 1413.77 329.055C1413.49 328.763 1413.07 328.617 1412.49 328.617C1412.02 328.617 1411.61 328.742 1411.26 328.992C1410.9 329.242 1410.63 329.57 1410.43 329.977V336H1408.98V327.547H1410.35ZM1418.47 331.703C1418.47 330.385 1418.77 329.339 1419.38 328.562C1419.99 327.781 1420.8 327.391 1421.8 327.391C1422.84 327.391 1423.64 327.755 1424.22 328.484L1424.29 327.547H1425.61V335.797C1425.61 336.891 1425.28 337.753 1424.63 338.383C1423.99 339.013 1423.12 339.328 1422.02 339.328C1421.41 339.328 1420.82 339.198 1420.23 338.938C1419.65 338.677 1419.21 338.32 1418.9 337.867L1419.65 337C1420.27 337.766 1421.03 338.148 1421.92 338.148C1422.62 338.148 1423.17 337.951 1423.56 337.555C1423.96 337.159 1424.16 336.602 1424.16 335.883V335.156C1423.58 335.823 1422.79 336.156 1421.79 336.156C1420.8 336.156 1420 335.758 1419.38 334.961C1418.77 334.164 1418.47 333.078 1418.47 331.703ZM1419.92 331.867C1419.92 332.82 1420.12 333.57 1420.51 334.117C1420.9 334.659 1421.45 334.93 1422.15 334.93C1423.06 334.93 1423.73 334.516 1424.16 333.688V329.828C1423.71 329.021 1423.05 328.617 1422.16 328.617C1421.46 328.617 1420.91 328.891 1420.52 329.438C1420.12 329.984 1419.92 330.794 1419.92 331.867Z" fill="#1A1C1E"/>
<rect x="1298" y="311" width="40" height="40" rx="20" fill="#F2C94C"/>
<path d="M520.5 151C520.5 134.708 533.708 121.5 550 121.5H1278C1294.29 121.5 1307.5 134.708 1307.5 151C1307.5 167.292 1294.29 180.5 1278 180.5H550C533.708 180.5 520.5 167.292 520.5 151Z" fill="#FCFCFC" stroke="#AD6DA9"/>
<path d="M581.32 156V144.625H585.039C586.273 144.625 587.201 144.88 587.82 145.391C588.445 145.901 588.758 146.656 588.758 147.656C588.758 148.188 588.607 148.659 588.305 149.07C588.003 149.477 587.591 149.792 587.07 150.016C587.685 150.188 588.169 150.516 588.523 151C588.883 151.479 589.062 152.052 589.062 152.719C589.062 153.74 588.732 154.542 588.07 155.125C587.409 155.708 586.474 156 585.266 156H581.32ZM582.82 150.68V154.773H585.297C585.995 154.773 586.544 154.594 586.945 154.234C587.352 153.87 587.555 153.37 587.555 152.734C587.555 151.365 586.81 150.68 585.32 150.68H582.82ZM582.82 149.477H585.086C585.742 149.477 586.266 149.312 586.656 148.984C587.052 148.656 587.25 148.211 587.25 147.648C587.25 147.023 587.068 146.57 586.703 146.289C586.339 146.003 585.784 145.859 585.039 145.859H582.82V149.477ZM597.281 156C597.198 155.833 597.13 155.536 597.078 155.109C596.406 155.807 595.604 156.156 594.672 156.156C593.839 156.156 593.154 155.922 592.617 155.453C592.086 154.979 591.82 154.38 591.82 153.656C591.82 152.776 592.154 152.094 592.82 151.609C593.492 151.12 594.435 150.875 595.648 150.875H597.055V150.211C597.055 149.706 596.904 149.305 596.602 149.008C596.299 148.706 595.854 148.555 595.266 148.555C594.75 148.555 594.318 148.685 593.969 148.945C593.62 149.206 593.445 149.521 593.445 149.891H591.992C591.992 149.469 592.141 149.062 592.438 148.672C592.74 148.276 593.146 147.964 593.656 147.734C594.172 147.505 594.737 147.391 595.352 147.391C596.326 147.391 597.089 147.635 597.641 148.125C598.193 148.609 598.479 149.279 598.5 150.133V154.023C598.5 154.799 598.599 155.417 598.797 155.875V156H597.281ZM594.883 154.898C595.336 154.898 595.766 154.781 596.172 154.547C596.578 154.312 596.872 154.008 597.055 153.633V151.898H595.922C594.151 151.898 593.266 152.417 593.266 153.453C593.266 153.906 593.417 154.26 593.719 154.516C594.021 154.771 594.409 154.898 594.883 154.898ZM605.156 154.977C605.672 154.977 606.122 154.82 606.508 154.508C606.893 154.195 607.107 153.805 607.148 153.336H608.516C608.49 153.82 608.323 154.281 608.016 154.719C607.708 155.156 607.297 155.505 606.781 155.766C606.271 156.026 605.729 156.156 605.156 156.156C604.005 156.156 603.089 155.773 602.406 155.008C601.729 154.237 601.391 153.185 601.391 151.852V151.609C601.391 150.786 601.542 150.055 601.844 149.414C602.146 148.773 602.578 148.276 603.141 147.922C603.708 147.568 604.378 147.391 605.148 147.391C606.096 147.391 606.883 147.674 607.508 148.242C608.138 148.81 608.474 149.547 608.516 150.453H607.148C607.107 149.906 606.898 149.458 606.523 149.109C606.154 148.755 605.695 148.578 605.148 148.578C604.414 148.578 603.844 148.844 603.438 149.375C603.036 149.901 602.836 150.664 602.836 151.664V151.938C602.836 152.911 603.036 153.661 603.438 154.188C603.839 154.714 604.411 154.977 605.156 154.977ZM613.5 152.086L612.594 153.031V156H611.148V144H612.594V151.258L613.367 150.328L616 147.547H617.758L614.469 151.078L618.141 156H616.445L613.5 152.086ZM623.258 151.758H619.445V150.578H623.258V151.758ZM629.18 156.156C628.034 156.156 627.102 155.781 626.383 155.031C625.664 154.276 625.305 153.268 625.305 152.008V151.742C625.305 150.904 625.464 150.156 625.781 149.5C626.104 148.839 626.552 148.323 627.125 147.953C627.703 147.578 628.328 147.391 629 147.391C630.099 147.391 630.953 147.753 631.562 148.477C632.172 149.201 632.477 150.237 632.477 151.586V152.188H626.75C626.771 153.021 627.013 153.695 627.477 154.211C627.945 154.721 628.539 154.977 629.258 154.977C629.768 154.977 630.201 154.872 630.555 154.664C630.909 154.456 631.219 154.18 631.484 153.836L632.367 154.523C631.659 155.612 630.596 156.156 629.18 156.156ZM629 148.578C628.417 148.578 627.927 148.792 627.531 149.219C627.135 149.641 626.891 150.234 626.797 151H631.031V150.891C630.99 150.156 630.792 149.589 630.438 149.188C630.083 148.781 629.604 148.578 629 148.578ZM636.523 147.547L636.57 148.609C637.216 147.797 638.06 147.391 639.102 147.391C640.888 147.391 641.789 148.398 641.805 150.414V156H640.359V150.406C640.354 149.797 640.214 149.346 639.938 149.055C639.667 148.763 639.242 148.617 638.664 148.617C638.195 148.617 637.784 148.742 637.43 148.992C637.076 149.242 636.799 149.57 636.602 149.977V156H635.156V147.547H636.523ZM644.633 151.703C644.633 150.406 644.94 149.365 645.555 148.578C646.169 147.786 646.974 147.391 647.969 147.391C648.958 147.391 649.742 147.729 650.32 148.406V144H651.766V156H650.438L650.367 155.094C649.789 155.802 648.984 156.156 647.953 156.156C646.974 156.156 646.174 155.755 645.555 154.953C644.94 154.151 644.633 153.104 644.633 151.812V151.703ZM646.078 151.867C646.078 152.826 646.276 153.576 646.672 154.117C647.068 154.659 647.615 154.93 648.312 154.93C649.229 154.93 649.898 154.518 650.32 153.695V149.812C649.888 149.016 649.224 148.617 648.328 148.617C647.62 148.617 647.068 148.891 646.672 149.438C646.276 149.984 646.078 150.794 646.078 151.867ZM659.633 151.703C659.633 150.406 659.94 149.365 660.555 148.578C661.169 147.786 661.974 147.391 662.969 147.391C663.958 147.391 664.742 147.729 665.32 148.406V144H666.766V156H665.438L665.367 155.094C664.789 155.802 663.984 156.156 662.953 156.156C661.974 156.156 661.174 155.755 660.555 154.953C659.94 154.151 659.633 153.104 659.633 151.812V151.703ZM661.078 151.867C661.078 152.826 661.276 153.576 661.672 154.117C662.068 154.659 662.615 154.93 663.312 154.93C664.229 154.93 664.898 154.518 665.32 153.695V149.812C664.888 149.016 664.224 148.617 663.328 148.617C662.62 148.617 662.068 148.891 661.672 149.438C661.276 149.984 661.078 150.794 661.078 151.867ZM673.523 156.156C672.378 156.156 671.445 155.781 670.727 155.031C670.008 154.276 669.648 153.268 669.648 152.008V151.742C669.648 150.904 669.807 150.156 670.125 149.5C670.448 148.839 670.896 148.323 671.469 147.953C672.047 147.578 672.672 147.391 673.344 147.391C674.443 147.391 675.297 147.753 675.906 148.477C676.516 149.201 676.82 150.237 676.82 151.586V152.188H671.094C671.115 153.021 671.357 153.695 671.82 154.211C672.289 154.721 672.883 154.977 673.602 154.977C674.112 154.977 674.544 154.872 674.898 154.664C675.253 154.456 675.562 154.18 675.828 153.836L676.711 154.523C676.003 155.612 674.94 156.156 673.523 156.156ZM673.344 148.578C672.76 148.578 672.271 148.792 671.875 149.219C671.479 149.641 671.234 150.234 671.141 151H675.375V150.891C675.333 150.156 675.135 149.589 674.781 149.188C674.427 148.781 673.948 148.578 673.344 148.578ZM682.18 154.039L684.273 147.547H685.75L682.719 156H681.617L678.555 147.547H680.031L682.18 154.039ZM691.539 156.156C690.393 156.156 689.461 155.781 688.742 155.031C688.023 154.276 687.664 153.268 687.664 152.008V151.742C687.664 150.904 687.823 150.156 688.141 149.5C688.464 148.839 688.911 148.323 689.484 147.953C690.062 147.578 690.688 147.391 691.359 147.391C692.458 147.391 693.312 147.753 693.922 148.477C694.531 149.201 694.836 150.237 694.836 151.586V152.188H689.109C689.13 153.021 689.372 153.695 689.836 154.211C690.305 154.721 690.898 154.977 691.617 154.977C692.128 154.977 692.56 154.872 692.914 154.664C693.268 154.456 693.578 154.18 693.844 153.836L694.727 154.523C694.018 155.612 692.956 156.156 691.539 156.156ZM691.359 148.578C690.776 148.578 690.286 148.792 689.891 149.219C689.495 149.641 689.25 150.234 689.156 151H693.391V150.891C693.349 150.156 693.151 149.589 692.797 149.188C692.443 148.781 691.964 148.578 691.359 148.578ZM699.086 156H697.641V144H699.086V156ZM702.023 151.695C702.023 150.867 702.185 150.122 702.508 149.461C702.836 148.799 703.289 148.289 703.867 147.93C704.451 147.57 705.115 147.391 705.859 147.391C707.01 147.391 707.94 147.789 708.648 148.586C709.362 149.383 709.719 150.443 709.719 151.766V151.867C709.719 152.69 709.56 153.43 709.242 154.086C708.93 154.737 708.479 155.245 707.891 155.609C707.307 155.974 706.635 156.156 705.875 156.156C704.729 156.156 703.799 155.758 703.086 154.961C702.378 154.164 702.023 153.109 702.023 151.797V151.695ZM703.477 151.867C703.477 152.805 703.693 153.557 704.125 154.125C704.562 154.693 705.146 154.977 705.875 154.977C706.609 154.977 707.193 154.69 707.625 154.117C708.057 153.539 708.273 152.732 708.273 151.695C708.273 150.768 708.052 150.018 707.609 149.445C707.172 148.867 706.589 148.578 705.859 148.578C705.146 148.578 704.57 148.862 704.133 149.43C703.695 149.997 703.477 150.81 703.477 151.867ZM719.672 151.867C719.672 153.154 719.378 154.19 718.789 154.977C718.201 155.763 717.404 156.156 716.398 156.156C715.372 156.156 714.565 155.831 713.977 155.18V159.25H712.531V147.547H713.852L713.922 148.484C714.51 147.755 715.328 147.391 716.375 147.391C717.391 147.391 718.193 147.773 718.781 148.539C719.375 149.305 719.672 150.37 719.672 151.734V151.867ZM718.227 151.703C718.227 150.75 718.023 149.997 717.617 149.445C717.211 148.893 716.654 148.617 715.945 148.617C715.07 148.617 714.414 149.005 713.977 149.781V153.82C714.409 154.591 715.07 154.977 715.961 154.977C716.654 154.977 717.203 154.703 717.609 154.156C718.021 153.604 718.227 152.786 718.227 151.703ZM723.875 147.547L723.914 148.484C724.534 147.755 725.37 147.391 726.422 147.391C727.604 147.391 728.409 147.844 728.836 148.75C729.117 148.344 729.482 148.016 729.93 147.766C730.383 147.516 730.917 147.391 731.531 147.391C733.385 147.391 734.328 148.372 734.359 150.336V156H732.914V150.422C732.914 149.818 732.776 149.367 732.5 149.07C732.224 148.768 731.76 148.617 731.109 148.617C730.573 148.617 730.128 148.779 729.773 149.102C729.419 149.419 729.214 149.849 729.156 150.391V156H727.703V150.461C727.703 149.232 727.102 148.617 725.898 148.617C724.951 148.617 724.302 149.021 723.953 149.828V156H722.508V147.547H723.875ZM741.055 156.156C739.909 156.156 738.977 155.781 738.258 155.031C737.539 154.276 737.18 153.268 737.18 152.008V151.742C737.18 150.904 737.339 150.156 737.656 149.5C737.979 148.839 738.427 148.323 739 147.953C739.578 147.578 740.203 147.391 740.875 147.391C741.974 147.391 742.828 147.753 743.438 148.477C744.047 149.201 744.352 150.237 744.352 151.586V152.188H738.625C738.646 153.021 738.888 153.695 739.352 154.211C739.82 154.721 740.414 154.977 741.133 154.977C741.643 154.977 742.076 154.872 742.43 154.664C742.784 154.456 743.094 154.18 743.359 153.836L744.242 154.523C743.534 155.612 742.471 156.156 741.055 156.156ZM740.875 148.578C740.292 148.578 739.802 148.792 739.406 149.219C739.01 149.641 738.766 150.234 738.672 151H742.906V150.891C742.865 150.156 742.667 149.589 742.312 149.188C741.958 148.781 741.479 148.578 740.875 148.578ZM748.398 147.547L748.445 148.609C749.091 147.797 749.935 147.391 750.977 147.391C752.763 147.391 753.664 148.398 753.68 150.414V156H752.234V150.406C752.229 149.797 752.089 149.346 751.812 149.055C751.542 148.763 751.117 148.617 750.539 148.617C750.07 148.617 749.659 148.742 749.305 148.992C748.951 149.242 748.674 149.57 748.477 149.977V156H747.031V147.547H748.398ZM758.82 145.5V147.547H760.398V148.664H758.82V153.906C758.82 154.245 758.891 154.5 759.031 154.672C759.172 154.839 759.411 154.922 759.75 154.922C759.917 154.922 760.146 154.891 760.438 154.828V156C760.057 156.104 759.688 156.156 759.328 156.156C758.682 156.156 758.195 155.961 757.867 155.57C757.539 155.18 757.375 154.625 757.375 153.906V148.664H755.836V147.547H757.375V145.5H758.82Z" fill="#1A1C1E"/>
<path d="M944.594 150.977H939.82V156H938.32V144.625H945.367V145.859H939.82V149.75H944.594V150.977ZM951.82 148.844C951.602 148.807 951.365 148.789 951.109 148.789C950.161 148.789 949.518 149.193 949.18 150V156H947.734V147.547H949.141L949.164 148.523C949.638 147.768 950.31 147.391 951.18 147.391C951.461 147.391 951.674 147.427 951.82 147.5V148.844ZM953.617 151.695C953.617 150.867 953.779 150.122 954.102 149.461C954.43 148.799 954.883 148.289 955.461 147.93C956.044 147.57 956.708 147.391 957.453 147.391C958.604 147.391 959.534 147.789 960.242 148.586C960.956 149.383 961.312 150.443 961.312 151.766V151.867C961.312 152.69 961.154 153.43 960.836 154.086C960.523 154.737 960.073 155.245 959.484 155.609C958.901 155.974 958.229 156.156 957.469 156.156C956.323 156.156 955.393 155.758 954.68 154.961C953.971 154.164 953.617 153.109 953.617 151.797V151.695ZM955.07 151.867C955.07 152.805 955.286 153.557 955.719 154.125C956.156 154.693 956.74 154.977 957.469 154.977C958.203 154.977 958.786 154.69 959.219 154.117C959.651 153.539 959.867 152.732 959.867 151.695C959.867 150.768 959.646 150.018 959.203 149.445C958.766 148.867 958.182 148.578 957.453 148.578C956.74 148.578 956.164 148.862 955.727 149.43C955.289 149.997 955.07 150.81 955.07 151.867ZM965.492 147.547L965.539 148.609C966.185 147.797 967.029 147.391 968.07 147.391C969.857 147.391 970.758 148.398 970.773 150.414V156H969.328V150.406C969.323 149.797 969.182 149.346 968.906 149.055C968.635 148.763 968.211 148.617 967.633 148.617C967.164 148.617 966.753 148.742 966.398 148.992C966.044 149.242 965.768 149.57 965.57 149.977V156H964.125V147.547H965.492ZM975.914 145.5V147.547H977.492V148.664H975.914V153.906C975.914 154.245 975.984 154.5 976.125 154.672C976.266 154.839 976.505 154.922 976.844 154.922C977.01 154.922 977.24 154.891 977.531 154.828V156C977.151 156.104 976.781 156.156 976.422 156.156C975.776 156.156 975.289 155.961 974.961 155.57C974.633 155.18 974.469 154.625 974.469 153.906V148.664H972.93V147.547H974.469V145.5H975.914ZM983.195 151.758H979.383V150.578H983.195V151.758ZM989.117 156.156C987.971 156.156 987.039 155.781 986.32 155.031C985.602 154.276 985.242 153.268 985.242 152.008V151.742C985.242 150.904 985.401 150.156 985.719 149.5C986.042 148.839 986.49 148.323 987.062 147.953C987.641 147.578 988.266 147.391 988.938 147.391C990.036 147.391 990.891 147.753 991.5 148.477C992.109 149.201 992.414 150.237 992.414 151.586V152.188H986.688C986.708 153.021 986.951 153.695 987.414 154.211C987.883 154.721 988.477 154.977 989.195 154.977C989.706 154.977 990.138 154.872 990.492 154.664C990.846 154.456 991.156 154.18 991.422 153.836L992.305 154.523C991.596 155.612 990.534 156.156 989.117 156.156ZM988.938 148.578C988.354 148.578 987.865 148.792 987.469 149.219C987.073 149.641 986.828 150.234 986.734 151H990.969V150.891C990.927 150.156 990.729 149.589 990.375 149.188C990.021 148.781 989.542 148.578 988.938 148.578ZM996.461 147.547L996.508 148.609C997.154 147.797 997.997 147.391 999.039 147.391C1000.83 147.391 1001.73 148.398 1001.74 150.414V156H1000.3V150.406C1000.29 149.797 1000.15 149.346 999.875 149.055C999.604 148.763 999.18 148.617 998.602 148.617C998.133 148.617 997.721 148.742 997.367 148.992C997.013 149.242 996.737 149.57 996.539 149.977V156H995.094V147.547H996.461ZM1004.57 151.703C1004.57 150.406 1004.88 149.365 1005.49 148.578C1006.11 147.786 1006.91 147.391 1007.91 147.391C1008.9 147.391 1009.68 147.729 1010.26 148.406V144H1011.7V156H1010.38L1010.3 155.094C1009.73 155.802 1008.92 156.156 1007.89 156.156C1006.91 156.156 1006.11 155.755 1005.49 154.953C1004.88 154.151 1004.57 153.104 1004.57 151.812V151.703ZM1006.02 151.867C1006.02 152.826 1006.21 153.576 1006.61 154.117C1007.01 154.659 1007.55 154.93 1008.25 154.93C1009.17 154.93 1009.84 154.518 1010.26 153.695V149.812C1009.83 149.016 1009.16 148.617 1008.27 148.617C1007.56 148.617 1007.01 148.891 1006.61 149.438C1006.21 149.984 1006.02 150.794 1006.02 151.867ZM1019.57 151.703C1019.57 150.406 1019.88 149.365 1020.49 148.578C1021.11 147.786 1021.91 147.391 1022.91 147.391C1023.9 147.391 1024.68 147.729 1025.26 148.406V144H1026.7V156H1025.38L1025.3 155.094C1024.73 155.802 1023.92 156.156 1022.89 156.156C1021.91 156.156 1021.11 155.755 1020.49 154.953C1019.88 154.151 1019.57 153.104 1019.57 151.812V151.703ZM1021.02 151.867C1021.02 152.826 1021.21 153.576 1021.61 154.117C1022.01 154.659 1022.55 154.93 1023.25 154.93C1024.17 154.93 1024.84 154.518 1025.26 153.695V149.812C1024.83 149.016 1024.16 148.617 1023.27 148.617C1022.56 148.617 1022.01 148.891 1021.61 149.438C1021.21 149.984 1021.02 150.794 1021.02 151.867ZM1033.46 156.156C1032.32 156.156 1031.38 155.781 1030.66 155.031C1029.95 154.276 1029.59 153.268 1029.59 152.008V151.742C1029.59 150.904 1029.74 150.156 1030.06 149.5C1030.39 148.839 1030.83 148.323 1031.41 147.953C1031.98 147.578 1032.61 147.391 1033.28 147.391C1034.38 147.391 1035.23 147.753 1035.84 148.477C1036.45 149.201 1036.76 150.237 1036.76 151.586V152.188H1031.03C1031.05 153.021 1031.29 153.695 1031.76 154.211C1032.23 154.721 1032.82 154.977 1033.54 154.977C1034.05 154.977 1034.48 154.872 1034.84 154.664C1035.19 154.456 1035.5 154.18 1035.77 153.836L1036.65 154.523C1035.94 155.612 1034.88 156.156 1033.46 156.156ZM1033.28 148.578C1032.7 148.578 1032.21 148.792 1031.81 149.219C1031.42 149.641 1031.17 150.234 1031.08 151H1035.31V150.891C1035.27 150.156 1035.07 149.589 1034.72 149.188C1034.36 148.781 1033.89 148.578 1033.28 148.578ZM1042.12 154.039L1044.21 147.547H1045.69L1042.66 156H1041.55L1038.49 147.547H1039.97L1042.12 154.039ZM1051.48 156.156C1050.33 156.156 1049.4 155.781 1048.68 155.031C1047.96 154.276 1047.6 153.268 1047.6 152.008V151.742C1047.6 150.904 1047.76 150.156 1048.08 149.5C1048.4 148.839 1048.85 148.323 1049.42 147.953C1050 147.578 1050.62 147.391 1051.3 147.391C1052.4 147.391 1053.25 147.753 1053.86 148.477C1054.47 149.201 1054.77 150.237 1054.77 151.586V152.188H1049.05C1049.07 153.021 1049.31 153.695 1049.77 154.211C1050.24 154.721 1050.84 154.977 1051.55 154.977C1052.07 154.977 1052.5 154.872 1052.85 154.664C1053.21 154.456 1053.52 154.18 1053.78 153.836L1054.66 154.523C1053.96 155.612 1052.89 156.156 1051.48 156.156ZM1051.3 148.578C1050.71 148.578 1050.22 148.792 1049.83 149.219C1049.43 149.641 1049.19 150.234 1049.09 151H1053.33V150.891C1053.29 150.156 1053.09 149.589 1052.73 149.188C1052.38 148.781 1051.9 148.578 1051.3 148.578ZM1059.02 156H1057.58V144H1059.02V156ZM1061.96 151.695C1061.96 150.867 1062.12 150.122 1062.45 149.461C1062.77 148.799 1063.23 148.289 1063.8 147.93C1064.39 147.57 1065.05 147.391 1065.8 147.391C1066.95 147.391 1067.88 147.789 1068.59 148.586C1069.3 149.383 1069.66 150.443 1069.66 151.766V151.867C1069.66 152.69 1069.5 153.43 1069.18 154.086C1068.87 154.737 1068.42 155.245 1067.83 155.609C1067.24 155.974 1066.57 156.156 1065.81 156.156C1064.67 156.156 1063.74 155.758 1063.02 154.961C1062.32 154.164 1061.96 153.109 1061.96 151.797V151.695ZM1063.41 151.867C1063.41 152.805 1063.63 153.557 1064.06 154.125C1064.5 154.693 1065.08 154.977 1065.81 154.977C1066.55 154.977 1067.13 154.69 1067.56 154.117C1067.99 153.539 1068.21 152.732 1068.21 151.695C1068.21 150.768 1067.99 150.018 1067.55 149.445C1067.11 148.867 1066.53 148.578 1065.8 148.578C1065.08 148.578 1064.51 148.862 1064.07 149.43C1063.63 149.997 1063.41 150.81 1063.41 151.867ZM1079.61 151.867C1079.61 153.154 1079.32 154.19 1078.73 154.977C1078.14 155.763 1077.34 156.156 1076.34 156.156C1075.31 156.156 1074.5 155.831 1073.91 155.18V159.25H1072.47V147.547H1073.79L1073.86 148.484C1074.45 147.755 1075.27 147.391 1076.31 147.391C1077.33 147.391 1078.13 147.773 1078.72 148.539C1079.31 149.305 1079.61 150.37 1079.61 151.734V151.867ZM1078.16 151.703C1078.16 150.75 1077.96 149.997 1077.55 149.445C1077.15 148.893 1076.59 148.617 1075.88 148.617C1075.01 148.617 1074.35 149.005 1073.91 149.781V153.82C1074.35 154.591 1075.01 154.977 1075.9 154.977C1076.59 154.977 1077.14 154.703 1077.55 154.156C1077.96 153.604 1078.16 152.786 1078.16 151.703ZM1083.81 147.547L1083.85 148.484C1084.47 147.755 1085.31 147.391 1086.36 147.391C1087.54 147.391 1088.35 147.844 1088.77 148.75C1089.05 148.344 1089.42 148.016 1089.87 147.766C1090.32 147.516 1090.85 147.391 1091.47 147.391C1093.32 147.391 1094.27 148.372 1094.3 150.336V156H1092.85V150.422C1092.85 149.818 1092.71 149.367 1092.44 149.07C1092.16 148.768 1091.7 148.617 1091.05 148.617C1090.51 148.617 1090.07 148.779 1089.71 149.102C1089.36 149.419 1089.15 149.849 1089.09 150.391V156H1087.64V150.461C1087.64 149.232 1087.04 148.617 1085.84 148.617C1084.89 148.617 1084.24 149.021 1083.89 149.828V156H1082.45V147.547H1083.81ZM1100.99 156.156C1099.85 156.156 1098.91 155.781 1098.2 155.031C1097.48 154.276 1097.12 153.268 1097.12 152.008V151.742C1097.12 150.904 1097.28 150.156 1097.59 149.5C1097.92 148.839 1098.36 148.323 1098.94 147.953C1099.52 147.578 1100.14 147.391 1100.81 147.391C1101.91 147.391 1102.77 147.753 1103.38 148.477C1103.98 149.201 1104.29 150.237 1104.29 151.586V152.188H1098.56C1098.58 153.021 1098.83 153.695 1099.29 154.211C1099.76 154.721 1100.35 154.977 1101.07 154.977C1101.58 154.977 1102.01 154.872 1102.37 154.664C1102.72 154.456 1103.03 154.18 1103.3 153.836L1104.18 154.523C1103.47 155.612 1102.41 156.156 1100.99 156.156ZM1100.81 148.578C1100.23 148.578 1099.74 148.792 1099.34 149.219C1098.95 149.641 1098.7 150.234 1098.61 151H1102.84V150.891C1102.8 150.156 1102.6 149.589 1102.25 149.188C1101.9 148.781 1101.42 148.578 1100.81 148.578ZM1108.34 147.547L1108.38 148.609C1109.03 147.797 1109.87 147.391 1110.91 147.391C1112.7 147.391 1113.6 148.398 1113.62 150.414V156H1112.17V150.406C1112.17 149.797 1112.03 149.346 1111.75 149.055C1111.48 148.763 1111.05 148.617 1110.48 148.617C1110.01 148.617 1109.6 148.742 1109.24 148.992C1108.89 149.242 1108.61 149.57 1108.41 149.977V156H1106.97V147.547H1108.34ZM1118.76 145.5V147.547H1120.34V148.664H1118.76V153.906C1118.76 154.245 1118.83 154.5 1118.97 154.672C1119.11 154.839 1119.35 154.922 1119.69 154.922C1119.85 154.922 1120.08 154.891 1120.38 154.828V156C1119.99 156.104 1119.62 156.156 1119.27 156.156C1118.62 156.156 1118.13 155.961 1117.8 155.57C1117.48 155.18 1117.31 154.625 1117.31 153.906V148.664H1115.77V147.547H1117.31V145.5H1118.76Z" fill="#1A1C1E"/>
<rect x="530" y="131" width="40" height="40" rx="20" fill="#AD6DA9"/>
<rect x="887" y="131" width="40" height="40" rx="20" fill="#E292DD"/>
<path d="M1433.5 151C1433.5 134.708 1446.71 121.5 1463 121.5H1588C1604.29 121.5 1617.5 134.708 1617.5 151C1617.5 167.292 1604.29 180.5 1588 180.5H1463C1446.71 180.5 1433.5 167.292 1433.5 151Z" fill="#FCFCFC" stroke="#F67A7A"/>
<path d="M1500.59 150.977H1495.82V156H1494.32V144.625H1501.37V145.859H1495.82V149.75H1500.59V150.977ZM1505.51 156H1504.06V147.547H1505.51V156ZM1503.95 145.305C1503.95 145.07 1504.02 144.872 1504.16 144.711C1504.3 144.549 1504.52 144.469 1504.8 144.469C1505.08 144.469 1505.29 144.549 1505.44 144.711C1505.58 144.872 1505.66 145.07 1505.66 145.305C1505.66 145.539 1505.58 145.734 1505.44 145.891C1505.29 146.047 1505.08 146.125 1504.8 146.125C1504.52 146.125 1504.3 146.047 1504.16 145.891C1504.02 145.734 1503.95 145.539 1503.95 145.305ZM1510.2 147.547L1510.24 148.609C1510.89 147.797 1511.73 147.391 1512.77 147.391C1514.56 147.391 1515.46 148.398 1515.48 150.414V156H1514.03V150.406C1514.03 149.797 1513.89 149.346 1513.61 149.055C1513.34 148.763 1512.91 148.617 1512.34 148.617C1511.87 148.617 1511.46 148.742 1511.1 148.992C1510.75 149.242 1510.47 149.57 1510.27 149.977V156H1508.83V147.547H1510.2ZM1523.88 156C1523.79 155.833 1523.72 155.536 1523.67 155.109C1523 155.807 1522.2 156.156 1521.27 156.156C1520.43 156.156 1519.75 155.922 1519.21 155.453C1518.68 154.979 1518.41 154.38 1518.41 153.656C1518.41 152.776 1518.75 152.094 1519.41 151.609C1520.09 151.12 1521.03 150.875 1522.24 150.875H1523.65V150.211C1523.65 149.706 1523.5 149.305 1523.2 149.008C1522.89 148.706 1522.45 148.555 1521.86 148.555C1521.34 148.555 1520.91 148.685 1520.56 148.945C1520.21 149.206 1520.04 149.521 1520.04 149.891H1518.59C1518.59 149.469 1518.73 149.062 1519.03 148.672C1519.33 148.276 1519.74 147.964 1520.25 147.734C1520.77 147.505 1521.33 147.391 1521.95 147.391C1522.92 147.391 1523.68 147.635 1524.23 148.125C1524.79 148.609 1525.07 149.279 1525.09 150.133V154.023C1525.09 154.799 1525.19 155.417 1525.39 155.875V156H1523.88ZM1521.48 154.898C1521.93 154.898 1522.36 154.781 1522.77 154.547C1523.17 154.312 1523.47 154.008 1523.65 153.633V151.898H1522.52C1520.74 151.898 1519.86 152.417 1519.86 153.453C1519.86 153.906 1520.01 154.26 1520.31 154.516C1520.61 154.771 1521 154.898 1521.48 154.898ZM1529.93 156H1528.48V144H1529.93V156ZM1540.18 145.5V147.547H1541.76V148.664H1540.18V153.906C1540.18 154.245 1540.25 154.5 1540.39 154.672C1540.53 154.839 1540.77 154.922 1541.11 154.922C1541.28 154.922 1541.51 154.891 1541.8 154.828V156C1541.42 156.104 1541.05 156.156 1540.69 156.156C1540.04 156.156 1539.55 155.961 1539.23 155.57C1538.9 155.18 1538.73 154.625 1538.73 153.906V148.664H1537.2V147.547H1538.73V145.5H1540.18ZM1547.96 156.156C1546.82 156.156 1545.88 155.781 1545.16 155.031C1544.45 154.276 1544.09 153.268 1544.09 152.008V151.742C1544.09 150.904 1544.24 150.156 1544.56 149.5C1544.89 148.839 1545.33 148.323 1545.91 147.953C1546.48 147.578 1547.11 147.391 1547.78 147.391C1548.88 147.391 1549.73 147.753 1550.34 148.477C1550.95 149.201 1551.26 150.237 1551.26 151.586V152.188H1545.53C1545.55 153.021 1545.79 153.695 1546.26 154.211C1546.73 154.721 1547.32 154.977 1548.04 154.977C1548.55 154.977 1548.98 154.872 1549.34 154.664C1549.69 154.456 1550 154.18 1550.27 153.836L1551.15 154.523C1550.44 155.612 1549.38 156.156 1547.96 156.156ZM1547.78 148.578C1547.2 148.578 1546.71 148.792 1546.31 149.219C1545.92 149.641 1545.67 150.234 1545.58 151H1549.81V150.891C1549.77 150.156 1549.57 149.589 1549.22 149.188C1548.86 148.781 1548.39 148.578 1547.78 148.578ZM1558.86 153.758C1558.86 153.367 1558.71 153.065 1558.41 152.852C1558.12 152.633 1557.61 152.445 1556.88 152.289C1556.15 152.133 1555.57 151.945 1555.13 151.727C1554.71 151.508 1554.39 151.247 1554.18 150.945C1553.98 150.643 1553.88 150.284 1553.88 149.867C1553.88 149.174 1554.17 148.589 1554.75 148.109C1555.34 147.63 1556.09 147.391 1557 147.391C1557.96 147.391 1558.73 147.638 1559.33 148.133C1559.93 148.628 1560.23 149.26 1560.23 150.031H1558.77C1558.77 149.635 1558.6 149.294 1558.27 149.008C1557.93 148.721 1557.51 148.578 1557 148.578C1556.47 148.578 1556.06 148.693 1555.77 148.922C1555.47 149.151 1555.32 149.451 1555.32 149.82C1555.32 150.169 1555.46 150.432 1555.73 150.609C1556.01 150.786 1556.51 150.956 1557.23 151.117C1557.95 151.279 1558.54 151.471 1558.98 151.695C1559.43 151.919 1559.76 152.19 1559.98 152.508C1560.2 152.82 1560.3 153.203 1560.3 153.656C1560.3 154.411 1560 155.018 1559.4 155.477C1558.79 155.93 1558.01 156.156 1557.05 156.156C1556.37 156.156 1555.77 156.036 1555.25 155.797C1554.73 155.557 1554.32 155.224 1554.02 154.797C1553.73 154.365 1553.59 153.898 1553.59 153.398H1555.03C1555.06 153.883 1555.25 154.268 1555.61 154.555C1555.97 154.836 1556.45 154.977 1557.05 154.977C1557.59 154.977 1558.03 154.867 1558.36 154.648C1558.69 154.424 1558.86 154.128 1558.86 153.758ZM1565.15 145.5V147.547H1566.73V148.664H1565.15V153.906C1565.15 154.245 1565.22 154.5 1565.36 154.672C1565.5 154.839 1565.74 154.922 1566.08 154.922C1566.24 154.922 1566.47 154.891 1566.77 154.828V156C1566.39 156.104 1566.02 156.156 1565.66 156.156C1565.01 156.156 1564.52 155.961 1564.2 155.57C1563.87 155.18 1563.7 154.625 1563.7 153.906V148.664H1562.16V147.547H1563.7V145.5H1565.15ZM1570.99 156H1569.55V147.547H1570.99V156ZM1569.43 145.305C1569.43 145.07 1569.5 144.872 1569.64 144.711C1569.79 144.549 1570 144.469 1570.28 144.469C1570.56 144.469 1570.78 144.549 1570.92 144.711C1571.07 144.872 1571.14 145.07 1571.14 145.305C1571.14 145.539 1571.07 145.734 1570.92 145.891C1570.78 146.047 1570.56 146.125 1570.28 146.125C1570 146.125 1569.79 146.047 1569.64 145.891C1569.5 145.734 1569.43 145.539 1569.43 145.305ZM1575.68 147.547L1575.73 148.609C1576.37 147.797 1577.22 147.391 1578.26 147.391C1580.04 147.391 1580.95 148.398 1580.96 150.414V156H1579.52V150.406C1579.51 149.797 1579.37 149.346 1579.09 149.055C1578.82 148.763 1578.4 148.617 1577.82 148.617C1577.35 148.617 1576.94 148.742 1576.59 148.992C1576.23 149.242 1575.96 149.57 1575.76 149.977V156H1574.31V147.547H1575.68ZM1583.8 151.703C1583.8 150.385 1584.1 149.339 1584.71 148.562C1585.32 147.781 1586.13 147.391 1587.13 147.391C1588.16 147.391 1588.97 147.755 1589.55 148.484L1589.62 147.547H1590.94V155.797C1590.94 156.891 1590.61 157.753 1589.96 158.383C1589.32 159.013 1588.45 159.328 1587.35 159.328C1586.74 159.328 1586.15 159.198 1585.56 158.938C1584.98 158.677 1584.53 158.32 1584.23 157.867L1584.98 157C1585.6 157.766 1586.35 158.148 1587.25 158.148C1587.95 158.148 1588.5 157.951 1588.89 157.555C1589.29 157.159 1589.48 156.602 1589.48 155.883V155.156C1588.91 155.823 1588.12 156.156 1587.12 156.156C1586.13 156.156 1585.33 155.758 1584.71 154.961C1584.1 154.164 1583.8 153.078 1583.8 151.703ZM1585.25 151.867C1585.25 152.82 1585.45 153.57 1585.84 154.117C1586.23 154.659 1586.77 154.93 1587.48 154.93C1588.39 154.93 1589.06 154.516 1589.48 153.688V149.828C1589.04 149.021 1588.38 148.617 1587.49 148.617C1586.79 148.617 1586.24 148.891 1585.84 149.438C1585.45 149.984 1585.25 150.794 1585.25 151.867Z" fill="#1A1C1E"/>
<rect x="1443" y="131" width="40" height="40" rx="20" fill="#F67A7A"/>
<path d="M1581.5 241C1581.5 224.708 1594.71 211.5 1611 211.5H1690C1706.29 211.5 1719.5 224.708 1719.5 241C1719.5 257.292 1706.29 270.5 1690 270.5H1611C1594.71 270.5 1581.5 257.292 1581.5 241Z" fill="#FCFCFC" stroke="#F67A7A"/>
<path d="M1642.32 246V234.625H1645.53C1646.52 234.625 1647.4 234.844 1648.16 235.281C1648.92 235.719 1649.5 236.341 1649.91 237.148C1650.33 237.956 1650.54 238.883 1650.55 239.93V240.656C1650.55 241.729 1650.34 242.669 1649.92 243.477C1649.51 244.284 1648.92 244.904 1648.15 245.336C1647.38 245.768 1646.49 245.99 1645.47 246H1642.32ZM1643.82 235.859V244.773H1645.4C1646.55 244.773 1647.45 244.414 1648.09 243.695C1648.74 242.977 1649.06 241.953 1649.06 240.625V239.961C1649.06 238.669 1648.76 237.667 1648.15 236.953C1647.54 236.234 1646.68 235.87 1645.57 235.859H1643.82ZM1657.1 246.156C1655.96 246.156 1655.02 245.781 1654.3 245.031C1653.59 244.276 1653.23 243.268 1653.23 242.008V241.742C1653.23 240.904 1653.39 240.156 1653.7 239.5C1654.03 238.839 1654.47 238.323 1655.05 237.953C1655.62 237.578 1656.25 237.391 1656.92 237.391C1658.02 237.391 1658.88 237.753 1659.48 238.477C1660.09 239.201 1660.4 240.237 1660.4 241.586V242.188H1654.67C1654.69 243.021 1654.93 243.695 1655.4 244.211C1655.87 244.721 1656.46 244.977 1657.18 244.977C1657.69 244.977 1658.12 244.872 1658.48 244.664C1658.83 244.456 1659.14 244.18 1659.41 243.836L1660.29 244.523C1659.58 245.612 1658.52 246.156 1657.1 246.156ZM1656.92 238.578C1656.34 238.578 1655.85 238.792 1655.45 239.219C1655.06 239.641 1654.81 240.234 1654.72 241H1658.95V240.891C1658.91 240.156 1658.71 239.589 1658.36 239.188C1658.01 238.781 1657.53 238.578 1656.92 238.578ZM1670.22 241.867C1670.22 243.154 1669.92 244.19 1669.34 244.977C1668.75 245.763 1667.95 246.156 1666.95 246.156C1665.92 246.156 1665.11 245.831 1664.52 245.18V249.25H1663.08V237.547H1664.4L1664.47 238.484C1665.06 237.755 1665.88 237.391 1666.92 237.391C1667.94 237.391 1668.74 237.773 1669.33 238.539C1669.92 239.305 1670.22 240.37 1670.22 241.734V241.867ZM1668.77 241.703C1668.77 240.75 1668.57 239.997 1668.16 239.445C1667.76 238.893 1667.2 238.617 1666.49 238.617C1665.62 238.617 1664.96 239.005 1664.52 239.781V243.82C1664.96 244.591 1665.62 244.977 1666.51 244.977C1667.2 244.977 1667.75 244.703 1668.16 244.156C1668.57 243.604 1668.77 242.786 1668.77 241.703ZM1674.63 246H1673.19V234H1674.63V246ZM1677.57 241.695C1677.57 240.867 1677.73 240.122 1678.05 239.461C1678.38 238.799 1678.84 238.289 1679.41 237.93C1680 237.57 1680.66 237.391 1681.41 237.391C1682.56 237.391 1683.49 237.789 1684.2 238.586C1684.91 239.383 1685.27 240.443 1685.27 241.766V241.867C1685.27 242.69 1685.11 243.43 1684.79 244.086C1684.48 244.737 1684.03 245.245 1683.44 245.609C1682.85 245.974 1682.18 246.156 1681.42 246.156C1680.28 246.156 1679.35 245.758 1678.63 244.961C1677.92 244.164 1677.57 243.109 1677.57 241.797V241.695ZM1679.02 241.867C1679.02 242.805 1679.24 243.557 1679.67 244.125C1680.11 244.693 1680.69 244.977 1681.42 244.977C1682.16 244.977 1682.74 244.69 1683.17 244.117C1683.6 243.539 1683.82 242.732 1683.82 241.695C1683.82 240.768 1683.6 240.018 1683.16 239.445C1682.72 238.867 1682.14 238.578 1681.41 238.578C1680.69 238.578 1680.12 238.862 1679.68 239.43C1679.24 239.997 1679.02 240.81 1679.02 241.867ZM1690.72 243.883L1692.69 237.547H1694.23L1690.84 247.305C1690.31 248.711 1689.47 249.414 1688.33 249.414L1688.05 249.391L1687.52 249.289V248.117L1687.91 248.148C1688.4 248.148 1688.78 248.049 1689.05 247.852C1689.32 247.654 1689.55 247.292 1689.73 246.766L1690.05 245.906L1687.03 237.547H1688.61L1690.72 243.883Z" fill="#1A1C1E"/>
<rect x="1591" y="221" width="40" height="40" rx="20" fill="#FF5353"/>
</svg>
