<svg width="1293" height="441" viewBox="0 0 1293 441" fill="none" xmlns="http://www.w3.org/2000/svg">
<path d="M104.195 32.9375L109.773 46.8594L115.352 32.9375H118.27V50H116.02V43.3555L116.23 36.1836L110.629 50H108.906L103.316 36.2188L103.539 43.3555V50H101.289V32.9375H104.195ZM121.328 43.543C121.328 42.3008 121.57 41.1836 122.055 40.1914C122.547 39.1992 123.227 38.4336 124.094 37.8945C124.969 37.3555 125.965 37.0859 127.082 37.0859C128.809 37.0859 130.203 37.6836 131.266 38.8789C132.336 40.0742 132.871 41.6641 132.871 43.6484V43.8008C132.871 45.0352 132.633 46.1445 132.156 47.1289C131.688 48.1055 131.012 48.8672 130.129 49.4141C129.254 49.9609 128.246 50.2344 127.105 50.2344C125.387 50.2344 123.992 49.6367 122.922 48.4414C121.859 47.2461 121.328 45.6641 121.328 43.6953V43.543ZM123.508 43.8008C123.508 45.207 123.832 46.3359 124.48 47.1875C125.137 48.0391 126.012 48.4648 127.105 48.4648C128.207 48.4648 129.082 48.0352 129.73 47.1758C130.379 46.3086 130.703 45.0977 130.703 43.543C130.703 42.1523 130.371 41.0273 129.707 40.168C129.051 39.3008 128.176 38.8672 127.082 38.8672C126.012 38.8672 125.148 39.293 124.492 40.1445C123.836 40.9961 123.508 42.2148 123.508 43.8008ZM137.641 37.3203L137.711 38.9141C138.68 37.6953 139.945 37.0859 141.508 37.0859C144.188 37.0859 145.539 38.5977 145.562 41.6211V50H143.395V41.6094C143.387 40.6953 143.176 40.0195 142.762 39.582C142.355 39.1445 141.719 38.9258 140.852 38.9258C140.148 38.9258 139.531 39.1133 139 39.4883C138.469 39.8633 138.055 40.3555 137.758 40.9648V50H135.59V37.3203H137.641ZM151.773 34.25V37.3203H154.141V38.9961H151.773V46.8594C151.773 47.3672 151.879 47.75 152.09 48.0078C152.301 48.2578 152.66 48.3828 153.168 48.3828C153.418 48.3828 153.762 48.3359 154.199 48.2422V50C153.629 50.1562 153.074 50.2344 152.535 50.2344C151.566 50.2344 150.836 49.9414 150.344 49.3555C149.852 48.7695 149.605 47.9375 149.605 46.8594V38.9961H147.297V37.3203H149.605V34.25H151.773ZM158.852 38.8555C159.812 37.6758 161.062 37.0859 162.602 37.0859C165.281 37.0859 166.633 38.5977 166.656 41.6211V50H164.488V41.6094C164.48 40.6953 164.27 40.0195 163.855 39.582C163.449 39.1445 162.812 38.9258 161.945 38.9258C161.242 38.9258 160.625 39.1133 160.094 39.4883C159.562 39.8633 159.148 40.3555 158.852 40.9648V50H156.684V32H158.852V38.8555ZM182.758 50H180.578V35.5508L176.207 37.1562V35.1875L182.418 32.8555H182.758V50Z" fill="#E0E0E0"/>
<path d="M303.195 32.9375L308.773 46.8594L314.352 32.9375H317.27V50H315.02V43.3555L315.23 36.1836L309.629 50H307.906L302.316 36.2188L302.539 43.3555V50H300.289V32.9375H303.195ZM320.328 43.543C320.328 42.3008 320.57 41.1836 321.055 40.1914C321.547 39.1992 322.227 38.4336 323.094 37.8945C323.969 37.3555 324.965 37.0859 326.082 37.0859C327.809 37.0859 329.203 37.6836 330.266 38.8789C331.336 40.0742 331.871 41.6641 331.871 43.6484V43.8008C331.871 45.0352 331.633 46.1445 331.156 47.1289C330.688 48.1055 330.012 48.8672 329.129 49.4141C328.254 49.9609 327.246 50.2344 326.105 50.2344C324.387 50.2344 322.992 49.6367 321.922 48.4414C320.859 47.2461 320.328 45.6641 320.328 43.6953V43.543ZM322.508 43.8008C322.508 45.207 322.832 46.3359 323.48 47.1875C324.137 48.0391 325.012 48.4648 326.105 48.4648C327.207 48.4648 328.082 48.0352 328.73 47.1758C329.379 46.3086 329.703 45.0977 329.703 43.543C329.703 42.1523 329.371 41.0273 328.707 40.168C328.051 39.3008 327.176 38.8672 326.082 38.8672C325.012 38.8672 324.148 39.293 323.492 40.1445C322.836 40.9961 322.508 42.2148 322.508 43.8008ZM336.641 37.3203L336.711 38.9141C337.68 37.6953 338.945 37.0859 340.508 37.0859C343.188 37.0859 344.539 38.5977 344.562 41.6211V50H342.395V41.6094C342.387 40.6953 342.176 40.0195 341.762 39.582C341.355 39.1445 340.719 38.9258 339.852 38.9258C339.148 38.9258 338.531 39.1133 338 39.4883C337.469 39.8633 337.055 40.3555 336.758 40.9648V50H334.59V37.3203H336.641ZM350.773 34.25V37.3203H353.141V38.9961H350.773V46.8594C350.773 47.3672 350.879 47.75 351.09 48.0078C351.301 48.2578 351.66 48.3828 352.168 48.3828C352.418 48.3828 352.762 48.3359 353.199 48.2422V50C352.629 50.1562 352.074 50.2344 351.535 50.2344C350.566 50.2344 349.836 49.9414 349.344 49.3555C348.852 48.7695 348.605 47.9375 348.605 46.8594V38.9961H346.297V37.3203H348.605V34.25H350.773ZM357.852 38.8555C358.812 37.6758 360.062 37.0859 361.602 37.0859C364.281 37.0859 365.633 38.5977 365.656 41.6211V50H363.488V41.6094C363.48 40.6953 363.27 40.0195 362.855 39.582C362.449 39.1445 361.812 38.9258 360.945 38.9258C360.242 38.9258 359.625 39.1133 359.094 39.4883C358.562 39.8633 358.148 40.3555 357.852 40.9648V50H355.684V32H357.852V38.8555ZM385.812 50H374.633V48.4414L380.539 41.8789C381.414 40.8867 382.016 40.082 382.344 39.4648C382.68 38.8398 382.848 38.1953 382.848 37.5312C382.848 36.6406 382.578 35.9102 382.039 35.3398C381.5 34.7695 380.781 34.4844 379.883 34.4844C378.805 34.4844 377.965 34.793 377.363 35.4102C376.77 36.0195 376.473 36.8711 376.473 37.9648H374.305C374.305 36.3945 374.809 35.125 375.816 34.1562C376.832 33.1875 378.188 32.7031 379.883 32.7031C381.469 32.7031 382.723 33.1211 383.645 33.957C384.566 34.7852 385.027 35.8906 385.027 37.2734C385.027 38.9531 383.957 40.9531 381.816 43.2734L377.246 48.2305H385.812V50Z" fill="#E0E0E0"/>
<path d="M499.195 32.9375L504.773 46.8594L510.352 32.9375H513.27V50H511.02V43.3555L511.23 36.1836L505.629 50H503.906L498.316 36.2188L498.539 43.3555V50H496.289V32.9375H499.195ZM516.328 43.543C516.328 42.3008 516.57 41.1836 517.055 40.1914C517.547 39.1992 518.227 38.4336 519.094 37.8945C519.969 37.3555 520.965 37.0859 522.082 37.0859C523.809 37.0859 525.203 37.6836 526.266 38.8789C527.336 40.0742 527.871 41.6641 527.871 43.6484V43.8008C527.871 45.0352 527.633 46.1445 527.156 47.1289C526.688 48.1055 526.012 48.8672 525.129 49.4141C524.254 49.9609 523.246 50.2344 522.105 50.2344C520.387 50.2344 518.992 49.6367 517.922 48.4414C516.859 47.2461 516.328 45.6641 516.328 43.6953V43.543ZM518.508 43.8008C518.508 45.207 518.832 46.3359 519.48 47.1875C520.137 48.0391 521.012 48.4648 522.105 48.4648C523.207 48.4648 524.082 48.0352 524.73 47.1758C525.379 46.3086 525.703 45.0977 525.703 43.543C525.703 42.1523 525.371 41.0273 524.707 40.168C524.051 39.3008 523.176 38.8672 522.082 38.8672C521.012 38.8672 520.148 39.293 519.492 40.1445C518.836 40.9961 518.508 42.2148 518.508 43.8008ZM532.641 37.3203L532.711 38.9141C533.68 37.6953 534.945 37.0859 536.508 37.0859C539.188 37.0859 540.539 38.5977 540.562 41.6211V50H538.395V41.6094C538.387 40.6953 538.176 40.0195 537.762 39.582C537.355 39.1445 536.719 38.9258 535.852 38.9258C535.148 38.9258 534.531 39.1133 534 39.4883C533.469 39.8633 533.055 40.3555 532.758 40.9648V50H530.59V37.3203H532.641ZM546.773 34.25V37.3203H549.141V38.9961H546.773V46.8594C546.773 47.3672 546.879 47.75 547.09 48.0078C547.301 48.2578 547.66 48.3828 548.168 48.3828C548.418 48.3828 548.762 48.3359 549.199 48.2422V50C548.629 50.1562 548.074 50.2344 547.535 50.2344C546.566 50.2344 545.836 49.9414 545.344 49.3555C544.852 48.7695 544.605 47.9375 544.605 46.8594V38.9961H542.297V37.3203H544.605V34.25H546.773ZM553.852 38.8555C554.812 37.6758 556.062 37.0859 557.602 37.0859C560.281 37.0859 561.633 38.5977 561.656 41.6211V50H559.488V41.6094C559.48 40.6953 559.27 40.0195 558.855 39.582C558.449 39.1445 557.812 38.9258 556.945 38.9258C556.242 38.9258 555.625 39.1133 555.094 39.4883C554.562 39.8633 554.148 40.3555 553.852 40.9648V50H551.684V32H553.852V38.8555ZM573.785 40.4141H575.414C576.438 40.3984 577.242 40.1289 577.828 39.6055C578.414 39.082 578.707 38.375 578.707 37.4844C578.707 35.4844 577.711 34.4844 575.719 34.4844C574.781 34.4844 574.031 34.7539 573.469 35.293C572.914 35.8242 572.637 36.5312 572.637 37.4141H570.469C570.469 36.0625 570.961 34.9414 571.945 34.0508C572.938 33.1523 574.195 32.7031 575.719 32.7031C577.328 32.7031 578.59 33.1289 579.504 33.9805C580.418 34.832 580.875 36.0156 580.875 37.5312C580.875 38.2734 580.633 38.9922 580.148 39.6875C579.672 40.3828 579.02 40.9023 578.191 41.2461C579.129 41.543 579.852 42.0352 580.359 42.7227C580.875 43.4102 581.133 44.25 581.133 45.2422C581.133 46.7734 580.633 47.9883 579.633 48.8867C578.633 49.7852 577.332 50.2344 575.73 50.2344C574.129 50.2344 572.824 49.8008 571.816 48.9336C570.816 48.0664 570.316 46.9219 570.316 45.5H572.496C572.496 46.3984 572.789 47.1172 573.375 47.6562C573.961 48.1953 574.746 48.4648 575.73 48.4648C576.777 48.4648 577.578 48.1914 578.133 47.6445C578.688 47.0977 578.965 46.3125 578.965 45.2891C578.965 44.2969 578.66 43.5352 578.051 43.0039C577.441 42.4727 576.562 42.1992 575.414 42.1836H573.785V40.4141Z" fill="#E0E0E0"/>
<path d="M692.195 32.9375L697.773 46.8594L703.352 32.9375H706.27V50H704.02V43.3555L704.23 36.1836L698.629 50H696.906L691.316 36.2188L691.539 43.3555V50H689.289V32.9375H692.195ZM709.328 43.543C709.328 42.3008 709.57 41.1836 710.055 40.1914C710.547 39.1992 711.227 38.4336 712.094 37.8945C712.969 37.3555 713.965 37.0859 715.082 37.0859C716.809 37.0859 718.203 37.6836 719.266 38.8789C720.336 40.0742 720.871 41.6641 720.871 43.6484V43.8008C720.871 45.0352 720.633 46.1445 720.156 47.1289C719.688 48.1055 719.012 48.8672 718.129 49.4141C717.254 49.9609 716.246 50.2344 715.105 50.2344C713.387 50.2344 711.992 49.6367 710.922 48.4414C709.859 47.2461 709.328 45.6641 709.328 43.6953V43.543ZM711.508 43.8008C711.508 45.207 711.832 46.3359 712.48 47.1875C713.137 48.0391 714.012 48.4648 715.105 48.4648C716.207 48.4648 717.082 48.0352 717.73 47.1758C718.379 46.3086 718.703 45.0977 718.703 43.543C718.703 42.1523 718.371 41.0273 717.707 40.168C717.051 39.3008 716.176 38.8672 715.082 38.8672C714.012 38.8672 713.148 39.293 712.492 40.1445C711.836 40.9961 711.508 42.2148 711.508 43.8008ZM725.641 37.3203L725.711 38.9141C726.68 37.6953 727.945 37.0859 729.508 37.0859C732.188 37.0859 733.539 38.5977 733.562 41.6211V50H731.395V41.6094C731.387 40.6953 731.176 40.0195 730.762 39.582C730.355 39.1445 729.719 38.9258 728.852 38.9258C728.148 38.9258 727.531 39.1133 727 39.4883C726.469 39.8633 726.055 40.3555 725.758 40.9648V50H723.59V37.3203H725.641ZM739.773 34.25V37.3203H742.141V38.9961H739.773V46.8594C739.773 47.3672 739.879 47.75 740.09 48.0078C740.301 48.2578 740.66 48.3828 741.168 48.3828C741.418 48.3828 741.762 48.3359 742.199 48.2422V50C741.629 50.1562 741.074 50.2344 740.535 50.2344C739.566 50.2344 738.836 49.9414 738.344 49.3555C737.852 48.7695 737.605 47.9375 737.605 46.8594V38.9961H735.297V37.3203H737.605V34.25H739.773ZM746.852 38.8555C747.812 37.6758 749.062 37.0859 750.602 37.0859C753.281 37.0859 754.633 38.5977 754.656 41.6211V50H752.488V41.6094C752.48 40.6953 752.27 40.0195 751.855 39.582C751.449 39.1445 750.812 38.9258 749.945 38.9258C749.242 38.9258 748.625 39.1133 748.094 39.4883C747.562 39.8633 747.148 40.3555 746.852 40.9648V50H744.684V32H746.852V38.8555ZM772.785 44.2695H775.152V46.0391H772.785V50H770.605V46.0391H762.836V44.7617L770.477 32.9375H772.785V44.2695ZM765.297 44.2695H770.605V35.9023L770.348 36.3711L765.297 44.2695Z" fill="#E0E0E0"/>
<path d="M912.695 32.9375L918.273 46.8594L923.852 32.9375H926.77V50H924.52V43.3555L924.73 36.1836L919.129 50H917.406L911.816 36.2188L912.039 43.3555V50H909.789V32.9375H912.695ZM929.828 43.543C929.828 42.3008 930.07 41.1836 930.555 40.1914C931.047 39.1992 931.727 38.4336 932.594 37.8945C933.469 37.3555 934.465 37.0859 935.582 37.0859C937.309 37.0859 938.703 37.6836 939.766 38.8789C940.836 40.0742 941.371 41.6641 941.371 43.6484V43.8008C941.371 45.0352 941.133 46.1445 940.656 47.1289C940.188 48.1055 939.512 48.8672 938.629 49.4141C937.754 49.9609 936.746 50.2344 935.605 50.2344C933.887 50.2344 932.492 49.6367 931.422 48.4414C930.359 47.2461 929.828 45.6641 929.828 43.6953V43.543ZM932.008 43.8008C932.008 45.207 932.332 46.3359 932.98 47.1875C933.637 48.0391 934.512 48.4648 935.605 48.4648C936.707 48.4648 937.582 48.0352 938.23 47.1758C938.879 46.3086 939.203 45.0977 939.203 43.543C939.203 42.1523 938.871 41.0273 938.207 40.168C937.551 39.3008 936.676 38.8672 935.582 38.8672C934.512 38.8672 933.648 39.293 932.992 40.1445C932.336 40.9961 932.008 42.2148 932.008 43.8008ZM946.141 37.3203L946.211 38.9141C947.18 37.6953 948.445 37.0859 950.008 37.0859C952.688 37.0859 954.039 38.5977 954.062 41.6211V50H951.895V41.6094C951.887 40.6953 951.676 40.0195 951.262 39.582C950.855 39.1445 950.219 38.9258 949.352 38.9258C948.648 38.9258 948.031 39.1133 947.5 39.4883C946.969 39.8633 946.555 40.3555 946.258 40.9648V50H944.09V37.3203H946.141ZM960.273 34.25V37.3203H962.641V38.9961H960.273V46.8594C960.273 47.3672 960.379 47.75 960.59 48.0078C960.801 48.2578 961.16 48.3828 961.668 48.3828C961.918 48.3828 962.262 48.3359 962.699 48.2422V50C962.129 50.1562 961.574 50.2344 961.035 50.2344C960.066 50.2344 959.336 49.9414 958.844 49.3555C958.352 48.7695 958.105 47.9375 958.105 46.8594V38.9961H955.797V37.3203H958.105V34.25H960.273ZM967.352 38.8555C968.312 37.6758 969.562 37.0859 971.102 37.0859C973.781 37.0859 975.133 38.5977 975.156 41.6211V50H972.988V41.6094C972.98 40.6953 972.77 40.0195 972.355 39.582C971.949 39.1445 971.312 38.9258 970.445 38.9258C969.742 38.9258 969.125 39.1133 968.594 39.4883C968.062 39.8633 967.648 40.3555 967.352 40.9648V50H965.184V32H967.352V38.8555ZM985.129 41.4453L985.996 32.9375H994.738V34.9414H987.836L987.32 39.5938C988.156 39.1016 989.105 38.8555 990.168 38.8555C991.723 38.8555 992.957 39.3711 993.871 40.4023C994.785 41.4258 995.242 42.8125 995.242 44.5625C995.242 46.3203 994.766 47.707 993.812 48.7227C992.867 49.7305 991.543 50.2344 989.84 50.2344C988.332 50.2344 987.102 49.8164 986.148 48.9805C985.195 48.1445 984.652 46.9883 984.52 45.5117H986.57C986.703 46.4883 987.051 47.2266 987.613 47.7266C988.176 48.2188 988.918 48.4648 989.84 48.4648C990.848 48.4648 991.637 48.1211 992.207 47.4336C992.785 46.7461 993.074 45.7969 993.074 44.5859C993.074 43.4453 992.762 42.5312 992.137 41.8438C991.52 41.1484 990.695 40.8008 989.664 40.8008C988.719 40.8008 987.977 41.0078 987.438 41.4219L986.863 41.8906L985.129 41.4453Z" fill="#E0E0E0"/>
<path d="M1143.2 32.9375L1148.77 46.8594L1154.35 32.9375H1157.27V50H1155.02V43.3555L1155.23 36.1836L1149.63 50H1147.91L1142.32 36.2188L1142.54 43.3555V50H1140.29V32.9375H1143.2ZM1160.33 43.543C1160.33 42.3008 1160.57 41.1836 1161.05 40.1914C1161.55 39.1992 1162.23 38.4336 1163.09 37.8945C1163.97 37.3555 1164.96 37.0859 1166.08 37.0859C1167.81 37.0859 1169.2 37.6836 1170.27 38.8789C1171.34 40.0742 1171.87 41.6641 1171.87 43.6484V43.8008C1171.87 45.0352 1171.63 46.1445 1171.16 47.1289C1170.69 48.1055 1170.01 48.8672 1169.13 49.4141C1168.25 49.9609 1167.25 50.2344 1166.11 50.2344C1164.39 50.2344 1162.99 49.6367 1161.92 48.4414C1160.86 47.2461 1160.33 45.6641 1160.33 43.6953V43.543ZM1162.51 43.8008C1162.51 45.207 1162.83 46.3359 1163.48 47.1875C1164.14 48.0391 1165.01 48.4648 1166.11 48.4648C1167.21 48.4648 1168.08 48.0352 1168.73 47.1758C1169.38 46.3086 1169.7 45.0977 1169.7 43.543C1169.7 42.1523 1169.37 41.0273 1168.71 40.168C1168.05 39.3008 1167.18 38.8672 1166.08 38.8672C1165.01 38.8672 1164.15 39.293 1163.49 40.1445C1162.84 40.9961 1162.51 42.2148 1162.51 43.8008ZM1176.64 37.3203L1176.71 38.9141C1177.68 37.6953 1178.95 37.0859 1180.51 37.0859C1183.19 37.0859 1184.54 38.5977 1184.56 41.6211V50H1182.39V41.6094C1182.39 40.6953 1182.18 40.0195 1181.76 39.582C1181.36 39.1445 1180.72 38.9258 1179.85 38.9258C1179.15 38.9258 1178.53 39.1133 1178 39.4883C1177.47 39.8633 1177.05 40.3555 1176.76 40.9648V50H1174.59V37.3203H1176.64ZM1190.77 34.25V37.3203H1193.14V38.9961H1190.77V46.8594C1190.77 47.3672 1190.88 47.75 1191.09 48.0078C1191.3 48.2578 1191.66 48.3828 1192.17 48.3828C1192.42 48.3828 1192.76 48.3359 1193.2 48.2422V50C1192.63 50.1562 1192.07 50.2344 1191.54 50.2344C1190.57 50.2344 1189.84 49.9414 1189.34 49.3555C1188.85 48.7695 1188.61 47.9375 1188.61 46.8594V38.9961H1186.3V37.3203H1188.61V34.25H1190.77ZM1197.85 38.8555C1198.81 37.6758 1200.06 37.0859 1201.6 37.0859C1204.28 37.0859 1205.63 38.5977 1205.66 41.6211V50H1203.49V41.6094C1203.48 40.6953 1203.27 40.0195 1202.86 39.582C1202.45 39.1445 1201.81 38.9258 1200.95 38.9258C1200.24 38.9258 1199.62 39.1133 1199.09 39.4883C1198.56 39.8633 1198.15 40.3555 1197.85 40.9648V50H1195.68V32H1197.85V38.8555ZM1223.14 32.9258V34.7656H1222.74C1221.05 34.7969 1219.71 35.2969 1218.71 36.2656C1217.71 37.2344 1217.13 38.5977 1216.98 40.3555C1217.88 39.3242 1219.1 38.8086 1220.66 38.8086C1222.14 38.8086 1223.32 39.332 1224.21 40.3789C1225.1 41.4258 1225.54 42.7773 1225.54 44.4336C1225.54 46.1914 1225.06 47.5977 1224.1 48.6523C1223.15 49.707 1221.87 50.2344 1220.26 50.2344C1218.62 50.2344 1217.3 49.6094 1216.29 48.3594C1215.27 47.1016 1214.76 45.4844 1214.76 43.5078V42.6758C1214.76 39.5352 1215.43 37.1367 1216.77 35.4805C1218.11 33.8164 1220.11 32.9648 1222.75 32.9258H1223.14ZM1220.29 40.6133C1219.55 40.6133 1218.87 40.8359 1218.24 41.2812C1217.62 41.7266 1217.18 42.2852 1216.94 42.957V43.7539C1216.94 45.1602 1217.26 46.293 1217.89 47.1523C1218.52 48.0117 1219.31 48.4414 1220.26 48.4414C1221.23 48.4414 1222 48.082 1222.55 47.3633C1223.12 46.6445 1223.4 45.7031 1223.4 44.5391C1223.4 43.3672 1223.11 42.4219 1222.54 41.7031C1221.98 40.9766 1221.23 40.6133 1220.29 40.6133Z" fill="#E0E0E0"/>
<path d="M26 20L26 441" stroke="#E0E0E0" stroke-dasharray="20 20"/>
<path d="M434.5 16.5L434.5 437.5" stroke="#E0E0E0" stroke-dasharray="20 20"/>
<line x1="245.5" y1="20" x2="245.5" y2="441" stroke="#E0E0E0" stroke-dasharray="20 20"/>
<path d="M634.5 20L634.5 441" stroke="#E0E0E0" stroke-dasharray="20 20"/>
<path d="M829 20L829 441" stroke="#E0E0E0" stroke-dasharray="20 20"/>
<path d="M1071 16.5L1071 437.5" stroke="#E0E0E0" stroke-dasharray="20 20"/>
<line x1="1292.5" y1="20" x2="1292.5" y2="441" stroke="#E0E0E0" stroke-dasharray="20 20"/>
<path d="M64 141.5H163C179.292 141.5 192.5 154.708 192.5 171C192.5 187.292 179.292 200.5 163 200.5H64C47.7076 200.5 34.5 187.292 34.5 171C34.5 154.708 47.7076 141.5 64 141.5Z" fill="#FCFCFC" stroke="#2F80ED"/>
<path d="M99.4922 171.398H96.8203V176H95.3125V164.625H99.0781C100.359 164.625 101.344 164.917 102.031 165.5C102.724 166.083 103.07 166.932 103.07 168.047C103.07 168.755 102.878 169.372 102.492 169.898C102.112 170.424 101.581 170.818 100.898 171.078L103.57 175.906V176H101.961L99.4922 171.398ZM96.8203 170.172H99.125C99.8698 170.172 100.461 169.979 100.898 169.594C101.341 169.208 101.562 168.693 101.562 168.047C101.562 167.344 101.352 166.805 100.93 166.43C100.513 166.055 99.9089 165.865 99.1172 165.859H96.8203V170.172ZM109.461 176.156C108.315 176.156 107.383 175.781 106.664 175.031C105.945 174.276 105.586 173.268 105.586 172.008V171.742C105.586 170.904 105.745 170.156 106.062 169.5C106.385 168.839 106.833 168.323 107.406 167.953C107.984 167.578 108.609 167.391 109.281 167.391C110.38 167.391 111.234 167.753 111.844 168.477C112.453 169.201 112.758 170.237 112.758 171.586V172.188H107.031C107.052 173.021 107.294 173.695 107.758 174.211C108.227 174.721 108.82 174.977 109.539 174.977C110.049 174.977 110.482 174.872 110.836 174.664C111.19 174.456 111.5 174.18 111.766 173.836L112.648 174.523C111.94 175.612 110.878 176.156 109.461 176.156ZM109.281 168.578C108.698 168.578 108.208 168.792 107.812 169.219C107.417 169.641 107.172 170.234 107.078 171H111.312V170.891C111.271 170.156 111.073 169.589 110.719 169.188C110.365 168.781 109.885 168.578 109.281 168.578ZM120.359 173.758C120.359 173.367 120.211 173.065 119.914 172.852C119.622 172.633 119.109 172.445 118.375 172.289C117.646 172.133 117.065 171.945 116.633 171.727C116.206 171.508 115.888 171.247 115.68 170.945C115.477 170.643 115.375 170.284 115.375 169.867C115.375 169.174 115.667 168.589 116.25 168.109C116.839 167.63 117.589 167.391 118.5 167.391C119.458 167.391 120.234 167.638 120.828 168.133C121.427 168.628 121.727 169.26 121.727 170.031H120.273C120.273 169.635 120.104 169.294 119.766 169.008C119.432 168.721 119.01 168.578 118.5 168.578C117.974 168.578 117.562 168.693 117.266 168.922C116.969 169.151 116.82 169.451 116.82 169.82C116.82 170.169 116.958 170.432 117.234 170.609C117.51 170.786 118.008 170.956 118.727 171.117C119.451 171.279 120.036 171.471 120.484 171.695C120.932 171.919 121.263 172.19 121.477 172.508C121.695 172.82 121.805 173.203 121.805 173.656C121.805 174.411 121.503 175.018 120.898 175.477C120.294 175.93 119.51 176.156 118.547 176.156C117.87 176.156 117.271 176.036 116.75 175.797C116.229 175.557 115.82 175.224 115.523 174.797C115.232 174.365 115.086 173.898 115.086 173.398H116.531C116.557 173.883 116.75 174.268 117.109 174.555C117.474 174.836 117.953 174.977 118.547 174.977C119.094 174.977 119.531 174.867 119.859 174.648C120.193 174.424 120.359 174.128 120.359 173.758ZM128.195 176.156C127.049 176.156 126.117 175.781 125.398 175.031C124.68 174.276 124.32 173.268 124.32 172.008V171.742C124.32 170.904 124.479 170.156 124.797 169.5C125.12 168.839 125.568 168.323 126.141 167.953C126.719 167.578 127.344 167.391 128.016 167.391C129.115 167.391 129.969 167.753 130.578 168.477C131.188 169.201 131.492 170.237 131.492 171.586V172.188H125.766C125.786 173.021 126.029 173.695 126.492 174.211C126.961 174.721 127.555 174.977 128.273 174.977C128.784 174.977 129.216 174.872 129.57 174.664C129.924 174.456 130.234 174.18 130.5 173.836L131.383 174.523C130.674 175.612 129.612 176.156 128.195 176.156ZM128.016 168.578C127.432 168.578 126.943 168.792 126.547 169.219C126.151 169.641 125.906 170.234 125.812 171H130.047V170.891C130.005 170.156 129.807 169.589 129.453 169.188C129.099 168.781 128.62 168.578 128.016 168.578ZM139.391 176C139.307 175.833 139.24 175.536 139.188 175.109C138.516 175.807 137.714 176.156 136.781 176.156C135.948 176.156 135.263 175.922 134.727 175.453C134.195 174.979 133.93 174.38 133.93 173.656C133.93 172.776 134.263 172.094 134.93 171.609C135.602 171.12 136.544 170.875 137.758 170.875H139.164V170.211C139.164 169.706 139.013 169.305 138.711 169.008C138.409 168.706 137.964 168.555 137.375 168.555C136.859 168.555 136.427 168.685 136.078 168.945C135.729 169.206 135.555 169.521 135.555 169.891H134.102C134.102 169.469 134.25 169.062 134.547 168.672C134.849 168.276 135.255 167.964 135.766 167.734C136.281 167.505 136.846 167.391 137.461 167.391C138.435 167.391 139.198 167.635 139.75 168.125C140.302 168.609 140.589 169.279 140.609 170.133V174.023C140.609 174.799 140.708 175.417 140.906 175.875V176H139.391ZM136.992 174.898C137.445 174.898 137.875 174.781 138.281 174.547C138.688 174.312 138.982 174.008 139.164 173.633V171.898H138.031C136.26 171.898 135.375 172.417 135.375 173.453C135.375 173.906 135.526 174.26 135.828 174.516C136.13 174.771 136.518 174.898 136.992 174.898ZM147.961 168.844C147.742 168.807 147.505 168.789 147.25 168.789C146.302 168.789 145.659 169.193 145.32 170V176H143.875V167.547H145.281L145.305 168.523C145.779 167.768 146.451 167.391 147.32 167.391C147.602 167.391 147.815 167.427 147.961 167.5V168.844ZM153.531 174.977C154.047 174.977 154.497 174.82 154.883 174.508C155.268 174.195 155.482 173.805 155.523 173.336H156.891C156.865 173.82 156.698 174.281 156.391 174.719C156.083 175.156 155.672 175.505 155.156 175.766C154.646 176.026 154.104 176.156 153.531 176.156C152.38 176.156 151.464 175.773 150.781 175.008C150.104 174.237 149.766 173.185 149.766 171.852V171.609C149.766 170.786 149.917 170.055 150.219 169.414C150.521 168.773 150.953 168.276 151.516 167.922C152.083 167.568 152.753 167.391 153.523 167.391C154.471 167.391 155.258 167.674 155.883 168.242C156.513 168.81 156.849 169.547 156.891 170.453H155.523C155.482 169.906 155.273 169.458 154.898 169.109C154.529 168.755 154.07 168.578 153.523 168.578C152.789 168.578 152.219 168.844 151.812 169.375C151.411 169.901 151.211 170.664 151.211 171.664V171.938C151.211 172.911 151.411 173.661 151.812 174.188C152.214 174.714 152.786 174.977 153.531 174.977ZM160.961 168.57C161.602 167.784 162.435 167.391 163.461 167.391C165.247 167.391 166.148 168.398 166.164 170.414V176H164.719V170.406C164.714 169.797 164.573 169.346 164.297 169.055C164.026 168.763 163.602 168.617 163.023 168.617C162.555 168.617 162.143 168.742 161.789 168.992C161.435 169.242 161.159 169.57 160.961 169.977V176H159.516V164H160.961V168.57Z" fill="#1A1C1E"/>
<rect x="44" y="151" width="40" height="40" rx="20" fill="#2F80ED"/>
<rect x="113.5" y="251.5" width="229" height="59" rx="29.5" fill="#FCFCFC" stroke="#0B9219"/>
<path d="M182.328 274.625V282.359C182.323 283.432 181.984 284.31 181.312 284.992C180.646 285.674 179.74 286.057 178.594 286.141L178.195 286.156C176.951 286.156 175.958 285.82 175.219 285.148C174.479 284.477 174.104 283.552 174.094 282.375V274.625H175.578V282.328C175.578 283.151 175.805 283.792 176.258 284.25C176.711 284.703 177.357 284.93 178.195 284.93C179.044 284.93 179.693 284.703 180.141 284.25C180.594 283.797 180.82 283.159 180.82 282.336V274.625H182.328ZM190.391 283.758C190.391 283.367 190.242 283.065 189.945 282.852C189.654 282.633 189.141 282.445 188.406 282.289C187.677 282.133 187.096 281.945 186.664 281.727C186.237 281.508 185.919 281.247 185.711 280.945C185.508 280.643 185.406 280.284 185.406 279.867C185.406 279.174 185.698 278.589 186.281 278.109C186.87 277.63 187.62 277.391 188.531 277.391C189.49 277.391 190.266 277.638 190.859 278.133C191.458 278.628 191.758 279.26 191.758 280.031H190.305C190.305 279.635 190.135 279.294 189.797 279.008C189.464 278.721 189.042 278.578 188.531 278.578C188.005 278.578 187.594 278.693 187.297 278.922C187 279.151 186.852 279.451 186.852 279.82C186.852 280.169 186.99 280.432 187.266 280.609C187.542 280.786 188.039 280.956 188.758 281.117C189.482 281.279 190.068 281.471 190.516 281.695C190.964 281.919 191.294 282.19 191.508 282.508C191.727 282.82 191.836 283.203 191.836 283.656C191.836 284.411 191.534 285.018 190.93 285.477C190.326 285.93 189.542 286.156 188.578 286.156C187.901 286.156 187.302 286.036 186.781 285.797C186.26 285.557 185.852 285.224 185.555 284.797C185.263 284.365 185.117 283.898 185.117 283.398H186.562C186.589 283.883 186.781 284.268 187.141 284.555C187.505 284.836 187.984 284.977 188.578 284.977C189.125 284.977 189.562 284.867 189.891 284.648C190.224 284.424 190.391 284.128 190.391 283.758ZM198.227 286.156C197.081 286.156 196.148 285.781 195.43 285.031C194.711 284.276 194.352 283.268 194.352 282.008V281.742C194.352 280.904 194.51 280.156 194.828 279.5C195.151 278.839 195.599 278.323 196.172 277.953C196.75 277.578 197.375 277.391 198.047 277.391C199.146 277.391 200 277.753 200.609 278.477C201.219 279.201 201.523 280.237 201.523 281.586V282.188H195.797C195.818 283.021 196.06 283.695 196.523 284.211C196.992 284.721 197.586 284.977 198.305 284.977C198.815 284.977 199.247 284.872 199.602 284.664C199.956 284.456 200.266 284.18 200.531 283.836L201.414 284.523C200.706 285.612 199.643 286.156 198.227 286.156ZM198.047 278.578C197.464 278.578 196.974 278.792 196.578 279.219C196.182 279.641 195.938 280.234 195.844 281H200.078V280.891C200.036 280.156 199.839 279.589 199.484 279.188C199.13 278.781 198.651 278.578 198.047 278.578ZM208.289 278.844C208.07 278.807 207.833 278.789 207.578 278.789C206.63 278.789 205.987 279.193 205.648 280V286H204.203V277.547H205.609L205.633 278.523C206.107 277.768 206.779 277.391 207.648 277.391C207.93 277.391 208.143 277.427 208.289 277.5V278.844ZM220.875 275.227C220.229 275.122 219.708 275.07 219.312 275.07C218.271 275.07 217.75 275.617 217.75 276.711V277.547H219.555V278.664H217.75V286H216.305V278.664H214.969V277.547H216.305V276.625C216.31 275.724 216.562 275.034 217.062 274.555C217.562 274.076 218.273 273.836 219.195 273.836C219.721 273.836 220.763 273.995 222.32 274.312V286H220.875V275.227ZM225.305 281.695C225.305 280.867 225.466 280.122 225.789 279.461C226.117 278.799 226.57 278.289 227.148 277.93C227.732 277.57 228.396 277.391 229.141 277.391C230.292 277.391 231.221 277.789 231.93 278.586C232.643 279.383 233 280.443 233 281.766V281.867C233 282.69 232.841 283.43 232.523 284.086C232.211 284.737 231.76 285.245 231.172 285.609C230.589 285.974 229.917 286.156 229.156 286.156C228.01 286.156 227.081 285.758 226.367 284.961C225.659 284.164 225.305 283.109 225.305 281.797V281.695ZM226.758 281.867C226.758 282.805 226.974 283.557 227.406 284.125C227.844 284.693 228.427 284.977 229.156 284.977C229.891 284.977 230.474 284.69 230.906 284.117C231.339 283.539 231.555 282.732 231.555 281.695C231.555 280.768 231.333 280.018 230.891 279.445C230.453 278.867 229.87 278.578 229.141 278.578C228.427 278.578 227.852 278.862 227.414 279.43C226.977 279.997 226.758 280.81 226.758 281.867ZM243.297 284.008L244.922 277.547H246.367L243.906 286H242.734L240.68 279.594L238.68 286H237.508L235.055 277.547H236.492L238.156 283.875L240.125 277.547H241.289L243.297 284.008ZM257.203 284.977C257.719 284.977 258.169 284.82 258.555 284.508C258.94 284.195 259.154 283.805 259.195 283.336H260.562C260.536 283.82 260.37 284.281 260.062 284.719C259.755 285.156 259.344 285.505 258.828 285.766C258.318 286.026 257.776 286.156 257.203 286.156C256.052 286.156 255.135 285.773 254.453 285.008C253.776 284.237 253.438 283.185 253.438 281.852V281.609C253.438 280.786 253.589 280.055 253.891 279.414C254.193 278.773 254.625 278.276 255.188 277.922C255.755 277.568 256.424 277.391 257.195 277.391C258.143 277.391 258.93 277.674 259.555 278.242C260.185 278.81 260.521 279.547 260.562 280.453H259.195C259.154 279.906 258.945 279.458 258.57 279.109C258.201 278.755 257.742 278.578 257.195 278.578C256.461 278.578 255.891 278.844 255.484 279.375C255.083 279.901 254.883 280.664 254.883 281.664V281.938C254.883 282.911 255.083 283.661 255.484 284.188C255.885 284.714 256.458 284.977 257.203 284.977ZM267.273 278.844C267.055 278.807 266.818 278.789 266.562 278.789C265.615 278.789 264.971 279.193 264.633 280V286H263.188V277.547H264.594L264.617 278.523C265.091 277.768 265.763 277.391 266.633 277.391C266.914 277.391 267.128 277.427 267.273 277.5V278.844ZM272.961 286.156C271.815 286.156 270.883 285.781 270.164 285.031C269.445 284.276 269.086 283.268 269.086 282.008V281.742C269.086 280.904 269.245 280.156 269.562 279.5C269.885 278.839 270.333 278.323 270.906 277.953C271.484 277.578 272.109 277.391 272.781 277.391C273.88 277.391 274.734 277.753 275.344 278.477C275.953 279.201 276.258 280.237 276.258 281.586V282.188H270.531C270.552 283.021 270.794 283.695 271.258 284.211C271.727 284.721 272.32 284.977 273.039 284.977C273.549 284.977 273.982 284.872 274.336 284.664C274.69 284.456 275 284.18 275.266 283.836L276.148 284.523C275.44 285.612 274.378 286.156 272.961 286.156ZM272.781 278.578C272.198 278.578 271.708 278.792 271.312 279.219C270.917 279.641 270.672 280.234 270.578 281H274.812V280.891C274.771 280.156 274.573 279.589 274.219 279.188C273.865 278.781 273.385 278.578 272.781 278.578ZM284.156 286C284.073 285.833 284.005 285.536 283.953 285.109C283.281 285.807 282.479 286.156 281.547 286.156C280.714 286.156 280.029 285.922 279.492 285.453C278.961 284.979 278.695 284.38 278.695 283.656C278.695 282.776 279.029 282.094 279.695 281.609C280.367 281.12 281.31 280.875 282.523 280.875H283.93V280.211C283.93 279.706 283.779 279.305 283.477 279.008C283.174 278.706 282.729 278.555 282.141 278.555C281.625 278.555 281.193 278.685 280.844 278.945C280.495 279.206 280.32 279.521 280.32 279.891H278.867C278.867 279.469 279.016 279.062 279.312 278.672C279.615 278.276 280.021 277.964 280.531 277.734C281.047 277.505 281.612 277.391 282.227 277.391C283.201 277.391 283.964 277.635 284.516 278.125C285.068 278.609 285.354 279.279 285.375 280.133V284.023C285.375 284.799 285.474 285.417 285.672 285.875V286H284.156ZM281.758 284.898C282.211 284.898 282.641 284.781 283.047 284.547C283.453 284.312 283.747 284.008 283.93 283.633V281.898H282.797C281.026 281.898 280.141 282.417 280.141 283.453C280.141 283.906 280.292 284.26 280.594 284.516C280.896 284.771 281.284 284.898 281.758 284.898ZM290.602 275.5V277.547H292.18V278.664H290.602V283.906C290.602 284.245 290.672 284.5 290.812 284.672C290.953 284.839 291.193 284.922 291.531 284.922C291.698 284.922 291.927 284.891 292.219 284.828V286C291.839 286.104 291.469 286.156 291.109 286.156C290.464 286.156 289.977 285.961 289.648 285.57C289.32 285.18 289.156 284.625 289.156 283.906V278.664H287.617V277.547H289.156V275.5H290.602ZM296.445 286H295V277.547H296.445V286ZM294.883 275.305C294.883 275.07 294.953 274.872 295.094 274.711C295.24 274.549 295.453 274.469 295.734 274.469C296.016 274.469 296.229 274.549 296.375 274.711C296.521 274.872 296.594 275.07 296.594 275.305C296.594 275.539 296.521 275.734 296.375 275.891C296.229 276.047 296.016 276.125 295.734 276.125C295.453 276.125 295.24 276.047 295.094 275.891C294.953 275.734 294.883 275.539 294.883 275.305ZM299.383 281.695C299.383 280.867 299.544 280.122 299.867 279.461C300.195 278.799 300.648 278.289 301.227 277.93C301.81 277.57 302.474 277.391 303.219 277.391C304.37 277.391 305.299 277.789 306.008 278.586C306.721 279.383 307.078 280.443 307.078 281.766V281.867C307.078 282.69 306.919 283.43 306.602 284.086C306.289 284.737 305.839 285.245 305.25 285.609C304.667 285.974 303.995 286.156 303.234 286.156C302.089 286.156 301.159 285.758 300.445 284.961C299.737 284.164 299.383 283.109 299.383 281.797V281.695ZM300.836 281.867C300.836 282.805 301.052 283.557 301.484 284.125C301.922 284.693 302.505 284.977 303.234 284.977C303.969 284.977 304.552 284.69 304.984 284.117C305.417 283.539 305.633 282.732 305.633 281.695C305.633 280.768 305.411 280.018 304.969 279.445C304.531 278.867 303.948 278.578 303.219 278.578C302.505 278.578 301.93 278.862 301.492 279.43C301.055 279.997 300.836 280.81 300.836 281.867ZM311.258 277.547L311.305 278.609C311.951 277.797 312.794 277.391 313.836 277.391C315.622 277.391 316.523 278.398 316.539 280.414V286H315.094V280.406C315.089 279.797 314.948 279.346 314.672 279.055C314.401 278.763 313.977 278.617 313.398 278.617C312.93 278.617 312.518 278.742 312.164 278.992C311.81 279.242 311.534 279.57 311.336 279.977V286H309.891V277.547H311.258Z" fill="#1A1C1E"/>
<rect x="123" y="261" width="40" height="40" rx="20" fill="#0B9219"/>
<path d="M246 360.5H544C560.292 360.5 573.5 373.708 573.5 390C573.5 406.292 560.292 419.5 544 419.5H246C229.708 419.5 216.5 406.292 216.5 390C216.5 373.708 229.708 360.5 246 360.5Z" fill="#FCFCFC" stroke="#E69D44"/>
<path d="M285.328 383.625V391.359C285.323 392.432 284.984 393.31 284.312 393.992C283.646 394.674 282.74 395.057 281.594 395.141L281.195 395.156C279.951 395.156 278.958 394.82 278.219 394.148C277.479 393.477 277.104 392.552 277.094 391.375V383.625H278.578V391.328C278.578 392.151 278.805 392.792 279.258 393.25C279.711 393.703 280.357 393.93 281.195 393.93C282.044 393.93 282.693 393.703 283.141 393.25C283.594 392.797 283.82 392.159 283.82 391.336V383.625H285.328ZM292.406 387.984L295.133 383.625H296.898L293.305 389.266L296.984 395H295.203L292.406 390.562L289.594 395H287.82L291.508 389.266L287.906 383.625H289.664L292.406 387.984ZM299.789 395.977H298.547L303.297 383.625H304.531L299.789 395.977ZM315.328 383.625V391.359C315.323 392.432 314.984 393.31 314.312 393.992C313.646 394.674 312.74 395.057 311.594 395.141L311.195 395.156C309.951 395.156 308.958 394.82 308.219 394.148C307.479 393.477 307.104 392.552 307.094 391.375V383.625H308.578V391.328C308.578 392.151 308.805 392.792 309.258 393.25C309.711 393.703 310.357 393.93 311.195 393.93C312.044 393.93 312.693 393.703 313.141 393.25C313.594 392.797 313.82 392.159 313.82 391.336V383.625H315.328ZM320.305 395H318.805V383.625H320.305V395ZM328.445 390.703C328.445 389.406 328.753 388.365 329.367 387.578C329.982 386.786 330.786 386.391 331.781 386.391C332.771 386.391 333.555 386.729 334.133 387.406V383H335.578V395H334.25L334.18 394.094C333.602 394.802 332.797 395.156 331.766 395.156C330.786 395.156 329.987 394.755 329.367 393.953C328.753 393.151 328.445 392.104 328.445 390.812V390.703ZM329.891 390.867C329.891 391.826 330.089 392.576 330.484 393.117C330.88 393.659 331.427 393.93 332.125 393.93C333.042 393.93 333.711 393.518 334.133 392.695V388.812C333.701 388.016 333.036 387.617 332.141 387.617C331.432 387.617 330.88 387.891 330.484 388.438C330.089 388.984 329.891 389.794 329.891 390.867ZM342.336 395.156C341.19 395.156 340.258 394.781 339.539 394.031C338.82 393.276 338.461 392.268 338.461 391.008V390.742C338.461 389.904 338.62 389.156 338.938 388.5C339.26 387.839 339.708 387.323 340.281 386.953C340.859 386.578 341.484 386.391 342.156 386.391C343.255 386.391 344.109 386.753 344.719 387.477C345.328 388.201 345.633 389.237 345.633 390.586V391.188H339.906C339.927 392.021 340.169 392.695 340.633 393.211C341.102 393.721 341.695 393.977 342.414 393.977C342.924 393.977 343.357 393.872 343.711 393.664C344.065 393.456 344.375 393.18 344.641 392.836L345.523 393.523C344.815 394.612 343.753 395.156 342.336 395.156ZM342.156 387.578C341.573 387.578 341.083 387.792 340.688 388.219C340.292 388.641 340.047 389.234 339.953 390H344.188V389.891C344.146 389.156 343.948 388.589 343.594 388.188C343.24 387.781 342.76 387.578 342.156 387.578ZM353.234 392.758C353.234 392.367 353.086 392.065 352.789 391.852C352.497 391.633 351.984 391.445 351.25 391.289C350.521 391.133 349.94 390.945 349.508 390.727C349.081 390.508 348.763 390.247 348.555 389.945C348.352 389.643 348.25 389.284 348.25 388.867C348.25 388.174 348.542 387.589 349.125 387.109C349.714 386.63 350.464 386.391 351.375 386.391C352.333 386.391 353.109 386.638 353.703 387.133C354.302 387.628 354.602 388.26 354.602 389.031H353.148C353.148 388.635 352.979 388.294 352.641 388.008C352.307 387.721 351.885 387.578 351.375 387.578C350.849 387.578 350.438 387.693 350.141 387.922C349.844 388.151 349.695 388.451 349.695 388.82C349.695 389.169 349.833 389.432 350.109 389.609C350.385 389.786 350.883 389.956 351.602 390.117C352.326 390.279 352.911 390.471 353.359 390.695C353.807 390.919 354.138 391.19 354.352 391.508C354.57 391.82 354.68 392.203 354.68 392.656C354.68 393.411 354.378 394.018 353.773 394.477C353.169 394.93 352.385 395.156 351.422 395.156C350.745 395.156 350.146 395.036 349.625 394.797C349.104 394.557 348.695 394.224 348.398 393.797C348.107 393.365 347.961 392.898 347.961 392.398H349.406C349.432 392.883 349.625 393.268 349.984 393.555C350.349 393.836 350.828 393.977 351.422 393.977C351.969 393.977 352.406 393.867 352.734 393.648C353.068 393.424 353.234 393.128 353.234 392.758ZM359.133 395H357.688V386.547H359.133V395ZM357.57 384.305C357.57 384.07 357.641 383.872 357.781 383.711C357.927 383.549 358.141 383.469 358.422 383.469C358.703 383.469 358.917 383.549 359.062 383.711C359.208 383.872 359.281 384.07 359.281 384.305C359.281 384.539 359.208 384.734 359.062 384.891C358.917 385.047 358.703 385.125 358.422 385.125C358.141 385.125 357.927 385.047 357.781 384.891C357.641 384.734 357.57 384.539 357.57 384.305ZM362.109 390.703C362.109 389.385 362.414 388.339 363.023 387.562C363.633 386.781 364.44 386.391 365.445 386.391C366.477 386.391 367.281 386.755 367.859 387.484L367.93 386.547H369.25V394.797C369.25 395.891 368.924 396.753 368.273 397.383C367.628 398.013 366.758 398.328 365.664 398.328C365.055 398.328 364.458 398.198 363.875 397.938C363.292 397.677 362.846 397.32 362.539 396.867L363.289 396C363.909 396.766 364.667 397.148 365.562 397.148C366.266 397.148 366.812 396.951 367.203 396.555C367.599 396.159 367.797 395.602 367.797 394.883V394.156C367.219 394.823 366.43 395.156 365.43 395.156C364.44 395.156 363.638 394.758 363.023 393.961C362.414 393.164 362.109 392.078 362.109 390.703ZM363.562 390.867C363.562 391.82 363.758 392.57 364.148 393.117C364.539 393.659 365.086 393.93 365.789 393.93C366.701 393.93 367.37 393.516 367.797 392.688V388.828C367.354 388.021 366.69 387.617 365.805 387.617C365.102 387.617 364.552 387.891 364.156 388.438C363.76 388.984 363.562 389.794 363.562 390.867ZM373.805 386.547L373.852 387.609C374.497 386.797 375.341 386.391 376.383 386.391C378.169 386.391 379.07 387.398 379.086 389.414V395H377.641V389.406C377.635 388.797 377.495 388.346 377.219 388.055C376.948 387.763 376.523 387.617 375.945 387.617C375.477 387.617 375.065 387.742 374.711 387.992C374.357 388.242 374.081 388.57 373.883 388.977V395H372.438V386.547H373.805ZM387.945 395V387.664H386.609V386.547H387.945V385.68C387.945 384.773 388.188 384.073 388.672 383.578C389.156 383.083 389.841 382.836 390.727 382.836C391.06 382.836 391.391 382.88 391.719 382.969L391.641 384.141C391.396 384.094 391.135 384.07 390.859 384.07C390.391 384.07 390.029 384.208 389.773 384.484C389.518 384.755 389.391 385.146 389.391 385.656V386.547H391.195V387.664H389.391V395H387.945ZM393.414 390.695C393.414 389.867 393.576 389.122 393.898 388.461C394.227 387.799 394.68 387.289 395.258 386.93C395.841 386.57 396.505 386.391 397.25 386.391C398.401 386.391 399.331 386.789 400.039 387.586C400.753 388.383 401.109 389.443 401.109 390.766V390.867C401.109 391.69 400.951 392.43 400.633 393.086C400.32 393.737 399.87 394.245 399.281 394.609C398.698 394.974 398.026 395.156 397.266 395.156C396.12 395.156 395.19 394.758 394.477 393.961C393.768 393.164 393.414 392.109 393.414 390.797V390.695ZM394.867 390.867C394.867 391.805 395.083 392.557 395.516 393.125C395.953 393.693 396.536 393.977 397.266 393.977C398 393.977 398.583 393.69 399.016 393.117C399.448 392.539 399.664 391.732 399.664 390.695C399.664 389.768 399.443 389.018 399 388.445C398.562 387.867 397.979 387.578 397.25 387.578C396.536 387.578 395.961 387.862 395.523 388.43C395.086 388.997 394.867 389.81 394.867 390.867ZM408.008 387.844C407.789 387.807 407.552 387.789 407.297 387.789C406.349 387.789 405.706 388.193 405.367 389V395H403.922V386.547H405.328L405.352 387.523C405.826 386.768 406.497 386.391 407.367 386.391C407.648 386.391 407.862 386.427 408.008 386.5V387.844ZM420.531 395C420.448 394.833 420.38 394.536 420.328 394.109C419.656 394.807 418.854 395.156 417.922 395.156C417.089 395.156 416.404 394.922 415.867 394.453C415.336 393.979 415.07 393.38 415.07 392.656C415.07 391.776 415.404 391.094 416.07 390.609C416.742 390.12 417.685 389.875 418.898 389.875H420.305V389.211C420.305 388.706 420.154 388.305 419.852 388.008C419.549 387.706 419.104 387.555 418.516 387.555C418 387.555 417.568 387.685 417.219 387.945C416.87 388.206 416.695 388.521 416.695 388.891H415.242C415.242 388.469 415.391 388.062 415.688 387.672C415.99 387.276 416.396 386.964 416.906 386.734C417.422 386.505 417.987 386.391 418.602 386.391C419.576 386.391 420.339 386.635 420.891 387.125C421.443 387.609 421.729 388.279 421.75 389.133V393.023C421.75 393.799 421.849 394.417 422.047 394.875V395H420.531ZM418.133 393.898C418.586 393.898 419.016 393.781 419.422 393.547C419.828 393.312 420.122 393.008 420.305 392.633V390.898H419.172C417.401 390.898 416.516 391.417 416.516 392.453C416.516 392.906 416.667 393.26 416.969 393.516C417.271 393.771 417.659 393.898 418.133 393.898ZM426.586 395H425.141V383H426.586V395ZM431.477 395H430.031V383H431.477V395ZM439.414 390.703C439.414 389.406 439.721 388.365 440.336 387.578C440.951 386.786 441.755 386.391 442.75 386.391C443.74 386.391 444.523 386.729 445.102 387.406V383H446.547V395H445.219L445.148 394.094C444.57 394.802 443.766 395.156 442.734 395.156C441.755 395.156 440.956 394.755 440.336 393.953C439.721 393.151 439.414 392.104 439.414 390.812V390.703ZM440.859 390.867C440.859 391.826 441.057 392.576 441.453 393.117C441.849 393.659 442.396 393.93 443.094 393.93C444.01 393.93 444.68 393.518 445.102 392.695V388.812C444.669 388.016 444.005 387.617 443.109 387.617C442.401 387.617 441.849 387.891 441.453 388.438C441.057 388.984 440.859 389.794 440.859 390.867ZM453.305 395.156C452.159 395.156 451.227 394.781 450.508 394.031C449.789 393.276 449.43 392.268 449.43 391.008V390.742C449.43 389.904 449.589 389.156 449.906 388.5C450.229 387.839 450.677 387.323 451.25 386.953C451.828 386.578 452.453 386.391 453.125 386.391C454.224 386.391 455.078 386.753 455.688 387.477C456.297 388.201 456.602 389.237 456.602 390.586V391.188H450.875C450.896 392.021 451.138 392.695 451.602 393.211C452.07 393.721 452.664 393.977 453.383 393.977C453.893 393.977 454.326 393.872 454.68 393.664C455.034 393.456 455.344 393.18 455.609 392.836L456.492 393.523C455.784 394.612 454.721 395.156 453.305 395.156ZM453.125 387.578C452.542 387.578 452.052 387.792 451.656 388.219C451.26 388.641 451.016 389.234 450.922 390H455.156V389.891C455.115 389.156 454.917 388.589 454.562 388.188C454.208 387.781 453.729 387.578 453.125 387.578ZM461.961 393.039L464.055 386.547H465.531L462.5 395H461.398L458.336 386.547H459.812L461.961 393.039ZM469.492 395H468.047V386.547H469.492V395ZM467.93 384.305C467.93 384.07 468 383.872 468.141 383.711C468.286 383.549 468.5 383.469 468.781 383.469C469.062 383.469 469.276 383.549 469.422 383.711C469.568 383.872 469.641 384.07 469.641 384.305C469.641 384.539 469.568 384.734 469.422 384.891C469.276 385.047 469.062 385.125 468.781 385.125C468.5 385.125 468.286 385.047 468.141 384.891C468 384.734 467.93 384.539 467.93 384.305ZM476.203 393.977C476.719 393.977 477.169 393.82 477.555 393.508C477.94 393.195 478.154 392.805 478.195 392.336H479.562C479.536 392.82 479.37 393.281 479.062 393.719C478.755 394.156 478.344 394.505 477.828 394.766C477.318 395.026 476.776 395.156 476.203 395.156C475.052 395.156 474.135 394.773 473.453 394.008C472.776 393.237 472.438 392.185 472.438 390.852V390.609C472.438 389.786 472.589 389.055 472.891 388.414C473.193 387.773 473.625 387.276 474.188 386.922C474.755 386.568 475.424 386.391 476.195 386.391C477.143 386.391 477.93 386.674 478.555 387.242C479.185 387.81 479.521 388.547 479.562 389.453H478.195C478.154 388.906 477.945 388.458 477.57 388.109C477.201 387.755 476.742 387.578 476.195 387.578C475.461 387.578 474.891 387.844 474.484 388.375C474.083 388.901 473.883 389.664 473.883 390.664V390.938C473.883 391.911 474.083 392.661 474.484 393.188C474.885 393.714 475.458 393.977 476.203 393.977ZM485.695 395.156C484.549 395.156 483.617 394.781 482.898 394.031C482.18 393.276 481.82 392.268 481.82 391.008V390.742C481.82 389.904 481.979 389.156 482.297 388.5C482.62 387.839 483.068 387.323 483.641 386.953C484.219 386.578 484.844 386.391 485.516 386.391C486.615 386.391 487.469 386.753 488.078 387.477C488.688 388.201 488.992 389.237 488.992 390.586V391.188H483.266C483.286 392.021 483.529 392.695 483.992 393.211C484.461 393.721 485.055 393.977 485.773 393.977C486.284 393.977 486.716 393.872 487.07 393.664C487.424 393.456 487.734 393.18 488 392.836L488.883 393.523C488.174 394.612 487.112 395.156 485.695 395.156ZM485.516 387.578C484.932 387.578 484.443 387.792 484.047 388.219C483.651 388.641 483.406 389.234 483.312 390H487.547V389.891C487.505 389.156 487.307 388.589 486.953 388.188C486.599 387.781 486.12 387.578 485.516 387.578ZM496.594 392.758C496.594 392.367 496.445 392.065 496.148 391.852C495.857 391.633 495.344 391.445 494.609 391.289C493.88 391.133 493.299 390.945 492.867 390.727C492.44 390.508 492.122 390.247 491.914 389.945C491.711 389.643 491.609 389.284 491.609 388.867C491.609 388.174 491.901 387.589 492.484 387.109C493.073 386.63 493.823 386.391 494.734 386.391C495.693 386.391 496.469 386.638 497.062 387.133C497.661 387.628 497.961 388.26 497.961 389.031H496.508C496.508 388.635 496.339 388.294 496 388.008C495.667 387.721 495.245 387.578 494.734 387.578C494.208 387.578 493.797 387.693 493.5 387.922C493.203 388.151 493.055 388.451 493.055 388.82C493.055 389.169 493.193 389.432 493.469 389.609C493.745 389.786 494.242 389.956 494.961 390.117C495.685 390.279 496.271 390.471 496.719 390.695C497.167 390.919 497.497 391.19 497.711 391.508C497.93 391.82 498.039 392.203 498.039 392.656C498.039 393.411 497.737 394.018 497.133 394.477C496.529 394.93 495.745 395.156 494.781 395.156C494.104 395.156 493.505 395.036 492.984 394.797C492.464 394.557 492.055 394.224 491.758 393.797C491.466 393.365 491.32 392.898 491.32 392.398H492.766C492.792 392.883 492.984 393.268 493.344 393.555C493.708 393.836 494.188 393.977 494.781 393.977C495.328 393.977 495.766 393.867 496.094 393.648C496.427 393.424 496.594 393.128 496.594 392.758Z" fill="#1A1C1E"/>
<rect x="226" y="370" width="40" height="40" rx="20" fill="#E69D44"/>
<path d="M875 363.5H979C995.292 363.5 1008.5 376.708 1008.5 393C1008.5 409.292 995.292 422.5 979 422.5H875C858.708 422.5 845.5 409.292 845.5 393C845.5 376.708 858.708 363.5 875 363.5Z" fill="#FCFCFC" stroke="#F2C94C"/>
<path d="M906.32 398V386.625H910.039C911.273 386.625 912.201 386.88 912.82 387.391C913.445 387.901 913.758 388.656 913.758 389.656C913.758 390.188 913.607 390.659 913.305 391.07C913.003 391.477 912.591 391.792 912.07 392.016C912.685 392.188 913.169 392.516 913.523 393C913.883 393.479 914.062 394.052 914.062 394.719C914.062 395.74 913.732 396.542 913.07 397.125C912.409 397.708 911.474 398 910.266 398H906.32ZM907.82 392.68V396.773H910.297C910.995 396.773 911.544 396.594 911.945 396.234C912.352 395.87 912.555 395.37 912.555 394.734C912.555 393.365 911.81 392.68 910.32 392.68H907.82ZM907.82 391.477H910.086C910.742 391.477 911.266 391.312 911.656 390.984C912.052 390.656 912.25 390.211 912.25 389.648C912.25 389.023 912.068 388.57 911.703 388.289C911.339 388.003 910.784 387.859 910.039 387.859H907.82V391.477ZM922.281 397.164C921.719 397.826 920.893 398.156 919.805 398.156C918.904 398.156 918.216 397.896 917.742 397.375C917.273 396.849 917.036 396.073 917.031 395.047V389.547H918.477V395.008C918.477 396.289 918.997 396.93 920.039 396.93C921.143 396.93 921.878 396.518 922.242 395.695V389.547H923.688V398H922.312L922.281 397.164ZM926.547 393.703C926.547 392.385 926.852 391.339 927.461 390.562C928.07 389.781 928.878 389.391 929.883 389.391C930.914 389.391 931.719 389.755 932.297 390.484L932.367 389.547H933.688V397.797C933.688 398.891 933.362 399.753 932.711 400.383C932.065 401.013 931.195 401.328 930.102 401.328C929.492 401.328 928.896 401.198 928.312 400.938C927.729 400.677 927.284 400.32 926.977 399.867L927.727 399C928.346 399.766 929.104 400.148 930 400.148C930.703 400.148 931.25 399.951 931.641 399.555C932.036 399.159 932.234 398.602 932.234 397.883V397.156C931.656 397.823 930.867 398.156 929.867 398.156C928.878 398.156 928.076 397.758 927.461 396.961C926.852 396.164 926.547 395.078 926.547 393.703ZM928 393.867C928 394.82 928.195 395.57 928.586 396.117C928.977 396.659 929.523 396.93 930.227 396.93C931.138 396.93 931.807 396.516 932.234 395.688V391.828C931.792 391.021 931.128 390.617 930.242 390.617C929.539 390.617 928.99 390.891 928.594 391.438C928.198 391.984 928 392.794 928 393.867ZM939.883 393.758H936.07V392.578H939.883V393.758ZM942.781 398V390.664H941.445V389.547H942.781V388.828C942.781 387.885 943.049 387.151 943.586 386.625C944.128 386.099 944.891 385.836 945.875 385.836C946.458 385.836 947.195 385.995 948.086 386.312L947.844 387.531C947.193 387.271 946.573 387.141 945.984 387.141C945.365 387.141 944.917 387.281 944.641 387.562C944.37 387.839 944.234 388.255 944.234 388.812V389.547H945.961V390.664H944.234V398H942.781ZM948.805 398H947.352V389.547H948.805V398ZM954.992 392.633L956.867 389.547H958.555L955.789 393.727L958.641 398H956.969L955.016 394.836L953.062 398H951.383L954.234 393.727L951.469 389.547H953.141L954.992 392.633ZM962.664 398H961.219V389.547H962.664V398ZM961.102 387.305C961.102 387.07 961.172 386.872 961.312 386.711C961.458 386.549 961.672 386.469 961.953 386.469C962.234 386.469 962.448 386.549 962.594 386.711C962.74 386.872 962.812 387.07 962.812 387.305C962.812 387.539 962.74 387.734 962.594 387.891C962.448 388.047 962.234 388.125 961.953 388.125C961.672 388.125 961.458 388.047 961.312 387.891C961.172 387.734 961.102 387.539 961.102 387.305ZM967.352 389.547L967.398 390.609C968.044 389.797 968.888 389.391 969.93 389.391C971.716 389.391 972.617 390.398 972.633 392.414V398H971.188V392.406C971.182 391.797 971.042 391.346 970.766 391.055C970.495 390.763 970.07 390.617 969.492 390.617C969.023 390.617 968.612 390.742 968.258 390.992C967.904 391.242 967.628 391.57 967.43 391.977V398H965.984V389.547H967.352ZM975.469 393.703C975.469 392.385 975.773 391.339 976.383 390.562C976.992 389.781 977.799 389.391 978.805 389.391C979.836 389.391 980.641 389.755 981.219 390.484L981.289 389.547H982.609V397.797C982.609 398.891 982.284 399.753 981.633 400.383C980.987 401.013 980.117 401.328 979.023 401.328C978.414 401.328 977.818 401.198 977.234 400.938C976.651 400.677 976.206 400.32 975.898 399.867L976.648 399C977.268 399.766 978.026 400.148 978.922 400.148C979.625 400.148 980.172 399.951 980.562 399.555C980.958 399.159 981.156 398.602 981.156 397.883V397.156C980.578 397.823 979.789 398.156 978.789 398.156C977.799 398.156 976.997 397.758 976.383 396.961C975.773 396.164 975.469 395.078 975.469 393.703ZM976.922 393.867C976.922 394.82 977.117 395.57 977.508 396.117C977.898 396.659 978.445 396.93 979.148 396.93C980.06 396.93 980.729 396.516 981.156 395.688V391.828C980.714 391.021 980.049 390.617 979.164 390.617C978.461 390.617 977.911 390.891 977.516 391.438C977.12 391.984 976.922 392.794 976.922 393.867Z" fill="#1A1C1E"/>
<rect x="855" y="373" width="40" height="40" rx="20" fill="#F2C94C"/>
<path d="M355 141.5H983C999.292 141.5 1012.5 154.708 1012.5 171C1012.5 187.292 999.292 200.5 983 200.5H355C338.708 200.5 325.5 187.292 325.5 171C325.5 154.708 338.708 141.5 355 141.5Z" fill="#FCFCFC" stroke="#AD6DA9"/>
<path d="M383.883 176V164.625H387.602C388.836 164.625 389.763 164.88 390.383 165.391C391.008 165.901 391.32 166.656 391.32 167.656C391.32 168.188 391.169 168.659 390.867 169.07C390.565 169.477 390.154 169.792 389.633 170.016C390.247 170.188 390.732 170.516 391.086 171C391.445 171.479 391.625 172.052 391.625 172.719C391.625 173.74 391.294 174.542 390.633 175.125C389.971 175.708 389.036 176 387.828 176H383.883ZM385.383 170.68V174.773H387.859C388.557 174.773 389.107 174.594 389.508 174.234C389.914 173.87 390.117 173.37 390.117 172.734C390.117 171.365 389.372 170.68 387.883 170.68H385.383ZM385.383 169.477H387.648C388.305 169.477 388.828 169.312 389.219 168.984C389.615 168.656 389.812 168.211 389.812 167.648C389.812 167.023 389.63 166.57 389.266 166.289C388.901 166.003 388.346 165.859 387.602 165.859H385.383V169.477ZM399.844 176C399.76 175.833 399.693 175.536 399.641 175.109C398.969 175.807 398.167 176.156 397.234 176.156C396.401 176.156 395.716 175.922 395.18 175.453C394.648 174.979 394.383 174.38 394.383 173.656C394.383 172.776 394.716 172.094 395.383 171.609C396.055 171.12 396.997 170.875 398.211 170.875H399.617V170.211C399.617 169.706 399.466 169.305 399.164 169.008C398.862 168.706 398.417 168.555 397.828 168.555C397.312 168.555 396.88 168.685 396.531 168.945C396.182 169.206 396.008 169.521 396.008 169.891H394.555C394.555 169.469 394.703 169.062 395 168.672C395.302 168.276 395.708 167.964 396.219 167.734C396.734 167.505 397.299 167.391 397.914 167.391C398.888 167.391 399.651 167.635 400.203 168.125C400.755 168.609 401.042 169.279 401.062 170.133V174.023C401.062 174.799 401.161 175.417 401.359 175.875V176H399.844ZM397.445 174.898C397.898 174.898 398.328 174.781 398.734 174.547C399.141 174.312 399.435 174.008 399.617 173.633V171.898H398.484C396.714 171.898 395.828 172.417 395.828 173.453C395.828 173.906 395.979 174.26 396.281 174.516C396.583 174.771 396.971 174.898 397.445 174.898ZM407.719 174.977C408.234 174.977 408.685 174.82 409.07 174.508C409.456 174.195 409.669 173.805 409.711 173.336H411.078C411.052 173.82 410.885 174.281 410.578 174.719C410.271 175.156 409.859 175.505 409.344 175.766C408.833 176.026 408.292 176.156 407.719 176.156C406.568 176.156 405.651 175.773 404.969 175.008C404.292 174.237 403.953 173.185 403.953 171.852V171.609C403.953 170.786 404.104 170.055 404.406 169.414C404.708 168.773 405.141 168.276 405.703 167.922C406.271 167.568 406.94 167.391 407.711 167.391C408.659 167.391 409.445 167.674 410.07 168.242C410.701 168.81 411.036 169.547 411.078 170.453H409.711C409.669 169.906 409.461 169.458 409.086 169.109C408.716 168.755 408.258 168.578 407.711 168.578C406.977 168.578 406.406 168.844 406 169.375C405.599 169.901 405.398 170.664 405.398 171.664V171.938C405.398 172.911 405.599 173.661 406 174.188C406.401 174.714 406.974 174.977 407.719 174.977ZM416.062 172.086L415.156 173.031V176H413.711V164H415.156V171.258L415.93 170.328L418.562 167.547H420.32L417.031 171.078L420.703 176H419.008L416.062 172.086ZM425.82 171.758H422.008V170.578H425.82V171.758ZM431.742 176.156C430.596 176.156 429.664 175.781 428.945 175.031C428.227 174.276 427.867 173.268 427.867 172.008V171.742C427.867 170.904 428.026 170.156 428.344 169.5C428.667 168.839 429.115 168.323 429.688 167.953C430.266 167.578 430.891 167.391 431.562 167.391C432.661 167.391 433.516 167.753 434.125 168.477C434.734 169.201 435.039 170.237 435.039 171.586V172.188H429.312C429.333 173.021 429.576 173.695 430.039 174.211C430.508 174.721 431.102 174.977 431.82 174.977C432.331 174.977 432.763 174.872 433.117 174.664C433.471 174.456 433.781 174.18 434.047 173.836L434.93 174.523C434.221 175.612 433.159 176.156 431.742 176.156ZM431.562 168.578C430.979 168.578 430.49 168.792 430.094 169.219C429.698 169.641 429.453 170.234 429.359 171H433.594V170.891C433.552 170.156 433.354 169.589 433 169.188C432.646 168.781 432.167 168.578 431.562 168.578ZM439.086 167.547L439.133 168.609C439.779 167.797 440.622 167.391 441.664 167.391C443.451 167.391 444.352 168.398 444.367 170.414V176H442.922V170.406C442.917 169.797 442.776 169.346 442.5 169.055C442.229 168.763 441.805 168.617 441.227 168.617C440.758 168.617 440.346 168.742 439.992 168.992C439.638 169.242 439.362 169.57 439.164 169.977V176H437.719V167.547H439.086ZM447.195 171.703C447.195 170.406 447.503 169.365 448.117 168.578C448.732 167.786 449.536 167.391 450.531 167.391C451.521 167.391 452.305 167.729 452.883 168.406V164H454.328V176H453L452.93 175.094C452.352 175.802 451.547 176.156 450.516 176.156C449.536 176.156 448.737 175.755 448.117 174.953C447.503 174.151 447.195 173.104 447.195 171.812V171.703ZM448.641 171.867C448.641 172.826 448.839 173.576 449.234 174.117C449.63 174.659 450.177 174.93 450.875 174.93C451.792 174.93 452.461 174.518 452.883 173.695V169.812C452.451 169.016 451.786 168.617 450.891 168.617C450.182 168.617 449.63 168.891 449.234 169.438C448.839 169.984 448.641 170.794 448.641 171.867ZM462.195 171.703C462.195 170.406 462.503 169.365 463.117 168.578C463.732 167.786 464.536 167.391 465.531 167.391C466.521 167.391 467.305 167.729 467.883 168.406V164H469.328V176H468L467.93 175.094C467.352 175.802 466.547 176.156 465.516 176.156C464.536 176.156 463.737 175.755 463.117 174.953C462.503 174.151 462.195 173.104 462.195 171.812V171.703ZM463.641 171.867C463.641 172.826 463.839 173.576 464.234 174.117C464.63 174.659 465.177 174.93 465.875 174.93C466.792 174.93 467.461 174.518 467.883 173.695V169.812C467.451 169.016 466.786 168.617 465.891 168.617C465.182 168.617 464.63 168.891 464.234 169.438C463.839 169.984 463.641 170.794 463.641 171.867ZM476.086 176.156C474.94 176.156 474.008 175.781 473.289 175.031C472.57 174.276 472.211 173.268 472.211 172.008V171.742C472.211 170.904 472.37 170.156 472.688 169.5C473.01 168.839 473.458 168.323 474.031 167.953C474.609 167.578 475.234 167.391 475.906 167.391C477.005 167.391 477.859 167.753 478.469 168.477C479.078 169.201 479.383 170.237 479.383 171.586V172.188H473.656C473.677 173.021 473.919 173.695 474.383 174.211C474.852 174.721 475.445 174.977 476.164 174.977C476.674 174.977 477.107 174.872 477.461 174.664C477.815 174.456 478.125 174.18 478.391 173.836L479.273 174.523C478.565 175.612 477.503 176.156 476.086 176.156ZM475.906 168.578C475.323 168.578 474.833 168.792 474.438 169.219C474.042 169.641 473.797 170.234 473.703 171H477.938V170.891C477.896 170.156 477.698 169.589 477.344 169.188C476.99 168.781 476.51 168.578 475.906 168.578ZM484.742 174.039L486.836 167.547H488.312L485.281 176H484.18L481.117 167.547H482.594L484.742 174.039ZM494.102 176.156C492.956 176.156 492.023 175.781 491.305 175.031C490.586 174.276 490.227 173.268 490.227 172.008V171.742C490.227 170.904 490.385 170.156 490.703 169.5C491.026 168.839 491.474 168.323 492.047 167.953C492.625 167.578 493.25 167.391 493.922 167.391C495.021 167.391 495.875 167.753 496.484 168.477C497.094 169.201 497.398 170.237 497.398 171.586V172.188H491.672C491.693 173.021 491.935 173.695 492.398 174.211C492.867 174.721 493.461 174.977 494.18 174.977C494.69 174.977 495.122 174.872 495.477 174.664C495.831 174.456 496.141 174.18 496.406 173.836L497.289 174.523C496.581 175.612 495.518 176.156 494.102 176.156ZM493.922 168.578C493.339 168.578 492.849 168.792 492.453 169.219C492.057 169.641 491.812 170.234 491.719 171H495.953V170.891C495.911 170.156 495.714 169.589 495.359 169.188C495.005 168.781 494.526 168.578 493.922 168.578ZM501.648 176H500.203V164H501.648V176ZM504.586 171.695C504.586 170.867 504.747 170.122 505.07 169.461C505.398 168.799 505.852 168.289 506.43 167.93C507.013 167.57 507.677 167.391 508.422 167.391C509.573 167.391 510.503 167.789 511.211 168.586C511.924 169.383 512.281 170.443 512.281 171.766V171.867C512.281 172.69 512.122 173.43 511.805 174.086C511.492 174.737 511.042 175.245 510.453 175.609C509.87 175.974 509.198 176.156 508.438 176.156C507.292 176.156 506.362 175.758 505.648 174.961C504.94 174.164 504.586 173.109 504.586 171.797V171.695ZM506.039 171.867C506.039 172.805 506.255 173.557 506.688 174.125C507.125 174.693 507.708 174.977 508.438 174.977C509.172 174.977 509.755 174.69 510.188 174.117C510.62 173.539 510.836 172.732 510.836 171.695C510.836 170.768 510.615 170.018 510.172 169.445C509.734 168.867 509.151 168.578 508.422 168.578C507.708 168.578 507.133 168.862 506.695 169.43C506.258 169.997 506.039 170.81 506.039 171.867ZM522.234 171.867C522.234 173.154 521.94 174.19 521.352 174.977C520.763 175.763 519.966 176.156 518.961 176.156C517.935 176.156 517.128 175.831 516.539 175.18V179.25H515.094V167.547H516.414L516.484 168.484C517.073 167.755 517.891 167.391 518.938 167.391C519.953 167.391 520.755 167.773 521.344 168.539C521.938 169.305 522.234 170.37 522.234 171.734V171.867ZM520.789 171.703C520.789 170.75 520.586 169.997 520.18 169.445C519.773 168.893 519.216 168.617 518.508 168.617C517.633 168.617 516.977 169.005 516.539 169.781V173.82C516.971 174.591 517.633 174.977 518.523 174.977C519.216 174.977 519.766 174.703 520.172 174.156C520.583 173.604 520.789 172.786 520.789 171.703ZM526.438 167.547L526.477 168.484C527.096 167.755 527.932 167.391 528.984 167.391C530.167 167.391 530.971 167.844 531.398 168.75C531.68 168.344 532.044 168.016 532.492 167.766C532.945 167.516 533.479 167.391 534.094 167.391C535.948 167.391 536.891 168.372 536.922 170.336V176H535.477V170.422C535.477 169.818 535.339 169.367 535.062 169.07C534.786 168.768 534.323 168.617 533.672 168.617C533.135 168.617 532.69 168.779 532.336 169.102C531.982 169.419 531.776 169.849 531.719 170.391V176H530.266V170.461C530.266 169.232 529.664 168.617 528.461 168.617C527.513 168.617 526.865 169.021 526.516 169.828V176H525.07V167.547H526.438ZM543.617 176.156C542.471 176.156 541.539 175.781 540.82 175.031C540.102 174.276 539.742 173.268 539.742 172.008V171.742C539.742 170.904 539.901 170.156 540.219 169.5C540.542 168.839 540.99 168.323 541.562 167.953C542.141 167.578 542.766 167.391 543.438 167.391C544.536 167.391 545.391 167.753 546 168.477C546.609 169.201 546.914 170.237 546.914 171.586V172.188H541.188C541.208 173.021 541.451 173.695 541.914 174.211C542.383 174.721 542.977 174.977 543.695 174.977C544.206 174.977 544.638 174.872 544.992 174.664C545.346 174.456 545.656 174.18 545.922 173.836L546.805 174.523C546.096 175.612 545.034 176.156 543.617 176.156ZM543.438 168.578C542.854 168.578 542.365 168.792 541.969 169.219C541.573 169.641 541.328 170.234 541.234 171H545.469V170.891C545.427 170.156 545.229 169.589 544.875 169.188C544.521 168.781 544.042 168.578 543.438 168.578ZM550.961 167.547L551.008 168.609C551.654 167.797 552.497 167.391 553.539 167.391C555.326 167.391 556.227 168.398 556.242 170.414V176H554.797V170.406C554.792 169.797 554.651 169.346 554.375 169.055C554.104 168.763 553.68 168.617 553.102 168.617C552.633 168.617 552.221 168.742 551.867 168.992C551.513 169.242 551.237 169.57 551.039 169.977V176H549.594V167.547H550.961ZM561.383 165.5V167.547H562.961V168.664H561.383V173.906C561.383 174.245 561.453 174.5 561.594 174.672C561.734 174.839 561.974 174.922 562.312 174.922C562.479 174.922 562.708 174.891 563 174.828V176C562.62 176.104 562.25 176.156 561.891 176.156C561.245 176.156 560.758 175.961 560.43 175.57C560.102 175.18 559.938 174.625 559.938 173.906V168.664H558.398V167.547H559.938V165.5H561.383Z" fill="#1A1C1E"/>
<path d="M732.66 170.977H727.887V176H726.387V164.625H733.434V165.859H727.887V169.75H732.66V170.977ZM739.887 168.844C739.668 168.807 739.431 168.789 739.176 168.789C738.228 168.789 737.585 169.193 737.246 170V176H735.801V167.547H737.207L737.23 168.523C737.704 167.768 738.376 167.391 739.246 167.391C739.527 167.391 739.741 167.427 739.887 167.5V168.844ZM741.684 171.695C741.684 170.867 741.845 170.122 742.168 169.461C742.496 168.799 742.949 168.289 743.527 167.93C744.111 167.57 744.775 167.391 745.52 167.391C746.671 167.391 747.6 167.789 748.309 168.586C749.022 169.383 749.379 170.443 749.379 171.766V171.867C749.379 172.69 749.22 173.43 748.902 174.086C748.59 174.737 748.139 175.245 747.551 175.609C746.967 175.974 746.296 176.156 745.535 176.156C744.389 176.156 743.46 175.758 742.746 174.961C742.038 174.164 741.684 173.109 741.684 171.797V171.695ZM743.137 171.867C743.137 172.805 743.353 173.557 743.785 174.125C744.223 174.693 744.806 174.977 745.535 174.977C746.27 174.977 746.853 174.69 747.285 174.117C747.717 173.539 747.934 172.732 747.934 171.695C747.934 170.768 747.712 170.018 747.27 169.445C746.832 168.867 746.249 168.578 745.52 168.578C744.806 168.578 744.23 168.862 743.793 169.43C743.355 169.997 743.137 170.81 743.137 171.867ZM753.559 167.547L753.605 168.609C754.251 167.797 755.095 167.391 756.137 167.391C757.923 167.391 758.824 168.398 758.84 170.414V176H757.395V170.406C757.389 169.797 757.249 169.346 756.973 169.055C756.702 168.763 756.277 168.617 755.699 168.617C755.23 168.617 754.819 168.742 754.465 168.992C754.111 169.242 753.835 169.57 753.637 169.977V176H752.191V167.547H753.559ZM763.98 165.5V167.547H765.559V168.664H763.98V173.906C763.98 174.245 764.051 174.5 764.191 174.672C764.332 174.839 764.572 174.922 764.91 174.922C765.077 174.922 765.306 174.891 765.598 174.828V176C765.217 176.104 764.848 176.156 764.488 176.156C763.842 176.156 763.355 175.961 763.027 175.57C762.699 175.18 762.535 174.625 762.535 173.906V168.664H760.996V167.547H762.535V165.5H763.98ZM771.262 171.758H767.449V170.578H771.262V171.758ZM777.184 176.156C776.038 176.156 775.105 175.781 774.387 175.031C773.668 174.276 773.309 173.268 773.309 172.008V171.742C773.309 170.904 773.467 170.156 773.785 169.5C774.108 168.839 774.556 168.323 775.129 167.953C775.707 167.578 776.332 167.391 777.004 167.391C778.103 167.391 778.957 167.753 779.566 168.477C780.176 169.201 780.48 170.237 780.48 171.586V172.188H774.754C774.775 173.021 775.017 173.695 775.48 174.211C775.949 174.721 776.543 174.977 777.262 174.977C777.772 174.977 778.204 174.872 778.559 174.664C778.913 174.456 779.223 174.18 779.488 173.836L780.371 174.523C779.663 175.612 778.6 176.156 777.184 176.156ZM777.004 168.578C776.421 168.578 775.931 168.792 775.535 169.219C775.139 169.641 774.895 170.234 774.801 171H779.035V170.891C778.993 170.156 778.796 169.589 778.441 169.188C778.087 168.781 777.608 168.578 777.004 168.578ZM784.527 167.547L784.574 168.609C785.22 167.797 786.064 167.391 787.105 167.391C788.892 167.391 789.793 168.398 789.809 170.414V176H788.363V170.406C788.358 169.797 788.217 169.346 787.941 169.055C787.671 168.763 787.246 168.617 786.668 168.617C786.199 168.617 785.788 168.742 785.434 168.992C785.079 169.242 784.803 169.57 784.605 169.977V176H783.16V167.547H784.527ZM792.637 171.703C792.637 170.406 792.944 169.365 793.559 168.578C794.173 167.786 794.978 167.391 795.973 167.391C796.962 167.391 797.746 167.729 798.324 168.406V164H799.77V176H798.441L798.371 175.094C797.793 175.802 796.988 176.156 795.957 176.156C794.978 176.156 794.178 175.755 793.559 174.953C792.944 174.151 792.637 173.104 792.637 171.812V171.703ZM794.082 171.867C794.082 172.826 794.28 173.576 794.676 174.117C795.072 174.659 795.618 174.93 796.316 174.93C797.233 174.93 797.902 174.518 798.324 173.695V169.812C797.892 169.016 797.228 168.617 796.332 168.617C795.624 168.617 795.072 168.891 794.676 169.438C794.28 169.984 794.082 170.794 794.082 171.867ZM807.637 171.703C807.637 170.406 807.944 169.365 808.559 168.578C809.173 167.786 809.978 167.391 810.973 167.391C811.962 167.391 812.746 167.729 813.324 168.406V164H814.77V176H813.441L813.371 175.094C812.793 175.802 811.988 176.156 810.957 176.156C809.978 176.156 809.178 175.755 808.559 174.953C807.944 174.151 807.637 173.104 807.637 171.812V171.703ZM809.082 171.867C809.082 172.826 809.28 173.576 809.676 174.117C810.072 174.659 810.618 174.93 811.316 174.93C812.233 174.93 812.902 174.518 813.324 173.695V169.812C812.892 169.016 812.228 168.617 811.332 168.617C810.624 168.617 810.072 168.891 809.676 169.438C809.28 169.984 809.082 170.794 809.082 171.867ZM821.527 176.156C820.382 176.156 819.449 175.781 818.73 175.031C818.012 174.276 817.652 173.268 817.652 172.008V171.742C817.652 170.904 817.811 170.156 818.129 169.5C818.452 168.839 818.9 168.323 819.473 167.953C820.051 167.578 820.676 167.391 821.348 167.391C822.447 167.391 823.301 167.753 823.91 168.477C824.52 169.201 824.824 170.237 824.824 171.586V172.188H819.098C819.118 173.021 819.361 173.695 819.824 174.211C820.293 174.721 820.887 174.977 821.605 174.977C822.116 174.977 822.548 174.872 822.902 174.664C823.257 174.456 823.566 174.18 823.832 173.836L824.715 174.523C824.007 175.612 822.944 176.156 821.527 176.156ZM821.348 168.578C820.764 168.578 820.275 168.792 819.879 169.219C819.483 169.641 819.238 170.234 819.145 171H823.379V170.891C823.337 170.156 823.139 169.589 822.785 169.188C822.431 168.781 821.952 168.578 821.348 168.578ZM830.184 174.039L832.277 167.547H833.754L830.723 176H829.621L826.559 167.547H828.035L830.184 174.039ZM839.543 176.156C838.397 176.156 837.465 175.781 836.746 175.031C836.027 174.276 835.668 173.268 835.668 172.008V171.742C835.668 170.904 835.827 170.156 836.145 169.5C836.467 168.839 836.915 168.323 837.488 167.953C838.066 167.578 838.691 167.391 839.363 167.391C840.462 167.391 841.316 167.753 841.926 168.477C842.535 169.201 842.84 170.237 842.84 171.586V172.188H837.113C837.134 173.021 837.376 173.695 837.84 174.211C838.309 174.721 838.902 174.977 839.621 174.977C840.132 174.977 840.564 174.872 840.918 174.664C841.272 174.456 841.582 174.18 841.848 173.836L842.73 174.523C842.022 175.612 840.96 176.156 839.543 176.156ZM839.363 168.578C838.78 168.578 838.29 168.792 837.895 169.219C837.499 169.641 837.254 170.234 837.16 171H841.395V170.891C841.353 170.156 841.155 169.589 840.801 169.188C840.447 168.781 839.967 168.578 839.363 168.578ZM847.09 176H845.645V164H847.09V176ZM850.027 171.695C850.027 170.867 850.189 170.122 850.512 169.461C850.84 168.799 851.293 168.289 851.871 167.93C852.454 167.57 853.118 167.391 853.863 167.391C855.014 167.391 855.944 167.789 856.652 168.586C857.366 169.383 857.723 170.443 857.723 171.766V171.867C857.723 172.69 857.564 173.43 857.246 174.086C856.934 174.737 856.483 175.245 855.895 175.609C855.311 175.974 854.639 176.156 853.879 176.156C852.733 176.156 851.803 175.758 851.09 174.961C850.382 174.164 850.027 173.109 850.027 171.797V171.695ZM851.48 171.867C851.48 172.805 851.697 173.557 852.129 174.125C852.566 174.693 853.15 174.977 853.879 174.977C854.613 174.977 855.197 174.69 855.629 174.117C856.061 173.539 856.277 172.732 856.277 171.695C856.277 170.768 856.056 170.018 855.613 169.445C855.176 168.867 854.592 168.578 853.863 168.578C853.15 168.578 852.574 168.862 852.137 169.43C851.699 169.997 851.48 170.81 851.48 171.867ZM867.676 171.867C867.676 173.154 867.382 174.19 866.793 174.977C866.204 175.763 865.408 176.156 864.402 176.156C863.376 176.156 862.569 175.831 861.98 175.18V179.25H860.535V167.547H861.855L861.926 168.484C862.514 167.755 863.332 167.391 864.379 167.391C865.395 167.391 866.197 167.773 866.785 168.539C867.379 169.305 867.676 170.37 867.676 171.734V171.867ZM866.23 171.703C866.23 170.75 866.027 169.997 865.621 169.445C865.215 168.893 864.658 168.617 863.949 168.617C863.074 168.617 862.418 169.005 861.98 169.781V173.82C862.413 174.591 863.074 174.977 863.965 174.977C864.658 174.977 865.207 174.703 865.613 174.156C866.025 173.604 866.23 172.786 866.23 171.703ZM871.879 167.547L871.918 168.484C872.538 167.755 873.374 167.391 874.426 167.391C875.608 167.391 876.413 167.844 876.84 168.75C877.121 168.344 877.486 168.016 877.934 167.766C878.387 167.516 878.921 167.391 879.535 167.391C881.389 167.391 882.332 168.372 882.363 170.336V176H880.918V170.422C880.918 169.818 880.78 169.367 880.504 169.07C880.228 168.768 879.764 168.617 879.113 168.617C878.577 168.617 878.132 168.779 877.777 169.102C877.423 169.419 877.217 169.849 877.16 170.391V176H875.707V170.461C875.707 169.232 875.105 168.617 873.902 168.617C872.954 168.617 872.306 169.021 871.957 169.828V176H870.512V167.547H871.879ZM889.059 176.156C887.913 176.156 886.98 175.781 886.262 175.031C885.543 174.276 885.184 173.268 885.184 172.008V171.742C885.184 170.904 885.342 170.156 885.66 169.5C885.983 168.839 886.431 168.323 887.004 167.953C887.582 167.578 888.207 167.391 888.879 167.391C889.978 167.391 890.832 167.753 891.441 168.477C892.051 169.201 892.355 170.237 892.355 171.586V172.188H886.629C886.65 173.021 886.892 173.695 887.355 174.211C887.824 174.721 888.418 174.977 889.137 174.977C889.647 174.977 890.079 174.872 890.434 174.664C890.788 174.456 891.098 174.18 891.363 173.836L892.246 174.523C891.538 175.612 890.475 176.156 889.059 176.156ZM888.879 168.578C888.296 168.578 887.806 168.792 887.41 169.219C887.014 169.641 886.77 170.234 886.676 171H890.91V170.891C890.868 170.156 890.671 169.589 890.316 169.188C889.962 168.781 889.483 168.578 888.879 168.578ZM896.402 167.547L896.449 168.609C897.095 167.797 897.939 167.391 898.98 167.391C900.767 167.391 901.668 168.398 901.684 170.414V176H900.238V170.406C900.233 169.797 900.092 169.346 899.816 169.055C899.546 168.763 899.121 168.617 898.543 168.617C898.074 168.617 897.663 168.742 897.309 168.992C896.954 169.242 896.678 169.57 896.48 169.977V176H895.035V167.547H896.402ZM906.824 165.5V167.547H908.402V168.664H906.824V173.906C906.824 174.245 906.895 174.5 907.035 174.672C907.176 174.839 907.415 174.922 907.754 174.922C907.921 174.922 908.15 174.891 908.441 174.828V176C908.061 176.104 907.691 176.156 907.332 176.156C906.686 176.156 906.199 175.961 905.871 175.57C905.543 175.18 905.379 174.625 905.379 173.906V168.664H903.84V167.547H905.379V165.5H906.824Z" fill="#1A1C1E"/>
<rect x="334.594" y="151" width="38.3756" height="40" rx="19.1878" fill="#AD6DA9"/>
<rect x="677.096" y="151" width="38.3756" height="40" rx="19.1878" fill="#E292DD"/>
<path d="M1125 141.5H1250C1266.29 141.5 1279.5 154.708 1279.5 171C1279.5 187.292 1266.29 200.5 1250 200.5H1125C1108.71 200.5 1095.5 187.292 1095.5 171C1095.5 154.708 1108.71 141.5 1125 141.5Z" fill="#FCFCFC" stroke="#F67A7A"/>
<path d="M1162.59 170.977H1157.82V176H1156.32V164.625H1163.37V165.859H1157.82V169.75H1162.59V170.977ZM1167.51 176H1166.06V167.547H1167.51V176ZM1165.95 165.305C1165.95 165.07 1166.02 164.872 1166.16 164.711C1166.3 164.549 1166.52 164.469 1166.8 164.469C1167.08 164.469 1167.29 164.549 1167.44 164.711C1167.58 164.872 1167.66 165.07 1167.66 165.305C1167.66 165.539 1167.58 165.734 1167.44 165.891C1167.29 166.047 1167.08 166.125 1166.8 166.125C1166.52 166.125 1166.3 166.047 1166.16 165.891C1166.02 165.734 1165.95 165.539 1165.95 165.305ZM1172.2 167.547L1172.24 168.609C1172.89 167.797 1173.73 167.391 1174.77 167.391C1176.56 167.391 1177.46 168.398 1177.48 170.414V176H1176.03V170.406C1176.03 169.797 1175.89 169.346 1175.61 169.055C1175.34 168.763 1174.91 168.617 1174.34 168.617C1173.87 168.617 1173.46 168.742 1173.1 168.992C1172.75 169.242 1172.47 169.57 1172.27 169.977V176H1170.83V167.547H1172.2ZM1185.88 176C1185.79 175.833 1185.72 175.536 1185.67 175.109C1185 175.807 1184.2 176.156 1183.27 176.156C1182.43 176.156 1181.75 175.922 1181.21 175.453C1180.68 174.979 1180.41 174.38 1180.41 173.656C1180.41 172.776 1180.75 172.094 1181.41 171.609C1182.09 171.12 1183.03 170.875 1184.24 170.875H1185.65V170.211C1185.65 169.706 1185.5 169.305 1185.2 169.008C1184.89 168.706 1184.45 168.555 1183.86 168.555C1183.34 168.555 1182.91 168.685 1182.56 168.945C1182.21 169.206 1182.04 169.521 1182.04 169.891H1180.59C1180.59 169.469 1180.73 169.062 1181.03 168.672C1181.33 168.276 1181.74 167.964 1182.25 167.734C1182.77 167.505 1183.33 167.391 1183.95 167.391C1184.92 167.391 1185.68 167.635 1186.23 168.125C1186.79 168.609 1187.07 169.279 1187.09 170.133V174.023C1187.09 174.799 1187.19 175.417 1187.39 175.875V176H1185.88ZM1183.48 174.898C1183.93 174.898 1184.36 174.781 1184.77 174.547C1185.17 174.312 1185.47 174.008 1185.65 173.633V171.898H1184.52C1182.74 171.898 1181.86 172.417 1181.86 173.453C1181.86 173.906 1182.01 174.26 1182.31 174.516C1182.61 174.771 1183 174.898 1183.48 174.898ZM1191.93 176H1190.48V164H1191.93V176ZM1202.18 165.5V167.547H1203.76V168.664H1202.18V173.906C1202.18 174.245 1202.25 174.5 1202.39 174.672C1202.53 174.839 1202.77 174.922 1203.11 174.922C1203.28 174.922 1203.51 174.891 1203.8 174.828V176C1203.42 176.104 1203.05 176.156 1202.69 176.156C1202.04 176.156 1201.55 175.961 1201.23 175.57C1200.9 175.18 1200.73 174.625 1200.73 173.906V168.664H1199.2V167.547H1200.73V165.5H1202.18ZM1209.96 176.156C1208.82 176.156 1207.88 175.781 1207.16 175.031C1206.45 174.276 1206.09 173.268 1206.09 172.008V171.742C1206.09 170.904 1206.24 170.156 1206.56 169.5C1206.89 168.839 1207.33 168.323 1207.91 167.953C1208.48 167.578 1209.11 167.391 1209.78 167.391C1210.88 167.391 1211.73 167.753 1212.34 168.477C1212.95 169.201 1213.26 170.237 1213.26 171.586V172.188H1207.53C1207.55 173.021 1207.79 173.695 1208.26 174.211C1208.73 174.721 1209.32 174.977 1210.04 174.977C1210.55 174.977 1210.98 174.872 1211.34 174.664C1211.69 174.456 1212 174.18 1212.27 173.836L1213.15 174.523C1212.44 175.612 1211.38 176.156 1209.96 176.156ZM1209.78 168.578C1209.2 168.578 1208.71 168.792 1208.31 169.219C1207.92 169.641 1207.67 170.234 1207.58 171H1211.81V170.891C1211.77 170.156 1211.57 169.589 1211.22 169.188C1210.86 168.781 1210.39 168.578 1209.78 168.578ZM1220.86 173.758C1220.86 173.367 1220.71 173.065 1220.41 172.852C1220.12 172.633 1219.61 172.445 1218.88 172.289C1218.15 172.133 1217.57 171.945 1217.13 171.727C1216.71 171.508 1216.39 171.247 1216.18 170.945C1215.98 170.643 1215.88 170.284 1215.88 169.867C1215.88 169.174 1216.17 168.589 1216.75 168.109C1217.34 167.63 1218.09 167.391 1219 167.391C1219.96 167.391 1220.73 167.638 1221.33 168.133C1221.93 168.628 1222.23 169.26 1222.23 170.031H1220.77C1220.77 169.635 1220.6 169.294 1220.27 169.008C1219.93 168.721 1219.51 168.578 1219 168.578C1218.47 168.578 1218.06 168.693 1217.77 168.922C1217.47 169.151 1217.32 169.451 1217.32 169.82C1217.32 170.169 1217.46 170.432 1217.73 170.609C1218.01 170.786 1218.51 170.956 1219.23 171.117C1219.95 171.279 1220.54 171.471 1220.98 171.695C1221.43 171.919 1221.76 172.19 1221.98 172.508C1222.2 172.82 1222.3 173.203 1222.3 173.656C1222.3 174.411 1222 175.018 1221.4 175.477C1220.79 175.93 1220.01 176.156 1219.05 176.156C1218.37 176.156 1217.77 176.036 1217.25 175.797C1216.73 175.557 1216.32 175.224 1216.02 174.797C1215.73 174.365 1215.59 173.898 1215.59 173.398H1217.03C1217.06 173.883 1217.25 174.268 1217.61 174.555C1217.97 174.836 1218.45 174.977 1219.05 174.977C1219.59 174.977 1220.03 174.867 1220.36 174.648C1220.69 174.424 1220.86 174.128 1220.86 173.758ZM1227.15 165.5V167.547H1228.73V168.664H1227.15V173.906C1227.15 174.245 1227.22 174.5 1227.36 174.672C1227.5 174.839 1227.74 174.922 1228.08 174.922C1228.24 174.922 1228.47 174.891 1228.77 174.828V176C1228.39 176.104 1228.02 176.156 1227.66 176.156C1227.01 176.156 1226.52 175.961 1226.2 175.57C1225.87 175.18 1225.7 174.625 1225.7 173.906V168.664H1224.16V167.547H1225.7V165.5H1227.15ZM1232.99 176H1231.55V167.547H1232.99V176ZM1231.43 165.305C1231.43 165.07 1231.5 164.872 1231.64 164.711C1231.79 164.549 1232 164.469 1232.28 164.469C1232.56 164.469 1232.78 164.549 1232.92 164.711C1233.07 164.872 1233.14 165.07 1233.14 165.305C1233.14 165.539 1233.07 165.734 1232.92 165.891C1232.78 166.047 1232.56 166.125 1232.28 166.125C1232 166.125 1231.79 166.047 1231.64 165.891C1231.5 165.734 1231.43 165.539 1231.43 165.305ZM1237.68 167.547L1237.73 168.609C1238.37 167.797 1239.22 167.391 1240.26 167.391C1242.04 167.391 1242.95 168.398 1242.96 170.414V176H1241.52V170.406C1241.51 169.797 1241.37 169.346 1241.09 169.055C1240.82 168.763 1240.4 168.617 1239.82 168.617C1239.35 168.617 1238.94 168.742 1238.59 168.992C1238.23 169.242 1237.96 169.57 1237.76 169.977V176H1236.31V167.547H1237.68ZM1245.8 171.703C1245.8 170.385 1246.1 169.339 1246.71 168.562C1247.32 167.781 1248.13 167.391 1249.13 167.391C1250.16 167.391 1250.97 167.755 1251.55 168.484L1251.62 167.547H1252.94V175.797C1252.94 176.891 1252.61 177.753 1251.96 178.383C1251.32 179.013 1250.45 179.328 1249.35 179.328C1248.74 179.328 1248.15 179.198 1247.56 178.938C1246.98 178.677 1246.53 178.32 1246.23 177.867L1246.98 177C1247.6 177.766 1248.35 178.148 1249.25 178.148C1249.95 178.148 1250.5 177.951 1250.89 177.555C1251.29 177.159 1251.48 176.602 1251.48 175.883V175.156C1250.91 175.823 1250.12 176.156 1249.12 176.156C1248.13 176.156 1247.33 175.758 1246.71 174.961C1246.1 174.164 1245.8 173.078 1245.8 171.703ZM1247.25 171.867C1247.25 172.82 1247.45 173.57 1247.84 174.117C1248.23 174.659 1248.77 174.93 1249.48 174.93C1250.39 174.93 1251.06 174.516 1251.48 173.688V169.828C1251.04 169.021 1250.38 168.617 1249.49 168.617C1248.79 168.617 1248.24 168.891 1247.84 169.438C1247.45 169.984 1247.25 170.794 1247.25 171.867Z" fill="#1A1C1E"/>
<rect x="1105" y="151" width="40" height="40" rx="20" fill="#F67A7A"/>
<path d="M1007 256.5H1086C1102.29 256.5 1115.5 269.708 1115.5 286C1115.5 302.292 1102.29 315.5 1086 315.5H1007C990.708 315.5 977.5 302.292 977.5 286C977.5 269.708 990.708 256.5 1007 256.5Z" fill="#FCFCFC" stroke="#F67A7A"/>
<path d="M1038.32 291V279.625H1041.53C1042.52 279.625 1043.4 279.844 1044.16 280.281C1044.92 280.719 1045.5 281.341 1045.91 282.148C1046.33 282.956 1046.54 283.883 1046.55 284.93V285.656C1046.55 286.729 1046.34 287.669 1045.92 288.477C1045.51 289.284 1044.92 289.904 1044.15 290.336C1043.38 290.768 1042.49 290.99 1041.47 291H1038.32ZM1039.82 280.859V289.773H1041.4C1042.55 289.773 1043.45 289.414 1044.09 288.695C1044.74 287.977 1045.06 286.953 1045.06 285.625V284.961C1045.06 283.669 1044.76 282.667 1044.15 281.953C1043.54 281.234 1042.68 280.87 1041.57 280.859H1039.82ZM1053.1 291.156C1051.96 291.156 1051.02 290.781 1050.3 290.031C1049.59 289.276 1049.23 288.268 1049.23 287.008V286.742C1049.23 285.904 1049.39 285.156 1049.7 284.5C1050.03 283.839 1050.47 283.323 1051.05 282.953C1051.62 282.578 1052.25 282.391 1052.92 282.391C1054.02 282.391 1054.88 282.753 1055.48 283.477C1056.09 284.201 1056.4 285.237 1056.4 286.586V287.188H1050.67C1050.69 288.021 1050.93 288.695 1051.4 289.211C1051.87 289.721 1052.46 289.977 1053.18 289.977C1053.69 289.977 1054.12 289.872 1054.48 289.664C1054.83 289.456 1055.14 289.18 1055.41 288.836L1056.29 289.523C1055.58 290.612 1054.52 291.156 1053.1 291.156ZM1052.92 283.578C1052.34 283.578 1051.85 283.792 1051.45 284.219C1051.06 284.641 1050.81 285.234 1050.72 286H1054.95V285.891C1054.91 285.156 1054.71 284.589 1054.36 284.188C1054.01 283.781 1053.53 283.578 1052.92 283.578ZM1066.22 286.867C1066.22 288.154 1065.92 289.19 1065.34 289.977C1064.75 290.763 1063.95 291.156 1062.95 291.156C1061.92 291.156 1061.11 290.831 1060.52 290.18V294.25H1059.08V282.547H1060.4L1060.47 283.484C1061.06 282.755 1061.88 282.391 1062.92 282.391C1063.94 282.391 1064.74 282.773 1065.33 283.539C1065.92 284.305 1066.22 285.37 1066.22 286.734V286.867ZM1064.77 286.703C1064.77 285.75 1064.57 284.997 1064.16 284.445C1063.76 283.893 1063.2 283.617 1062.49 283.617C1061.62 283.617 1060.96 284.005 1060.52 284.781V288.82C1060.96 289.591 1061.62 289.977 1062.51 289.977C1063.2 289.977 1063.75 289.703 1064.16 289.156C1064.57 288.604 1064.77 287.786 1064.77 286.703ZM1070.63 291H1069.19V279H1070.63V291ZM1073.57 286.695C1073.57 285.867 1073.73 285.122 1074.05 284.461C1074.38 283.799 1074.84 283.289 1075.41 282.93C1076 282.57 1076.66 282.391 1077.41 282.391C1078.56 282.391 1079.49 282.789 1080.2 283.586C1080.91 284.383 1081.27 285.443 1081.27 286.766V286.867C1081.27 287.69 1081.11 288.43 1080.79 289.086C1080.48 289.737 1080.03 290.245 1079.44 290.609C1078.85 290.974 1078.18 291.156 1077.42 291.156C1076.28 291.156 1075.35 290.758 1074.63 289.961C1073.92 289.164 1073.57 288.109 1073.57 286.797V286.695ZM1075.02 286.867C1075.02 287.805 1075.24 288.557 1075.67 289.125C1076.11 289.693 1076.69 289.977 1077.42 289.977C1078.16 289.977 1078.74 289.69 1079.17 289.117C1079.6 288.539 1079.82 287.732 1079.82 286.695C1079.82 285.768 1079.6 285.018 1079.16 284.445C1078.72 283.867 1078.14 283.578 1077.41 283.578C1076.69 283.578 1076.12 283.862 1075.68 284.43C1075.24 284.997 1075.02 285.81 1075.02 286.867ZM1086.72 288.883L1088.69 282.547H1090.23L1086.84 292.305C1086.31 293.711 1085.47 294.414 1084.33 294.414L1084.05 294.391L1083.52 294.289V293.117L1083.91 293.148C1084.4 293.148 1084.78 293.049 1085.05 292.852C1085.32 292.654 1085.55 292.292 1085.73 291.766L1086.05 290.906L1083.03 282.547H1084.61L1086.72 288.883Z" fill="#1A1C1E"/>
<rect x="987" y="266" width="40" height="40" rx="20" fill="#FF5353"/>
</svg>
