<svg width="320" height="726" viewBox="0 0 320 726" fill="none" xmlns="http://www.w3.org/2000/svg">
<mask id="mask0" mask-type="alpha" maskUnits="userSpaceOnUse" x="-410" y="-444" width="1154" height="1162">
<path d="M491.899 362.907C674.688 445.117 724.076 638.106 706.743 717.706L744 681.369V-444L-406.418 53.961C-431.544 407.896 -321.521 515.222 -169.06 492.717C-0.129575 465.896 222.507 252.992 491.899 362.907Z" fill="#0E8EE2"/>
</mask>
<g mask="url(#mask0)">
<rect x="-113.479" y="-7.15723" width="607.825" height="465.26" fill="#376EB2"/>
<rect width="1232.51" height="699.817" transform="matrix(-1 0 0 1 679.297 -36.0518)" fill="url(#paint0_linear)"/>
<rect width="1232.51" height="699.817" transform="matrix(-1 0 0 1 679.297 -36.0518)" fill="url(#paint1_linear)"/>
<rect width="1232.51" height="699.817" transform="matrix(-1 0 0 1 679.297 -36.0518)" fill="url(#paint2_linear)"/>
<path opacity="0.67" fill-rule="evenodd" clip-rule="evenodd" d="M472.088 552.861C490.616 271.291 176.394 213.977 76.3732 408.675C-23.6474 603.372 -149.004 397.036 -149.004 397.036L-181.834 646.089L448.673 730.486L472.088 552.861Z" fill="url(#paint3_radial)"/>
<path opacity="0.7" fill-rule="evenodd" clip-rule="evenodd" d="M276.638 12.3876C277.345 12.0751 277.664 11.2491 277.352 10.5425V10.5425C277.039 9.83577 276.213 9.51623 275.506 9.82886L68.2833 101.502C67.5768 101.814 67.2574 102.64 67.5698 103.347V103.347C67.8823 104.054 68.7086 104.373 69.4153 104.06L276.638 12.3876Z" fill="#B9EEE8"/>
<path opacity="0.25" d="M684.724 95.0758C622.632 2.46333 485.681 102.373 408.976 134.191L248.303 220.009L266.887 216.673L696.444 129.5C694.644 112.341 684.724 95.0758 684.724 95.0758Z" fill="url(#paint4_radial)"/>
<path opacity="0.8" fill-rule="evenodd" clip-rule="evenodd" d="M-440.043 307.976C-343.79 340.383 -207.37 355.645 -102.576 218.644C2.21795 81.6436 51.2385 35.0933 99.4437 42.3034C147.784 49.4778 436.904 89.5847 503.809 58.1262C570.578 26.7035 561.449 -7.78237 561.449 -7.78237L476.64 -328.163L-537.381 -59.7385L-440.043 307.976Z" fill="url(#paint5_linear)"/>
<path opacity="0.67" fill-rule="evenodd" clip-rule="evenodd" d="M497.721 430.88C412.826 378.839 284.714 332.393 148.211 430.88C11.7082 529.368 -47.5923 559.586 -92.6271 541.539C-137.522 523.492 -407.172 418.43 -479.899 430.88C-552.626 443.331 -552.626 476.627 -552.626 476.627V664.508H497.721V430.88Z" fill="url(#paint6_linear)"/>
<path fill-rule="evenodd" clip-rule="evenodd" d="M280.753 495.346L279.621 492.787L210.547 523.345L211.678 525.904L280.753 495.346Z" fill="#B9EEE8"/>
<path fill-rule="evenodd" clip-rule="evenodd" d="M345.384 179.89L344.818 178.61L300.82 198.077L301.386 199.356L345.384 179.89Z" fill="#B9EEE8"/>
<path fill-rule="evenodd" clip-rule="evenodd" d="M388.433 460.768L387.867 459.489L277.476 508.324L278.041 509.604L388.433 460.768Z" fill="#B9EEE8"/>
<path opacity="0.8" fill-rule="evenodd" clip-rule="evenodd" d="M-102.072 -130.887C39.1164 -29.1676 -57.033 142.883 -188.911 114.053C-320.789 85.2226 -271.89 225.888 -271.89 225.888L-430.269 126.829L-222.783 -206.387L-102.072 -130.887Z" fill="url(#paint7_radial)"/>
<path opacity="0.1" fill-rule="evenodd" clip-rule="evenodd" d="M18.4 -1.38434C19.1065 -1.69688 19.4259 -2.52291 19.1135 -3.22946V-3.22946C18.801 -3.9362 17.9747 -4.25574 17.268 -3.94311L-189.955 87.7297C-190.661 88.0423 -190.981 88.8683 -190.668 89.5748V89.5748C-190.356 90.2816 -189.53 90.6011 -188.823 90.2885L18.4 -1.38434Z" fill="#B9EEE8"/>
<path fill-rule="evenodd" clip-rule="evenodd" d="M186.059 336.164C185.647 336.455 185.095 336.75 184.536 336.765L184.117 336.776L166.936 332.617C166.09 332.359 165.516 331.815 165.357 331.119C165.199 330.424 165.32 329.721 165.864 329.147L177.975 316.368C178.38 315.797 179.215 315.635 179.917 315.756C180.764 316.013 181.338 316.558 181.496 317.253L186.566 334.191C186.724 334.887 186.603 335.59 186.059 336.164ZM181.466 331.809L178.54 321.811L171.328 329.421L181.466 331.809Z" fill="white"/>
</g>
<path fill-rule="evenodd" clip-rule="evenodd" d="M87.4086 96.5304C81.7393 96.5304 77.1434 91.9345 77.1434 86.2652C77.1434 80.5959 81.7393 76 87.4086 76C93.0779 76 97.6738 80.5959 97.6738 86.2652C97.6738 91.9345 93.0779 96.5304 87.4086 96.5304Z" fill="url(#paint8_linear)"/>
<g filter="url(#filter0_d)">
<path fill-rule="evenodd" clip-rule="evenodd" d="M306.843 139.187C292.015 139.187 279.995 127.164 279.995 112.332C279.995 97.5008 292.015 85.4775 306.843 85.4775C321.67 85.4775 333.69 97.5008 333.69 112.332C333.69 127.164 321.67 139.187 306.843 139.187Z" fill="url(#paint9_linear)"/>
<path opacity="0.41" fill-rule="evenodd" clip-rule="evenodd" d="M333.424 112.598C333.5 109.07 332.893 105.542 331.604 102.243C330.96 100.574 330.163 98.9806 329.177 97.5013C328.229 95.9841 327.092 94.6186 325.84 93.3289C323.338 90.7876 320.304 88.7394 316.967 87.4497C313.668 86.1222 310.066 85.5532 306.539 85.7808C310.066 86.0084 313.478 86.8049 316.664 88.1704C319.849 89.5359 322.769 91.5083 325.234 93.9358C326.485 95.1496 327.585 96.4772 328.608 97.8806C329.594 99.284 330.467 100.839 331.149 102.432C332.59 105.618 333.349 109.108 333.424 112.598Z" fill="url(#paint10_linear)"/>
</g>
<defs>
<filter id="filter0_d" x="235.995" y="59.4775" width="123.695" height="123.709" filterUnits="userSpaceOnUse" color-interpolation-filters="sRGB">
<feFlood flood-opacity="0" result="BackgroundImageFix"/>
<feColorMatrix in="SourceAlpha" type="matrix" values="0 0 0 0 0 0 0 0 0 0 0 0 0 0 0 0 0 0 127 0"/>
<feOffset dx="-9" dy="9"/>
<feGaussianBlur stdDeviation="17.5"/>
<feColorMatrix type="matrix" values="0 0 0 0 0.105882 0 0 0 0 0.317647 0 0 0 0 0.647059 0 0 0 0.5 0"/>
<feBlend mode="normal" in2="BackgroundImageFix" result="effect1_dropShadow"/>
<feBlend mode="normal" in="SourceGraphic" in2="effect1_dropShadow" result="shape"/>
</filter>
<linearGradient id="paint0_linear" x1="1834.68" y1="333.917" x2="1226.51" y2="-712.699" gradientUnits="userSpaceOnUse">
<stop stop-color="#81C3F3"/>
<stop offset="1" stop-color="#3055A0"/>
</linearGradient>
<linearGradient id="paint1_linear" x1="1834.68" y1="333.917" x2="1226.51" y2="-712.699" gradientUnits="userSpaceOnUse">
<stop stop-color="#81C3F3"/>
<stop offset="1" stop-color="#3055A0"/>
</linearGradient>
<linearGradient id="paint2_linear" x1="1147.78" y1="253.345" x2="1003.82" y2="-448.879" gradientUnits="userSpaceOnUse">
<stop stop-color="#0095E4"/>
<stop offset="1" stop-color="#8854D0"/>
</linearGradient>
<radialGradient id="paint3_radial" cx="0" cy="0" r="1" gradientUnits="userSpaceOnUse" gradientTransform="translate(160.141 485.76) rotate(97.5096) scale(392.237 608.771)">
<stop stop-color="#01BEF1"/>
<stop offset="1" stop-color="#376EB2"/>
</radialGradient>
<radialGradient id="paint4_radial" cx="0" cy="0" r="1" gradientUnits="userSpaceOnUse" gradientTransform="translate(464.585 131.028) rotate(-10.175) scale(171.971 37.1317)">
<stop stop-color="#4686C6" stop-opacity="0.01"/>
<stop offset="1" stop-color="#01C0F2"/>
</radialGradient>
<linearGradient id="paint5_linear" x1="-390.525" y1="213.243" x2="-208.314" y2="632.618" gradientUnits="userSpaceOnUse">
<stop stop-color="#0095E4"/>
<stop offset="1" stop-color="#8854D0"/>
</linearGradient>
<linearGradient id="paint6_linear" x1="-651.313" y1="488.961" x2="-626.187" y2="107.587" gradientUnits="userSpaceOnUse">
<stop stop-color="#8854D0" stop-opacity="0.01"/>
<stop offset="1" stop-color="#0097E5"/>
</linearGradient>
<radialGradient id="paint7_radial" cx="0" cy="0" r="1" gradientUnits="userSpaceOnUse" gradientTransform="translate(-206.192 35.46) rotate(-147.976) scale(251.223 346.441)">
<stop stop-color="#00BDF1"/>
<stop offset="1" stop-color="#8854D0"/>
</radialGradient>
<linearGradient id="paint8_linear" x1="101.04" y1="79.6566" x2="93.7266" y2="100.187" gradientUnits="userSpaceOnUse">
<stop stop-color="#00C3F3"/>
<stop offset="1" stop-color="#0090E3"/>
</linearGradient>
<linearGradient id="paint9_linear" x1="342.494" y1="95.0436" x2="323.358" y2="148.75" gradientUnits="userSpaceOnUse">
<stop stop-color="#00C3F3"/>
<stop offset="1" stop-color="#0090E3"/>
</linearGradient>
<linearGradient id="paint10_linear" x1="337.84" y1="90.5169" x2="328.277" y2="117.388" gradientUnits="userSpaceOnUse">
<stop stop-color="#00C3F3"/>
<stop offset="1" stop-color="#0090E3"/>
</linearGradient>
</defs>
</svg>
