<svg width="320" height="948" viewBox="0 0 320 948" fill="none" xmlns="http://www.w3.org/2000/svg">
<mask id="mask0" mask-type="alpha" maskUnits="userSpaceOnUse" x="-818" y="0" width="1754" height="948">
<path d="M-434.828 142.591C-666.466 124.133 -755.044 70.0364 -761.373 51.1412L-818 90.1974V947.755L788.842 948L930.539 474.654C968.728 94.2347 801.503 -21.1216 569.775 3.06747C313.014 31.8955 26.4154 190.914 -434.828 142.591Z" fill="#0E8EE2"/>
</mask>
<g mask="url(#mask0)">
<rect x="-716.257" y="-65.8926" width="1489.71" height="1470.68" fill="#376EB2"/>
<rect width="1873.31" height="1063.66" transform="matrix(-1 0 0 1 947.69 148.603)" fill="url(#paint0_linear)"/>
<rect width="1873.31" height="1304.51" transform="matrix(-1 0 0 1 947.695 -74.6738)" fill="url(#paint1_linear)"/>
<rect width="1873.31" height="1304.51" transform="matrix(-1 0 0 1 947.695 -74.6738)" fill="url(#paint2_linear)"/>
<path opacity="0.8" fill-rule="evenodd" clip-rule="evenodd" d="M-753.615 583.648C-607.319 632.903 -399.972 656.1 -240.694 447.871C-81.4156 239.642 -6.90852 168.889 66.3594 179.848C139.833 190.752 579.271 251.711 680.96 203.897C782.444 156.137 768.569 103.722 768.569 103.722L639.666 -383.23L-901.561 24.7529L-753.615 583.648Z" fill="url(#paint3_linear)"/>
<path opacity="0.8" fill-rule="evenodd" clip-rule="evenodd" d="M535.694 918.774C298.681 801.393 400.029 519.49 604.942 529.898C809.855 540.306 701.529 341.562 701.529 341.562L963.656 450.675L735.478 1001.94L535.694 918.774Z" fill="url(#paint4_radial)"/>
<path fill-rule="evenodd" clip-rule="evenodd" d="M198.011 714.34C197.384 714.782 196.546 715.23 195.696 715.253L195.058 715.27L168.946 708.948C167.66 708.557 166.787 707.73 166.546 706.672C166.305 705.615 166.489 704.547 167.317 703.674L185.724 684.251C186.339 683.384 187.608 683.137 188.676 683.322C189.962 683.713 190.835 684.54 191.076 685.597L198.781 711.342C199.022 712.399 198.838 713.467 198.011 714.34ZM191.029 707.72L186.582 692.524L175.621 704.09L191.029 707.72Z" fill="white"/>
</g>
<defs>
<linearGradient id="paint0_linear" x1="2788.56" y1="507.526" x2="1864.2" y2="-1083.24" gradientUnits="userSpaceOnUse">
<stop stop-color="#81C3F3"/>
<stop offset="1" stop-color="#3055A0"/>
</linearGradient>
<linearGradient id="paint1_linear" x1="2788.56" y1="622.444" x2="1555.15" y2="-1108.28" gradientUnits="userSpaceOnUse">
<stop stop-color="#81C3F3"/>
<stop offset="1" stop-color="#3055A0"/>
</linearGradient>
<linearGradient id="paint2_linear" x1="1744.52" y1="472.252" x2="1421.97" y2="-810.657" gradientUnits="userSpaceOnUse">
<stop stop-color="#0095E4"/>
<stop offset="1" stop-color="#8854D0"/>
</linearGradient>
<linearGradient id="paint3_linear" x1="-678.352" y1="439.662" x2="-401.407" y2="1077.08" gradientUnits="userSpaceOnUse">
<stop stop-color="#0095E4"/>
<stop offset="1" stop-color="#8854D0"/>
</linearGradient>
<radialGradient id="paint4_radial" cx="0" cy="0" r="1" gradientUnits="userSpaceOnUse" gradientTransform="translate(650.414 643.44) rotate(22.6001) scale(381.837 526.561)">
<stop stop-color="#00BDF1"/>
<stop offset="1" stop-color="#8854D0"/>
</radialGradient>
</defs>
</svg>
