<svg width="155" height="153" viewBox="0 0 155 153" fill="none" xmlns="http://www.w3.org/2000/svg">
<path d="M7.41896 145.411L7.84828 148.355L8.47693 145.702L12.8928 130.124H15.3768L19.6853 145.702L20.2986 148.401L20.774 145.396L24.2392 130.124H27.1985L21.7859 152.449H19.1027L14.5028 136.18L14.1501 134.479L13.7975 136.18L9.02892 152.449H6.34565L0.948455 130.124H3.89238L7.41896 145.411ZM36.4289 152.755C34.1801 152.755 32.3503 152.019 30.9397 150.547C29.5291 149.065 28.8238 147.087 28.8238 144.614V144.092C28.8238 142.447 29.1355 140.98 29.7591 139.692C30.3928 138.394 31.2719 137.382 32.3963 136.656C33.531 135.92 34.7576 135.552 36.0762 135.552C38.2331 135.552 39.9095 136.262 41.1054 137.683C42.3014 139.104 42.8994 141.138 42.8994 143.786V144.966H31.6604C31.7012 146.602 32.1766 147.926 33.0863 148.937C34.0063 149.939 35.1716 150.44 36.5822 150.44C37.584 150.44 38.4324 150.236 39.1275 149.827C39.8226 149.418 40.4308 148.876 40.9521 148.202L42.6847 149.551C41.2946 151.687 39.2093 152.755 36.4289 152.755ZM36.0762 137.882C34.9314 137.882 33.9705 138.302 33.1936 139.14C32.4168 139.968 31.9363 141.133 31.7524 142.636H40.0628V142.421C39.981 140.98 39.5926 139.865 38.8975 139.078C38.2024 138.281 37.262 137.882 36.0762 137.882ZM60.241 144.338C60.241 146.873 59.6583 148.912 58.493 150.455C57.3277 151.989 55.7638 152.755 53.8011 152.755C51.7056 152.755 50.0854 152.014 48.9406 150.532L48.8026 152.449H46.196V128.897H49.0326V137.683C50.1774 136.262 51.7567 135.552 53.7705 135.552C55.7842 135.552 57.3635 136.313 58.5083 137.836C59.6634 139.36 60.241 141.445 60.241 144.092V144.338ZM57.4044 144.016C57.4044 142.084 57.0313 140.591 56.2851 139.538C55.5389 138.486 54.4656 137.959 53.0652 137.959C51.1945 137.959 49.8503 138.828 49.0326 140.566V147.742C49.9015 149.479 51.2559 150.348 53.0958 150.348C54.4553 150.348 55.5133 149.822 56.2697 148.769C57.0262 147.716 57.4044 146.132 57.4044 144.016ZM73.4886 148.048C73.4886 147.282 73.1973 146.689 72.6147 146.27C72.0422 145.84 71.0354 145.472 69.5941 145.166C68.163 144.859 67.0232 144.491 66.1748 144.062C65.3366 143.632 64.7131 143.121 64.3042 142.528C63.9055 141.935 63.7062 141.23 63.7062 140.412C63.7062 139.053 64.2786 137.903 65.4235 136.962C66.5786 136.022 68.0506 135.552 69.8394 135.552C71.7202 135.552 73.2433 136.037 74.4086 137.008C75.5841 137.98 76.1719 139.222 76.1719 140.734H73.32C73.32 139.957 72.9878 139.288 72.3233 138.726C71.6691 138.164 70.8411 137.882 69.8394 137.882C68.807 137.882 67.9994 138.107 67.4168 138.557C66.8341 139.007 66.5428 139.595 66.5428 140.32C66.5428 141.005 66.8137 141.521 67.3555 141.869C67.8972 142.217 68.8734 142.549 70.2841 142.866C71.7049 143.183 72.8549 143.561 73.734 144C74.6131 144.44 75.2621 144.971 75.6812 145.595C76.1106 146.208 76.3252 146.96 76.3252 147.849C76.3252 149.331 75.7324 150.522 74.5466 151.421C73.3609 152.311 71.8225 152.755 69.9314 152.755C68.6025 152.755 67.427 152.52 66.4048 152.05C65.3826 151.58 64.5802 150.926 63.9975 150.087C63.4251 149.239 63.1389 148.324 63.1389 147.343H65.9755C66.0266 148.294 66.4048 149.05 67.1101 149.612C67.8257 150.164 68.7661 150.44 69.9314 150.44C71.0047 150.44 71.8633 150.225 72.5073 149.796C73.1615 149.357 73.4886 148.774 73.4886 148.048ZM79.2692 144C79.2692 142.375 79.586 140.913 80.2198 139.615C80.8638 138.317 81.7531 137.315 82.8877 136.61C84.0326 135.904 85.3359 135.552 86.7976 135.552C89.0567 135.552 90.8813 136.334 92.2715 137.898C93.6719 139.462 94.3721 141.542 94.3721 144.138V144.338C94.3721 145.953 94.0603 147.404 93.4368 148.692C92.8235 149.97 91.9393 150.967 90.7842 151.682C89.6393 152.398 88.3207 152.755 86.8283 152.755C84.5795 152.755 82.7549 151.973 81.3544 150.409C79.9643 148.845 79.2692 146.776 79.2692 144.2V144ZM82.1211 144.338C82.1211 146.178 82.5453 147.655 83.3937 148.769C84.2524 149.883 85.3972 150.44 86.8283 150.44C88.2696 150.44 89.4145 149.878 90.2629 148.753C91.1113 147.619 91.5355 146.034 91.5355 144C91.5355 142.181 91.1011 140.709 90.2322 139.584C89.3736 138.45 88.2287 137.882 86.7976 137.882C85.3972 137.882 84.2677 138.44 83.4091 139.554C82.5504 140.668 82.1211 142.263 82.1211 144.338ZM104.584 150.44C105.596 150.44 106.48 150.133 107.236 149.52C107.993 148.907 108.412 148.14 108.494 147.22H111.177C111.126 148.171 110.799 149.075 110.196 149.934C109.593 150.793 108.785 151.478 107.773 151.989C106.771 152.5 105.708 152.755 104.584 152.755C102.325 152.755 100.526 152.004 99.1867 150.501C97.8578 148.989 97.1934 146.924 97.1934 144.307V143.832C97.1934 142.217 97.4898 140.78 98.0827 139.523C98.6756 138.266 99.524 137.29 100.628 136.594C101.742 135.899 103.056 135.552 104.569 135.552C106.429 135.552 107.972 136.109 109.199 137.223C110.436 138.337 111.095 139.784 111.177 141.562H108.494C108.412 140.489 108.003 139.61 107.267 138.925C106.541 138.23 105.642 137.882 104.569 137.882C103.127 137.882 102.008 138.404 101.211 139.446C100.424 140.479 100.03 141.976 100.03 143.939V144.476C100.03 146.387 100.424 147.859 101.211 148.891C101.998 149.924 103.122 150.44 104.584 150.44ZM118.997 144.767L117.218 146.622V152.449H114.382V128.897H117.218V143.142L118.736 141.317L123.903 135.858H127.353L120.898 142.789L128.105 152.449H124.777L118.997 144.767ZM136.86 152.755C134.611 152.755 132.781 152.019 131.371 150.547C129.96 149.065 129.255 147.087 129.255 144.614V144.092C129.255 142.447 129.566 140.98 130.19 139.692C130.824 138.394 131.703 137.382 132.827 136.656C133.962 135.92 135.188 135.552 136.507 135.552C138.664 135.552 140.34 136.262 141.536 137.683C142.732 139.104 143.33 141.138 143.33 143.786V144.966H132.091C132.132 146.602 132.607 147.926 133.517 148.937C134.437 149.939 135.602 150.44 137.013 150.44C138.015 150.44 138.863 150.236 139.558 149.827C140.253 149.418 140.862 148.876 141.383 148.202L143.116 149.551C141.725 151.687 139.64 152.755 136.86 152.755ZM136.507 137.882C135.362 137.882 134.401 138.302 133.624 139.14C132.848 139.968 132.367 141.133 132.183 142.636H140.494V142.421C140.412 140.98 140.023 139.865 139.328 139.078C138.633 138.281 137.693 137.882 136.507 137.882ZM150.475 131.841V135.858H153.573V138.051H150.475V148.34C150.475 149.004 150.613 149.505 150.889 149.842C151.165 150.169 151.636 150.333 152.3 150.333C152.627 150.333 153.077 150.271 153.649 150.149V152.449C152.903 152.653 152.177 152.755 151.472 152.755C150.204 152.755 149.249 152.372 148.605 151.605C147.961 150.839 147.639 149.75 147.639 148.34V138.051H144.618V135.858H147.639V131.841H150.475Z" fill="#909098"/>
<g clip-path="url(#clip0_432_28)">
<path opacity="0.3" d="M104.492 62.1948H118.414V29.387L102.728 13.9931L92.8838 23.6549L104.492 35.0473V62.1943V62.1948ZM118.451 69.0443H69.8883L58.28 57.6524L63.2027 52.8214L72.7902 62.2309H92.5162L73.0841 43.1235L78.0432 38.2564L97.4754 57.3282V37.9675L87.9247 28.5942L92.8102 23.7989L68.6761 0.00463867H20.1868L34.0723 13.6323V13.6685H62.8719L73.0473 23.6549L58.17 38.256L47.9946 28.2696V20.5184H34.0723V33.9299L58.17 57.5801L48.3617 67.2058L64.0473 82.6002H132.336L118.451 69.0443Z" fill="#231F20"/>
</g>
<defs>
<clipPath id="clip0_432_28">
<rect width="112.15" height="82.9907" fill="white" transform="translate(20.1868)"/>
</clipPath>
</defs>
</svg>
