<svg width="138" height="159" viewBox="0 0 138 159" fill="none" xmlns="http://www.w3.org/2000/svg">
<path d="M13.6497 147.08H9.32582V155.682H5.44658V133.357H13.2971C15.873 133.357 17.8612 133.935 19.2616 135.09C20.662 136.245 21.3622 137.916 21.3622 140.104C21.3622 141.596 20.9993 142.848 20.2735 143.86C19.558 144.862 18.5563 145.634 17.2683 146.175L22.2822 155.483V155.682H18.1269L13.6497 147.08ZM9.32582 143.968H13.3124C14.6208 143.968 15.643 143.64 16.379 142.986C17.115 142.322 17.4829 141.417 17.4829 140.272C17.4829 139.076 17.1405 138.151 16.4556 137.497C15.781 136.843 14.769 136.505 13.4197 136.485H9.32582V143.968ZM32.93 155.989C30.5687 155.989 28.6521 155.247 27.1801 153.765C25.7184 152.273 24.9875 150.29 24.9875 147.816V147.356C24.9875 145.7 25.3044 144.223 25.9382 142.925C26.5821 141.616 27.4817 140.599 28.6367 139.874C29.7918 139.148 31.0798 138.785 32.5007 138.785C34.7597 138.785 36.5026 139.506 37.7292 140.947C38.966 142.388 39.5845 144.427 39.5845 147.065V148.567H28.7441C28.8565 149.937 29.3114 151.021 30.1087 151.818C30.9162 152.615 31.9282 153.014 33.1446 153.014C34.8517 153.014 36.2419 152.324 37.3152 150.944L39.3238 152.861C38.6594 153.852 37.7701 154.624 36.6559 155.176C35.5519 155.718 34.3099 155.989 32.93 155.989ZM32.4853 141.775C31.4631 141.775 30.6351 142.133 30.0014 142.848C29.3778 143.564 28.9792 144.56 28.8054 145.838H35.9046V145.562C35.8228 144.315 35.4906 143.375 34.9079 142.741C34.3253 142.097 33.5177 141.775 32.4853 141.775ZM53.3449 155.682C53.1813 155.365 53.0382 154.849 52.9156 154.133C51.7298 155.37 50.2783 155.989 48.561 155.989C46.8948 155.989 45.5353 155.513 44.4824 154.563C43.4296 153.612 42.9031 152.436 42.9031 151.036C42.9031 149.268 43.5573 147.913 44.8658 146.973C46.1844 146.022 48.0652 145.547 50.5083 145.547H52.7929V144.458C52.7929 143.6 52.5527 142.915 52.0722 142.404C51.5918 141.882 50.8609 141.622 49.8796 141.622C49.0312 141.622 48.3361 141.836 47.7943 142.266C47.2526 142.685 46.9817 143.221 46.9817 143.876H43.2558C43.2558 142.966 43.5573 142.117 44.1604 141.33C44.7635 140.533 45.5813 139.909 46.6137 139.46C47.6564 139.01 48.8165 138.785 50.0943 138.785C52.0365 138.785 53.5851 139.276 54.7402 140.257C55.8953 141.228 56.4881 142.598 56.5188 144.366V151.849C56.5188 153.341 56.7283 154.532 57.1474 155.421V155.682H53.3449ZM49.251 152.999C49.987 152.999 50.6769 152.82 51.3209 152.462C51.9751 152.104 52.4658 151.624 52.7929 151.021V147.893H50.7843C49.4043 147.893 48.3668 148.133 47.6717 148.613C46.9766 149.094 46.629 149.774 46.629 150.653C46.629 151.368 46.8641 151.941 47.3344 152.37C47.8148 152.789 48.4537 152.999 49.251 152.999ZM68.1786 153.014C69.1088 153.014 69.8805 152.743 70.4939 152.201C71.1072 151.66 71.4343 150.99 71.4752 150.193H74.9864C74.9455 151.225 74.6235 152.191 74.0204 153.091C73.4173 153.98 72.5996 154.685 71.5672 155.207C70.5347 155.728 69.4206 155.989 68.2246 155.989C65.9042 155.989 64.0642 155.237 62.7047 153.735C61.3452 152.232 60.6654 150.157 60.6654 147.509V147.126C60.6654 144.601 61.3401 142.582 62.6894 141.07C64.0387 139.547 65.8786 138.785 68.2092 138.785C70.1821 138.785 71.7869 139.363 73.0238 140.518C74.2709 141.662 74.9251 143.17 74.9864 145.041H71.4752C71.4343 144.09 71.1072 143.308 70.4939 142.695C69.8908 142.082 69.119 141.775 68.1786 141.775C66.9724 141.775 66.0422 142.214 65.388 143.094C64.7338 143.962 64.4016 145.286 64.3913 147.065V147.663C64.3913 149.462 64.7133 150.806 65.3573 151.695C66.0115 152.574 66.9519 153.014 68.1786 153.014ZM83.4109 135.059V139.092H86.3395V141.852H83.4109V151.113C83.4109 151.746 83.5336 152.206 83.7789 152.493C84.0345 152.769 84.4843 152.907 85.1282 152.907C85.5576 152.907 85.992 152.856 86.4315 152.753V155.636C85.5831 155.871 84.7654 155.989 83.9783 155.989C81.1161 155.989 79.685 154.409 79.685 151.251V141.852H76.9558V139.092H79.685V135.059H83.4109ZM108.402 133.357H112.266V149.012C112.266 151.148 111.596 152.845 110.257 154.103C108.928 155.36 107.17 155.989 104.983 155.989C102.652 155.989 100.853 155.401 99.5854 154.225C98.3178 153.05 97.6841 151.414 97.6841 149.319H101.548C101.548 150.504 101.839 151.399 102.422 152.002C103.015 152.595 103.868 152.891 104.983 152.891C106.025 152.891 106.853 152.549 107.467 151.864C108.09 151.169 108.402 150.213 108.402 148.997V133.357ZM129.323 149.932C129.323 148.951 128.975 148.194 128.28 147.663C127.595 147.131 126.353 146.595 124.554 146.053C122.755 145.511 121.324 144.908 120.261 144.244C118.227 142.966 117.21 141.3 117.21 139.245C117.21 137.446 117.941 135.964 119.402 134.798C120.874 133.633 122.781 133.05 125.121 133.05C126.675 133.05 128.06 133.337 129.277 133.909C130.493 134.482 131.449 135.299 132.144 136.362C132.839 137.415 133.187 138.586 133.187 139.874H129.323C129.323 138.708 128.955 137.799 128.219 137.144C127.493 136.48 126.45 136.148 125.091 136.148C123.823 136.148 122.837 136.419 122.132 136.96C121.436 137.502 121.089 138.259 121.089 139.23C121.089 140.047 121.467 140.732 122.224 141.284C122.98 141.826 124.227 142.358 125.965 142.879C127.703 143.39 129.098 143.978 130.151 144.642C131.204 145.296 131.975 146.053 132.466 146.911C132.957 147.76 133.202 148.757 133.202 149.901C133.202 151.762 132.486 153.244 131.055 154.348C129.634 155.442 127.703 155.989 125.259 155.989C123.644 155.989 122.157 155.692 120.798 155.099C119.448 154.496 118.395 153.668 117.639 152.615C116.893 151.562 116.52 150.336 116.52 148.935H120.399C120.399 150.203 120.818 151.184 121.656 151.879C122.494 152.574 123.696 152.922 125.259 152.922C126.609 152.922 127.621 152.651 128.295 152.109C128.98 151.557 129.323 150.832 129.323 149.932Z" fill="#909098"/>
<path d="M86.2653 0.00736671C84.4684 -0.0530507 82.5877 0.260214 80.702 0.871566C76.9306 2.09427 72.9785 4.47703 68.9228 7.77615C67.3333 9.06908 65.7294 10.547 64.1202 12.1152C62.5464 10.5868 60.9754 9.14407 59.4211 7.87968C55.3686 4.5832 51.4272 2.20403 47.6644 0.984092C43.9015 -0.235845 40.1574 -0.273646 37.0824 1.50171C34.0074 3.27707 32.1686 6.53606 31.3436 10.4048C30.5187 14.2735 30.605 18.8806 31.4336 24.0384C31.7214 25.8299 32.1364 27.7094 32.6039 29.6242C30.8468 30.1567 29.1405 30.7166 27.5582 31.3346C22.783 33.1997 18.8318 35.431 15.9546 38.0861C13.0773 40.7413 11.2195 43.9638 11.2195 47.5023C11.2195 51.0408 13.0773 54.2588 15.9546 56.914C18.8318 59.5691 22.783 61.8049 27.5582 63.67C29.2502 64.3308 31.082 64.9259 32.973 65.4884C32.2928 68.03 31.7417 70.4962 31.3661 72.8341C30.5369 77.9961 30.4493 82.6038 31.2761 86.4813C32.1029 90.3588 33.9427 93.6362 37.0329 95.4203C40.1231 97.2045 43.884 97.1607 47.6554 95.9379C51.4268 94.7152 55.3743 92.337 59.4301 89.0379C61.0049 87.7568 62.5979 86.2955 64.1922 84.7439C65.7941 86.304 67.3949 87.7736 68.9768 89.0604C73.0293 92.3568 76.9751 94.736 80.738 95.9559C84.5008 97.1759 88.2404 97.2137 91.3154 95.4383C94.3904 93.663 96.2293 90.404 97.0542 86.5353C97.8792 82.6666 97.7883 78.0594 96.9597 72.9016C96.5831 70.5574 96.0317 68.0875 95.3483 65.5379C97.3018 64.9617 99.1915 64.3507 100.934 63.67C105.709 61.8049 109.661 59.5691 112.538 56.914C115.415 54.2588 117.273 51.0408 117.273 47.5023C117.273 43.9638 115.415 40.7413 112.538 38.0861C109.661 35.431 105.709 33.1997 100.934 31.3346C99.3291 30.7077 97.5966 30.1405 95.812 29.6017C96.2832 27.6752 96.7017 25.7822 96.9912 23.9799C97.8205 18.8179 97.9081 14.2057 97.0812 10.3282C96.2545 6.45076 94.4101 3.17782 91.3199 1.39369C89.7748 0.50162 88.0621 0.0677841 86.2653 0.00736671ZM86.0537 4.69745C87.1812 4.72828 88.1431 4.99659 88.9659 5.47162C90.6114 6.42169 91.8278 8.27076 92.4767 11.314C93.1256 14.3572 93.1032 18.4689 92.3372 23.2372C92.0749 24.8698 91.6941 26.6001 91.2614 28.3729C86.5488 27.2387 81.3849 26.3967 75.8814 25.9018C73.1165 22.0711 70.2747 18.5865 67.4104 15.4909C68.9248 14.0127 70.4294 12.6301 71.8979 11.4355C75.6445 8.38793 79.1914 6.31422 82.1513 5.3546C83.6313 4.87478 84.9262 4.66661 86.0537 4.69745ZM42.3216 4.71095C43.4557 4.67929 44.7533 4.8869 46.2375 5.3681C49.206 6.3305 52.7591 8.40328 56.5089 11.4535C57.9476 12.6238 59.4192 13.9763 60.9019 15.4189C58.0169 18.539 55.1552 22.0602 52.3725 25.9243C46.8885 26.4283 41.743 27.2784 37.0509 28.4179C36.6211 26.6536 36.2453 24.9302 35.9842 23.3047C35.2175 18.5322 35.1984 14.4155 35.8492 11.3635C36.4999 8.31149 37.7262 6.45297 39.387 5.49413C40.2173 5.01471 41.1876 4.74261 42.3216 4.71095ZM64.1922 18.8082C66.0692 20.8509 67.9474 23.0871 69.8095 25.4922C67.9796 25.4159 66.1273 25.3707 64.2462 25.3707C62.3276 25.3707 60.44 25.4174 58.5749 25.4967C60.4376 23.0894 62.3144 20.8527 64.1922 18.8082ZM64.2462 30.0248C67.3801 30.0248 70.4347 30.1536 73.4058 30.3714C75.4502 33.3077 77.448 36.4228 79.3517 39.72C81.0243 42.6171 82.538 45.5098 83.9157 48.3665C82.5235 51.2611 80.9844 54.1929 79.2886 57.13C77.7959 59.7155 76.2371 62.1711 74.6526 64.5387C71.2965 64.8192 67.8189 64.9753 64.2462 64.9753C60.5875 64.9753 57.0318 64.81 53.6012 64.5162C52.0431 62.1826 50.5106 59.7597 49.0417 57.2155C47.3498 54.2851 45.8182 51.3631 44.4281 48.4745C45.824 45.5696 47.3625 42.6269 49.0642 39.6795C50.9578 36.3996 52.9499 33.3025 54.9831 30.3804C57.9862 30.1577 61.0762 30.0248 64.2462 30.0248ZM79.3427 30.9475C83.14 31.4214 86.7053 32.0799 90.0236 32.8694C89.0386 36.0984 87.8253 39.4711 86.3553 42.9518C85.4008 41.1118 84.4122 39.2655 83.3441 37.4155C82.0504 35.1747 80.7052 33.0349 79.3427 30.9475ZM48.9067 30.9835C47.5721 33.033 46.2589 35.1289 44.9908 37.3255C43.9089 39.1992 42.8998 41.0703 41.9346 42.9337C40.4772 39.4741 39.2712 36.1205 38.2932 32.9099C41.588 32.1187 45.1342 31.4629 48.9067 30.9835ZM94.5832 34.0937C96.2168 34.588 97.7945 35.1038 99.2417 35.6691C103.644 37.3884 107.126 39.4243 109.383 41.5069C111.639 43.5895 112.619 45.5756 112.619 47.5023C112.619 49.429 111.639 51.4151 109.383 53.4977C107.126 55.5803 103.644 57.6162 99.2417 59.3355C97.6335 59.9637 95.8666 60.5332 94.0295 61.0729C92.7191 57.0198 91.0465 52.7912 89.0559 48.4745C91.3447 43.5185 93.1936 38.6864 94.5832 34.0937ZM33.8327 34.1162C35.2063 38.6629 37.0316 43.4474 39.2879 48.353C37.2843 52.6949 35.6034 56.9474 34.2873 61.0234C32.515 60.4979 30.8079 59.9438 29.2506 59.3355C24.8486 57.6162 21.3666 55.5803 19.1098 53.4977C16.853 51.4151 15.8736 49.429 15.8736 47.5023C15.8736 45.5756 16.853 43.5895 19.1098 41.5069C21.3666 39.4243 24.8486 37.3884 29.2506 35.6691C30.6756 35.1125 32.2268 34.604 33.8327 34.1162ZM64.2462 36.9159C57.9097 36.9159 52.7235 42.102 52.7235 48.4385C52.7235 54.775 57.9097 59.9612 64.2462 59.9612C70.5827 59.9612 75.7688 54.775 75.7688 48.4385C75.7688 42.102 70.5827 36.9159 64.2462 36.9159ZM64.2462 41.5249C68.0918 41.5249 71.1598 44.5929 71.1598 48.4385C71.1598 52.2841 68.0918 55.3521 64.2462 55.3521C60.4006 55.3521 57.3326 52.2841 57.3326 48.4385C57.3326 44.5929 60.4006 41.5249 64.2462 41.5249ZM86.4138 53.8848C87.6224 56.7452 88.673 59.5442 89.5555 62.2432C86.7841 62.8858 83.8331 63.4273 80.729 63.8546C81.6225 62.4288 82.5049 60.9765 83.3666 59.4841C84.4467 57.6133 85.4498 55.745 86.4138 53.8848ZM41.9886 53.8893C42.9576 55.761 43.9669 57.6376 45.0538 59.5201C45.9046 60.9937 46.7734 62.4325 47.6554 63.8411C44.5605 63.4119 41.6185 62.8686 38.8558 62.2252C39.7344 59.5344 40.7855 56.7413 41.9886 53.8893ZM37.528 66.6992C41.6988 67.6873 46.2195 68.4462 51.0131 68.9407C54.2138 73.57 57.5462 77.7275 60.9019 81.3636C59.4016 82.8264 57.9146 84.1993 56.4594 85.383C52.7129 88.4306 49.1615 90.4998 46.2015 91.4594C43.2416 92.419 41.0325 92.2924 39.387 91.3424C37.7414 90.3923 36.5296 88.5432 35.8807 85.5C35.2317 82.4568 35.2497 78.3497 36.0157 73.5813C36.3632 71.4181 36.8825 69.1018 37.528 66.6992ZM90.8878 66.7172C91.5382 69.1332 92.0598 71.4603 92.4092 73.6353C93.1759 78.4078 93.195 82.5201 92.5442 85.5721C91.8934 88.624 90.6717 90.4871 89.0109 91.4459C87.3501 92.4048 85.1243 92.5343 82.1558 91.5719C79.1873 90.6095 75.6342 88.5323 71.8844 85.482C70.4187 84.2898 68.9214 82.9103 67.4104 81.4356C70.788 77.7858 74.1452 73.6057 77.3667 68.9497C82.1724 68.4585 86.7057 67.7041 90.8878 66.7172ZM57.0265 69.4133C59.3927 69.5423 61.7901 69.6294 64.2462 69.6294C66.621 69.6294 68.9407 69.5475 71.2318 69.4268C68.8897 72.5867 66.5024 75.4595 64.1247 78.0463C61.7484 75.4539 59.3655 72.5761 57.0265 69.4133Z" fill="#909098"/>
</svg>
