<svg width="104" height="164" viewBox="0 0 104 164" fill="none" xmlns="http://www.w3.org/2000/svg">
<path d="M71.8712 70.7664C75.6341 70.4355 78.5382 67.0237 78.3534 62.9502C78.1493 58.8767 74.9081 55.6086 70.9767 55.6086H70.7044C68.7464 55.6809 66.8964 56.5519 65.5611 58.0301C64.2258 59.5083 63.5146 61.4728 63.5837 63.4916C63.7166 65.6336 64.5593 67.3545 65.7261 68.6244C61.1853 77.7103 54.3984 84.3803 44.0852 89.9976C37.1654 93.7236 29.8534 95.1338 22.7327 94.1246C16.7723 93.2724 12.1148 90.5256 9.26263 86.118C4.9876 79.4346 4.59866 72.2467 8.16389 65.0254C10.76 59.8224 14.6461 56.0062 17.226 54.1449C16.4506 51.906 15.847 49.6076 15.4207 47.2711C-3.75368 61.4231 -1.79605 80.7947 4.02823 89.9341C8.36808 96.6174 17.226 100.881 26.9332 100.881C29.5358 100.881 32.2518 100.691 34.9031 100.009C51.7536 96.6676 64.4977 86.2583 71.8032 70.91L71.8712 70.7664ZM94.9804 54.0781C84.9556 41.9278 70.1826 35.2445 53.3547 35.2445H51.1411C50.0618 32.7884 47.5272 31.2445 44.675 31.2445H44.4903C40.4065 31.2445 37.2302 34.8635 37.3631 39.0607C37.5024 43.0606 40.7889 46.4023 44.7399 46.4023H45.064C46.4658 46.3436 47.8217 45.8712 48.9708 45.0413C50.1199 44.2114 51.0137 43.0589 51.5462 41.7206H53.9414C63.9208 41.7206 73.3589 44.7315 81.9835 50.5994C88.5662 55.0672 93.3112 60.9552 95.9592 67.966C98.2895 73.6903 98.1534 79.3143 95.755 83.996C92.0763 91.3209 85.8469 95.2006 77.6436 95.2006C72.4611 95.2006 67.4147 93.5298 64.8121 92.3301C63.2596 93.6534 60.6602 95.8622 58.7836 97.2056C64.4912 99.8655 70.2474 101.399 75.8189 101.399C88.4463 101.399 97.8325 94.0711 101.395 86.9901C105.274 78.9835 104.957 65.4932 95.0452 53.9378L94.9804 54.0781ZM28.0319 73.169C28.1205 75.1351 28.9361 76.9916 30.311 78.3571C31.686 79.7225 33.5159 80.4931 35.4249 80.5106H35.6809C36.6541 80.4868 37.6129 80.2626 38.5008 79.8512C39.3887 79.4398 40.1879 78.8496 40.8513 78.1151C41.5147 77.3806 42.0291 76.5168 42.364 75.5745C42.6989 74.6321 42.8477 73.6302 42.8017 72.6277C42.8017 68.621 39.4439 65.2794 35.493 65.2794H35.2207C34.9711 65.2794 34.5822 65.2794 34.2451 65.423C28.8778 56.0764 26.6123 46.0514 27.455 35.2412C27.9639 27.0975 30.5632 20.0299 35.2207 14.1486C39.1068 9.15281 46.4123 6.66327 51.4101 6.54297C65.389 6.26227 71.2295 24.2404 71.6703 31.3782L78.1525 33.3799C76.6486 11.4853 63.4508 0 50.8234 0C38.9739 0 28.0319 8.87545 23.6272 21.8946C17.615 39.2679 21.5659 55.9394 28.9427 69.3061C28.3042 70.1582 27.9152 71.7087 28.0319 73.169Z" fill="#909098"/>
<path d="M15.8814 152.475H10.4415V161.844H7.37159V138.684H15.0383C17.6469 138.684 19.6511 139.278 21.0508 140.466C22.4612 141.653 23.1664 143.382 23.1664 145.651C23.1664 147.093 22.774 148.35 21.9893 149.421C21.2152 150.492 20.1336 151.292 18.7445 151.823L24.1843 161.653V161.844H20.9077L15.8814 152.475ZM10.4415 149.978H15.1338C16.6502 149.978 17.8537 149.585 18.7445 148.8C19.6458 148.016 20.0965 146.966 20.0965 145.651C20.0965 144.22 19.667 143.122 18.8081 142.359C17.9598 141.595 16.7297 141.208 15.1179 141.197H10.4415V149.978ZM35.1188 162.162C32.7859 162.162 30.8878 161.398 29.4245 159.871C27.9611 158.334 27.2294 156.282 27.2294 153.715V153.175C27.2294 151.467 27.5528 149.946 28.1997 148.61C28.8571 147.263 29.7691 146.213 30.9355 145.46C32.1126 144.697 33.3851 144.315 34.753 144.315C36.9905 144.315 38.7295 145.052 39.9702 146.526C41.2109 148 41.8312 150.11 41.8312 152.857V154.081H30.172C30.2145 155.778 30.7075 157.151 31.6513 158.201C32.6057 159.24 33.8145 159.76 35.2779 159.76C36.3171 159.76 37.1972 159.548 37.9183 159.124C38.6394 158.699 39.2703 158.137 39.8111 157.438L41.6085 158.837C40.1664 161.054 38.0032 162.162 35.1188 162.162ZM34.753 146.733C33.5653 146.733 32.5686 147.167 31.7627 148.037C30.9567 148.896 30.4584 150.105 30.2675 151.664H38.8886V151.441C38.8038 149.946 38.4008 148.79 37.6797 147.973C36.9586 147.146 35.9831 146.733 34.753 146.733ZM45.5125 153.095C45.5125 150.455 46.1382 148.334 47.3895 146.733C48.6407 145.121 50.2791 144.315 52.3044 144.315C54.3192 144.315 55.9151 145.004 57.0922 146.383V137.412H60.0348V161.844H57.3308L57.1876 159.998C56.0106 161.441 54.3722 162.162 52.2726 162.162C50.2791 162.162 48.6513 161.345 47.3895 159.712C46.1382 158.079 45.5125 155.948 45.5125 153.318V153.095ZM48.4552 153.429C48.4552 155.38 48.8581 156.907 49.664 158.01C50.4699 159.113 51.5834 159.664 53.0043 159.664C54.8706 159.664 56.2332 158.827 57.0922 157.151V149.246C56.212 147.623 54.86 146.812 53.0361 146.812C51.594 146.812 50.4699 147.369 49.664 148.482C48.8581 149.596 48.4552 151.245 48.4552 153.429ZM76.2183 160.142C75.0731 161.488 73.3923 162.162 71.1761 162.162C69.3416 162.162 67.9418 161.631 66.9769 160.571C66.0225 159.5 65.54 157.92 65.5294 155.831V144.633H68.472V155.751C68.472 158.36 69.5324 159.664 71.6533 159.664C73.9013 159.664 75.3965 158.827 76.1388 157.151V144.633H79.0814V161.844H76.2819L76.2183 160.142ZM90.3181 150.916L94.1356 144.633H97.5713L91.9405 153.143L97.7463 161.844H94.3424L90.3658 155.402L86.3893 161.844H82.9695L88.7752 153.143L83.1445 144.633H86.5484L90.3181 150.916Z" fill="#909098"/>
</svg>
