<svg width="293" height="150" viewBox="0 0 293 150" fill="none" xmlns="http://www.w3.org/2000/svg">
<path d="M81.3586 132.661H71.8468V139.787H82.9652V143H67.8225V119.841H82.8538V123.086H71.8468V129.48H81.3586V132.661ZM93.0248 131.452L96.3015 125.79H100.596L95.3312 134.268L100.771 143H96.5083L93.0725 137.115L89.6527 143H85.3581L90.798 134.268L85.5489 125.79H89.8118L93.0248 131.452ZM119.277 134.57C119.277 137.231 118.672 139.358 117.464 140.948C116.255 142.528 114.632 143.318 112.596 143.318C110.709 143.318 109.198 142.698 108.063 141.457V149.617H104.198V125.79H107.761L107.92 127.539C109.055 126.161 110.597 125.471 112.549 125.471C114.648 125.471 116.292 126.256 117.48 127.826C118.678 129.384 119.277 131.553 119.277 134.331V134.57ZM115.428 134.236C115.428 132.518 115.083 131.155 114.394 130.148C113.715 129.14 112.739 128.637 111.467 128.637C109.887 128.637 108.752 129.289 108.063 130.593V138.228C108.763 139.564 109.908 140.232 111.499 140.232C112.729 140.232 113.689 139.739 114.378 138.753C115.078 137.756 115.428 136.251 115.428 134.236ZM132.55 129.321C132.041 129.236 131.516 129.193 130.975 129.193C129.204 129.193 128.011 129.872 127.396 131.229V143H123.531V125.79H127.221L127.316 127.714C128.25 126.219 129.543 125.471 131.198 125.471C131.749 125.471 132.205 125.546 132.565 125.694L132.55 129.321ZM143.23 143.318C140.78 143.318 138.792 142.549 137.265 141.012C135.748 139.464 134.99 137.406 134.99 134.84V134.363C134.99 132.645 135.319 131.113 135.976 129.766C136.644 128.409 137.578 127.354 138.776 126.601C139.974 125.848 141.31 125.471 142.784 125.471C145.128 125.471 146.936 126.219 148.208 127.714C149.491 129.209 150.133 131.325 150.133 134.061V135.62H138.887C139.004 137.041 139.476 138.165 140.303 138.992C141.141 139.819 142.19 140.232 143.452 140.232C145.223 140.232 146.665 139.517 147.779 138.085L149.862 140.073C149.173 141.102 148.251 141.902 147.095 142.475C145.95 143.037 144.661 143.318 143.23 143.318ZM142.768 128.573C141.708 128.573 140.849 128.944 140.192 129.687C139.545 130.429 139.131 131.463 138.951 132.788H146.315V132.502C146.231 131.208 145.886 130.233 145.281 129.575C144.677 128.907 143.839 128.573 142.768 128.573ZM163.771 138.324C163.771 137.634 163.485 137.109 162.912 136.749C162.35 136.388 161.412 136.07 160.097 135.795C158.782 135.519 157.685 135.169 156.804 134.745C154.875 133.812 153.91 132.46 153.91 130.689C153.91 129.204 154.535 127.963 155.787 126.967C157.038 125.97 158.628 125.471 160.558 125.471C162.616 125.471 164.275 125.98 165.537 126.998C166.809 128.016 167.446 129.337 167.446 130.959H163.58C163.58 130.217 163.305 129.602 162.753 129.114C162.202 128.616 161.47 128.366 160.558 128.366C159.71 128.366 159.015 128.563 158.475 128.955C157.944 129.347 157.679 129.872 157.679 130.53C157.679 131.123 157.929 131.585 158.427 131.913C158.925 132.242 159.933 132.576 161.449 132.916C162.965 133.244 164.153 133.642 165.012 134.108C165.882 134.564 166.523 135.116 166.937 135.763C167.361 136.41 167.573 137.194 167.573 138.117C167.573 139.665 166.931 140.922 165.648 141.887C164.365 142.841 162.684 143.318 160.606 143.318C159.196 143.318 157.939 143.064 156.836 142.555C155.733 142.046 154.875 141.346 154.26 140.455C153.644 139.564 153.337 138.605 153.337 137.576H157.091C157.144 138.488 157.488 139.193 158.125 139.692C158.761 140.179 159.604 140.423 160.654 140.423C161.672 140.423 162.446 140.232 162.976 139.851C163.506 139.458 163.771 138.949 163.771 138.324ZM181.577 138.324C181.577 137.634 181.291 137.109 180.718 136.749C180.156 136.388 179.218 136.07 177.903 135.795C176.588 135.519 175.491 135.169 174.61 134.745C172.68 133.812 171.716 132.46 171.716 130.689C171.716 129.204 172.341 127.963 173.592 126.967C174.844 125.97 176.434 125.471 178.364 125.471C180.421 125.471 182.081 125.98 183.343 126.998C184.615 128.016 185.252 129.337 185.252 130.959H181.386C181.386 130.217 181.111 129.602 180.559 129.114C180.008 128.616 179.276 128.366 178.364 128.366C177.516 128.366 176.821 128.563 176.281 128.955C175.75 129.347 175.485 129.872 175.485 130.53C175.485 131.123 175.734 131.585 176.233 131.913C176.731 132.242 177.739 132.576 179.255 132.916C180.771 133.244 181.959 133.642 182.818 134.108C183.688 134.564 184.329 135.116 184.743 135.763C185.167 136.41 185.379 137.194 185.379 138.117C185.379 139.665 184.737 140.922 183.454 141.887C182.171 142.841 180.49 143.318 178.412 143.318C177.002 143.318 175.745 143.064 174.642 142.555C173.539 142.046 172.68 141.346 172.065 140.455C171.45 139.564 171.143 138.605 171.143 137.576H174.897C174.95 138.488 175.294 139.193 175.931 139.692C176.567 140.179 177.41 140.423 178.46 140.423C179.478 140.423 180.252 140.232 180.782 139.851C181.312 139.458 181.577 138.949 181.577 138.324ZM199.59 119.841H203.598V136.081C203.598 138.297 202.904 140.057 201.515 141.362C200.136 142.666 198.312 143.318 196.043 143.318C193.625 143.318 191.759 142.708 190.444 141.489C189.129 140.269 188.472 138.573 188.472 136.399H192.48C192.48 137.629 192.782 138.557 193.387 139.183C194.002 139.798 194.887 140.105 196.043 140.105C197.125 140.105 197.984 139.75 198.62 139.039C199.267 138.318 199.59 137.327 199.59 136.065V119.841ZM221.293 137.035C221.293 136.017 220.932 135.233 220.211 134.681C219.501 134.13 218.212 133.573 216.346 133.011C214.48 132.449 212.995 131.823 211.892 131.134C209.782 129.809 208.727 128.08 208.727 125.949C208.727 124.082 209.485 122.545 211.002 121.336C212.529 120.127 214.506 119.523 216.935 119.523C218.546 119.523 219.983 119.819 221.245 120.413C222.507 121.007 223.499 121.855 224.22 122.958C224.941 124.051 225.301 125.265 225.301 126.601H221.293C221.293 125.392 220.911 124.448 220.148 123.77C219.395 123.08 218.313 122.736 216.903 122.736C215.588 122.736 214.565 123.017 213.833 123.579C213.112 124.141 212.751 124.925 212.751 125.933C212.751 126.781 213.144 127.492 213.928 128.064C214.713 128.626 216.007 129.178 217.81 129.718C219.612 130.249 221.06 130.858 222.152 131.548C223.244 132.226 224.045 133.011 224.554 133.902C225.063 134.782 225.317 135.816 225.317 137.003C225.317 138.933 224.575 140.471 223.09 141.616C221.616 142.751 219.612 143.318 217.078 143.318C215.402 143.318 213.859 143.011 212.449 142.396C211.049 141.77 209.957 140.911 209.172 139.819C208.398 138.727 208.011 137.454 208.011 136.001H212.036C212.036 137.316 212.47 138.334 213.34 139.055C214.209 139.776 215.455 140.137 217.078 140.137C218.478 140.137 219.527 139.856 220.227 139.294C220.938 138.721 221.293 137.968 221.293 137.035Z" fill="#909098"/>
<rect x="210.358" y="2.45288" width="69.1359" height="69.1359" fill="#BBBABB"/>
<path d="M236.493 16.1568H240.681V38.5326C240.681 41.5565 239.77 43.9222 237.947 45.6295C236.138 47.3368 233.722 48.1904 230.698 48.1904C227.558 48.1904 225.113 47.3874 223.362 45.7814C221.612 44.1754 220.736 41.9255 220.736 39.0318H224.903C224.903 40.8403 225.395 42.251 226.379 43.2638C227.378 44.2766 228.817 44.783 230.698 44.783C232.42 44.783 233.809 44.2405 234.865 43.1553C235.936 42.0702 236.478 40.551 236.493 38.5977V16.1568ZM258.422 33.6711C254.849 32.6438 252.244 31.3851 250.609 29.8948C248.989 28.3901 248.179 26.5381 248.179 24.3388C248.179 21.8502 249.17 19.7957 251.152 18.1752C253.149 16.5402 255.738 15.7228 258.922 15.7228C261.092 15.7228 263.023 16.1423 264.716 16.9815C266.424 17.8207 267.74 18.9782 268.666 20.454C269.607 21.9298 270.077 23.5431 270.077 25.2938H265.888C265.888 23.3839 265.28 21.8864 264.065 20.8013C262.85 19.7016 261.135 19.1518 258.922 19.1518C256.867 19.1518 255.261 19.6076 254.103 20.5191C252.96 21.4162 252.389 22.6677 252.389 24.2737C252.389 25.5614 252.932 26.6538 254.017 27.5509C255.116 28.4335 256.975 29.2437 259.594 29.9816C262.228 30.7195 264.282 31.537 265.758 32.434C267.248 33.3166 268.348 34.3511 269.057 35.5376C269.78 36.724 270.142 38.1202 270.142 39.7262C270.142 42.2872 269.144 44.3417 267.147 45.8899C265.15 47.4236 262.481 48.1904 259.139 48.1904C256.968 48.1904 254.943 47.7781 253.062 46.9533C251.181 46.1142 249.727 44.9711 248.699 43.5243C247.687 42.0774 247.18 40.4352 247.18 38.5977H251.369C251.369 40.5076 252.071 42.0195 253.474 43.1336C254.892 44.2332 256.78 44.783 259.139 44.783C261.338 44.783 263.023 44.3345 264.195 43.4375C265.367 42.5404 265.953 41.3178 265.953 39.7697C265.953 38.2215 265.411 37.0278 264.326 36.1887C263.24 35.335 261.273 34.4958 258.422 33.6711Z" fill="white"/>
<path d="M27.0987 33.7238H9.98048V47.7222H29.8658V51.9814H4.77177V12.482H29.5946V16.7684H9.98048V29.4646H27.0987V33.7238ZM47.0774 33.344L53.5883 22.6282H59.4481L49.8445 37.142L59.7465 51.9814H53.941L47.1588 40.9943L40.3766 51.9814H34.5439L44.4459 37.142L34.8423 22.6282H40.6479L47.0774 33.344ZM91.2549 37.6303C91.2549 42.0975 90.233 45.6966 88.1893 48.4276C86.1456 51.1585 83.3785 52.524 79.888 52.524C76.325 52.524 73.5217 51.3937 71.478 49.1329V63.267H66.4592V22.6282H71.044L71.2881 25.8836C73.3318 23.3516 76.1713 22.0856 79.8066 22.0856C83.3333 22.0856 86.1185 23.4149 88.1622 26.0735C90.224 28.7321 91.2549 32.4307 91.2549 37.1692V37.6303ZM86.2361 37.0606C86.2361 33.7509 85.5307 31.1375 84.12 29.2204C82.7093 27.3033 80.7742 26.3448 78.3145 26.3448C75.2761 26.3448 72.9973 27.6922 71.478 30.387V44.4125C72.9792 47.0892 75.2761 48.4276 78.3687 48.4276C80.7742 48.4276 82.6822 47.4781 84.0929 45.5791C85.5217 43.662 86.2361 40.8225 86.2361 37.0606ZM113.512 27.1315C112.753 27.0049 111.93 26.9416 111.044 26.9416C107.752 26.9416 105.518 28.3433 104.343 31.1466V51.9814H99.3241V22.6282H104.207L104.289 26.0193C105.934 23.3968 108.267 22.0856 111.288 22.0856C112.264 22.0856 113.006 22.2122 113.512 22.4654V27.1315ZM131.456 52.524C127.478 52.524 124.24 51.2218 121.744 48.6175C119.248 45.995 118.001 42.4954 118.001 38.1187V37.1963C118.001 34.2845 118.552 31.6892 119.655 29.4103C120.777 27.1134 122.332 25.323 124.322 24.0389C126.329 22.7367 128.499 22.0856 130.832 22.0856C134.649 22.0856 137.615 23.3426 139.731 25.8565C141.847 28.3704 142.905 31.9695 142.905 36.6537V38.7426H123.019C123.092 41.6364 123.933 43.9785 125.542 45.769C127.17 47.5414 129.232 48.4276 131.728 48.4276C133.5 48.4276 135.001 48.0659 136.231 47.3424C137.461 46.619 138.537 45.6605 139.459 44.4668L142.525 46.8541C140.065 50.6341 136.376 52.524 131.456 52.524ZM130.832 26.2092C128.807 26.2092 127.107 26.9507 125.732 28.4337C124.358 29.8987 123.508 31.9604 123.182 34.6191H137.886V34.2393C137.741 31.6892 137.054 29.7178 135.824 28.3252C134.594 26.9145 132.93 26.2092 130.832 26.2092ZM167.495 44.1955C167.495 42.8391 166.98 41.7901 165.949 41.0486C164.936 40.289 163.155 39.6379 160.605 39.0953C158.073 38.5527 156.056 37.9016 154.555 37.142C153.072 36.3824 151.969 35.4781 151.245 34.4292C150.54 33.3802 150.187 32.1323 150.187 30.6854C150.187 28.28 151.2 26.2453 153.226 24.5814C155.269 22.9175 157.874 22.0856 161.039 22.0856C164.366 22.0856 167.061 22.9447 169.123 24.6628C171.203 26.381 172.243 28.5784 172.243 31.2551H167.197C167.197 29.8806 166.609 28.696 165.434 27.7012C164.276 26.7065 162.811 26.2092 161.039 26.2092C159.212 26.2092 157.783 26.607 156.752 27.4028C155.721 28.1986 155.206 29.2385 155.206 30.5226C155.206 31.7344 155.685 32.6477 156.644 33.2626C157.602 33.8775 159.33 34.4653 161.825 35.026C164.339 35.5867 166.374 36.2558 167.929 37.0335C169.485 37.8112 170.633 38.7517 171.375 39.8549C172.134 40.9401 172.514 42.2694 172.514 43.8428C172.514 46.4653 171.465 48.5723 169.367 50.1638C167.269 51.7373 164.547 52.524 161.201 52.524C158.85 52.524 156.77 52.108 154.962 51.2761C153.153 50.4442 151.733 49.2867 150.703 47.8036C149.69 46.3025 149.183 44.6838 149.183 42.9476H154.202C154.293 44.6296 154.962 45.9679 156.21 46.9626C157.476 47.9393 159.14 48.4276 161.201 48.4276C163.1 48.4276 164.62 48.0478 165.759 47.2882C166.917 46.5105 167.495 45.4796 167.495 44.1955ZM197.81 44.1955C197.81 42.8391 197.295 41.7901 196.264 41.0486C195.251 40.289 193.469 39.6379 190.919 39.0953C188.387 38.5527 186.371 37.9016 184.87 37.142C183.387 36.3824 182.283 35.4781 181.56 34.4292C180.855 33.3802 180.502 32.1323 180.502 30.6854C180.502 28.28 181.515 26.2453 183.54 24.5814C185.584 22.9175 188.188 22.0856 191.353 22.0856C194.681 22.0856 197.376 22.9447 199.438 24.6628C201.518 26.381 202.558 28.5784 202.558 31.2551H197.512C197.512 29.8806 196.924 28.696 195.748 27.7012C194.591 26.7065 193.126 26.2092 191.353 26.2092C189.527 26.2092 188.098 26.607 187.067 27.4028C186.036 28.1986 185.521 29.2385 185.521 30.5226C185.521 31.7344 186 32.6477 186.959 33.2626C187.917 33.8775 189.644 34.4653 192.14 35.026C194.654 35.5867 196.689 36.2558 198.244 37.0335C199.799 37.8112 200.948 38.7517 201.689 39.8549C202.449 40.9401 202.829 42.2694 202.829 43.8428C202.829 46.4653 201.78 48.5723 199.682 50.1638C197.584 51.7373 194.862 52.524 191.516 52.524C189.165 52.524 187.085 52.108 185.277 51.2761C183.468 50.4442 182.048 49.2867 181.017 47.8036C180.005 46.3025 179.498 44.6838 179.498 42.9476H184.517C184.607 44.6296 185.277 45.9679 186.524 46.9626C187.79 47.9393 189.454 48.4276 191.516 48.4276C193.415 48.4276 194.934 48.0478 196.074 47.2882C197.231 46.5105 197.81 45.4796 197.81 44.1955Z" fill="#909098"/>
</svg>
