<svg width="375" height="1388" viewBox="0 0 375 1388" fill="none" xmlns="http://www.w3.org/2000/svg">
<path fill-rule="evenodd" clip-rule="evenodd" d="M295.616 3.25198C361.255 1.14131 432.693 -3.44914 481.428 40.5404C531.734 85.9482 549.345 158.808 542.631 226.216C536.478 288 494.732 337.6 447.789 378.277C404.768 415.555 351.673 450.26 295.616 440.257C243.946 431.037 223.249 372.414 189.558 332.196C160.888 297.973 126.863 269.584 116.308 226.216C102.034 167.571 83.5556 99.1636 121.39 52.1176C160.67 3.27447 232.942 5.26729 295.616 3.25198Z" stroke="#E6EBFF" stroke-width="3" stroke-linecap="round" stroke-linejoin="round" stroke-dasharray="20 20"/>
<path fill-rule="evenodd" clip-rule="evenodd" d="M69.1977 957.224C133.362 955.161 203.194 950.675 250.834 993.664C300.009 1038.04 317.225 1109.24 310.662 1175.12C304.647 1235.5 263.839 1283.97 217.951 1323.73C175.896 1360.16 123.994 1394.07 69.1977 1384.3C18.6892 1375.29 -1.54308 1318 -34.4771 1278.69C-62.503 1245.25 -95.7632 1217.5 -106.081 1175.12C-120.034 1117.81 -138.097 1050.96 -101.113 1004.98C-62.7159 957.246 7.93238 959.193 69.1977 957.224Z" stroke="#E6EBFF" stroke-width="3" stroke-linecap="round" stroke-linejoin="round" stroke-dasharray="20 20"/>
</svg>
