<svg width="664" height="638" viewBox="0 0 664 638" fill="none" xmlns="http://www.w3.org/2000/svg">
<g opacity="0.5">
<mask id="mask0" mask-type="alpha" maskUnits="userSpaceOnUse" x="103" y="218" width="312" height="312">
<circle cx="259" cy="374" r="156" fill="url(#paint0_radial)"/>
</mask>
<g mask="url(#mask0)">
<line x1="170.5" y1="122" x2="170.5" y2="577" stroke="#EFE314"/>
<line x1="246.5" y1="122" x2="246.5" y2="577" stroke="#EFE314"/>
<line x1="322.5" y1="122" x2="322.5" y2="577" stroke="#EFE314"/>
<line x1="398.5" y1="123" x2="398.5" y2="578" stroke="#EFE314"/>
<line x1="131" y1="501.5" x2="436" y2="501.5" stroke="#EFE314"/>
<line x1="131" y1="425.5" x2="436" y2="425.5" stroke="#EFE314"/>
<line x1="131" y1="349.5" x2="436" y2="349.5" stroke="#EFE314"/>
<line x1="132" y1="273.5" x2="437" y2="273.5" stroke="#EFE314"/>
</g>
<mask id="mask1" mask-type="alpha" maskUnits="userSpaceOnUse" x="0" y="31" width="298" height="298">
<circle cx="149" cy="180" r="149" fill="url(#paint1_radial)"/>
</mask>
<g mask="url(#mask1)">
<line x1="18.5" y1="-30" x2="18.5" y2="425" stroke="#EFE314"/>
<line x1="94.5" y1="-30" x2="94.5" y2="425" stroke="#EFE314"/>
<line x1="170.5" y1="-30" x2="170.5" y2="425" stroke="#EFE314"/>
<line x1="246.5" y1="-29" x2="246.5" y2="426" stroke="#EFE314"/>
<line x1="-21" y1="273.5" x2="284" y2="273.5" stroke="#EFE314"/>
<line x1="-21" y1="197.5" x2="284" y2="197.5" stroke="#EFE314"/>
<line x1="-20" y1="121.5" x2="285" y2="121.5" stroke="#EFE314"/>
<line x1="-20" y1="45.5" x2="285" y2="45.5" stroke="#EFE314"/>
</g>
<mask id="mask2" mask-type="alpha" maskUnits="userSpaceOnUse" x="202" y="0" width="324" height="324">
<circle cx="364" cy="162" r="162" fill="url(#paint2_radial)"/>
</mask>
<g mask="url(#mask2)">
<line x1="246.5" y1="-30" x2="246.5" y2="425" stroke="#EFE314"/>
<line x1="322.5" y1="-30" x2="322.5" y2="425" stroke="#EFE314"/>
<line x1="398.5" y1="-30" x2="398.5" y2="425" stroke="#EFE314"/>
<line x1="474.5" y1="-29" x2="474.5" y2="426" stroke="#EFE314"/>
<line x1="207" y1="273.5" x2="512" y2="273.5" stroke="#EFE314"/>
<line x1="207" y1="197.5" x2="512" y2="197.5" stroke="#EFE314"/>
<line x1="208" y1="121.5" x2="513" y2="121.5" stroke="#EFE314"/>
<line x1="208" y1="45.5" x2="513" y2="45.5" stroke="#EFE314"/>
</g>
</g>
<g opacity="0.5">
<mask id="mask3" mask-type="alpha" maskUnits="userSpaceOnUse" x="241" y="326" width="312" height="312">
<circle cx="397" cy="482" r="156" fill="url(#paint3_radial)"/>
</mask>
<g mask="url(#mask3)">
<line x1="398.5" y1="350" x2="398.5" y2="805" stroke="#EFE314"/>
<line x1="474.5" y1="350" x2="474.5" y2="805" stroke="#EFE314"/>
<line x1="550.5" y1="350" x2="550.5" y2="805" stroke="#EFE314"/>
<line x1="359" y1="577.5" x2="664" y2="577.5" stroke="#EFE314"/>
<line x1="360" y1="501.5" x2="665" y2="501.5" stroke="#EFE314"/>
<line x1="360" y1="425.5" x2="665" y2="425.5" stroke="#EFE314"/>
</g>
<mask id="mask4" mask-type="alpha" maskUnits="userSpaceOnUse" x="138" y="239" width="298" height="298">
<circle cx="287" cy="388" r="149" fill="url(#paint4_radial)"/>
</mask>
<g mask="url(#mask4)">
<line x1="246.5" y1="198" x2="246.5" y2="653" stroke="#EFE314"/>
<line x1="322.5" y1="198" x2="322.5" y2="653" stroke="#EFE314"/>
<line x1="398.5" y1="198" x2="398.5" y2="653" stroke="#EFE314"/>
<line x1="207" y1="501.5" x2="512" y2="501.5" stroke="#EFE314"/>
<line x1="207" y1="425.5" x2="512" y2="425.5" stroke="#EFE314"/>
<line x1="208" y1="349.5" x2="513" y2="349.5" stroke="#EFE314"/>
<line x1="208" y1="273.5" x2="513" y2="273.5" stroke="#EFE314"/>
</g>
<mask id="mask5" mask-type="alpha" maskUnits="userSpaceOnUse" x="340" y="208" width="324" height="324">
<circle cx="502" cy="370" r="162" fill="url(#paint5_radial)"/>
</mask>
<g mask="url(#mask5)">
<line x1="474.5" y1="198" x2="474.5" y2="653" stroke="#EFE314"/>
<line x1="550.5" y1="198" x2="550.5" y2="653" stroke="#EFE314"/>
<line x1="626.5" y1="198" x2="626.5" y2="653" stroke="#EFE314"/>
<line x1="435" y1="501.5" x2="740" y2="501.5" stroke="#EFE314"/>
<line x1="435" y1="425.5" x2="740" y2="425.5" stroke="#EFE314"/>
<line x1="436" y1="349.5" x2="741" y2="349.5" stroke="#EFE314"/>
<line x1="436" y1="273.5" x2="741" y2="273.5" stroke="#EFE314"/>
</g>
</g>
<defs>
<radialGradient id="paint0_radial" cx="0" cy="0" r="1" gradientUnits="userSpaceOnUse" gradientTransform="translate(259 374) rotate(90) scale(176.526)">
<stop stop-color="white" stop-opacity="0.83"/>
<stop offset="1" stop-color="white" stop-opacity="0"/>
</radialGradient>
<radialGradient id="paint1_radial" cx="0" cy="0" r="1" gradientUnits="userSpaceOnUse" gradientTransform="translate(149 180) rotate(90) scale(168.605)">
<stop stop-color="white" stop-opacity="0.83"/>
<stop offset="1" stop-color="white" stop-opacity="0"/>
</radialGradient>
<radialGradient id="paint2_radial" cx="0" cy="0" r="1" gradientUnits="userSpaceOnUse" gradientTransform="translate(364 162) rotate(90) scale(183.316)">
<stop stop-color="white" stop-opacity="0.83"/>
<stop offset="1" stop-color="white" stop-opacity="0"/>
</radialGradient>
<radialGradient id="paint3_radial" cx="0" cy="0" r="1" gradientUnits="userSpaceOnUse" gradientTransform="translate(397 482) rotate(90) scale(176.526)">
<stop stop-color="white" stop-opacity="0.83"/>
<stop offset="1" stop-color="white" stop-opacity="0"/>
</radialGradient>
<radialGradient id="paint4_radial" cx="0" cy="0" r="1" gradientUnits="userSpaceOnUse" gradientTransform="translate(287 388) rotate(90) scale(168.605)">
<stop stop-color="white" stop-opacity="0.83"/>
<stop offset="1" stop-color="white" stop-opacity="0"/>
</radialGradient>
<radialGradient id="paint5_radial" cx="0" cy="0" r="1" gradientUnits="userSpaceOnUse" gradientTransform="translate(502 370) rotate(90) scale(183.316)">
<stop stop-color="white" stop-opacity="0.83"/>
<stop offset="1" stop-color="white" stop-opacity="0"/>
</radialGradient>
</defs>
</svg>
