<svg width="200" height="178" viewBox="0 0 200 178" fill="none" xmlns="http://www.w3.org/2000/svg">
<g opacity="0.2">
<path d="M112.168 129.509H107.969C106.828 129.509 105.902 130.433 105.902 131.575C105.902 132.718 106.828 133.642 107.969 133.642H112.668H114.235H176.893H178.46H183.159C184.3 133.642 185.226 132.718 185.226 131.575C185.226 130.433 184.3 129.509 183.159 129.509H178.96V123.743V123.243H178.46H171.128V107.731C171.128 103.334 168.942 99.2492 165.283 96.8098L149.29 86.1478L165.283 75.4858C168.942 73.0465 171.128 68.9617 171.128 64.565V49.0526H178.46H178.96V48.5526V42.7867H183.159C184.3 42.7867 185.226 41.863 185.226 40.7203C185.226 39.5776 184.3 38.6538 183.159 38.6538H178.46H176.893H114.235H112.668H107.969C106.828 38.6538 105.902 39.5776 105.902 40.7203C105.902 41.863 106.828 42.7867 107.969 42.7867H112.168V48.5526V49.0526H112.668H120.001V64.565C120.001 68.9617 122.186 73.0465 125.845 75.4858L141.838 86.1478L125.845 96.8098C122.186 99.2492 120.001 103.334 120.001 107.731V123.243H112.668H112.168V123.743V129.509ZM116.301 44.9197V42.7867H174.827V44.9197H170.628H120.501H116.301ZM128.137 72.0473C125.63 70.3745 124.133 67.5777 124.133 64.565V49.0526H166.995V64.565C166.995 67.5777 165.498 70.3745 162.991 72.0473L145.564 83.664L128.137 72.0473ZM124.133 107.731C124.133 104.718 125.63 101.921 128.137 100.248L145.564 88.6316L162.991 100.248C165.498 101.921 166.995 104.718 166.995 107.731V123.243H124.133V107.731ZM116.301 127.376H120.501H170.628H174.827V129.509H116.301V127.376Z" stroke="#EFE314"/>
<path d="M145.982 57.9914L146.675 58.2418L146.651 57.5053L146.534 53.8323L146.52 53.3893L146.079 53.3501C145.065 53.2603 143.976 53.3016 142.813 53.4697C141.781 53.6125 140.749 53.9124 139.716 54.3654L138.484 52.23L138.234 51.797L137.801 52.047L136.322 52.9005L135.889 53.1505L136.139 53.5835L137.389 55.749C136.759 56.2292 136.205 56.7647 135.73 57.3559C135.158 58.0666 134.739 58.8349 134.48 59.6601L134.48 59.66L134.477 59.6679C134.234 60.4879 134.164 61.35 134.26 62.2492L134.26 62.2492L134.261 62.255C134.367 63.1456 134.683 64.0337 135.193 64.9169C135.611 65.6417 136.09 66.2305 136.637 66.6657L136.644 66.672L136.653 66.678C137.204 67.0813 137.829 67.3622 138.523 67.5235L138.523 67.5236L138.534 67.5258C139.213 67.668 139.961 67.6998 140.771 67.6295L140.779 67.6288L140.787 67.6278C141.589 67.5318 142.482 67.3565 143.465 67.1044L143.717 67.0542L143.982 67.0013L144.008 66.9962L144.033 66.9884L144.034 66.9881L144.035 66.9878L144.036 66.9875L144.037 66.9872L144.038 66.9869L144.039 66.9866L144.04 66.9863L144.041 66.986L144.042 66.9857L144.043 66.9854L144.044 66.9851L144.045 66.9848L144.046 66.9845L144.047 66.9842L144.048 66.9839L144.049 66.9836L144.05 66.9833L144.051 66.983L144.052 66.9826L144.053 66.9823L144.054 66.982L144.055 66.9817L144.056 66.9814L144.057 66.9811L144.058 66.9808L144.058 66.9805L144.059 66.9802L144.06 66.9799L144.061 66.9796L144.062 66.9793L144.063 66.979L144.064 66.9787L144.065 66.9784L144.066 66.9781L144.067 66.9778L144.068 66.9775L144.069 66.9772L144.07 66.9769L144.071 66.9766L144.072 66.9763L144.073 66.9759L144.074 66.9756L144.075 66.9753L144.076 66.975L144.077 66.9747L144.078 66.9744L144.079 66.9741L144.08 66.9738L144.081 66.9735L144.082 66.9732L144.083 66.9729L144.084 66.9726L144.085 66.9723L144.086 66.972L144.087 66.9717L144.088 66.9714L144.089 66.9711L144.09 66.9708L144.091 66.9705L144.092 66.9702L144.093 66.9699L144.094 66.9696L144.095 66.9693L144.096 66.9689L144.097 66.9686L144.098 66.9683L144.099 66.968L144.1 66.9677L144.101 66.9674L144.102 66.9671L144.103 66.9668L144.104 66.9665L144.105 66.9662L144.105 66.9659L144.106 66.9656L144.107 66.9653L144.108 66.965L144.109 66.9647L144.11 66.9644L144.111 66.9641L144.112 66.9638L144.113 66.9635L144.114 66.9632L144.115 66.9629L144.116 66.9626L144.117 66.9623L144.118 66.9619L144.119 66.9616L144.12 66.9613L144.121 66.961L144.122 66.9607L144.123 66.9604L144.124 66.9601L144.125 66.9598L144.126 66.9595L144.127 66.9592L144.128 66.9589L144.129 66.9586L144.13 66.9583L144.131 66.958L144.132 66.9577L144.133 66.9574L144.134 66.9571L144.135 66.9568L144.136 66.9565L144.137 66.9562L144.138 66.9559L144.139 66.9556L144.14 66.9552L144.141 66.9549L144.142 66.9546L144.143 66.9543L144.144 66.954L144.145 66.9537L144.146 66.9534L144.147 66.9531L144.148 66.9528L144.149 66.9525L144.15 66.9522L144.151 66.9519L144.152 66.9516L144.152 66.9513L144.153 66.9512L146.152 70.4143C145.72 70.5733 145.28 70.6996 144.832 70.7933C144.2 70.9192 143.607 71.0135 143.051 71.0768C142.505 71.1138 142.022 71.1187 141.598 71.0935C141.17 71.0572 140.888 71.013 140.727 70.9684L140.055 70.7824L140.094 71.4786L140.312 75.3269L140.336 75.7546L140.763 75.7962C142.063 75.9232 143.392 75.8696 144.749 75.6374L144.749 75.6374L144.758 75.6357C145.968 75.4056 147.13 75.0416 148.241 74.5437L149.617 76.9272L149.867 77.3603L150.3 77.1103L151.778 76.2568L152.211 76.0068L151.961 75.5738L150.606 73.2266C151.261 72.7779 151.853 72.2844 152.383 71.7455L152.383 71.7456L152.388 71.7401C153.038 71.0579 153.532 70.3207 153.859 69.5275C154.208 68.7132 154.347 67.8493 154.278 66.9435C154.224 66.0085 153.904 65.0551 153.345 64.0879C152.848 63.2271 152.276 62.5545 151.618 62.1012C150.966 61.6425 150.239 61.3486 149.444 61.2202C148.672 61.0836 147.832 61.0945 146.929 61.2418C146.066 61.376 145.133 61.5749 144.131 61.8376L144.131 61.8374L144.118 61.8413L143.792 61.9365L141.775 58.4435C142.081 58.3356 142.391 58.2505 142.705 58.1878L142.713 58.1861L142.721 58.1842C143.217 58.0676 143.681 57.9988 144.115 57.9756L144.129 57.9749L144.142 57.9735C144.599 57.9242 144.99 57.9082 145.318 57.9221L145.318 57.9222L145.331 57.9225C145.7 57.9281 145.899 57.9615 145.982 57.9914ZM147.997 66.3488C148.473 66.3871 148.813 66.6015 149.06 67.0296C149.325 67.4892 149.34 67.8872 149.157 68.279C148.995 68.6252 148.661 69.0046 148.104 69.4052L146.395 66.445C147.034 66.3435 147.566 66.3141 147.997 66.3488ZM140.187 62.575C139.819 62.5165 139.503 62.303 139.239 61.846C138.945 61.3368 138.908 60.9081 139.048 60.5185C139.163 60.1989 139.415 59.856 139.85 59.4992L141.57 62.4769C140.996 62.58 140.538 62.6086 140.187 62.575Z" stroke="#EFE314"/>
<path d="M140.029 104.012L140.696 103.699L140.159 103.195L137.479 100.68L137.156 100.377L136.816 100.662C136.036 101.315 135.294 102.114 134.591 103.056C133.962 103.886 133.445 104.828 133.035 105.879L130.653 105.24L130.17 105.111L130.041 105.594L129.599 107.243L129.469 107.726L129.952 107.855L132.368 108.502C132.262 109.287 132.249 110.058 132.33 110.812C132.428 111.719 132.676 112.559 133.076 113.325L133.076 113.325L133.08 113.333C133.488 114.084 134.047 114.744 134.751 115.311L134.751 115.311L134.756 115.315C135.461 115.87 136.312 116.274 137.297 116.538C138.105 116.755 138.86 116.833 139.555 116.754L139.565 116.753L139.575 116.751C140.249 116.647 140.89 116.403 141.495 116.027L141.495 116.027L141.504 116.021C142.086 115.641 142.636 115.135 143.16 114.512L143.165 114.506L143.17 114.499C143.669 113.865 144.177 113.109 144.694 112.235L144.836 112.022L144.986 111.797L145.001 111.775L145.013 111.752L145.013 111.751L145.014 111.75L145.014 111.749L145.015 111.748L145.015 111.748L145.016 111.747L145.016 111.746L145.017 111.745L145.017 111.744L145.018 111.743L145.018 111.742L145.019 111.741L145.019 111.74L145.02 111.739L145.02 111.738L145.021 111.738L145.021 111.737L145.022 111.736L145.022 111.735L145.022 111.734L145.023 111.733L145.023 111.732L145.024 111.731L145.024 111.73L145.025 111.729L145.025 111.728L145.026 111.728L145.026 111.727L145.027 111.726L145.027 111.725L145.028 111.724L145.028 111.723L145.029 111.722L145.029 111.721L145.03 111.72L145.03 111.719L145.031 111.718L145.031 111.718L145.032 111.717L145.032 111.716L145.032 111.715L145.033 111.714L145.033 111.713L145.034 111.712L145.034 111.711L145.035 111.71L145.035 111.709L145.036 111.709L145.036 111.708L145.037 111.707L145.037 111.706L145.038 111.705L145.038 111.704L145.039 111.703L145.039 111.702L145.04 111.701L145.04 111.7L145.041 111.699L145.041 111.699L145.042 111.698L145.042 111.697L145.042 111.696L145.043 111.695L145.043 111.694L145.044 111.693L145.044 111.692L145.045 111.691L145.045 111.69L145.046 111.689L145.046 111.689L145.047 111.688L145.047 111.687L145.048 111.686L145.048 111.685L145.049 111.684L145.049 111.683L145.05 111.682L145.05 111.681L145.051 111.68L145.051 111.679L145.052 111.679L145.052 111.678L145.053 111.677L145.053 111.676L145.053 111.675L145.054 111.674L145.054 111.673L145.055 111.672L145.055 111.671L145.056 111.67L145.056 111.669L145.057 111.669L145.057 111.668L145.058 111.667L145.058 111.666L145.059 111.665L145.059 111.664L145.06 111.663L145.06 111.662L145.061 111.661L145.061 111.66L145.062 111.659L145.062 111.659L145.063 111.658L145.063 111.657L145.063 111.656L145.064 111.655L145.064 111.654L145.065 111.653L145.065 111.652L145.066 111.651L145.066 111.65L145.067 111.65L145.067 111.649L145.068 111.648L145.068 111.647L145.069 111.646L145.069 111.645L145.07 111.644L145.07 111.643L145.071 111.642L145.071 111.641L145.071 111.641L148.934 112.676C148.741 113.094 148.519 113.495 148.268 113.878C147.911 114.413 147.558 114.9 147.209 115.337C146.85 115.749 146.511 116.095 146.194 116.376C145.866 116.653 145.634 116.822 145.489 116.904L144.882 117.248L145.403 117.712L148.278 120.279L148.597 120.565L148.928 120.293C149.938 119.463 150.839 118.485 151.635 117.362L151.635 117.362L151.64 117.354C152.333 116.335 152.897 115.257 153.331 114.119L155.989 114.832L156.472 114.961L156.601 114.478L157.043 112.829L157.173 112.346L156.69 112.217L154.072 111.515C154.217 110.735 154.287 109.967 154.281 109.212L154.281 109.212L154.281 109.204C154.258 108.262 154.086 107.392 153.757 106.599C153.427 105.777 152.914 105.068 152.225 104.476C151.526 103.853 150.625 103.405 149.547 103.116C148.587 102.859 147.707 102.788 146.92 102.933C146.135 103.07 145.413 103.376 144.76 103.848C144.118 104.297 143.531 104.898 142.997 105.641C142.482 106.346 141.963 107.146 141.44 108.041L141.44 108.04L141.433 108.053L141.27 108.35L137.374 107.306C137.514 107.014 137.673 106.735 137.851 106.468L137.855 106.461L137.86 106.454C138.128 106.021 138.408 105.644 138.698 105.321L138.707 105.311L138.716 105.3C139.004 104.942 139.269 104.655 139.51 104.433L139.511 104.433L139.52 104.423C139.785 104.167 139.949 104.05 140.029 104.012ZM147.363 108.497C147.727 108.188 148.119 108.099 148.597 108.227C149.109 108.364 149.401 108.635 149.549 109.041C149.679 109.401 149.711 109.905 149.6 110.582L146.299 109.698C146.679 109.174 147.034 108.777 147.363 108.497ZM139.173 111.351C138.871 111.57 138.497 111.642 137.987 111.506C137.419 111.353 137.09 111.076 136.913 110.702C136.769 110.395 136.704 109.974 136.76 109.414L140.081 110.304C139.748 110.783 139.444 111.127 139.173 111.351Z" stroke="#EFE314"/>
<path fill-rule="evenodd" clip-rule="evenodd" d="M143.466 1L222.748 45.0584V133.268L143.466 177.326L64.1836 133.268V45.0584L143.466 1ZM67.021 46.7276V131.598L143.466 174.08L219.911 131.598V46.7276L143.466 4.24606L67.021 46.7276Z" stroke="#EFE314"/>
<path d="M57.697 3.84331L57.447 3.69897L57.197 3.84331L46.2124 10.1853L45.9624 10.3296V10.6183V23.3022V23.5909L46.2124 23.7352L57.197 30.0772L57.447 30.2215L57.697 30.0772L68.6816 23.7352L68.9316 23.5909V23.3022V10.6183V10.3296L68.6816 10.1853L57.697 3.84331ZM57.447 1.57735L70.7689 9.26879V24.6517L57.447 32.3431L44.125 24.6517V9.26879L57.447 1.57735Z" stroke="#EFE314"/>
<path d="M26.9703 32.561L26.7225 32.4195L26.4746 32.561L2.58954 46.1925L2.33737 46.3364V46.6268V73.8333V74.1237L2.58954 74.2676L26.4746 87.8991L26.7225 88.0406L26.9703 87.8991L50.8554 74.2676L51.1076 74.1237V73.8333V46.6268V46.3364L50.8554 46.1925L26.9703 32.561ZM26.7225 30.304L52.9449 45.2695V75.1906L26.7225 90.1561L0.5 75.1906V45.2695L26.7225 30.304Z" stroke="#EFE314"/>
</g>
</svg>
