<svg width="304" height="548" viewBox="0 0 304 548" fill="none" xmlns="http://www.w3.org/2000/svg">
<g opacity="0.5">
<mask id="mask0" mask-type="alpha" maskUnits="userSpaceOnUse" x="-29" y="0" width="312" height="312">
<circle cx="127" cy="156" r="156" fill="url(#paint0_radial)"/>
</mask>
<g mask="url(#mask0)">
<line x1="38.5" y1="-96" x2="38.5" y2="359" stroke="#EFE314"/>
<line x1="114.5" y1="-96" x2="114.5" y2="359" stroke="#EFE314"/>
<line x1="190.5" y1="-96" x2="190.5" y2="359" stroke="#EFE314"/>
<line x1="266.5" y1="-95" x2="266.5" y2="360" stroke="#EFE314"/>
<line x1="-1" y1="283.5" x2="304" y2="283.5" stroke="#EFE314"/>
<line x1="-1" y1="207.5" x2="304" y2="207.5" stroke="#EFE314"/>
<line x1="-1" y1="131.5" x2="304" y2="131.5" stroke="#EFE314"/>
<line y1="55.5" x2="305" y2="55.5" stroke="#EFE314"/>
</g>
</g>
<g opacity="0.5">
<mask id="mask1" mask-type="alpha" maskUnits="userSpaceOnUse" x="6" y="22" width="298" height="298">
<circle cx="155" cy="171" r="149" fill="url(#paint1_radial)"/>
</mask>
<g mask="url(#mask1)">
<line x1="114.5" y1="-19" x2="114.5" y2="436" stroke="#EFE314"/>
<line x1="190.5" y1="-19" x2="190.5" y2="436" stroke="#EFE314"/>
<line x1="266.5" y1="-19" x2="266.5" y2="436" stroke="#EFE314"/>
<line x1="75" y1="284.5" x2="380" y2="284.5" stroke="#EFE314"/>
<line x1="75" y1="208.5" x2="380" y2="208.5" stroke="#EFE314"/>
<line x1="76" y1="132.5" x2="381" y2="132.5" stroke="#EFE314"/>
<line x1="76" y1="55.5" x2="381" y2="55.5" stroke="#EFE314"/>
</g>
</g>
<g opacity="0.5">
<mask id="mask2" mask-type="alpha" maskUnits="userSpaceOnUse" x="-70" y="174" width="298" height="298">
<circle cx="79" cy="323" r="149" fill="url(#paint2_radial)"/>
</mask>
<g mask="url(#mask2)">
<line x1="38.5" y1="133" x2="38.5" y2="588" stroke="#EFE314"/>
<line x1="114.5" y1="133" x2="114.5" y2="588" stroke="#EFE314"/>
<line x1="190.5" y1="133" x2="190.5" y2="588" stroke="#EFE314"/>
<line x1="-1" y1="436.5" x2="304" y2="436.5" stroke="#EFE314"/>
<line x1="-1" y1="360.5" x2="304" y2="360.5" stroke="#EFE314"/>
<line y1="284.5" x2="305" y2="284.5" stroke="#EFE314"/>
<line y1="208.5" x2="305" y2="208.5" stroke="#EFE314"/>
</g>
</g>
<g opacity="0.5">
<mask id="mask3" mask-type="alpha" maskUnits="userSpaceOnUse" x="6" y="250" width="298" height="298">
<circle cx="155" cy="399" r="149" fill="url(#paint3_radial)"/>
</mask>
<g mask="url(#mask3)">
<line x1="114.5" y1="209" x2="114.5" y2="664" stroke="#EFE314"/>
<line x1="190.5" y1="209" x2="190.5" y2="664" stroke="#EFE314"/>
<line x1="266.5" y1="209" x2="266.5" y2="664" stroke="#EFE314"/>
<line x1="75" y1="512.5" x2="380" y2="512.5" stroke="#EFE314"/>
<line x1="75" y1="436.5" x2="380" y2="436.5" stroke="#EFE314"/>
<line x1="76" y1="360.5" x2="381" y2="360.5" stroke="#EFE314"/>
<line x1="76" y1="284.5" x2="381" y2="284.5" stroke="#EFE314"/>
</g>
</g>
<defs>
<radialGradient id="paint0_radial" cx="0" cy="0" r="1" gradientUnits="userSpaceOnUse" gradientTransform="translate(127 156) rotate(90) scale(176.526)">
<stop stop-color="white" stop-opacity="0.83"/>
<stop offset="1" stop-color="white" stop-opacity="0"/>
</radialGradient>
<radialGradient id="paint1_radial" cx="0" cy="0" r="1" gradientUnits="userSpaceOnUse" gradientTransform="translate(155 171) rotate(90) scale(168.605)">
<stop stop-color="white" stop-opacity="0.83"/>
<stop offset="1" stop-color="white" stop-opacity="0"/>
</radialGradient>
<radialGradient id="paint2_radial" cx="0" cy="0" r="1" gradientUnits="userSpaceOnUse" gradientTransform="translate(79 323) rotate(90) scale(168.605)">
<stop stop-color="white" stop-opacity="0.83"/>
<stop offset="1" stop-color="white" stop-opacity="0"/>
</radialGradient>
<radialGradient id="paint3_radial" cx="0" cy="0" r="1" gradientUnits="userSpaceOnUse" gradientTransform="translate(155 399) rotate(90) scale(168.605)">
<stop stop-color="white" stop-opacity="0.83"/>
<stop offset="1" stop-color="white" stop-opacity="0"/>
</radialGradient>
</defs>
</svg>
