<svg width="629" height="499" viewBox="0 0 629 499" fill="none" xmlns="http://www.w3.org/2000/svg">
<path d="M317.167 364.243H304.417C301.703 364.243 299.5 366.441 299.5 369.159C299.5 371.878 301.703 374.076 304.417 374.076H317.667H322.083H498.75H503.167H516.417C519.13 374.076 521.333 371.878 521.333 369.159C521.333 366.441 519.13 364.243 516.417 364.243H503.667V347.076V346.576H503.167H481.583V301.929C481.583 289.837 475.573 278.604 465.509 271.895L419.281 241.076L465.509 210.258C475.573 203.549 481.583 192.316 481.583 180.223V135.576H503.167H503.667V135.076V117.91H516.417C519.13 117.91 521.333 115.712 521.333 112.993C521.333 110.274 519.13 108.076 516.417 108.076H503.167H498.75H322.083H317.667H304.417C301.703 108.076 299.5 110.274 299.5 112.993C299.5 115.712 301.703 117.91 304.417 117.91H317.167V135.076V135.576H317.667H339.25V180.223C339.25 192.316 345.261 203.549 355.324 210.258L401.552 241.076L355.324 271.895C345.261 278.604 339.25 289.837 339.25 301.929V346.576H317.667H317.167V347.076V364.243ZM327 125.743V117.91H493.833V125.743H481.083H339.75H327ZM360.777 202.076C360.777 202.076 360.777 202.076 360.777 202.076C353.456 197.191 349.083 189.022 349.083 180.223V135.576H471.75V180.223C471.75 189.022 467.377 197.191 460.056 202.076L410.417 235.166L360.777 202.076ZM349.083 301.929C349.083 293.13 353.456 284.961 360.777 280.076L410.417 246.986L460.056 280.076C467.377 284.961 471.75 293.13 471.75 301.929V346.576H349.083V301.929ZM327 356.41H339.75H481.083H493.833V364.243H327V356.41Z" stroke="white"/>
<path d="M405.692 167.046L406.385 167.296L406.362 166.56L406.032 156.204L406.018 155.761L405.577 155.722C402.799 155.476 399.798 155.588 396.575 156.054C393.512 156.477 390.434 157.41 387.342 158.846L383.454 152.112L383.204 151.679L382.771 151.929L378.603 154.336L378.17 154.586L378.42 155.019L382.351 161.827C380.36 163.259 378.637 164.877 377.186 166.68C375.639 168.602 374.516 170.668 373.821 172.879L373.821 172.879L373.819 172.887C373.17 175.075 372.979 177.385 373.239 179.81L373.239 179.81L373.24 179.815C373.522 182.184 374.364 184.571 375.751 186.973C376.889 188.944 378.17 190.508 379.601 191.647L379.609 191.654L379.617 191.66C381.065 192.72 382.715 193.463 384.559 193.891L384.559 193.891L384.57 193.894C386.383 194.273 388.399 194.362 390.613 194.17L390.621 194.169L390.629 194.168C392.847 193.903 395.334 193.415 398.087 192.709L398.821 192.562L399.568 192.413L399.594 192.408L399.619 192.4L400.326 192.18L400.651 192.079L407.181 203.39C405.6 204.043 403.981 204.542 402.322 204.888C400.512 205.249 398.805 205.52 397.202 205.702C395.621 205.81 394.207 205.826 392.958 205.751C391.734 205.647 390.864 205.517 390.324 205.367L389.652 205.181L389.691 205.877L390.306 216.728L390.33 217.155L390.756 217.197C394.337 217.547 398.003 217.4 401.753 216.758L401.753 216.758L401.762 216.756C405.379 216.069 408.834 214.95 412.126 213.398L416.42 220.837L416.67 221.27L417.103 221.02L421.271 218.613L421.704 218.363L421.454 217.93L417.207 210.575C419.288 209.218 421.147 207.708 422.782 206.044L422.788 206.038C424.555 204.185 425.881 202.197 426.756 200.075C427.682 197.915 428.051 195.621 427.866 193.203C427.726 190.738 426.88 188.184 425.357 185.546C424 183.196 422.47 181.416 420.755 180.236C419.028 179.02 417.105 178.242 414.992 177.902C412.932 177.537 410.666 177.562 408.198 177.965C405.798 178.337 403.198 178.892 400.396 179.626L400.396 179.626L400.383 179.63L398.779 180.099L392.203 168.709C393.431 168.2 394.685 167.819 395.965 167.563L395.974 167.562L395.982 167.56C397.425 167.22 398.788 167.017 400.073 166.949L400.086 166.948L400.1 166.947C401.419 166.804 402.568 166.756 403.55 166.797L403.55 166.797L403.563 166.798C404.615 166.814 405.307 166.907 405.692 167.046ZM411.137 190.559C412.783 190.691 414.006 191.469 414.85 192.93C415.729 194.453 415.815 195.889 415.16 197.292C414.531 198.641 413.194 200.012 411.069 201.386L405.112 191.068C407.532 190.595 409.537 190.43 411.137 190.559ZM388.932 181.728C387.561 181.519 386.445 180.715 385.584 179.225C384.65 177.606 384.475 176.118 384.978 174.719C385.453 173.399 386.556 172.089 388.367 170.804L394.364 181.191C392.099 181.692 390.294 181.863 388.932 181.728Z" stroke="white"/>
<path d="M381.995 296.834L382.662 296.521L382.125 296.017L374.569 288.927L374.246 288.623L373.906 288.908C371.768 290.698 369.725 292.899 367.776 295.508C365.909 297.973 364.392 300.809 363.221 304.011L355.711 301.999L355.228 301.869L355.098 302.352L353.853 307.001L353.723 307.484L354.206 307.613L361.8 309.648C361.405 312.069 361.331 314.431 361.579 316.732C361.845 319.185 362.511 321.44 363.583 323.495L363.583 323.495L363.587 323.502C364.676 325.508 366.174 327.276 368.073 328.807L368.073 328.807L368.077 328.81C369.952 330.286 372.235 331.378 374.914 332.096C377.112 332.685 379.124 332.885 380.942 332.679L380.952 332.677L380.962 332.676C382.735 332.402 384.427 331.761 386.034 330.759L386.034 330.76L386.044 330.753C387.594 329.74 389.082 328.378 390.512 326.676L390.517 326.67L390.522 326.663C391.903 324.907 393.316 322.804 394.763 320.358L395.179 319.735L395.602 319.101L395.616 319.079L395.629 319.056L395.973 318.401L396.131 318.1L408.747 321.48C408.09 323.059 407.298 324.558 406.371 325.975C405.346 327.51 404.331 328.909 403.326 330.171C402.284 331.365 401.295 332.376 400.359 333.206C399.42 333.999 398.713 334.522 398.225 334.798L397.618 335.142L398.139 335.606L406.245 342.844L406.565 343.129L406.896 342.857C409.675 340.573 412.163 337.876 414.361 334.771L414.361 334.771L414.366 334.763C416.438 331.72 418.089 328.485 419.32 325.061L427.617 327.284L428.099 327.413L428.229 326.93L429.475 322.281L429.604 321.798L429.121 321.669L420.917 319.471C421.429 317.04 421.675 314.657 421.655 312.325L421.655 312.317C421.594 309.757 421.126 307.414 420.244 305.295C419.372 303.112 418.011 301.229 416.17 299.65C414.328 298.006 411.924 296.798 408.981 296.01C406.361 295.308 404.02 295.131 401.973 295.51C399.892 295.871 397.982 296.68 396.248 297.934C394.533 299.132 392.947 300.752 391.487 302.783C390.054 304.743 388.607 306.974 387.146 309.474L387.146 309.474L387.139 309.486L386.336 310.952L373.632 307.548C374.141 306.32 374.758 305.163 375.483 304.077L375.488 304.07L375.492 304.063C376.273 302.803 377.093 301.695 377.953 300.738L377.962 300.728L377.97 300.718C378.803 299.684 379.581 298.837 380.304 298.173L380.304 298.173L380.314 298.164C381.069 297.431 381.625 297.008 381.995 296.834ZM402.471 309.61C403.729 308.539 405.144 308.224 406.773 308.661C408.472 309.116 409.548 310.071 410.077 311.526C410.586 312.925 410.61 314.84 410.079 317.314L398.571 314.23C399.948 312.184 401.249 310.65 402.471 309.61ZM380.525 319.067C379.408 319.889 378.051 320.109 376.388 319.664C374.583 319.18 373.407 318.252 372.774 316.906C372.176 315.637 372.03 313.931 372.402 311.741L383.987 314.846C382.74 316.802 381.584 318.199 380.525 319.067Z" stroke="white"/>
<path fill-rule="evenodd" clip-rule="evenodd" d="M404.5 1L628.038 125.223V373.929L404.5 498.152L180.963 373.929V125.223L404.5 1ZM188.963 129.929V369.223L404.5 489L620.038 369.223V129.929L404.5 10.1523L188.963 129.929Z" stroke="white"/>
<path d="M162.221 9.80459L161.971 9.66025L161.721 9.80459L130.75 27.6858L130.5 27.8301V28.1188V63.8812V64.1699L130.75 64.3142L161.721 82.1954L161.971 82.3397L162.221 82.1954L193.192 64.3142L193.442 64.1699V63.8812V28.1188V27.8301L193.192 27.6858L162.221 9.80459ZM161.971 1.57735L200.442 23.7887V68.2113L161.971 90.4226L123.5 68.2113V23.7887L161.971 1.57735Z" stroke="white"/>
<path d="M75.592 90.7769L75.3442 90.6355L75.0964 90.7769L7.75216 129.211L7.5 129.355V129.645V206.355V206.645L7.75216 206.789L75.0964 245.223L75.3442 245.365L75.592 245.223L142.936 206.789L143.188 206.645V206.355V129.645V129.355L142.936 129.211L75.592 90.7769ZM75.3442 82.5757L150.188 125.29V210.71L75.3442 253.424L0.5 210.71V125.29L75.3442 82.5757Z" stroke="white"/>
</svg>
