<svg width="258" height="367" viewBox="0 0 258 367" fill="none" xmlns="http://www.w3.org/2000/svg">
<path fill-rule="evenodd" clip-rule="evenodd" d="M173.301 7L220.603 34.3094V88.9282L173.301 116.238L126 88.9282V34.3094L173.301 7ZM134 38.9282V84.3094L173.301 107L212.603 84.3094V38.9282L173.301 16.2376L134 38.9282Z" stroke="white"/>
<path d="M172 57.3108C176.038 57.3108 179.311 54.0376 179.311 50C179.311 45.9623 176.038 42.6892 172 42.6892C167.962 42.6892 164.689 45.9623 164.689 50C164.689 54.0376 167.962 57.3108 172 57.3108ZM183.5 50C183.5 56.3513 178.351 61.5 172 61.5C165.649 61.5 160.5 56.3513 160.5 50C160.5 43.6487 165.649 38.5 172 38.5C178.351 38.5 183.5 43.6487 183.5 50Z" stroke="white"/>
<path d="M208 198.311C212.038 198.311 215.311 195.038 215.311 191C215.311 186.962 212.038 183.689 208 183.689C203.962 183.689 200.689 186.962 200.689 191C200.689 195.038 203.962 198.311 208 198.311ZM219.5 191C219.5 197.351 214.351 202.5 208 202.5C201.649 202.5 196.5 197.351 196.5 191C196.5 184.649 201.649 179.5 208 179.5C214.351 179.5 219.5 184.649 219.5 191Z" stroke="white"/>
<path d="M116 307.311C120.038 307.311 123.311 304.038 123.311 300C123.311 295.962 120.038 292.689 116 292.689C111.962 292.689 108.689 295.962 108.689 300C108.689 304.038 111.962 307.311 116 307.311ZM127.5 300C127.5 306.351 122.351 311.5 116 311.5C109.649 311.5 104.5 306.351 104.5 300C104.5 293.649 109.649 288.5 116 288.5C122.351 288.5 127.5 293.649 127.5 300Z" stroke="white"/>
<path d="M187.849 81.25H188.556L188.321 80.5833C187.52 78.3197 186.221 76.2396 184.49 74.5095C181.443 71.462 177.31 69.75 173 69.75C168.69 69.75 164.557 71.462 161.51 74.5095C159.779 76.2396 158.48 78.3197 157.679 80.5833L157.444 81.25H158.151L173 81.25L187.849 81.25ZM187.496 71.5043C190.107 74.1157 191.941 77.3591 192.849 80.875C193.237 82.3763 193.456 83.9273 193.494 85.5L173 85.5L152.506 85.5C152.544 83.9273 152.763 82.3763 153.151 80.875C154.059 77.3591 155.893 74.1157 158.504 71.5043C162.349 67.6598 167.563 65.5 173 65.5C178.437 65.5 183.651 67.6598 187.496 71.5043Z" stroke="white"/>
<path d="M223.849 222.25H224.556L224.321 221.583C223.52 219.32 222.221 217.24 220.49 215.51C217.443 212.462 213.31 210.75 209 210.75C204.69 210.75 200.557 212.462 197.51 215.51C195.779 217.24 194.48 219.32 193.679 221.583L193.444 222.25H194.151L209 222.25L223.849 222.25ZM223.496 212.504C226.107 215.116 227.941 218.359 228.849 221.875C229.237 223.376 229.456 224.927 229.494 226.5L209 226.5L188.506 226.5C188.544 224.927 188.763 223.376 189.151 221.875C190.059 218.359 191.893 215.116 194.504 212.504C198.349 208.66 203.563 206.5 209 206.5C214.437 206.5 219.651 208.66 223.496 212.504Z" stroke="white"/>
<path d="M131.849 331.25H132.556L132.321 330.583C131.52 328.32 130.221 326.24 128.49 324.51C125.443 321.462 121.31 319.75 117 319.75C112.69 319.75 108.557 321.462 105.51 324.51C103.779 326.24 102.48 328.32 101.679 330.583L101.444 331.25H102.151L117 331.25L131.849 331.25ZM131.496 321.504C134.107 324.116 135.941 327.359 136.849 330.875C137.237 332.376 137.456 333.927 137.494 335.5L117 335.5L96.5061 335.5C96.5444 333.927 96.7632 332.376 97.1509 330.875C98.0588 327.359 99.8929 324.116 102.504 321.504C106.349 317.66 111.563 315.5 117 315.5C122.437 315.5 127.651 317.66 131.496 321.504Z" stroke="white"/>
<path fill-rule="evenodd" clip-rule="evenodd" d="M117.301 257L164.603 284.309V338.928L117.301 366.238L70 338.928V284.309L117.301 257ZM78 288.928V334.309L117.301 357L156.603 334.309V288.928L117.301 266.238L78 288.928Z" stroke="white"/>
<path d="M53 155.311C57.0376 155.311 60.3108 152.038 60.3108 148C60.3108 143.962 57.0376 140.689 53 140.689C48.9623 140.689 45.6892 143.962 45.6892 148C45.6892 152.038 48.9623 155.311 53 155.311ZM64.5 148C64.5 154.351 59.3513 159.5 53 159.5C46.6487 159.5 41.5 154.351 41.5 148C41.5 141.649 46.6487 136.5 53 136.5C59.3513 136.5 64.5 141.649 64.5 148Z" stroke="white"/>
<path d="M68.8493 179.25H69.5564L69.3207 178.583C68.5203 176.32 67.2206 174.24 65.4905 172.51C62.443 169.462 58.3098 167.75 54 167.75C49.6902 167.75 45.557 169.462 42.5095 172.51C40.7794 174.24 39.4797 176.32 38.6793 178.583L38.4436 179.25H39.1508L54 179.25L68.8493 179.25ZM68.4957 169.504C71.1071 172.116 72.9412 175.359 73.8491 178.875C74.2368 180.376 74.4556 181.927 74.4939 183.5L54 183.5L33.5061 183.5C33.5444 181.927 33.7632 180.376 34.1509 178.875C35.0588 175.359 36.8929 172.116 39.5043 169.504C43.3488 165.66 48.5631 163.5 54 163.5C59.4369 163.5 64.6512 165.66 68.4957 169.504Z" stroke="white"/>
<path fill-rule="evenodd" clip-rule="evenodd" d="M54.3013 105L101.603 132.309V186.928L54.3013 214.238L7 186.928V132.309L54.3013 105ZM15 136.928V182.309L54.3013 205L93.6025 182.309V136.928L54.3013 114.238L15 136.928Z" stroke="white"/>
<path fill-rule="evenodd" clip-rule="evenodd" d="M209.301 148L256.603 175.309V229.928L209.301 257.238L162 229.928V175.309L209.301 148ZM170 179.928V225.309L209.301 248L248.603 225.309V179.928L209.301 157.238L170 179.928Z" stroke="white"/>
<path d="M17.5705 329.805L17.3205 329.66L17.0705 329.805L7.75 335.186L7.5 335.33V335.619V346.381V346.67L7.75 346.814L17.0705 352.195L17.3205 352.34L17.5705 352.195L26.891 346.814L27.141 346.67V346.381V335.619V335.33L26.891 335.186L17.5705 329.805ZM17.3205 321.577L34.141 331.289V350.711L17.3205 360.423L0.5 350.711V331.289L17.3205 321.577Z" stroke="white"/>
<path d="M237.571 320.805L237.321 320.66L237.071 320.805L227.75 326.186L227.5 326.33V326.619V337.381V337.67L227.75 337.814L237.071 343.195L237.321 343.34L237.571 343.195L246.891 337.814L247.141 337.67V337.381V326.619V326.33L246.891 326.186L237.571 320.805ZM237.321 312.577L254.141 322.289V341.711L237.321 351.423L220.5 341.711V322.289L237.321 312.577Z" stroke="white"/>
<path d="M84.5705 8.80459L84.3205 8.66025L84.0705 8.80459L74.75 14.1858L74.5 14.3301V14.6188V25.3812V25.6699L74.75 25.8142L84.0705 31.1954L84.3205 31.3397L84.5705 31.1954L93.891 25.8142L94.141 25.6699V25.3812V14.6188V14.3301L93.891 14.1858L84.5705 8.80459ZM84.3205 0.57735L101.141 10.2887V29.7113L84.3205 39.4226L67.5 29.7113V10.2887L84.3205 0.57735Z" stroke="white"/>
<path d="M79.5 119.5L126 89" stroke="white"/>
<path d="M199.5 101.5L209.5 148" stroke="white"/>
<path d="M189 246L164.5 284" stroke="white"/>
</svg>
