<svg width="166" height="209" viewBox="0 0 166 209" fill="none" xmlns="http://www.w3.org/2000/svg">
<g opacity="0.2">
<path fill-rule="evenodd" clip-rule="evenodd" d="M99.6682 1L126.872 16.7059V48.1176L99.6682 63.8235L72.4648 48.1176V16.7059L99.6682 1ZM77.0657 19.3622V45.4613L99.6682 58.5109L122.271 45.4613V19.3622L99.6682 6.31263L77.0657 19.3622Z" stroke="#EFE314"/>
<path d="M98.9189 30.1466C101.358 30.1466 103.336 28.1691 103.336 25.7297C103.336 23.2903 101.358 21.3127 98.9189 21.3127C96.4795 21.3127 94.5019 23.2903 94.5019 25.7297C94.5019 28.1691 96.4795 30.1466 98.9189 30.1466ZM105.32 25.7297C105.32 29.265 102.454 32.131 98.9189 32.131C95.3835 32.131 92.5176 29.265 92.5176 25.7297C92.5176 22.1943 95.3835 19.3284 98.9189 19.3284C102.454 19.3284 105.32 22.1943 105.32 25.7297Z" stroke="#EFE314"/>
<path d="M119.624 111.237C122.063 111.237 124.041 109.26 124.041 106.82C124.041 104.381 122.063 102.403 119.624 102.403C117.185 102.403 115.207 104.381 115.207 106.82C115.207 109.26 117.185 111.237 119.624 111.237ZM126.025 106.82C126.025 110.356 123.159 113.222 119.624 113.222C116.089 113.222 113.223 110.356 113.223 106.82C113.223 103.285 116.089 100.419 119.624 100.419C123.159 100.419 126.025 103.285 126.025 106.82Z" stroke="#EFE314"/>
<path d="M66.7119 173.924C69.1513 173.924 71.1288 171.946 71.1288 169.507C71.1288 167.068 69.1513 165.09 66.7119 165.09C64.2724 165.09 62.2949 167.068 62.2949 169.507C62.2949 171.946 64.2724 173.924 66.7119 173.924ZM73.1132 169.507C73.1132 173.042 70.2472 175.908 66.7119 175.908C63.1765 175.908 60.3105 173.042 60.3105 169.507C60.3105 165.972 63.1765 163.106 66.7119 163.106C70.2472 163.106 73.1132 165.972 73.1132 169.507Z" stroke="#EFE314"/>
<path d="M108.035 43.9144H108.742L108.507 43.2477C108.036 41.9163 107.271 40.6929 106.254 39.6752C104.461 37.8828 102.03 36.8758 99.4953 36.8758C96.9603 36.8758 94.5292 37.8828 92.7368 39.6752C91.7191 40.6929 90.9547 41.9163 90.4839 43.2477L90.2482 43.9144H90.9553L99.4953 43.9144L108.035 43.9144ZM107.682 38.2474C109.156 39.7221 110.192 41.5538 110.705 43.5394C110.906 44.3179 111.027 45.1201 111.062 45.9337L99.4953 45.9337L87.9288 45.9337C87.9639 45.1201 88.0845 44.3179 88.2856 43.5394C88.7983 41.5538 89.8341 39.7221 91.3089 38.2474C93.48 36.0762 96.4248 34.8564 99.4953 34.8564C102.566 34.8564 105.51 36.0762 107.682 38.2474Z" stroke="#EFE314"/>
<path d="M128.738 125.004H129.445L129.21 124.338C128.739 123.006 127.975 121.783 126.957 120.765C125.164 118.973 122.733 117.966 120.198 117.966C117.663 117.966 115.232 118.973 113.44 120.765C112.422 121.783 111.658 123.006 111.187 124.338L110.951 125.004H111.658L120.198 125.004H128.738ZM128.385 119.337C129.86 120.812 130.895 122.644 131.408 124.63C131.609 125.408 131.73 126.21 131.765 127.024L120.198 127.024H108.632C108.667 126.21 108.788 125.408 108.989 124.63C109.501 122.644 110.537 120.812 112.012 119.337C114.183 117.166 117.128 115.947 120.198 115.947C123.269 115.947 126.214 117.166 128.385 119.337Z" stroke="#EFE314"/>
<path d="M75.8262 187.691H76.5333L76.2976 187.025C75.8269 185.693 75.0624 184.47 74.0448 183.452C72.2523 181.66 69.8212 180.653 67.2863 180.653C64.7513 180.653 62.3202 181.66 60.5278 183.452C59.5101 184.47 58.7457 185.693 58.2749 187.025L58.0392 187.691H58.7463L67.2863 187.691H75.8262ZM75.4726 182.024C76.9474 183.499 77.9832 185.331 78.496 187.316C78.697 188.095 78.8176 188.897 78.8528 189.711L67.2863 189.711H55.7198C55.7549 188.897 55.8755 188.095 56.0766 187.316C56.5893 185.331 57.6251 183.499 59.0999 182.024C61.2711 179.853 64.2158 178.633 67.2863 178.633C70.3568 178.633 73.3015 179.853 75.4726 182.024Z" stroke="#EFE314"/>
<path fill-rule="evenodd" clip-rule="evenodd" d="M67.4612 144.777L94.6646 160.483V191.895L67.4612 207.601L40.2578 191.895V160.483L67.4612 144.777ZM44.8587 163.14V189.239L67.4612 202.288L90.0637 189.239V163.14L67.4612 150.09L44.8587 163.14Z" stroke="#EFE314"/>
<path d="M30.4794 86.5072C32.9188 86.5072 34.8964 84.5297 34.8964 82.0903C34.8964 79.6509 32.9188 77.6733 30.4794 77.6733C28.04 77.6733 26.0625 79.6509 26.0625 82.0903C26.0625 84.5297 28.04 86.5072 30.4794 86.5072ZM36.8807 82.0903C36.8807 85.6256 34.0148 88.4916 30.4794 88.4916C26.9441 88.4916 24.0781 85.6256 24.0781 82.0903C24.0781 78.5549 26.9441 75.689 30.4794 75.689C34.0148 75.689 36.8807 78.5549 36.8807 82.0903Z" stroke="#EFE314"/>
<path d="M39.5957 100.275H40.3029L40.0671 99.6083C39.5964 98.2769 38.8319 97.0534 37.8143 96.0358C36.0218 94.2434 33.5907 93.2364 31.0558 93.2364C28.5209 93.2364 26.0898 94.2434 24.2973 96.0358C23.2797 97.0534 22.5152 98.2769 22.0445 99.6083L21.8087 100.275H22.5159L31.0558 100.275H39.5957ZM39.2422 94.6079C40.7169 96.0827 41.7528 97.9144 42.2655 99.9C42.4665 100.679 42.5872 101.481 42.6223 102.294L31.0558 102.294H19.4893C19.5244 101.481 19.6451 100.679 19.8461 99.9C20.3588 97.9144 21.3947 96.0827 22.8694 94.6079C25.0406 92.4368 27.9853 91.217 31.0558 91.217C34.1263 91.217 37.071 92.4368 39.2422 94.6079Z" stroke="#EFE314"/>
<path fill-rule="evenodd" clip-rule="evenodd" d="M31.2288 57.3606L58.4321 73.0665V104.478L31.2288 120.184L4.02539 104.478V73.0665L31.2288 57.3606ZM8.62626 75.7228V101.822L31.2288 114.871L53.8313 101.822V75.7228L31.2288 62.6732L8.62626 75.7228Z" stroke="#EFE314"/>
<path fill-rule="evenodd" clip-rule="evenodd" d="M120.369 82.0901L147.573 97.796V129.208L120.369 144.914L93.166 129.208V97.796L120.369 82.0901ZM97.7669 100.452V126.551L120.369 139.601L142.972 126.551V100.452L120.369 87.4027L97.7669 100.452Z" stroke="#EFE314"/>
<path d="M10.2112 186.464L9.96118 186.319L9.71118 186.464L4.35087 189.558L4.10087 189.703V189.991V196.181V196.47L4.35087 196.614L9.71118 199.709L9.96118 199.853L10.2112 199.709L15.5715 196.614L15.8215 196.47V196.181V189.991V189.703L15.5715 189.558L10.2112 186.464ZM9.96118 182.161L19.4224 187.624V198.549L9.96118 204.011L0.5 198.549V187.624L9.96118 182.161Z" stroke="#EFE314"/>
<path d="M136.737 181.288L136.487 181.143L136.237 181.288L130.876 184.382L130.626 184.527V184.815V191.005V191.294L130.876 191.438L136.237 194.533L136.487 194.677L136.737 194.533L142.097 191.438L142.347 191.294V191.005V184.815V184.527L142.097 184.382L136.737 181.288ZM136.487 176.985L145.948 182.448V193.373L136.487 198.835L127.025 193.373V182.448L136.487 176.985Z" stroke="#EFE314"/>
<path d="M156.287 53.0383L156.037 52.894L155.787 53.0383L150.427 56.1331L150.177 56.2774V56.5661V62.7556V63.0443L150.427 63.1887L155.787 66.2834L156.037 66.4278L156.287 66.2834L161.648 63.1887L161.898 63.0443V62.7556V56.5661V56.2774L161.648 56.1331L156.287 53.0383ZM156.037 48.736L165.499 54.1985V65.1233L156.037 70.5857L146.576 65.1233V54.1985L156.037 48.736Z" stroke="#EFE314"/>
<path d="M45.7207 65.6995L72.4633 48.1587" stroke="#EFE314"/>
<path d="M114.732 55.3481L120.484 82.0907" stroke="#EFE314"/>
<path d="M108.696 138.451L94.6055 160.305" stroke="#EFE314"/>
</g>
</svg>
