<svg xmlns="http://www.w3.org/2000/svg" width="479" height="323" fill="none" style=""><rect id="backgroundrect" width="100%" height="100%" x="0" y="0" fill="none" stroke="none"/>











<g class="currentLayer" style=""><title>Layer 1</title><path d="M22.7147,145.65059979248048 L22.7147,145.65059979248048 L22.709,145.65359979248046 C21.5448,146.36159979248046 20.0737,146.73059979248046 18.2686,146.73059979248046 C16.5021,146.73059979248046 15.0474,146.38059979248047 13.8806,145.70859979248047 C12.6866,144.98159979248047 11.7119,144.04059979248046 10.952,142.88159979248047 C10.2238,141.71259979248046 9.6911,140.37259979248046 9.35834,138.85659979248047 C9.05965,137.28159979248048 8.90988,135.64859979248047 8.90988,133.95759979248047 V113.15759979248047 V112.65759979248047 H8.40988 H0.5 H0 V113.15759979248047 V133.95759979248047 C0,136.63959979248048 0.310242,139.22759979248048 0.9319500000000001,141.72059979248047 L0.9319000000000002,141.72059979248047 L0.93377,141.72759979248048 C1.5986000000000002,144.23659979248046 2.65717,146.46059979248048 4.11286,148.39259979248047 L4.11589,148.39659979248046 C5.57902,150.29959979248048 7.47314,151.83959979248047 9.7877,153.01959979248048 L9.7877,153.01959979248048 L9.7968,153.02359979248047 C12.1735,154.17559979248045 15.0225,154.74059979248048 18.3259,154.74059979248048 C21.5152,154.74059979248048 24.2861,154.19459979248046 26.6225,153.08259979248047 C28.9417,151.97959979248046 30.8394,150.47659979248047 32.3047,148.57159979248047 C33.8009,146.67659979248046 34.8797,144.47059979248047 35.5452,141.96059979248048 C36.2458,139.46259979248046 36.5945,136.79359979248048 36.5945,133.95759979248047 V113.15759979248047 V112.65759979248047 H36.0945 H28.2419 H27.7419 V113.15759979248047 V133.95759979248047 C27.7419,135.60859979248048 27.5735,137.22059979248047 27.2371,138.79459979248048 L27.237000000000002,138.79459979248048 L27.2353,138.80359979248047 C26.9408,140.31659979248047 26.4093,141.65259979248046 25.6455,142.81959979248046 L25.6454,142.81959979248046 L25.6395,142.82859979248047 C24.9198,143.98359979248048 23.9477,144.92359979248047 22.7147,145.65059979248048 zM48.6615,112.87959979248046 L48.513,112.65759979248047 H48.2459 H39.6482 H38.687 L39.2388,113.44459979248046 L53.5394,133.84259979248046 L39.6968,153.66659979248047 L39.147800000000004,154.45259979248047 H40.106700000000004 H48.7044 H48.9727 L49.121,154.22959979248046 L58.3899,140.26459979248048 L67.6033,154.22859979248048 L67.7515,154.45259979248047 H68.0206 H76.561 H77.52 L76.9709,153.66659979248047 L63.1283,133.84259979248046 L77.4289,113.44459979248046 L77.9807,112.65759979248047 H77.0195 H68.4791 H68.2112 L68.0628,112.88059979248047 L58.39,127.42559979248045 L48.6615,112.87959979248046 zM94.0015,161.42259979248047 V161.92259979248047 H94.5015 H101.036 H101.536 V161.42259979248047 V109.42259979248047 V108.92259979248047 H101.036 H94.5015 H94.0015 V109.42259979248047 V161.42259979248047 zM145.243,145.65059979248048 L145.237,145.65359979248046 C144.073,146.36159979248046 142.602,146.73059979248046 140.797,146.73059979248046 C139.031,146.73059979248046 137.576,146.38059979248047 136.409,145.70859979248047 C135.215,144.98159979248047 134.24,144.04059979248046 133.48,142.88159979248047 C132.752,141.71159979248046 132.219,140.37159979248048 131.887,138.85559979248046 C131.588,137.28159979248048 131.438,135.64859979248047 131.438,133.95759979248047 V113.15759979248047 V112.65759979248047 H130.938 H123.028 H122.528 V113.15759979248047 V133.95759979248047 C122.528,136.63959979248048 122.839,139.22759979248048 123.46,141.72059979248047 L123.462,141.72759979248048 C124.127,144.23659979248046 125.186,146.46059979248048 126.641,148.39259979248047 L126.644,148.39659979248046 C128.107,150.29959979248048 130.002,151.83959979248047 132.316,153.01959979248048 L132.325,153.02359979248047 C134.702,154.17559979248045 137.551,154.74059979248048 140.854,154.74059979248048 C144.044,154.74059979248048 146.814,154.19459979248046 149.151,153.08259979248047 C151.47,151.97959979248046 153.368,150.47659979248047 154.833,148.57259979248047 C156.329,146.67659979248046 157.408,144.47059979248047 158.074,141.96059979248048 C158.774,139.46259979248046 159.123,136.79359979248048 159.123,133.95759979248047 V113.15759979248047 V112.65759979248047 H158.623 H150.77 H150.27 V113.15759979248047 V133.95759979248047 C150.27,135.60859979248048 150.102,137.22059979248047 149.765,138.79459979248048 L149.764,138.80359979248047 C149.469,140.31659979248047 148.938,141.65259979248046 148.174,142.81959979248046 L148.174,142.81959979248046 L148.168,142.82859979248047 C147.448,143.98359979248048 146.476,144.92359979248047 145.243,145.65059979248048 zM166.09,153.95259979248047 V154.45259979248047 H166.59 H174.5 H175 V153.95259979248047 V113.15759979248047 V112.65759979248047 H174.5 H166.59 H166.09 V113.15759979248047 V153.95259979248047 z" stroke="white" id="svg_3" class=""/><path d="M355.592,46.22719979248047 L355.342,46.08289979248047 L355.092,46.22719979248047 L239.25,113.10859979248048 L239,113.25259979248047 V113.54159979248047 V247.30359979248044 V247.59259979248048 L239.25,247.7365997924805 L355.092,314.61759979248046 L355.342,314.76259979248044 L355.592,314.61759979248046 L471.433,247.7365997924805 L471.683,247.59259979248048 V247.30359979248044 V113.54159979248047 V113.25259979248047 L471.433,113.10859979248048 L355.592,46.22719979248047 zM355.342,37.999999792480466 L478.683,109.21159979248047 V251.63359979248048 L355.342,322.84559979248047 L232,251.63359979248048 V109.21159979248047 L355.342,37.999999792480466 z" stroke="white" id="svg_4" class=""/><path d="M222.75,8.22719979248047 L222.5,8.082899792480468 L222.25,8.22719979248047 L191.279,26.10839979248047 L191.029,26.25269979248047 V26.54139979248047 V62.303799792480476 V62.59249979248047 L191.279,62.73679979248047 L222.25,80.61799979248048 L222.5,80.76229979248046 L222.75,80.61799979248048 L253.721,62.73679979248047 L253.971,62.59249979248047 V62.303799792480476 V26.54139979248047 V26.25269979248047 L253.721,26.10839979248047 L222.75,8.22719979248047 zM222.5,-2.075195304485078e-7 L260.971,22.211299792480467 V66.63389979248046 L222.5,88.84559979248047 L184.029,66.63389979248046 V22.211299792480467 L222.5,-2.075195304485078e-7 z" stroke="white" id="svg_5" class=""/><path fill-rule="evenodd" clip-rule="evenodd" d="M362.5,147.42459979248048 V190.55059979248045 C362.5,196.06659979248047 358.014,200.55259979248046 352.498,200.55259979248046 H290.502 C284.986,200.55259979248046 280.5,196.06659979248047 280.5,190.55059979248045 V147.42459979248048 C280.5,141.90859979248046 284.986,137.42259979248047 290.502,137.42259979248047 H352.498 C358.014,137.42259979248047 362.5,141.90859979248046 362.5,147.42459979248048 zM287.396,147.42459979248048 V190.55059979248045 C287.396,192.26159979248047 288.791,193.65559979248047 290.502,193.65559979248047 H352.498 C354.209,193.65559979248047 355.603,192.26159979248047 355.603,190.55059979248045 V147.42459979248048 C355.603,145.71359979248047 354.209,144.31959979248046 352.498,144.31959979248046 H290.502 C288.791,144.31959979248046 287.396,145.71359979248047 287.396,147.42459979248048 z" stroke="white" id="svg_6" class=""/><circle cx="396" cy="223.22159576416016" r="12" stroke="white" id="svg_7" class=""/><path fill-rule="evenodd" clip-rule="evenodd" d="M296.054,168.93359979248046 L306.481,162.11359979248047 C307.015,161.73859979248047 307.62,161.69259979248048 307.926,161.69259979248048 C308.822,161.69259979248048 309.654,162.13159979248047 310.231,162.68659979248048 C310.83,163.26159979248047 311.334,164.12859979248046 311.334,165.17959979248047 C311.334,166.13959979248048 310.86,167.05459979248047 310.069,167.58159979248046 L310.061,167.58659979248046 L303.621,171.81859979248046 L310.025,176.02659979248048 C310.913,176.55159979248046 311.334,177.53359979248046 311.334,178.45659979248046 C311.334,179.51459979248048 310.824,180.37659979248048 310.216,180.94459979248046 C309.628,181.49359979248047 308.801,181.90459979248047 307.926,181.90459979248047 C307.621,181.90459979248047 307.016,181.85859979248048 306.481,181.48259979248047 L296.043,174.65659979248048 C294.991,173.95559979248046 294.5,172.78959979248046 294.5,171.81859979248046 C294.5,170.88059979248047 294.967,169.65859979248046 296.042,168.94059979248047 L296.054,168.93359979248046 z" stroke="white" id="svg_8" class=""/><path fill-rule="evenodd" clip-rule="evenodd" d="M318.528,184.13759979248047 C317.995,185.20159979248047 316.905,185.72159979248048 315.875,185.72159979248048 C314.107,185.72159979248048 312.824,184.26959979248048 312.824,182.75059979248047 C312.824,182.34659979248048 312.906,181.95859979248047 313.05,181.59859979248046 L313.074,181.53959979248046 L327.722,152.28259979248048 C327.965,151.76959979248048 328.34,151.35159979248047 328.83,151.07659979248047 C329.312,150.80659979248045 329.819,150.72159979248048 330.264,150.72159979248048 M318.528,184.13759979248047 L333.096,155.08059979248046 C333.364,154.60759979248047 333.435,154.14259979248047 333.435,153.73159979248047 C333.435,151.73659979248046 331.611,150.72159979248048 330.264,150.72159979248048 " stroke="white" id="svg_9" class=""/><path d="M336.12,167.56159979248048 L336.082,167.53259979248048 C335.386,167.01059979248046 334.925,166.12859979248046 334.925,165.17959979248047 C334.925,164.14659979248046 335.403,163.27959979248047 336.005,162.69359979248046 C336.59,162.12459979248047 337.426,161.69259979248048 338.333,161.69259979248048 C338.697,161.69259979248048 339.238,161.75959979248046 339.74,162.11459979248048 L350.177,168.94059979248047 C351.253,169.65859979248046 351.719,170.88159979248047 351.719,171.81859979248046 C351.719,172.73059979248046 351.309,173.94159979248047 350.155,174.67059979248046 L339.74,181.48159979248047 C339.238,181.83659979248046 338.697,181.90459979248047 338.333,181.90459979248047 C337.447,181.90459979248047 336.616,181.50059979248047 336.02,180.93759979248046 C335.408,180.35859979248048 334.925,179.49559979248048 334.925,178.45659979248046 C334.925,177.52959979248047 335.346,176.56659979248047 336.171,176.04259979248047 L342.629,171.81859979248046 L336.12,167.56159979248048 z" stroke="white" id="svg_10" class=""/><path d="M411.929,197.93759979248046 C411.22,197.93759979248046 410.525,198.03959979248046 409.862,198.23659979248046 V116.77459979248047 C409.862,111.06559979248047 405.22,106.42259979248047 399.511,106.42259979248047 H326.597 C320.888,106.42259979248047 316.245,111.06559979248047 316.245,116.77459979248047 V131.74059979248048 C316.245,133.63159979248047 317.778,135.16459979248046 319.669,135.16459979248046 C321.56,135.16459979248046 323.093,133.63159979248047 323.093,131.74059979248048 V127.93459979248047 H403.014 V194.44559979248046 C401.69,192.94859979248048 399.755,192.00259979248048 397.602,192.00259979248048 H394.682 C390.697,192.00259979248048 387.457,195.24259979248046 387.457,199.22759979248048 V199.29059979248046 C386.792,199.52659979248048 386.137,199.79059979248046 385.493,200.08259979248047 L385.465,200.05359979248047 C384.102,198.69059979248047 382.283,197.93659979248048 380.356,197.93659979248048 C378.429,197.93659979248048 376.61,198.69059979248047 375.247,200.05259979248046 L373.183,202.11659979248046 C371.82,203.47959979248046 371.066,205.29859979248047 371.066,207.22659979248047 C371.066,209.10259979248048 371.78,210.87459979248047 373.074,212.22359979248046 C372.743,212.91259979248048 372.444,213.61559979248048 372.177,214.33059979248046 C368.711,214.41559979248046 365.844,216.95159979248047 365.247,220.26759979248047 H323.093 V207.83059979248046 C323.093,205.93859979248046 321.56,204.40659979248048 319.669,204.40659979248048 C317.778,204.40659979248048 316.245,205.93859979248046 316.245,207.83059979248046 V231.20659979248046 C316.245,236.91559979248046 320.888,241.5585997924805 326.597,241.5585997924805 H371.611 C371.97,242.42759979248046 372.501,243.22559979248047 373.182,243.90659979248045 L375.247,245.97259979248048 C376.61,247.33459979248045 378.429,248.0875997924805 380.356,248.0875997924805 C382.173,248.0875997924805 383.893,247.41859979248045 385.226,246.19959979248046 C385.957,246.5415997924805 386.704,246.84759979248048 387.464,247.11759979248046 C387.632,250.95459979248045 390.804,254.0225997924805 394.682,254.0225997924805 H397.602 C401.527,254.0225997924805 404.729,250.87959979248046 404.825,246.97759979248048 C405.539,246.71059979248048 406.242,246.41159979248044 406.93,246.08059979248048 C408.28,247.37459979248047 410.053,248.08859979248047 411.929,248.08859979248047 C413.855,248.08859979248047 415.674,247.33459979248045 417.037,245.97259979248048 L419.102,243.90759979248048 C420.464,242.54459979248048 421.218,240.72559979248047 421.218,238.79959979248048 C421.218,236.87259979248046 420.464,235.05359979248047 419.102,233.69059979248047 L419.073,233.66159979248047 C419.364,233.01859979248047 419.628,232.36259979248047 419.865,231.69759979248047 H419.927 C423.912,231.69759979248047 427.152,228.45759979248047 427.152,224.47259979248048 V221.55259979248046 C427.152,217.56859979248046 423.912,214.32859979248047 419.927,214.32859979248047 H419.727 C419.494,213.70359979248047 419.235,213.08759979248046 418.953,212.48359979248048 L419.101,212.33559979248048 C420.464,210.97359979248046 421.216,209.15459979248047 421.216,207.22659979248047 C421.216,205.29859979248047 420.464,203.47959979248046 419.101,202.11759979248046 L417.037,200.05359979248047 C415.674,198.69059979248047 413.856,197.93759979248046 411.929,197.93759979248046 z" stroke="white" id="svg_11" class=""/></g></svg>