<svg width="183" height="152" viewBox="0 0 183 152" fill="none" xmlns="http://www.w3.org/2000/svg">
<path opacity="0.2" d="M7.36616 65.7941L7.36614 65.7941L7.36053 65.7975C7.10119 65.9539 6.7543 66.0475 6.29266 66.0475C5.84259 66.0475 5.49819 65.9595 5.23605 65.8106C4.94724 65.6354 4.71337 65.4109 4.52988 65.1341C4.35052 64.8472 4.21583 64.5139 4.13019 64.1288C4.05105 63.7128 4.01105 63.2799 4.01105 62.8295V57.003V56.503H3.51105H1.2793H0.779297V57.003V62.8295C0.779297 63.6091 0.870162 64.3636 1.05312 65.092L1.05306 65.092L1.05496 65.0991C1.25368 65.8437 1.57194 66.5098 2.01302 67.0911L2.013 67.0912L2.01605 67.0951C2.46454 67.6742 3.04213 68.1383 3.7381 68.4905L3.73806 68.4906L3.74713 68.4949C4.47767 68.8464 5.33746 69.0111 6.30883 69.0111C7.24833 69.0111 8.08491 68.8516 8.80264 68.5126L8.5891 68.0605L8.80264 68.5126C9.50314 68.1817 10.0843 67.727 10.5349 67.146C10.989 66.5744 11.3139 65.9123 11.5132 65.167C11.7203 64.433 11.8222 63.653 11.8222 62.8295V57.1579L11.9164 57.2914L15.8047 62.7979L12.0453 68.143L11.4913 68.9307H12.4542H14.8801H15.1472L15.2957 68.7085L17.6119 65.2439L19.9136 68.7074L20.062 68.9307H20.3301H22.7397H23.7027L23.1487 68.143L19.3892 62.7979L23.2775 57.2914L23.8343 56.503H22.8691H20.4594H20.1926L20.044 56.7247L17.612 60.3555L15.1654 56.7236L15.0167 56.503H14.7507H12.3249H11.8222H11.3597H11.3222H9.10661H8.60661V57.003V62.8295C8.60661 63.2671 8.56167 63.6932 8.47226 64.1084L8.47218 64.1084L8.4704 64.1175C8.39554 64.4993 8.26211 64.8291 8.07465 65.1134L8.07454 65.1133L8.06864 65.1227C7.89785 65.3947 7.66671 65.6181 7.36616 65.7941ZM27.3016 70.523V71.023H27.8016H29.6452H30.1452V70.523V55.9568V55.4568H29.6452H27.8016H27.3016V55.9568V70.523ZM41.9373 65.7941L41.9372 65.7941L41.9316 65.7975C41.6723 65.9539 41.3254 66.0475 40.8638 66.0475C40.4137 66.0475 40.0693 65.9595 39.8071 65.8106C39.5183 65.6354 39.2845 65.4109 39.101 65.1341C38.9216 64.8472 38.7869 64.5139 38.7013 64.1288C38.6221 63.7128 38.5821 63.2799 38.5821 62.8295V57.003V56.503H38.0821H35.8504H35.3504V57.003V62.8295C35.3504 63.6091 35.4413 64.3636 35.6242 65.092L35.6242 65.092L35.6261 65.0991C35.8248 65.8437 36.143 66.5098 36.5841 67.0912L36.5871 67.0951C37.0356 67.6742 37.6132 68.1383 38.3092 68.4905L38.3092 68.4906L38.3182 68.4949C39.0488 68.8464 39.9086 69.0111 40.8799 69.0111C41.8194 69.0111 42.656 68.8516 43.3737 68.5126C44.0743 68.1817 44.6555 67.7269 45.1062 67.1458C45.5602 66.5742 45.885 65.9122 46.0844 65.167C46.2914 64.4329 46.3933 63.653 46.3933 62.8295V57.003V56.503H45.8933H43.6777H43.1777V57.003V62.8295C43.1777 63.2671 43.1328 63.6932 43.0434 64.1084L43.0433 64.1084L43.0415 64.1175C42.9666 64.4993 42.8332 64.8291 42.6457 65.1134L42.6456 65.1133L42.6397 65.1227C42.469 65.3947 42.2378 65.6181 41.9373 65.7941ZM47.6412 68.4307V68.9307H48.1412H50.373H50.873V68.4307V57.003V56.503H50.373H48.1412H47.6412V57.003V68.4307Z" stroke="#EFE314"/>
<g opacity="0.2">
<path d="M123.87 18.0547L123.62 17.9106L123.371 18.0547L67.8281 50.089L67.5779 50.2333V50.5222V114.591V114.88L67.8281 115.024L123.371 147.058L123.62 147.202L123.87 147.058L179.413 115.024L179.663 114.88V114.591V50.5222V50.2333L179.413 50.089L123.87 18.0547ZM123.62 14.6404L182.499 48.5987V116.514L123.62 150.473L64.7422 116.514V48.5987L123.62 14.6404Z" stroke="#EFE314"/>
<path d="M61.1556 2.98257L60.9056 2.83823L60.6556 2.98257L49.2041 9.59409L48.9541 9.73843V10.0271V23.2502V23.5388L49.2041 23.6832L60.6556 30.2947L60.9056 30.439L61.1556 30.2947L72.6071 23.6832L72.8571 23.5388V23.2502V10.0271V9.73843L72.6071 9.59409L61.1556 2.98257ZM60.9056 0.57735L74.8151 8.60799V24.6693L60.9056 32.6999L46.9961 24.6693V8.60799L60.9056 0.57735Z" stroke="#EFE314"/>
<path fill-rule="evenodd" clip-rule="evenodd" d="M127.048 66.7971V87.4761C127.048 90.1213 124.897 92.2723 122.252 92.2723H92.5247C89.8795 92.2723 87.7285 90.1213 87.7285 87.4761V66.7971C87.7285 64.1519 89.8795 62.001 92.5247 62.001H122.252C124.897 62.001 127.048 64.1519 127.048 66.7971ZM91.0354 66.7971V87.4761C91.0354 88.2966 91.704 88.9653 92.5247 88.9653H122.252C123.072 88.9653 123.741 88.2966 123.741 87.4761V66.7971C123.741 65.9766 123.072 65.308 122.252 65.308H92.5246C91.7041 65.308 91.0354 65.9766 91.0354 66.7971Z" stroke="#EFE314"/>
<circle cx="143.113" cy="103.143" r="5.49385" stroke="#EFE314"/>
<path fill-rule="evenodd" clip-rule="evenodd" d="M95.1865 77.1114L100.186 73.8414C100.443 73.6614 100.733 73.6392 100.879 73.6392C101.309 73.6392 101.708 73.85 101.985 74.116C102.272 74.3915 102.513 74.8074 102.513 75.3116C102.513 75.772 102.286 76.2104 101.907 76.463L101.903 76.4654L98.8149 78.4948L101.886 80.5127C102.312 80.7644 102.513 81.2351 102.513 81.6779C102.513 82.185 102.269 82.5987 101.977 82.871C101.696 83.134 101.299 83.3312 100.879 83.3312C100.733 83.3312 100.443 83.3092 100.186 83.1289L95.1812 79.8559C94.677 79.5198 94.4414 78.9604 94.4414 78.495C94.4414 78.045 94.6653 77.4592 95.1808 77.1151L95.1865 77.1114Z" stroke="#EFE314"/>
<path fill-rule="evenodd" clip-rule="evenodd" d="M105.964 84.4019C105.708 84.9123 105.185 85.1614 104.691 85.1614C103.844 85.1614 103.229 84.4651 103.229 83.737C103.229 83.543 103.268 83.3573 103.337 83.1843L103.348 83.1562L110.372 69.1273C110.489 68.8811 110.668 68.681 110.904 68.5491C111.135 68.4196 111.378 68.3787 111.591 68.3787M105.964 84.4019L112.949 70.4691C113.077 70.2423 113.111 70.0194 113.111 69.822C113.111 68.8653 112.237 68.3786 111.591 68.3787" stroke="#EFE314"/>
<path d="M114.399 76.4541L114.381 76.4402C114.047 76.19 113.826 75.7671 113.826 75.3121C113.826 74.8166 114.055 74.4008 114.344 74.1198C114.625 73.8468 115.025 73.6396 115.46 73.6396C115.635 73.6396 115.894 73.6722 116.135 73.8424L121.14 77.1154C121.656 77.4596 121.879 78.0459 121.879 78.4955C121.879 78.9325 121.682 79.5132 121.129 79.863L116.135 83.129C115.894 83.2992 115.635 83.3317 115.46 83.3317C115.036 83.3317 114.637 83.1381 114.351 82.8681C114.058 82.5904 113.826 82.1766 113.826 81.6784C113.826 81.2339 114.028 80.7723 114.423 80.5207L117.52 78.4953L114.399 76.4541Z" stroke="#EFE314"/>
<path d="M150.75 91.0183C150.41 91.0183 150.077 91.0672 149.759 91.1616V52.1C149.759 49.3624 147.533 47.1362 144.796 47.1362H109.833C107.095 47.1362 104.869 49.3624 104.869 52.1V59.2764C104.869 60.1832 105.604 60.9182 106.511 60.9182C107.418 60.9182 108.153 60.1832 108.153 59.2764V57.4514H146.476V89.3441C145.841 88.626 144.913 88.1727 143.88 88.1727H142.48C140.57 88.1727 139.016 89.7262 139.016 91.6371V91.6669C138.697 91.7803 138.383 91.9071 138.074 92.0467L138.06 92.033C137.407 91.3794 136.535 91.0181 135.611 91.0181C134.687 91.0181 133.815 91.3794 133.161 92.0328L132.171 93.0225C131.518 93.6759 131.156 94.548 131.156 95.4724C131.156 96.372 131.499 97.2218 132.119 97.8689C131.961 98.1989 131.817 98.5361 131.689 98.8788C130.027 98.9197 128.652 100.136 128.366 101.726H108.153V95.7621C108.153 94.8552 107.418 94.1202 106.511 94.1202C105.604 94.1202 104.869 94.8552 104.869 95.7621V106.971C104.869 109.709 107.095 111.935 109.833 111.935H131.418C131.59 112.352 131.844 112.734 132.171 113.061L133.161 114.052C133.815 114.705 134.687 115.066 135.611 115.066C136.482 115.066 137.307 114.745 137.946 114.161C138.297 114.324 138.655 114.471 139.019 114.6C139.1 116.44 140.621 117.912 142.48 117.912H143.88C145.762 117.912 147.298 116.405 147.344 114.534C147.686 114.406 148.024 114.262 148.354 114.103C149.001 114.724 149.851 115.066 150.75 115.066C151.674 115.066 152.546 114.705 153.2 114.051L154.19 113.061C154.843 112.408 155.204 111.536 155.204 110.612C155.204 109.688 154.843 108.816 154.19 108.162L154.176 108.148C154.315 107.84 154.442 107.526 154.556 107.207H154.585C156.496 107.207 158.05 105.653 158.05 103.742V102.342C158.05 100.431 156.496 98.878 154.586 98.878H154.49C154.378 98.5785 154.254 98.2832 154.119 97.9932L154.19 97.9222C154.843 97.2692 155.203 96.397 155.203 95.4725C155.203 94.5482 154.843 93.676 154.19 93.0227L153.2 92.033C152.546 91.3797 151.674 91.0183 150.75 91.0183Z" stroke="#EFE314"/>
</g>
</svg>
