<svg width="274" height="294" viewBox="0 0 274 294" fill="none" xmlns="http://www.w3.org/2000/svg">
<path fill-rule="evenodd" clip-rule="evenodd" d="M212.395 2.17104L237.853 27.6152C239.415 29.1766 239.415 31.7081 237.853 33.2695L212.395 58.7137C210.832 60.2751 208.299 60.2751 206.737 58.7137C205.175 57.1523 205.175 54.6208 206.737 53.0595L225.367 34.4406H153.016V86.9166H145.015V26.4442H225.367L206.737 7.82531C205.175 6.26392 205.175 3.73242 206.737 2.17104C208.299 0.609654 210.832 0.609654 212.395 2.17104Z" stroke="white"/>
<path fill-rule="evenodd" clip-rule="evenodd" d="M181.646 142.175L156.188 116.73C154.626 115.169 154.626 112.638 156.188 111.076L181.646 85.632C183.209 84.0706 185.741 84.0706 187.304 85.632C188.866 87.1933 188.866 89.7249 187.304 91.2862L168.674 109.905L241.025 109.905L241.025 57.4291L249.026 57.4291L249.026 117.901L168.674 117.901L187.304 136.52C188.866 138.082 188.866 140.613 187.304 142.175C185.741 143.736 183.209 143.736 181.646 142.175Z" stroke="white"/>
<path fill-rule="evenodd" clip-rule="evenodd" d="M92.0095 148.742L157.016 187.085V253.591L92.0095 292.999L27.0027 253.591V187.085L92.0095 148.742ZM35.0035 191.651V249.089L92.0095 283.647L149.015 249.089V191.651L92.0095 158.027L35.0035 191.651Z" stroke="white"/>
<path d="M91.0094 210.805C97.0848 210.805 102.01 205.883 102.01 199.81C102.01 193.737 97.0848 188.815 91.0094 188.815C84.9339 188.815 80.0083 193.737 80.0083 199.81C80.0083 205.883 84.9339 210.805 91.0094 210.805ZM109.011 199.81C109.011 209.746 100.952 217.801 91.0094 217.801C81.0669 217.801 73.0074 209.746 73.0074 199.81C73.0074 189.874 81.0669 181.818 91.0094 181.818C100.952 181.818 109.011 189.874 109.011 199.81Z" stroke="white"/>
<path d="M114.139 247.788L114.846 247.788L114.611 247.121C113.404 243.71 111.444 240.575 108.835 237.968C104.24 233.375 98.0078 230.795 91.5094 230.795C85.0111 230.795 78.7788 233.375 74.1837 237.968C71.5749 240.575 69.6151 243.71 68.4083 247.121L68.1724 247.788L68.8797 247.788L91.5094 247.788H114.139ZM113.786 233.021C117.799 237.032 120.617 242.013 122.013 247.413C122.63 249.804 122.969 252.277 123.009 254.784L91.5094 254.784L60.0101 254.784C60.0499 252.277 60.3886 249.804 61.0064 247.413C62.4016 242.013 65.2201 237.032 69.2331 233.021C75.1411 227.116 83.1541 223.799 91.5094 223.799C99.8647 223.799 107.878 227.116 113.786 233.021Z" stroke="white"/>
<path d="M43.5426 33.4395L86.0851 57.9876V107.084L43.5426 131.632L1 107.084V57.9876L43.5426 33.4395Z" stroke="white"/>
<path d="M203.8 206.046L203.55 206.191V206.479V242.226V242.514L203.8 242.659L234.775 260.532L235.025 260.676L235.275 260.532L266.249 242.659L266.499 242.514V242.226V206.479V206.191L266.249 206.046L235.275 188.173L235.025 188.029L234.775 188.173L203.8 206.046ZM196.55 202.152L235.025 179.95L273.5 202.152V246.553L235.025 268.755L196.55 246.553V202.152Z" stroke="white"/>
</svg>
