<svg width="320" height="430" viewBox="0 0 320 430" fill="none" xmlns="http://www.w3.org/2000/svg">
<g opacity="0.5">
<mask id="mask0" mask-type="alpha" maskUnits="userSpaceOnUse" x="-3" y="111" width="312" height="312">
<circle cx="153" cy="267" r="156" fill="url(#paint0_radial)"/>
</mask>
<g mask="url(#mask0)">
<line x1="64.5" y1="15" x2="64.5" y2="470" stroke="#EFE314"/>
<line x1="140.5" y1="15" x2="140.5" y2="470" stroke="#EFE314"/>
<line x1="216.5" y1="15" x2="216.5" y2="470" stroke="#EFE314"/>
<line x1="292.5" y1="16" x2="292.5" y2="471" stroke="#EFE314"/>
<line x1="25" y1="394.5" x2="330" y2="394.5" stroke="#EFE314"/>
<line x1="25" y1="318.5" x2="330" y2="318.5" stroke="#EFE314"/>
<line x1="25" y1="242.5" x2="330" y2="242.5" stroke="#EFE314"/>
<line x1="26" y1="166.5" x2="331" y2="166.5" stroke="#EFE314"/>
</g>
<mask id="mask1" mask-type="alpha" maskUnits="userSpaceOnUse" x="-106" y="0" width="298" height="298">
<circle cx="43" cy="149" r="149" fill="url(#paint1_radial)"/>
</mask>
<g mask="url(#mask1)">
<line x1="64.5" y1="-61" x2="64.5" y2="394" stroke="#EFE314"/>
<line x1="140.5" y1="-60" x2="140.5" y2="395" stroke="#EFE314"/>
<line x1="-127" y1="242.5" x2="178" y2="242.5" stroke="#EFE314"/>
<line x1="-127" y1="166.5" x2="178" y2="166.5" stroke="#EFE314"/>
<line x1="-126" y1="90.5" x2="179" y2="90.5" stroke="#EFE314"/>
<line x1="-126" y1="14.5" x2="179" y2="14.5" stroke="#EFE314"/>
</g>
</g>
<g opacity="0.5">
<mask id="mask2" mask-type="alpha" maskUnits="userSpaceOnUse" x="32" y="132" width="298" height="298">
<circle cx="181" cy="281" r="149" fill="url(#paint2_radial)"/>
</mask>
<g mask="url(#mask2)">
<line x1="140.5" y1="91" x2="140.5" y2="546" stroke="#EFE314"/>
<line x1="216.5" y1="91" x2="216.5" y2="546" stroke="#EFE314"/>
<line x1="292.5" y1="91" x2="292.5" y2="546" stroke="#EFE314"/>
<line x1="101" y1="394.5" x2="406" y2="394.5" stroke="#EFE314"/>
<line x1="101" y1="318.5" x2="406" y2="318.5" stroke="#EFE314"/>
<line x1="102" y1="242.5" x2="407" y2="242.5" stroke="#EFE314"/>
<line x1="102" y1="166.5" x2="407" y2="166.5" stroke="#EFE314"/>
</g>
</g>
<defs>
<radialGradient id="paint0_radial" cx="0" cy="0" r="1" gradientUnits="userSpaceOnUse" gradientTransform="translate(153 267) rotate(90) scale(176.526)">
<stop stop-color="white" stop-opacity="0.83"/>
<stop offset="1" stop-color="white" stop-opacity="0"/>
</radialGradient>
<radialGradient id="paint1_radial" cx="0" cy="0" r="1" gradientUnits="userSpaceOnUse" gradientTransform="translate(43 149) rotate(90) scale(168.605)">
<stop stop-color="white" stop-opacity="0.83"/>
<stop offset="1" stop-color="white" stop-opacity="0"/>
</radialGradient>
<radialGradient id="paint2_radial" cx="0" cy="0" r="1" gradientUnits="userSpaceOnUse" gradientTransform="translate(181 281) rotate(90) scale(168.605)">
<stop stop-color="white" stop-opacity="0.83"/>
<stop offset="1" stop-color="white" stop-opacity="0"/>
</radialGradient>
</defs>
</svg>
