<svg width="185" height="135" viewBox="0 0 185 135" fill="none" xmlns="http://www.w3.org/2000/svg">
<g opacity="0.2">
<path fill-rule="evenodd" clip-rule="evenodd" d="M131.51 1.46024L141.51 11.4604C142.124 12.0741 142.124 13.069 141.51 13.6827L131.51 23.6828C130.896 24.2965 129.901 24.2965 129.288 23.6828C128.674 23.0691 128.674 22.0742 129.288 21.4605L136.605 14.1429H108.186V34.7672H105.043V11.0002H136.605L129.288 3.6825C128.674 3.06884 128.674 2.0739 129.288 1.46024C129.901 0.846585 130.896 0.846585 131.51 1.46024Z" stroke="#EFE314"/>
<path fill-rule="evenodd" clip-rule="evenodd" d="M119.432 56.4845L109.431 46.4843C108.818 45.8706 108.818 44.8757 109.431 44.262L119.432 34.2619C120.045 33.6482 121.04 33.6482 121.654 34.2619C122.267 34.8756 122.267 35.8705 121.654 36.4842L114.336 43.8018L142.756 43.8018L142.756 23.1775L145.898 23.1775L145.898 46.9445L114.336 46.9445L121.654 54.2622C122.267 54.8759 122.267 55.8708 121.654 56.4845C121.04 57.0981 120.045 57.0981 119.432 56.4845Z" stroke="#EFE314"/>
<path fill-rule="evenodd" clip-rule="evenodd" d="M78.1261 55.1056L113.658 76.0755V112.448L78.1261 134L42.5938 112.448V76.0755L78.1261 55.1056ZM46.967 78.5726V109.985L78.1261 128.885L109.285 109.985V78.5726L78.1261 60.1836L46.967 78.5726Z" stroke="#EFE314"/>
<path d="M77.5799 89.2737C81.026 89.2737 83.8197 86.48 83.8197 83.0338C83.8197 79.5877 81.026 76.794 77.5799 76.794C74.1337 76.794 71.34 79.5877 71.34 83.0338C71.34 86.48 74.1337 89.2737 77.5799 89.2737ZM87.1929 83.0338C87.1929 88.343 82.889 92.6469 77.5799 92.6469C72.2707 92.6469 67.9668 88.343 67.9668 83.0338C67.9668 77.7247 72.2707 73.4208 77.5799 73.4208C82.889 73.4208 87.1929 77.7247 87.1929 83.0338Z" stroke="#EFE314"/>
<path d="M90.2216 109.5H90.9287L90.693 108.833C90.0222 106.936 88.9328 105.193 87.4828 103.743C84.9286 101.188 81.4644 99.7535 77.8522 99.7535C74.2401 99.7535 70.7759 101.188 68.2217 103.743C66.7716 105.193 65.6823 106.936 65.0115 108.833L64.7758 109.5H65.4829L77.8522 109.5L90.2216 109.5ZM89.868 101.357C92.0326 103.522 93.553 106.21 94.3055 109.125C94.6199 110.342 94.8003 111.599 94.8377 112.873L77.8522 112.873L60.8667 112.873C60.9042 111.599 61.0846 110.342 61.3989 109.125C62.1515 106.21 63.6718 103.522 65.8365 101.357C69.0232 98.1706 73.3454 96.3802 77.8522 96.3802C82.359 96.3802 86.6812 98.1706 89.868 101.357Z" stroke="#EFE314"/>
<path d="M24.2535 5.73633L47.5071 19.1618V46.0126L24.2535 59.4381L1 46.0126V19.1618L24.2535 5.73633Z" stroke="#EFE314"/>
<path d="M163.392 76.4743L163.142 76.3299L162.892 76.4743L145.961 86.2491L145.711 86.3934V86.6821V106.232V106.52L145.961 106.665L162.892 116.439L163.142 116.584L163.392 116.439L180.322 106.665L180.572 106.52V106.232V86.6821V86.3934L180.322 86.2491L163.392 76.4743ZM163.142 72.4349L183.945 84.4459V108.468L163.142 120.479L142.338 108.468V84.4459L163.142 72.4349Z" stroke="#EFE314"/>
</g>
</svg>
