<svg width="269" height="253" viewBox="0 0 269 253" fill="none" xmlns="http://www.w3.org/2000/svg">
<path d="M209.055 51.3108C213.092 51.3108 216.365 48.0376 216.365 44C216.365 39.9623 213.092 36.6892 209.055 36.6892C205.017 36.6892 201.744 39.9623 201.744 44C201.744 48.0376 205.017 51.3108 209.055 51.3108ZM220.555 44C220.555 50.3513 215.406 55.5 209.055 55.5C202.703 55.5 197.555 50.3513 197.555 44C197.555 37.6487 202.703 32.5 209.055 32.5C215.406 32.5 220.555 37.6487 220.555 44Z" stroke="white"/>
<path d="M224.904 75.25H225.611L225.375 74.5833C224.575 72.3197 223.275 70.2396 221.545 68.5095C218.498 65.462 214.364 63.75 210.055 63.75C205.745 63.75 201.612 65.462 198.564 68.5095C196.834 70.2396 195.534 72.3197 194.734 74.5833L194.498 75.25H195.205L210.055 75.25L224.904 75.25ZM224.55 65.5043C227.162 68.1157 228.996 71.3591 229.904 74.875C230.291 76.3763 230.51 77.9273 230.549 79.5L210.055 79.5L189.561 79.5C189.599 77.9273 189.818 76.3763 190.206 74.875C191.113 71.3591 192.948 68.1157 195.559 65.5043C199.403 61.6598 204.618 59.5 210.055 59.5C215.492 59.5 220.706 61.6598 224.55 65.5043Z" stroke="white"/>
<path fill-rule="evenodd" clip-rule="evenodd" d="M210.356 1L257.657 28.3094V82.9282L210.356 110.238L163.055 82.9282V28.3094L210.356 1ZM171.055 32.9282V78.3094L210.356 101L249.657 78.3094V32.9282L210.356 10.2376L171.055 32.9282Z" stroke="white"/>
<path fill-rule="evenodd" clip-rule="evenodd" d="M260.883 147.524L232.199 97.6267L239.134 93.6396L267.818 143.537L260.883 147.524Z" stroke="white"/>
<path fill-rule="evenodd" clip-rule="evenodd" d="M111.871 159.91L59.1136 174.046L20.4923 135.425L34.6287 82.6673L87.3864 68.5309L126.008 107.152L111.871 159.91ZM117.085 109.543L84.9955 77.4537L41.1606 89.1993L29.4151 133.034L61.5045 165.123L105.339 153.378L117.085 109.543Z" stroke="white"/>
<path d="M151.682 185.859L111.73 160.05" stroke="white"/>
<path d="M190.903 171.158L190.653 171.014L190.403 171.158L159.432 189.039L159.182 189.184V189.472V225.235V225.523L159.432 225.668L190.403 243.549L190.653 243.693L190.903 243.549L221.874 225.668L222.124 225.523V225.235V189.472V189.184L221.874 189.039L190.903 171.158ZM190.653 162.931L229.124 185.142V229.565L190.653 251.776L152.182 229.565V185.142L190.653 162.931Z" stroke="white"/>
</svg>
