<svg width="205" height="193" viewBox="0 0 205 193" fill="none" xmlns="http://www.w3.org/2000/svg">
<g opacity="0.2">
<path d="M159.261 39.4224C162.401 39.4224 164.946 36.877 164.946 33.7371C164.946 30.5972 162.401 28.0518 159.261 28.0518C156.121 28.0518 153.576 30.5972 153.576 33.7371C153.576 36.877 156.121 39.4224 159.261 39.4224ZM167.897 33.7371C167.897 38.5066 164.031 42.3731 159.261 42.3731C154.491 42.3731 150.625 38.5066 150.625 33.7371C150.625 28.9676 154.491 25.1011 159.261 25.1011C164.031 25.1011 167.897 28.9676 167.897 33.7371Z" stroke="#EFE314"/>
<path d="M171.327 57.648H172.034L171.798 56.9813C171.183 55.2414 170.184 53.6424 168.854 52.3125C166.511 49.97 163.334 48.654 160.021 48.654C156.708 48.654 153.531 49.97 151.189 52.3125C149.859 53.6424 148.86 55.2414 148.245 56.9813L148.009 57.648H148.716L160.021 57.648L171.327 57.648ZM170.973 50.1933C172.946 52.1663 174.332 54.6167 175.018 57.273C175.3 58.3684 175.464 59.4987 175.501 60.645L160.021 60.645L144.541 60.645C144.578 59.4987 144.742 58.3684 145.025 57.273C145.711 54.6167 147.097 52.1663 149.07 50.1933C151.974 47.2888 155.914 45.657 160.021 45.657C164.129 45.657 168.068 47.2888 170.973 50.1933Z" stroke="#EFE314"/>
<path fill-rule="evenodd" clip-rule="evenodd" d="M160.25 1L196.263 21.7916V63.3748L160.25 84.1665L124.238 63.3748V21.7916L160.25 1ZM130.329 25.3081V59.8584L160.25 77.1335L190.172 59.8584V25.3081L160.25 8.03292L130.329 25.3081Z" stroke="#EFE314"/>
<path fill-rule="evenodd" clip-rule="evenodd" d="M198.718 112.554L176.88 74.5653L182.16 71.5298L203.999 109.518L198.718 112.554Z" stroke="#EFE314"/>
<path fill-rule="evenodd" clip-rule="evenodd" d="M85.2719 121.984L45.1056 132.746L15.7018 103.342L26.4643 63.1761L66.6307 52.4136L96.0344 81.8174L85.2719 121.984ZM89.2412 83.6376L64.8104 59.2069L31.4374 68.1492L22.4951 101.522L46.9258 125.953L80.2989 117.011L89.2412 83.6376Z" stroke="#EFE314"/>
<path d="M115.58 141.74L85.1636 122.09" stroke="#EFE314"/>
<path d="M145.5 130.444L145.25 130.3L145 130.444L121.421 144.057L121.171 144.202V144.49V171.718V172.006L121.421 172.151L145 185.764L145.25 185.909L145.5 185.764L169.08 172.151L169.33 172.006V171.718V144.49V144.202L169.08 144.057L145.5 130.444ZM145.25 124.421L174.42 141.263V174.945L145.25 191.787L116.08 174.945V141.263L145.25 124.421Z" stroke="#EFE314"/>
</g>
</svg>
