<svg width="317" height="319" viewBox="0 0 317 319" fill="none" xmlns="http://www.w3.org/2000/svg">
<g opacity="0.5">
<mask id="mask0" mask-type="alpha" maskUnits="userSpaceOnUse" x="-16" y="0" width="312" height="312">
<circle cx="140" cy="156" r="156" fill="url(#paint0_radial)"/>
</mask>
<g mask="url(#mask0)">
<line x1="51.5" y1="-96" x2="51.5" y2="359" stroke="#EFE314"/>
<line x1="127.5" y1="-96" x2="127.5" y2="359" stroke="#EFE314"/>
<line x1="203.5" y1="-96" x2="203.5" y2="359" stroke="#EFE314"/>
<line x1="279.5" y1="-95" x2="279.5" y2="360" stroke="#EFE314"/>
<line x1="12" y1="283.5" x2="317" y2="283.5" stroke="#EFE314"/>
<line x1="12" y1="207.5" x2="317" y2="207.5" stroke="#EFE314"/>
<line x1="12" y1="131.5" x2="317" y2="131.5" stroke="#EFE314"/>
<line x1="13" y1="55.5" x2="318" y2="55.5" stroke="#EFE314"/>
</g>
</g>
<g opacity="0.5">
<mask id="mask1" mask-type="alpha" maskUnits="userSpaceOnUse" x="19" y="21" width="298" height="298">
<circle cx="168" cy="170" r="149" fill="url(#paint1_radial)"/>
</mask>
<g mask="url(#mask1)">
<line x1="127.5" y1="-20" x2="127.5" y2="435" stroke="#EFE314"/>
<line x1="203.5" y1="-20" x2="203.5" y2="435" stroke="#EFE314"/>
<line x1="279.5" y1="-20" x2="279.5" y2="435" stroke="#EFE314"/>
<line x1="88" y1="283.5" x2="393" y2="283.5" stroke="#EFE314"/>
<line x1="88" y1="207.5" x2="393" y2="207.5" stroke="#EFE314"/>
<line x1="89" y1="131.5" x2="394" y2="131.5" stroke="#EFE314"/>
<line x1="89" y1="55.5" x2="394" y2="55.5" stroke="#EFE314"/>
</g>
</g>
<defs>
<radialGradient id="paint0_radial" cx="0" cy="0" r="1" gradientUnits="userSpaceOnUse" gradientTransform="translate(140 156) rotate(90) scale(176.526)">
<stop stop-color="white" stop-opacity="0.83"/>
<stop offset="1" stop-color="white" stop-opacity="0"/>
</radialGradient>
<radialGradient id="paint1_radial" cx="0" cy="0" r="1" gradientUnits="userSpaceOnUse" gradientTransform="translate(168 170) rotate(90) scale(168.605)">
<stop stop-color="white" stop-opacity="0.83"/>
<stop offset="1" stop-color="white" stop-opacity="0"/>
</radialGradient>
</defs>
</svg>
