<svg width="160" height="185" viewBox="0 0 160 185" fill="none" xmlns="http://www.w3.org/2000/svg">
<g opacity="0.2">
<path fill-rule="evenodd" clip-rule="evenodd" d="M100.105 107.334L135.265 122.622L128.684 164.387L100.157 184L69.3236 164.378L66.0312 122.591L100.105 107.334ZM100.127 111.52L70.0608 124.983L72.991 162.173L100.075 179.409L125.158 162.165L131.021 124.952L100.127 111.52Z" stroke="#EFE314"/>
<path fill-rule="evenodd" clip-rule="evenodd" d="M100.607 125.331L84.8764 158.787H87.3866L90.8975 151.853C91.2032 151.25 91.828 150.868 92.5114 150.868H108.697C109.407 150.868 110.051 151.28 110.343 151.919L113.473 158.787H116.338L100.607 125.331ZM98.9707 121.29C99.6173 119.915 101.597 119.915 102.244 121.29L120.173 159.422C120.729 160.603 119.855 161.954 118.537 161.954H112.565C111.855 161.954 111.211 161.543 110.92 160.904L107.79 154.036H93.3787L89.8678 160.97C89.5622 161.573 88.9374 161.954 88.254 161.954H82.6776C81.359 161.954 80.4858 160.603 81.041 159.422L98.9707 121.29ZM100.633 138.573L97.7682 144.336H103.604L100.633 138.573ZM98.9908 134.689C99.646 133.371 101.544 133.357 102.218 134.666L107.502 144.913C108.113 146.098 107.241 147.503 105.894 147.503H95.516C94.1804 147.503 93.3077 146.12 93.8963 144.936L98.9908 134.689Z" stroke="#EFE314"/>
<path fill-rule="evenodd" clip-rule="evenodd" d="M140.23 1.28784L183.073 26.5925V72.6031L140.23 96.655L97.6328 72.5999V26.5958L140.23 1.28784ZM140.236 5.73852L101.462 28.7748V70.3647L140.236 92.2605L179.244 70.3615V28.7781L140.236 5.73852Z" stroke="#EFE314"/>
<path fill-rule="evenodd" clip-rule="evenodd" d="M156.604 34.4689C155.798 40.0878 153.299 47.2021 149.244 54.4296C145.189 61.657 140.419 67.4976 136.044 71.1135C133.851 72.9251 131.827 74.1204 130.103 74.6901C128.379 75.2593 127.13 75.1544 126.255 74.6634C125.38 74.1723 124.639 73.1611 124.227 71.3933C123.814 69.6244 123.779 67.2742 124.183 64.4589C124.989 58.84 127.488 51.7257 131.543 44.4983C135.598 37.2708 140.368 31.4302 144.743 27.8143C146.936 26.0027 148.96 24.8075 150.684 24.2378C152.408 23.6685 153.657 23.7734 154.532 24.2645C155.407 24.7555 156.148 25.7668 156.56 27.5345C156.973 29.3035 157.007 31.6537 156.604 34.4689ZM159.806 26.7773C159.266 24.4644 158.133 22.4632 156.163 21.3579C154.193 20.2525 151.894 20.3282 149.639 21.0731C147.385 21.8175 144.999 23.2798 142.62 25.2452C137.855 29.1834 132.84 35.375 128.637 42.8674C124.433 50.3599 121.761 57.8661 120.884 63.9859C120.446 67.04 120.442 69.8388 120.981 72.1505C121.521 74.4634 122.654 76.4646 124.624 77.57C126.594 78.6753 128.893 78.5996 131.148 77.8548C133.402 77.1103 135.788 75.6481 138.167 73.6827C142.932 69.7445 147.947 63.5528 152.15 56.0604C156.354 48.568 159.025 41.0618 159.903 34.9419C160.341 31.8878 160.345 29.0891 159.806 26.7773Z" stroke="#EFE314"/>
<path fill-rule="evenodd" clip-rule="evenodd" d="M124.181 34.4689C124.987 40.0878 127.486 47.2021 131.541 54.4296C135.597 61.657 140.366 67.4976 144.742 71.1135C146.934 72.9251 148.958 74.1204 150.683 74.6901C152.406 75.2593 153.655 75.1544 154.53 74.6634C155.406 74.1723 156.146 73.1611 156.558 71.3933C156.971 69.6244 157.006 67.2742 156.602 64.4589C155.796 58.84 153.297 51.7257 149.242 44.4983C145.187 37.2708 140.417 31.4302 136.042 27.8143C133.849 26.0027 131.826 24.8075 130.101 24.2378C128.377 23.6685 127.128 23.7734 126.253 24.2645C125.378 24.7555 124.637 25.7668 124.225 27.5345C123.812 29.3035 123.778 31.6537 124.181 34.4689ZM120.979 26.7773C121.519 24.4644 122.652 22.4632 124.622 21.3579C126.592 20.2525 128.891 20.3282 131.146 21.0731C133.4 21.8175 135.786 23.2798 138.165 25.2452C142.931 29.1834 147.945 35.375 152.149 42.8674C156.352 50.3599 159.024 57.8661 159.901 63.9859C160.339 67.04 160.343 69.8388 159.804 72.1505C159.265 74.4634 158.131 76.4646 156.161 77.57C154.191 78.6753 151.893 78.5996 149.637 77.8548C147.383 77.1103 144.997 75.6481 142.619 73.6827C137.853 69.7445 132.839 63.5528 128.635 56.0604C124.431 48.568 121.76 41.0618 120.882 34.9419C120.444 31.8878 120.44 29.0891 120.979 26.7773Z" stroke="#EFE314"/>
<path fill-rule="evenodd" clip-rule="evenodd" d="M119.381 56.2636C124.675 58.3104 132.103 59.612 140.39 59.612C148.677 59.612 156.105 58.3104 161.399 56.2636C164.052 55.2381 166.084 54.058 167.425 52.8325C168.765 51.6079 169.285 50.4673 169.285 49.4638C169.285 48.4602 168.765 47.3197 167.425 46.0951C166.084 44.8696 164.052 43.6894 161.399 42.6639C156.105 40.6171 148.677 39.3156 140.39 39.3156C132.103 39.3156 124.675 40.6171 119.381 42.6639C116.728 43.6894 114.695 44.8696 113.354 46.0951C112.015 47.3197 111.495 48.4602 111.495 49.4638C111.495 50.4673 112.015 51.6079 113.354 52.8325C114.695 54.058 116.728 55.2381 119.381 56.2636ZM111.106 55.2926C109.353 53.6903 108.162 51.7228 108.162 49.4638C108.162 47.2048 109.353 45.2373 111.106 43.635C112.858 42.0335 115.301 40.6678 118.179 39.5553C123.945 37.326 131.799 35.9828 140.39 35.9828C148.981 35.9828 156.834 37.326 162.601 39.5553C165.479 40.6678 167.922 42.0335 169.674 43.635C171.427 45.2373 172.618 47.2048 172.618 49.4638C172.618 51.7228 171.427 53.6903 169.674 55.2926C167.922 56.8941 165.479 58.2598 162.601 59.3723C156.834 61.6016 148.981 62.9448 140.39 62.9448C131.799 62.9448 123.945 61.6016 118.179 59.3723C115.301 58.2598 112.858 56.8941 111.106 55.2926Z" stroke="#EFE314"/>
<path d="M144.678 49.6574C144.678 52.325 142.515 54.4875 139.848 54.4875C137.18 54.4875 135.018 52.325 135.018 49.6574C135.018 46.9899 137.18 44.8274 139.848 44.8274C142.515 44.8274 144.678 46.9899 144.678 49.6574Z" stroke="#EFE314"/>
<path d="M64.9411 85.4184L38.859 102.807L31.9638 98.1701L27.9736 100.101L38.8498 107.415L68.7704 87.4678V55.4172L38.8503 38.2834L9.17773 55.4219V87.4678L19.8203 94.5628C24.2736 97.5316 30.2386 94.3393 30.2386 88.987V61.3136H26.4093V88.987C26.4093 91.2808 23.8529 92.649 21.9443 91.3766L13.007 85.4184V57.6323L38.8585 42.7008L64.9411 57.637V85.4184Z" stroke="#EFE314"/>
<path d="M50.0029 77.1766L50.0029 77.1767L50.0062 77.1833C50.1507 77.4741 50.2291 77.8146 50.2295 78.2158C50.2171 79.0314 49.8374 79.6952 48.9982 80.2291C48.1457 80.7714 46.9434 81.0682 45.344 81.0682C44.7156 81.0682 44.0785 81.0009 43.4323 80.8655C42.8071 80.7345 42.239 80.5131 41.7247 80.2031C41.2368 79.9005 40.8218 79.5033 40.4789 79.006C40.17 78.5384 39.9789 77.9447 39.9272 77.2033L39.8947 76.7381H39.4284H35.5059H35.0059V77.2381C35.0059 78.2966 35.2429 79.3162 35.7126 80.292L35.7126 80.292L35.7154 80.2976C36.2006 81.2738 36.8887 82.1311 37.772 82.8691L37.772 82.8692L37.7791 82.8749C38.6788 83.599 39.763 84.1789 41.0227 84.621L41.0227 84.621L41.0276 84.6227C42.3046 85.0559 43.7457 85.2677 45.344 85.2677C46.7411 85.2677 48.0389 85.0994 49.2343 84.7579C50.4261 84.4175 51.4638 83.9321 52.3385 83.2948C53.214 82.6571 53.901 81.8841 54.391 80.9764C54.9005 80.0589 55.1521 79.0439 55.1521 77.942C55.1521 76.917 54.9312 75.992 54.4743 75.1823C54.038 74.384 53.4049 73.6977 52.59 73.1203C51.7791 72.5316 50.7939 72.0425 49.6439 71.6469C48.5028 71.2402 47.2164 70.8864 45.7866 70.5844L45.7866 70.5843L45.7806 70.5832C44.718 70.3722 43.8482 70.1563 43.1664 69.9369C42.5028 69.7188 41.9917 69.4811 41.6184 69.2314C41.2632 68.9843 41.0417 68.7272 40.9186 68.4693C40.7857 68.1907 40.7129 67.8608 40.7129 67.4687C40.7129 67.1116 40.798 66.763 40.9756 66.4175C41.1495 66.0793 41.4081 65.7733 41.764 65.501C42.1312 65.2308 42.5975 65.0057 43.1739 64.8342C43.7544 64.6657 44.4403 64.5772 45.238 64.5772C45.9971 64.5772 46.6595 64.6844 47.2323 64.8893L47.2323 64.8893L47.2356 64.8904C47.8404 65.1021 48.3381 65.3746 48.7381 65.7015C49.1421 66.0317 49.4511 66.4069 49.6722 66.827L49.6722 66.8271L49.6751 66.8325C49.8928 67.2341 49.9963 67.6362 49.9963 68.0447V68.5447H50.4963H54.4189H54.9189V68.0447C54.9189 66.9615 54.6835 65.9468 54.2101 65.0079C53.7532 64.0598 53.0998 63.2367 52.2566 62.5399C51.4098 61.8401 50.3909 61.3005 49.2099 60.9143C48.0205 60.5254 46.6947 60.335 45.238 60.335C43.8782 60.335 42.6172 60.5189 41.4589 60.8923L41.4589 60.8923L41.4571 60.8929C40.3221 61.2637 39.3295 61.7719 38.4866 62.423C37.6434 63.0744 36.9808 63.8457 36.507 64.7369C36.0291 65.6214 35.7904 66.5774 35.7904 67.5967C35.7904 68.6261 36.0202 69.5545 36.4948 70.3661L36.4948 70.3661L36.497 70.3698C36.9612 71.1481 37.6057 71.8234 38.4186 72.3989L38.4185 72.399L38.4273 72.4049C39.246 72.959 40.2111 73.4316 41.3168 73.8268L41.3187 73.8275C42.4317 74.2201 43.6555 74.5529 44.9889 74.8269L44.9922 74.8276C46.05 75.0376 46.9195 75.273 47.6069 75.5306L47.6068 75.5307L47.615 75.5336C48.3089 75.7799 48.8423 76.0454 49.2305 76.3225C49.6177 76.599 49.8641 76.8865 50.0029 77.1766Z" stroke="#EFE314"/>
<path d="M52.1016 11C52.0295 11 51.9587 11.0188 51.8962 11.0545C51.834 11.0909 51.7824 11.1429 51.7464 11.2052C51.7104 11.2676 51.6913 11.3383 51.6909 11.4103V21.8775C51.6909 21.9802 51.6432 22.0722 51.5542 22.1237C51.5105 22.1491 51.461 22.1625 51.4105 22.1625C51.36 22.1625 51.3104 22.1491 51.2668 22.1237L49.556 21.1387C49.4313 21.0665 49.2897 21.0285 49.1455 21.0285C49.0013 21.0285 48.8597 21.0665 48.7349 21.1387L41.9059 25.0791C41.6507 25.2265 41.4955 25.5097 41.4955 25.8044V33.6855C41.4955 33.9798 41.6509 34.2495 41.9059 34.3969L48.7349 38.3375C48.8596 38.4099 49.0013 38.448 49.1455 38.448C49.2897 38.448 49.4313 38.4099 49.556 38.3375L56.385 34.3969C56.5101 34.3249 56.6139 34.2213 56.686 34.0963C56.7581 33.9714 56.7959 33.8297 56.7957 33.6855V14.0375C56.7955 13.8899 56.7561 13.745 56.6816 13.6175C56.6071 13.4901 56.5001 13.3848 56.3715 13.3122L52.3068 11.0409C52.2431 11.0053 52.1723 10.999 52.1016 11V11ZM8.17152 20.8376C8.04142 20.8428 7.91892 20.8656 7.80214 20.9333L0.972969 24.8739C0.847872 24.9458 0.744011 25.0494 0.671923 25.1744C0.599835 25.2993 0.562085 25.4411 0.562503 25.5853L0.576198 36.1622C0.576198 36.3092 0.652091 36.4459 0.781431 36.5178C0.84344 36.5551 0.914418 36.5747 0.986759 36.5747C1.0591 36.5747 1.13008 36.5551 1.19209 36.5178L5.24291 34.1919C5.4995 34.0394 5.66707 33.7743 5.66707 33.4803V28.5409C5.66707 28.2461 5.82209 27.9757 6.07773 27.8293L7.80195 26.8305C7.92661 26.7581 8.0684 26.7203 8.2126 26.721C8.35336 26.721 8.49791 26.7562 8.62307 26.8305L10.3475 27.8293C10.4727 27.9011 10.5767 28.0047 10.6488 28.1297C10.7209 28.2547 10.7586 28.3966 10.7581 28.5409V33.4801C10.7581 33.7741 10.9274 34.0411 11.1823 34.1917L15.2331 36.5178C15.2951 36.5551 15.3661 36.5747 15.4384 36.5747C15.5108 36.5747 15.5818 36.5551 15.6438 36.5178C15.7062 36.4817 15.758 36.4298 15.7941 36.3674C15.8301 36.3049 15.8491 36.2341 15.8492 36.162L15.8625 25.5853C15.8633 25.441 15.8257 25.2991 15.7536 25.1741C15.6815 25.0491 15.5774 24.9455 15.452 24.8739L8.62307 20.9333C8.50761 20.8656 8.38474 20.843 8.25369 20.8376H8.17152ZM69.5367 20.9333C69.394 20.9333 69.2542 20.9694 69.1262 21.0428L62.2972 24.9835C62.1722 25.0554 62.0683 25.159 61.9962 25.284C61.9241 25.4089 61.8863 25.5506 61.8866 25.6949V33.5759C61.8866 33.8724 62.0536 34.1409 62.3107 34.2875L69.0851 38.146C69.3352 38.2886 69.6407 38.2995 69.8925 38.1593L73.9981 35.8745C74.1284 35.8022 74.2165 35.6672 74.2171 35.5189C74.2178 35.4466 74.1991 35.3755 74.163 35.313C74.1269 35.2504 74.0747 35.1986 74.0118 35.1631L67.1418 31.2224C67.0132 31.149 66.9228 31.0005 66.9228 30.8529V28.3903C66.9228 28.2429 67.0141 28.1079 67.1418 28.0345L69.2766 26.803C69.339 26.7669 69.4099 26.7479 69.482 26.7479C69.5541 26.7479 69.6249 26.7669 69.6873 26.803L71.822 28.0345C71.8845 28.0704 71.9365 28.1222 71.9725 28.1847C72.0086 28.2471 72.0275 28.318 72.0274 28.3901V30.333C72.0272 30.4051 72.0461 30.476 72.0821 30.5385C72.1182 30.6009 72.1701 30.6527 72.2326 30.6886C72.3606 30.7626 72.5155 30.7628 72.6431 30.6886L76.7352 28.3083C76.86 28.2361 76.9637 28.1324 77.0358 28.0075C77.1078 27.8826 77.1458 27.7409 77.1459 27.5967V25.6951C77.1459 25.4013 76.9899 25.131 76.7352 24.9835L69.9473 21.0428C69.8225 20.9707 69.6808 20.9329 69.5367 20.9335V20.9333ZM49.118 26.8169C49.1538 26.8169 49.1956 26.8256 49.2276 26.844L51.5679 28.1986C51.6314 28.2353 51.6774 28.3032 51.6774 28.3764V31.0855C51.6774 31.1591 51.6318 31.2268 51.5679 31.2635L49.2276 32.6181C49.1963 32.6359 49.1609 32.6453 49.1249 32.6453C49.089 32.6453 49.0536 32.6359 49.0223 32.6181L46.6822 31.2635C46.6185 31.2266 46.5727 31.1591 46.5727 31.0855V28.3764C46.5727 28.303 46.6187 28.2357 46.6822 28.1986L49.0223 26.8442C49.0511 26.8264 49.0843 26.8169 49.1182 26.817V26.8169H49.118Z" stroke="#EFE314"/>
<path d="M28.6864 21.3926L28.6853 21.3926C28.6285 21.3926 28.5741 21.4067 28.5244 21.4354L28.524 21.4356L21.6952 25.3624L28.6864 21.3926ZM28.6864 21.3926C28.7424 21.3924 28.7974 21.4071 28.8459 21.4351L28.8467 21.4356L35.6754 25.3623C35.6755 25.3624 35.6755 25.3624 35.6756 25.3625L28.6864 21.3926ZM68.5445 29.0405L69.5158 28.4741L70.4868 29.0405V30.1471L69.5156 30.7035L68.5445 30.1473V29.0405ZM70.6601 30.0478L70.6561 30.0502C70.6574 30.0494 70.6587 30.0486 70.6601 30.0478ZM21.5352 25.6542C21.5352 25.5285 21.6034 25.4153 21.6951 25.3625L28.5247 37.7542L21.6961 33.814C21.5953 33.7557 21.5352 33.6514 21.5352 33.5352V25.6542Z" stroke="#EFE314"/>
</g>
</svg>
