<svg width="320" height="384" viewBox="0 0 320 384" fill="none" xmlns="http://www.w3.org/2000/svg">
<g opacity="0.5">
<mask id="mask0" mask-type="alpha" maskUnits="userSpaceOnUse" x="-43" y="30" width="298" height="298">
<circle cx="106" cy="179" r="149" fill="url(#paint0_radial)"/>
</mask>
<g mask="url(#mask0)">
<line x1="51.5" y1="-31" x2="51.5" y2="424" stroke="#EFE314"/>
<line x1="127.5" y1="-31" x2="127.5" y2="424" stroke="#EFE314"/>
<line x1="203.5" y1="-30" x2="203.5" y2="425" stroke="#EFE314"/>
<line x1="-64" y1="272.5" x2="241" y2="272.5" stroke="#EFE314"/>
<line x1="-64" y1="196.5" x2="241" y2="196.5" stroke="#EFE314"/>
<line x1="-63" y1="120.5" x2="242" y2="120.5" stroke="#EFE314"/>
<line x1="-63" y1="44.5" x2="242" y2="44.5" stroke="#EFE314"/>
</g>
</g>
<g opacity="0.5">
<mask id="mask1" mask-type="alpha" maskUnits="userSpaceOnUse" x="95" y="86" width="298" height="298">
<circle cx="244" cy="235" r="149" fill="url(#paint1_radial)"/>
</mask>
<g mask="url(#mask1)">
<line x1="203.5" y1="45" x2="203.5" y2="500" stroke="#EFE314"/>
<line x1="279.5" y1="45" x2="279.5" y2="500" stroke="#EFE314"/>
<line x1="164" y1="348.5" x2="469" y2="348.5" stroke="#EFE314"/>
<line x1="164" y1="272.5" x2="469" y2="272.5" stroke="#EFE314"/>
<line x1="165" y1="196.5" x2="470" y2="196.5" stroke="#EFE314"/>
<line x1="165" y1="120.5" x2="470" y2="120.5" stroke="#EFE314"/>
</g>
</g>
<defs>
<radialGradient id="paint0_radial" cx="0" cy="0" r="1" gradientUnits="userSpaceOnUse" gradientTransform="translate(106 179) rotate(90) scale(168.605)">
<stop stop-color="white" stop-opacity="0.83"/>
<stop offset="1" stop-color="white" stop-opacity="0"/>
</radialGradient>
<radialGradient id="paint1_radial" cx="0" cy="0" r="1" gradientUnits="userSpaceOnUse" gradientTransform="translate(244 235) rotate(90) scale(168.605)">
<stop stop-color="white" stop-opacity="0.83"/>
<stop offset="1" stop-color="white" stop-opacity="0"/>
</radialGradient>
</defs>
</svg>
