<svg width="446" height="377" viewBox="0 0 446 377" fill="none" xmlns="http://www.w3.org/2000/svg">
<path fill-rule="evenodd" clip-rule="evenodd" d="M195.404 215.904L268.944 247.828L255.179 335.045L195.514 376L131.025 335.026L124.139 247.764L195.404 215.904ZM195.452 224.644L132.567 252.758L138.695 330.422L195.343 366.414L247.804 330.403L260.068 252.694L195.452 224.644Z" stroke="white"/>
<path fill-rule="evenodd" clip-rule="evenodd" d="M196.452 253.485L163.551 323.35H168.801L176.144 308.871C176.784 307.61 178.09 306.814 179.52 306.814H213.373C214.858 306.814 216.205 307.673 216.815 309.008L223.361 323.35H229.354L196.452 253.485ZM193.03 245.046C194.382 242.175 198.523 242.175 199.875 245.046L237.376 324.677C238.537 327.143 236.711 329.964 233.953 329.964H221.463C219.978 329.964 218.631 329.106 218.022 327.77L211.475 313.428H181.334L173.991 327.908C173.351 329.168 172.045 329.964 170.615 329.964H158.952C156.194 329.964 154.368 327.143 155.529 324.677L193.03 245.046ZM196.507 281.138L190.515 293.172H202.721L196.507 281.138Z" stroke="white"/>
<path fill-rule="evenodd" clip-rule="evenodd" d="M355.393 4.84961L445 57.6921V153.774L355.393 204L266.299 153.767V57.6989L355.393 4.84961ZM355.405 14.1438L274.308 62.2493V149.099L355.405 194.823L436.991 149.093V62.2562L355.405 14.1438Z" stroke="white"/>
<path fill-rule="evenodd" clip-rule="evenodd" d="M389.638 74.1392C387.953 85.8729 382.726 100.729 374.244 115.822C365.763 130.915 355.787 143.112 346.635 150.662C342.05 154.445 337.817 156.941 334.21 158.131C330.604 159.32 327.992 159.101 326.162 158.075C324.331 157.05 322.783 154.938 321.92 151.247C321.057 147.553 320.985 142.645 321.829 136.766C323.514 125.032 328.741 110.176 337.223 95.083C345.704 79.9902 355.68 67.7936 364.832 60.2428C369.417 56.4596 373.65 53.9637 377.257 52.774C380.863 51.5852 383.475 51.8043 385.305 52.8298C387.136 53.8552 388.684 55.967 389.547 59.6585C390.41 63.3525 390.482 68.2603 389.638 74.1392ZM396.335 58.0773C395.207 53.2473 392.837 49.0683 388.716 46.76C384.596 44.4518 379.788 44.6099 375.071 46.1653C370.357 47.7199 365.366 50.7735 360.391 54.8777C350.423 63.1016 339.936 76.0314 331.143 91.6774C322.351 107.324 316.764 122.998 314.929 135.778C314.013 142.156 314.004 148 315.132 152.828C316.26 157.658 318.63 161.837 322.751 164.145C326.871 166.453 331.679 166.295 336.396 164.74C341.11 163.185 346.101 160.132 351.076 156.027C361.044 147.803 371.531 134.874 380.324 119.228C389.116 103.582 394.703 87.9067 396.538 75.127C397.454 68.7492 397.463 62.9047 396.335 58.0773Z" stroke="white"/>
<path fill-rule="evenodd" clip-rule="evenodd" d="M321.825 74.1392C323.51 85.8729 328.737 100.729 337.219 115.822C345.7 130.915 355.676 143.112 364.828 150.662C369.413 154.445 373.646 156.941 377.253 158.131C380.859 159.32 383.471 159.101 385.301 158.075C387.132 157.05 388.68 154.938 389.543 151.247C390.406 147.553 390.478 142.645 389.634 136.766C387.949 125.032 382.722 110.176 374.24 95.083C365.759 79.9902 355.783 67.7936 346.631 60.2428C342.046 56.4596 337.813 53.9637 334.206 52.774C330.601 51.5852 327.988 51.8043 326.158 52.8298C324.327 53.8552 322.779 55.967 321.916 59.6585C321.053 63.3525 320.981 68.2603 321.825 74.1392ZM315.128 58.0773C316.256 53.2473 318.626 49.0683 322.747 46.76C326.867 44.4518 331.675 44.6099 336.392 46.1653C341.106 47.7199 346.097 50.7735 351.072 54.8777C361.04 63.1016 371.527 76.0314 380.32 91.6774C389.112 107.324 394.699 122.998 396.534 135.778C397.45 142.156 397.459 148 396.331 152.828C395.203 157.658 392.833 161.837 388.712 164.145C384.592 166.453 379.784 166.295 375.067 164.74C370.353 163.185 365.362 160.132 360.387 156.027C350.419 147.803 339.932 134.874 331.139 119.228C322.347 103.582 316.76 87.9067 314.925 75.127C314.009 68.7492 314 62.9047 315.128 58.0773Z" stroke="white"/>
<path fill-rule="evenodd" clip-rule="evenodd" d="M311.787 119.653C322.861 123.928 338.396 126.646 355.729 126.646C373.062 126.646 388.597 123.928 399.671 119.653C405.219 117.512 409.47 115.048 412.275 112.488C415.077 109.931 416.164 107.549 416.164 105.454C416.164 103.358 415.077 100.976 412.275 98.4189C409.47 95.8598 405.219 93.3954 399.671 91.2539C388.597 86.9796 373.062 84.2617 355.729 84.2617C338.396 84.2617 322.861 86.9796 311.787 91.2539C306.239 93.3954 301.988 95.8598 299.184 98.4189C296.381 100.976 295.294 103.358 295.294 105.454C295.294 107.549 296.381 109.931 299.184 112.488C301.988 115.048 306.239 117.512 311.787 119.653ZM294.481 117.626C290.814 114.28 288.323 110.171 288.323 105.454C288.323 100.736 290.814 96.6277 294.481 93.2816C298.145 89.9373 303.255 87.0854 309.274 84.7622C321.335 80.107 337.76 77.3019 355.729 77.3019C373.698 77.3019 390.123 80.107 402.184 84.7622C408.203 87.0854 413.313 89.9373 416.978 93.2816C420.644 96.6277 423.135 100.736 423.135 105.454C423.135 110.171 420.644 114.28 416.978 117.626C413.313 120.97 408.203 123.822 402.184 126.145C390.123 130.8 373.698 133.605 355.729 133.605C337.76 133.605 321.335 130.8 309.274 126.145C303.255 123.822 298.145 120.97 294.481 117.626Z" stroke="white"/>
<path d="M364.705 105.856C364.705 111.426 360.182 115.942 354.602 115.942C349.023 115.942 344.5 111.426 344.5 105.856C344.5 100.285 349.023 95.7695 354.602 95.7695C360.182 95.7695 364.705 100.285 364.705 105.856Z" stroke="white"/>
<path d="M135.652 156.404L81.0997 192.715L66.6783 183.033L58.3325 187.066L81.0806 202.338L143.661 160.684V93.7541L81.0816 57.9746L19.0203 93.764V160.684L41.2795 175.5C50.5938 181.7 63.0699 175.033 63.0699 163.856V106.067H55.0608V163.856C55.0608 168.646 49.714 171.504 45.7221 168.847L27.0293 156.404V98.3798L81.0987 67.1992L135.652 98.3897V156.404Z" stroke="white"/>
<path d="M104.896 138.959L104.896 138.959L104.899 138.966C105.244 139.659 105.423 140.456 105.423 141.368C105.395 143.282 104.484 144.828 102.595 146.027C100.693 147.235 98.0639 147.865 94.6592 147.865C93.3055 147.865 91.9355 147.72 90.5486 147.43C89.1828 147.144 87.9358 146.659 86.8044 145.978C85.7146 145.304 84.7905 144.419 84.031 143.318C83.3211 142.247 82.8986 140.911 82.7852 139.287L82.7527 138.822H82.2864H74.0823H73.5823V139.322C73.5823 141.449 74.0585 143.497 75.0067 145.464L75.0066 145.464L75.0094 145.469C75.9884 147.436 77.3786 149.168 79.1723 150.664L79.1722 150.664L79.1794 150.67C81.0048 152.136 83.2153 153.32 85.8019 154.226L85.8068 154.228C88.4106 155.11 91.3637 155.546 94.6592 155.546C97.5374 155.546 100.201 155.2 102.646 154.502C105.087 153.806 107.197 152.818 108.967 151.531C110.737 150.243 112.118 148.689 113.102 146.868C114.121 145.037 114.627 143.008 114.627 140.792C114.627 138.73 114.183 136.892 113.278 135.293C112.41 133.705 111.144 132.331 109.496 131.165C107.852 129.973 105.841 128.973 103.472 128.16C101.112 127.32 98.4445 126.587 95.4719 125.96L95.4719 125.96L95.4659 125.959C93.2306 125.516 91.3886 125.06 89.9353 124.593C88.5157 124.127 87.3952 123.611 86.5592 123.052C85.7563 122.495 85.2186 121.889 84.9105 121.245C84.5926 120.579 84.4272 119.809 84.4272 118.921C84.4272 118.085 84.628 117.272 85.037 116.478C85.4422 115.691 86.0402 114.99 86.8435 114.377C87.6736 113.766 88.7107 113.271 89.9662 112.898C91.241 112.528 92.7293 112.339 94.4374 112.339C96.0761 112.339 97.5255 112.57 98.7926 113.023L98.7959 113.024C100.111 113.483 101.21 114.081 102.104 114.81C103.001 115.543 103.696 116.382 104.195 117.328L104.195 117.328L104.198 117.334C104.693 118.246 104.935 119.174 104.935 120.124V120.624H105.435H113.64H114.14V120.124C114.14 117.942 113.665 115.906 112.713 114.023C111.793 112.115 110.476 110.456 108.769 109.048C107.058 107.636 104.99 106.54 102.575 105.751C100.151 104.96 97.4369 104.568 94.4374 104.568C91.6428 104.568 89.0626 104.946 86.7009 105.706L86.6991 105.707C84.3761 106.464 82.3575 107.499 80.6507 108.815C78.9434 110.132 77.6095 111.684 76.6573 113.473C75.7011 115.24 75.2231 117.148 75.2231 119.189C75.2231 121.255 75.6845 123.096 76.6221 124.697L76.622 124.697L76.6243 124.701C77.5514 126.253 78.844 127.609 80.49 128.773L80.49 128.773L80.4987 128.779C82.166 129.905 84.1417 130.873 86.42 131.686L86.422 131.687C88.723 132.497 91.2582 133.186 94.0265 133.754L94.0298 133.755C96.2602 134.197 98.1095 134.695 99.5838 135.247L99.5838 135.247L99.592 135.25C101.073 135.775 102.239 136.35 103.105 136.968C103.971 137.585 104.557 138.251 104.896 138.959Z" stroke="white"/>
<path d="M108.796 1.00018C108.645 1.00028 108.497 1.03956 108.366 1.11416C108.236 1.19011 108.128 1.29858 108.053 1.42886C107.978 1.55915 107.938 1.70676 107.937 1.85716V23.7152C107.937 23.9296 107.837 24.1218 107.651 24.2294C107.56 24.2825 107.456 24.3104 107.351 24.3104C107.245 24.3104 107.141 24.2825 107.05 24.2294L103.472 22.1724C103.211 22.0216 102.915 21.9423 102.613 21.9423C102.312 21.9423 102.016 22.0216 101.755 22.1724L87.4715 30.401C86.9376 30.7088 86.613 31.3001 86.613 31.9156V48.3732C86.613 48.988 86.938 49.5511 87.4715 49.8588L101.755 58.0879C102.015 58.239 102.312 58.3186 102.613 58.3186C102.915 58.3186 103.211 58.239 103.472 58.0879L117.755 49.8588C118.017 49.7086 118.234 49.4921 118.384 49.2312C118.535 48.9704 118.614 48.6744 118.614 48.3732V7.3433C118.614 7.03506 118.531 6.73245 118.375 6.46636C118.219 6.20026 117.996 5.98022 117.727 5.82871L109.225 1.08556C109.092 1.0113 108.944 0.998199 108.796 1.00018V1.00018ZM16.9146 21.5437C16.6425 21.5545 16.3863 21.6021 16.142 21.7435L1.85851 29.9725C1.59687 30.1225 1.37964 30.339 1.22886 30.5999C1.07809 30.8608 0.999132 31.1569 1.00001 31.4581L1.02865 53.5453C1.02865 53.8522 1.18738 54.1378 1.4579 54.2879C1.5876 54.3656 1.73605 54.4067 1.88735 54.4067C2.03866 54.4067 2.18711 54.3656 2.31681 54.2879L10.7893 49.4307C11.3259 49.1123 11.6764 48.5587 11.6764 47.9447V37.6301C11.6764 37.0145 12.0006 36.4498 12.5353 36.1441L16.1416 34.0584C16.4023 33.9071 16.6989 33.8281 17.0005 33.8297C17.2949 33.8297 17.5972 33.9031 17.859 34.0584L21.4657 36.1441C21.7276 36.294 21.945 36.5104 22.0959 36.7715C22.2467 37.0325 22.3256 37.3287 22.3246 37.6301V47.9443C22.3246 48.5583 22.6786 49.1158 23.2117 49.4303L31.6842 54.2879C31.8139 54.3656 31.9623 54.4067 32.1136 54.4067C32.2649 54.4067 32.4134 54.3656 32.5431 54.2879C32.6736 54.2124 32.782 54.1041 32.8574 53.9737C32.9328 53.8433 32.9726 53.6954 32.9727 53.5449L33.0006 31.4581C33.0023 31.1567 32.9237 30.8603 32.7728 30.5993C32.622 30.3382 32.4043 30.1219 32.1421 29.9725L17.859 21.7435C17.6175 21.6021 17.3605 21.5549 17.0864 21.5437H16.9146ZM145.262 21.7435C144.964 21.7435 144.671 21.8189 144.404 21.9722L130.121 30.2012C129.859 30.3514 129.642 30.5679 129.491 30.8288C129.34 31.0896 129.261 31.3857 129.262 31.6868V48.1445C129.262 48.7636 129.611 49.3243 130.149 49.6305L144.318 57.688C144.841 57.9858 145.48 58.0084 146.007 57.7158L154.594 52.9444C154.866 52.7935 155.05 52.5116 155.051 52.2018C155.053 52.051 155.014 51.9025 154.938 51.7718C154.863 51.6412 154.754 51.5331 154.622 51.4588L140.253 43.2298C139.984 43.0765 139.795 42.7664 139.795 42.4582V37.3156C139.795 37.0078 139.986 36.7258 140.253 36.5726L144.718 34.0008C144.849 33.9254 144.997 33.8857 145.148 33.8857C145.299 33.8857 145.447 33.9254 145.577 34.0008L150.042 36.5726C150.173 36.6476 150.281 36.7558 150.357 36.8862C150.432 37.0166 150.472 37.1646 150.472 37.3152V41.3725C150.471 41.5231 150.511 41.6711 150.586 41.8015C150.662 41.9319 150.77 42.0401 150.901 42.1151C151.169 42.2696 151.493 42.27 151.759 42.1151L160.318 37.1444C160.579 36.9936 160.796 36.7769 160.947 36.5161C161.098 36.2553 161.177 35.9595 161.177 35.6584V31.6872C161.177 31.0737 160.851 30.5094 160.318 30.2012L146.121 21.9722C145.86 21.8215 145.564 21.7427 145.262 21.7439V21.7435ZM102.556 34.0298C102.631 34.0298 102.718 34.0481 102.785 34.0866L107.68 36.9153C107.813 36.9919 107.909 37.1337 107.909 37.2866V42.9439C107.909 43.0976 107.813 43.2389 107.68 43.3156L102.785 46.1442C102.72 46.1815 102.646 46.2011 102.57 46.2011C102.495 46.2011 102.421 46.1815 102.356 46.1442L97.4612 43.3156C97.328 43.2385 97.2321 43.0976 97.2321 42.9439V37.2866C97.2321 37.1333 97.3284 36.9927 97.4612 36.9153L102.356 34.087C102.416 34.0497 102.485 34.03 102.556 34.0302V34.0298H102.556Z" stroke="white"/>
<path d="M59.2116 22.3206L59.2119 22.3204C59.4009 22.2117 59.609 22.1582 59.8212 22.1582V21.6582L59.8223 22.1582C60.0358 22.1577 60.2456 22.2136 60.4303 22.3201L60.4311 22.3206L74.7139 30.5208C75.0843 30.7338 75.3217 31.1552 75.3217 31.6016L75.3217 48.0592L75.3217 48.0602C75.3221 48.2732 75.2662 48.4826 75.1595 48.6673C75.0529 48.8519 74.8992 49.0053 74.714 49.1117L74.7136 49.112L60.4305 57.3406L60.4292 57.3413C60.2447 57.4483 60.0349 57.5048 59.8214 57.5048C59.6078 57.5048 59.3981 57.4483 59.2135 57.3413L59.2123 57.3406L44.9295 49.1122C44.5501 48.8932 44.3207 48.4958 44.3207 48.0592V31.6016C44.3207 31.1559 44.5581 30.7338 44.9287 30.5209L59.2116 22.3206ZM142.643 41.2996V38.3608L145.22 36.8601L147.796 38.3608V41.2992L145.219 42.7733L142.643 41.2996Z" stroke="white"/>
</svg>
