<svg width="156" height="156" viewBox="0 0 156 156" fill="none" xmlns="http://www.w3.org/2000/svg">
<g filter="url(#filter0_d_904_784)">
<circle cx="75" cy="71" r="48" fill="url(#paint0_linear_904_784)"/>
<path d="M75 77.125C78.3827 77.125 81.125 74.3827 81.125 71C81.125 67.6173 78.3827 64.875 75 64.875C71.6173 64.875 68.875 67.6173 68.875 71C68.875 74.3827 71.6173 77.125 75 77.125Z" stroke="white" stroke-width="3" stroke-linecap="round" stroke-linejoin="round"/>
<path d="M70.625 49.125L68.875 54.375L63.625 57.875L56.625 56.125L53.125 63.125L58.375 68.375V73.625L53.125 78.875L56.625 85.875L63.625 84.125L68.875 87.625L70.625 92.875H79.375L81.125 87.625L86.375 84.125L93.375 85.875L96.875 78.875L91.625 73.625V68.375L96.875 63.125L93.375 56.125L86.375 57.875L81.125 54.375L79.375 49.125H70.625Z" stroke="white" stroke-width="3" stroke-linecap="round" stroke-linejoin="round"/>
</g>
<defs>
<filter id="filter0_d_904_784" x="0" y="0" width="156" height="156" filterUnits="userSpaceOnUse" color-interpolation-filters="sRGB">
<feFlood flood-opacity="0" result="BackgroundImageFix"/>
<feColorMatrix in="SourceAlpha" type="matrix" values="0 0 0 0 0 0 0 0 0 0 0 0 0 0 0 0 0 0 127 0" result="hardAlpha"/>
<feOffset dx="3" dy="7"/>
<feGaussianBlur stdDeviation="15"/>
<feComposite in2="hardAlpha" operator="out"/>
<feColorMatrix type="matrix" values="0 0 0 0 0.945098 0 0 0 0 0.678431 0 0 0 0 0.301961 0 0 0 0.5 0"/>
<feBlend mode="normal" in2="BackgroundImageFix" result="effect1_dropShadow_904_784"/>
<feBlend mode="normal" in="SourceGraphic" in2="effect1_dropShadow_904_784" result="shape"/>
</filter>
<linearGradient id="paint0_linear_904_784" x1="37.88" y1="100.92" x2="115.96" y2="44.44" gradientUnits="userSpaceOnUse">
<stop stop-color="#EE9820"/>
<stop offset="1" stop-color="#F1AD4D"/>
</linearGradient>
</defs>
</svg>
