<svg width="196" height="53" viewBox="0 0 196 53" fill="none" xmlns="http://www.w3.org/2000/svg">
<path d="M0 0H4.17723V24.2006C7.37977 20.4846 12.114 18.1156 17.4051 18.1156C24.5528 18.1156 30.6794 22.4355 33.3714 28.5669H28.6836C26.3629 24.8045 22.1857 22.2962 17.4515 22.2962C12.7173 22.2962 8.54011 24.8045 6.21943 28.5669H0V0ZM0 42.502V52.9534H4.17723V46.8684C7.37977 50.5844 12.114 52.9534 17.4051 52.9534C24.5528 52.9534 30.6794 48.6335 33.3714 42.502H28.6836C26.3629 46.2645 22.1857 48.7728 17.4515 48.7728C12.7173 48.7728 8.54011 46.2645 6.21943 42.502H0Z" fill="#171718"/>
<path d="M56.8564 18.1152C62.1476 18.1152 66.8817 20.4842 70.0843 24.2002V18.1152H74.2615V28.5666H68.1349C65.8142 24.8041 61.637 22.2958 56.9028 22.2958C52.1686 22.2958 47.9914 24.8041 45.6707 28.5666H40.9365C43.5821 22.4351 49.7551 18.1152 56.8564 18.1152ZM40.9365 42.5017C43.6285 48.6331 49.7551 52.953 56.9028 52.953C62.194 52.953 66.9282 50.584 70.1307 46.868V52.953H74.3079V42.5017H68.1349C65.8142 46.2641 61.637 48.7724 56.9028 48.7724C52.1686 48.7724 47.9914 46.2641 45.6707 42.5017H40.9365Z" fill="#171718"/>
<path d="M85.8642 18.1152H81.687V28.5666H87.3959C89.4845 24.8505 93.4297 22.3887 97.9318 22.3887C102.48 22.3887 106.425 24.897 108.468 28.5666H113.063C110.696 22.4816 104.801 18.2081 97.9318 18.2081C93.1512 18.2081 88.8347 20.2984 85.8642 23.5964V18.1152ZM114.177 42.5017H109.999V52.9994H114.177V42.5017ZM85.8642 42.5017H81.687V52.953H85.8642V42.5017Z" fill="#171718"/>
<path d="M154.929 0H150.751V24.2006C147.549 20.4846 142.815 18.1156 137.523 18.1156C130.376 18.1156 124.249 22.4355 121.557 28.5669H126.245C128.566 24.8045 132.743 22.2962 137.477 22.2962C142.211 22.2962 146.388 24.8045 148.709 28.5669H154.929V0ZM154.929 42.502H148.756C146.435 46.2645 142.258 48.7728 137.523 48.7728C132.789 48.7728 128.612 46.2645 126.291 42.502H121.604C124.296 48.6335 130.422 52.9534 137.57 52.9534C142.861 52.9534 147.595 50.5844 150.798 46.8684V52.9534H154.975V42.502H154.929Z" fill="#171718"/>
<path d="M178.426 18.1152C183.717 18.1152 188.452 20.4842 191.654 24.2002V18.1152H195.831V28.5666H189.658C187.338 24.8041 183.16 22.2958 178.426 22.2958C173.692 22.2958 169.515 24.8041 167.194 28.5666H162.506C165.152 22.4351 171.279 18.1152 178.426 18.1152ZM162.46 42.5017C165.152 48.6331 171.279 52.953 178.426 52.953C183.717 52.953 188.452 50.584 191.654 46.868V52.953H195.831V42.5017H189.658C187.338 46.2641 183.16 48.7724 178.426 48.7724C173.692 48.7724 169.515 46.2641 167.194 42.5017H162.46Z" fill="#171718"/>
<path d="M123.749 34.7088C123.683 34.1975 123.268 33.9418 122.504 33.9418C121.746 33.9418 121.367 34.1778 121.367 34.6498C121.367 34.8465 121.447 34.9972 121.605 35.1021C121.769 35.2004 121.974 35.2824 122.217 35.348C122.461 35.4135 122.725 35.4758 123.008 35.5348C123.298 35.5872 123.565 35.6659 123.808 35.7708C124.052 35.8691 124.253 36.0068 124.411 36.1838C124.575 36.3608 124.658 36.6033 124.658 36.9114C124.658 37.39 124.477 37.7571 124.115 38.0127C123.752 38.2618 123.262 38.3864 122.642 38.3864C121.983 38.3864 121.46 38.2225 121.071 37.8947C120.715 37.6063 120.525 37.2294 120.498 36.7639H121.269C121.315 37.2162 121.572 37.5211 122.039 37.6784C122.211 37.7308 122.379 37.7571 122.543 37.7571C122.715 37.7571 122.873 37.7472 123.018 37.7276C123.163 37.7079 123.304 37.6718 123.443 37.6194C123.759 37.4948 123.917 37.2818 123.917 36.9802C123.917 36.777 123.835 36.623 123.67 36.5181C123.512 36.4066 123.311 36.3181 123.067 36.2526C122.823 36.1805 122.556 36.1182 122.267 36.0658C121.983 36.0068 121.72 35.9281 121.476 35.8297C121.232 35.7314 121.028 35.5971 120.864 35.4266C120.706 35.2562 120.627 35.0202 120.627 34.7186C120.627 34.2729 120.788 33.9287 121.111 33.6862C121.44 33.4371 121.924 33.3125 122.563 33.3125C123.169 33.3125 123.647 33.4567 123.996 33.7451C124.286 33.9877 124.454 34.3089 124.5 34.7088H123.749Z" fill="#171718"/>
<path fill-rule="evenodd" clip-rule="evenodd" d="M123.662 34.807L123.651 34.7207C123.622 34.4927 123.517 34.3283 123.337 34.2171C123.151 34.1029 122.877 34.04 122.504 34.04C122.132 34.04 121.87 34.0985 121.704 34.2021C121.546 34.3008 121.467 34.4449 121.467 34.6491C121.467 34.8131 121.53 34.932 121.658 35.0177C121.812 35.1097 122.007 35.1881 122.243 35.2518C122.484 35.3166 122.746 35.3784 123.027 35.437C123.323 35.4905 123.596 35.571 123.847 35.6788C124.102 35.782 124.315 35.9276 124.485 36.1165C124.67 36.3162 124.757 36.585 124.757 36.9107C124.757 37.4185 124.562 37.817 124.172 38.0929L124.171 38.0936C123.786 38.3578 123.274 38.4846 122.643 38.4846C121.968 38.4846 121.419 38.3166 121.008 37.9703C120.631 37.664 120.427 37.2612 120.399 36.7689L120.394 36.6643H121.358L121.367 36.7531C121.389 36.9624 121.458 37.1322 121.572 37.2674C121.686 37.4027 121.85 37.5093 122.07 37.5835C122.232 37.633 122.39 37.6574 122.544 37.6574C122.711 37.6574 122.865 37.6478 123.005 37.6289C123.142 37.6102 123.276 37.5761 123.407 37.5265C123.552 37.4691 123.654 37.3945 123.719 37.3065C123.784 37.2193 123.818 37.1121 123.818 36.9795C123.818 36.8084 123.752 36.6867 123.617 36.6008L123.613 36.5984C123.467 36.4953 123.277 36.4108 123.042 36.3474L123.039 36.3468C122.799 36.2759 122.536 36.2143 122.249 36.1624L122.247 36.162C121.958 36.1019 121.689 36.0215 121.44 35.9208C121.184 35.8179 120.968 35.6761 120.793 35.4946L120.791 35.4933C120.612 35.2995 120.528 35.0368 120.528 34.7179C120.528 34.2449 120.701 33.8699 121.051 33.6065C121.405 33.3391 121.914 33.2129 122.563 33.2129C123.185 33.2129 123.687 33.3608 124.059 33.6682L124.059 33.6686C124.37 33.9285 124.55 34.2735 124.598 34.6968L124.611 34.807H123.662ZM121.111 33.6855C120.788 33.928 120.627 34.2722 120.627 34.7179C120.627 35.0195 120.706 35.2555 120.864 35.4259C121.028 35.5964 121.233 35.7307 121.477 35.8291C121.72 35.9274 121.983 36.0061 122.267 36.0651C122.557 36.1175 122.824 36.1798 123.067 36.2519C123.311 36.3174 123.512 36.4059 123.67 36.5174C123.835 36.6223 123.917 36.7764 123.917 36.9795C123.917 37.2811 123.759 37.4942 123.443 37.6187C123.304 37.6711 123.163 37.7072 123.018 37.7269C122.873 37.7465 122.715 37.7564 122.544 37.7564C122.379 37.7564 122.211 37.7301 122.04 37.6777C121.572 37.5204 121.315 37.2156 121.269 36.7632H120.498C120.5 36.7967 120.503 36.8296 120.507 36.8622C120.553 37.2824 120.741 37.6263 121.071 37.894C121.46 38.2218 121.983 38.3857 122.643 38.3857C123.262 38.3857 123.752 38.2611 124.115 38.0121C124.477 37.7564 124.658 37.3893 124.658 36.9107C124.658 36.6026 124.576 36.3601 124.411 36.1831C124.253 36.0061 124.052 35.8684 123.808 35.7701C123.565 35.6652 123.298 35.5865 123.008 35.5341C122.725 35.4751 122.461 35.4128 122.217 35.3473C121.974 35.2817 121.77 35.1998 121.605 35.1014C121.447 34.9965 121.368 34.8458 121.368 34.6491C121.368 34.1771 121.746 33.9411 122.504 33.9411C123.268 33.9411 123.683 34.1968 123.749 34.7081H124.5C124.496 34.6746 124.491 34.6416 124.486 34.6092C124.425 34.2549 124.262 33.9667 123.996 33.7444C123.647 33.456 123.169 33.3118 122.563 33.3118C121.925 33.3118 121.44 33.4364 121.111 33.6855Z" fill="#171718"/>
<path d="M75.9584 35.8489C75.9584 34.5327 74.8859 33.4602 73.5696 33.4602C72.6726 33.4602 71.9414 33.9574 71.5709 34.6887V33.6552H71.1809V40.138H71.5509L71.5709 37.0092C71.9414 37.7404 72.6726 38.2377 73.5696 38.2377C74.8859 38.2377 75.9584 37.1652 75.9584 35.8489ZM75.5684 35.8489C75.5684 36.9799 74.6714 37.8964 73.5696 37.8964C72.4679 37.8964 71.5709 36.9799 71.5709 35.8489C71.5709 34.7179 72.4679 33.8014 73.5696 33.8014C74.6714 33.8014 75.5684 34.7179 75.5684 35.8489Z" fill="#171718"/>
<path fill-rule="evenodd" clip-rule="evenodd" d="M71.5509 40.138H71.1809V33.6552H71.5709V34.6887C71.6409 34.5505 71.7238 34.4207 71.8182 34.3011C72.2236 33.7873 72.8421 33.4602 73.5696 33.4602C74.8859 33.4602 75.9584 34.5327 75.9584 35.8489C75.9584 37.1652 74.8859 38.2377 73.5696 38.2377C72.8421 38.2377 72.2236 37.9106 71.8182 37.3968C71.7238 37.2771 71.6409 37.1473 71.5709 37.0092L71.5509 40.138ZM71.8182 37.7684L71.8182 40.138H70.9336V33.397H71.8182V33.9295C72.2613 33.4862 72.8708 33.2129 73.5696 33.2129C75.0225 33.2129 76.2057 34.3961 76.2057 35.8489C76.2057 37.3018 75.0225 38.485 73.5696 38.485C72.8708 38.485 72.2613 38.2117 71.8182 37.7684ZM73.5696 37.6491C74.5294 37.6491 75.3211 36.8488 75.3211 35.8489C75.3211 34.8491 74.5294 34.0488 73.5696 34.0488C72.6099 34.0488 71.8182 34.8491 71.8182 35.8489C71.8182 36.8488 72.6099 37.6491 73.5696 37.6491ZM73.5696 37.8964C74.6714 37.8964 75.5684 36.9799 75.5684 35.8489C75.5684 34.7179 74.6714 33.8014 73.5696 33.8014C72.4679 33.8014 71.5709 34.7179 71.5709 35.8489C71.5709 36.9799 72.4679 37.8964 73.5696 37.8964Z" fill="#171718"/>
<path d="M83.4591 32.1008L83.0691 32.1009V32.53H83.4591V32.1008ZM83.4591 33.8524H83.0691V38.2399H83.4591V33.8524Z" fill="#171718"/>
<path fill-rule="evenodd" clip-rule="evenodd" d="M83.7064 31.8535V32.7773H82.8218V31.8536L83.7064 31.8535ZM83.7064 33.6051V38.4872H82.8218V33.6051H83.7064ZM83.4591 32.53H83.0691V32.1009L83.4591 32.1008V32.53ZM83.0691 33.8524H83.4591V38.2399H83.0691V33.8524Z" fill="#171718"/>
<path d="M92.8961 36.0465L94.7389 33.8528H94.2416L92.6524 35.754L91.0534 33.8528H90.5561L92.3989 36.0465L90.5561 38.2403H91.0534L92.6524 36.339L94.2416 38.2403H94.7389L92.8961 36.0465Z" fill="#171718"/>
<path fill-rule="evenodd" clip-rule="evenodd" d="M91.0534 33.8528L92.6524 35.754L94.2416 33.8528H94.7389L92.8961 36.0465L94.7389 38.2403H94.2416L92.6524 36.339L91.0534 38.2403H90.5561L92.3989 36.0465L90.5561 33.8528H91.0534ZM92.0759 36.0465L90.0254 33.6055H91.1685L92.6518 35.3691L94.126 33.6055H95.2696L93.2191 36.0465L95.2696 38.4876H94.126L92.6518 36.7239L91.1685 38.4876H90.0254L92.0759 36.0465Z" fill="#171718"/>
<path d="M104.36 37.7203C105.04 37.7203 105.528 37.5129 105.824 36.9633H106.652C106.477 37.4082 106.198 37.7007 105.814 37.9755C105.437 38.2503 104.949 38.3877 104.349 38.3877C103.589 38.3877 102.969 38.1423 102.491 37.6516C102.027 37.174 101.794 36.5753 101.794 35.8556C101.794 35.1294 102.017 34.5307 102.461 34.0597C102.932 33.569 103.545 33.3236 104.299 33.3236C105.053 33.3236 105.666 33.569 106.137 34.0597C106.581 34.5307 106.804 35.1294 106.804 35.8556V36.1501H102.572C102.626 36.6015 102.811 36.9744 103.127 37.2689C103.451 37.5698 103.861 37.7203 104.36 37.7203ZM104.299 33.991C103.834 33.991 103.444 34.1316 103.127 34.413C102.831 34.6812 102.649 35.0313 102.582 35.4631H106.016C105.948 35.0313 105.767 34.6812 105.47 34.413C105.154 34.1316 104.763 33.991 104.299 33.991Z" fill="#171718"/>
<path fill-rule="evenodd" clip-rule="evenodd" d="M105.759 36.8546H106.812L106.753 37.0032C106.568 37.4734 106.272 37.7811 105.878 38.0637C105.477 38.3552 104.965 38.4964 104.349 38.4964C103.563 38.4964 102.914 38.2417 102.413 37.7275C101.927 37.2279 101.686 36.6012 101.686 35.8556C101.686 35.1053 101.916 34.4788 102.382 33.985L102.382 33.9843C102.877 33.4698 103.519 33.2148 104.299 33.2148C105.079 33.2148 105.721 33.4698 106.215 33.9843L106.216 33.985C106.682 34.4788 106.912 35.1053 106.912 35.8556V36.2588H102.698C102.766 36.6312 102.934 36.94 103.202 37.1892C103.502 37.469 103.885 37.6115 104.36 37.6115C104.689 37.6115 104.963 37.5611 105.187 37.4504C105.41 37.3406 105.59 37.1681 105.728 36.9117L105.759 36.8546ZM102.588 36.2588C102.582 36.2231 102.576 36.1868 102.572 36.1501H106.804V35.8556C106.804 35.1294 106.581 34.5307 106.137 34.0597C105.666 33.569 105.053 33.3236 104.299 33.3236C103.545 33.3236 102.932 33.569 102.461 34.0597C102.017 34.5307 101.794 35.1294 101.794 35.8556C101.794 36.5753 102.027 37.174 102.491 37.6516C102.969 38.1423 103.589 38.3877 104.349 38.3877C104.949 38.3877 105.437 38.2503 105.814 37.9755C106.165 37.7237 106.429 37.4572 106.606 37.0721C106.622 37.0369 106.637 37.0006 106.652 36.9633H105.824C105.528 37.5129 105.04 37.7203 104.36 37.7203C103.861 37.7203 103.451 37.5698 103.127 37.2689C102.837 36.9984 102.657 36.6618 102.588 36.2588ZM103.2 34.4939C102.953 34.7178 102.79 35.003 102.713 35.3543H105.885C105.808 35.003 105.645 34.7178 105.398 34.4939C105.103 34.2323 104.739 34.0998 104.299 34.0998C103.858 34.0998 103.495 34.2323 103.2 34.4939ZM105.47 34.413C105.741 34.6583 105.917 34.9721 105.996 35.3543C106.003 35.39 106.01 35.4262 106.016 35.4631H102.582C102.588 35.4262 102.594 35.39 102.602 35.3543C102.681 34.9721 102.856 34.6583 103.127 34.413C103.444 34.1316 103.834 33.991 104.299 33.991C104.763 33.991 105.154 34.1316 105.47 34.413Z" fill="#171718"/>
<path d="M113.795 32.1008H113.405V38.2402H113.795V32.1008Z" fill="#171718"/>
<path fill-rule="evenodd" clip-rule="evenodd" d="M114.042 31.8535V38.4875H113.157V31.8535H114.042ZM113.405 32.1008H113.795V38.2402H113.405V32.1008Z" fill="#171718"/>
</svg>
