<svg width="28" height="40" viewBox="0 0 28 40" fill="none" xmlns="http://www.w3.org/2000/svg">
<path d="M16.8418 40L18.2259 40L18.2259 31.981C19.2871 33.2123 20.8558 33.9973 22.6091 33.9973C24.9775 33.9973 27.0076 32.5659 27.8996 30.5342L26.3463 30.5342C25.5773 31.7809 24.1932 32.612 22.6245 32.612C21.0558 32.612 19.6716 31.7809 18.9026 30.5342L16.8418 30.5342L16.8418 40ZM16.8418 25.9167L16.8418 22.4536L18.2259 22.4536L18.2259 24.4699C19.2871 23.2386 20.8558 22.4536 22.6091 22.4536C24.9775 22.4536 27.0076 23.885 27.8996 25.9167L26.3463 25.9167C25.5773 24.67 24.1932 23.8389 22.6245 23.8389C21.0558 23.8389 19.6716 24.67 18.9026 25.9167L16.8418 25.9167Z" fill="#EFE314"/>
<path d="M0 0L1.38415 0V8.019C2.44533 6.78768 4.01403 6.00271 5.76728 6.00271C8.13571 6.00271 10.1658 7.43412 11.0578 9.46581H9.50447C8.7355 8.21909 7.35136 7.38795 5.78266 7.38795C4.21396 7.38795 2.82981 8.21909 2.06084 9.46581H0L0 0ZM0 14.0833L0 17.5464H1.38415V15.5301C2.44533 16.7614 4.01403 17.5464 5.76728 17.5464C8.13571 17.5464 10.1658 16.115 11.0578 14.0833H9.50447C8.7355 15.33 7.35136 16.1611 5.78266 16.1611C4.21396 16.1611 2.82981 15.33 2.06084 14.0833H0Z" fill="#EFE314"/>
<ellipse cx="22.6136" cy="11.7295" rx="4.39094" ry="4.41426" fill="#EFE314"/>
<ellipse cx="5.7425" cy="28.2266" rx="4.39094" ry="4.41426" fill="#EFE314"/>
</svg>
