<svg width="196" height="53" viewBox="0 0 196 53" fill="none" xmlns="http://www.w3.org/2000/svg">
<path d="M0 0H4.17723V24.2006C7.37977 20.4846 12.114 18.1156 17.4051 18.1156C24.5528 18.1156 30.6794 22.4355 33.3714 28.5669H28.6836C26.3629 24.8045 22.1857 22.2961 17.4515 22.2961C12.7173 22.2961 8.54011 24.8045 6.21943 28.5669H0V0ZM0 42.502V52.9533H4.17723V46.8684C7.37977 50.5844 12.114 52.9533 17.4051 52.9533C24.5528 52.9533 30.6794 48.6335 33.3714 42.502H28.6836C26.3629 46.2645 22.1857 48.7728 17.4515 48.7728C12.7173 48.7728 8.54011 46.2645 6.21943 42.502H0Z" fill="#EFE314"/>
<path d="M56.8554 18.1155C62.1466 18.1155 66.8808 20.4844 70.0833 24.2005V18.1155H74.2605V28.5668H68.1339C65.8132 24.8043 61.636 22.296 56.9018 22.296C52.1676 22.296 47.9904 24.8043 45.6697 28.5668H40.9355C43.5811 22.4354 49.7541 18.1155 56.8554 18.1155ZM40.9355 42.5019C43.6275 48.6333 49.7541 52.9532 56.9018 52.9532C62.193 52.9532 66.9272 50.5842 70.1297 46.8682V52.9532H74.3069V42.5019H68.1339C65.8132 46.2644 61.636 48.7727 56.9018 48.7727C52.1676 48.7727 47.9904 46.2644 45.6697 42.5019H40.9355Z" fill="#EFE314"/>
<path d="M85.8647 18.1155H81.6875V28.5668H87.3964C89.485 24.8508 93.4301 22.3889 97.9323 22.3889C102.481 22.3889 106.426 24.8972 108.468 28.5668H113.063C110.696 22.4818 104.801 18.2084 97.9323 18.2084C93.1517 18.2084 88.8352 20.2986 85.8647 23.5966V18.1155ZM114.177 42.5019H110V52.9997H114.177V42.5019ZM85.8647 42.5019H81.6875V52.9532H85.8647V42.5019Z" fill="#EFE314"/>
<path d="M154.928 0H150.751V24.2006C147.548 20.4846 142.814 18.1156 137.523 18.1156C130.375 18.1156 124.249 22.4355 121.557 28.5669H126.244C128.565 24.8045 132.742 22.2961 137.477 22.2961C142.211 22.2961 146.388 24.8045 148.709 28.5669H154.928V0ZM154.928 42.502H148.755C146.434 46.2645 142.257 48.7728 137.523 48.7728C132.789 48.7728 128.612 46.2645 126.291 42.502H121.603C124.295 48.6335 130.422 52.9533 137.569 52.9533C142.86 52.9533 147.595 50.5844 150.797 46.8684V52.9533H154.974V42.502H154.928Z" fill="#EFE314"/>
<path d="M178.425 18.1155C183.716 18.1155 188.451 20.4844 191.653 24.2005V18.1155H195.83V28.5668H189.657C187.337 24.8043 183.159 22.296 178.425 22.296C173.691 22.296 169.514 24.8043 167.193 28.5668H162.505C165.151 22.4354 171.278 18.1155 178.425 18.1155ZM162.459 42.5019C165.151 48.6333 171.278 52.9532 178.425 52.9532C183.716 52.9532 188.451 50.5842 191.653 46.8682V52.9532H195.83V42.5019H189.657C187.337 46.2644 183.159 48.7727 178.425 48.7727C173.691 48.7727 169.514 46.2644 167.193 42.5019H162.459Z" fill="#EFE314"/>
<path d="M123.749 34.7073C123.683 34.196 123.268 33.9403 122.504 33.9403C121.746 33.9403 121.367 34.1764 121.367 34.6483C121.367 34.845 121.447 34.9958 121.605 35.1006C121.769 35.199 121.974 35.2809 122.217 35.3465C122.461 35.412 122.725 35.4743 123.008 35.5333C123.298 35.5858 123.565 35.6644 123.808 35.7693C124.052 35.8676 124.253 36.0053 124.411 36.1823C124.575 36.3593 124.658 36.6018 124.658 36.9099C124.658 37.3885 124.477 37.7556 124.115 38.0113C123.752 38.2604 123.262 38.3849 122.642 38.3849C121.983 38.3849 121.46 38.221 121.071 37.8933C120.715 37.6048 120.525 37.2279 120.498 36.7625H121.269C121.315 37.2148 121.572 37.5196 122.039 37.6769C122.211 37.7294 122.379 37.7556 122.543 37.7556C122.715 37.7556 122.873 37.7457 123.018 37.7261C123.163 37.7064 123.304 37.6704 123.443 37.6179C123.759 37.4934 123.917 37.2803 123.917 36.9788C123.917 36.7756 123.835 36.6215 123.67 36.5166C123.512 36.4052 123.311 36.3167 123.067 36.2511C122.823 36.179 122.556 36.1167 122.267 36.0643C121.983 36.0053 121.72 35.9266 121.476 35.8283C121.232 35.73 121.028 35.5956 120.864 35.4252C120.706 35.2547 120.627 35.0187 120.627 34.7172C120.627 34.2714 120.788 33.9272 121.111 33.6847C121.44 33.4356 121.924 33.311 122.563 33.311C123.169 33.311 123.647 33.4552 123.996 33.7437C124.286 33.9862 124.454 34.3074 124.5 34.7073H123.749Z" fill="#EFE314"/>
<path fill-rule="evenodd" clip-rule="evenodd" d="M123.663 34.8065L123.652 34.7203C123.623 34.4923 123.518 34.3278 123.338 34.2166C123.152 34.1024 122.878 34.0395 122.505 34.0395C122.133 34.0395 121.871 34.098 121.705 34.2016C121.547 34.3003 121.467 34.4444 121.467 34.6486C121.467 34.8127 121.531 34.9315 121.659 35.0173C121.813 35.1092 122.008 35.1876 122.244 35.2513C122.485 35.3161 122.747 35.3779 123.028 35.4365C123.323 35.4901 123.597 35.5705 123.848 35.6783C124.103 35.7815 124.316 35.9271 124.485 36.116C124.671 36.3157 124.758 36.5845 124.758 36.9102C124.758 37.418 124.563 37.8165 124.173 38.0924L124.172 38.0931C123.787 38.3573 123.275 38.4841 122.644 38.4841C121.969 38.4841 121.42 38.3162 121.009 37.9698C120.632 37.6635 120.428 37.2607 120.4 36.7684L120.395 36.6638H121.359L121.368 36.7527C121.39 36.9619 121.459 37.1317 121.573 37.2669C121.687 37.4022 121.851 37.5088 122.071 37.583C122.233 37.6326 122.391 37.657 122.545 37.657C122.712 37.657 122.866 37.6473 123.006 37.6284C123.143 37.6098 123.277 37.5756 123.408 37.526C123.553 37.4686 123.655 37.394 123.72 37.3061C123.785 37.2188 123.819 37.1116 123.819 36.9791C123.819 36.8079 123.753 36.6862 123.618 36.6004L123.614 36.5979C123.468 36.4948 123.278 36.4103 123.043 36.3469L123.04 36.3463C122.8 36.2754 122.537 36.2138 122.25 36.1619L122.248 36.1615C121.959 36.1014 121.69 36.0211 121.441 35.9203C121.185 35.8174 120.969 35.6756 120.794 35.4941L120.792 35.4928C120.613 35.299 120.529 35.0363 120.529 34.7174C120.529 34.2444 120.702 33.8694 121.052 33.606C121.406 33.3386 121.915 33.2124 122.564 33.2124C123.186 33.2124 123.688 33.3603 124.06 33.6677L124.06 33.6681C124.371 33.928 124.551 34.273 124.599 34.6963L124.612 34.8065H123.663ZM121.112 33.685C120.789 33.9275 120.628 34.2717 120.628 34.7174C120.628 35.019 120.707 35.255 120.865 35.4255C121.029 35.5959 121.233 35.7302 121.478 35.8286C121.721 35.9269 121.984 36.0056 122.268 36.0646C122.558 36.117 122.825 36.1793 123.068 36.2514C123.312 36.317 123.513 36.4055 123.671 36.5169C123.836 36.6218 123.918 36.7759 123.918 36.9791C123.918 37.2806 123.76 37.4937 123.444 37.6182C123.305 37.6707 123.164 37.7067 123.019 37.7264C122.874 37.746 122.716 37.7559 122.545 37.7559C122.38 37.7559 122.212 37.7296 122.041 37.6772C121.573 37.5199 121.316 37.2151 121.27 36.7628H120.499C120.501 36.7962 120.504 36.8292 120.507 36.8617C120.554 37.2819 120.742 37.6258 121.072 37.8936C121.461 38.2213 121.984 38.3852 122.644 38.3852C123.263 38.3852 123.753 38.2607 124.116 38.0116C124.478 37.7559 124.659 37.3888 124.659 36.9102C124.659 36.6021 124.577 36.3596 124.412 36.1826C124.254 36.0056 124.053 35.8679 123.809 35.7696C123.566 35.6647 123.299 35.586 123.009 35.5336C122.726 35.4746 122.462 35.4123 122.218 35.3468C121.975 35.2812 121.77 35.1993 121.606 35.1009C121.448 34.996 121.369 34.8453 121.369 34.6486C121.369 34.1766 121.747 33.9406 122.505 33.9406C123.269 33.9406 123.684 34.1963 123.75 34.7076H124.501C124.497 34.6741 124.492 34.6411 124.487 34.6087C124.426 34.2544 124.263 33.9662 123.997 33.744C123.648 33.4555 123.17 33.3113 122.564 33.3113C121.926 33.3113 121.441 33.4359 121.112 33.685Z" fill="#EFE314"/>
<path d="M75.9584 35.847C75.9584 34.5307 74.8859 33.4582 73.5696 33.4582C72.6726 33.4582 71.9414 33.9555 71.5709 34.6867V33.6532H71.1809V40.1361H71.5509L71.5709 37.0072C71.9414 37.7385 72.6726 38.2357 73.5696 38.2357C74.8859 38.2357 75.9584 37.1632 75.9584 35.847ZM75.5684 35.847C75.5684 36.978 74.6714 37.8945 73.5696 37.8945C72.4679 37.8945 71.5709 36.978 71.5709 35.847C71.5709 34.716 72.4679 33.7995 73.5696 33.7995C74.6714 33.7995 75.5684 34.716 75.5684 35.847Z" fill="#EFE314"/>
<path fill-rule="evenodd" clip-rule="evenodd" d="M71.5509 40.1361H71.1809V33.6532H71.5709V34.6867C71.6409 34.5486 71.7238 34.4188 71.8182 34.2991C72.2236 33.7854 72.8421 33.4582 73.5696 33.4582C74.8859 33.4582 75.9584 34.5307 75.9584 35.847C75.9584 37.1632 74.8859 38.2357 73.5696 38.2357C72.8421 38.2357 72.2236 37.9086 71.8182 37.3949C71.7238 37.2752 71.6409 37.1454 71.5709 37.0072L71.5509 40.1361ZM71.8182 37.7665L71.8182 40.1361H70.9336V33.3951H71.8182V33.9275C72.2613 33.4842 72.8708 33.2109 73.5696 33.2109C75.0225 33.2109 76.2057 34.3942 76.2057 35.847C76.2057 37.2998 75.0225 38.483 73.5696 38.483C72.8708 38.483 72.2613 38.2097 71.8182 37.7665ZM73.5696 37.6472C74.5294 37.6472 75.3211 36.8469 75.3211 35.847C75.3211 34.8471 74.5294 34.0468 73.5696 34.0468C72.6099 34.0468 71.8182 34.8471 71.8182 35.847C71.8182 36.8469 72.6099 37.6472 73.5696 37.6472ZM73.5696 37.8945C74.6714 37.8945 75.5684 36.978 75.5684 35.847C75.5684 34.716 74.6714 33.7995 73.5696 33.7995C72.4679 33.7995 71.5709 34.716 71.5709 35.847C71.5709 36.978 72.4679 37.8945 73.5696 37.8945Z" fill="#EFE314"/>
<path d="M83.4596 32.1001L83.0696 32.1001V32.5292H83.4596V32.1001ZM83.4596 33.8517H83.0696V38.2391H83.4596V33.8517Z" fill="#EFE314"/>
<path fill-rule="evenodd" clip-rule="evenodd" d="M83.7069 31.8528V32.7766H82.8223V31.8529L83.7069 31.8528ZM83.7069 33.6043V38.4865H82.8223V33.6043H83.7069ZM83.4596 32.5292H83.0696V32.1001L83.4596 32.1001V32.5292ZM83.0696 33.8517H83.4596V38.2391H83.0696V33.8517Z" fill="#EFE314"/>
<path d="M92.8961 36.0457L94.7389 33.8519H94.2416L92.6524 35.7532L91.0534 33.8519H90.5561L92.3989 36.0457L90.5561 38.2394H91.0534L92.6524 36.3382L94.2416 38.2394H94.7389L92.8961 36.0457Z" fill="#EFE314"/>
<path fill-rule="evenodd" clip-rule="evenodd" d="M91.0534 33.8519L92.6524 35.7532L94.2416 33.8519H94.7389L92.8961 36.0457L94.7389 38.2394H94.2416L92.6524 36.3382L91.0534 38.2394H90.5561L92.3989 36.0457L90.5561 33.8519H91.0534ZM92.0759 36.0457L90.0254 33.6046H91.1685L92.6518 35.3683L94.126 33.6046H95.2696L93.2191 36.0457L95.2696 38.4867H94.126L92.6518 36.7231L91.1685 38.4867H90.0254L92.0759 36.0457Z" fill="#EFE314"/>
<path d="M104.36 37.7199C105.04 37.7199 105.528 37.5126 105.824 36.963H106.652C106.477 37.4079 106.198 37.7003 105.814 37.9751C105.437 38.2499 104.949 38.3873 104.349 38.3873C103.589 38.3873 102.969 38.142 102.491 37.6512C102.027 37.1736 101.794 36.575 101.794 35.8553C101.794 35.129 102.017 34.5304 102.461 34.0593C102.932 33.5686 103.545 33.3233 104.299 33.3233C105.053 33.3233 105.666 33.5686 106.137 34.0593C106.581 34.5304 106.804 35.129 106.804 35.8553V36.1497H102.572C102.626 36.6011 102.811 36.9741 103.127 37.2685C103.451 37.5695 103.861 37.7199 104.36 37.7199ZM104.299 33.9906C103.834 33.9906 103.444 34.1313 103.127 34.4126C102.831 34.6809 102.649 35.0309 102.582 35.4627H106.016C105.948 35.0309 105.767 34.6809 105.47 34.4126C105.154 34.1313 104.763 33.9906 104.299 33.9906Z" fill="#EFE314"/>
<path fill-rule="evenodd" clip-rule="evenodd" d="M105.759 36.8542H106.812L106.753 37.0028C106.568 37.4731 106.272 37.7807 105.878 38.0633C105.477 38.3549 104.965 38.4961 104.349 38.4961C103.563 38.4961 102.914 38.2413 102.413 37.7272C101.927 37.2275 101.686 36.6008 101.686 35.8553C101.686 35.1049 101.916 34.4784 102.382 33.9847L102.382 33.984C102.877 33.4695 103.519 33.2145 104.299 33.2145C105.079 33.2145 105.721 33.4695 106.215 33.984L106.216 33.9847C106.682 34.4784 106.912 35.1049 106.912 35.8553V36.2585H102.698C102.766 36.6309 102.934 36.9396 103.202 37.1889C103.502 37.4686 103.885 37.6112 104.36 37.6112C104.689 37.6112 104.963 37.5608 105.187 37.45C105.41 37.3402 105.59 37.1678 105.728 36.9114L105.759 36.8542ZM102.588 36.2585C102.582 36.2227 102.576 36.1865 102.572 36.1497H106.804V35.8553C106.804 35.129 106.581 34.5304 106.137 34.0593C105.666 33.5686 105.053 33.3233 104.299 33.3233C103.545 33.3233 102.932 33.5686 102.461 34.0593C102.017 34.5304 101.794 35.129 101.794 35.8553C101.794 36.575 102.027 37.1736 102.491 37.6512C102.969 38.142 103.589 38.3873 104.349 38.3873C104.949 38.3873 105.437 38.2499 105.814 37.9751C106.165 37.7234 106.429 37.4568 106.606 37.0717C106.622 37.0365 106.637 37.0003 106.652 36.963H105.824C105.528 37.5126 105.04 37.7199 104.36 37.7199C103.861 37.7199 103.451 37.5695 103.127 37.2685C102.837 36.9981 102.657 36.6614 102.588 36.2585ZM103.2 34.4936C102.953 34.7174 102.79 35.0027 102.713 35.3539H105.885C105.808 35.0027 105.645 34.7174 105.398 34.4936C105.103 34.2319 104.739 34.0994 104.299 34.0994C103.858 34.0994 103.495 34.2319 103.2 34.4936ZM105.47 34.4126C105.741 34.658 105.917 34.9717 105.996 35.3539C106.003 35.3896 106.01 35.4259 106.016 35.4627H102.582C102.588 35.4259 102.594 35.3896 102.602 35.3539C102.681 34.9717 102.856 34.658 103.127 34.4126C103.444 34.1313 103.834 33.9906 104.299 33.9906C104.763 33.9906 105.154 34.1313 105.47 34.4126Z" fill="#EFE314"/>
<path d="M113.796 32.0998H113.406V38.2392H113.796V32.0998Z" fill="#EFE314"/>
<path fill-rule="evenodd" clip-rule="evenodd" d="M114.043 31.8525V38.4865H113.158V31.8525H114.043ZM113.406 32.0998H113.796V38.2392H113.406V32.0998Z" fill="#EFE314"/>
</svg>
