<svg width="28" height="40" viewBox="0 0 28 40" fill="none" xmlns="http://www.w3.org/2000/svg">
<path d="M16.8398 40L18.224 40L18.224 31.981C19.2851 33.2123 20.8538 33.9973 22.6071 33.9973C24.9755 33.9973 27.0055 32.5659 27.8975 30.5342L26.3442 30.5342C25.5753 31.7809 24.1911 32.6121 22.6224 32.6121C21.0538 32.6121 19.6696 31.7809 18.9007 30.5342L16.8398 30.5342L16.8398 40ZM16.8398 25.9167L16.8398 22.4536L18.224 22.4536L18.224 24.4699C19.2851 23.2386 20.8538 22.4536 22.6071 22.4536C24.9755 22.4536 27.0055 23.885 27.8975 25.9167L26.3442 25.9167C25.5753 24.67 24.1911 23.8389 22.6224 23.8389C21.0538 23.8389 19.6696 24.67 18.9007 25.9167L16.8398 25.9167Z" fill="#171718"/>
<path d="M0 0L1.38413 0V8.019C2.4453 6.78768 4.01399 6.00271 5.76722 6.00271C8.13563 6.00271 10.1657 7.43412 11.0577 9.46581H9.50438C8.73542 8.21909 7.35129 7.38795 5.7826 7.38795C4.21392 7.38795 2.82978 8.21909 2.06082 9.46581H0L0 0ZM0 14.0833L0 17.5464H1.38413V15.5301C2.4453 16.7614 4.01399 17.5464 5.76722 17.5464C8.13563 17.5464 10.1657 16.115 11.0577 14.0833H9.50438C8.73542 15.33 7.35129 16.1611 5.7826 16.1611C4.21392 16.1611 2.82978 15.33 2.06082 14.0833H0Z" fill="#171718"/>
<ellipse cx="22.6136" cy="11.7295" rx="4.3909" ry="4.41426" fill="#171718"/>
<ellipse cx="5.74051" cy="28.2266" rx="4.3909" ry="4.41426" fill="#171718"/>
</svg>
