<svg width="24" height="24" viewBox="0 0 24 24" fill="none" xmlns="http://www.w3.org/2000/svg">
<path d="M4.57241 13.0353C4.76315 12.8251 4.85168 12.5439 4.84107 12.2603C4.83784 12.1739 4.83621 12.0871 4.83621 12C4.83621 11.9129 4.83784 11.8261 4.84107 11.7397C4.85168 11.4561 4.76315 11.1749 4.57241 10.9647L3.49547 9.77802C3.20086 9.45339 3.15205 8.97472 3.37505 8.5973L4.68575 6.379C4.90198 6.01304 5.32595 5.82377 5.74277 5.90711L7.38982 6.23645C7.65885 6.29024 7.9363 6.22811 8.16953 6.08364C8.33051 5.98392 8.49583 5.8903 8.66517 5.80311C8.91396 5.67501 9.11286 5.46339 9.20321 5.19854L9.72221 3.67714C9.86035 3.27219 10.2408 3 10.6687 3H13.3313C13.7592 3 14.1397 3.2722 14.2778 3.67714L14.7968 5.19855C14.8871 5.46339 15.086 5.67501 15.3348 5.80311C15.5042 5.8903 15.6695 5.98392 15.8305 6.08364C16.0637 6.22811 16.3412 6.29024 16.6102 6.23645L18.2572 5.90711C18.6741 5.82377 19.098 6.01304 19.3143 6.379L20.625 8.5973C20.848 8.97472 20.7991 9.45339 20.5045 9.77802L19.4276 10.9647C19.2369 11.1749 19.1483 11.4561 19.1589 11.7397C19.1622 11.8261 19.1638 11.9129 19.1638 12C19.1638 12.0871 19.1622 12.1739 19.1589 12.2603C19.1483 12.5439 19.2369 12.8251 19.4276 13.0353L20.5045 14.222C20.7991 14.5466 20.848 15.0253 20.625 15.4027L19.3143 17.621C19.098 17.987 18.6741 18.1762 18.2572 18.0929L16.6102 17.7635C16.3412 17.7098 16.0637 17.7719 15.8305 17.9164C15.6695 18.0161 15.5042 18.1097 15.3348 18.1969C15.086 18.325 14.8871 18.5366 14.7968 18.8015L14.2778 20.3229C14.1397 20.7278 13.7592 21 13.3313 21H10.6687C10.2408 21 9.86035 20.7278 9.72221 20.3229L9.20321 18.8015C9.11286 18.5366 8.91396 18.325 8.66517 18.1969C8.49583 18.1097 8.33051 18.0161 8.16953 17.9164C7.9363 17.7719 7.65885 17.7098 7.38982 17.7635L5.74277 18.0929C5.32595 18.1762 4.90198 17.987 4.68575 17.621L3.37505 15.4027C3.15205 15.0253 3.20086 14.5466 3.49547 14.222L4.57241 13.0353Z" stroke="#171718" stroke-width="1.5" stroke-linecap="square"/>
<path d="M12 14C13.1046 14 14 13.1046 14 12C14 10.8954 13.1046 10 12 10C10.8954 10 10 10.8954 10 12C10 13.1046 10.8954 14 12 14Z" stroke="#171718" stroke-width="1.5" stroke-linecap="square"/>
</svg>
