<svg width="121" height="120" viewBox="0 0 121 120" fill="none" xmlns="http://www.w3.org/2000/svg">
<path d="M105.003 101.45V25C105.003 22.3478 103.949 19.8043 102.074 17.9289C100.199 16.0536 97.6551 15 95.0029 15H25.0029C22.3508 15 19.8072 16.0536 17.9319 17.9289C16.0565 19.8043 15.0029 22.3478 15.0029 25V75C15.0029 77.6522 16.0565 80.1957 17.9319 82.0711C19.8072 83.9464 22.3508 85 25.0029 85H80.1979C81.6968 85.0002 83.1764 85.3373 84.5274 85.9864C85.8784 86.6355 87.0662 87.58 88.0029 88.75L99.6579 103.32C100.046 103.806 100.575 104.16 101.173 104.332C101.77 104.504 102.407 104.486 102.994 104.281C103.581 104.075 104.089 103.693 104.449 103.185C104.809 102.678 105.003 102.072 105.003 101.45V101.45Z" stroke="#F6F7FF" stroke-width="3"/>
<path d="M52.5029 50C52.5029 55 47.5029 60 42.5029 65M52.5029 50C52.5029 55 47.5029 60 42.5029 65M52.5029 50H42.5029C41.1768 50 39.9051 49.4732 38.9674 48.5355C38.0297 47.5979 37.5029 46.3261 37.5029 45V40C37.5029 38.6739 38.0297 37.4021 38.9674 36.4645C39.9051 35.5268 41.1768 35 42.5029 35H47.5029C48.829 35 50.1008 35.5268 51.0385 36.4645C51.9761 37.4021 52.5029 38.6739 52.5029 40V50ZM82.5029 50H72.5029C71.1768 50 69.9051 49.4732 68.9674 48.5355C68.0297 47.5979 67.5029 46.3261 67.5029 45V40C67.5029 38.6739 68.0297 37.4021 68.9674 36.4645C69.9051 35.5268 71.1768 35 72.5029 35H77.5029C78.829 35 80.1008 35.5268 81.0385 36.4645C81.9761 37.4021 82.5029 38.6739 82.5029 40V50Z" stroke="#F6F7FF" stroke-width="3" stroke-linecap="round"/>
</svg>
