<svg width="80" height="80" viewBox="0 0 80 80" fill="none" xmlns="http://www.w3.org/2000/svg">
<path d="M28.8406 45.7224L28.7405 46.209L29.2264 46.3122L48.6102 50.4297L48.6865 50.4459H28.9032H28.4032V50.9459V54.9341V55.4341H28.9032H48.7145H49.2145V54.9341V50.9459V50.4459H49.12L49.2037 50.0421L50.0156 46.1252L50.1164 45.6388L49.6306 45.5348L30.2468 41.3873L29.754 41.2819L29.6524 41.7755L28.8406 45.7224ZM31.4181 36.2277L31.2162 36.6753L31.6601 36.8852L49.6077 45.3715L50.0659 45.5882L50.2763 45.127L51.9395 41.482L52.118 41.0908L52.1183 41.0911L52.4404 40.6963L54.9641 37.6026L55.2743 37.2223L55.2489 37.2008L55.6314 36.9099L58.802 34.4987L59.1933 34.2011L58.9024 33.8049L47.0861 17.7042L46.7852 17.2941L46.3804 17.602L43.2097 20.0133L42.8185 20.3108L43.1093 20.7071L54.9256 36.8078L55.1567 37.1226L54.9 36.9051L39.6956 24.0181L39.3069 23.6887L38.9848 24.0835L36.4611 27.1773L36.1509 27.5575L36.5252 27.8748L51.7297 40.7617L51.932 40.9332L51.6987 40.8226L33.7417 32.3138L33.2813 32.0957L33.0718 32.5602L31.4181 36.2277ZM21 46.4293H20.5V46.9293V63V63.5H21H56.6102H57.1102V63V46.9293V46.4293H56.6102H52.6483H52.1483V46.9293V58.4819H25.4619V46.9293V46.4293H24.9619H21Z" stroke="white"/>
<path d="M28.8397 45.7224L28.7397 46.209L29.2256 46.3122L48.6094 50.4297L48.6857 50.4459H28.9023H28.4023V50.9459V54.9341V55.4341H28.9023H48.7137H49.2137V54.9341V50.9459V50.4459H49.1192L49.2029 50.0421L50.0148 46.1252L50.1156 45.6388L49.6298 45.5348L30.246 41.3873L29.7532 41.2819L29.6516 41.7755L28.8397 45.7224ZM31.4173 36.2277L31.2154 36.6753L31.6593 36.8852L49.6069 45.3715L50.0651 45.5882L50.2755 45.127L51.9386 41.482L52.1171 41.0908L52.1175 41.0911L52.4396 40.6963L54.9633 37.6026L55.2735 37.2223L55.2481 37.2008L55.6306 36.9099L58.8012 34.4987L59.1924 34.2011L58.9016 33.8049L47.0853 17.7042L46.7844 17.2941L46.3796 17.602L43.2089 20.0133L42.8177 20.3108L43.1085 20.7071L54.9248 36.8078L55.1559 37.1226L54.8992 36.9051L39.6947 24.0181L39.3061 23.6887L38.984 24.0835L36.4603 27.1773L36.1501 27.5575L36.5244 27.8748L51.7288 40.7617L51.9312 40.9332L51.6979 40.8226L33.7409 32.3138L33.2805 32.0957L33.071 32.5602L31.4173 36.2277Z" stroke="#F48024"/>
</svg>
