<svg width="513" height="426" viewBox="0 0 513 426" fill="none" xmlns="http://www.w3.org/2000/svg">
<path fill-rule="evenodd" clip-rule="evenodd" d="M285.287 116.48L158.446 191.318V321.125L285.287 398.042L412.127 321.125V191.318L285.287 116.48ZM396.516 200.23V312.337L285.287 379.788L174.057 312.337V200.23L285.287 134.602L396.516 200.23Z" stroke="white"/>
<path d="M120.848 351.115L88.8882 369.586V406.529L120.848 425L152.808 406.529V369.586L120.848 351.115Z" stroke="white"/>
<path d="M106.584 262.1L106.834 262.245V262.534V316.887V317.176L106.584 317.32L59.4981 344.497L59.2482 344.641L58.9982 344.497L11.9125 317.32L11.6624 317.176V316.887V262.534V262.245L11.9125 262.1L58.9982 234.924L59.2482 234.779L59.4981 234.924L106.584 262.1ZM117.996 255.802L59.2481 221.894L0.499954 255.802V323.618L59.2481 357.527L117.996 323.618V255.802Z" stroke="white"/>
<path d="M58.192 284.224C62.4023 284.224 65.8157 280.811 65.8157 276.602C65.8157 272.393 62.4023 268.98 58.192 268.98C53.9818 268.98 50.5684 272.393 50.5684 276.602C50.5684 280.811 53.9818 284.224 58.192 284.224ZM70.2432 276.602C70.2432 283.255 64.8479 288.649 58.192 288.649C51.5362 288.649 46.1409 283.255 46.1409 276.602C46.1409 269.949 51.5362 264.555 58.192 264.555C64.8479 264.555 70.2432 269.949 70.2432 276.602Z" stroke="white"/>
<path d="M74.6624 308.185H75.3696L75.1338 307.519C74.3084 305.185 72.9679 303.04 71.1835 301.256C68.0405 298.114 63.7777 296.349 59.3329 296.349C54.888 296.349 50.6252 298.114 47.4822 301.256C45.6978 303.04 44.3573 305.185 43.5319 307.519L43.2961 308.185H44.0033H59.3329L74.6624 308.185ZM74.3089 298.132C77.0068 300.829 78.9017 304.179 79.8397 307.81C80.2416 309.366 80.4678 310.974 80.5063 312.604L59.3329 312.604L38.1595 312.604C38.1979 310.974 38.4242 309.366 38.826 307.81C39.764 304.179 41.6589 300.829 44.3568 298.132C48.3287 294.162 53.7157 291.931 59.3329 291.931C64.95 291.931 70.3371 294.162 74.3089 298.132Z" stroke="white"/>
<path d="M337.027 300.244V300.744H337.527H359.99C361.097 300.744 361.986 301.631 361.986 302.715C361.986 303.799 361.097 304.686 359.99 304.686H215.228C214.121 304.686 213.232 303.799 213.232 302.715C213.232 301.631 214.121 300.744 215.228 300.744H237.691H238.191V300.244V208.811C238.191 207.727 239.08 206.84 240.187 206.84H335.031C335.562 206.84 336.07 207.049 336.444 207.419C336.818 207.789 337.027 208.29 337.027 208.811V300.244ZM333.035 211.282V210.782H332.535H242.683H242.183V211.282V290.359V290.859H242.683H272.634H273.134V290.359V278.004C273.134 276.172 273.869 274.413 275.179 273.117C276.488 271.82 278.267 271.09 280.122 271.09H295.097C296.951 271.09 298.73 271.82 300.04 273.117C301.349 274.413 302.084 276.172 302.084 278.004V290.359V290.859H302.584H332.535H333.035V290.359V211.282ZM242.683 294.802H242.183V295.302V300.244V300.744H242.683H272.634H273.134V300.244V295.302V294.802H272.634H242.683ZM277.126 300.244V300.744H277.626H297.593H298.093V300.244V278.004C298.093 277.214 297.776 276.458 297.213 275.901C296.651 275.344 295.89 275.032 295.097 275.032H280.121C278.472 275.032 277.126 276.358 277.126 278.004V300.244ZM302.084 300.244V300.744H302.584H332.535H333.035V300.244V295.302V294.802H332.535H302.584H302.084V295.302V300.244Z" stroke="white"/>
<path d="M253.051 219.515H252.551V220.015V230.092V230.592H253.051H262.65H263.15V230.092V220.015V219.515H262.65H253.051ZM265.05 234.63H250.651C250.155 234.63 249.674 234.424 249.316 234.048C248.957 233.671 248.751 233.154 248.751 232.611V220.015C248.751 218.804 249.21 217.647 250.019 216.798C250.827 215.949 251.919 215.477 253.051 215.477H262.65C263.783 215.477 264.874 215.949 265.682 216.798C266.491 217.647 266.95 218.804 266.95 220.015V232.611C266.95 233.154 266.744 233.671 266.385 234.048C266.027 234.424 265.546 234.63 265.05 234.63Z" stroke="white"/>
<path d="M282.089 219.515H281.589V220.015V230.092V230.592H282.089H292.169H292.669V230.092V220.015V219.515H292.169H282.089ZM294.689 234.63H279.569C279.033 234.63 278.519 234.417 278.141 234.039C277.762 233.66 277.549 233.147 277.549 232.611V220.015C277.549 218.812 278.028 217.657 278.879 216.806C279.73 215.955 280.885 215.477 282.089 215.477H292.169C293.373 215.477 294.528 215.955 295.379 216.806C296.23 217.657 296.708 218.812 296.708 220.015V232.611C296.708 233.147 296.496 233.66 296.117 234.039C295.738 234.417 295.224 234.63 294.689 234.63Z" stroke="white"/>
<path d="M312.568 219.515H312.068V220.015V230.092V230.592H312.568H322.167H322.667V230.092V220.015V219.515H322.167H312.568ZM324.567 234.63H310.168C309.672 234.63 309.191 234.424 308.833 234.048C308.474 233.671 308.268 233.154 308.268 232.611V220.015C308.268 218.804 308.727 217.647 309.536 216.798C310.344 215.949 311.436 215.477 312.568 215.477H322.167C323.3 215.477 324.391 215.949 325.2 216.798C326.009 217.647 326.467 218.804 326.467 220.015V232.611C326.467 233.154 326.261 233.671 325.902 234.048C325.544 234.424 325.063 234.63 324.567 234.63Z" stroke="white"/>
<path d="M253.051 249.985H252.551V250.485V260.082V260.582H253.051H262.65H263.15V260.082V250.485V249.985H262.65H253.051ZM265.05 264.38H250.651C250.147 264.38 249.663 264.18 249.307 263.824C248.951 263.468 248.751 262.985 248.751 262.481V250.485C248.751 249.345 249.204 248.251 250.01 247.445C250.816 246.64 251.91 246.187 253.051 246.187H262.65C263.791 246.187 264.885 246.64 265.691 247.445C266.497 248.251 266.95 249.345 266.95 250.485V262.481C266.95 262.985 266.75 263.468 266.394 263.824C266.038 264.18 265.554 264.38 265.05 264.38Z" stroke="white"/>
<path d="M282.089 249.985H281.589V250.485V260.082V260.582H282.089H292.169H292.669V260.082V250.485V249.985H292.169H282.089ZM294.689 264.38H279.569C279.026 264.38 278.509 264.174 278.132 263.815C277.756 263.457 277.549 262.976 277.549 262.481V250.485C277.549 249.353 278.021 248.262 278.87 247.454C279.719 246.645 280.878 246.187 282.089 246.187H292.169C293.38 246.187 294.538 246.645 295.388 247.454C296.236 248.262 296.708 249.353 296.708 250.485V262.481C296.708 262.976 296.502 263.457 296.126 263.815C295.749 264.174 295.232 264.38 294.689 264.38Z" stroke="white"/>
<path d="M312.568 249.985H312.068V250.485V260.082V260.582H312.568H322.167H322.667V260.082V250.485V249.985H322.167H312.568ZM324.567 264.38H310.168C309.664 264.38 309.181 264.18 308.824 263.824C308.468 263.468 308.268 262.985 308.268 262.481V250.485C308.268 249.345 308.721 248.251 309.527 247.445C310.333 246.64 311.428 246.187 312.568 246.187H322.167C323.308 246.187 324.402 246.64 325.208 247.445C326.014 248.251 326.467 249.345 326.467 250.485V262.481C326.467 262.985 326.267 263.468 325.911 263.824C325.555 264.18 325.071 264.38 324.567 264.38Z" stroke="white"/>
<path d="M311.821 54.7622L311.965 54.6162V54.4112V41.1187C311.965 23.9319 300.469 9.77968 286.14 9.77968C271.811 9.77968 260.315 23.9319 260.315 41.1187V54.4112V54.6162L260.459 54.7622L285.784 80.4614L286.14 80.8228L286.496 80.4614L311.821 54.7622ZM252.524 59.8219L252.171 60.1693L252.524 59.8219C251.667 58.9525 251.185 57.771 251.185 56.5382V41.1187C251.185 18.6499 266.933 0.5 286.14 0.5C305.347 0.5 321.095 18.6499 321.095 41.1187V56.5382C321.095 57.771 320.613 58.9525 319.756 59.8219L289.366 90.6609C288.509 91.53 287.348 92.0171 286.14 92.0171C284.932 92.0171 283.771 91.53 282.914 90.6609L252.524 59.8219Z" stroke="white"/>
<path d="M291.548 35.7446H292.048V35.2446V30.2383C292.048 27.7854 294.209 25.7319 296.957 25.7319C299.704 25.7319 301.865 27.7854 301.865 30.2383V50.2636C301.865 52.7165 299.704 54.77 296.957 54.77C294.209 54.77 292.048 52.7165 292.048 50.2636V45.2573V44.7573H291.548H280.731H280.231V45.2573V50.2636C280.231 52.7165 278.071 54.77 275.323 54.77C272.575 54.77 270.415 52.7165 270.415 50.2636V30.2383C270.415 27.7854 272.575 25.7319 275.323 25.7319C278.071 25.7319 280.231 27.7854 280.231 30.2383V35.2446V35.7446H280.731H291.548Z" stroke="white"/>
<path d="M489.497 288.867L489.534 289.29L489.958 289.321C497.686 289.89 500.823 290.285 502.095 290.558C502.391 290.621 502.566 290.674 502.666 290.713L501.647 293.456C501.634 293.45 501.62 293.444 501.606 293.437C501.169 293.239 500.432 293.002 499.148 292.772C496.581 292.312 491.742 291.866 482.537 291.866C472.437 291.866 467.607 292.303 465.276 292.757C464.362 292.935 463.792 293.122 463.432 293.312L462.304 290.656C462.307 290.627 462.307 290.599 462.306 290.573C462.354 290.558 462.41 290.542 462.474 290.525C463.603 290.233 466.759 289.819 475.115 289.278L475.545 289.25L475.581 288.822C477.181 270.041 477.328 248.542 477.342 245.012H480.138C480.134 246.216 480.114 249.511 480.026 254.074L480.017 254.583H480.526H484.437H484.938L484.937 254.083C484.936 253.531 484.936 247.038 484.936 245.102H487.733C487.733 256.132 487.764 269.387 489.497 288.867ZM485.222 277.553H485.759L485.721 277.017C485.514 274.137 485.361 271.642 485.25 269.371L485.226 268.896H484.75H480.066H479.586L479.566 269.375C479.464 271.861 479.342 274.427 479.199 277.025L479.17 277.553H479.698H485.222ZM484.948 257.908L484.945 257.411H484.448H480.442H479.954L479.942 257.898C479.885 260.256 479.81 262.831 479.714 265.55L479.695 266.067H480.213H484.59H485.107L485.09 265.551C485.001 262.905 484.963 260.466 484.948 257.908ZM478.41 288.555L478.363 289.114L478.924 289.097C480.104 289.06 481.305 289.037 482.538 289.037C483.757 289.037 484.959 289.062 486.144 289.105L486.711 289.126L486.661 288.561C486.41 285.723 486.193 283.155 486.01 280.841L485.974 280.38H485.512H479.472H479.002L478.973 280.849C478.809 283.43 478.623 286.015 478.41 288.555ZM465.453 245.925H464.953V246.425V247.301L455.687 251.972L452.6 248.859L452.675 248.183L452.675 248.181C452.697 247.977 453.393 242.142 458.992 238.072C461.187 236.477 463.803 235.378 466.836 234.784L466.878 233.813L454.564 230.265V226.575L455.124 226.151L455.124 226.151C459.575 222.784 466.25 221.866 472.123 223.858L472.123 223.858C476.491 225.34 479.919 228.211 482.102 232.13L482.538 232.914L482.975 232.13C485.158 228.211 488.586 225.34 492.954 223.858L492.954 223.858C498.826 221.863 505.502 222.785 509.953 226.151L509.953 226.151L510.513 226.575V230.265L498.199 233.813L498.241 234.784C501.274 235.378 503.889 236.478 506.084 238.073C511.683 242.142 512.379 247.978 512.402 248.183L512.402 248.183L512.477 248.86L509.39 251.973L494.161 244.295C494.041 244.216 493.802 244.08 493.535 243.932C493.208 243.751 492.789 243.525 492.351 243.292C491.483 242.832 490.518 242.335 490.068 242.139C489.868 242.051 489.171 241.716 488.51 241.396C488.183 241.237 487.868 241.084 487.636 240.971L487.357 240.835L487.28 240.797L487.26 240.787L487.254 240.785L487.253 240.784L487.253 240.784L487.253 240.784L487.033 241.233L487.253 240.784L487.235 240.776L487.218 240.768L487.218 240.768L487.217 240.768L487.215 240.767L487.205 240.763L487.165 240.747C487.13 240.733 487.078 240.711 487.012 240.683C486.879 240.627 486.69 240.545 486.468 240.443C486.021 240.238 485.449 239.956 484.927 239.64L484.911 239.63L484.894 239.622L482.763 238.548L482.538 238.434L482.313 238.548L467.68 245.925H465.453ZM504.384 240.32L504.384 240.32C500.578 237.59 495.255 236.608 488.598 237.298L486.901 237.474L488.425 238.242L508.515 248.371L508.839 248.535L509.095 248.277L509.309 248.061L509.509 247.859L509.439 247.584C509.041 246.039 507.833 242.795 504.384 240.32ZM493.842 226.54L493.842 226.54C490.107 227.807 487.168 230.295 485.318 233.697L484.747 234.747L485.896 234.416L506.746 228.409L507.906 228.075L506.85 227.491C504.659 226.281 501.998 225.655 499.297 225.655C497.462 225.655 495.6 225.944 493.842 226.54ZM458.226 227.491L457.169 228.075L458.329 228.409L479.18 234.417L480.329 234.748L479.758 233.697C477.908 230.295 474.968 227.807 471.232 226.54L471.232 226.54C466.898 225.07 461.896 225.463 458.226 227.491ZM462.156 243.097H466.903H467.022L467.128 243.043L476.65 238.242L478.172 237.475L476.477 237.298C469.818 236.605 464.497 237.588 460.691 240.32C457.246 242.792 456.038 246.031 455.638 247.584L455.567 247.858L455.766 248.06L455.979 248.276L456.235 248.535L456.56 248.371L461.881 245.688L462.156 245.55V245.242V243.097Z" stroke="white"/>
</svg>
