<svg width="299" height="257" viewBox="0 0 299 257" fill="none" xmlns="http://www.w3.org/2000/svg">
<path d="M190.339 32.3534L190.09 32.2101L189.841 32.3534L99.6287 84.2253L99.378 84.3695V84.6587V188.402V188.692L99.6287 188.836L189.841 240.708L190.09 240.851L190.339 240.708L280.552 188.836L280.802 188.692V188.402V84.6587V84.3695L280.552 84.2253L190.339 32.3534ZM190.09 26.1991L286.032 81.3657V191.695L190.09 246.862L94.1479 191.695V81.3657L190.09 26.1991Z" stroke="white"/>
<path d="M86.5635 6.32934L86.3139 6.18546L86.0642 6.32934L63.35 19.4196L63.0996 19.5639V19.8528V46.0333V46.3222L63.35 46.4665L86.0642 59.5567L86.3139 59.7006L86.5635 59.5567L109.278 46.4665L109.528 46.3222V46.0333V19.8528V19.5639L109.278 19.4196L86.5635 6.32934ZM86.3139 0.577088L114.395 16.7605V49.1256L86.3139 65.309L58.2324 49.1256V16.7605L86.3139 0.577088Z" stroke="white"/>
<path d="M60.1617 72.7397L59.9112 72.5947L59.6607 72.7397L45.0895 81.1756L44.84 81.3201V81.6084V98.4802V98.7685L45.0895 98.9129L59.6607 107.349L59.9112 107.494L60.1617 107.349L74.7329 98.9129L74.9824 98.7685V98.4802V81.6084V81.3201L74.7329 81.1756L60.1617 72.7397ZM59.9112 69.3921L77.7462 79.7176V100.371L59.9112 110.696L42.0762 100.371V79.7176L59.9112 69.3921Z" stroke="white"/>
<path d="M223.46 146.413L223.725 85.9094C223.725 81.7299 220.32 78.3312 216.133 78.3312H162.658C158.471 78.3312 155.066 81.7299 155.066 85.9094V96.8656C155.066 98.2502 156.191 99.3722 157.578 99.3722C158.965 99.3722 160.089 98.2502 160.089 96.8656V94.0795H218.703V146.991M198.157 161.421L160.089 161.673V151.836C160.089 150.452 158.965 149.33 157.578 149.33C156.191 149.33 155.066 150.452 155.066 151.836V169.682C155.066 173.861 158.471 177.26 162.658 177.26H191.923M189.723 172.247H162.658C161.242 172.247 160.089 171.095 160.089 169.682V166.687H193.757M160.089 89.0662H218.703V85.9094C218.703 84.4959 217.549 83.3444 216.133 83.3444H162.658C161.242 83.3444 160.089 84.4959 160.089 85.9094V89.0662Z" stroke="white"/>
<path d="M208.449 156.519L208.449 156.519C208.762 157.014 209.461 157.248 210.008 157.048L210.008 157.048C210.551 156.851 210.922 156.235 210.837 155.656L210.836 155.65L210.836 155.65C210.755 155.049 210.968 154.327 211.267 153.724C211.57 153.116 212.018 152.511 212.53 152.179C212.761 152.028 213.093 151.879 213.448 151.772C213.804 151.664 214.222 151.587 214.624 151.61M208.449 156.519L214.596 152.109M208.449 156.519L208.445 156.513M208.449 156.519L208.445 156.513M214.624 151.61L214.596 152.109M214.624 151.61C214.624 151.61 214.624 151.61 214.623 151.61L214.596 152.109M214.624 151.61C214.983 151.63 215.381 151.687 215.795 151.925C216.203 152.16 216.582 152.544 216.969 153.137M214.596 152.109C215.245 152.145 215.828 152.303 216.551 153.41M216.969 153.137L216.551 153.41M216.969 153.137C216.97 153.137 216.97 153.138 216.97 153.138L216.551 153.41M216.969 153.137L216.551 153.41M235.288 149.497L234.958 149.873L235.288 149.497C235.288 149.497 235.288 149.497 235.288 149.497ZM235.288 149.497C237.501 151.435 239.696 154.764 241.432 158.582C243.17 162.406 244.503 166.741 245.149 170.666L244.655 170.747M235.288 149.497L244.655 170.747M208.445 156.513L198.025 140.542C196.761 138.604 194.267 138.057 192.336 139.312C190.405 140.567 189.897 143.064 191.162 145.003L209.024 172.382C209.34 172.868 209.276 173.579 208.888 173.99L208.887 173.991C208.499 174.402 207.795 174.507 207.298 174.22C207.297 174.22 207.297 174.219 207.296 174.219L200.357 170.104L200.347 170.098L200.336 170.093C200.162 170 199.989 169.905 199.817 169.81C198.576 169.124 197.351 168.446 195.405 168.867L195.354 168.878L195.307 168.899C193.612 169.656 192.475 171.738 192.926 173.802L192.931 173.824L192.938 173.846C193.203 174.679 194.043 175.741 195.912 177.093L195.912 177.093L195.919 177.098C204.55 183.126 215.958 189.547 225.426 192.43L225.649 192.498L225.845 192.371L244.841 180.023L244.995 179.923L245.047 179.747M208.445 156.513L245.047 179.747M245.047 179.747C245.678 177.629 245.755 174.343 245.149 170.666L244.655 170.747M245.047 179.747L244.655 170.747M188.987 146.418C186.988 143.353 187.793 139.248 190.745 137.21L190.899 137.109C193.489 135.415 197.663 135.376 200.203 139.135L208.481 151.823L208.892 152.453L209.315 151.83C209.82 151.084 210.389 150.434 211.092 149.977C211.969 149.407 213.201 148.905 214.721 148.991L214.721 148.991C215.239 149.02 215.82 149.275 216.497 149.576L216.975 149.788L217.166 149.302C217.523 148.393 218.066 147.628 218.846 147.102C219.683 146.538 220.89 146.082 222.427 146.152L222.427 146.152C223.288 146.191 224.259 146.583 225.209 147.234L225.559 147.474L225.853 147.169C226.368 146.633 227.06 146.097 227.766 145.636C230.873 144.117 234.355 145.14 236.974 147.53C239.732 150.047 241.976 153.471 243.82 157.529L243.82 157.529C245.665 161.587 247.033 166.086 247.723 170.276C248.415 174.483 248.454 178.279 247.388 181.189L247.386 181.194C247.293 181.457 247.115 181.687 246.892 181.832L226.557 195.05C226.557 195.051 226.556 195.051 226.556 195.051C226.251 195.246 225.852 195.305 225.499 195.203C215.192 192.11 204.474 186.153 194.384 179.211C192.266 177.679 190.994 176.231 190.472 174.624C190.041 173.169 190.271 171.353 191.031 169.76C191.791 168.165 193.041 166.872 194.557 166.389L194.557 166.389L194.565 166.386C195.668 166.015 196.953 166.07 198.264 166.409C199.57 166.748 200.866 167.359 201.962 168.052L202.648 167.357L188.987 146.418ZM218.499 153.664L218.666 154.135L218.499 153.663C218.499 153.663 218.499 153.663 218.499 153.664ZM219.352 152.305C219.352 152.306 219.352 152.307 219.352 152.307L219.849 152.249L219.352 152.303C219.352 152.304 219.352 152.304 219.352 152.305Z" stroke="white"/>
<path d="M182.623 124.451C182.623 137.112 172.34 147.378 159.654 147.378C146.968 147.378 136.685 137.112 136.685 124.451C136.685 111.791 146.968 101.525 159.654 101.525C172.34 101.525 182.623 111.791 182.623 124.451Z" stroke="white"/>
<path d="M178.222 124.451C178.222 134.686 169.91 142.985 159.654 142.985C149.398 142.985 141.085 134.686 141.085 124.451C141.085 114.216 149.398 105.918 159.654 105.918C169.91 105.918 178.222 114.216 178.222 124.451Z" stroke="white"/>
<path d="M164.625 119.467L165.099 120.029L165.448 119.381L167.215 116.097L167.425 115.706L167.062 115.451C166.216 114.858 165.238 114.341 164.13 113.897C163.148 113.498 162.086 113.237 160.945 113.11L160.948 110.603L160.948 110.103L160.448 110.102L158.714 110.1L158.214 110.1L158.213 110.6L158.211 113.143C157.41 113.244 156.649 113.433 155.928 113.711C155.064 114.044 154.305 114.505 153.658 115.097L153.658 115.097L153.652 115.103C153.022 115.698 152.521 116.419 152.149 117.256L152.149 117.256L152.146 117.262C151.787 118.097 151.613 119.036 151.611 120.07C151.611 120.918 151.732 121.678 151.991 122.336L151.995 122.346L151.999 122.355C152.278 122.988 152.684 123.552 153.212 124.045L153.212 124.045L153.22 124.053C153.745 124.522 154.385 124.93 155.133 125.279L155.14 125.283L155.148 125.286C155.902 125.609 156.776 125.909 157.769 126.187L158.277 126.359L158.301 126.367L158.327 126.373L158.457 126.403L158.453 130.474C157.988 130.393 157.533 130.28 157.088 130.133C156.468 129.923 155.898 129.704 155.376 129.477C154.877 129.232 154.449 128.991 154.089 128.753C153.731 128.504 153.504 128.321 153.385 128.199L152.896 127.703L152.582 128.324L150.815 131.814L150.621 132.196L150.97 132.446C152.048 133.218 153.244 133.846 154.555 134.331L154.555 134.331L154.563 134.334C155.747 134.748 156.956 135.018 158.188 135.145L158.185 137.944L158.185 138.444L158.685 138.444L160.419 138.446L160.919 138.446L160.92 137.946L160.923 135.19C161.729 135.129 162.504 134.997 163.245 134.793L163.245 134.793L163.253 134.791C164.171 134.522 164.979 134.126 165.67 133.597C166.39 133.06 166.951 132.373 167.351 131.543C167.779 130.696 167.983 129.697 167.984 128.565C167.985 127.557 167.825 126.677 167.477 125.946C167.137 125.213 166.648 124.586 166.014 124.07C165.406 123.559 164.662 123.142 163.794 122.813C162.967 122.492 162.045 122.193 161.031 121.915L161.031 121.914L161.017 121.911L160.676 121.828L160.68 117.722C161.008 117.783 161.327 117.866 161.639 117.972L161.647 117.974L161.655 117.977C162.151 118.127 162.595 118.302 162.989 118.503L163.001 118.509L163.014 118.514C163.441 118.703 163.793 118.888 164.075 119.067L164.074 119.067L164.086 119.074C164.407 119.266 164.567 119.397 164.625 119.467ZM162.142 127.827C162.543 128.104 162.734 128.467 162.734 128.971C162.733 129.511 162.542 129.87 162.18 130.122C161.859 130.346 161.367 130.511 160.667 130.579L160.671 127.092C161.29 127.329 161.777 127.575 162.142 127.827ZM157.183 120.557C156.887 120.316 156.717 119.966 156.718 119.429C156.718 118.832 156.904 118.434 157.228 118.162C157.495 117.937 157.896 117.763 158.466 117.671L158.463 121.178C157.899 120.976 157.477 120.766 157.183 120.557Z" stroke="white"/>
<path d="M29.8172 172.664C29.8172 175.968 27.1334 178.649 23.8207 178.649C20.508 178.649 17.8242 175.968 17.8242 172.664C17.8242 169.36 20.508 166.679 23.8207 166.679C27.1334 166.679 29.8172 169.36 29.8172 172.664Z" stroke="white"/>
<path d="M27.5337 172.716C27.5337 174.794 25.8463 176.479 23.7627 176.479C21.6791 176.479 19.9917 174.794 19.9917 172.716C19.9917 170.639 21.6791 168.953 23.7627 168.953C25.8463 168.953 27.5337 170.639 27.5337 172.716Z" stroke="white"/>
<path d="M42.9097 187.495C42.9097 189.573 41.2222 191.259 39.1387 191.259C37.0551 191.259 35.3677 189.573 35.3677 187.495C35.3677 185.418 37.0551 183.732 39.1387 183.732C41.2222 183.732 42.9097 185.418 42.9097 187.495Z" stroke="white"/>
<path d="M34.3677 202.843C34.3677 204.921 32.6802 206.606 30.5967 206.606C28.5131 206.606 26.8257 204.921 26.8257 202.843C26.8257 200.766 28.5131 199.08 30.5967 199.08C32.6802 199.08 34.3677 200.766 34.3677 202.843Z" stroke="white"/>
<path d="M34.8887 174.326H65.2057C65.8008 174.326 66.3507 174.009 66.6483 173.495C66.9455 172.981 66.9455 172.348 66.6483 171.834C66.3508 171.32 65.8008 171.002 65.2057 171.002H34.8887C34.2936 171.002 33.7437 171.32 33.446 171.834L34.8887 174.326ZM34.8887 174.326C34.2935 174.326 33.7436 174.009 33.446 173.495L34.8887 174.326ZM33.446 173.495C33.1489 172.981 33.1489 172.348 33.4459 171.834L33.446 173.495Z" stroke="white"/>
<path d="M2.16555 174.326H12.993C13.5881 174.326 14.1381 174.009 14.4357 173.495L2.16555 174.326ZM2.16555 174.326C1.57037 174.326 1.02046 174.009 0.722901 173.495L2.16555 174.326ZM0.722823 173.495C0.425728 172.981 0.42573 172.348 0.722804 171.834L0.722823 173.495ZM12.993 171.002C13.5882 171.002 14.1381 171.32 14.4357 171.834L0.722895 171.834C1.02053 171.32 1.57045 171.002 2.16555 171.002H12.993ZM14.4358 171.834C14.7329 172.348 14.7329 172.981 14.4358 173.495L14.4358 171.834Z" stroke="white"/>
<path d="M45.0828 187.443C45.0828 190.748 42.399 193.428 39.0863 193.428C35.7737 193.428 33.0898 190.748 33.0898 187.443C33.0898 184.139 35.7737 181.458 39.0863 181.458C42.399 181.458 45.0828 184.139 45.0828 187.443Z" stroke="white"/>
<path d="M50.2876 189.457H65.4461C66.0412 189.457 66.5911 189.14 66.8888 188.626C67.186 188.112 67.186 187.479 66.8888 186.965C66.5912 186.45 66.0413 186.133 65.4461 186.133H50.2876C49.6925 186.133 49.1426 186.45 48.845 186.965L50.2876 189.457ZM50.2876 189.457C49.6924 189.457 49.1425 189.14 48.845 188.626L50.2876 189.457ZM48.8449 188.626C48.5478 188.112 48.5478 187.479 48.8449 186.965L48.8449 188.626Z" stroke="white"/>
<path d="M2.16555 189.457H28.1515C28.7467 189.457 29.2967 189.14 29.5943 188.626C29.8913 188.112 29.8913 187.479 29.5943 186.965L2.16555 189.457ZM2.16555 189.457C1.57037 189.457 1.02046 189.14 0.722901 188.626L2.16555 189.457ZM2.16555 186.133C1.57045 186.133 1.02053 186.45 0.722895 186.965L2.16555 186.133ZM2.16555 186.133H28.1515M2.16555 186.133H28.1515M28.1515 186.133C28.7467 186.133 29.2966 186.45 29.5942 186.965L28.1515 186.133ZM0.722823 188.626C0.425728 188.112 0.42573 187.479 0.722804 186.965L0.722823 188.626Z" stroke="white"/>
<path d="M36.554 202.926C36.554 206.23 33.8702 208.911 30.5575 208.911C27.2448 208.911 24.561 206.23 24.561 202.926C24.561 199.621 27.2448 196.941 30.5575 196.941C33.8702 196.941 36.554 199.621 36.554 202.926Z" stroke="white"/>
<path d="M41.6255 204.588H65.446C66.0411 204.588 66.5911 204.271 66.8887 203.757C67.1858 203.243 67.1858 202.61 66.8887 202.096L41.6255 204.588ZM41.6255 204.588C41.0303 204.588 40.4804 204.271 40.1829 203.757L41.6255 204.588ZM41.6255 201.264C41.0304 201.264 40.4805 201.581 40.1829 202.095L41.6255 201.264ZM41.6255 201.264H65.446M41.6255 201.264H65.446M65.446 201.264C66.0412 201.264 66.5911 201.581 66.8886 202.095L65.446 201.264ZM40.1828 203.757C39.8857 203.243 39.8857 202.61 40.1828 202.096L40.1828 203.757Z" stroke="white"/>
<path d="M2.16555 204.588H19.4895C20.0846 204.588 20.6346 204.271 20.9322 203.757C21.2294 203.243 21.2294 202.609 20.9322 202.095C20.6346 201.581 20.0847 201.264 19.4895 201.264H2.16555C1.57045 201.264 1.02053 201.581 0.722895 202.095L2.16555 204.588ZM2.16555 204.588C1.57037 204.588 1.02046 204.271 0.722901 203.757L2.16555 204.588ZM0.722823 203.757C0.425728 203.243 0.42573 202.61 0.722804 202.096L0.722823 203.757Z" stroke="white"/>
<path d="M279.804 216.156L279.554 216.011L279.303 216.156L263.849 225.103L263.599 225.248V225.536V243.431V243.719L263.849 243.863L279.303 252.81L279.554 252.956L279.804 252.81L295.258 243.863L295.508 243.719V243.431V225.536V225.248L295.258 225.103L279.804 216.156ZM279.554 212.545L298.5 223.513V245.453L279.554 256.422L260.607 245.453V223.513L279.554 212.545Z" stroke="white"/>
</svg>
