<svg width="120" height="120" viewBox="0 0 120 120" fill="none" xmlns="http://www.w3.org/2000/svg">
<path d="M4.35963 23.0352C4.14889 21.1918 5.23335 19.4456 6.97902 18.8172L57.9307 0.476994C58.7884 0.168286 59.7257 0.161752 60.5876 0.458472L112.932 18.4797C114.72 19.0953 115.833 20.879 115.599 22.7556L107.062 91.3836C106.905 92.6464 106.156 93.7591 105.046 94.3805L61.2113 118.906C59.9965 119.586 58.5157 119.585 57.3016 118.904L14.2288 94.7469C13.1079 94.1183 12.3573 92.9893 12.2113 91.7125L4.35963 23.0352Z" fill="white"/>
<path d="M60.2699 16.0044C59.908 15.2262 58.7983 15.2354 58.4495 16.0196L25.5498 89.9703C25.2525 90.6384 25.7495 91.3891 26.4806 91.3766L37.1073 91.194C37.5112 91.1871 37.8712 90.9379 38.0199 90.5623L44.4368 74.3556C44.5878 73.9742 44.9564 73.7237 45.3666 73.7237H74.9147C75.3148 73.7237 75.6765 73.9623 75.834 74.3302L82.8886 90.8089C83.0436 91.1708 83.3964 91.4081 83.79 91.4152L93.8375 91.5958C94.5762 91.609 95.0738 90.8442 94.7622 90.1742L60.2699 16.0044ZM58.5662 40.8823C58.8993 40.0827 60.0223 40.056 60.393 40.8389L70.3918 61.9532C70.706 62.6166 70.2221 63.3812 69.488 63.3812H50.6928C49.9792 63.3812 49.4953 62.6553 49.7697 61.9966L58.5662 40.8823Z" fill="#C653B9"/>
</svg>
