<svg width="120" height="120" viewBox="0 0 120 120" fill="none" xmlns="http://www.w3.org/2000/svg">
<g filter="url(#filter0_b_62_6934)">
<path d="M17.4078 55.0759C17.3873 55.6765 17.4695 56.2772 17.6338 56.8578C17.8187 57.3583 18.0447 57.8388 18.2912 58.2993C18.3734 58.4394 18.435 58.5996 18.435 58.7598C18.4145 59 18.2707 59.2403 18.0447 59.3604L16.7504 60.2013C16.586 60.3014 16.4011 60.3815 16.2162 60.3815C15.9903 60.3615 15.7643 60.2613 15.5999 60.1012C15.3328 59.8209 15.0658 59.5005 14.8603 59.1602C14.6549 58.8198 14.4494 58.4394 14.2234 57.9789C12.621 59.8209 10.6076 60.7418 8.18337 60.7418C6.45764 60.7418 5.08116 60.2613 4.07449 59.3003C3.06781 58.3393 2.5542 57.058 2.5542 55.4563C2.5542 53.7545 3.17053 52.3731 4.42374 51.332C5.67695 50.2909 7.34105 49.7703 9.45713 49.7703C10.1762 49.7703 10.9158 49.8304 11.6348 49.9305C12.395 50.0306 13.1757 50.1908 13.9974 50.3709V48.9094C13.9974 47.3878 13.6687 46.3267 13.0319 45.706C12.395 45.0854 11.265 44.7851 9.68312 44.7851C8.94352 44.7851 8.18337 44.8652 7.46432 45.0454C6.70417 45.2255 5.96457 45.4458 5.24552 45.7261C5.01953 45.8262 4.773 45.9063 4.52646 45.9863C4.42374 46.0264 4.30048 46.0464 4.19775 46.0464C3.91013 46.0464 3.76632 45.8462 3.76632 45.4258V44.4447C3.74578 44.2045 3.80741 43.9642 3.91013 43.744C4.07449 43.5638 4.25939 43.4236 4.48538 43.3235C5.30715 42.9231 6.17002 42.6228 7.07397 42.4226C8.12174 42.1623 9.21059 42.0422 10.2789 42.0422C12.7237 42.0422 14.5111 42.5828 15.6615 43.6639C16.812 44.745 17.3667 46.3868 17.3667 48.5891V55.0759H17.4078ZM9.06678 58.1191C9.78584 58.1191 10.5049 57.999 11.1829 57.7587C11.943 57.4984 12.6004 57.058 13.1346 56.4774C13.4633 56.117 13.7098 55.6765 13.8331 55.196C13.9769 54.6354 14.0385 54.0348 14.0385 53.4542V52.6133C13.4222 52.4732 12.7853 52.353 12.1484 52.2729C11.5116 52.1929 10.8541 52.1528 10.2173 52.1528C8.84079 52.1528 7.83412 52.4131 7.15615 52.9537C6.47818 53.4942 6.14947 54.255 6.14947 55.2561C6.14947 56.1971 6.39601 56.8978 6.90962 57.3783C7.42323 57.8588 8.12174 58.1191 9.06678 58.1191ZM25.564 60.2814C25.2969 60.3014 25.0093 60.2413 24.7833 60.0812C24.5778 59.8609 24.4135 59.6007 24.3518 59.3003L19.5239 43.8241C19.4212 43.5638 19.3595 43.3035 19.339 43.0232C19.3185 42.783 19.4828 42.5627 19.7293 42.5227H21.866C22.2563 42.5227 22.5234 42.5828 22.6672 42.7229C22.811 42.8631 22.9548 43.1233 23.0781 43.5037L26.509 56.7577L29.7139 43.5037C29.8167 43.1033 29.9399 42.843 30.1043 42.7229C30.3508 42.5828 30.6384 42.5027 30.9261 42.5227H32.5696C32.96 42.5227 33.227 42.5828 33.3914 42.7229C33.5968 42.9431 33.7406 43.2034 33.7817 43.5037L37.0277 56.9178L40.5819 43.5037C40.6436 43.2034 40.7874 42.9431 40.9928 42.7229C41.2394 42.5828 41.5064 42.5027 41.7941 42.5227H43.7047C43.9512 42.4827 44.1772 42.6628 44.2183 42.9031V43.0232C44.2183 43.1233 44.1978 43.2435 44.1772 43.3436C44.1361 43.5238 44.095 43.6839 44.0334 43.8441L39.0822 59.3204C38.9589 59.7208 38.8151 59.9811 38.6508 60.1012C38.4248 60.2413 38.1371 60.3214 37.8701 60.3014H36.1032C35.7129 60.3014 35.4458 60.2413 35.2815 60.1012C35.076 59.8809 34.9322 59.6007 34.8911 59.3003L31.7067 46.3868L28.5429 59.2803C28.5018 59.5806 28.358 59.8609 28.1526 60.0812C27.906 60.2413 27.6184 60.3014 27.3308 60.2814H25.564ZM51.9635 60.8219C50.8952 60.8219 49.8269 60.7018 48.7997 60.4616C47.7725 60.2213 46.9713 59.961 46.4371 59.6607C46.17 59.5406 45.944 59.3404 45.8002 59.1001C45.718 58.9199 45.677 58.7397 45.677 58.5395V57.5185C45.677 57.098 45.8413 56.8978 46.1495 56.8978C46.2727 56.8978 46.396 56.9178 46.5193 56.9579C46.6425 56.9979 46.8274 57.078 47.0329 57.1581C47.7519 57.4784 48.5121 57.6987 49.2928 57.8588C50.094 58.019 50.9158 58.0991 51.7376 58.0991C53.0319 58.0991 54.0385 57.8788 54.737 57.4384C55.415 57.038 55.8259 56.3172 55.8054 55.5364C55.8259 55.0158 55.6205 54.5153 55.2507 54.1349C54.8809 53.7545 54.1823 53.4141 53.1757 53.0938L50.1967 52.1929C48.697 51.7324 47.5876 51.0517 46.9096 50.1507C46.2522 49.3098 45.8824 48.3088 45.8824 47.2477C45.8619 46.4668 46.0468 45.706 46.4371 45.0253C46.8069 44.3847 47.3 43.8241 47.9163 43.3836C48.5532 42.9031 49.2722 42.5627 50.0529 42.3425C50.8952 42.1023 51.7581 41.9821 52.6415 42.0022C53.0935 42.0022 53.566 42.0222 54.018 42.0822C54.4905 42.1423 54.9219 42.2224 55.3534 42.3025C55.7848 42.3826 56.1546 42.5027 56.5244 42.6228C56.8326 42.7229 57.1202 42.843 57.3873 42.9832C57.6338 43.1033 57.8393 43.2635 58.0036 43.4837C58.1474 43.6839 58.2091 43.9042 58.1885 44.1444V45.0854C58.1885 45.5058 58.0242 45.7261 57.716 45.7261C57.4489 45.686 57.1818 45.6059 56.9353 45.4858C55.7026 44.9452 54.3467 44.685 52.9908 44.705C51.8197 44.705 50.8952 44.8852 50.2584 45.2656C49.6215 45.646 49.2928 46.2266 49.2928 47.0475C49.2722 47.588 49.4982 48.1086 49.9091 48.4689C50.32 48.8493 51.0801 49.2297 52.169 49.5701L55.0863 50.4711C56.5655 50.9315 57.6338 51.5722 58.2707 52.3931C58.9076 53.1939 59.2363 54.195 59.2157 55.196C59.2363 55.9969 59.0514 56.7977 58.6816 57.5185C58.3118 58.1992 57.7982 58.7998 57.1818 59.2803C56.5039 59.8009 55.7232 60.1813 54.9014 60.4015C53.9564 60.6818 52.9702 60.8219 51.9635 60.8219Z" fill="white"/>
<path d="M55.8463 70.5523C49.0872 75.4174 39.267 78.0001 30.8232 78.0001C18.9896 78.0001 8.32707 73.7357 0.273655 66.6482C-0.363222 66.0876 0.212022 65.3268 0.972166 65.7673C9.683 70.6925 20.4277 73.6756 31.5423 73.6756C39.5546 73.6356 47.4847 72.0539 54.8602 69.0307C55.9901 68.5302 56.9557 69.7515 55.8463 70.5523Z" fill="white"/>
<path d="M58.6609 67.429C57.798 66.3479 52.9495 66.9085 50.7513 67.1688C50.0939 67.2488 49.9911 66.6882 50.5869 66.2678C54.4493 63.625 60.7975 64.3858 61.5371 65.2668C62.2767 66.1477 61.3317 72.3542 57.7159 75.3173C57.1612 75.7778 56.627 75.5375 56.8735 74.9369C57.6953 72.9548 59.5238 68.4901 58.6609 67.429Z" fill="white"/>
<path d="M94.6342 64.5061C94.8397 64.9065 95.1478 65.2468 95.5176 65.5071C95.908 65.7674 96.3394 65.9676 96.8119 66.0677C97.305 66.1878 97.8186 66.2479 98.3322 66.2479C98.7226 66.2479 99.0924 66.2079 99.4827 66.1678C99.8731 66.1077 100.263 66.0076 100.633 65.8275C100.982 65.6673 101.291 65.427 101.517 65.1467C101.763 64.8264 101.886 64.446 101.866 64.0456C101.886 63.6051 101.702 63.1847 101.393 62.8844C101.044 62.564 100.613 62.3238 100.161 62.1436C99.606 61.9234 99.0307 61.7632 98.4349 61.623C97.7981 61.4829 97.1406 61.3027 96.4832 61.1225C95.8053 60.9623 95.1478 60.7621 94.4904 60.5219C93.8741 60.3016 93.2783 59.9813 92.7647 59.5809C92.2511 59.2005 91.8402 58.72 91.532 58.1594C91.2033 57.5187 91.039 56.818 91.0595 56.0972C91.039 55.2764 91.2444 54.4555 91.6758 53.7347C92.0662 53.074 92.6003 52.4934 93.2372 52.053C93.8946 51.5925 94.6342 51.2722 95.4149 51.0519C96.2161 50.8317 97.0379 50.7316 97.8597 50.7316C98.7842 50.7316 99.6882 50.8317 100.592 51.0319C101.434 51.2121 102.215 51.5525 102.914 52.033C103.592 52.4934 104.146 53.0941 104.537 53.7948C104.948 54.5956 105.153 55.4966 105.132 56.3975H101.27C101.25 55.9371 101.126 55.4966 100.921 55.0962C100.736 54.7558 100.469 54.4755 100.14 54.2753C99.7909 54.0751 99.4211 53.935 99.0307 53.8549C98.5788 53.7748 98.1268 53.7347 97.6748 53.7347C97.3461 53.7347 97.0174 53.7748 96.7092 53.8348C96.401 53.8949 96.0929 54.015 95.8258 54.1752C95.5587 54.3354 95.3533 54.5556 95.1889 54.7959C95.004 55.0762 94.9218 55.3965 94.9424 55.7368C94.9218 56.0372 95.004 56.3175 95.1478 56.5777C95.3533 56.858 95.6204 57.0582 95.9491 57.1784C96.4832 57.3986 97.0379 57.5788 97.5926 57.7189C98.2911 57.8991 99.2156 58.1394 100.346 58.4197C100.674 58.4797 101.147 58.5999 101.763 58.78C102.4 58.9602 102.996 59.2405 103.551 59.6009C104.167 60.0013 104.701 60.5019 105.091 61.1025C105.523 61.7432 105.749 62.544 105.749 63.5451C105.749 64.3259 105.584 65.0867 105.256 65.8074C104.927 66.5082 104.434 67.1288 103.818 67.6093C103.119 68.1499 102.318 68.5503 101.455 68.7906C100.387 69.0909 99.2978 69.231 98.1884 69.211C97.2023 69.211 96.2367 69.0909 95.2711 68.8506C94.3671 68.6304 93.5248 68.25 92.7852 67.7094C92.0662 67.1889 91.4704 66.5282 91.0595 65.7474C90.6075 64.8664 90.4021 63.9054 90.4432 62.9244H94.3055C94.285 63.505 94.4082 64.0256 94.6342 64.5061ZM113.371 58.5198C113.802 58.4998 114.213 58.3996 114.603 58.2395C114.973 58.0993 115.302 57.8591 115.548 57.5588C115.816 57.2184 115.939 56.798 115.918 56.3775C115.918 55.6367 115.672 55.0561 115.158 54.6757C114.665 54.2753 114.049 54.0751 113.412 54.0751C112.487 54.0751 111.809 54.3754 111.337 54.956C110.844 55.5967 110.618 56.3775 110.659 57.1784H107.228C107.249 56.3375 107.413 55.5166 107.721 54.7358C108.009 54.0351 108.42 53.3744 108.974 52.8338C109.529 52.2932 110.166 51.8728 110.885 51.6125C111.686 51.3122 112.528 51.1721 113.371 51.1721C114.09 51.1721 114.809 51.2722 115.507 51.4724C116.206 51.6726 116.843 51.9929 117.418 52.3933C117.973 52.7938 118.445 53.3143 118.794 53.8949C119.164 54.5156 119.349 55.2363 119.329 55.9571C119.349 56.7379 119.123 57.5187 118.712 58.1794C118.281 58.8401 117.623 59.3006 116.843 59.5008V59.5609C117.747 59.7411 118.568 60.2216 119.144 60.9423C119.719 61.6831 120.007 62.584 119.986 63.485C120.007 64.3259 119.822 65.1668 119.452 65.9075C119.103 66.6083 118.61 67.2089 117.993 67.6894C117.356 68.1699 116.658 68.5503 115.877 68.7705C115.076 69.0108 114.234 69.1509 113.391 69.1509C112.467 69.171 111.542 69.0108 110.659 68.7305C109.878 68.4702 109.159 68.0498 108.563 67.5092C107.968 66.9486 107.516 66.2879 107.228 65.5271C106.899 64.6662 106.755 63.7653 106.776 62.8443H110.207C110.227 63.2848 110.289 63.7453 110.433 64.1657C110.556 64.5661 110.762 64.9265 111.029 65.2669C111.296 65.5672 111.604 65.8275 111.974 65.9876C112.405 66.1878 112.857 66.2679 113.33 66.2679C114.09 66.2879 114.829 66.0277 115.384 65.5472C115.939 65.0667 116.226 64.3859 116.226 63.5451C116.226 62.8844 116.103 62.3838 115.836 62.0435C115.59 61.7031 115.24 61.4428 114.829 61.2827C114.398 61.1225 113.946 61.0424 113.494 61.0224C113.001 61.0024 112.549 60.9824 112.118 60.9824V58.5198C112.528 58.5598 112.96 58.5598 113.371 58.5198ZM77.1304 42.3828H78.5685V77.6199H77.1304V42.3828Z" fill="white"/>
</g>
<defs>
<filter id="filter0_b_62_6934" x="-20" y="22" width="159.988" height="76" filterUnits="userSpaceOnUse" color-interpolation-filters="sRGB">
<feFlood flood-opacity="0" result="BackgroundImageFix"/>
<feGaussianBlur in="BackgroundImageFix" stdDeviation="10"/>
<feComposite in2="SourceAlpha" operator="in" result="effect1_backgroundBlur_62_6934"/>
<feBlend mode="normal" in="SourceGraphic" in2="effect1_backgroundBlur_62_6934" result="shape"/>
</filter>
</defs>
</svg>
