<svg width="40" height="26" viewBox="0 0 40 26" fill="none" xmlns="http://www.w3.org/2000/svg">
<path d="M16.4563 11.9679C17.2864 11.5504 17.914 11.0853 18.344 10.5828C19.1091 9.67773 19.4866 8.47763 19.4866 6.99001C19.4866 5.54239 19.1091 4.30479 18.354 3.26721C17.0939 1.57707 14.9612 0.711996 11.946 0.666992H0V25.0515H11.1384C12.3935 25.0515 13.5561 24.944 14.6312 24.724C15.7063 24.5014 16.6364 24.0939 17.4239 23.4989C18.124 22.9813 18.709 22.3388 19.1741 21.5812C19.9091 20.4361 20.2767 19.1385 20.2767 17.6934C20.2767 16.2933 19.9541 15.1007 19.3141 14.1206C18.6665 13.1405 17.7165 12.423 16.4563 11.9679ZM4.9279 4.90234H10.3083C11.4909 4.90234 12.466 5.02985 13.2311 5.28237C14.1162 5.6499 14.5587 6.39746 14.5587 7.53755C14.5587 8.56014 14.2212 9.2752 13.5536 9.67773C12.8811 10.0803 12.0085 10.2828 10.9384 10.2828H4.9279V4.90234ZM13.4361 20.3911C12.8411 20.6786 12.0035 20.8211 10.9309 20.8211H4.9279V14.3181H11.0134C12.0735 14.3256 12.8986 14.4656 13.4886 14.7281C14.5387 15.2032 15.0612 16.0733 15.0612 17.3459C15.0612 18.846 14.5212 19.8561 13.4361 20.3911Z" fill="white"/>
<path d="M36.1481 1.80566H25.5547V4.84091H36.1481V1.80566Z" fill="white"/>
<path d="M39.8361 13.7836C39.6161 12.371 39.1311 11.1284 38.376 10.0558C37.5484 8.84067 36.4984 7.9506 35.2208 7.38805C33.9482 6.82301 32.5155 6.54048 30.9204 6.54299C28.2427 6.54299 26.0675 7.38055 24.3849 9.04319C22.7073 10.7108 21.8672 13.1085 21.8672 16.2338C21.8672 19.5665 22.7948 21.9742 24.6599 23.4518C26.5176 24.932 28.6627 25.6695 31.0979 25.6695C34.0457 25.6695 36.3384 24.792 37.976 23.0418C39.0236 21.9367 39.6161 20.8491 39.7461 19.7815H34.8657C34.5832 20.3091 34.2557 20.7216 33.8807 21.0217C33.2006 21.5717 32.3155 21.8467 31.2304 21.8467C30.1979 21.8467 29.3228 21.6192 28.5927 21.1667C27.3876 20.4416 26.7576 19.1715 26.6776 17.3639H39.9961C40.0161 15.8062 39.9661 14.6086 39.8361 13.7836ZM26.7976 14.2511C26.9726 13.0785 27.3976 12.1484 28.0727 11.4609C28.7477 10.7758 29.7028 10.4308 30.9254 10.4283C32.053 10.4283 32.9956 10.7508 33.7631 11.3984C34.5207 12.0509 34.9482 12.9985 35.0357 14.2511H26.7976Z" fill="white"/>
</svg>
