<svg width="40" height="40" viewBox="0 0 40 40" fill="none" xmlns="http://www.w3.org/2000/svg">
<g clip-path="url(#clip0_600_1162)">
<path d="M20 0C8.9725 0 0 8.9725 0 20C0 31.0275 8.9725 40 20 40C31.0275 40 40 31.0275 40 20C40 8.9725 31.0275 0 20 0ZM20 37.5C10.35 37.5 2.5 29.6475 2.5 20C2.5 10.35 10.35 2.5 20 2.5C29.6475 2.5 37.5 10.35 37.5 20C37.5 29.6475 29.6475 37.5 20 37.5Z" fill="white"/>
<path d="M19.9952 4.99902C18.9452 4.99902 17.9202 5.10902 16.9302 5.31402C18.7502 7.89402 20.4027 10.579 21.8577 13.3615C24.6102 12.079 27.2002 10.424 29.5652 8.44902C26.9677 6.29402 23.6327 4.99902 19.9952 4.99902Z" fill="white"/>
<path d="M31.3533 10.2148C28.7808 12.3823 25.9508 14.1798 22.9458 15.5848C23.6033 16.9548 24.2133 18.3423 24.7783 19.7523C28.0983 19.0698 31.5533 19.0073 34.9783 19.5748C34.8783 15.9998 33.5333 12.7398 31.3533 10.2148Z" fill="white"/>
<path d="M14.4201 6.08301C9.91758 7.88801 6.50258 11.808 5.39258 16.6205C10.2476 16.828 15.0526 16.018 19.5251 14.3105C18.0226 11.458 16.3201 8.70801 14.4201 6.08301Z" fill="white"/>
<path d="M20.6559 16.5732C16.3259 18.2607 11.7009 19.1807 6.99836 19.1807C6.35086 19.1807 5.70086 19.1407 5.05086 19.1057C5.03336 19.4032 5.00586 19.6982 5.00586 20.0007C5.00586 23.6832 6.33836 27.0532 8.54086 29.6632C12.1434 25.1907 16.9859 21.9857 22.3459 20.3757C21.8234 19.0907 21.2584 17.8257 20.6559 16.5732Z" fill="white"/>
<path d="M25.6958 22.1216C26.8883 25.4466 27.8233 28.8641 28.5083 32.3491C31.8883 30.0166 34.2483 26.3341 34.8408 22.0791C31.7758 21.5366 28.6783 21.5616 25.6958 22.1216Z" fill="white"/>
<path d="M23.243 22.7012C18.203 24.1737 13.6505 27.1987 10.313 31.4412C12.928 33.6587 16.3055 35.0012 20.003 35.0012C22.223 35.0012 24.3255 34.5062 26.2205 33.6387C25.533 29.9037 24.533 26.2487 23.243 22.7012Z" fill="white"/>
</g>
<defs>
<clipPath id="clip0_600_1162">
<rect width="40" height="40" fill="white"/>
</clipPath>
</defs>
</svg>
