<svg width="122" height="120" viewBox="0 0 122 120" fill="none" xmlns="http://www.w3.org/2000/svg">
<mask id="path-1-outside-1_62_6912" maskUnits="userSpaceOnUse" x="0" y="41" width="122" height="38" fill="black">
<rect fill="white" y="41" width="122" height="38"/>
<path d="M1.78094 70.0719V56.2383H18.4553V55.4291H1.78094V42.8089H19.5095V42H1V70.8808H19.6656V70.0719H1.78117H1.78094ZM34.7001 50.0898L27.7884 59.5146L21.0325 50.09H20.0172L27.3196 60.1215L19.3141 70.8806H20.2513L27.7879 60.7277L35.3636 70.8806H36.3398L28.2955 60.121L35.6369 50.0895H34.6998L34.7001 50.0898ZM38.683 78V65.0564H38.7611C39.2298 66.944 40.154 68.4609 41.5338 69.607C42.9135 70.7529 44.6706 71.3261 46.8053 71.3261C48.1851 71.3261 49.4088 71.0362 50.4761 70.4565C51.5434 69.8767 52.435 69.0879 53.151 68.0901C53.8668 67.0923 54.4136 65.9328 54.7912 64.6114C55.1685 63.2902 55.3574 61.9013 55.3574 60.4454C55.3574 58.8812 55.162 57.4384 54.7715 56.1172C54.381 54.7957 53.8148 53.6496 53.073 52.679C52.3309 51.7081 51.4328 50.9528 50.3784 50.4139C49.3241 49.8744 48.133 49.6047 46.8053 49.6047C45.79 49.6047 44.8464 49.7598 43.9743 50.0699C43.1022 50.3801 42.3278 50.8181 41.6509 51.3845C40.9701 51.9552 40.3775 52.6304 39.8936 53.3867C39.3991 54.1553 39.0215 54.998 38.7611 55.9149H38.683V50.0898H37.9021V78H38.683ZM46.8053 70.5572C44.3584 70.5572 42.3927 69.6876 40.9089 67.9484C39.4251 66.2091 38.683 63.7078 38.683 60.4449C38.683 59.0965 38.8654 57.8156 39.2298 56.6022C39.5943 55.3888 40.1214 54.3235 40.8112 53.4068C41.5012 52.4899 42.3538 51.7618 43.3689 51.2226C44.3842 50.6831 45.5298 50.4134 46.8053 50.4134C48.107 50.4134 49.2461 50.6831 50.2223 51.2226C51.1984 51.7618 52.0056 52.4967 52.6434 53.427C53.2811 54.3573 53.7627 55.4226 54.0883 56.6224C54.4136 57.8224 54.5763 59.0965 54.5763 60.4449C54.5763 61.6585 54.4267 62.8654 54.1272 64.0652C53.8279 65.2652 53.3657 66.3439 52.7409 67.3014C52.1163 68.2584 51.3159 69.0404 50.3395 69.6473C49.363 70.254 48.1851 70.5572 46.8053 70.5572ZM59.6528 70.8808V59.1101C59.6528 57.9776 59.8089 56.8717 60.1216 55.7933C60.4338 54.7147 60.9154 53.7639 61.5662 52.9417C62.2171 52.1191 63.0435 51.4719 64.0459 50.9999C65.0481 50.528 66.2392 50.3325 67.619 50.4134V49.6045C66.4213 49.5778 65.3737 49.7123 64.4756 50.0089C63.5772 50.3056 62.8028 50.7101 62.152 51.2226C61.5011 51.7348 60.9806 52.3347 60.5901 53.0225C60.1999 53.7092 59.9103 54.4521 59.7309 55.2269H59.6528V50.0898H58.8719V70.8811H59.6528V70.8808ZM68.5952 60.6471H85.3865C85.4388 59.2179 85.3021 57.8428 84.9766 56.5214C84.6513 55.2 84.1305 54.0269 83.4147 53.0024C82.6987 51.9776 81.7745 51.1551 80.642 50.5348C79.5095 49.9145 78.1623 49.6045 76.6005 49.6045C75.4809 49.6045 74.3875 49.8472 73.3202 50.3328C72.2528 50.8181 71.3156 51.5258 70.5086 52.4561C69.7016 53.3864 69.0508 54.5258 68.5563 55.8744C68.0617 57.2225 67.8142 58.7595 67.8142 60.4854C67.8142 62.0224 67.9834 63.4585 68.3219 64.7932C68.6603 66.128 69.1809 67.2878 69.8838 68.272C70.5869 69.2562 71.4916 70.018 72.5978 70.5572C73.7041 71.0967 75.0384 71.3528 76.6005 71.3259C78.8913 71.3259 80.8178 70.6582 82.3797 69.3237C83.9418 67.9887 84.8659 66.1079 85.1523 63.6808H84.3714C84.033 65.9731 83.1672 67.6922 81.7745 68.8381C80.3816 69.9843 78.6311 70.5572 76.5222 70.5572C75.0904 70.5572 73.8799 70.3011 72.8905 69.7888C71.9015 69.2766 71.0943 68.5752 70.4695 67.6854C69.8448 66.7954 69.3827 65.7505 69.0834 64.5505C68.7838 63.3507 68.6212 62.0494 68.5952 60.6471ZM84.6055 59.8382H68.5954C68.6732 58.382 68.9336 57.0742 69.3761 55.9147C69.8188 54.755 70.398 53.7639 71.114 52.9417C71.8298 52.1191 72.663 51.4923 73.6131 51.0606C74.5633 50.6292 75.5852 50.4134 76.6785 50.4134C77.9802 50.4134 79.1254 50.663 80.1149 51.1619C81.104 51.6608 81.9306 52.3418 82.5946 53.2046C83.2584 54.0674 83.7595 55.072 84.0979 56.2179C84.4363 57.3641 84.6055 58.5709 84.6055 59.8382ZM101.592 56.2383H102.373C102.373 53.9191 101.722 52.2337 100.421 51.182C99.119 50.1303 97.3488 49.6045 95.11 49.6045C93.8603 49.6045 92.8061 49.7664 91.9469 50.09C91.0879 50.4134 90.385 50.8315 89.8382 51.3437C89.2916 51.856 88.9012 52.4224 88.6668 53.0427C88.4324 53.6629 88.3152 54.2563 88.3152 54.8224C88.3152 55.955 88.5105 56.8584 88.9012 57.5325C89.2916 58.2067 89.9034 58.7326 90.7363 59.1101C91.3091 59.3796 91.9598 59.6224 92.6889 59.8384C93.4178 60.054 94.2639 60.2832 95.2272 60.5257C96.0862 60.7418 96.9323 60.9574 97.7655 61.173C98.5984 61.3888 99.3339 61.6787 99.9716 62.0426C100.61 62.4068 101.13 62.8719 101.534 63.4383C101.937 64.0045 102.139 64.7461 102.139 65.6629C102.139 66.5529 101.937 67.3079 101.534 67.928C101.134 68.545 100.607 69.063 99.9913 69.4451C99.3665 69.8359 98.6699 70.119 97.9021 70.2943C97.1341 70.4696 96.3857 70.5572 95.6568 70.5572C93.2877 70.5572 91.4718 70.0112 90.2092 68.9192C88.9466 67.827 88.3155 66.1079 88.3155 63.7617H87.5343C87.5343 66.3776 88.2177 68.2921 89.5844 69.5058C90.9513 70.7192 92.9753 71.3259 95.6568 71.3259C96.5158 71.3259 97.3813 71.2246 98.2537 71.0224C99.1256 70.8202 99.9067 70.49 100.596 70.0314C101.28 69.5793 101.855 68.9704 102.276 68.2518C102.705 67.5235 102.92 66.6337 102.92 65.582C102.92 64.5842 102.731 63.7753 102.354 63.155C101.976 62.5349 101.482 62.0224 100.87 61.618C100.258 61.2135 99.5683 60.8967 98.8002 60.6675C98.0279 60.437 97.2533 60.2144 96.4766 59.9999C95.5208 59.7401 94.5641 59.484 93.6065 59.2315C92.7867 59.0157 92.0252 58.7595 91.3223 58.4629C90.6454 58.1662 90.1052 57.7416 89.7016 57.1888C89.298 56.636 89.0964 55.8472 89.0964 54.8224C89.0964 54.6338 89.1484 54.2966 89.2525 53.8113C89.3566 53.3257 89.6041 52.8336 89.9945 52.3347C90.385 51.8361 90.9836 51.3911 91.7908 50.9999C92.5977 50.6091 93.7042 50.4134 95.11 50.4134C96.0733 50.4134 96.9517 50.5214 97.7458 50.737C98.5399 50.9528 99.2233 51.2966 99.7959 51.7686C100.369 52.2405 100.811 52.8404 101.124 53.5685C101.436 54.2968 101.592 55.1866 101.592 56.2383ZM119.672 56.2383H120.453C120.453 53.9191 119.803 52.2337 118.501 51.182C117.199 50.1303 115.429 49.6045 113.19 49.6045C111.94 49.6045 110.886 49.7664 110.027 50.09C109.168 50.4134 108.465 50.8315 107.918 51.3437C107.372 51.856 106.981 52.4224 106.747 53.0427C106.512 53.6629 106.395 54.2563 106.395 54.8224C106.395 55.955 106.591 56.8584 106.981 57.5325C107.372 58.2067 107.984 58.7326 108.816 59.1101C109.389 59.3796 110.04 59.6224 110.769 59.8384C111.498 60.054 112.344 60.2832 113.307 60.5257C114.166 60.7418 115.012 60.9574 115.845 61.173C116.679 61.3888 117.414 61.6787 118.052 62.0426C118.69 62.4068 119.21 62.8719 119.614 63.4383C120.017 64.0045 120.219 64.7461 120.219 65.6629C120.219 66.5529 120.017 67.3079 119.614 67.928C119.214 68.545 118.687 69.063 118.071 69.4451C117.446 69.8359 116.75 70.119 115.982 70.2943C115.214 70.4696 114.466 70.5572 113.737 70.5572C111.368 70.5572 109.552 70.0112 108.289 68.9192C107.027 67.827 106.395 66.1079 106.395 63.7617H105.614C105.614 66.3776 106.298 68.2921 107.665 69.5058C109.031 70.7192 111.055 71.3259 113.737 71.3259C114.596 71.3259 115.461 71.2246 116.334 71.0224C117.205 70.8202 117.987 70.49 118.677 70.0314C119.361 69.5793 119.935 68.9704 120.356 68.2518C120.785 67.5235 121 66.6337 121 65.582C121 64.5842 120.811 63.7753 120.434 63.155C120.056 62.5349 119.562 62.0224 118.95 61.618C118.338 61.2135 117.648 60.8967 116.88 60.6675C116.108 60.437 115.333 60.2144 114.557 59.9999C113.601 59.7401 112.644 59.484 111.687 59.2315C110.867 59.0157 110.105 58.7595 109.402 58.4629C108.725 58.1662 108.185 57.7416 107.782 57.1888C107.378 56.636 107.176 55.8472 107.176 54.8224C107.176 54.6338 107.228 54.2966 107.333 53.8113C107.437 53.3257 107.684 52.8336 108.074 52.3347C108.465 51.8361 109.064 51.3911 109.871 50.9999C110.678 50.6091 111.784 50.4134 113.19 50.4134C114.153 50.4134 115.032 50.5214 115.826 50.737C116.62 50.9528 117.303 51.2966 117.876 51.7686C118.449 52.2405 118.891 52.8404 119.204 53.5685C119.516 54.2968 119.673 55.1866 119.673 56.2383H119.672Z"/>
</mask>
<path d="M1.78094 70.0719V56.2383H18.4553V55.4291H1.78094V42.8089H19.5095V42H1V70.8808H19.6656V70.0719H1.78117H1.78094ZM34.7001 50.0898L27.7884 59.5146L21.0325 50.09H20.0172L27.3196 60.1215L19.3141 70.8806H20.2513L27.7879 60.7277L35.3636 70.8806H36.3398L28.2955 60.121L35.6369 50.0895H34.6998L34.7001 50.0898ZM38.683 78V65.0564H38.7611C39.2298 66.944 40.154 68.4609 41.5338 69.607C42.9135 70.7529 44.6706 71.3261 46.8053 71.3261C48.1851 71.3261 49.4088 71.0362 50.4761 70.4565C51.5434 69.8767 52.435 69.0879 53.151 68.0901C53.8668 67.0923 54.4136 65.9328 54.7912 64.6114C55.1685 63.2902 55.3574 61.9013 55.3574 60.4454C55.3574 58.8812 55.162 57.4384 54.7715 56.1172C54.381 54.7957 53.8148 53.6496 53.073 52.679C52.3309 51.7081 51.4328 50.9528 50.3784 50.4139C49.3241 49.8744 48.133 49.6047 46.8053 49.6047C45.79 49.6047 44.8464 49.7598 43.9743 50.0699C43.1022 50.3801 42.3278 50.8181 41.6509 51.3845C40.9701 51.9552 40.3775 52.6304 39.8936 53.3867C39.3991 54.1553 39.0215 54.998 38.7611 55.9149H38.683V50.0898H37.9021V78H38.683ZM46.8053 70.5572C44.3584 70.5572 42.3927 69.6876 40.9089 67.9484C39.4251 66.2091 38.683 63.7078 38.683 60.4449C38.683 59.0965 38.8654 57.8156 39.2298 56.6022C39.5943 55.3888 40.1214 54.3235 40.8112 53.4068C41.5012 52.4899 42.3538 51.7618 43.3689 51.2226C44.3842 50.6831 45.5298 50.4134 46.8053 50.4134C48.107 50.4134 49.2461 50.6831 50.2223 51.2226C51.1984 51.7618 52.0056 52.4967 52.6434 53.427C53.2811 54.3573 53.7627 55.4226 54.0883 56.6224C54.4136 57.8224 54.5763 59.0965 54.5763 60.4449C54.5763 61.6585 54.4267 62.8654 54.1272 64.0652C53.8279 65.2652 53.3657 66.3439 52.7409 67.3014C52.1163 68.2584 51.3159 69.0404 50.3395 69.6473C49.363 70.254 48.1851 70.5572 46.8053 70.5572ZM59.6528 70.8808V59.1101C59.6528 57.9776 59.8089 56.8717 60.1216 55.7933C60.4338 54.7147 60.9154 53.7639 61.5662 52.9417C62.2171 52.1191 63.0435 51.4719 64.0459 50.9999C65.0481 50.528 66.2392 50.3325 67.619 50.4134V49.6045C66.4213 49.5778 65.3737 49.7123 64.4756 50.0089C63.5772 50.3056 62.8028 50.7101 62.152 51.2226C61.5011 51.7348 60.9806 52.3347 60.5901 53.0225C60.1999 53.7092 59.9103 54.4521 59.7309 55.2269H59.6528V50.0898H58.8719V70.8811H59.6528V70.8808ZM68.5952 60.6471H85.3865C85.4388 59.2179 85.3021 57.8428 84.9766 56.5214C84.6513 55.2 84.1305 54.0269 83.4147 53.0024C82.6987 51.9776 81.7745 51.1551 80.642 50.5348C79.5095 49.9145 78.1623 49.6045 76.6005 49.6045C75.4809 49.6045 74.3875 49.8472 73.3202 50.3328C72.2528 50.8181 71.3156 51.5258 70.5086 52.4561C69.7016 53.3864 69.0508 54.5258 68.5563 55.8744C68.0617 57.2225 67.8142 58.7595 67.8142 60.4854C67.8142 62.0224 67.9834 63.4585 68.3219 64.7932C68.6603 66.128 69.1809 67.2878 69.8838 68.272C70.5869 69.2562 71.4916 70.018 72.5978 70.5572C73.7041 71.0967 75.0384 71.3528 76.6005 71.3259C78.8913 71.3259 80.8178 70.6582 82.3797 69.3237C83.9418 67.9887 84.8659 66.1079 85.1523 63.6808H84.3714C84.033 65.9731 83.1672 67.6922 81.7745 68.8381C80.3816 69.9843 78.6311 70.5572 76.5222 70.5572C75.0904 70.5572 73.8799 70.3011 72.8905 69.7888C71.9015 69.2766 71.0943 68.5752 70.4695 67.6854C69.8448 66.7954 69.3827 65.7505 69.0834 64.5505C68.7838 63.3507 68.6212 62.0494 68.5952 60.6471ZM84.6055 59.8382H68.5954C68.6732 58.382 68.9336 57.0742 69.3761 55.9147C69.8188 54.755 70.398 53.7639 71.114 52.9417C71.8298 52.1191 72.663 51.4923 73.6131 51.0606C74.5633 50.6292 75.5852 50.4134 76.6785 50.4134C77.9802 50.4134 79.1254 50.663 80.1149 51.1619C81.104 51.6608 81.9306 52.3418 82.5946 53.2046C83.2584 54.0674 83.7595 55.072 84.0979 56.2179C84.4363 57.3641 84.6055 58.5709 84.6055 59.8382ZM101.592 56.2383H102.373C102.373 53.9191 101.722 52.2337 100.421 51.182C99.119 50.1303 97.3488 49.6045 95.11 49.6045C93.8603 49.6045 92.8061 49.7664 91.9469 50.09C91.0879 50.4134 90.385 50.8315 89.8382 51.3437C89.2916 51.856 88.9012 52.4224 88.6668 53.0427C88.4324 53.6629 88.3152 54.2563 88.3152 54.8224C88.3152 55.955 88.5105 56.8584 88.9012 57.5325C89.2916 58.2067 89.9034 58.7326 90.7363 59.1101C91.3091 59.3796 91.9598 59.6224 92.6889 59.8384C93.4178 60.054 94.2639 60.2832 95.2272 60.5257C96.0862 60.7418 96.9323 60.9574 97.7655 61.173C98.5984 61.3888 99.3339 61.6787 99.9716 62.0426C100.61 62.4068 101.13 62.8719 101.534 63.4383C101.937 64.0045 102.139 64.7461 102.139 65.6629C102.139 66.5529 101.937 67.3079 101.534 67.928C101.134 68.545 100.607 69.063 99.9913 69.4451C99.3665 69.8359 98.6699 70.119 97.9021 70.2943C97.1341 70.4696 96.3857 70.5572 95.6568 70.5572C93.2877 70.5572 91.4718 70.0112 90.2092 68.9192C88.9466 67.827 88.3155 66.1079 88.3155 63.7617H87.5343C87.5343 66.3776 88.2177 68.2921 89.5844 69.5058C90.9513 70.7192 92.9753 71.3259 95.6568 71.3259C96.5158 71.3259 97.3813 71.2246 98.2537 71.0224C99.1256 70.8202 99.9067 70.49 100.596 70.0314C101.28 69.5793 101.855 68.9704 102.276 68.2518C102.705 67.5235 102.92 66.6337 102.92 65.582C102.92 64.5842 102.731 63.7753 102.354 63.155C101.976 62.5349 101.482 62.0224 100.87 61.618C100.258 61.2135 99.5683 60.8967 98.8002 60.6675C98.0279 60.437 97.2533 60.2144 96.4766 59.9999C95.5208 59.7401 94.5641 59.484 93.6065 59.2315C92.7867 59.0157 92.0252 58.7595 91.3223 58.4629C90.6454 58.1662 90.1052 57.7416 89.7016 57.1888C89.298 56.636 89.0964 55.8472 89.0964 54.8224C89.0964 54.6338 89.1484 54.2966 89.2525 53.8113C89.3566 53.3257 89.6041 52.8336 89.9945 52.3347C90.385 51.8361 90.9836 51.3911 91.7908 50.9999C92.5977 50.6091 93.7042 50.4134 95.11 50.4134C96.0733 50.4134 96.9517 50.5214 97.7458 50.737C98.5399 50.9528 99.2233 51.2966 99.7959 51.7686C100.369 52.2405 100.811 52.8404 101.124 53.5685C101.436 54.2968 101.592 55.1866 101.592 56.2383ZM119.672 56.2383H120.453C120.453 53.9191 119.803 52.2337 118.501 51.182C117.199 50.1303 115.429 49.6045 113.19 49.6045C111.94 49.6045 110.886 49.7664 110.027 50.09C109.168 50.4134 108.465 50.8315 107.918 51.3437C107.372 51.856 106.981 52.4224 106.747 53.0427C106.512 53.6629 106.395 54.2563 106.395 54.8224C106.395 55.955 106.591 56.8584 106.981 57.5325C107.372 58.2067 107.984 58.7326 108.816 59.1101C109.389 59.3796 110.04 59.6224 110.769 59.8384C111.498 60.054 112.344 60.2832 113.307 60.5257C114.166 60.7418 115.012 60.9574 115.845 61.173C116.679 61.3888 117.414 61.6787 118.052 62.0426C118.69 62.4068 119.21 62.8719 119.614 63.4383C120.017 64.0045 120.219 64.7461 120.219 65.6629C120.219 66.5529 120.017 67.3079 119.614 67.928C119.214 68.545 118.687 69.063 118.071 69.4451C117.446 69.8359 116.75 70.119 115.982 70.2943C115.214 70.4696 114.466 70.5572 113.737 70.5572C111.368 70.5572 109.552 70.0112 108.289 68.9192C107.027 67.827 106.395 66.1079 106.395 63.7617H105.614C105.614 66.3776 106.298 68.2921 107.665 69.5058C109.031 70.7192 111.055 71.3259 113.737 71.3259C114.596 71.3259 115.461 71.2246 116.334 71.0224C117.205 70.8202 117.987 70.49 118.677 70.0314C119.361 69.5793 119.935 68.9704 120.356 68.2518C120.785 67.5235 121 66.6337 121 65.582C121 64.5842 120.811 63.7753 120.434 63.155C120.056 62.5349 119.562 62.0224 118.95 61.618C118.338 61.2135 117.648 60.8967 116.88 60.6675C116.108 60.437 115.333 60.2144 114.557 59.9999C113.601 59.7401 112.644 59.484 111.687 59.2315C110.867 59.0157 110.105 58.7595 109.402 58.4629C108.725 58.1662 108.185 57.7416 107.782 57.1888C107.378 56.636 107.176 55.8472 107.176 54.8224C107.176 54.6338 107.228 54.2966 107.333 53.8113C107.437 53.3257 107.684 52.8336 108.074 52.3347C108.465 51.8361 109.064 51.3911 109.871 50.9999C110.678 50.6091 111.784 50.4134 113.19 50.4134C114.153 50.4134 115.032 50.5214 115.826 50.737C116.62 50.9528 117.303 51.2966 117.876 51.7686C118.449 52.2405 118.891 52.8404 119.204 53.5685C119.516 54.2968 119.673 55.1866 119.673 56.2383H119.672Z" fill="#050038"/>
<path d="M1.78094 70.0719V56.2383H18.4553V55.4291H1.78094V42.8089H19.5095V42H1V70.8808H19.6656V70.0719H1.78117H1.78094ZM34.7001 50.0898L27.7884 59.5146L21.0325 50.09H20.0172L27.3196 60.1215L19.3141 70.8806H20.2513L27.7879 60.7277L35.3636 70.8806H36.3398L28.2955 60.121L35.6369 50.0895H34.6998L34.7001 50.0898ZM38.683 78V65.0564H38.7611C39.2298 66.944 40.154 68.4609 41.5338 69.607C42.9135 70.7529 44.6706 71.3261 46.8053 71.3261C48.1851 71.3261 49.4088 71.0362 50.4761 70.4565C51.5434 69.8767 52.435 69.0879 53.151 68.0901C53.8668 67.0923 54.4136 65.9328 54.7912 64.6114C55.1685 63.2902 55.3574 61.9013 55.3574 60.4454C55.3574 58.8812 55.162 57.4384 54.7715 56.1172C54.381 54.7957 53.8148 53.6496 53.073 52.679C52.3309 51.7081 51.4328 50.9528 50.3784 50.4139C49.3241 49.8744 48.133 49.6047 46.8053 49.6047C45.79 49.6047 44.8464 49.7598 43.9743 50.0699C43.1022 50.3801 42.3278 50.8181 41.6509 51.3845C40.9701 51.9552 40.3775 52.6304 39.8936 53.3867C39.3991 54.1553 39.0215 54.998 38.7611 55.9149H38.683V50.0898H37.9021V78H38.683ZM46.8053 70.5572C44.3584 70.5572 42.3927 69.6876 40.9089 67.9484C39.4251 66.2091 38.683 63.7078 38.683 60.4449C38.683 59.0965 38.8654 57.8156 39.2298 56.6022C39.5943 55.3888 40.1214 54.3235 40.8112 53.4068C41.5012 52.4899 42.3538 51.7618 43.3689 51.2226C44.3842 50.6831 45.5298 50.4134 46.8053 50.4134C48.107 50.4134 49.2461 50.6831 50.2223 51.2226C51.1984 51.7618 52.0056 52.4967 52.6434 53.427C53.2811 54.3573 53.7627 55.4226 54.0883 56.6224C54.4136 57.8224 54.5763 59.0965 54.5763 60.4449C54.5763 61.6585 54.4267 62.8654 54.1272 64.0652C53.8279 65.2652 53.3657 66.3439 52.7409 67.3014C52.1163 68.2584 51.3159 69.0404 50.3395 69.6473C49.363 70.254 48.1851 70.5572 46.8053 70.5572ZM59.6528 70.8808V59.1101C59.6528 57.9776 59.8089 56.8717 60.1216 55.7933C60.4338 54.7147 60.9154 53.7639 61.5662 52.9417C62.2171 52.1191 63.0435 51.4719 64.0459 50.9999C65.0481 50.528 66.2392 50.3325 67.619 50.4134V49.6045C66.4213 49.5778 65.3737 49.7123 64.4756 50.0089C63.5772 50.3056 62.8028 50.7101 62.152 51.2226C61.5011 51.7348 60.9806 52.3347 60.5901 53.0225C60.1999 53.7092 59.9103 54.4521 59.7309 55.2269H59.6528V50.0898H58.8719V70.8811H59.6528V70.8808ZM68.5952 60.6471H85.3865C85.4388 59.2179 85.3021 57.8428 84.9766 56.5214C84.6513 55.2 84.1305 54.0269 83.4147 53.0024C82.6987 51.9776 81.7745 51.1551 80.642 50.5348C79.5095 49.9145 78.1623 49.6045 76.6005 49.6045C75.4809 49.6045 74.3875 49.8472 73.3202 50.3328C72.2528 50.8181 71.3156 51.5258 70.5086 52.4561C69.7016 53.3864 69.0508 54.5258 68.5563 55.8744C68.0617 57.2225 67.8142 58.7595 67.8142 60.4854C67.8142 62.0224 67.9834 63.4585 68.3219 64.7932C68.6603 66.128 69.1809 67.2878 69.8838 68.272C70.5869 69.2562 71.4916 70.018 72.5978 70.5572C73.7041 71.0967 75.0384 71.3528 76.6005 71.3259C78.8913 71.3259 80.8178 70.6582 82.3797 69.3237C83.9418 67.9887 84.8659 66.1079 85.1523 63.6808H84.3714C84.033 65.9731 83.1672 67.6922 81.7745 68.8381C80.3816 69.9843 78.6311 70.5572 76.5222 70.5572C75.0904 70.5572 73.8799 70.3011 72.8905 69.7888C71.9015 69.2766 71.0943 68.5752 70.4695 67.6854C69.8448 66.7954 69.3827 65.7505 69.0834 64.5505C68.7838 63.3507 68.6212 62.0494 68.5952 60.6471ZM84.6055 59.8382H68.5954C68.6732 58.382 68.9336 57.0742 69.3761 55.9147C69.8188 54.755 70.398 53.7639 71.114 52.9417C71.8298 52.1191 72.663 51.4923 73.6131 51.0606C74.5633 50.6292 75.5852 50.4134 76.6785 50.4134C77.9802 50.4134 79.1254 50.663 80.1149 51.1619C81.104 51.6608 81.9306 52.3418 82.5946 53.2046C83.2584 54.0674 83.7595 55.072 84.0979 56.2179C84.4363 57.3641 84.6055 58.5709 84.6055 59.8382ZM101.592 56.2383H102.373C102.373 53.9191 101.722 52.2337 100.421 51.182C99.119 50.1303 97.3488 49.6045 95.11 49.6045C93.8603 49.6045 92.8061 49.7664 91.9469 50.09C91.0879 50.4134 90.385 50.8315 89.8382 51.3437C89.2916 51.856 88.9012 52.4224 88.6668 53.0427C88.4324 53.6629 88.3152 54.2563 88.3152 54.8224C88.3152 55.955 88.5105 56.8584 88.9012 57.5325C89.2916 58.2067 89.9034 58.7326 90.7363 59.1101C91.3091 59.3796 91.9598 59.6224 92.6889 59.8384C93.4178 60.054 94.2639 60.2832 95.2272 60.5257C96.0862 60.7418 96.9323 60.9574 97.7655 61.173C98.5984 61.3888 99.3339 61.6787 99.9716 62.0426C100.61 62.4068 101.13 62.8719 101.534 63.4383C101.937 64.0045 102.139 64.7461 102.139 65.6629C102.139 66.5529 101.937 67.3079 101.534 67.928C101.134 68.545 100.607 69.063 99.9913 69.4451C99.3665 69.8359 98.6699 70.119 97.9021 70.2943C97.1341 70.4696 96.3857 70.5572 95.6568 70.5572C93.2877 70.5572 91.4718 70.0112 90.2092 68.9192C88.9466 67.827 88.3155 66.1079 88.3155 63.7617H87.5343C87.5343 66.3776 88.2177 68.2921 89.5844 69.5058C90.9513 70.7192 92.9753 71.3259 95.6568 71.3259C96.5158 71.3259 97.3813 71.2246 98.2537 71.0224C99.1256 70.8202 99.9067 70.49 100.596 70.0314C101.28 69.5793 101.855 68.9704 102.276 68.2518C102.705 67.5235 102.92 66.6337 102.92 65.582C102.92 64.5842 102.731 63.7753 102.354 63.155C101.976 62.5349 101.482 62.0224 100.87 61.618C100.258 61.2135 99.5683 60.8967 98.8002 60.6675C98.0279 60.437 97.2533 60.2144 96.4766 59.9999C95.5208 59.7401 94.5641 59.484 93.6065 59.2315C92.7867 59.0157 92.0252 58.7595 91.3223 58.4629C90.6454 58.1662 90.1052 57.7416 89.7016 57.1888C89.298 56.636 89.0964 55.8472 89.0964 54.8224C89.0964 54.6338 89.1484 54.2966 89.2525 53.8113C89.3566 53.3257 89.6041 52.8336 89.9945 52.3347C90.385 51.8361 90.9836 51.3911 91.7908 50.9999C92.5977 50.6091 93.7042 50.4134 95.11 50.4134C96.0733 50.4134 96.9517 50.5214 97.7458 50.737C98.5399 50.9528 99.2233 51.2966 99.7959 51.7686C100.369 52.2405 100.811 52.8404 101.124 53.5685C101.436 54.2968 101.592 55.1866 101.592 56.2383ZM119.672 56.2383H120.453C120.453 53.9191 119.803 52.2337 118.501 51.182C117.199 50.1303 115.429 49.6045 113.19 49.6045C111.94 49.6045 110.886 49.7664 110.027 50.09C109.168 50.4134 108.465 50.8315 107.918 51.3437C107.372 51.856 106.981 52.4224 106.747 53.0427C106.512 53.6629 106.395 54.2563 106.395 54.8224C106.395 55.955 106.591 56.8584 106.981 57.5325C107.372 58.2067 107.984 58.7326 108.816 59.1101C109.389 59.3796 110.04 59.6224 110.769 59.8384C111.498 60.054 112.344 60.2832 113.307 60.5257C114.166 60.7418 115.012 60.9574 115.845 61.173C116.679 61.3888 117.414 61.6787 118.052 62.0426C118.69 62.4068 119.21 62.8719 119.614 63.4383C120.017 64.0045 120.219 64.7461 120.219 65.6629C120.219 66.5529 120.017 67.3079 119.614 67.928C119.214 68.545 118.687 69.063 118.071 69.4451C117.446 69.8359 116.75 70.119 115.982 70.2943C115.214 70.4696 114.466 70.5572 113.737 70.5572C111.368 70.5572 109.552 70.0112 108.289 68.9192C107.027 67.827 106.395 66.1079 106.395 63.7617H105.614C105.614 66.3776 106.298 68.2921 107.665 69.5058C109.031 70.7192 111.055 71.3259 113.737 71.3259C114.596 71.3259 115.461 71.2246 116.334 71.0224C117.205 70.8202 117.987 70.49 118.677 70.0314C119.361 69.5793 119.935 68.9704 120.356 68.2518C120.785 67.5235 121 66.6337 121 65.582C121 64.5842 120.811 63.7753 120.434 63.155C120.056 62.5349 119.562 62.0224 118.95 61.618C118.338 61.2135 117.648 60.8967 116.88 60.6675C116.108 60.437 115.333 60.2144 114.557 59.9999C113.601 59.7401 112.644 59.484 111.687 59.2315C110.867 59.0157 110.105 58.7595 109.402 58.4629C108.725 58.1662 108.185 57.7416 107.782 57.1888C107.378 56.636 107.176 55.8472 107.176 54.8224C107.176 54.6338 107.228 54.2966 107.333 53.8113C107.437 53.3257 107.684 52.8336 108.074 52.3347C108.465 51.8361 109.064 51.3911 109.871 50.9999C110.678 50.6091 111.784 50.4134 113.19 50.4134C114.153 50.4134 115.032 50.5214 115.826 50.737C116.62 50.9528 117.303 51.2966 117.876 51.7686C118.449 52.2405 118.891 52.8404 119.204 53.5685C119.516 54.2968 119.673 55.1866 119.673 56.2383H119.672Z" stroke="#050038" stroke-width="0.4" mask="url(#path-1-outside-1_62_6912)"/>
</svg>
