<svg width="120" height="120" viewBox="0 0 120 120" fill="none" xmlns="http://www.w3.org/2000/svg">
<path d="M41.561 115C51.2546 115 59.1219 107.052 59.1219 97.2585V79.5166H41.561C31.8673 79.5166 24 87.465 24 97.2585C24 107.052 31.8673 115 41.561 115Z" fill="white"/>
<path d="M24 59.9997C24 50.2062 31.8673 42.2578 41.561 42.2578H59.1219V77.7417H41.561C31.8673 77.7417 24 69.7933 24 59.9997Z" fill="white"/>
<path d="M24 22.7419C24 12.9484 31.8673 5 41.561 5H59.1219V40.4839H41.561C31.8673 40.4839 24 32.5355 24 22.7419Z" fill="white"/>
<path d="M60.8779 5H78.4389C88.1326 5 95.9999 12.9484 95.9999 22.7419C95.9999 32.5355 88.1326 40.4839 78.4389 40.4839H60.8779V5Z" fill="white"/>
<path d="M95.9999 59.9997C95.9999 69.7933 88.1326 77.7417 78.4389 77.7417C68.7452 77.7417 60.8779 69.7933 60.8779 59.9997C60.8779 50.2062 68.7452 42.2578 78.4389 42.2578C88.1326 42.2578 95.9999 50.2062 95.9999 59.9997Z" fill="white"/>
</svg>
