<svg width="104" height="120" viewBox="0 0 104 120" fill="none" xmlns="http://www.w3.org/2000/svg">
<path d="M11.3782 108.347C9.77261 107.891 8.61906 106.486 8.4844 104.822L0.350613 4.33173C0.161855 1.99967 2.00621 0.0041707 4.34589 0.00903467L99.6514 0.207165C101.992 0.212031 103.828 2.21681 103.628 4.54894L95.0258 104.861C94.8847 106.505 93.7481 107.894 92.1641 108.358L53.4997 119.676C52.7763 119.888 52.0078 119.891 51.2828 119.685L11.3782 108.347Z" fill="white"/>
<path d="M82.5314 35.0695C83.0481 35.0695 83.4797 34.6759 83.5272 34.1614L84.5553 23.028C84.6094 22.4419 84.1481 21.936 83.5595 21.936H19.8674C19.2796 21.936 18.8186 22.4406 18.8715 23.0261L22.3307 61.2912C22.3773 61.8065 22.8092 62.2011 23.3266 62.2011H66.7727C67.3658 62.2011 67.8286 62.7144 67.7674 63.3044L66.1696 78.6932C66.1269 79.1039 65.8362 79.4462 65.4378 79.5547L51.8099 83.2683C51.6316 83.3169 51.4432 83.3151 51.2658 83.2631L37.4247 79.2077C37.0256 79.0908 36.7406 78.7391 36.7088 78.3245L36.0473 69.6906C36.0074 69.1695 35.5729 68.767 35.0502 68.767H24.0017C23.4159 68.767 22.9556 69.2683 23.0054 69.852L24.6388 89.0037C24.6742 89.4185 24.9628 89.768 25.3635 89.8811L51.2657 97.1933C51.4427 97.2432 51.63 97.2434 51.8071 97.1938L77.9238 89.8794C78.3241 89.7673 78.6133 89.4193 78.6502 89.0052L82.1318 49.9403C82.184 49.3553 81.7231 48.8515 81.1358 48.8515H35.3834C34.869 48.8515 34.4386 48.4613 34.3882 47.9494L33.2288 36.1674C33.1709 35.5792 33.633 35.0695 34.224 35.0695H82.5314Z" fill="#3F53D9"/>
</svg>
