<svg width="182" height="68" viewBox="0 0 182 68" fill="none" xmlns="http://www.w3.org/2000/svg">
<mask id="path-1-outside-1_62_6600" maskUnits="userSpaceOnUse" x="0" y="14.1025" width="182" height="54" fill="black">
<rect fill="white" y="14.1025" width="182" height="54"/>
<path d="M1 55.7179V34.2417L7.14327 28.641V55.7179H1Z"/>
<path d="M32.4074 55.7179V40.0923C32.4074 38.2872 31.8304 36.8017 30.6762 35.6359C29.5592 34.4701 28.1072 33.8872 26.32 33.8872C25.1286 33.8872 24.0675 34.1504 23.1367 34.6769C22.2059 35.2034 21.4799 35.9367 20.9586 36.8769C20.4374 37.8171 20.1768 38.8889 20.1768 40.0923L17.7753 38.7384C17.7753 36.6701 18.2221 34.8461 19.1157 33.2666C20.0092 31.6495 21.2379 30.3897 22.8016 29.4872C24.4026 28.547 26.1897 28.0769 28.163 28.0769C30.1735 28.0769 31.9607 28.6034 33.5244 29.6564C35.0881 30.6718 36.3168 32.0068 37.2104 33.6615C38.1039 35.2786 38.5507 36.9709 38.5507 38.7384V55.7179H32.4074ZM14.0335 55.7179V28.641H20.1768V55.7179H14.0335Z"/>
<path d="M53.5616 56.282C52.0723 56.282 50.6389 56.094 49.2613 55.7179C47.8837 55.3042 46.6178 54.7402 45.4636 54.0256C44.3094 53.2735 43.3042 52.3709 42.4478 51.3179L46.3572 47.3692C47.288 48.4598 48.3491 49.2872 49.5405 49.8513C50.7692 50.3778 52.1468 50.641 53.6733 50.641C55.0508 50.641 56.0933 50.4342 56.8008 50.0205C57.5082 49.6068 57.8619 49.0051 57.8619 48.2154C57.8619 47.388 57.5268 46.7487 56.8566 46.2974C56.1864 45.8461 55.3115 45.4701 54.2317 45.1692C53.1893 44.8307 52.0723 44.4923 50.8809 44.1538C49.7267 43.8154 48.6097 43.3641 47.53 42.8C46.4875 42.1983 45.6312 41.3897 44.961 40.3743C44.2908 39.3589 43.9557 38.0427 43.9557 36.4256C43.9557 34.6957 44.3467 33.2102 45.1285 31.9692C45.9476 30.7282 47.0832 29.7692 48.5353 29.0923C50.0245 28.4154 51.7931 28.0769 53.8408 28.0769C56.0003 28.0769 57.8991 28.4718 59.5373 29.2615C61.2127 30.0136 62.6089 31.1607 63.7259 32.7025L59.8165 36.6513C59.0347 35.6735 58.1411 34.9401 57.1358 34.4513C56.1306 33.9624 54.9764 33.7179 53.6733 33.7179C52.4446 33.7179 51.4952 33.906 50.825 34.282C50.1549 34.6581 49.8198 35.2034 49.8198 35.9179C49.8198 36.6701 50.1549 37.253 50.825 37.6666C51.4952 38.0803 52.3515 38.4376 53.394 38.7384C54.4738 39.0393 55.5907 39.3778 56.7449 39.7538C57.9363 40.0923 59.0533 40.5812 60.0958 41.2205C61.1755 41.8222 62.0505 42.6495 62.7206 43.7025C63.3908 44.7179 63.7259 46.053 63.7259 47.7077C63.7259 50.3401 62.8137 52.4273 60.9893 53.9692C59.165 55.5111 56.6891 56.282 53.5616 56.282Z"/>
<path d="M68.6557 55.7784V28.7014L74.799 34.2417V55.7784H68.6557Z"/>
<path d="M92.1081 56.282C89.688 56.282 87.4913 55.6615 85.518 54.4205C83.582 53.1795 82.0368 51.506 80.8827 49.4C79.7657 47.2564 79.2072 44.8684 79.2072 42.2359C79.2072 39.5658 79.7657 37.1778 80.8827 35.0718C82.0368 32.9282 83.582 31.2359 85.518 29.9948C87.4913 28.7162 89.688 28.0769 92.1081 28.0769C94.1558 28.0769 95.9616 28.5282 97.5253 29.4307C99.1263 30.2957 100.392 31.4991 101.323 33.041C102.254 34.5829 102.719 36.3316 102.719 38.2872V46.0718C102.719 48.0273 102.254 49.776 101.323 51.3179C100.429 52.8598 99.1821 54.082 97.5812 54.9846C95.9802 55.8496 94.1558 56.282 92.1081 56.282ZM93.1133 50.4154C94.6398 50.4154 95.9616 50.0769 97.0785 49.4C98.2327 48.6854 99.1263 47.7077 99.7592 46.4666C100.392 45.2256 100.709 43.7966 100.709 42.1795C100.709 40.5624 100.392 39.1333 99.7592 37.8923C99.1263 36.6513 98.2327 35.6923 97.0785 35.0154C95.9616 34.3008 94.6398 33.9436 93.1133 33.9436C91.6241 33.9436 90.3023 34.3008 89.1481 35.0154C88.0312 35.6923 87.1376 36.6513 86.4674 37.8923C85.8345 39.1333 85.518 40.5624 85.518 42.1795C85.518 43.7966 85.8345 45.2256 86.4674 46.4666C87.1376 47.7077 88.0312 48.6854 89.1481 49.4C90.3023 50.0769 91.6241 50.4154 93.1133 50.4154ZM106.461 55.7179H100.318V48.441L101.379 41.841L100.318 35.2974V15.1025H106.461V55.7179Z"/>
<path d="M125.733 56.282C123.052 56.282 120.632 55.6803 118.473 54.4769C116.35 53.2359 114.656 51.5436 113.39 49.4C112.162 47.2564 111.548 44.8495 111.548 42.1795C111.548 39.5094 112.162 37.1213 113.39 35.0154C114.619 32.8718 116.276 31.1795 118.361 29.9384C120.483 28.6974 122.829 28.0769 125.398 28.0769C127.892 28.0769 130.089 28.6598 131.988 29.8256C133.924 30.9914 135.432 32.5897 136.512 34.6205C137.628 36.6513 138.187 38.9641 138.187 41.5589C138.187 42.0102 138.15 42.4803 138.075 42.9692C138.038 43.4205 137.964 43.9282 137.852 44.4923H115.848V39.4154H134.669L132.379 41.4461C132.304 39.7914 131.988 38.4 131.429 37.2718C130.871 36.1436 130.07 35.2786 129.028 34.6769C128.023 34.0752 126.775 33.7743 125.286 33.7743C123.722 33.7743 122.363 34.1128 121.209 34.7897C120.055 35.4666 119.161 36.4256 118.528 37.6666C117.896 38.8701 117.579 40.3179 117.579 42.0102C117.579 43.7025 117.914 45.188 118.584 46.4666C119.255 47.7453 120.204 48.7419 121.433 49.4564C122.661 50.1333 124.076 50.4718 125.677 50.4718C127.055 50.4718 128.32 50.2273 129.475 49.7384C130.666 49.2495 131.671 48.535 132.49 47.5948L136.4 51.6C135.097 53.1419 133.514 54.3077 131.653 55.0974C129.791 55.8872 127.818 56.282 125.733 56.282Z"/>
<path d="M143.112 55.7179V15.1025H149.255V55.7179H143.112Z"/>
<path d="M164.748 56L153.299 28.641H160.057L167.876 48.7231H165.921L174.187 28.641H181L168.546 56H164.748ZM156.762 67L165.083 49.682L168.546 56L163.575 67H156.762Z"/>
</mask>
<path d="M1 55.7179V34.2417L7.14327 28.641V55.7179H1Z" fill="#3F53D9"/>
<path d="M32.4074 55.7179V40.0923C32.4074 38.2872 31.8304 36.8017 30.6762 35.6359C29.5592 34.4701 28.1072 33.8872 26.32 33.8872C25.1286 33.8872 24.0675 34.1504 23.1367 34.6769C22.2059 35.2034 21.4799 35.9367 20.9586 36.8769C20.4374 37.8171 20.1768 38.8889 20.1768 40.0923L17.7753 38.7384C17.7753 36.6701 18.2221 34.8461 19.1157 33.2666C20.0092 31.6495 21.2379 30.3897 22.8016 29.4872C24.4026 28.547 26.1897 28.0769 28.163 28.0769C30.1735 28.0769 31.9607 28.6034 33.5244 29.6564C35.0881 30.6718 36.3168 32.0068 37.2104 33.6615C38.1039 35.2786 38.5507 36.9709 38.5507 38.7384V55.7179H32.4074ZM14.0335 55.7179V28.641H20.1768V55.7179H14.0335Z" fill="#3F53D9"/>
<path d="M53.5616 56.282C52.0723 56.282 50.6389 56.094 49.2613 55.7179C47.8837 55.3042 46.6178 54.7402 45.4636 54.0256C44.3094 53.2735 43.3042 52.3709 42.4478 51.3179L46.3572 47.3692C47.288 48.4598 48.3491 49.2872 49.5405 49.8513C50.7692 50.3778 52.1468 50.641 53.6733 50.641C55.0508 50.641 56.0933 50.4342 56.8008 50.0205C57.5082 49.6068 57.8619 49.0051 57.8619 48.2154C57.8619 47.388 57.5268 46.7487 56.8566 46.2974C56.1864 45.8461 55.3115 45.4701 54.2317 45.1692C53.1893 44.8307 52.0723 44.4923 50.8809 44.1538C49.7267 43.8154 48.6097 43.3641 47.53 42.8C46.4875 42.1983 45.6312 41.3897 44.961 40.3743C44.2908 39.3589 43.9557 38.0427 43.9557 36.4256C43.9557 34.6957 44.3467 33.2102 45.1285 31.9692C45.9476 30.7282 47.0832 29.7692 48.5353 29.0923C50.0245 28.4154 51.7931 28.0769 53.8408 28.0769C56.0003 28.0769 57.8991 28.4718 59.5373 29.2615C61.2127 30.0136 62.6089 31.1607 63.7259 32.7025L59.8165 36.6513C59.0347 35.6735 58.1411 34.9401 57.1358 34.4513C56.1306 33.9624 54.9764 33.7179 53.6733 33.7179C52.4446 33.7179 51.4952 33.906 50.825 34.282C50.1549 34.6581 49.8198 35.2034 49.8198 35.9179C49.8198 36.6701 50.1549 37.253 50.825 37.6666C51.4952 38.0803 52.3515 38.4376 53.394 38.7384C54.4738 39.0393 55.5907 39.3778 56.7449 39.7538C57.9363 40.0923 59.0533 40.5812 60.0958 41.2205C61.1755 41.8222 62.0505 42.6495 62.7206 43.7025C63.3908 44.7179 63.7259 46.053 63.7259 47.7077C63.7259 50.3401 62.8137 52.4273 60.9893 53.9692C59.165 55.5111 56.6891 56.282 53.5616 56.282Z" fill="#3F53D9"/>
<path d="M68.6557 55.7784V28.7014L74.799 34.2417V55.7784H68.6557Z" fill="#3F53D9"/>
<path d="M92.1081 56.282C89.688 56.282 87.4913 55.6615 85.518 54.4205C83.582 53.1795 82.0368 51.506 80.8827 49.4C79.7657 47.2564 79.2072 44.8684 79.2072 42.2359C79.2072 39.5658 79.7657 37.1778 80.8827 35.0718C82.0368 32.9282 83.582 31.2359 85.518 29.9948C87.4913 28.7162 89.688 28.0769 92.1081 28.0769C94.1558 28.0769 95.9616 28.5282 97.5253 29.4307C99.1263 30.2957 100.392 31.4991 101.323 33.041C102.254 34.5829 102.719 36.3316 102.719 38.2872V46.0718C102.719 48.0273 102.254 49.776 101.323 51.3179C100.429 52.8598 99.1821 54.082 97.5812 54.9846C95.9802 55.8496 94.1558 56.282 92.1081 56.282ZM93.1133 50.4154C94.6398 50.4154 95.9616 50.0769 97.0785 49.4C98.2327 48.6854 99.1263 47.7077 99.7592 46.4666C100.392 45.2256 100.709 43.7966 100.709 42.1795C100.709 40.5624 100.392 39.1333 99.7592 37.8923C99.1263 36.6513 98.2327 35.6923 97.0785 35.0154C95.9616 34.3008 94.6398 33.9436 93.1133 33.9436C91.6241 33.9436 90.3023 34.3008 89.1481 35.0154C88.0312 35.6923 87.1376 36.6513 86.4674 37.8923C85.8345 39.1333 85.518 40.5624 85.518 42.1795C85.518 43.7966 85.8345 45.2256 86.4674 46.4666C87.1376 47.7077 88.0312 48.6854 89.1481 49.4C90.3023 50.0769 91.6241 50.4154 93.1133 50.4154ZM106.461 55.7179H100.318V48.441L101.379 41.841L100.318 35.2974V15.1025H106.461V55.7179Z" fill="#3F53D9"/>
<path d="M125.733 56.282C123.052 56.282 120.632 55.6803 118.473 54.4769C116.35 53.2359 114.656 51.5436 113.39 49.4C112.162 47.2564 111.548 44.8495 111.548 42.1795C111.548 39.5094 112.162 37.1213 113.39 35.0154C114.619 32.8718 116.276 31.1795 118.361 29.9384C120.483 28.6974 122.829 28.0769 125.398 28.0769C127.892 28.0769 130.089 28.6598 131.988 29.8256C133.924 30.9914 135.432 32.5897 136.512 34.6205C137.628 36.6513 138.187 38.9641 138.187 41.5589C138.187 42.0102 138.15 42.4803 138.075 42.9692C138.038 43.4205 137.964 43.9282 137.852 44.4923H115.848V39.4154H134.669L132.379 41.4461C132.304 39.7914 131.988 38.4 131.429 37.2718C130.871 36.1436 130.07 35.2786 129.028 34.6769C128.023 34.0752 126.775 33.7743 125.286 33.7743C123.722 33.7743 122.363 34.1128 121.209 34.7897C120.055 35.4666 119.161 36.4256 118.528 37.6666C117.896 38.8701 117.579 40.3179 117.579 42.0102C117.579 43.7025 117.914 45.188 118.584 46.4666C119.255 47.7453 120.204 48.7419 121.433 49.4564C122.661 50.1333 124.076 50.4718 125.677 50.4718C127.055 50.4718 128.32 50.2273 129.475 49.7384C130.666 49.2495 131.671 48.535 132.49 47.5948L136.4 51.6C135.097 53.1419 133.514 54.3077 131.653 55.0974C129.791 55.8872 127.818 56.282 125.733 56.282Z" fill="#3F53D9"/>
<path d="M143.112 55.7179V15.1025H149.255V55.7179H143.112Z" fill="#3F53D9"/>
<path d="M164.748 56L153.299 28.641H160.057L167.876 48.7231H165.921L174.187 28.641H181L168.546 56H164.748ZM156.762 67L165.083 49.682L168.546 56L163.575 67H156.762Z" fill="#3F53D9"/>
<path d="M1 55.7179H0.5V56.2179H1V55.7179ZM1 34.2417L0.663139 33.8722L0.5 34.021V34.2417H1ZM7.14327 28.641H7.64327V27.5086L6.80641 28.2715L7.14327 28.641ZM7.14327 55.7179V56.2179H7.64327V55.7179H7.14327ZM32.4074 55.7179H31.9074V56.2179H32.4074V55.7179ZM30.6762 35.6359L30.3151 35.9818L30.3208 35.9877L30.6762 35.6359ZM23.1367 34.6769L22.8905 34.2417V34.2417L23.1367 34.6769ZM20.9586 36.8769L20.5213 36.6345L20.9586 36.8769ZM20.1768 40.0923L19.9312 40.5278L20.6768 40.9481V40.0923H20.1768ZM17.7753 38.7384H17.2753V39.0305L17.5298 39.174L17.7753 38.7384ZM19.1157 33.2666L19.5509 33.5129L19.5533 33.5085L19.1157 33.2666ZM22.8016 29.4872L23.0516 29.9202L23.0548 29.9183L22.8016 29.4872ZM33.5244 29.6564L33.2451 30.0712L33.2521 30.0757L33.5244 29.6564ZM37.2104 33.6615L36.7704 33.8991L36.7727 33.9033L37.2104 33.6615ZM38.5507 55.7179V56.2179H39.0507V55.7179H38.5507ZM14.0335 55.7179H13.5335V56.2179H14.0335V55.7179ZM14.0335 28.641V28.141H13.5335V28.641H14.0335ZM20.1768 28.641H20.6768V28.141H20.1768V28.641ZM20.1768 55.7179V56.2179H20.6768V55.7179H20.1768ZM49.2613 55.7179L49.1174 56.1969L49.1296 56.2003L49.2613 55.7179ZM45.4636 54.0256L45.1906 54.4446L45.2004 54.4507L45.4636 54.0256ZM42.4478 51.3179L42.0925 50.9661L41.7767 51.2851L42.0599 51.6334L42.4478 51.3179ZM46.3572 47.3692L46.7375 47.0446L46.3845 46.631L46.0019 47.0174L46.3572 47.3692ZM49.5405 49.8513L49.3266 50.3032L49.335 50.3072L49.3436 50.3108L49.5405 49.8513ZM56.8008 50.0205L57.0532 50.4521L56.8008 50.0205ZM56.8566 46.2974L57.1359 45.8827L56.8566 46.2974ZM54.2317 45.1692L54.0773 45.6448L54.0874 45.648L54.0975 45.6509L54.2317 45.1692ZM50.8809 44.1538L50.7402 44.6336L50.7442 44.6348L50.8809 44.1538ZM47.53 42.8L47.2801 43.233L47.2892 43.2383L47.2985 43.2431L47.53 42.8ZM45.1285 31.9692L44.7112 31.6937L44.7055 31.7027L45.1285 31.9692ZM48.5353 29.0923L48.3284 28.6371L48.324 28.6391L48.5353 29.0923ZM59.5373 29.2615L59.3201 29.7121L59.3325 29.7177L59.5373 29.2615ZM63.7259 32.7025L64.0812 33.0543L64.3797 32.7528L64.1308 32.4092L63.7259 32.7025ZM59.8165 36.6513L59.426 36.9635L59.7768 37.4021L60.1719 37.003L59.8165 36.6513ZM57.1358 34.4513L56.9172 34.9009L57.1358 34.4513ZM50.825 34.282L50.5803 33.846L50.825 34.282ZM50.825 37.6666L51.0877 37.2412L50.825 37.6666ZM53.394 38.7384L53.2554 39.2189L53.2598 39.2201L53.394 38.7384ZM56.7449 39.7538L56.59 40.2292L56.5991 40.2322L56.6083 40.2348L56.7449 39.7538ZM60.0958 41.2205L59.8344 41.6467L59.8433 41.6522L59.8524 41.6572L60.0958 41.2205ZM62.7206 43.7025L62.2988 43.971L62.3033 43.978L62.7206 43.7025ZM60.9893 53.9692L61.3121 54.3511L60.9893 53.9692ZM68.6557 55.7784H68.1557V56.2784H68.6557V55.7784ZM68.6557 28.7014L68.9906 28.3301L68.1557 27.5772V28.7014H68.6557ZM74.799 34.2417H75.299V34.0194L75.1338 33.8704L74.799 34.2417ZM74.799 55.7784V56.2784H75.299V55.7784H74.799ZM85.518 54.4205L85.2482 54.8414L85.2518 54.8437L85.518 54.4205ZM80.8827 49.4L80.4391 49.6311L80.4442 49.6403L80.8827 49.4ZM80.8827 35.0718L80.4424 34.8347L80.4409 34.8375L80.8827 35.0718ZM85.518 29.9948L85.7879 30.4158L85.7899 30.4145L85.518 29.9948ZM97.5253 29.4307L97.2753 29.864L97.2877 29.8706L97.5253 29.4307ZM101.323 33.041L100.895 33.2994L101.323 33.041ZM101.323 51.3179L100.895 51.0595L100.89 51.0672L101.323 51.3179ZM97.5812 54.9846L97.8189 55.4246L97.8267 55.4201L97.5812 54.9846ZM97.0785 49.4L97.3377 49.8276L97.3417 49.8251L97.0785 49.4ZM99.7592 46.4666L100.205 46.6938L99.7592 46.4666ZM97.0785 35.0154L96.8091 35.4366L96.8173 35.4418L96.8256 35.4467L97.0785 35.0154ZM89.1481 35.0154L89.4073 35.443L89.4113 35.4405L89.1481 35.0154ZM86.4674 37.8923L86.0274 37.6546L86.022 37.6651L86.4674 37.8923ZM86.4674 46.4666L86.0219 46.6939L86.0275 46.7042L86.4674 46.4666ZM89.1481 49.4L88.8787 49.8212L88.8868 49.8264L88.8952 49.8313L89.1481 49.4ZM106.461 55.7179V56.2179H106.961V55.7179H106.461ZM100.318 55.7179H99.8177V56.2179H100.318V55.7179ZM100.318 48.441L99.8241 48.3616L99.8177 48.4011V48.441H100.318ZM101.379 41.841L101.872 41.9204L101.885 41.8407L101.872 41.761L101.379 41.841ZM100.318 35.2974H99.8177V35.3377L99.8242 35.3774L100.318 35.2974ZM100.318 15.1025V14.6025H99.8177V15.1025H100.318ZM106.461 15.1025H106.961V14.6025H106.461V15.1025ZM118.473 54.4769L118.22 54.9086L118.229 54.9137L118.473 54.4769ZM113.39 49.4L112.957 49.6486L112.96 49.6542L113.39 49.4ZM113.39 35.0154L113.822 35.2673L113.824 35.264L113.39 35.0154ZM118.361 29.9384L118.109 29.5068L118.105 29.5088L118.361 29.9384ZM131.988 29.8256L131.726 30.2517L131.73 30.254L131.988 29.8256ZM136.512 34.6205L136.07 34.8552L136.073 34.8615L136.512 34.6205ZM138.075 42.9692L137.581 42.8939L137.578 42.9109L137.577 42.9281L138.075 42.9692ZM137.852 44.4923V44.9923H138.263L138.342 44.5894L137.852 44.4923ZM115.848 44.4923H115.348V44.9923H115.848V44.4923ZM115.848 39.4154V38.9154H115.348V39.4154H115.848ZM134.669 39.4154L135 39.7894L135.986 38.9154H134.669V39.4154ZM132.379 41.4461L131.879 41.4686L131.926 42.5157L132.711 41.8202L132.379 41.4461ZM131.429 37.2718L130.981 37.4936L131.429 37.2718ZM129.028 34.6769L128.771 35.106L128.778 35.1099L129.028 34.6769ZM118.528 37.6666L118.971 37.8994L118.974 37.8938L118.528 37.6666ZM118.584 46.4666L118.141 46.6988L118.584 46.4666ZM121.433 49.4564L121.181 49.8887L121.191 49.8943L121.433 49.4564ZM129.475 49.7384L129.285 49.2758L129.28 49.278L129.475 49.7384ZM132.49 47.5948L132.848 47.2456L132.47 46.8576L132.113 47.2664L132.49 47.5948ZM136.4 51.6L136.782 51.9227L137.075 51.5758L136.758 51.2507L136.4 51.6ZM143.112 55.7179H142.612V56.2179H143.112V55.7179ZM143.112 15.1025V14.6025H142.612V15.1025H143.112ZM149.255 15.1025H149.755V14.6025H149.255V15.1025ZM149.255 55.7179V56.2179H149.755V55.7179H149.255ZM164.748 56L164.287 56.193L164.415 56.5H164.748V56ZM153.299 28.641V28.141H152.548L152.838 28.834L153.299 28.641ZM160.057 28.641L160.523 28.4596L160.399 28.141H160.057V28.641ZM167.876 48.7231V49.2231H168.607L168.342 48.5416L167.876 48.7231ZM165.921 48.7231L165.459 48.5327L165.175 49.2231H165.921V48.7231ZM174.187 28.641V28.141H173.852L173.724 28.4507L174.187 28.641ZM181 28.641L181.455 28.8482L181.777 28.141H181V28.641ZM156.762 67L156.311 66.7834L155.967 67.5H156.762V67ZM165.083 49.682L165.522 49.4417L165.054 48.5884L164.633 49.4655L165.083 49.682ZM163.575 67V67.5H163.898L164.031 67.2059L163.575 67ZM1.5 55.7179V34.2417H0.5V55.7179H1.5ZM1.33686 34.6112L7.48013 29.0105L6.80641 28.2715L0.663139 33.8722L1.33686 34.6112ZM6.64327 28.641V55.7179H7.64327V28.641H6.64327ZM7.14327 55.2179H1V56.2179H7.14327V55.2179ZM32.9074 55.7179V40.0923H31.9074V55.7179H32.9074ZM32.9074 40.0923C32.9074 38.1699 32.2881 36.5534 31.0315 35.2841L30.3208 35.9877C31.3726 37.05 31.9074 38.4044 31.9074 40.0923H32.9074ZM31.0372 35.29C29.8154 34.0147 28.2274 33.3872 26.32 33.3872V34.3872C27.9869 34.3872 29.3031 34.9254 30.3151 35.9818L31.0372 35.29ZM26.32 33.3872C25.0524 33.3872 23.9047 33.668 22.8905 34.2417L23.3829 35.1121C24.2303 34.6328 25.2048 34.3872 26.32 34.3872V33.3872ZM22.8905 34.2417C21.879 34.8138 21.0871 35.6141 20.5213 36.6345L21.3959 37.1193C21.8727 36.2594 22.5328 35.5929 23.3829 35.1121L22.8905 34.2417ZM20.5213 36.6345C19.9542 37.6573 19.6768 38.8144 19.6768 40.0923H20.6768C20.6768 38.9634 20.9205 37.9768 21.3959 37.1193L20.5213 36.6345ZM20.4223 39.6567L18.0209 38.3029L17.5298 39.174L19.9312 40.5278L20.4223 39.6567ZM18.2753 38.7384C18.2753 36.7441 18.7054 35.0072 19.5508 33.5128L18.6805 33.0204C17.7388 34.685 17.2753 36.596 17.2753 38.7384H18.2753ZM19.5533 33.5085C20.4039 31.9691 21.5685 30.7762 23.0516 29.9202L22.5517 29.0541C20.9072 30.0033 19.6145 31.33 18.678 33.0248L19.5533 33.5085ZM23.0548 29.9183C24.5742 29.0261 26.2729 28.5769 28.163 28.5769V27.5769C26.1065 27.5769 24.231 28.0679 22.5484 29.056L23.0548 29.9183ZM28.163 28.5769C30.081 28.5769 31.7695 29.0775 33.2451 30.0711L33.8037 29.2417C32.1518 28.1293 30.2661 27.5769 28.163 27.5769V28.5769ZM33.2521 30.0757C34.745 31.0451 35.9163 32.3174 36.7704 33.8991L37.6503 33.4239C36.7173 31.6962 35.4313 30.2984 33.7967 29.237L33.2521 30.0757ZM36.7727 33.9033C37.6273 35.4499 38.0507 37.0594 38.0507 38.7384H39.0507C39.0507 36.8824 38.5805 35.1073 37.648 33.4197L36.7727 33.9033ZM38.0507 38.7384V55.7179H39.0507V38.7384H38.0507ZM38.5507 55.2179H32.4074V56.2179H38.5507V55.2179ZM14.5335 55.7179V28.641H13.5335V55.7179H14.5335ZM14.0335 29.141H20.1768V28.141H14.0335V29.141ZM19.6768 28.641V55.7179H20.6768V28.641H19.6768ZM20.1768 55.2179H14.0335V56.2179H20.1768V55.2179ZM53.5616 55.782C52.1149 55.782 50.7258 55.5994 49.393 55.2356L49.1296 56.2003C50.5519 56.5886 52.0297 56.782 53.5616 56.782V55.782ZM49.4051 55.239C48.067 54.8372 46.8416 54.2906 45.7268 53.6005L45.2004 54.4507C46.3941 55.1897 47.7004 55.7713 49.1175 56.1968L49.4051 55.239ZM45.7366 53.6067C44.6252 52.8825 43.6589 52.0146 42.8358 51.0025L42.0599 51.6334C42.9495 52.7272 43.9937 53.6645 45.1906 54.4445L45.7366 53.6067ZM42.8032 51.6697L46.7125 47.721L46.0019 47.0174L42.0925 50.9661L42.8032 51.6697ZM45.9769 47.6938C46.9495 48.8333 48.0659 49.7063 49.3266 50.3032L49.7545 49.3994C48.6323 48.868 47.6265 48.0863 46.7375 47.0446L45.9769 47.6938ZM49.3436 50.3108C50.6427 50.8675 52.0886 51.141 53.6733 51.141V50.141C52.2049 50.141 50.8957 49.888 49.7375 49.3917L49.3436 50.3108ZM53.6733 51.141C55.0861 51.141 56.2334 50.9315 57.0532 50.4521L56.5484 49.5889C55.9533 49.9369 55.0156 50.141 53.6733 50.141V51.141ZM57.0532 50.4521C57.9068 49.9529 58.3619 49.1908 58.3619 48.2154H57.3619C57.3619 48.8194 57.1095 49.2607 56.5484 49.5889L57.0532 50.4521ZM58.3619 48.2154C58.3619 47.2265 57.948 46.4295 57.1359 45.8827L56.5773 46.7121C57.1056 47.0679 57.3619 47.5496 57.3619 48.2154H58.3619ZM57.1359 45.8827C56.4077 45.3924 55.4789 44.9977 54.366 44.6876L54.0975 45.6509C55.1441 45.9425 55.9651 46.2999 56.5773 46.7121L57.1359 45.8827ZM54.3861 44.6936C53.3371 44.353 52.2141 44.0128 51.0175 43.6729L50.7442 44.6348C51.9305 44.9718 53.0414 45.3084 54.0773 45.6448L54.3861 44.6936ZM51.0216 43.674C49.8992 43.3449 48.8126 42.906 47.7615 42.3568L47.2985 43.2431C48.4068 43.8222 49.5542 44.2858 50.7402 44.6336L51.0216 43.674ZM47.7799 42.3669C46.8055 41.8045 46.0062 41.0502 45.3783 40.0989L44.5437 40.6498C45.2562 41.7292 46.1695 42.5921 47.2801 43.233L47.7799 42.3669ZM45.3783 40.0989C44.7772 39.1881 44.4557 37.9764 44.4557 36.4256H43.4557C43.4557 38.109 43.8045 39.5298 44.5437 40.6498L45.3783 40.0989ZM44.4557 36.4256C44.4557 34.7729 44.8284 33.3836 45.5516 32.2357L44.7055 31.7027C43.8649 33.0369 43.4557 34.6185 43.4557 36.4256H44.4557ZM45.5458 32.2446C46.3101 31.0867 47.3715 30.1865 48.7465 29.5455L48.324 28.6391C46.7949 29.352 45.5852 30.3696 44.7112 31.6938L45.5458 32.2446ZM48.7422 29.5475C50.1523 28.9065 51.847 28.5769 53.8408 28.5769V27.5769C51.7391 27.5769 49.8968 27.9242 48.3284 28.6371L48.7422 29.5475ZM53.8408 28.5769C55.939 28.5769 57.7612 28.9604 59.3202 29.7119L59.7544 28.8111C58.037 27.9832 56.0615 27.5769 53.8408 27.5769V28.5769ZM59.3325 29.7177C60.9251 30.4326 62.2534 31.5221 63.321 32.9959L64.1308 32.4092C62.9645 30.7992 61.5003 29.5947 59.7421 28.8054L59.3325 29.7177ZM63.3706 32.3508L59.4612 36.2995L60.1719 37.003L64.0812 33.0543L63.3706 32.3508ZM60.207 36.339C59.3844 35.3102 58.4342 34.5267 57.3545 34.0016L56.9172 34.9009C57.848 35.3536 58.6849 36.0367 59.426 36.9635L60.207 36.339ZM57.3545 34.0016C56.2707 33.4745 55.0396 33.2179 53.6733 33.2179V34.2179C54.9131 34.2179 55.9905 34.4502 56.9172 34.9009L57.3545 34.0016ZM53.6733 33.2179C52.4051 33.2179 51.3572 33.41 50.5803 33.846L51.0697 34.7181C51.6332 34.4019 52.4841 34.2179 53.6733 34.2179V33.2179ZM50.5803 33.846C49.7671 34.3023 49.3198 35.0064 49.3198 35.9179H50.3198C50.3198 35.4004 50.5426 35.0138 51.0697 34.7181L50.5803 33.846ZM49.3198 35.9179C49.3198 36.8531 49.7531 37.5926 50.5624 38.0921L51.0877 37.2412C50.5566 36.9134 50.3198 36.487 50.3198 35.9179H49.3198ZM50.5624 38.0921C51.2827 38.5367 52.1844 38.9098 53.2554 39.2188L53.5327 38.258C52.5186 37.9654 51.7077 37.6239 51.0877 37.2412L50.5624 38.0921ZM53.2598 39.2201C54.3321 39.5189 55.4421 39.8552 56.59 40.2292L56.8998 39.2784C55.7393 38.9003 54.6154 38.5597 53.5282 38.2568L53.2598 39.2201ZM56.6083 40.2348C57.7564 40.5609 58.8313 41.0316 59.8344 41.6467L60.3572 40.7943C59.2753 40.1308 58.1163 39.6236 56.8815 39.2729L56.6083 40.2348ZM59.8524 41.6572C60.8588 42.2181 61.6728 42.9873 62.2988 43.971L63.1424 43.4341C62.4281 42.3118 61.4922 41.4263 60.3392 40.7837L59.8524 41.6572ZM62.3033 43.978C62.9033 44.8871 63.2259 46.1166 63.2259 47.7077H64.2259C64.2259 45.9893 63.8783 44.5488 63.1379 43.4271L62.3033 43.978ZM63.2259 47.7077C63.2259 50.2099 62.3662 52.1509 60.6666 53.5873L61.3121 54.3511C63.2612 52.7038 64.2259 50.4704 64.2259 47.7077H63.2259ZM60.6666 53.5873C58.9572 55.032 56.608 55.782 53.5616 55.782V56.782C56.7701 56.782 59.3727 55.9902 61.3121 54.3511L60.6666 53.5873ZM69.1557 55.7784V28.7014H68.1557V55.7784H69.1557ZM68.3208 29.0727L74.4641 34.613L75.1338 33.8704L68.9906 28.3301L68.3208 29.0727ZM74.299 34.2417V55.7784H75.299V34.2417H74.299ZM74.799 55.2784H68.6557V56.2784H74.799V55.2784ZM92.1081 55.782C89.7784 55.782 87.6746 55.1861 85.7842 53.9972L85.2518 54.8437C87.308 56.1369 89.5976 56.782 92.1081 56.782V55.782ZM85.7879 53.9995C83.9254 52.8057 82.4369 51.1956 81.3211 49.1597L80.4442 49.6403C81.6367 51.8163 83.2385 53.5532 85.2482 54.8414L85.7879 53.9995ZM81.3261 49.1689C80.2495 47.1029 79.7072 44.7952 79.7072 42.2359H78.7072C78.7072 44.9415 79.2819 47.4099 80.4392 49.631L81.3261 49.1689ZM79.7072 42.2359C79.7072 39.6375 80.2501 37.3316 81.3244 35.306L80.4409 34.8375C79.2813 37.0239 78.7072 39.4941 78.7072 42.2359H79.7072ZM81.3229 35.3088C82.4393 33.2355 83.9275 31.6083 85.7879 30.4158L85.2482 29.5739C83.2364 30.8635 81.6344 32.6209 80.4424 34.8347L81.3229 35.3088ZM85.7899 30.4145C87.6798 29.1899 89.7815 28.5769 92.1081 28.5769V27.5769C89.5945 27.5769 87.3029 28.2425 85.2461 29.5752L85.7899 30.4145ZM92.1081 28.5769C94.0801 28.5769 95.7974 29.0107 97.2754 29.8638L97.7753 28.9977C96.1258 28.0456 94.2316 27.5769 92.1081 27.5769V28.5769ZM97.2877 29.8706C98.811 30.6936 100.011 31.8348 100.895 33.2994L101.751 32.7826C100.774 31.1635 99.4416 29.8978 97.763 28.9908L97.2877 29.8706ZM100.895 33.2994C101.775 34.7567 102.219 36.4146 102.219 38.2872H103.219C103.219 36.2486 102.733 34.4091 101.751 32.7826L100.895 33.2994ZM102.219 38.2872V46.0718H103.219V38.2872H102.219ZM102.219 46.0718C102.219 47.9443 101.775 49.6023 100.895 51.0595L101.751 51.5763C102.733 49.9498 103.219 48.1103 103.219 46.0718H102.219ZM100.89 51.0672C100.043 52.5294 98.8614 53.6889 97.3356 54.549L97.8267 55.4201C99.5029 54.4752 100.816 53.1902 101.756 51.5686L100.89 51.0672ZM97.3435 54.5447C95.8243 55.3655 94.0834 55.782 92.1081 55.782V56.782C94.2283 56.782 96.1361 56.3336 97.8188 55.4245L97.3435 54.5447ZM93.1133 50.9154C94.7156 50.9154 96.1302 50.5594 97.3377 49.8276L96.8194 48.9724C95.793 49.5944 94.5641 49.9154 93.1133 49.9154V50.9154ZM97.3417 49.8251C98.5757 49.0612 99.5313 48.014 100.205 46.6938L99.3138 46.2395C98.7212 47.4014 97.8897 48.3097 96.8154 48.9748L97.3417 49.8251ZM100.205 46.6938C100.879 45.3719 101.209 43.8628 101.209 42.1795H100.209C100.209 43.7303 99.9055 45.0793 99.3138 46.2395L100.205 46.6938ZM101.209 42.1795C101.209 40.4961 100.879 38.987 100.205 37.6651L99.3138 38.1195C99.9055 39.2796 100.209 40.6286 100.209 42.1795H101.209ZM100.205 37.6651C99.5302 36.3428 98.5715 35.3113 97.3315 34.5841L96.8256 35.4467C97.894 36.0732 98.7224 36.9598 99.3138 38.1195L100.205 37.6651ZM97.348 34.5942C96.139 33.8208 94.7206 33.4436 93.1133 33.4436V34.4436C94.5591 34.4436 95.7842 34.7809 96.8091 35.4366L97.348 34.5942ZM93.1133 33.4436C91.5404 33.4436 90.1258 33.8221 88.885 34.5902L89.4113 35.4405C90.4789 34.7796 91.7077 34.4436 93.1133 34.4436V33.4436ZM88.889 34.5878C87.6899 35.3145 86.7365 36.3418 86.0275 37.6547L86.9074 38.1299C87.5388 36.9607 88.3725 36.0701 89.4073 35.443L88.889 34.5878ZM86.022 37.6651C85.3478 38.987 85.018 40.4961 85.018 42.1795H86.018C86.018 40.6286 86.3212 39.2796 86.9129 38.1195L86.022 37.6651ZM85.018 42.1795C85.018 43.8628 85.3478 45.3719 86.022 46.6938L86.9129 46.2395C86.3212 45.0793 86.018 43.7303 86.018 42.1795H85.018ZM86.0275 46.7042C86.7354 48.015 87.6857 49.058 88.8787 49.8212L89.4176 48.9788C88.3767 48.3129 87.5399 47.4003 86.9074 46.2291L86.0275 46.7042ZM88.8952 49.8313C90.1345 50.5581 91.5454 50.9154 93.1133 50.9154V49.9154C91.7027 49.9154 90.4702 49.5957 89.4011 48.9687L88.8952 49.8313ZM106.461 55.2179H100.318V56.2179H106.461V55.2179ZM100.818 55.7179V48.441H99.8177V55.7179H100.818ZM100.811 48.5204L101.872 41.9204L100.885 41.7616L99.8241 48.3616L100.811 48.5204ZM101.872 41.761L100.811 35.2174L99.8242 35.3774L100.885 41.921L101.872 41.761ZM100.818 35.2974V15.1025H99.8177V35.2974H100.818ZM100.318 15.6025H106.461V14.6025H100.318V15.6025ZM105.961 15.1025V55.7179H106.961V15.1025H105.961ZM125.733 55.782C123.13 55.782 120.795 55.1986 118.716 54.0401L118.229 54.9137C120.469 56.162 122.974 56.782 125.733 56.782V55.782ZM118.725 54.0453C116.677 52.8478 115.044 51.217 113.821 49.1457L112.96 49.6542C114.269 51.8702 116.024 53.6239 118.22 54.9085L118.725 54.0453ZM113.824 49.1513C112.642 47.0895 112.048 44.7696 112.048 42.1795H111.048C111.048 44.9295 111.681 47.4233 112.957 49.6486L113.824 49.1513ZM112.048 42.1795C112.048 39.5892 112.642 37.2897 113.822 35.2673L112.959 34.7634C111.681 36.953 111.048 39.4295 111.048 42.1795H112.048ZM113.824 35.264C115.011 33.1936 116.607 31.5643 118.617 30.3681L118.105 29.5088C115.945 30.7947 114.227 32.5499 112.957 34.7667L113.824 35.264ZM118.613 30.3701C120.655 29.1759 122.913 28.5769 125.398 28.5769V27.5769C122.744 27.5769 120.311 28.219 118.109 29.5068L118.613 30.3701ZM125.398 28.5769C127.811 28.5769 129.915 29.1398 131.726 30.2517L132.249 29.3995C130.263 28.1798 127.973 27.5769 125.398 27.5769V28.5769ZM131.73 30.254C133.587 31.3722 135.032 32.9029 136.07 34.8552L136.953 34.3858C135.832 32.2765 134.261 30.6107 132.246 29.3973L131.73 30.254ZM136.073 34.8615C137.145 36.8099 137.687 39.0381 137.687 41.5589H138.687C138.687 38.8901 138.112 36.4926 136.95 34.3795L136.073 34.8615ZM137.687 41.5589C137.687 41.9828 137.652 42.4276 137.581 42.8939L138.57 43.0445C138.647 42.533 138.687 42.0377 138.687 41.5589H137.687ZM137.577 42.9281C137.542 43.3564 137.47 43.8449 137.361 44.3952L138.342 44.5894C138.457 44.0115 138.534 43.4846 138.574 43.0103L137.577 42.9281ZM137.852 43.9923H115.848V44.9923H137.852V43.9923ZM116.348 44.4923V39.4154H115.348V44.4923H116.348ZM115.848 39.9154H134.669V38.9154H115.848V39.9154ZM134.337 39.0413L132.047 41.0721L132.711 41.8202L135 39.7894L134.337 39.0413ZM132.878 41.4237C132.802 39.7205 132.475 38.2566 131.877 37.05L130.981 37.4936C131.501 38.5433 131.807 39.8624 131.879 41.4686L132.878 41.4237ZM131.877 37.05C131.277 35.8376 130.41 34.8972 129.278 34.2439L128.778 35.1099C129.731 35.66 130.464 36.4495 130.981 37.4936L131.877 37.05ZM129.285 34.2479C128.183 33.5887 126.842 33.2743 125.286 33.2743V34.2743C126.709 34.2743 127.862 34.5617 128.771 35.1059L129.285 34.2479ZM125.286 33.2743C123.649 33.2743 122.199 33.6294 120.956 34.3584L121.462 35.221C122.528 34.5962 123.796 34.2743 125.286 34.2743V33.2743ZM120.956 34.3584C119.716 35.0857 118.757 36.1171 118.083 37.4395L118.974 37.8938C119.565 36.7341 120.394 35.8476 121.462 35.221L120.956 34.3584ZM118.086 37.4339C117.407 38.7245 117.079 40.2563 117.079 42.0102H118.079C118.079 40.3795 118.384 39.0156 118.971 37.8994L118.086 37.4339ZM117.079 42.0102C117.079 43.7695 117.428 45.3371 118.141 46.6988L119.027 46.2345C118.401 45.0389 118.079 43.6356 118.079 42.0102H117.079ZM118.141 46.6988C118.855 48.0594 119.87 49.126 121.181 49.8886L121.684 49.0242C120.538 48.3577 119.654 47.4311 119.027 46.2345L118.141 46.6988ZM121.191 49.8943C122.504 50.6174 124.004 50.9718 125.677 50.9718V49.9718C124.148 49.9718 122.819 49.6492 121.674 49.0185L121.191 49.8943ZM125.677 50.9718C127.115 50.9718 128.448 50.7163 129.67 50.1988L129.28 49.278C128.193 49.7383 126.994 49.9718 125.677 49.9718V50.9718ZM129.664 50.201C130.925 49.6836 131.996 48.9241 132.867 47.9233L132.113 47.2664C131.347 48.146 130.407 48.8155 129.285 49.2759L129.664 50.201ZM132.133 47.9441L136.042 51.9492L136.758 51.2507L132.848 47.2456L132.133 47.9441ZM136.018 51.2772C134.765 52.7592 133.247 53.8779 131.457 54.6371L131.848 55.5577C133.782 54.7374 135.428 53.5245 136.782 51.9227L136.018 51.2772ZM131.457 54.6371C129.66 55.3998 127.753 55.782 125.733 55.782V56.782C127.883 56.782 129.923 56.3745 131.848 55.5577L131.457 54.6371ZM143.612 55.7179V15.1025H142.612V55.7179H143.612ZM143.112 15.6025H149.255V14.6025H143.112V15.6025ZM148.755 15.1025V55.7179H149.755V15.1025H148.755ZM149.255 55.2179H143.112V56.2179H149.255V55.2179ZM165.21 55.807L153.761 28.448L152.838 28.834L164.287 56.193L165.21 55.807ZM153.299 29.141H160.057V28.141H153.299V29.141ZM159.591 28.8224L167.41 48.9045L168.342 48.5416L160.523 28.4596L159.591 28.8224ZM167.876 48.2231H165.921V49.2231H167.876V48.2231ZM166.383 48.9134L174.649 28.8313L173.724 28.4507L165.459 48.5327L166.383 48.9134ZM174.187 29.141H181V28.141H174.187V29.141ZM180.545 28.4338L168.091 55.7928L169.001 56.2071L181.455 28.8482L180.545 28.4338ZM168.546 55.5H164.748V56.5H168.546V55.5ZM157.213 67.2165L165.534 49.8986L164.633 49.4655L156.311 66.7834L157.213 67.2165ZM164.645 49.9223L168.107 56.2403L168.984 55.7597L165.522 49.4417L164.645 49.9223ZM168.09 55.7941L163.12 66.7941L164.031 67.2059L169.002 56.2059L168.09 55.7941ZM163.575 66.5H156.762V67.5H163.575V66.5Z" fill="#3F53D9" mask="url(#path-1-outside-1_62_6600)"/>
<path d="M74.799 35.4991H75.049V35.2491C75.049 30.1748 74.0861 26.2255 72.2185 22.0406C70.35 17.8537 67.6119 14.0507 64.1614 10.8481C60.711 7.64553 56.6158 5.10601 52.11 3.37371C47.6042 1.64141 42.7755 0.75 37.8995 0.75C33.0234 0.75 28.1947 1.64141 23.6889 3.37371C19.1832 5.10601 15.0879 7.64553 11.6375 10.8481C8.1871 14.0507 5.44899 17.8537 3.58051 22.0406C1.71292 26.2255 0.75 30.1748 0.75 35.2491V35.4991H1H7.14342H7.37289L7.39251 35.2705C7.73687 31.2574 8.17588 28.8614 9.70657 25.4314C11.2384 21.9988 13.4843 18.8786 16.3169 16.2494C19.1495 13.6203 22.5134 11.5338 26.2167 10.11C29.9201 8.68616 33.89 7.95313 37.8995 7.95313C41.909 7.95313 45.8788 8.68616 49.5822 10.11C53.2856 11.5338 56.6494 13.6202 59.4821 16.2494C62.3147 18.8786 64.5605 21.9988 66.0924 25.4314C67.622 28.859 68.0619 31.757 68.4068 35.2735L68.4289 35.4991H68.6556H74.799Z" fill="#3F53D9" stroke="#3F53D9" stroke-width="0.5"/>
</svg>
