<svg width="54" height="120" viewBox="0 0 54 120" fill="none" xmlns="http://www.w3.org/2000/svg">
<g filter="url(#filter0_b_600_236)">
<path d="M26.5 0.327637L29.7023 6.34219C30.4222 7.4521 31.2022 8.43453 32.1208 9.34946C34.8142 12.0092 37.3247 14.848 39.6353 17.8463C45.0611 24.9708 48.7208 32.8827 51.3344 41.4396C52.9018 46.6667 53.753 52.0288 53.8167 57.4509C54.0792 73.6609 48.5221 87.5798 37.318 99.1477C35.4955 100.982 33.096 102.985 31.0002 104.5C29.8903 104.5 29.3827 103.784 28.9252 103C28.0921 101.547 27.4261 99.6004 27.1787 97.9437C26.785 95.9826 26.8727 94.5248 27.0002 92.5V91C26.9102 90.805 26.11 0.788852 26.5 0.327637Z" fill="white"/>
<path d="M27.5 2.07407C27.3688 1.81159 26.6312 -0.127825 26.5 -0.000335064C26.5637 1.31207 25.7871 2.67483 25.0709 3.79225C24.2835 4.90216 23.241 5.75335 22.1949 6.66828C16.3828 11.7004 11.8082 17.7787 8.14468 24.5769C3.27004 33.7262 0.757731 43.5318 0.0452843 53.8547C-0.280941 57.5782 1.2227 70.7172 2.39636 74.5082C5.59862 84.5724 11.3507 93.0055 18.8014 100.325C20.6312 102.087 22.5886 103.722 24.6134 105.293C25.2021 105.293 25.4775 105.683 25.6125 105.293C25.8706 104.459 26.3662 102.863 26.5 102L28 91.9998L27.5 45.9998V22.9998V11.4998V2.07407Z" fill="white"/>
<path d="M26.155 101.919C26.5742 99.8609 26.8943 97.7839 27.1142 95.6957C27.3162 97.2976 27.6091 98.9096 28.1324 100.479L28.1332 100.482C28.3976 101.262 28.7376 102.013 29.1483 102.727L29.1535 102.736L29.159 102.745C29.5462 103.357 30.0437 103.959 30.7017 104.37C30.0386 105.456 29.4328 106.63 29.2881 108.019L29.2773 108.1C29.2556 108.262 29.2316 108.429 29.207 108.6C29.0887 109.422 28.9568 110.338 29.0104 111.255V117.255V117.278L29.0124 117.3L29.2005 119.38C28.9894 119.267 28.7803 119.188 28.5847 119.125C28.4646 119.086 28.3432 119.051 28.2321 119.019C28.2061 119.011 28.1806 119.004 28.1559 118.997C28.0231 118.958 27.9047 118.922 27.7934 118.881C27.5762 118.794 27.3736 118.721 27.2228 118.667C27.1521 118.642 27.0928 118.62 27.0487 118.604C26.9657 118.572 26.922 118.551 26.9009 118.54C26.8962 118.518 26.8896 118.479 26.8847 118.412C26.8745 118.272 26.8749 118.086 26.8754 117.805C26.8755 117.738 26.8757 117.664 26.8757 117.585V116.273V116.259L26.8749 116.245C26.6759 112.644 26.3514 109.058 25.1515 105.526C25.1311 105.463 25.1226 105.416 25.1183 105.377C25.1181 105.375 25.1179 105.373 25.1177 105.371C25.7653 104.36 25.9423 103.25 26.1027 102.244C26.1201 102.134 26.1374 102.026 26.155 101.919Z" stroke="white"/>
</g>
<defs>
<filter id="filter0_b_600_236" x="-20" y="-20.0063" width="93.8257" height="160.006" filterUnits="userSpaceOnUse" color-interpolation-filters="sRGB">
<feFlood flood-opacity="0" result="BackgroundImageFix"/>
<feGaussianBlur in="BackgroundImageFix" stdDeviation="10"/>
<feComposite in2="SourceAlpha" operator="in" result="effect1_backgroundBlur_600_236"/>
<feBlend mode="normal" in="SourceGraphic" in2="effect1_backgroundBlur_600_236" result="shape"/>
</filter>
</defs>
</svg>
