<svg width="120" height="120" viewBox="0 0 120 120" fill="none" xmlns="http://www.w3.org/2000/svg">
<path d="M18.0395 50C19.2052 50 20.2135 50.2348 21.0646 50.7044C21.9342 51.1552 22.6096 51.8503 23.0906 52.7895C23.5717 53.7099 23.8122 54.8558 23.8122 56.2271V64.821H22.4245V56.3398C22.4245 54.6867 22.0267 53.4282 21.2311 52.5641C20.4356 51.7 19.3254 51.268 17.9008 51.268C16.8092 51.268 15.8655 51.5028 15.07 51.9724C14.2744 52.442 13.6638 53.0994 13.2382 53.9448C12.8127 54.7901 12.5999 55.8044 12.5999 56.9878V64.821H11.2123V56.3398C11.2123 54.6867 10.8145 53.4282 10.0189 52.5641C9.22329 51.7 8.11317 51.268 6.68851 51.268C5.59688 51.268 4.65328 51.5028 3.85769 51.9724C3.0621 52.442 2.45153 53.0994 2.02598 53.9448C1.60043 54.7901 1.38766 55.8044 1.38766 56.9878V64.821H0V50.1127H1.33215V54.1702L1.13788 53.7193C1.56343 52.5735 2.27576 51.6718 3.27487 51.0144C4.27398 50.3381 5.47662 50 6.88278 50C8.32594 50 9.53783 50.3757 10.5184 51.1271C11.5176 51.8597 12.1466 52.9586 12.4057 54.4238L11.9338 54.2265C12.3224 52.968 13.0532 51.9536 14.1263 51.1834C15.1995 50.3945 16.5039 50 18.0395 50Z" fill="#050038"/>
<path d="M31.7344 64.9337C30.3468 64.9337 29.1071 64.6144 28.0155 63.9757C26.9424 63.337 26.082 62.4541 25.4344 61.3271C24.8054 60.2 24.4908 58.9133 24.4908 57.4669C24.4908 56.0017 24.8054 54.7149 25.4344 53.6066C26.082 52.4796 26.9424 51.5967 28.0155 50.958C29.1071 50.3193 30.3468 50 31.7344 50C33.1221 50 34.3617 50.3193 35.4533 50.958C36.545 51.5967 37.4053 52.4796 38.0344 53.6066C38.6634 54.7149 38.978 56.0017 38.978 57.4669C38.978 58.9133 38.6634 60.2 38.0344 61.3271C37.4053 62.4541 36.545 63.337 35.4533 63.9757C34.3617 64.6144 33.1221 64.9337 31.7344 64.9337ZM31.7344 63.6657C32.8445 63.6657 33.8436 63.4122 34.7317 62.905C35.6199 62.379 36.3137 61.6464 36.8132 60.7072C37.3128 59.768 37.5626 58.6878 37.5626 57.4669C37.5626 56.2271 37.3128 55.147 36.8132 54.2265C36.3137 53.2873 35.6199 52.5641 34.7317 52.0569C33.8436 51.5309 32.8445 51.268 31.7344 51.268C30.6243 51.268 29.6252 51.5309 28.7371 52.0569C27.8675 52.5641 27.1736 53.2873 26.6556 54.2265C26.156 55.147 25.9063 56.2271 25.9063 57.4669C25.9063 58.6878 26.156 59.768 26.6556 60.7072C27.1736 61.6464 27.8675 62.379 28.7371 62.905C29.6252 63.4122 30.6243 63.6657 31.7344 63.6657Z" fill="#050038"/>
<path d="M46.8909 50C48.075 50 49.1019 50.2348 49.9715 50.7044C50.8596 51.1552 51.5441 51.8503 52.0252 52.7895C52.5248 53.7099 52.7745 54.8558 52.7745 56.2271V64.821H51.3869V56.3398C51.3869 54.6867 50.9706 53.4282 50.138 52.5641C49.3239 51.7 48.1768 51.268 46.6966 51.268C45.568 51.268 44.5874 51.5028 43.7548 51.9724C42.9222 52.442 42.2839 53.0994 41.8398 53.9448C41.4143 54.7901 41.2015 55.8044 41.2015 56.9878V64.821H39.8138V50.1127H41.146V54.1983L40.9517 53.7475C41.3958 52.5829 42.1266 51.6718 43.1442 51.0144C44.1618 50.3381 45.4107 50 46.8909 50Z" fill="#050038"/>
<path d="M61.0409 70.4C59.7272 70.4 58.4783 70.1934 57.2942 69.7801C56.11 69.3668 55.1479 68.7939 54.4079 68.0613L55.1572 66.9906C55.8788 67.6668 56.7391 68.1928 57.7382 68.5685C58.7558 68.9442 59.8475 69.132 61.0131 69.132C62.9558 69.132 64.3805 68.6718 65.2871 67.7514C66.2122 66.8309 66.6747 65.3845 66.6747 63.4122V59.3265L66.9523 57.1287L66.7302 54.9309V50.1127H68.0624V63.2431C68.0624 65.7039 67.4703 67.5072 66.2862 68.653C65.1206 69.8177 63.3721 70.4 61.0409 70.4ZM60.6523 64.2856C59.2832 64.2856 58.0528 63.9851 56.9611 63.384C55.888 62.7641 55.0277 61.9188 54.3801 60.8481C53.751 59.7586 53.4365 58.5188 53.4365 57.1287C53.4365 55.7199 53.751 54.4801 54.3801 53.4094C55.0277 52.3387 55.888 51.5028 56.9611 50.9017C58.0528 50.3006 59.2832 50 60.6523 50C61.966 50 63.1408 50.2912 64.177 50.8735C65.2316 51.437 66.0642 52.2541 66.6747 53.3249C67.2853 54.3768 67.5906 55.6448 67.5906 57.1287C67.5906 58.5939 67.2853 59.8619 66.6747 60.9326C66.0642 62.0033 65.2316 62.8298 64.177 63.4122C63.1408 63.9945 61.966 64.2856 60.6523 64.2856ZM60.7633 63.0177C61.929 63.0177 62.9558 62.7735 63.8439 62.2851C64.732 61.7779 65.4258 61.0829 65.9254 60.2C66.4435 59.2983 66.7025 58.2746 66.7025 57.1287C66.7025 55.9641 66.4435 54.9403 65.9254 54.0575C65.4258 53.1746 64.732 52.489 63.8439 52.0006C62.9558 51.5122 61.929 51.268 60.7633 51.268C59.6347 51.268 58.6171 51.5122 57.7105 52.0006C56.8224 52.489 56.1193 53.1746 55.6012 54.0575C55.1017 54.9403 54.8519 55.9641 54.8519 57.1287C54.8519 58.2746 55.1017 59.2983 55.6012 60.2C56.1193 61.0829 56.8224 61.7779 57.7105 62.2851C58.6171 62.7735 59.6347 63.0177 60.7633 63.0177Z" fill="#050038"/>
<path d="M76.1286 64.9337C74.7409 64.9337 73.5013 64.6144 72.4097 63.9757C71.3365 63.337 70.4762 62.4541 69.8286 61.3271C69.1996 60.2 68.885 58.9133 68.885 57.4669C68.885 56.0017 69.1996 54.7149 69.8286 53.6066C70.4762 52.4796 71.3365 51.5967 72.4097 50.958C73.5013 50.3193 74.7409 50 76.1286 50C77.5162 50 78.7559 50.3193 79.8475 50.958C80.9391 51.5967 81.7995 52.4796 82.4286 53.6066C83.0576 54.7149 83.3722 56.0017 83.3722 57.4669C83.3722 58.9133 83.0576 60.2 82.4286 61.3271C81.7995 62.4541 80.9391 63.337 79.8475 63.9757C78.7559 64.6144 77.5162 64.9337 76.1286 64.9337ZM76.1286 63.6657C77.2387 63.6657 78.2378 63.4122 79.1259 62.905C80.014 62.379 80.7078 61.6464 81.2074 60.7072C81.707 59.768 81.9567 58.6878 81.9567 57.4669C81.9567 56.2271 81.707 55.147 81.2074 54.2265C80.7078 53.2873 80.014 52.5641 79.1259 52.0569C78.2378 51.5309 77.2387 51.268 76.1286 51.268C75.0185 51.268 74.0193 51.5309 73.1312 52.0569C72.2617 52.5641 71.5678 53.2873 71.0498 54.2265C70.5502 55.147 70.3004 56.2271 70.3004 57.4669C70.3004 58.6878 70.5502 59.768 71.0498 60.7072C71.5678 61.6464 72.2617 62.379 73.1312 62.905C74.0193 63.4122 75.0185 63.6657 76.1286 63.6657Z" fill="#050038"/>
<path d="M89.8696 64.9337C88.482 64.9337 87.2423 64.6144 86.1507 63.9757C85.0776 63.337 84.2173 62.4541 83.5697 61.3271C82.9406 60.2 82.6261 58.9133 82.6261 57.4669C82.6261 56.0017 82.9406 54.7149 83.5697 53.6066C84.2173 52.4796 85.0776 51.5967 86.1507 50.958C87.2423 50.3193 88.482 50 89.8696 50C91.2573 50 92.4969 50.3193 93.5886 50.958C94.6802 51.5967 95.5405 52.4796 96.1696 53.6066C96.7987 54.7149 97.1132 56.0017 97.1132 57.4669C97.1132 58.9133 96.7987 60.2 96.1696 61.3271C95.5405 62.4541 94.6802 63.337 93.5886 63.9757C92.4969 64.6144 91.2573 64.9337 89.8696 64.9337ZM89.8696 63.6657C90.9798 63.6657 91.9789 63.4122 92.867 62.905C93.7551 62.379 94.4489 61.6464 94.9485 60.7072C95.448 59.768 95.6978 58.6878 95.6978 57.4669C95.6978 56.2271 95.448 55.147 94.9485 54.2265C94.4489 53.2873 93.7551 52.5641 92.867 52.0569C91.9789 51.5309 90.9798 51.268 89.8696 51.268C88.7595 51.268 87.7604 51.5309 86.8723 52.0569C86.0027 52.5641 85.3089 53.2873 84.7908 54.2265C84.2913 55.147 84.0415 56.2271 84.0415 57.4669C84.0415 58.6878 84.2913 59.768 84.7908 60.7072C85.3089 61.6464 86.0027 62.379 86.8723 62.905C87.7604 63.4122 88.7595 63.6657 89.8696 63.6657Z" fill="#050038"/>
<path d="M101.612 64.9337C100.41 64.9337 99.2812 64.7552 98.2266 64.3983C97.1905 64.0414 96.3856 63.5906 95.8121 63.0459L96.4504 61.9188C97.0054 62.4072 97.7455 62.8298 98.6706 63.1867C99.5957 63.5249 100.595 63.6939 101.668 63.6939C103.185 63.6939 104.277 63.4403 104.943 62.9331C105.609 62.426 105.942 61.7591 105.942 60.9326C105.942 60.3315 105.766 59.8619 105.415 59.5238C105.082 59.1669 104.628 58.8945 104.055 58.7066C103.481 58.5188 102.852 58.3685 102.168 58.2558C101.483 58.1243 100.798 57.9834 100.114 57.8331C99.4292 57.6829 98.8001 57.4669 98.2266 57.1851C97.653 56.9033 97.1905 56.5182 96.8389 56.0298C96.5059 55.5227 96.3394 54.8558 96.3394 54.0293C96.3394 53.2779 96.5429 52.6017 96.9499 52.0006C97.357 51.3994 97.9676 50.9204 98.7816 50.5635C99.5957 50.1878 100.613 50 101.834 50C102.741 50 103.648 50.1315 104.554 50.3945C105.479 50.6575 106.229 51.005 106.802 51.437L106.164 52.5641C105.553 52.0945 104.869 51.7564 104.11 51.5497C103.352 51.3431 102.584 51.2398 101.807 51.2398C100.401 51.2398 99.3645 51.5028 98.6984 52.0287C98.0508 52.5547 97.727 53.2122 97.727 54.0011C97.727 54.621 97.8935 55.1188 98.2266 55.4945C98.5781 55.8514 99.0407 56.1331 99.6142 56.3398C100.188 56.5276 100.817 56.6873 101.501 56.8188C102.186 56.9315 102.871 57.063 103.555 57.2133C104.24 57.3635 104.869 57.5796 105.442 57.8613C106.016 58.1243 106.469 58.5 106.802 58.9884C107.154 59.458 107.33 60.0967 107.33 60.9044C107.33 61.7122 107.108 62.4166 106.664 63.0177C106.238 63.6188 105.6 64.0884 104.749 64.4265C103.897 64.7646 102.852 64.9337 101.612 64.9337Z" fill="#050038"/>
<path d="M113.617 64.9337C112.155 64.9337 110.86 64.6144 109.731 63.9757C108.621 63.337 107.742 62.4541 107.095 61.3271C106.466 60.2 106.151 58.9133 106.151 57.4669C106.151 56.0017 106.447 54.7149 107.039 53.6066C107.65 52.4796 108.482 51.5967 109.537 50.958C110.592 50.3193 111.776 50 113.089 50C114.403 50 115.578 50.3099 116.614 50.9298C117.669 51.5497 118.492 52.4232 119.084 53.5503C119.695 54.6586 120 55.9453 120 57.4105C120 57.4669 119.991 57.5326 119.972 57.6077C119.972 57.6641 119.972 57.7298 119.972 57.805H107.178V56.7061H119.223L118.668 57.2414C118.686 56.0956 118.446 55.0718 117.946 54.1702C117.465 53.2497 116.808 52.5359 115.976 52.0287C115.143 51.5028 114.181 51.2398 113.089 51.2398C112.016 51.2398 111.054 51.5028 110.203 52.0287C109.371 52.5359 108.714 53.2497 108.233 54.1702C107.752 55.0718 107.511 56.105 107.511 57.2696V57.5232C107.511 58.7254 107.77 59.7961 108.288 60.7354C108.825 61.6558 109.556 62.379 110.481 62.905C111.406 63.4122 112.46 63.6657 113.645 63.6657C114.57 63.6657 115.43 63.4967 116.226 63.1586C117.04 62.8204 117.724 62.3039 118.279 61.6088L119.084 62.5387C118.455 63.3276 117.659 63.9287 116.697 64.342C115.754 64.7365 114.727 64.9337 113.617 64.9337Z" fill="#050038"/>
</svg>
