<svg width="120" height="120" viewBox="0 0 120 120" fill="none" xmlns="http://www.w3.org/2000/svg">
<g clip-path="url(#clip0_62_6922)">
<path d="M54.5821 1.28023C57.5604 -0.422895 61.4397 -0.430588 64.4154 1.28023C79.3862 9.73133 94.3616 18.1692 109.33 26.6254C112.145 28.2097 114.028 31.3399 114 34.5807V85.4258C114.021 88.8008 111.951 92.0058 108.981 93.5542C94.0596 101.959 79.1458 110.373 64.2268 118.778C61.1868 120.514 57.2297 120.381 54.2847 118.502C49.8113 115.911 45.3301 113.333 40.8562 110.745C39.942 110.2 38.9114 109.767 38.2659 108.881C38.8366 108.113 39.8569 108.017 40.6859 107.682C42.5533 107.089 44.2683 106.136 45.9838 105.212C46.4176 104.916 46.9472 105.029 47.363 105.295C51.1883 107.486 54.9799 109.741 58.8181 111.911C59.6369 112.383 60.466 111.756 61.1659 111.367C75.8085 103.099 90.4691 94.8624 105.109 86.5921C105.652 86.3314 105.952 85.7561 105.907 85.1625C105.918 68.3898 105.91 51.6141 105.913 34.8414C105.975 34.1679 105.584 33.5486 104.975 33.2729C90.1051 24.9069 75.243 16.528 60.3757 8.15984C60.1181 7.98292 59.813 7.888 59.5004 7.88754C59.1878 7.88708 58.8824 7.98111 58.6243 8.15727C43.7571 16.528 28.8975 24.9146 14.0303 33.2802C13.4228 33.5563 13.0151 34.1653 13.0874 34.8414C13.09 51.6141 13.0874 68.3898 13.0874 85.1651C13.0617 85.4547 13.1253 85.7453 13.2699 85.9977C13.4145 86.2501 13.633 86.4522 13.896 86.5767C17.8634 88.8243 21.8359 91.0561 25.8059 93.2961C28.0424 94.4987 30.7884 95.2133 33.2525 94.2919C35.427 93.5127 36.9513 91.2959 36.9098 88.9893C36.9303 72.3145 36.8995 55.6371 36.9252 38.9648C36.8708 38.2246 37.5737 37.613 38.2941 37.6827C40.2004 37.6699 42.1092 37.657 44.0155 37.6878C44.8112 37.6699 45.3588 38.4669 45.2604 39.2127C45.2527 55.9931 45.2809 72.7739 45.2475 89.5543C45.2527 94.0265 43.4136 98.8926 39.2729 101.081C34.1719 103.721 27.867 103.161 22.8275 100.63C18.4649 98.4542 14.3015 95.8869 10.0163 93.5563C7.03839 92.0165 4.97941 88.7987 5.00037 85.4262V34.5807C4.96914 31.2728 6.92717 28.0858 9.8302 26.5245C24.7492 18.1132 39.6656 9.69543 54.5821 1.28023Z" fill="white"/>
<path d="M68.8576 36.5918C75.9857 36.1752 83.6167 36.345 90.0311 39.5335C94.9973 41.9769 97.7506 47.105 97.8383 52.1147C97.6996 52.7905 96.9216 53.1633 96.2111 53.1169C94.143 53.1143 92.0744 53.1424 90.0062 53.1041C89.1289 53.1347 88.619 52.4003 88.5089 51.696C87.9147 49.299 86.475 46.925 83.9902 45.7688C80.1759 44.0348 75.7533 44.122 71.594 44.1582C68.5576 44.3045 65.2926 44.5433 62.7202 46.1645C60.7453 47.3926 60.1454 49.8718 60.8503 51.8684C61.5148 53.302 63.3374 53.7645 64.8286 54.1909C73.4189 56.2309 82.5219 56.0279 90.9482 58.7126C94.4368 59.8071 97.8495 61.9347 99.0436 65.2513C100.606 69.6964 99.9209 75.0096 96.438 78.5782C93.6134 81.5148 89.4996 83.113 85.3966 83.9811C79.9383 85.0862 74.2737 85.1143 68.7306 84.6237C63.5183 84.0841 58.0941 82.8407 54.0703 79.616C50.6295 76.9033 48.949 72.6764 49.1158 68.5969C49.1556 67.9079 49.9111 67.4275 50.638 67.4841C52.7206 67.4688 54.8033 67.4637 56.886 67.4867C57.7178 67.4326 58.3346 68.0854 58.3772 68.7973C58.7615 71.0811 59.7068 73.4781 61.9 74.8322C66.1329 77.3118 71.444 77.142 76.2908 77.2113C80.3062 77.0496 84.8136 77.0007 88.0904 74.5909C89.8192 73.2164 90.3315 70.9169 89.8642 68.9386C89.3581 67.2684 87.4338 66.4901 85.7814 65.9811C77.3012 63.5454 68.0965 64.4292 59.6983 61.6747C56.2889 60.5807 52.992 58.5122 51.6821 55.3318C49.8544 50.8305 50.6919 45.2628 54.5399 41.8148C58.2919 38.385 63.7081 37.0641 68.8576 36.5913V36.5918Z" fill="white"/>
</g>
<defs>
<clipPath id="clip0_62_6922">
<rect width="120" height="120" fill="white"/>
</clipPath>
</defs>
</svg>
