<svg width="120" height="120" viewBox="0 0 120 120" fill="none" xmlns="http://www.w3.org/2000/svg">
<path d="M103.293 66.6467C99.0974 66.6704 95.4646 67.678 92.4177 69.1782C91.2927 66.9517 90.1677 65.0061 89.9805 63.5532C89.7695 61.8657 89.5117 60.8342 89.7695 58.8188C90.0271 56.803 91.199 53.9436 91.199 53.7092C91.1753 53.4983 90.9409 52.467 88.5271 52.4436C86.1133 52.4202 84.0271 52.9124 83.7927 53.5452C83.5584 54.178 83.0896 55.6311 82.7849 57.1311C82.363 59.3342 77.9568 67.1389 75.449 71.2405C74.6287 69.6467 73.9255 68.2405 73.7847 67.1152C73.574 65.428 73.3159 64.3965 73.574 62.3811C73.8318 60.3652 75.0037 57.5061 75.0037 57.2717C74.9802 57.0608 74.7459 56.0295 72.332 56.0061C69.9177 55.9827 67.832 56.4749 67.5977 57.1077C67.3633 57.7405 67.1055 59.2405 66.5898 60.6936C66.0974 62.1467 60.238 75.178 58.7146 78.5764C57.9412 80.3108 57.2617 81.6936 56.7693 82.6311C56.2771 83.5686 56.7459 82.7014 56.699 82.7952C56.2771 83.592 56.0427 84.0374 56.0427 84.0374V84.061C55.7146 84.647 55.363 85.2092 55.1987 85.2092C55.0816 85.2092 54.8472 83.6389 55.2456 81.4829C56.1128 76.9592 58.2222 69.9048 58.199 69.647C58.199 69.5298 58.5972 68.2874 56.8394 67.6548C55.1284 67.022 54.5193 68.0767 54.3784 68.0767C54.2378 68.0767 54.1206 68.4517 54.1206 68.4517C54.1206 68.4517 56.0191 60.5066 50.4878 60.5066C47.0191 60.5066 42.2378 64.28 39.8706 67.7253C38.3706 68.5456 35.1831 70.2798 31.8081 72.1316C30.5191 72.8347 29.1831 73.5847 27.9175 74.2644L27.6599 73.9827C20.9568 66.8342 8.55836 61.7717 9.07398 52.1624C9.26148 48.6702 10.4802 39.4592 32.8867 28.303C51.2383 19.1624 65.9336 21.6702 68.488 27.2483C72.1209 35.217 60.6365 50.0295 41.5586 52.1624C34.293 52.9827 30.4724 50.1702 29.5117 49.1155C28.5039 48.0139 28.3633 47.967 27.9883 48.178C27.3789 48.5061 27.7539 49.4905 27.9883 50.0764C28.5508 51.553 30.8945 54.178 34.8789 55.4905C38.3709 56.6389 46.9023 57.2717 57.2148 53.2874C68.7695 48.8108 77.793 36.3889 75.1445 26.0061C72.4492 15.4358 54.918 11.967 38.3477 17.8499C28.4802 21.3655 17.7927 26.8499 10.1052 34.0452C0.964609 42.5764 -0.488516 50.0295 0.120859 53.1233C2.25391 64.1624 17.4646 71.3577 23.5584 76.678C23.2537 76.8418 22.9724 77.0059 22.7146 77.1467C19.6677 78.6465 8.06617 84.717 5.15992 91.1387C1.87867 98.4043 5.67555 103.631 8.2068 104.334C16.0349 106.514 24.0505 102.6 28.3865 96.1545C32.6987 89.7092 32.1834 81.342 30.1912 77.5217L30.1206 77.3811L32.5112 75.9749C34.0584 75.0608 35.5818 74.217 36.9175 73.4902C36.1677 75.5293 35.6284 77.9434 35.3474 81.459C35.0193 85.5842 36.7068 90.9277 38.9334 93.0371C39.9177 93.951 41.0896 93.9746 41.8162 93.9746C44.3943 93.9746 45.5662 91.8416 46.8552 89.2871C48.449 86.1699 49.8552 82.5606 49.8552 82.5606C49.8552 82.5606 48.0974 92.334 52.9021 92.334C54.6599 92.334 56.4177 90.0606 57.2146 88.8887V88.9121C57.2146 88.9121 57.2615 88.8418 57.3552 88.6777C57.4536 88.5323 57.5474 88.3839 57.6365 88.2327V88.1858C58.3396 86.967 59.9099 84.178 62.2537 79.5608C65.2769 73.6077 68.1834 66.1545 68.1834 66.1545C68.1834 66.1545 68.4646 67.9827 69.3318 70.9827C69.8472 72.7642 70.9722 74.7092 71.8394 76.6077C71.1362 77.592 70.7144 78.1548 70.7144 78.1548L70.7378 78.1782C70.1755 78.9282 69.5425 79.7253 68.8865 80.522C66.4959 83.3813 63.6365 86.6394 63.2615 87.5769C62.8162 88.6782 62.9099 89.4985 63.7771 90.155C64.4099 90.6238 65.5349 90.7173 66.7302 90.6238C68.8865 90.4829 70.3865 89.9441 71.1365 89.6157C72.3084 89.1938 73.6443 88.561 74.9334 87.6235C77.2771 85.8894 78.7068 83.4285 78.5662 80.1472C78.4959 78.3425 77.9099 76.5613 77.1834 74.8738C77.3943 74.5691 77.6055 74.2642 77.8162 73.9363C81.5193 68.522 84.3787 62.5691 84.3787 62.5691C84.3787 62.5691 84.6599 64.3972 85.5271 67.3972C85.9722 68.9206 86.863 70.5849 87.6599 72.2256C84.1912 75.0615 82.0115 78.3428 81.2615 80.499C79.8787 84.4834 80.9568 86.2881 82.9959 86.7099C83.9097 86.8974 85.2224 86.4756 86.2066 86.0537C87.4253 85.6553 88.9019 84.9753 90.2615 83.9678C92.6052 82.2334 94.8552 79.8193 94.738 76.5615C94.6677 75.0615 94.2693 73.5849 93.7302 72.1787C96.6834 70.9599 100.503 70.2568 105.355 70.8427C115.785 72.0615 117.847 78.5771 117.449 81.2959C117.051 84.0149 114.871 85.5146 114.144 85.9834C113.418 86.4287 113.183 86.593 113.254 86.9209C113.347 87.4133 113.676 87.3896 114.308 87.2961C115.176 87.1553 119.793 85.0695 119.98 80.0542C120.261 73.6079 114.144 66.5767 103.293 66.6467ZM22.8552 93.7639C19.4099 97.5374 14.5584 98.967 12.4959 97.7483C10.2693 96.4592 11.1362 90.9045 15.3787 86.8967C17.9568 84.4592 21.3084 82.2092 23.5115 80.8264C24.0037 80.5217 24.7537 80.0767 25.6443 79.5374C25.7849 79.4438 25.8787 79.3967 25.8787 79.3967C26.0427 79.303 26.2302 79.1858 26.4177 79.0686C27.988 84.7874 26.488 89.803 22.8552 93.7639ZM48.0505 76.6311C46.8552 79.5608 44.324 87.0842 42.8005 86.6624C41.4878 86.3108 40.6912 80.6155 42.5425 74.9905C43.48 72.1543 45.4722 68.7795 46.6441 67.4668C48.5427 65.3574 50.605 64.6543 51.1209 65.5215C51.7302 66.6467 48.8005 74.803 48.0505 76.6311ZM68.8396 86.5686C68.324 86.8267 67.8552 87.0139 67.6443 86.8735C67.4802 86.7798 67.855 86.4282 67.855 86.4282C67.855 86.4282 70.4566 83.6392 71.4878 82.3501C72.0737 81.6003 72.7769 80.7331 73.5269 79.7485V80.0298C73.5271 83.4045 70.2927 85.6545 68.8396 86.5686ZM84.8706 82.9124C84.4956 82.6311 84.5427 81.7639 85.8081 79.0452C86.3005 77.967 87.4253 76.1624 89.3706 74.4514C89.605 75.1545 89.7459 75.834 89.7222 76.467C89.699 80.6858 86.699 82.2561 84.8706 82.9124Z" fill="white"/>
</svg>
