<svg width="110" height="110" viewBox="0 0 110 110" fill="none" xmlns="http://www.w3.org/2000/svg">
<path fill-rule="evenodd" clip-rule="evenodd" d="M0 4V55V110H106C108.209 110 110 108.209 110 106V4C110 1.79086 108.209 0 106 0H4C1.79086 0 0 1.79086 0 4ZM24.2825 58.6917L24.2825 55.2749V51.7224C24.2825 51.1718 24.7276 50.7248 25.2782 50.7225L43.5325 50.6442C52.4609 50.6442 60.0595 50.6638 62.2217 50.7194C62.6003 50.7291 62.8965 50.9835 62.9131 51.3619C62.9475 52.1466 62.9475 53.6114 62.9475 55.2917V58.6917C62.9475 59.244 62.4998 59.6917 61.9475 59.6917H49.6475C49.0952 59.6917 48.6475 60.1394 48.6475 60.6917V99.3917C48.6475 99.944 48.1998 100.392 47.6475 100.392H39.5C38.9477 100.392 38.5 99.944 38.5 99.3917V60.6917C38.5 60.1394 38.0523 59.6917 37.5 59.6917H25.2825C24.7302 59.6917 24.2825 59.244 24.2825 58.6917ZM88.506 50.6258C88.4893 50.6219 88.4832 50.601 88.4954 50.5888C88.5074 50.5768 88.5029 50.5566 88.4864 50.5524C86.5681 50.0647 82.0754 49.9041 80.1625 50.2867C74.2225 51.3867 70.07 55.2367 68.8875 60.7367C68.5025 62.3042 68.64 66.2092 69.0525 67.8042C69.6025 69.6467 70.785 71.8742 72.0775 73.3042C74.3325 75.6692 76.7525 77.2092 82.445 79.6292C87.395 81.8292 89.155 82.8192 90.035 84.0292C90.6675 84.9917 90.86 85.5692 90.86 86.8342C90.86 88.2092 90.42 89.1992 89.4025 90.1342C87.0375 92.2792 82.2525 92.5267 78.6775 90.6842C77.495 90.0242 75.46 88.0992 74.5525 86.6692L74.3714 86.4255C74.0675 86.0163 73.5045 85.9012 73.0643 86.1583L70.73 87.5217L66.605 89.9142L65.7706 90.4412C65.6323 90.5285 65.5589 90.6597 65.6285 90.8078C65.9834 91.5619 67.5463 93.8647 68.42 94.8092C71.005 97.6417 75.2125 99.8417 79.6125 100.667C81.675 101.024 86.075 101.079 88 100.749C94.1325 99.7317 98.4225 96.6242 100.182 92.0317C101.75 87.8242 101.227 82.2142 98.89 78.6392C96.8275 75.4492 93.4175 73.2217 85.5525 69.8392C81.29 67.9692 79.915 67.0617 79.1725 65.5492C78.8425 64.8342 78.6775 64.3392 78.6775 63.4592C78.6775 60.5717 80.8775 58.8392 84.1775 59.0592C86.46 59.2242 87.9175 60.1042 89.3475 62.1392C89.7875 62.8542 90.2275 63.3217 90.3375 63.2392C93.0197 61.5788 97.3154 58.6845 97.9127 58.1491C97.967 58.1004 97.9759 58.0329 97.9481 57.9655C97.6932 57.3468 96.2991 55.5834 95.3425 54.5492C93.4263 52.5509 91.2921 51.2883 88.506 50.6258Z" fill="white"/>
</svg>
