<svg width="925" height="1053" viewBox="0 0 925 1053" fill="none" xmlns="http://www.w3.org/2000/svg">
<path d="M332.911 91.6162C332.383 91.7771 332.085 92.3358 332.246 92.8642C332.246 92.8643 332.246 92.8645 332.246 92.8647C326.85 94.5158 321.49 96.2181 316.169 97.9754C316.169 97.9752 316.168 97.975 316.168 97.9747C315.995 97.4505 315.429 97.1666 314.904 97.3404C308.905 99.3307 302.953 101.391 297.051 103.527C296.532 103.715 296.263 104.289 296.451 104.808C296.451 104.808 296.451 104.808 296.451 104.809C291.152 106.736 285.893 108.724 280.677 110.778C280.677 110.777 280.677 110.777 280.676 110.777C280.473 110.263 279.892 110.012 279.379 110.215C273.503 112.539 267.681 114.946 261.915 117.442C261.408 117.661 261.175 118.25 261.395 118.757C261.395 118.757 261.395 118.757 261.395 118.758C256.227 121.005 251.105 123.324 246.03 125.719C246.03 125.719 246.029 125.718 246.029 125.718C245.793 125.219 245.196 125.006 244.697 125.243C238.993 127.947 233.349 130.747 227.766 133.649C227.276 133.904 227.085 134.508 227.34 134.998C227.34 134.998 227.34 134.998 227.34 134.999C222.352 137.604 217.413 140.291 212.526 143.064C212.526 143.064 212.526 143.063 212.526 143.063C212.252 142.583 211.642 142.416 211.162 142.689C205.685 145.812 200.274 149.042 194.93 152.386C194.462 152.679 194.319 153.296 194.612 153.764C194.613 153.764 194.613 153.765 194.613 153.765C189.857 156.756 185.154 159.837 180.507 163.013C180.507 163.013 180.507 163.012 180.506 163.012C180.194 162.557 179.571 162.441 179.116 162.754C173.929 166.316 168.812 169.997 163.766 173.801C163.325 174.134 163.237 174.761 163.569 175.202C163.57 175.202 163.57 175.202 163.57 175.203C159.102 178.588 154.69 182.072 150.337 185.657C150.336 185.657 150.336 185.656 150.336 185.656C149.984 185.231 149.353 185.171 148.928 185.523C144.092 189.526 139.329 193.654 134.639 197.913C134.231 198.285 134.2 198.917 134.572 199.326C134.572 199.326 134.572 199.326 134.572 199.327C130.44 203.099 126.366 206.974 122.351 210.956C122.351 210.955 122.351 210.955 122.351 210.955C121.961 210.564 121.328 210.563 120.936 210.953C118.71 213.171 116.503 215.423 114.314 217.708C111.823 220.308 109.352 222.929 106.902 225.57C106.526 225.975 106.55 226.608 106.955 226.983C106.955 226.984 106.955 226.984 106.956 226.984C102.524 231.777 98.1638 236.638 93.8907 241.566C93.8905 241.565 93.8903 241.565 93.89 241.565C93.4722 241.204 92.8407 241.25 92.4796 241.668C87.7614 247.128 83.1494 252.67 78.663 258.295C78.3186 258.727 78.3895 259.356 78.8212 259.7C78.8215 259.7 78.8217 259.701 78.822 259.701C74.754 264.822 70.791 270.01 66.9476 275.266C66.9473 275.266 66.947 275.266 66.9467 275.266C66.5002 274.941 65.8747 275.039 65.5497 275.486C61.2953 281.33 57.1884 287.259 53.2487 293.273C52.946 293.735 53.0752 294.354 53.5372 294.657C53.5375 294.657 53.5378 294.658 53.5382 294.658C49.9643 300.141 46.5308 305.694 43.2525 311.317C43.2521 311.316 43.2517 311.316 43.2513 311.316C42.7735 311.039 42.1616 311.202 41.8847 311.68C38.2577 317.938 34.8226 324.283 31.5999 330.715C31.3525 331.208 31.5522 331.809 32.0459 332.057C32.0464 332.057 32.0468 332.057 32.0473 332.057C29.1346 337.913 26.3993 343.84 23.8569 349.837C23.8564 349.837 23.8559 349.837 23.8554 349.837C23.3462 349.623 22.7601 349.862 22.5461 350.371C19.7479 357.032 17.1867 363.781 14.8839 370.617C14.7076 371.14 14.989 371.708 15.5124 371.884C15.5129 371.884 15.5135 371.884 15.514 371.884C13.4538 378.072 11.6065 384.332 9.98772 390.662C9.98711 390.662 9.98651 390.662 9.98591 390.662C9.45033 390.527 8.90687 390.852 8.77204 391.387C7.01482 398.368 5.53465 405.435 4.35242 412.589C4.26237 413.134 4.6311 413.649 5.176 413.739C5.17664 413.739 5.17729 413.739 5.17793 413.739C4.14506 420.146 3.35236 426.621 2.81482 433.166C2.81415 433.166 2.81349 433.166 2.81282 433.166C2.26221 433.123 1.781 433.534 1.738 434.085C1.45795 437.671 1.25427 441.278 1.12941 444.906C1.0195 448.099 0.981995 451.271 1.01388 454.422C1.01947 454.975 1.47169 455.418 2.02395 455.412C2.02473 455.412 2.02551 455.412 2.0263 455.412C2.11072 461.113 2.4228 466.748 2.94452 472.323C2.94377 472.323 2.94301 472.323 2.94226 472.323C2.39262 472.377 1.99079 472.866 2.04475 473.416C2.66825 479.767 3.56179 486.039 4.69865 492.242C4.79822 492.785 5.31932 493.144 5.86255 493.045C5.86325 493.045 5.86394 493.045 5.86464 493.044C6.90821 498.605 8.14767 504.111 9.56369 509.567C9.56307 509.567 9.56246 509.567 9.56184 509.568C9.0278 509.708 8.709 510.255 8.84977 510.789C10.4642 516.914 12.2988 522.975 14.3262 528.983C14.5027 529.506 15.0701 529.787 15.5934 529.611C15.5939 529.61 15.5944 529.61 15.595 529.61C17.4137 534.941 19.3844 540.231 21.4877 545.487C21.4873 545.487 21.4868 545.487 21.4864 545.487C20.9742 545.694 20.7266 546.277 20.9332 546.789C23.2933 552.638 25.8155 558.443 28.4733 564.212C28.7044 564.713 29.2984 564.933 29.8 564.702C29.8003 564.701 29.8007 564.701 29.801 564.701C32.1658 569.804 34.6365 574.88 37.1947 579.935C37.1944 579.935 37.1941 579.936 37.1939 579.936C36.7015 580.186 36.5053 580.788 36.7555 581.28C39.6091 586.895 42.5687 592.483 45.6089 598.053C45.8735 598.538 46.481 598.716 46.9658 598.452C46.966 598.452 46.9662 598.452 46.9664 598.451C49.6692 603.388 52.4346 608.312 55.2461 613.229C54.7669 613.504 54.601 614.115 54.8755 614.594C58.007 620.059 61.193 625.515 64.4091 630.969C64.6897 631.445 65.3027 631.603 65.7785 631.323C68.6428 636.176 71.5307 641.028 74.4252 645.886C73.9507 646.169 73.7953 646.783 74.078 647.257L75.0309 648.856C77.9418 653.741 80.8555 658.63 83.7558 663.531C84.037 664.007 84.6503 664.164 85.1256 663.883C87.998 668.741 90.8564 673.611 93.6838 678.499C93.2055 678.775 93.0417 679.387 93.3179 679.865C94.8952 682.596 96.4623 685.333 98.0165 688.076C99.6783 691.009 101.315 693.974 102.928 696.968C103.189 697.454 103.795 697.636 104.281 697.375C107.158 702.741 109.96 708.2 112.698 713.737C112.203 713.981 112 714.58 112.244 715.076C115.221 721.12 118.124 727.258 120.967 733.47C121.197 733.972 121.79 734.192 122.292 733.963C124.826 739.517 127.312 745.129 129.762 750.785C129.255 751.004 129.021 751.592 129.24 752.099C131.922 758.308 134.56 764.569 137.169 770.867C137.38 771.377 137.965 771.62 138.475 771.408C140.813 777.062 143.127 782.744 145.428 788.44C144.916 788.646 144.668 789.229 144.875 789.741C147.416 796.039 149.941 802.354 152.464 808.67C152.669 809.183 153.251 809.432 153.764 809.227C153.97 809.743 154.176 810.259 154.382 810.775C156.452 815.957 158.521 821.139 160.597 826.309C160.085 826.515 159.836 827.097 160.042 827.61C162.583 833.933 165.136 840.241 167.713 846.514C167.923 847.025 168.507 847.269 169.018 847.059C171.359 852.75 173.721 858.411 176.114 864.03C175.606 864.247 175.37 864.834 175.587 865.342C178.274 871.637 181 877.878 183.781 884.048C184.008 884.551 184.6 884.775 185.104 884.548C185.104 884.548 185.104 884.548 185.104 884.548C187.644 890.166 190.23 895.722 192.872 901.204C192.871 901.204 192.871 901.204 192.871 901.204C192.374 901.445 192.166 902.043 192.406 902.54C195.399 908.727 198.465 914.818 201.62 920.794C201.878 921.282 202.483 921.469 202.972 921.211C202.972 921.211 202.972 921.211 202.972 921.211C205.869 926.671 208.84 932.032 211.898 937.28C211.898 937.28 211.897 937.28 211.897 937.28C211.42 937.559 211.261 938.172 211.54 938.649C215.023 944.592 218.619 950.39 222.347 956.018C222.652 956.479 223.273 956.605 223.733 956.3C223.734 956.3 223.734 956.299 223.735 956.299C227.165 961.445 230.706 966.447 234.372 971.287C234.372 971.287 234.371 971.287 234.371 971.288C233.932 971.623 233.847 972.25 234.182 972.689C238.362 978.167 242.704 983.437 247.228 988.473C247.597 988.884 248.229 988.918 248.64 988.549C248.64 988.548 248.641 988.548 248.641 988.548C252.781 993.116 257.072 997.488 261.53 1001.64C261.529 1001.64 261.529 1001.64 261.528 1001.65C261.154 1002.05 261.179 1002.68 261.585 1003.06C266.619 1007.71 271.866 1012.08 277.346 1016.15C277.789 1016.48 278.416 1016.39 278.745 1015.95C278.746 1015.95 278.746 1015.95 278.747 1015.95C283.671 1019.56 288.783 1022.94 294.098 1026.05C294.098 1026.05 294.098 1026.05 294.097 1026.05C293.821 1026.53 293.984 1027.14 294.463 1027.42C300.319 1030.8 306.421 1033.87 312.787 1036.59C313.295 1036.81 313.883 1036.58 314.1 1036.07C314.1 1036.07 314.101 1036.07 314.101 1036.07C319.657 1038.41 325.414 1040.48 331.388 1042.28C331.387 1042.29 331.387 1042.29 331.387 1042.29C331.231 1042.82 331.533 1043.37 332.063 1043.53C335.317 1044.49 338.634 1045.37 342.016 1046.16C345.21 1046.91 348.398 1047.59 351.579 1048.19C352.122 1048.29 352.645 1047.94 352.748 1047.39C352.748 1047.39 352.748 1047.39 352.748 1047.39C358.504 1048.45 364.238 1049.27 369.95 1049.86C369.949 1049.86 369.949 1049.86 369.949 1049.86C369.895 1050.41 370.297 1050.9 370.847 1050.95C377.366 1051.59 383.857 1051.93 390.317 1051.99C390.87 1052 391.321 1051.55 391.326 1051C391.326 1051 391.326 1051 391.326 1051C397.145 1051.02 402.94 1050.82 408.709 1050.39C408.709 1050.39 408.709 1050.39 408.709 1050.4C408.752 1050.95 409.233 1051.36 409.783 1051.31C416.263 1050.81 422.71 1050.03 429.123 1048.99C429.668 1048.91 430.039 1048.39 429.951 1047.85C429.95 1047.85 429.95 1047.85 429.95 1047.85C435.662 1046.9 441.347 1045.75 447.005 1044.4C447.005 1044.4 447.005 1044.4 447.005 1044.4C447.135 1044.94 447.676 1045.27 448.212 1045.14C454.499 1043.62 460.75 1041.86 466.965 1039.89C467.491 1039.72 467.782 1039.16 467.615 1038.63C467.615 1038.63 467.615 1038.63 467.614 1038.63C473.107 1036.86 478.572 1034.92 484.008 1032.82C484.008 1032.82 484.009 1032.82 484.009 1032.82C484.21 1033.33 484.789 1033.59 485.304 1033.39C491.314 1031.04 497.288 1028.5 503.224 1025.78C503.726 1025.55 503.947 1024.96 503.717 1024.46C503.716 1024.45 503.716 1024.45 503.716 1024.45C508.952 1022.04 514.159 1019.48 519.336 1016.79C519.337 1016.79 519.337 1016.79 519.337 1016.79C519.593 1017.28 520.197 1017.47 520.686 1017.21C526.396 1014.23 532.07 1011.09 537.706 1007.81C538.183 1007.53 538.344 1006.92 538.067 1006.44C538.066 1006.44 538.066 1006.44 538.066 1006.44C543.049 1003.53 548.003 1000.5 552.928 997.366C552.928 997.366 552.928 997.366 552.928 997.367C553.226 997.832 553.844 997.969 554.309 997.671C559.742 994.203 565.137 990.611 570.495 986.909C570.949 986.595 571.063 985.972 570.749 985.518C570.749 985.517 570.749 985.517 570.749 985.517C575.495 982.225 580.213 978.847 584.9 975.391C584.9 975.391 584.9 975.392 584.9 975.392C585.229 975.836 585.855 975.93 586.299 975.601C591.489 971.762 596.642 967.83 601.756 963.816C602.191 963.475 602.266 962.846 601.925 962.412C601.925 962.411 601.925 962.411 601.925 962.411C606.474 958.831 610.992 955.187 615.48 951.487C615.48 951.487 615.48 951.487 615.48 951.487C615.832 951.913 616.463 951.973 616.888 951.621C621.87 947.503 626.814 943.317 631.719 939.076C632.137 938.715 632.182 938.083 631.821 937.665C631.821 937.665 631.821 937.665 631.821 937.665C636.203 933.868 640.553 930.026 644.872 926.148C644.872 926.148 644.872 926.148 644.873 926.148C645.242 926.559 645.874 926.592 646.285 926.223C651.1 921.891 655.876 917.516 660.611 913.108C661.015 912.732 661.038 912.099 660.661 911.695C664.911 907.732 669.129 903.744 673.313 899.739C673.695 900.138 674.328 900.151 674.726 899.769C679.414 895.275 684.06 890.761 688.662 886.239C689.056 885.852 689.062 885.218 688.675 884.824C692.827 880.74 696.943 876.649 701.024 872.56C701.416 872.95 702.049 872.949 702.439 872.558C707.032 867.952 711.58 863.349 716.081 858.764C716.468 858.37 716.462 857.737 716.068 857.35C720.163 853.175 724.219 849.015 728.236 844.878C728.632 845.263 729.265 845.253 729.65 844.857C731.908 842.53 734.154 840.212 736.387 837.903C738.732 835.477 741.064 833.039 743.382 830.589C743.762 830.187 743.744 829.554 743.343 829.175C743.343 829.175 743.343 829.175 743.343 829.174C747.513 824.757 751.638 820.298 755.714 815.8C755.714 815.8 755.715 815.8 755.715 815.8C756.124 816.171 756.757 816.139 757.127 815.729C761.655 810.721 766.124 805.664 770.528 800.557C770.889 800.139 770.842 799.508 770.424 799.147C770.424 799.147 770.424 799.147 770.424 799.146C774.388 794.54 778.299 789.894 782.155 785.209C782.155 785.209 782.155 785.209 782.155 785.209C782.582 785.56 783.212 785.498 783.563 785.071C787.849 779.85 792.067 774.58 796.212 769.262C796.552 768.827 796.474 768.198 796.038 767.859C796.038 767.859 796.038 767.859 796.038 767.858C799.769 763.059 803.44 758.221 807.048 753.345C807.048 753.345 807.049 753.345 807.049 753.346C807.493 753.673 808.119 753.579 808.447 753.135C812.46 747.697 816.394 742.212 820.247 736.68C820.562 736.227 820.451 735.604 819.997 735.288C819.997 735.288 819.997 735.288 819.997 735.288C823.465 730.293 826.865 725.261 830.194 720.191C830.194 720.191 830.195 720.191 830.195 720.191C830.657 720.494 831.277 720.364 831.579 719.902C835.281 714.247 838.896 708.546 842.418 702.799C842.706 702.328 842.558 701.712 842.088 701.424C842.087 701.423 842.087 701.423 842.087 701.423C845.257 696.234 848.351 691.007 851.366 685.744C851.366 685.744 851.366 685.744 851.366 685.744C851.846 686.018 852.457 685.851 852.731 685.372C856.081 679.502 859.334 673.586 862.485 667.626C862.743 667.138 862.556 666.533 862.068 666.275C862.068 666.275 862.068 666.274 862.067 666.274C864.9 660.894 867.649 655.478 870.311 650.026C870.311 650.026 870.312 650.027 870.312 650.027C870.809 650.268 871.407 650.061 871.648 649.565C874.603 643.487 877.45 637.365 880.184 631.2C880.408 630.695 880.18 630.104 879.676 629.88C879.675 629.88 879.675 629.88 879.675 629.88C882.129 624.319 884.491 618.724 886.758 613.094C886.759 613.094 886.759 613.094 886.759 613.094C887.272 613.299 887.854 613.05 888.059 612.538C890.571 606.267 892.965 599.953 895.237 593.597C895.422 593.077 895.152 592.505 894.631 592.319C894.631 592.319 894.631 592.319 894.631 592.319C896.664 586.595 898.597 580.838 900.428 575.047C900.428 575.048 900.428 575.048 900.429 575.048C900.956 575.213 901.517 574.92 901.682 574.393C903.704 567.952 905.599 561.47 907.362 554.947C907.507 554.414 907.191 553.865 906.658 553.721C906.658 553.721 906.657 553.721 906.657 553.721C908.228 547.86 909.693 541.967 911.048 536.042C911.048 536.042 911.048 536.042 911.049 536.042C911.587 536.164 912.123 535.826 912.245 535.288C913.734 528.709 915.088 522.092 916.302 515.436C916.401 514.892 916.041 514.372 915.498 514.273C915.497 514.273 915.497 514.272 915.497 514.272C916.572 508.308 917.534 502.313 918.38 496.288C918.38 496.288 918.38 496.288 918.381 496.288C918.928 496.364 919.432 495.982 919.508 495.435C920.43 488.762 921.21 482.052 921.844 475.306C921.896 474.756 921.492 474.269 920.942 474.217C920.942 474.217 920.941 474.217 920.941 474.217C921.494 468.19 921.929 462.134 922.245 456.049C922.245 456.049 922.245 456.049 922.246 456.049C922.797 456.077 923.267 455.652 923.294 455.1C923.461 451.731 923.591 448.354 923.684 444.967C923.773 441.74 923.843 438.502 923.895 435.254C923.904 434.702 923.463 434.247 922.911 434.238C922.911 434.238 922.911 434.238 922.911 434.238C922.996 428.45 923.023 422.631 922.988 416.788C922.988 416.788 922.988 416.788 922.989 416.788C923.541 416.784 923.985 416.333 923.981 415.78C923.935 409.324 923.813 402.838 923.612 396.332C923.595 395.78 923.133 395.346 922.581 395.363C922.581 395.363 922.581 395.363 922.581 395.363C922.394 389.57 922.145 383.76 921.83 377.941C921.831 377.941 921.831 377.941 921.831 377.941C922.383 377.911 922.805 377.439 922.774 376.887C922.416 370.422 921.977 363.945 921.453 357.465C921.409 356.915 920.926 356.504 920.376 356.549C920.376 356.549 920.376 356.549 920.375 356.549C919.9 350.762 919.357 344.974 918.743 339.188C918.744 339.188 918.744 339.188 918.744 339.188C919.293 339.129 919.69 338.636 919.631 338.087C918.939 331.638 918.158 325.194 917.287 318.763C917.213 318.216 916.709 317.832 916.162 317.907C916.162 317.907 916.161 317.907 916.161 317.907C915.372 312.146 914.51 306.396 913.572 300.662C913.572 300.662 913.572 300.662 913.573 300.662C914.117 300.572 914.486 300.057 914.396 299.513C913.337 293.103 912.184 286.715 910.932 280.356C910.825 279.814 910.299 279.461 909.757 279.568C909.757 279.568 909.757 279.568 909.756 279.568C908.622 273.857 907.408 268.169 906.111 262.512C906.112 262.512 906.112 262.512 906.112 262.512C906.65 262.388 906.986 261.851 906.862 261.313C905.397 254.974 903.83 248.673 902.155 242.419C902.012 241.885 901.463 241.569 900.93 241.712C900.93 241.712 900.929 241.712 900.929 241.712C899.411 236.088 897.807 230.501 896.113 224.96C896.113 224.96 896.113 224.959 896.114 224.959C896.641 224.797 896.938 224.237 896.775 223.709C894.858 217.482 892.826 211.311 890.678 205.204C890.495 204.683 889.924 204.409 889.403 204.592C889.402 204.593 889.402 204.593 889.402 204.593C887.455 199.096 885.412 193.653 883.271 188.269C883.271 188.269 883.271 188.269 883.272 188.269C883.784 188.064 884.034 187.482 883.828 186.969C881.407 180.92 878.861 174.947 876.186 169.059C875.958 168.556 875.365 168.333 874.862 168.562C874.862 168.562 874.861 168.562 874.861 168.562C872.435 163.255 869.904 158.018 867.265 152.858C867.265 152.858 867.265 152.857 867.266 152.857C867.757 152.604 867.95 152.001 867.697 151.51C864.714 145.714 861.594 140.015 858.333 134.421C858.055 133.944 857.443 133.783 856.966 134.061C856.965 134.061 856.965 134.061 856.965 134.062C854.016 129.036 850.953 124.097 847.772 119.252C847.772 119.251 847.773 119.251 847.773 119.251C848.234 118.946 848.361 118.326 848.056 117.865C844.465 112.429 840.724 107.112 836.831 101.923C836.5 101.481 835.873 101.392 835.431 101.723C835.43 101.723 835.43 101.724 835.43 101.724C831.923 97.0809 828.293 92.5418 824.536 88.1142C824.536 88.1138 824.537 88.1135 824.537 88.1131C824.957 87.7544 825.007 87.1232 824.648 86.7032C820.426 81.7607 816.045 76.9574 811.502 72.3033C811.116 71.9081 810.483 71.9005 810.088 72.2863C810.087 72.2868 810.087 72.2872 810.086 72.2876C806.018 68.1495 801.82 64.1313 797.488 60.2401C797.489 60.2396 797.489 60.2392 797.489 60.2387C797.857 59.8265 797.821 59.1944 797.409 58.8268C792.571 54.5122 787.568 50.3546 782.396 46.3638C781.959 46.0264 781.331 46.1074 780.994 46.5446C780.994 46.5451 780.993 46.5456 780.993 46.5461C776.405 43.0325 771.684 39.6503 766.827 36.4064C766.828 36.4059 766.828 36.4054 766.828 36.4048C767.133 35.9445 767.007 35.3239 766.547 35.0189C763.841 33.2262 761.094 31.476 758.305 29.7696C755.445 28.0204 752.571 26.3612 749.682 24.7892C749.196 24.5252 748.589 24.7045 748.325 25.1896C748.325 25.1903 748.324 25.1911 748.324 25.1919C743.041 22.3524 737.709 19.805 732.333 17.5331C732.334 17.5323 732.334 17.5315 732.334 17.5306C732.547 17.0208 732.305 16.4354 731.795 16.2231C725.623 13.6529 719.391 11.4421 713.107 9.5655C712.577 9.40749 712.02 9.7084 711.862 10.2376C711.862 10.2384 711.862 10.2393 711.862 10.2401C706.161 8.57042 700.416 7.17556 694.631 6.03671C694.631 6.0359 694.631 6.03509 694.631 6.03427C694.735 5.49187 694.38 4.96787 693.837 4.86389C687.341 3.61857 680.794 2.69286 674.203 2.06022C673.653 2.00746 673.165 2.41035 673.112 2.96011C673.112 2.96086 673.112 2.9616 673.112 2.96235C667.244 2.42582 661.339 2.12114 655.401 2.02964C655.401 2.02897 655.401 2.0283 655.401 2.02763C655.407 1.47538 654.965 1.0226 654.413 1.01631C647.842 0.941525 641.233 1.12515 634.589 1.54186C634.038 1.57644 633.619 2.0513 633.654 2.60251C633.654 2.60308 633.654 2.60366 633.654 2.60424C627.798 2.99197 621.914 3.56037 616.006 4.29221C616.006 4.29172 616.006 4.29122 616.006 4.29073C615.936 3.74284 615.436 3.35505 614.888 3.42457C608.386 4.24954 601.857 5.27027 595.304 6.46377C594.761 6.56273 594.401 7.08343 594.5 7.62677C594.5 7.62718 594.5 7.62759 594.5 7.628C588.731 8.6936 582.942 9.89269 577.136 11.2097C577.136 11.2093 577.136 11.209 577.136 11.2086C577.013 10.6703 576.476 10.3338 575.938 10.4571C569.553 11.9197 563.148 13.5231 556.729 15.2466C556.196 15.3899 555.88 15.9384 556.023 16.4717C556.023 16.472 556.023 16.4723 556.023 16.4726C550.348 18.0065 544.661 19.6338 538.964 21.3402C538.964 21.34 538.964 21.3398 538.964 21.3395C538.805 20.8107 538.247 20.511 537.718 20.6702C531.44 22.56 525.151 24.5445 518.855 26.6044C518.33 26.7762 518.044 27.3409 518.216 27.8658C518.216 27.866 518.216 27.8661 518.216 27.8663C512.615 29.7051 507.008 31.6032 501.397 33.5471C501.397 33.547 501.396 33.5469 501.396 33.5468C501.215 33.0251 500.645 32.749 500.124 32.9302C493.92 35.0849 487.712 37.2943 481.503 39.5403C480.984 39.7281 480.715 40.3015 480.903 40.8208C480.903 40.8209 480.903 40.821 480.903 40.8211C475.348 42.8339 469.792 44.8754 464.237 46.9329C464.045 46.415 463.469 46.1508 462.951 46.3428C456.779 48.631 450.608 50.9376 444.443 53.2445C443.926 53.4381 443.664 54.0143 443.857 54.5316C443.219 54.7704 442.581 55.0092 441.943 55.248C437.035 57.085 432.13 58.9209 427.23 60.7463C427.038 60.2288 426.462 59.9654 425.944 60.1581C419.762 62.4601 413.589 64.7444 407.427 66.9931C406.909 67.1824 406.641 67.7564 406.831 68.2751C401.249 70.3093 395.677 72.3137 390.117 74.2748C389.933 73.754 389.363 73.4805 388.842 73.6638C382.605 75.8586 376.384 77.9977 370.183 80.0619C369.659 80.2363 369.376 80.8022 369.55 81.3261C363.898 83.2011 358.261 85.0134 352.643 86.7487C352.481 86.2211 351.921 85.9251 351.394 86.0873C348.244 87.0555 345.101 87.9991 341.964 88.9155C338.935 89.8003 335.918 90.7003 332.911 91.6162Z" stroke="#E6EBFF" stroke-width="2" stroke-linecap="round" stroke-linejoin="round" stroke-dasharray="20 20"/>
</svg>
