<svg width="653" height="743" viewBox="0 0 653 743" fill="none" xmlns="http://www.w3.org/2000/svg">
<path d="M232.274 65.6459C231.754 65.8073 231.463 66.3601 231.624 66.8805C231.624 66.8808 231.624 66.8811 231.624 66.8814C226.31 68.5398 221.046 70.2707 215.837 72.0812C215.836 72.0809 215.836 72.0806 215.836 72.0803C215.656 71.5659 215.093 71.2948 214.579 71.4747C208.688 73.5355 202.865 75.6989 197.115 77.9754C196.609 78.176 196.361 78.7493 196.561 79.256C196.561 79.2563 196.561 79.2566 196.562 79.257C191.395 81.3161 186.289 83.4671 181.246 85.7175C181.246 85.7171 181.246 85.7168 181.246 85.7164C181.022 85.2193 180.439 84.9974 179.941 85.2208C174.255 87.7754 168.649 90.4575 163.128 93.2778C162.642 93.5257 162.45 94.12 162.698 94.6053C162.698 94.6057 162.698 94.6061 162.698 94.6065C157.764 97.1442 152.898 99.7932 148.104 102.561C148.104 102.561 148.104 102.56 148.103 102.56C147.83 102.089 147.226 101.929 146.755 102.203C141.381 105.328 136.097 108.603 130.908 112.039C130.454 112.34 130.329 112.952 130.63 113.407C130.63 113.407 130.631 113.408 130.631 113.408C126.03 116.476 121.506 119.673 117.06 123.005C117.059 123.004 117.059 123.004 117.059 123.003C116.73 122.569 116.112 122.482 115.677 122.81C110.736 126.539 105.892 130.437 101.15 134.514C100.737 134.87 100.69 135.493 101.046 135.906C101.046 135.906 101.046 135.907 101.047 135.907C96.8845 139.511 92.802 143.254 88.802 147.145C88.8016 147.144 88.8012 147.144 88.8008 147.143C88.4196 146.754 87.7949 146.748 87.4056 147.129C85.1927 149.296 83.0051 151.508 80.8435 153.767C78.7381 155.967 76.6523 158.188 74.5889 160.43C74.2199 160.831 74.2457 161.455 74.6466 161.824C74.6469 161.824 74.6472 161.824 74.6474 161.824C70.9821 165.824 67.3896 169.889 63.8864 174.021C63.8861 174.02 63.8858 174.02 63.8854 174.02C63.469 173.668 62.8465 173.721 62.4951 174.138C58.5567 178.806 54.732 183.558 51.0447 188.394C50.7143 188.828 50.7978 189.447 51.2311 189.777C51.2315 189.777 51.2319 189.778 51.2323 189.778C47.9482 194.111 44.7759 198.511 41.7322 202.978C41.7317 202.978 41.7313 202.978 41.7308 202.977C41.2795 202.672 40.6661 202.79 40.3608 203.242C36.9298 208.312 33.664 213.47 30.5878 218.714C30.3121 219.184 30.4696 219.788 30.9396 220.064C30.9401 220.064 30.9406 220.065 30.9412 220.065C28.2065 224.767 25.6259 229.537 23.2171 234.376C23.2165 234.376 23.2159 234.376 23.2152 234.375C22.7264 234.135 22.1349 234.336 21.8942 234.824C19.1895 240.315 16.7049 245.895 14.466 251.564C14.2659 252.071 14.5145 252.644 15.0213 252.844C15.022 252.844 15.0227 252.845 15.0234 252.845C13.0544 257.9 11.2824 263.024 9.72572 268.219C9.72492 268.218 9.72411 268.218 9.72331 268.218C9.20055 268.064 8.65211 268.363 8.49832 268.886C6.77805 274.734 5.32935 280.67 4.17788 286.696C4.0756 287.231 4.42657 287.748 4.96179 287.85C4.96267 287.85 4.96355 287.851 4.96442 287.851C3.98145 293.15 3.23015 298.518 2.72793 303.954C2.72701 303.954 2.72609 303.954 2.72517 303.954C2.18229 303.906 1.70404 304.308 1.65695 304.851C1.39403 307.883 1.20823 310.935 1.10254 314.009C0.993741 317.172 0.985556 320.307 1.07211 323.413C1.08729 323.958 1.54115 324.387 2.08585 324.372C2.08693 324.372 2.088 324.372 2.08908 324.372C2.28269 330 2.78826 335.537 3.5703 340.995C3.56931 340.995 3.56831 340.995 3.56731 340.995C3.02839 341.076 2.65685 341.578 2.73744 342.117C3.66838 348.342 4.95485 354.463 6.54395 360.498C6.68271 361.025 7.22237 361.34 7.74932 361.201C7.75017 361.201 7.75102 361.201 7.75187 361.2C9.19663 366.571 10.8814 371.874 12.7688 377.124C12.7681 377.124 12.7674 377.124 12.7667 377.125C12.2548 377.311 11.991 377.877 12.1776 378.389C14.3091 384.237 16.6878 390.015 19.2616 395.74C19.485 396.237 20.069 396.459 20.566 396.236C20.5665 396.236 20.567 396.235 20.5675 396.235C22.8552 401.279 25.2942 406.285 27.849 411.264C27.8486 411.265 27.8483 411.265 27.8479 411.265C27.3637 411.515 27.1737 412.11 27.4237 412.594C30.2696 418.108 33.2537 423.589 36.3274 429.05C36.5947 429.525 37.1963 429.693 37.6712 429.426C37.6714 429.426 37.6716 429.426 37.6718 429.425C40.3985 434.254 43.1947 439.07 46.027 443.885C46.0269 443.885 46.0268 443.885 46.0267 443.885C45.5572 444.162 45.4009 444.767 45.6774 445.236C48.1513 449.435 50.6514 453.634 53.1541 457.838C53.8404 458.991 54.5269 460.144 55.213 461.297C55.4916 461.765 56.0971 461.919 56.5654 461.641C59.4081 466.421 62.2462 471.213 65.0474 476.028C64.5764 476.302 64.4164 476.905 64.6899 477.376C66.2512 480.066 67.8001 482.761 69.3311 485.466C70.9378 488.304 72.5107 491.185 74.0535 494.104C74.3079 494.585 74.9041 494.77 75.3857 494.516C78.1136 499.711 80.7469 505.023 83.3056 510.425C82.8133 510.658 82.6024 511.245 82.8346 511.738C85.6122 517.632 88.3034 523.634 90.9344 529.711C91.1509 530.211 91.7314 530.441 92.2313 530.225C94.5672 535.639 96.856 541.109 99.1157 546.612C98.6115 546.819 98.3702 547.395 98.5768 547.899C101.065 553.972 103.52 560.084 105.967 566.206C106.169 566.712 106.743 566.958 107.249 566.756C107.916 568.426 108.583 570.096 109.249 571.766C110.78 575.603 112.31 579.439 113.847 583.266C113.341 583.469 113.096 584.043 113.299 584.549C115.763 590.682 118.244 596.793 120.766 602.848C120.976 603.351 121.554 603.589 122.057 603.379C122.057 603.379 122.057 603.379 122.057 603.379C124.354 608.88 126.686 614.333 129.072 619.713C129.071 619.713 129.071 619.714 129.071 619.714C128.573 619.935 128.349 620.518 128.571 621.016C131.278 627.097 134.056 633.086 136.932 638.948C137.172 639.437 137.763 639.639 138.252 639.399C138.252 639.399 138.253 639.398 138.253 639.398C140.904 644.77 143.638 650.032 146.477 655.156C146.476 655.156 146.476 655.156 146.475 655.156C145.999 655.422 145.829 656.023 146.095 656.499C149.358 662.346 152.761 668.015 156.336 673.464C156.635 673.919 157.247 674.046 157.702 673.747C157.703 673.747 157.703 673.747 157.704 673.746C161.017 678.751 164.477 683.564 168.109 688.153C168.108 688.153 168.108 688.154 168.107 688.154C167.681 688.495 167.612 689.115 167.953 689.541C172.136 694.769 176.547 699.706 181.225 704.303C181.614 704.685 182.239 704.68 182.621 704.291C182.622 704.29 182.622 704.289 182.623 704.289C186.894 708.431 191.386 712.286 196.126 715.819C196.125 715.82 196.124 715.821 196.124 715.823C195.801 716.262 195.896 716.879 196.336 717.202C201.651 721.101 207.277 724.601 213.252 727.652C213.737 727.9 214.331 727.708 214.579 727.222C214.58 727.221 214.58 727.22 214.581 727.219C219.786 729.823 225.256 732.086 231.015 733.974C231.014 733.975 231.014 733.976 231.014 733.978C230.848 734.497 231.135 735.052 231.654 735.217C234.767 736.211 237.963 737.096 241.247 737.868C244.627 738.663 247.997 739.338 251.357 739.897C251.894 739.986 252.403 739.623 252.492 739.086C252.492 739.085 252.492 739.083 252.493 739.082C258.67 740.07 264.812 740.664 270.916 740.892C270.916 740.893 270.916 740.894 270.916 740.895C270.899 741.44 271.327 741.895 271.871 741.912C278.786 742.126 285.651 741.875 292.464 741.199C293.006 741.145 293.402 740.662 293.348 740.119C293.348 740.118 293.348 740.117 293.348 740.116C299.48 739.47 305.571 738.477 311.617 737.167C311.617 737.168 311.618 737.169 311.618 737.17C311.736 737.702 312.263 738.037 312.795 737.919C319.459 736.436 326.067 734.573 332.616 732.367C333.132 732.193 333.41 731.633 333.236 731.117C333.235 731.116 333.235 731.115 333.235 731.114C339.029 729.132 344.778 726.88 350.481 724.386C350.481 724.387 350.481 724.387 350.482 724.388C350.702 724.886 351.285 725.112 351.783 724.891C357.995 722.144 364.149 719.113 370.243 715.832C370.723 715.574 370.902 714.976 370.644 714.496C370.644 714.496 370.644 714.495 370.643 714.495C376.023 711.575 381.357 708.46 386.643 705.175C386.644 705.175 386.644 705.175 386.644 705.176C386.933 705.638 387.542 705.778 388.004 705.489C393.764 701.886 399.467 698.082 405.109 694.109C405.554 693.796 405.661 693.18 405.347 692.734C405.347 692.734 405.347 692.734 405.347 692.734C410.356 689.188 415.319 685.509 420.233 681.718C420.233 681.718 420.234 681.718 420.234 681.718C420.568 682.149 421.187 682.228 421.618 681.894C427.006 677.721 432.333 673.415 437.6 669.006C438.017 668.656 438.073 668.034 437.723 667.616C437.723 667.616 437.722 667.616 437.722 667.616C442.44 663.652 447.109 659.606 451.728 655.497C451.728 655.497 451.728 655.498 451.728 655.498C452.091 655.904 452.715 655.94 453.121 655.577C458.228 651.022 463.272 646.392 468.251 641.717C468.648 641.344 468.668 640.72 468.295 640.323C468.294 640.322 468.294 640.322 468.294 640.322C472.803 636.079 477.258 631.8 481.659 627.504C482.04 627.893 482.664 627.9 483.054 627.519C487.972 622.71 492.821 617.882 497.598 613.066C497.982 612.679 497.98 612.055 497.593 611.671C501.976 607.247 506.298 602.834 510.559 598.453C510.95 598.833 511.575 598.824 511.954 598.433C514.351 595.967 516.729 593.513 519.086 591.073C521.357 588.722 523.611 586.354 525.845 583.97C526.218 583.572 526.198 582.948 525.8 582.575C525.8 582.575 525.8 582.575 525.8 582.574C529.809 578.283 533.758 573.939 537.64 569.542C537.64 569.542 537.64 569.542 537.64 569.542C538.049 569.902 538.673 569.862 539.033 569.453C543.356 564.54 547.596 559.561 551.746 554.518C552.092 554.097 552.032 553.475 551.611 553.129C551.611 553.129 551.61 553.128 551.61 553.128C555.336 548.584 558.988 543.987 562.561 539.339C562.561 539.34 562.561 539.34 562.561 539.34C562.994 539.671 563.613 539.589 563.944 539.157C567.927 533.956 571.809 528.692 575.584 523.365C575.899 522.921 575.794 522.305 575.349 521.99C575.349 521.99 575.349 521.99 575.349 521.989C578.739 517.186 582.041 512.332 585.249 507.429C585.249 507.429 585.25 507.429 585.25 507.429C585.707 507.727 586.318 507.598 586.615 507.141C590.192 501.65 593.651 496.097 596.985 490.484C597.263 490.015 597.109 489.41 596.641 489.132C596.64 489.132 596.64 489.131 596.64 489.131C599.631 484.07 602.519 478.959 605.299 473.801C605.3 473.801 605.3 473.801 605.3 473.801C605.781 474.059 606.379 473.878 606.636 473.398C609.732 467.622 612.692 461.786 615.507 455.892C615.742 455.4 615.534 454.811 615.042 454.576C615.042 454.576 615.042 454.576 615.041 454.576C617.562 449.267 619.964 443.911 622.243 438.509C622.244 438.509 622.244 438.509 622.245 438.51C622.747 438.72 623.325 438.483 623.536 437.981C626.066 431.94 628.443 425.842 630.657 419.688C630.841 419.175 630.575 418.61 630.062 418.425C630.062 418.425 630.061 418.425 630.061 418.425C632.033 412.896 633.873 407.322 635.576 401.704C635.576 401.704 635.577 401.704 635.577 401.704C636.099 401.861 636.649 401.565 636.806 401.043C638.685 394.778 640.393 388.459 641.922 382.086C642.049 381.556 641.723 381.024 641.193 380.897C641.193 380.897 641.192 380.897 641.192 380.896C642.542 375.194 643.748 369.45 644.804 363.664C644.805 363.664 644.805 363.665 644.806 363.665C645.342 363.761 645.855 363.404 645.951 362.868C647.104 356.444 648.071 349.969 648.846 343.445C648.91 342.904 648.523 342.413 647.982 342.349C647.982 342.349 647.981 342.348 647.981 342.348C648.652 336.541 649.17 330.694 649.529 324.81C649.529 324.81 649.53 324.81 649.53 324.81C650.074 324.841 650.541 324.426 650.572 323.882C650.761 320.623 650.901 317.352 650.99 314.07C651.084 310.658 651.149 307.23 651.184 303.787C651.19 303.242 650.752 302.796 650.207 302.79C650.207 302.79 650.207 302.79 650.207 302.79C650.259 296.643 650.217 290.451 650.072 284.229C650.073 284.229 650.073 284.229 650.073 284.229C650.618 284.216 651.049 283.763 651.035 283.218C650.865 276.397 650.573 269.54 650.15 262.667C650.116 262.123 649.648 261.71 649.104 261.743C649.104 261.743 649.104 261.743 649.104 261.743C648.713 255.582 648.217 249.41 647.608 243.241C647.609 243.241 647.609 243.241 647.609 243.241C648.152 243.187 648.547 242.703 648.492 242.161C647.807 235.342 646.984 228.526 646.016 221.734C645.939 221.195 645.439 220.82 644.9 220.897C644.899 220.897 644.899 220.897 644.899 220.897C644.012 214.767 643.006 208.657 641.874 202.582C641.875 202.582 641.875 202.582 641.875 202.581C642.411 202.481 642.763 201.965 642.662 201.429C641.388 194.669 639.957 187.953 638.363 181.299C638.236 180.769 637.703 180.443 637.173 180.57C637.173 180.57 637.172 180.57 637.172 180.57C635.71 174.535 634.112 168.553 632.372 162.639C632.372 162.638 632.373 162.638 632.373 162.638C632.895 162.483 633.193 161.934 633.038 161.411C631.073 154.8 628.929 148.273 626.598 141.851C626.412 141.339 625.846 141.075 625.333 141.261C625.333 141.261 625.332 141.261 625.332 141.261C623.192 135.422 620.896 129.673 618.437 124.029C618.437 124.029 618.438 124.029 618.438 124.028C618.937 123.809 619.163 123.227 618.944 122.728C616.164 116.405 613.178 110.215 609.977 104.178C609.721 103.697 609.124 103.513 608.643 103.769C608.642 103.769 608.642 103.769 608.641 103.769C605.709 98.289 602.597 92.9385 599.299 87.7348C599.299 87.7344 599.3 87.7341 599.3 87.7337C599.759 87.4401 599.893 86.83 599.6 86.3709C595.883 80.5594 591.932 74.9311 587.737 69.5098C587.403 69.0789 586.783 68.9999 586.352 69.3334C586.352 69.3338 586.351 69.3343 586.351 69.3347C582.537 64.4531 578.524 59.743 574.303 55.2219C574.303 55.2213 574.304 55.2208 574.304 55.2202C574.701 54.8464 574.719 54.222 574.345 53.8255C569.637 48.831 564.672 44.0685 559.441 39.5617C559.029 39.206 558.406 39.2523 558.05 39.6652C558.049 39.6658 558.049 39.6664 558.048 39.6671C553.367 35.6751 548.473 31.8884 543.361 28.3236C543.361 28.3229 543.362 28.3222 543.362 28.3215C543.671 27.8729 543.558 27.2585 543.11 26.9492C540.292 25.006 537.408 23.1296 534.456 21.3227C531.683 19.6247 528.89 18.0468 526.078 16.5839C525.594 16.3325 524.999 16.5205 524.747 17.004C524.747 17.005 524.746 17.0061 524.745 17.0072C519.565 14.3606 514.32 12.105 509.018 10.2089C509.018 10.2078 509.018 10.2066 509.019 10.2055C509.198 9.69103 508.927 9.12836 508.413 8.94871C502.297 6.81308 496.106 5.14889 489.849 3.90846C489.315 3.8025 488.795 4.1499 488.689 4.68441C488.689 4.68553 488.689 4.68666 488.689 4.68778C483.081 3.61653 477.419 2.88504 471.708 2.45882C471.709 2.45781 471.709 2.4568 471.709 2.45579C471.746 1.91215 471.335 1.44128 470.792 1.40406C464.442 0.969402 458.037 0.906937 451.586 1.16928C451.041 1.19142 450.618 1.65074 450.64 2.1952C450.64 2.19604 450.64 2.19688 450.64 2.19771C444.987 2.45643 439.295 2.9637 433.571 3.68789C433.571 3.68722 433.571 3.68654 433.571 3.68587C433.5 3.14555 433.005 2.7648 432.464 2.83544C426.193 3.65525 419.886 4.7315 413.551 6.02255C413.017 6.13136 412.673 6.65241 412.782 7.18635C412.782 7.18687 412.782 7.18739 412.782 7.18791C407.241 8.33566 401.677 9.64696 396.094 11.0941C396.094 11.0937 396.094 11.0933 396.094 11.0929C395.956 10.5658 395.417 10.2504 394.889 10.3884C388.767 11.9916 382.625 13.7553 376.47 15.643C375.949 15.8028 375.657 16.3546 375.816 16.8756C375.816 16.8759 375.817 16.8761 375.817 16.8764C370.391 18.551 364.955 20.321 359.511 22.1617C359.511 22.1615 359.51 22.1613 359.51 22.1611C359.335 21.6451 358.775 21.3688 358.259 21.544C352.246 23.5855 346.226 25.7108 340.206 27.8863C339.693 28.0715 339.428 28.6371 339.613 29.1495C339.613 29.1497 339.613 29.1498 339.613 29.1499C334.251 31.0921 328.887 33.0732 323.525 35.0697C323.335 34.5591 322.767 34.2994 322.256 34.4897C318.601 35.852 314.946 37.2212 311.295 38.5891C308.979 39.4568 306.664 40.3238 304.352 41.1883C303.842 41.3791 303.583 41.9475 303.773 42.458C298.406 44.4634 293.047 46.4548 287.7 48.4086C287.513 47.8969 286.947 47.6334 286.435 47.82C280.418 50.0139 274.42 52.1575 268.445 54.217C267.93 54.3945 267.656 54.9557 267.833 55.4707C262.388 57.34 256.962 59.1384 251.559 60.8401C251.396 60.3206 250.843 60.0314 250.323 60.1941C247.272 61.149 244.229 62.0723 241.196 62.9595C238.207 63.8335 235.233 64.7286 232.274 65.6459Z" stroke="#E6EBFF" stroke-width="1.9733" stroke-linecap="round" stroke-linejoin="round" stroke-dasharray="19.73 19.73"/>
</svg>
