<svg width="358" height="418" viewBox="0 0 358 418" fill="none" xmlns="http://www.w3.org/2000/svg">
<path d="M117.848 38.2778C117.323 38.447 117.034 39.0104 117.203 39.5361C117.203 39.5366 117.203 39.5372 117.203 39.5377C112.287 41.1384 107.453 42.8556 102.707 44.7078C102.706 44.7071 102.706 44.7065 102.706 44.7059C102.503 44.1922 101.922 43.9403 101.408 44.1431C95.9581 46.2958 90.6234 48.6289 85.4165 51.1703C84.9202 51.4126 84.7142 52.0113 84.9565 52.5076C84.9568 52.5084 84.9572 52.5091 84.9575 52.5098C80.3453 54.7889 75.8364 57.2338 71.4389 59.8642C71.4384 59.8634 71.4379 59.8626 71.4375 59.8618C71.1514 59.3894 70.5365 59.2384 70.0641 59.5245C65.0878 62.5385 60.2537 65.7926 55.5744 69.3153C55.1331 69.6475 55.0447 70.2745 55.3769 70.7157C55.3775 70.7165 55.3781 70.7173 55.3787 70.7181C51.3293 73.805 47.3985 77.0966 43.5943 80.6116C43.5936 80.6109 43.5929 80.6101 43.5922 80.6094C43.2149 80.2061 42.582 80.185 42.1787 80.5623C40.0632 82.5416 37.987 84.5905 35.9517 86.7123C33.9792 88.7686 32.0369 90.8577 30.1326 92.9794C29.7637 93.3904 29.7978 94.0227 30.2088 94.3916C30.2093 94.392 30.2098 94.3925 30.2104 94.393C26.8699 98.146 23.6516 102 20.5972 105.954C20.5965 105.953 20.5958 105.953 20.5952 105.952C20.1564 105.617 19.5288 105.701 19.1934 106.14C15.7074 110.701 12.4382 115.397 9.44913 120.228C9.15856 120.698 9.30375 121.314 9.77341 121.605C9.77433 121.606 9.77525 121.606 9.77616 121.607C7.15236 125.91 4.75517 130.318 2.629 134.83C2.62782 134.83 2.62664 134.829 2.62546 134.829C2.12403 134.597 1.52988 134.816 1.2984 135.317C-1.1074 140.529 -3.15465 145.882 -4.7753 151.376C-4.93156 151.905 -4.62881 152.462 -4.09909 152.618C-4.09761 152.618 -4.09614 152.619 -4.09466 152.619C-5.46166 157.416 -6.49857 162.319 -7.1605 167.327C-7.16216 167.326 -7.16383 167.326 -7.1655 167.326C-7.71373 167.259 -8.21234 167.649 -8.27918 168.198C-8.62381 171.024 -8.84993 173.884 -8.94965 176.777C-9.05258 179.763 -8.99599 182.702 -8.79552 185.6C-8.7574 186.151 -8.27985 186.567 -7.72888 186.529C-7.72694 186.529 -7.725 186.528 -7.72306 186.528C-7.30285 191.721 -6.41796 196.78 -5.16106 201.736C-5.16263 201.736 -5.1642 201.737 -5.16577 201.737C-5.69976 201.878 -6.01834 202.425 -5.87735 202.959C-4.38357 208.617 -2.41681 214.135 -0.116512 219.558C0.0991812 220.066 0.686193 220.303 1.19462 220.088C1.19563 220.087 1.19664 220.087 1.19766 220.086C3.22209 224.772 5.49536 229.394 7.92808 233.981C7.92752 233.982 7.92697 233.982 7.92641 233.982C7.43948 234.243 7.25602 234.849 7.51664 235.336C10.2472 240.438 13.1655 245.495 16.1455 250.541C16.4264 251.017 17.0395 251.175 17.5151 250.894C17.5153 250.894 17.5154 250.894 17.5156 250.894C18.7362 252.956 19.967 255.018 21.1994 257.083C22.6052 259.439 24.0132 261.798 25.4111 264.165C24.9356 264.446 24.7772 265.058 25.0574 265.534C26.5307 268.036 27.9899 270.545 29.4208 273.067C31.211 276.221 32.9268 279.472 34.5842 282.798C34.8302 283.291 35.4295 283.492 35.9234 283.248C38.8478 289.176 41.5892 295.328 44.2365 301.591C43.728 301.805 43.4893 302.391 43.7033 302.9C46.2911 309.053 48.7927 315.307 51.2958 321.565C51.5406 322.178 51.7855 322.79 52.0304 323.402C52.2356 323.915 52.8176 324.164 53.3303 323.959C55.8412 330.23 58.3623 336.479 60.9784 342.598C60.978 342.598 60.9777 342.598 60.9774 342.598C60.47 342.816 60.2356 343.405 60.4538 343.912C63.4292 350.831 66.5365 357.587 69.8981 364.019C70.1539 364.509 70.7581 364.698 71.2476 364.443C71.2483 364.442 71.249 364.442 71.2497 364.441C74.4678 370.527 77.9189 376.306 81.7101 381.641C81.709 381.642 81.7078 381.643 81.7067 381.644C81.2592 381.968 81.1588 382.593 81.4825 383.04C85.9497 389.217 90.8954 394.801 96.4896 399.57C96.9099 399.928 97.5411 399.878 97.8994 399.458C97.9008 399.456 97.9022 399.454 97.9036 399.453C103.025 403.704 108.683 407.261 115.006 409.961C115.005 409.963 115.004 409.966 115.003 409.968C114.794 410.479 115.038 411.063 115.549 411.272C118.925 412.655 122.484 413.799 126.243 414.681C129.312 415.401 132.368 415.946 135.408 416.327C135.956 416.395 136.456 416.006 136.524 415.458C136.525 415.457 136.525 415.455 136.525 415.453C142.033 416.077 147.49 416.155 152.89 415.749C152.89 415.751 152.89 415.753 152.89 415.755C152.938 416.305 153.422 416.713 153.973 416.665C160.137 416.134 166.223 414.983 172.222 413.304C172.754 413.155 173.064 412.603 172.915 412.071C172.915 412.07 172.914 412.068 172.914 412.067C178.105 410.563 183.234 408.661 188.298 406.422C188.298 406.424 188.298 406.425 188.299 406.426C188.526 406.929 189.118 407.153 189.622 406.926C195.168 404.425 200.631 401.527 206.003 398.311C206.477 398.028 206.631 397.413 206.348 396.94C206.347 396.939 206.347 396.938 206.346 396.937C210.966 394.137 215.522 391.101 220.01 387.879C220.01 387.88 220.011 387.88 220.011 387.881C220.335 388.328 220.96 388.428 221.408 388.104C226.352 384.523 231.211 380.722 235.979 376.768C236.404 376.416 236.463 375.785 236.11 375.36C236.11 375.36 236.11 375.359 236.109 375.359C240.296 371.865 244.415 368.254 248.461 364.572C248.461 364.572 248.461 364.572 248.462 364.572C248.834 364.98 249.467 365.008 249.874 364.636C254.429 360.472 258.889 356.222 263.251 351.951C263.646 351.565 263.653 350.932 263.266 350.537C263.266 350.537 263.266 350.537 263.266 350.537C267.209 346.665 271.072 342.779 274.851 338.925C274.851 338.925 274.851 338.925 274.851 338.926C275.246 339.312 275.879 339.305 276.265 338.911C278.432 336.698 280.57 334.498 282.679 332.32C285.232 329.684 287.745 327.009 290.215 324.298C290.586 323.89 290.557 323.258 290.149 322.886C290.148 322.885 290.148 322.885 290.147 322.885C294.619 317.946 298.943 312.885 303.093 307.708C303.093 307.708 303.094 307.708 303.094 307.709C303.526 308.053 304.155 307.981 304.499 307.549C309.087 301.788 313.46 295.881 317.581 289.836C317.892 289.379 317.775 288.757 317.318 288.446C317.318 288.446 317.317 288.446 317.317 288.445C321.057 282.917 324.585 277.275 327.874 271.522C327.875 271.522 327.875 271.522 327.876 271.523C328.356 271.795 328.966 271.626 329.239 271.146C332.872 264.731 336.21 258.179 339.214 251.497C339.441 250.993 339.216 250.401 338.712 250.175C338.711 250.174 338.711 250.174 338.71 250.174C341.414 244.086 343.84 237.891 345.957 231.593C345.958 231.594 345.959 231.594 345.959 231.594C346.484 231.768 347.049 231.483 347.223 230.959C349.529 223.986 351.461 216.888 352.978 209.671C353.092 209.131 352.746 208.6 352.206 208.487C352.205 208.486 352.204 208.486 352.203 208.486C353.53 202.005 354.521 195.429 355.148 188.763C355.149 188.763 355.15 188.763 355.151 188.763C355.701 188.812 356.186 188.406 356.235 187.856C356.558 184.21 356.772 180.537 356.874 176.839C356.958 173.785 357.001 170.707 357 167.61C357 167.058 356.552 166.61 356 166.61C355.999 166.61 355.999 166.61 355.998 166.61C355.981 161.183 355.829 155.702 355.527 150.2C355.528 150.2 355.528 150.2 355.529 150.2C356.08 150.168 356.501 149.695 356.469 149.144C356.114 143.019 355.574 136.869 354.829 130.739C354.763 130.191 354.264 129.8 353.716 129.867C353.716 129.867 353.715 129.867 353.714 129.867C353.034 124.433 352.192 119.018 351.174 113.651C351.175 113.651 351.175 113.651 351.176 113.651C351.718 113.546 352.072 113.021 351.967 112.479C350.788 106.399 349.381 100.384 347.728 94.4783C347.579 93.9465 347.027 93.636 346.495 93.7849C346.495 93.7851 346.494 93.7854 346.493 93.7856C344.982 88.4869 343.27 83.2812 341.342 78.2017C341.343 78.2014 341.344 78.201 341.345 78.2007C341.86 78.0018 342.117 77.423 341.918 76.9077C339.675 71.097 337.147 65.4514 334.313 60.0214C334.057 59.5318 333.453 59.3421 332.963 59.5977C332.962 59.5982 332.961 59.5987 332.96 59.5993C330.378 54.7325 327.545 50.0462 324.445 45.5772C324.447 45.5765 324.448 45.5757 324.449 45.575C324.9 45.2567 325.008 44.6328 324.69 44.1815C321.113 39.1099 317.189 34.3197 312.892 29.8662C312.509 29.4687 311.876 29.4574 311.478 29.8408C311.477 29.8418 311.476 29.8429 311.475 29.8439C307.662 25.9605 303.558 22.3436 299.149 19.0308C299.15 19.0296 299.151 19.0283 299.152 19.0271C299.479 18.5824 299.385 17.9564 298.94 17.6288C296.463 15.8039 293.891 14.0731 291.223 12.4429C288.052 10.5064 284.835 8.84681 281.576 7.44117C281.069 7.22246 280.481 7.45628 280.262 7.96342C280.261 7.96547 280.26 7.96752 280.259 7.96958C274.152 5.43241 267.899 3.78809 261.529 2.88021C261.529 2.87825 261.53 2.87628 261.53 2.87431C261.601 2.32666 261.215 1.82483 260.668 1.75343C253.574 0.82871 246.35 0.794589 239.038 1.43613C238.488 1.4844 238.081 1.96953 238.13 2.5197C238.13 2.52107 238.13 2.52244 238.13 2.52381C231.803 3.1313 225.4 4.24124 218.946 5.71655C218.946 5.71571 218.946 5.71488 218.945 5.71404C218.82 5.17629 218.282 4.84237 217.744 4.96822C210.874 6.57586 203.955 8.58528 197.018 10.8312C196.492 11.0013 196.204 11.5652 196.374 12.0906C196.375 12.0911 196.375 12.0915 196.375 12.0919C190.264 14.0888 184.133 16.2662 178.001 18.5123C178.001 18.5122 178.001 18.512 178.001 18.5119C177.811 17.9935 177.236 17.7276 176.718 17.9181C172.988 19.2885 169.249 20.686 165.518 22.0805C162.537 23.1946 159.561 24.3068 156.6 25.4018C156.082 25.5932 155.817 26.1682 156.008 26.6861C149.862 28.953 143.74 31.1537 137.663 33.174C137.49 32.6503 136.925 32.3658 136.401 32.5385C132.98 33.6662 129.575 34.7338 126.191 35.721C123.386 36.5393 120.605 37.3904 117.848 38.2778Z" stroke="#E6EBFF" stroke-width="2" stroke-linecap="round" stroke-linejoin="round" stroke-dasharray="20 20"/>
</svg>
