<svg width="16" height="17" viewBox="0 0 16 17" fill="none" xmlns="http://www.w3.org/2000/svg">
<path d="M7 5.5C7 6.05228 7.44772 6.5 8 6.5C8.55228 6.5 9 6.05228 9 5.5H7ZM8.70711 4.41679C8.31658 4.02626 7.68342 4.02626 7.29289 4.41679L0.928932 10.7807C0.538408 11.1713 0.538408 11.8044 0.928932 12.195C1.31946 12.5855 1.95262 12.5855 2.34315 12.195L8 6.53811L13.6569 12.195C14.0474 12.5855 14.6805 12.5855 15.0711 12.195C15.4616 11.8044 15.4616 11.1713 15.0711 10.7807L8.70711 4.41679ZM9 5.5V5.12389H7V5.5H9Z" fill="#EFE314"/>
</svg>
