<svg width="16" height="17" viewBox="0 0 16 17" fill="none" xmlns="http://www.w3.org/2000/svg">
<path d="M9 11.5C9 10.9477 8.55228 10.5 8 10.5C7.44772 10.5 7 10.9477 7 11.5H9ZM7.29289 12.5832C7.68342 12.9737 8.31658 12.9737 8.70711 12.5832L15.0711 6.21925C15.4616 5.82873 15.4616 5.19556 15.0711 4.80504C14.6805 4.41452 14.0474 4.41452 13.6569 4.80504L8 10.4619L2.34315 4.80504C1.95262 4.41452 1.31946 4.41452 0.928932 4.80504C0.538408 5.19556 0.538408 5.82873 0.928932 6.21925L7.29289 12.5832ZM7 11.5V11.8761H9V11.5H7Z" fill="white"/>
</svg>
