<svg width="617" height="200" viewBox="0 0 617 200" fill="none" xmlns="http://www.w3.org/2000/svg">
<path d="M149.289 15.4229C145.039 15.4229 141.577 11.9607 141.577 7.71148C141.577 3.4623 145.039 0 149.289 0C153.538 0 157 3.4623 157 7.71148C157 11.9869 153.538 15.4229 149.289 15.4229ZM157 53.8492C157 49.6 153.538 46.1377 149.289 46.1377C145.039 46.1377 141.577 49.6 141.577 53.8492C141.577 58.0984 145.039 61.5607 149.289 61.5607C153.538 61.5607 157 58.1246 157 53.8492ZM157 99.9869C157 95.7377 153.538 92.2754 149.289 92.2754C145.039 92.2754 141.577 95.7377 141.577 99.9869C141.577 104.236 145.039 107.698 149.289 107.698C153.538 107.725 157 104.262 157 99.9869ZM157 146.151C157 141.902 153.538 138.439 149.289 138.439C145.039 138.439 141.577 141.902 141.577 146.151C141.577 150.4 145.039 153.862 149.289 153.862C153.538 153.862 157 150.4 157 146.151ZM157 192.289C157 188.039 153.538 184.577 149.289 184.577C145.039 184.577 141.577 188.039 141.577 192.289C141.577 196.538 145.039 200 149.289 200C153.538 200 157 196.538 157 192.289ZM110.862 7.71148C110.862 3.4623 107.4 0 103.151 0C98.9016 0 95.4393 3.4623 95.4393 7.71148C95.4393 11.9607 98.9016 15.4229 103.151 15.4229C107.4 15.4229 110.862 11.9869 110.862 7.71148ZM110.862 53.8492C110.862 49.6 107.4 46.1377 103.151 46.1377C98.9016 46.1377 95.4393 49.6 95.4393 53.8492C95.4393 58.0984 98.9016 61.5607 103.151 61.5607C107.4 61.5607 110.862 58.1246 110.862 53.8492ZM110.862 99.9869C110.862 95.7377 107.4 92.2754 103.151 92.2754C98.9016 92.2754 95.4393 95.7377 95.4393 99.9869C95.4393 104.236 98.9016 107.698 103.151 107.698C107.4 107.725 110.862 104.262 110.862 99.9869ZM110.862 146.151C110.862 141.902 107.4 138.439 103.151 138.439C98.9016 138.439 95.4393 141.902 95.4393 146.151C95.4393 150.4 98.9016 153.862 103.151 153.862C107.4 153.862 110.862 150.4 110.862 146.151ZM110.862 192.289C110.862 188.039 107.4 184.577 103.151 184.577C98.9016 184.577 95.4393 188.039 95.4393 192.289C95.4393 196.538 98.9016 200 103.151 200C107.4 200 110.862 196.538 110.862 192.289ZM64.6984 7.71148C64.6984 3.4623 61.2361 0 56.9869 0C52.7377 0 49.2754 3.4623 49.2754 7.71148C49.2754 11.9607 52.7377 15.4229 56.9869 15.4229C61.2623 15.4229 64.6984 11.9869 64.6984 7.71148ZM64.6984 53.8492C64.6984 49.6 61.2361 46.1377 56.9869 46.1377C52.7377 46.1377 49.2754 49.6 49.2754 53.8492C49.2754 58.0984 52.7377 61.5607 56.9869 61.5607C61.2623 61.5607 64.6984 58.1246 64.6984 53.8492ZM64.6984 99.9869C64.6984 95.7377 61.2361 92.2754 56.9869 92.2754C52.7377 92.2754 49.2754 95.7377 49.2754 99.9869C49.2754 104.236 52.7377 107.698 56.9869 107.698C61.2623 107.725 64.6984 104.262 64.6984 99.9869ZM64.6984 146.151C64.6984 141.902 61.2361 138.439 56.9869 138.439C52.7377 138.439 49.2754 141.902 49.2754 146.151C49.2754 150.4 52.7377 153.862 56.9869 153.862C61.2623 153.862 64.6984 150.4 64.6984 146.151ZM64.6984 192.289C64.6984 188.039 61.2361 184.577 56.9869 184.577C52.7377 184.577 49.2754 188.039 49.2754 192.289C49.2754 196.538 52.7377 200 56.9869 200C61.2623 200 64.6984 196.538 64.6984 192.289ZM18.5606 7.71148C18.5606 3.4623 15.0983 0 10.8491 0C6.59991 0 3.13778 3.4623 3.13778 7.71148C3.13778 11.9607 6.59991 15.4229 10.8491 15.4229C15.1245 15.4229 18.5606 11.9869 18.5606 7.71148ZM18.5606 53.8492C18.5606 49.6 15.0983 46.1377 10.8491 46.1377C6.59991 46.1377 3.13778 49.6 3.13778 53.8492C3.13778 58.0984 6.59991 61.5607 10.8491 61.5607C15.1245 61.5607 18.5606 58.1246 18.5606 53.8492ZM18.5606 99.9869C18.5606 95.7377 15.0983 92.2754 10.8491 92.2754C6.59991 92.2754 3.13778 95.7377 3.13778 99.9869C3.13778 104.236 6.59991 107.698 10.8491 107.698C15.1245 107.725 18.5606 104.262 18.5606 99.9869ZM18.5606 146.151C18.5606 141.902 15.0983 138.439 10.8491 138.439C6.59991 138.439 3.13778 141.902 3.13778 146.151C3.13778 150.4 6.59991 153.862 10.8491 153.862C15.1245 153.862 18.5606 150.4 18.5606 146.151ZM18.5606 192.289C18.5606 188.039 15.0983 184.577 10.8491 184.577C6.59991 184.577 3.13778 188.039 3.13778 192.289C3.13778 196.538 6.59991 200 10.8491 200C15.1245 200 18.5606 196.538 18.5606 192.289ZM-27.577 7.71148C-27.577 3.4623 -31.0393 0 -35.2885 0C-39.5377 0 -43 3.4623 -43 7.71148C-43 11.9607 -39.5377 15.4229 -35.2885 15.4229C-31.0393 15.4229 -27.577 11.9869 -27.577 7.71148ZM-27.577 53.8492C-27.577 49.6 -31.0393 46.1377 -35.2885 46.1377C-39.5377 46.1377 -43 49.6 -43 53.8492C-43 58.0984 -39.5377 61.5607 -35.2885 61.5607C-31.0393 61.5607 -27.577 58.1246 -27.577 53.8492ZM-27.577 99.9869C-27.577 95.7377 -31.0393 92.2754 -35.2885 92.2754C-39.5377 92.2754 -43 95.7377 -43 99.9869C-43 104.236 -39.5377 107.698 -35.2885 107.698C-31.0393 107.698 -27.577 104.262 -27.577 99.9869ZM-27.577 146.151C-27.577 141.902 -31.0393 138.439 -35.2885 138.439C-39.5377 138.439 -43 141.902 -43 146.151C-43 150.4 -39.5377 153.862 -35.2885 153.862C-31.0393 153.862 -27.577 150.4 -27.577 146.151ZM-27.577 192.289C-27.577 188.039 -31.0393 184.577 -35.2885 184.577C-39.5377 184.577 -43 188.039 -43 192.289C-43 196.538 -39.5377 200 -35.2885 200C-31.0393 200 -27.577 196.538 -27.577 192.289Z" fill="#ECF4D8"/>
<path d="M379.289 15.4229C375.039 15.4229 371.577 11.9607 371.577 7.71148C371.577 3.4623 375.039 0 379.289 0C383.538 0 387 3.4623 387 7.71148C387 11.9869 383.538 15.4229 379.289 15.4229ZM387 53.8492C387 49.6 383.538 46.1377 379.289 46.1377C375.039 46.1377 371.577 49.6 371.577 53.8492C371.577 58.0984 375.039 61.5607 379.289 61.5607C383.538 61.5607 387 58.1246 387 53.8492ZM387 99.9869C387 95.7377 383.538 92.2754 379.289 92.2754C375.039 92.2754 371.577 95.7377 371.577 99.9869C371.577 104.236 375.039 107.698 379.289 107.698C383.538 107.725 387 104.262 387 99.9869ZM387 146.151C387 141.902 383.538 138.439 379.289 138.439C375.039 138.439 371.577 141.902 371.577 146.151C371.577 150.4 375.039 153.862 379.289 153.862C383.538 153.862 387 150.4 387 146.151ZM387 192.289C387 188.039 383.538 184.577 379.289 184.577C375.039 184.577 371.577 188.039 371.577 192.289C371.577 196.538 375.039 200 379.289 200C383.538 200 387 196.538 387 192.289ZM340.862 7.71148C340.862 3.4623 337.4 0 333.151 0C328.902 0 325.439 3.4623 325.439 7.71148C325.439 11.9607 328.902 15.4229 333.151 15.4229C337.4 15.4229 340.862 11.9869 340.862 7.71148ZM340.862 53.8492C340.862 49.6 337.4 46.1377 333.151 46.1377C328.902 46.1377 325.439 49.6 325.439 53.8492C325.439 58.0984 328.902 61.5607 333.151 61.5607C337.4 61.5607 340.862 58.1246 340.862 53.8492ZM340.862 99.9869C340.862 95.7377 337.4 92.2754 333.151 92.2754C328.902 92.2754 325.439 95.7377 325.439 99.9869C325.439 104.236 328.902 107.698 333.151 107.698C337.4 107.725 340.862 104.262 340.862 99.9869ZM340.862 146.151C340.862 141.902 337.4 138.439 333.151 138.439C328.902 138.439 325.439 141.902 325.439 146.151C325.439 150.4 328.902 153.862 333.151 153.862C337.4 153.862 340.862 150.4 340.862 146.151ZM340.862 192.289C340.862 188.039 337.4 184.577 333.151 184.577C328.902 184.577 325.439 188.039 325.439 192.289C325.439 196.538 328.902 200 333.151 200C337.4 200 340.862 196.538 340.862 192.289ZM294.698 7.71148C294.698 3.4623 291.236 0 286.987 0C282.738 0 279.275 3.4623 279.275 7.71148C279.275 11.9607 282.738 15.4229 286.987 15.4229C291.262 15.4229 294.698 11.9869 294.698 7.71148ZM294.698 53.8492C294.698 49.6 291.236 46.1377 286.987 46.1377C282.738 46.1377 279.275 49.6 279.275 53.8492C279.275 58.0984 282.738 61.5607 286.987 61.5607C291.262 61.5607 294.698 58.1246 294.698 53.8492ZM294.698 99.9869C294.698 95.7377 291.236 92.2754 286.987 92.2754C282.738 92.2754 279.275 95.7377 279.275 99.9869C279.275 104.236 282.738 107.698 286.987 107.698C291.262 107.725 294.698 104.262 294.698 99.9869ZM294.698 146.151C294.698 141.902 291.236 138.439 286.987 138.439C282.738 138.439 279.275 141.902 279.275 146.151C279.275 150.4 282.738 153.862 286.987 153.862C291.262 153.862 294.698 150.4 294.698 146.151ZM294.698 192.289C294.698 188.039 291.236 184.577 286.987 184.577C282.738 184.577 279.275 188.039 279.275 192.289C279.275 196.538 282.738 200 286.987 200C291.262 200 294.698 196.538 294.698 192.289ZM248.561 7.71148C248.561 3.4623 245.098 0 240.849 0C236.6 0 233.138 3.4623 233.138 7.71148C233.138 11.9607 236.6 15.4229 240.849 15.4229C245.125 15.4229 248.561 11.9869 248.561 7.71148ZM248.561 53.8492C248.561 49.6 245.098 46.1377 240.849 46.1377C236.6 46.1377 233.138 49.6 233.138 53.8492C233.138 58.0984 236.6 61.5607 240.849 61.5607C245.125 61.5607 248.561 58.1246 248.561 53.8492ZM248.561 99.9869C248.561 95.7377 245.098 92.2754 240.849 92.2754C236.6 92.2754 233.138 95.7377 233.138 99.9869C233.138 104.236 236.6 107.698 240.849 107.698C245.125 107.725 248.561 104.262 248.561 99.9869ZM248.561 146.151C248.561 141.902 245.098 138.439 240.849 138.439C236.6 138.439 233.138 141.902 233.138 146.151C233.138 150.4 236.6 153.862 240.849 153.862C245.125 153.862 248.561 150.4 248.561 146.151ZM248.561 192.289C248.561 188.039 245.098 184.577 240.849 184.577C236.6 184.577 233.138 188.039 233.138 192.289C233.138 196.538 236.6 200 240.849 200C245.125 200 248.561 196.538 248.561 192.289ZM202.423 7.71148C202.423 3.4623 198.961 0 194.711 0C190.462 0 187 3.4623 187 7.71148C187 11.9607 190.462 15.4229 194.711 15.4229C198.961 15.4229 202.423 11.9869 202.423 7.71148ZM202.423 53.8492C202.423 49.6 198.961 46.1377 194.711 46.1377C190.462 46.1377 187 49.6 187 53.8492C187 58.0984 190.462 61.5607 194.711 61.5607C198.961 61.5607 202.423 58.1246 202.423 53.8492ZM202.423 99.9869C202.423 95.7377 198.961 92.2754 194.711 92.2754C190.462 92.2754 187 95.7377 187 99.9869C187 104.236 190.462 107.698 194.711 107.698C198.961 107.698 202.423 104.262 202.423 99.9869ZM202.423 146.151C202.423 141.902 198.961 138.439 194.711 138.439C190.462 138.439 187 141.902 187 146.151C187 150.4 190.462 153.862 194.711 153.862C198.961 153.862 202.423 150.4 202.423 146.151ZM202.423 192.289C202.423 188.039 198.961 184.577 194.711 184.577C190.462 184.577 187 188.039 187 192.289C187 196.538 190.462 200 194.711 200C198.961 200 202.423 196.538 202.423 192.289Z" fill="#ECF4D8"/>
<path d="M609.289 15.4229C605.039 15.4229 601.577 11.9607 601.577 7.71148C601.577 3.4623 605.039 0 609.289 0C613.538 0 617 3.4623 617 7.71148C617 11.9869 613.538 15.4229 609.289 15.4229ZM617 53.8492C617 49.6 613.538 46.1377 609.289 46.1377C605.039 46.1377 601.577 49.6 601.577 53.8492C601.577 58.0984 605.039 61.5607 609.289 61.5607C613.538 61.5607 617 58.1246 617 53.8492ZM617 99.9869C617 95.7377 613.538 92.2754 609.289 92.2754C605.039 92.2754 601.577 95.7377 601.577 99.9869C601.577 104.236 605.039 107.698 609.289 107.698C613.538 107.725 617 104.262 617 99.9869ZM617 146.151C617 141.902 613.538 138.439 609.289 138.439C605.039 138.439 601.577 141.902 601.577 146.151C601.577 150.4 605.039 153.862 609.289 153.862C613.538 153.862 617 150.4 617 146.151ZM617 192.289C617 188.039 613.538 184.577 609.289 184.577C605.039 184.577 601.577 188.039 601.577 192.289C601.577 196.538 605.039 200 609.289 200C613.538 200 617 196.538 617 192.289ZM570.862 7.71148C570.862 3.4623 567.4 0 563.151 0C558.902 0 555.439 3.4623 555.439 7.71148C555.439 11.9607 558.902 15.4229 563.151 15.4229C567.4 15.4229 570.862 11.9869 570.862 7.71148ZM570.862 53.8492C570.862 49.6 567.4 46.1377 563.151 46.1377C558.902 46.1377 555.439 49.6 555.439 53.8492C555.439 58.0984 558.902 61.5607 563.151 61.5607C567.4 61.5607 570.862 58.1246 570.862 53.8492ZM570.862 99.9869C570.862 95.7377 567.4 92.2754 563.151 92.2754C558.902 92.2754 555.439 95.7377 555.439 99.9869C555.439 104.236 558.902 107.698 563.151 107.698C567.4 107.725 570.862 104.262 570.862 99.9869ZM570.862 146.151C570.862 141.902 567.4 138.439 563.151 138.439C558.902 138.439 555.439 141.902 555.439 146.151C555.439 150.4 558.902 153.862 563.151 153.862C567.4 153.862 570.862 150.4 570.862 146.151ZM570.862 192.289C570.862 188.039 567.4 184.577 563.151 184.577C558.902 184.577 555.439 188.039 555.439 192.289C555.439 196.538 558.902 200 563.151 200C567.4 200 570.862 196.538 570.862 192.289ZM524.698 7.71148C524.698 3.4623 521.236 0 516.987 0C512.738 0 509.275 3.4623 509.275 7.71148C509.275 11.9607 512.738 15.4229 516.987 15.4229C521.262 15.4229 524.698 11.9869 524.698 7.71148ZM524.698 53.8492C524.698 49.6 521.236 46.1377 516.987 46.1377C512.738 46.1377 509.275 49.6 509.275 53.8492C509.275 58.0984 512.738 61.5607 516.987 61.5607C521.262 61.5607 524.698 58.1246 524.698 53.8492ZM524.698 99.9869C524.698 95.7377 521.236 92.2754 516.987 92.2754C512.738 92.2754 509.275 95.7377 509.275 99.9869C509.275 104.236 512.738 107.698 516.987 107.698C521.262 107.725 524.698 104.262 524.698 99.9869ZM524.698 146.151C524.698 141.902 521.236 138.439 516.987 138.439C512.738 138.439 509.275 141.902 509.275 146.151C509.275 150.4 512.738 153.862 516.987 153.862C521.262 153.862 524.698 150.4 524.698 146.151ZM524.698 192.289C524.698 188.039 521.236 184.577 516.987 184.577C512.738 184.577 509.275 188.039 509.275 192.289C509.275 196.538 512.738 200 516.987 200C521.262 200 524.698 196.538 524.698 192.289ZM478.561 7.71148C478.561 3.4623 475.098 0 470.849 0C466.6 0 463.138 3.4623 463.138 7.71148C463.138 11.9607 466.6 15.4229 470.849 15.4229C475.125 15.4229 478.561 11.9869 478.561 7.71148ZM478.561 53.8492C478.561 49.6 475.098 46.1377 470.849 46.1377C466.6 46.1377 463.138 49.6 463.138 53.8492C463.138 58.0984 466.6 61.5607 470.849 61.5607C475.125 61.5607 478.561 58.1246 478.561 53.8492ZM478.561 99.9869C478.561 95.7377 475.098 92.2754 470.849 92.2754C466.6 92.2754 463.138 95.7377 463.138 99.9869C463.138 104.236 466.6 107.698 470.849 107.698C475.125 107.725 478.561 104.262 478.561 99.9869ZM478.561 146.151C478.561 141.902 475.098 138.439 470.849 138.439C466.6 138.439 463.138 141.902 463.138 146.151C463.138 150.4 466.6 153.862 470.849 153.862C475.125 153.862 478.561 150.4 478.561 146.151ZM478.561 192.289C478.561 188.039 475.098 184.577 470.849 184.577C466.6 184.577 463.138 188.039 463.138 192.289C463.138 196.538 466.6 200 470.849 200C475.125 200 478.561 196.538 478.561 192.289ZM432.423 7.71148C432.423 3.4623 428.961 0 424.711 0C420.462 0 417 3.4623 417 7.71148C417 11.9607 420.462 15.4229 424.711 15.4229C428.961 15.4229 432.423 11.9869 432.423 7.71148ZM432.423 53.8492C432.423 49.6 428.961 46.1377 424.711 46.1377C420.462 46.1377 417 49.6 417 53.8492C417 58.0984 420.462 61.5607 424.711 61.5607C428.961 61.5607 432.423 58.1246 432.423 53.8492ZM432.423 99.9869C432.423 95.7377 428.961 92.2754 424.711 92.2754C420.462 92.2754 417 95.7377 417 99.9869C417 104.236 420.462 107.698 424.711 107.698C428.961 107.698 432.423 104.262 432.423 99.9869ZM432.423 146.151C432.423 141.902 428.961 138.439 424.711 138.439C420.462 138.439 417 141.902 417 146.151C417 150.4 420.462 153.862 424.711 153.862C428.961 153.862 432.423 150.4 432.423 146.151ZM432.423 192.289C432.423 188.039 428.961 184.577 424.711 184.577C420.462 184.577 417 188.039 417 192.289C417 196.538 420.462 200 424.711 200C428.961 200 432.423 196.538 432.423 192.289Z" fill="#ECF4D8"/>
</svg>
