<svg width="1106" height="660" viewBox="0 0 1106 660" fill="none" xmlns="http://www.w3.org/2000/svg">
<path d="M178.289 15.4229C174.039 15.4229 170.577 11.9607 170.577 7.71148C170.577 3.4623 174.039 0 178.289 0C182.538 0 186 3.4623 186 7.71148C186 11.9869 182.538 15.4229 178.289 15.4229ZM186 53.8492C186 49.6 182.538 46.1377 178.289 46.1377C174.039 46.1377 170.577 49.6 170.577 53.8492C170.577 58.0984 174.039 61.5607 178.289 61.5607C182.538 61.5607 186 58.1246 186 53.8492ZM186 99.9869C186 95.7377 182.538 92.2754 178.289 92.2754C174.039 92.2754 170.577 95.7377 170.577 99.9869C170.577 104.236 174.039 107.698 178.289 107.698C182.538 107.725 186 104.262 186 99.9869ZM186 146.151C186 141.902 182.538 138.439 178.289 138.439C174.039 138.439 170.577 141.902 170.577 146.151C170.577 150.4 174.039 153.862 178.289 153.862C182.538 153.862 186 150.4 186 146.151ZM186 192.289C186 188.039 182.538 184.577 178.289 184.577C174.039 184.577 170.577 188.039 170.577 192.289C170.577 196.538 174.039 200 178.289 200C182.538 200 186 196.538 186 192.289ZM139.862 7.71148C139.862 3.4623 136.4 0 132.151 0C127.902 0 124.439 3.4623 124.439 7.71148C124.439 11.9607 127.902 15.4229 132.151 15.4229C136.4 15.4229 139.862 11.9869 139.862 7.71148ZM139.862 53.8492C139.862 49.6 136.4 46.1377 132.151 46.1377C127.902 46.1377 124.439 49.6 124.439 53.8492C124.439 58.0984 127.902 61.5607 132.151 61.5607C136.4 61.5607 139.862 58.1246 139.862 53.8492ZM139.862 99.9869C139.862 95.7377 136.4 92.2754 132.151 92.2754C127.902 92.2754 124.439 95.7377 124.439 99.9869C124.439 104.236 127.902 107.698 132.151 107.698C136.4 107.725 139.862 104.262 139.862 99.9869ZM139.862 146.151C139.862 141.902 136.4 138.439 132.151 138.439C127.902 138.439 124.439 141.902 124.439 146.151C124.439 150.4 127.902 153.862 132.151 153.862C136.4 153.862 139.862 150.4 139.862 146.151ZM139.862 192.289C139.862 188.039 136.4 184.577 132.151 184.577C127.902 184.577 124.439 188.039 124.439 192.289C124.439 196.538 127.902 200 132.151 200C136.4 200 139.862 196.538 139.862 192.289ZM93.6984 7.71148C93.6984 3.4623 90.2361 0 85.9869 0C81.7377 0 78.2754 3.4623 78.2754 7.71148C78.2754 11.9607 81.7377 15.4229 85.9869 15.4229C90.2623 15.4229 93.6984 11.9869 93.6984 7.71148ZM93.6984 53.8492C93.6984 49.6 90.2361 46.1377 85.9869 46.1377C81.7377 46.1377 78.2754 49.6 78.2754 53.8492C78.2754 58.0984 81.7377 61.5607 85.9869 61.5607C90.2623 61.5607 93.6984 58.1246 93.6984 53.8492ZM93.6984 99.9869C93.6984 95.7377 90.2361 92.2754 85.9869 92.2754C81.7377 92.2754 78.2754 95.7377 78.2754 99.9869C78.2754 104.236 81.7377 107.698 85.9869 107.698C90.2623 107.725 93.6984 104.262 93.6984 99.9869ZM93.6984 146.151C93.6984 141.902 90.2361 138.439 85.9869 138.439C81.7377 138.439 78.2754 141.902 78.2754 146.151C78.2754 150.4 81.7377 153.862 85.9869 153.862C90.2623 153.862 93.6984 150.4 93.6984 146.151ZM93.6984 192.289C93.6984 188.039 90.2361 184.577 85.9869 184.577C81.7377 184.577 78.2754 188.039 78.2754 192.289C78.2754 196.538 81.7377 200 85.9869 200C90.2623 200 93.6984 196.538 93.6984 192.289ZM47.5606 7.71148C47.5606 3.4623 44.0983 0 39.8491 0C35.5999 0 32.1378 3.4623 32.1378 7.71148C32.1378 11.9607 35.5999 15.4229 39.8491 15.4229C44.1245 15.4229 47.5606 11.9869 47.5606 7.71148ZM47.5606 53.8492C47.5606 49.6 44.0983 46.1377 39.8491 46.1377C35.5999 46.1377 32.1378 49.6 32.1378 53.8492C32.1378 58.0984 35.5999 61.5607 39.8491 61.5607C44.1245 61.5607 47.5606 58.1246 47.5606 53.8492ZM47.5606 99.9869C47.5606 95.7377 44.0983 92.2754 39.8491 92.2754C35.5999 92.2754 32.1378 95.7377 32.1378 99.9869C32.1378 104.236 35.5999 107.698 39.8491 107.698C44.1245 107.725 47.5606 104.262 47.5606 99.9869ZM47.5606 146.151C47.5606 141.902 44.0983 138.439 39.8491 138.439C35.5999 138.439 32.1378 141.902 32.1378 146.151C32.1378 150.4 35.5999 153.862 39.8491 153.862C44.1245 153.862 47.5606 150.4 47.5606 146.151ZM47.5606 192.289C47.5606 188.039 44.0983 184.577 39.8491 184.577C35.5999 184.577 32.1378 188.039 32.1378 192.289C32.1378 196.538 35.5999 200 39.8491 200C44.1245 200 47.5606 196.538 47.5606 192.289ZM1.42296 7.71148C1.42296 3.4623 -2.03934 0 -6.28852 0C-10.5377 0 -14 3.4623 -14 7.71148C-14 11.9607 -10.5377 15.4229 -6.28852 15.4229C-2.03934 15.4229 1.42296 11.9869 1.42296 7.71148ZM1.42296 53.8492C1.42296 49.6 -2.03934 46.1377 -6.28852 46.1377C-10.5377 46.1377 -14 49.6 -14 53.8492C-14 58.0984 -10.5377 61.5607 -6.28852 61.5607C-2.03934 61.5607 1.42296 58.1246 1.42296 53.8492ZM1.42296 99.9869C1.42296 95.7377 -2.03934 92.2754 -6.28852 92.2754C-10.5377 92.2754 -14 95.7377 -14 99.9869C-14 104.236 -10.5377 107.698 -6.28852 107.698C-2.03934 107.698 1.42296 104.262 1.42296 99.9869ZM1.42296 146.151C1.42296 141.902 -2.03934 138.439 -6.28852 138.439C-10.5377 138.439 -14 141.902 -14 146.151C-14 150.4 -10.5377 153.862 -6.28852 153.862C-2.03934 153.862 1.42296 150.4 1.42296 146.151ZM1.42296 192.289C1.42296 188.039 -2.03934 184.577 -6.28852 184.577C-10.5377 184.577 -14 188.039 -14 192.289C-14 196.538 -10.5377 200 -6.28852 200C-2.03934 200 1.42296 196.538 1.42296 192.289Z" fill="#ECF4D8"/>
<path d="M408.289 15.4229C404.039 15.4229 400.577 11.9607 400.577 7.71148C400.577 3.4623 404.039 0 408.289 0C412.538 0 416 3.4623 416 7.71148C416 11.9869 412.538 15.4229 408.289 15.4229ZM416 53.8492C416 49.6 412.538 46.1377 408.289 46.1377C404.039 46.1377 400.577 49.6 400.577 53.8492C400.577 58.0984 404.039 61.5607 408.289 61.5607C412.538 61.5607 416 58.1246 416 53.8492ZM416 99.9869C416 95.7377 412.538 92.2754 408.289 92.2754C404.039 92.2754 400.577 95.7377 400.577 99.9869C400.577 104.236 404.039 107.698 408.289 107.698C412.538 107.725 416 104.262 416 99.9869ZM416 146.151C416 141.902 412.538 138.439 408.289 138.439C404.039 138.439 400.577 141.902 400.577 146.151C400.577 150.4 404.039 153.862 408.289 153.862C412.538 153.862 416 150.4 416 146.151ZM416 192.289C416 188.039 412.538 184.577 408.289 184.577C404.039 184.577 400.577 188.039 400.577 192.289C400.577 196.538 404.039 200 408.289 200C412.538 200 416 196.538 416 192.289ZM369.862 7.71148C369.862 3.4623 366.4 0 362.151 0C357.902 0 354.439 3.4623 354.439 7.71148C354.439 11.9607 357.902 15.4229 362.151 15.4229C366.4 15.4229 369.862 11.9869 369.862 7.71148ZM369.862 53.8492C369.862 49.6 366.4 46.1377 362.151 46.1377C357.902 46.1377 354.439 49.6 354.439 53.8492C354.439 58.0984 357.902 61.5607 362.151 61.5607C366.4 61.5607 369.862 58.1246 369.862 53.8492ZM369.862 99.9869C369.862 95.7377 366.4 92.2754 362.151 92.2754C357.902 92.2754 354.439 95.7377 354.439 99.9869C354.439 104.236 357.902 107.698 362.151 107.698C366.4 107.725 369.862 104.262 369.862 99.9869ZM369.862 146.151C369.862 141.902 366.4 138.439 362.151 138.439C357.902 138.439 354.439 141.902 354.439 146.151C354.439 150.4 357.902 153.862 362.151 153.862C366.4 153.862 369.862 150.4 369.862 146.151ZM369.862 192.289C369.862 188.039 366.4 184.577 362.151 184.577C357.902 184.577 354.439 188.039 354.439 192.289C354.439 196.538 357.902 200 362.151 200C366.4 200 369.862 196.538 369.862 192.289ZM323.698 7.71148C323.698 3.4623 320.236 0 315.987 0C311.738 0 308.275 3.4623 308.275 7.71148C308.275 11.9607 311.738 15.4229 315.987 15.4229C320.262 15.4229 323.698 11.9869 323.698 7.71148ZM323.698 53.8492C323.698 49.6 320.236 46.1377 315.987 46.1377C311.738 46.1377 308.275 49.6 308.275 53.8492C308.275 58.0984 311.738 61.5607 315.987 61.5607C320.262 61.5607 323.698 58.1246 323.698 53.8492ZM323.698 99.9869C323.698 95.7377 320.236 92.2754 315.987 92.2754C311.738 92.2754 308.275 95.7377 308.275 99.9869C308.275 104.236 311.738 107.698 315.987 107.698C320.262 107.725 323.698 104.262 323.698 99.9869ZM323.698 146.151C323.698 141.902 320.236 138.439 315.987 138.439C311.738 138.439 308.275 141.902 308.275 146.151C308.275 150.4 311.738 153.862 315.987 153.862C320.262 153.862 323.698 150.4 323.698 146.151ZM323.698 192.289C323.698 188.039 320.236 184.577 315.987 184.577C311.738 184.577 308.275 188.039 308.275 192.289C308.275 196.538 311.738 200 315.987 200C320.262 200 323.698 196.538 323.698 192.289ZM277.561 7.71148C277.561 3.4623 274.098 0 269.849 0C265.6 0 262.138 3.4623 262.138 7.71148C262.138 11.9607 265.6 15.4229 269.849 15.4229C274.125 15.4229 277.561 11.9869 277.561 7.71148ZM277.561 53.8492C277.561 49.6 274.098 46.1377 269.849 46.1377C265.6 46.1377 262.138 49.6 262.138 53.8492C262.138 58.0984 265.6 61.5607 269.849 61.5607C274.125 61.5607 277.561 58.1246 277.561 53.8492ZM277.561 99.9869C277.561 95.7377 274.098 92.2754 269.849 92.2754C265.6 92.2754 262.138 95.7377 262.138 99.9869C262.138 104.236 265.6 107.698 269.849 107.698C274.125 107.725 277.561 104.262 277.561 99.9869ZM277.561 146.151C277.561 141.902 274.098 138.439 269.849 138.439C265.6 138.439 262.138 141.902 262.138 146.151C262.138 150.4 265.6 153.862 269.849 153.862C274.125 153.862 277.561 150.4 277.561 146.151ZM277.561 192.289C277.561 188.039 274.098 184.577 269.849 184.577C265.6 184.577 262.138 188.039 262.138 192.289C262.138 196.538 265.6 200 269.849 200C274.125 200 277.561 196.538 277.561 192.289ZM231.423 7.71148C231.423 3.4623 227.961 0 223.711 0C219.462 0 216 3.4623 216 7.71148C216 11.9607 219.462 15.4229 223.711 15.4229C227.961 15.4229 231.423 11.9869 231.423 7.71148ZM231.423 53.8492C231.423 49.6 227.961 46.1377 223.711 46.1377C219.462 46.1377 216 49.6 216 53.8492C216 58.0984 219.462 61.5607 223.711 61.5607C227.961 61.5607 231.423 58.1246 231.423 53.8492ZM231.423 99.9869C231.423 95.7377 227.961 92.2754 223.711 92.2754C219.462 92.2754 216 95.7377 216 99.9869C216 104.236 219.462 107.698 223.711 107.698C227.961 107.698 231.423 104.262 231.423 99.9869ZM231.423 146.151C231.423 141.902 227.961 138.439 223.711 138.439C219.462 138.439 216 141.902 216 146.151C216 150.4 219.462 153.862 223.711 153.862C227.961 153.862 231.423 150.4 231.423 146.151ZM231.423 192.289C231.423 188.039 227.961 184.577 223.711 184.577C219.462 184.577 216 188.039 216 192.289C216 196.538 219.462 200 223.711 200C227.961 200 231.423 196.538 231.423 192.289Z" fill="#ECF4D8"/>
<path d="M638.289 15.4229C634.039 15.4229 630.577 11.9607 630.577 7.71148C630.577 3.4623 634.039 0 638.289 0C642.538 0 646 3.4623 646 7.71148C646 11.9869 642.538 15.4229 638.289 15.4229ZM646 53.8492C646 49.6 642.538 46.1377 638.289 46.1377C634.039 46.1377 630.577 49.6 630.577 53.8492C630.577 58.0984 634.039 61.5607 638.289 61.5607C642.538 61.5607 646 58.1246 646 53.8492ZM646 99.9869C646 95.7377 642.538 92.2754 638.289 92.2754C634.039 92.2754 630.577 95.7377 630.577 99.9869C630.577 104.236 634.039 107.698 638.289 107.698C642.538 107.725 646 104.262 646 99.9869ZM646 146.151C646 141.902 642.538 138.439 638.289 138.439C634.039 138.439 630.577 141.902 630.577 146.151C630.577 150.4 634.039 153.862 638.289 153.862C642.538 153.862 646 150.4 646 146.151ZM646 192.289C646 188.039 642.538 184.577 638.289 184.577C634.039 184.577 630.577 188.039 630.577 192.289C630.577 196.538 634.039 200 638.289 200C642.538 200 646 196.538 646 192.289ZM599.862 7.71148C599.862 3.4623 596.4 0 592.151 0C587.902 0 584.439 3.4623 584.439 7.71148C584.439 11.9607 587.902 15.4229 592.151 15.4229C596.4 15.4229 599.862 11.9869 599.862 7.71148ZM599.862 53.8492C599.862 49.6 596.4 46.1377 592.151 46.1377C587.902 46.1377 584.439 49.6 584.439 53.8492C584.439 58.0984 587.902 61.5607 592.151 61.5607C596.4 61.5607 599.862 58.1246 599.862 53.8492ZM599.862 99.9869C599.862 95.7377 596.4 92.2754 592.151 92.2754C587.902 92.2754 584.439 95.7377 584.439 99.9869C584.439 104.236 587.902 107.698 592.151 107.698C596.4 107.725 599.862 104.262 599.862 99.9869ZM599.862 146.151C599.862 141.902 596.4 138.439 592.151 138.439C587.902 138.439 584.439 141.902 584.439 146.151C584.439 150.4 587.902 153.862 592.151 153.862C596.4 153.862 599.862 150.4 599.862 146.151ZM599.862 192.289C599.862 188.039 596.4 184.577 592.151 184.577C587.902 184.577 584.439 188.039 584.439 192.289C584.439 196.538 587.902 200 592.151 200C596.4 200 599.862 196.538 599.862 192.289ZM553.698 7.71148C553.698 3.4623 550.236 0 545.987 0C541.738 0 538.275 3.4623 538.275 7.71148C538.275 11.9607 541.738 15.4229 545.987 15.4229C550.262 15.4229 553.698 11.9869 553.698 7.71148ZM553.698 53.8492C553.698 49.6 550.236 46.1377 545.987 46.1377C541.738 46.1377 538.275 49.6 538.275 53.8492C538.275 58.0984 541.738 61.5607 545.987 61.5607C550.262 61.5607 553.698 58.1246 553.698 53.8492ZM553.698 99.9869C553.698 95.7377 550.236 92.2754 545.987 92.2754C541.738 92.2754 538.275 95.7377 538.275 99.9869C538.275 104.236 541.738 107.698 545.987 107.698C550.262 107.725 553.698 104.262 553.698 99.9869ZM553.698 146.151C553.698 141.902 550.236 138.439 545.987 138.439C541.738 138.439 538.275 141.902 538.275 146.151C538.275 150.4 541.738 153.862 545.987 153.862C550.262 153.862 553.698 150.4 553.698 146.151ZM553.698 192.289C553.698 188.039 550.236 184.577 545.987 184.577C541.738 184.577 538.275 188.039 538.275 192.289C538.275 196.538 541.738 200 545.987 200C550.262 200 553.698 196.538 553.698 192.289ZM507.561 7.71148C507.561 3.4623 504.098 0 499.849 0C495.6 0 492.138 3.4623 492.138 7.71148C492.138 11.9607 495.6 15.4229 499.849 15.4229C504.125 15.4229 507.561 11.9869 507.561 7.71148ZM507.561 53.8492C507.561 49.6 504.098 46.1377 499.849 46.1377C495.6 46.1377 492.138 49.6 492.138 53.8492C492.138 58.0984 495.6 61.5607 499.849 61.5607C504.125 61.5607 507.561 58.1246 507.561 53.8492ZM507.561 99.9869C507.561 95.7377 504.098 92.2754 499.849 92.2754C495.6 92.2754 492.138 95.7377 492.138 99.9869C492.138 104.236 495.6 107.698 499.849 107.698C504.125 107.725 507.561 104.262 507.561 99.9869ZM507.561 146.151C507.561 141.902 504.098 138.439 499.849 138.439C495.6 138.439 492.138 141.902 492.138 146.151C492.138 150.4 495.6 153.862 499.849 153.862C504.125 153.862 507.561 150.4 507.561 146.151ZM507.561 192.289C507.561 188.039 504.098 184.577 499.849 184.577C495.6 184.577 492.138 188.039 492.138 192.289C492.138 196.538 495.6 200 499.849 200C504.125 200 507.561 196.538 507.561 192.289ZM461.423 7.71148C461.423 3.4623 457.961 0 453.711 0C449.462 0 446 3.4623 446 7.71148C446 11.9607 449.462 15.4229 453.711 15.4229C457.961 15.4229 461.423 11.9869 461.423 7.71148ZM461.423 53.8492C461.423 49.6 457.961 46.1377 453.711 46.1377C449.462 46.1377 446 49.6 446 53.8492C446 58.0984 449.462 61.5607 453.711 61.5607C457.961 61.5607 461.423 58.1246 461.423 53.8492ZM461.423 99.9869C461.423 95.7377 457.961 92.2754 453.711 92.2754C449.462 92.2754 446 95.7377 446 99.9869C446 104.236 449.462 107.698 453.711 107.698C457.961 107.698 461.423 104.262 461.423 99.9869ZM461.423 146.151C461.423 141.902 457.961 138.439 453.711 138.439C449.462 138.439 446 141.902 446 146.151C446 150.4 449.462 153.862 453.711 153.862C457.961 153.862 461.423 150.4 461.423 146.151ZM461.423 192.289C461.423 188.039 457.961 184.577 453.711 184.577C449.462 184.577 446 188.039 446 192.289C446 196.538 449.462 200 453.711 200C457.961 200 461.423 196.538 461.423 192.289Z" fill="#ECF4D8"/>
<path d="M178.289 245.423C174.039 245.423 170.577 241.961 170.577 237.711C170.577 233.462 174.039 230 178.289 230C182.538 230 186 233.462 186 237.711C186 241.987 182.538 245.423 178.289 245.423ZM186 283.849C186 279.6 182.538 276.138 178.289 276.138C174.039 276.138 170.577 279.6 170.577 283.849C170.577 288.098 174.039 291.561 178.289 291.561C182.538 291.561 186 288.125 186 283.849ZM186 329.987C186 325.738 182.538 322.275 178.289 322.275C174.039 322.275 170.577 325.738 170.577 329.987C170.577 334.236 174.039 337.698 178.289 337.698C182.538 337.725 186 334.262 186 329.987ZM186 376.151C186 371.902 182.538 368.439 178.289 368.439C174.039 368.439 170.577 371.902 170.577 376.151C170.577 380.4 174.039 383.862 178.289 383.862C182.538 383.862 186 380.4 186 376.151ZM186 422.289C186 418.039 182.538 414.577 178.289 414.577C174.039 414.577 170.577 418.039 170.577 422.289C170.577 426.538 174.039 430 178.289 430C182.538 430 186 426.538 186 422.289ZM139.862 237.711C139.862 233.462 136.4 230 132.151 230C127.902 230 124.439 233.462 124.439 237.711C124.439 241.961 127.902 245.423 132.151 245.423C136.4 245.423 139.862 241.987 139.862 237.711ZM139.862 283.849C139.862 279.6 136.4 276.138 132.151 276.138C127.902 276.138 124.439 279.6 124.439 283.849C124.439 288.098 127.902 291.561 132.151 291.561C136.4 291.561 139.862 288.125 139.862 283.849ZM139.862 329.987C139.862 325.738 136.4 322.275 132.151 322.275C127.902 322.275 124.439 325.738 124.439 329.987C124.439 334.236 127.902 337.698 132.151 337.698C136.4 337.725 139.862 334.262 139.862 329.987ZM139.862 376.151C139.862 371.902 136.4 368.439 132.151 368.439C127.902 368.439 124.439 371.902 124.439 376.151C124.439 380.4 127.902 383.862 132.151 383.862C136.4 383.862 139.862 380.4 139.862 376.151ZM139.862 422.289C139.862 418.039 136.4 414.577 132.151 414.577C127.902 414.577 124.439 418.039 124.439 422.289C124.439 426.538 127.902 430 132.151 430C136.4 430 139.862 426.538 139.862 422.289ZM93.6984 237.711C93.6984 233.462 90.2361 230 85.9869 230C81.7377 230 78.2754 233.462 78.2754 237.711C78.2754 241.961 81.7377 245.423 85.9869 245.423C90.2623 245.423 93.6984 241.987 93.6984 237.711ZM93.6984 283.849C93.6984 279.6 90.2361 276.138 85.9869 276.138C81.7377 276.138 78.2754 279.6 78.2754 283.849C78.2754 288.098 81.7377 291.561 85.9869 291.561C90.2623 291.561 93.6984 288.125 93.6984 283.849ZM93.6984 329.987C93.6984 325.738 90.2361 322.275 85.9869 322.275C81.7377 322.275 78.2754 325.738 78.2754 329.987C78.2754 334.236 81.7377 337.698 85.9869 337.698C90.2623 337.725 93.6984 334.262 93.6984 329.987ZM93.6984 376.151C93.6984 371.902 90.2361 368.439 85.9869 368.439C81.7377 368.439 78.2754 371.902 78.2754 376.151C78.2754 380.4 81.7377 383.862 85.9869 383.862C90.2623 383.862 93.6984 380.4 93.6984 376.151ZM93.6984 422.289C93.6984 418.039 90.2361 414.577 85.9869 414.577C81.7377 414.577 78.2754 418.039 78.2754 422.289C78.2754 426.538 81.7377 430 85.9869 430C90.2623 430 93.6984 426.538 93.6984 422.289ZM47.5606 237.711C47.5606 233.462 44.0983 230 39.8491 230C35.5999 230 32.1378 233.462 32.1378 237.711C32.1378 241.961 35.5999 245.423 39.8491 245.423C44.1245 245.423 47.5606 241.987 47.5606 237.711ZM47.5606 283.849C47.5606 279.6 44.0983 276.138 39.8491 276.138C35.5999 276.138 32.1378 279.6 32.1378 283.849C32.1378 288.098 35.5999 291.561 39.8491 291.561C44.1245 291.561 47.5606 288.125 47.5606 283.849ZM47.5606 329.987C47.5606 325.738 44.0983 322.275 39.8491 322.275C35.5999 322.275 32.1378 325.738 32.1378 329.987C32.1378 334.236 35.5999 337.698 39.8491 337.698C44.1245 337.725 47.5606 334.262 47.5606 329.987ZM47.5606 376.151C47.5606 371.902 44.0983 368.439 39.8491 368.439C35.5999 368.439 32.1378 371.902 32.1378 376.151C32.1378 380.4 35.5999 383.862 39.8491 383.862C44.1245 383.862 47.5606 380.4 47.5606 376.151ZM47.5606 422.289C47.5606 418.039 44.0983 414.577 39.8491 414.577C35.5999 414.577 32.1378 418.039 32.1378 422.289C32.1378 426.538 35.5999 430 39.8491 430C44.1245 430 47.5606 426.538 47.5606 422.289ZM1.42296 237.711C1.42296 233.462 -2.03934 230 -6.28852 230C-10.5377 230 -14 233.462 -14 237.711C-14 241.961 -10.5377 245.423 -6.28852 245.423C-2.03934 245.423 1.42296 241.987 1.42296 237.711ZM1.42296 283.849C1.42296 279.6 -2.03934 276.138 -6.28852 276.138C-10.5377 276.138 -14 279.6 -14 283.849C-14 288.098 -10.5377 291.561 -6.28852 291.561C-2.03934 291.561 1.42296 288.125 1.42296 283.849ZM1.42296 329.987C1.42296 325.738 -2.03934 322.275 -6.28852 322.275C-10.5377 322.275 -14 325.738 -14 329.987C-14 334.236 -10.5377 337.698 -6.28852 337.698C-2.03934 337.698 1.42296 334.262 1.42296 329.987ZM1.42296 376.151C1.42296 371.902 -2.03934 368.439 -6.28852 368.439C-10.5377 368.439 -14 371.902 -14 376.151C-14 380.4 -10.5377 383.862 -6.28852 383.862C-2.03934 383.862 1.42296 380.4 1.42296 376.151ZM1.42296 422.289C1.42296 418.039 -2.03934 414.577 -6.28852 414.577C-10.5377 414.577 -14 418.039 -14 422.289C-14 426.538 -10.5377 430 -6.28852 430C-2.03934 430 1.42296 426.538 1.42296 422.289Z" fill="#ECF4D8"/>
<path d="M408.289 245.423C404.039 245.423 400.577 241.961 400.577 237.711C400.577 233.462 404.039 230 408.289 230C412.538 230 416 233.462 416 237.711C416 241.987 412.538 245.423 408.289 245.423ZM416 283.849C416 279.6 412.538 276.138 408.289 276.138C404.039 276.138 400.577 279.6 400.577 283.849C400.577 288.098 404.039 291.561 408.289 291.561C412.538 291.561 416 288.125 416 283.849ZM416 329.987C416 325.738 412.538 322.275 408.289 322.275C404.039 322.275 400.577 325.738 400.577 329.987C400.577 334.236 404.039 337.698 408.289 337.698C412.538 337.725 416 334.262 416 329.987ZM416 376.151C416 371.902 412.538 368.439 408.289 368.439C404.039 368.439 400.577 371.902 400.577 376.151C400.577 380.4 404.039 383.862 408.289 383.862C412.538 383.862 416 380.4 416 376.151ZM416 422.289C416 418.039 412.538 414.577 408.289 414.577C404.039 414.577 400.577 418.039 400.577 422.289C400.577 426.538 404.039 430 408.289 430C412.538 430 416 426.538 416 422.289ZM369.862 237.711C369.862 233.462 366.4 230 362.151 230C357.902 230 354.439 233.462 354.439 237.711C354.439 241.961 357.902 245.423 362.151 245.423C366.4 245.423 369.862 241.987 369.862 237.711ZM369.862 283.849C369.862 279.6 366.4 276.138 362.151 276.138C357.902 276.138 354.439 279.6 354.439 283.849C354.439 288.098 357.902 291.561 362.151 291.561C366.4 291.561 369.862 288.125 369.862 283.849ZM369.862 329.987C369.862 325.738 366.4 322.275 362.151 322.275C357.902 322.275 354.439 325.738 354.439 329.987C354.439 334.236 357.902 337.698 362.151 337.698C366.4 337.725 369.862 334.262 369.862 329.987ZM369.862 376.151C369.862 371.902 366.4 368.439 362.151 368.439C357.902 368.439 354.439 371.902 354.439 376.151C354.439 380.4 357.902 383.862 362.151 383.862C366.4 383.862 369.862 380.4 369.862 376.151ZM369.862 422.289C369.862 418.039 366.4 414.577 362.151 414.577C357.902 414.577 354.439 418.039 354.439 422.289C354.439 426.538 357.902 430 362.151 430C366.4 430 369.862 426.538 369.862 422.289ZM323.698 237.711C323.698 233.462 320.236 230 315.987 230C311.738 230 308.275 233.462 308.275 237.711C308.275 241.961 311.738 245.423 315.987 245.423C320.262 245.423 323.698 241.987 323.698 237.711ZM323.698 283.849C323.698 279.6 320.236 276.138 315.987 276.138C311.738 276.138 308.275 279.6 308.275 283.849C308.275 288.098 311.738 291.561 315.987 291.561C320.262 291.561 323.698 288.125 323.698 283.849ZM323.698 329.987C323.698 325.738 320.236 322.275 315.987 322.275C311.738 322.275 308.275 325.738 308.275 329.987C308.275 334.236 311.738 337.698 315.987 337.698C320.262 337.725 323.698 334.262 323.698 329.987ZM323.698 376.151C323.698 371.902 320.236 368.439 315.987 368.439C311.738 368.439 308.275 371.902 308.275 376.151C308.275 380.4 311.738 383.862 315.987 383.862C320.262 383.862 323.698 380.4 323.698 376.151ZM323.698 422.289C323.698 418.039 320.236 414.577 315.987 414.577C311.738 414.577 308.275 418.039 308.275 422.289C308.275 426.538 311.738 430 315.987 430C320.262 430 323.698 426.538 323.698 422.289ZM277.561 237.711C277.561 233.462 274.098 230 269.849 230C265.6 230 262.138 233.462 262.138 237.711C262.138 241.961 265.6 245.423 269.849 245.423C274.125 245.423 277.561 241.987 277.561 237.711ZM277.561 283.849C277.561 279.6 274.098 276.138 269.849 276.138C265.6 276.138 262.138 279.6 262.138 283.849C262.138 288.098 265.6 291.561 269.849 291.561C274.125 291.561 277.561 288.125 277.561 283.849ZM277.561 329.987C277.561 325.738 274.098 322.275 269.849 322.275C265.6 322.275 262.138 325.738 262.138 329.987C262.138 334.236 265.6 337.698 269.849 337.698C274.125 337.725 277.561 334.262 277.561 329.987ZM277.561 376.151C277.561 371.902 274.098 368.439 269.849 368.439C265.6 368.439 262.138 371.902 262.138 376.151C262.138 380.4 265.6 383.862 269.849 383.862C274.125 383.862 277.561 380.4 277.561 376.151ZM277.561 422.289C277.561 418.039 274.098 414.577 269.849 414.577C265.6 414.577 262.138 418.039 262.138 422.289C262.138 426.538 265.6 430 269.849 430C274.125 430 277.561 426.538 277.561 422.289ZM231.423 237.711C231.423 233.462 227.961 230 223.711 230C219.462 230 216 233.462 216 237.711C216 241.961 219.462 245.423 223.711 245.423C227.961 245.423 231.423 241.987 231.423 237.711ZM231.423 283.849C231.423 279.6 227.961 276.138 223.711 276.138C219.462 276.138 216 279.6 216 283.849C216 288.098 219.462 291.561 223.711 291.561C227.961 291.561 231.423 288.125 231.423 283.849ZM231.423 329.987C231.423 325.738 227.961 322.275 223.711 322.275C219.462 322.275 216 325.738 216 329.987C216 334.236 219.462 337.698 223.711 337.698C227.961 337.698 231.423 334.262 231.423 329.987ZM231.423 376.151C231.423 371.902 227.961 368.439 223.711 368.439C219.462 368.439 216 371.902 216 376.151C216 380.4 219.462 383.862 223.711 383.862C227.961 383.862 231.423 380.4 231.423 376.151ZM231.423 422.289C231.423 418.039 227.961 414.577 223.711 414.577C219.462 414.577 216 418.039 216 422.289C216 426.538 219.462 430 223.711 430C227.961 430 231.423 426.538 231.423 422.289Z" fill="#ECF4D8"/>
<path d="M638.289 245.423C634.039 245.423 630.577 241.961 630.577 237.711C630.577 233.462 634.039 230 638.289 230C642.538 230 646 233.462 646 237.711C646 241.987 642.538 245.423 638.289 245.423ZM646 283.849C646 279.6 642.538 276.138 638.289 276.138C634.039 276.138 630.577 279.6 630.577 283.849C630.577 288.098 634.039 291.561 638.289 291.561C642.538 291.561 646 288.125 646 283.849ZM646 329.987C646 325.738 642.538 322.275 638.289 322.275C634.039 322.275 630.577 325.738 630.577 329.987C630.577 334.236 634.039 337.698 638.289 337.698C642.538 337.725 646 334.262 646 329.987ZM646 376.151C646 371.902 642.538 368.439 638.289 368.439C634.039 368.439 630.577 371.902 630.577 376.151C630.577 380.4 634.039 383.862 638.289 383.862C642.538 383.862 646 380.4 646 376.151ZM646 422.289C646 418.039 642.538 414.577 638.289 414.577C634.039 414.577 630.577 418.039 630.577 422.289C630.577 426.538 634.039 430 638.289 430C642.538 430 646 426.538 646 422.289ZM599.862 237.711C599.862 233.462 596.4 230 592.151 230C587.902 230 584.439 233.462 584.439 237.711C584.439 241.961 587.902 245.423 592.151 245.423C596.4 245.423 599.862 241.987 599.862 237.711ZM599.862 283.849C599.862 279.6 596.4 276.138 592.151 276.138C587.902 276.138 584.439 279.6 584.439 283.849C584.439 288.098 587.902 291.561 592.151 291.561C596.4 291.561 599.862 288.125 599.862 283.849ZM599.862 329.987C599.862 325.738 596.4 322.275 592.151 322.275C587.902 322.275 584.439 325.738 584.439 329.987C584.439 334.236 587.902 337.698 592.151 337.698C596.4 337.725 599.862 334.262 599.862 329.987ZM599.862 376.151C599.862 371.902 596.4 368.439 592.151 368.439C587.902 368.439 584.439 371.902 584.439 376.151C584.439 380.4 587.902 383.862 592.151 383.862C596.4 383.862 599.862 380.4 599.862 376.151ZM599.862 422.289C599.862 418.039 596.4 414.577 592.151 414.577C587.902 414.577 584.439 418.039 584.439 422.289C584.439 426.538 587.902 430 592.151 430C596.4 430 599.862 426.538 599.862 422.289ZM553.698 237.711C553.698 233.462 550.236 230 545.987 230C541.738 230 538.275 233.462 538.275 237.711C538.275 241.961 541.738 245.423 545.987 245.423C550.262 245.423 553.698 241.987 553.698 237.711ZM553.698 283.849C553.698 279.6 550.236 276.138 545.987 276.138C541.738 276.138 538.275 279.6 538.275 283.849C538.275 288.098 541.738 291.561 545.987 291.561C550.262 291.561 553.698 288.125 553.698 283.849ZM553.698 329.987C553.698 325.738 550.236 322.275 545.987 322.275C541.738 322.275 538.275 325.738 538.275 329.987C538.275 334.236 541.738 337.698 545.987 337.698C550.262 337.725 553.698 334.262 553.698 329.987ZM553.698 376.151C553.698 371.902 550.236 368.439 545.987 368.439C541.738 368.439 538.275 371.902 538.275 376.151C538.275 380.4 541.738 383.862 545.987 383.862C550.262 383.862 553.698 380.4 553.698 376.151ZM553.698 422.289C553.698 418.039 550.236 414.577 545.987 414.577C541.738 414.577 538.275 418.039 538.275 422.289C538.275 426.538 541.738 430 545.987 430C550.262 430 553.698 426.538 553.698 422.289ZM507.561 237.711C507.561 233.462 504.098 230 499.849 230C495.6 230 492.138 233.462 492.138 237.711C492.138 241.961 495.6 245.423 499.849 245.423C504.125 245.423 507.561 241.987 507.561 237.711ZM507.561 283.849C507.561 279.6 504.098 276.138 499.849 276.138C495.6 276.138 492.138 279.6 492.138 283.849C492.138 288.098 495.6 291.561 499.849 291.561C504.125 291.561 507.561 288.125 507.561 283.849ZM507.561 329.987C507.561 325.738 504.098 322.275 499.849 322.275C495.6 322.275 492.138 325.738 492.138 329.987C492.138 334.236 495.6 337.698 499.849 337.698C504.125 337.725 507.561 334.262 507.561 329.987ZM507.561 376.151C507.561 371.902 504.098 368.439 499.849 368.439C495.6 368.439 492.138 371.902 492.138 376.151C492.138 380.4 495.6 383.862 499.849 383.862C504.125 383.862 507.561 380.4 507.561 376.151ZM507.561 422.289C507.561 418.039 504.098 414.577 499.849 414.577C495.6 414.577 492.138 418.039 492.138 422.289C492.138 426.538 495.6 430 499.849 430C504.125 430 507.561 426.538 507.561 422.289ZM461.423 237.711C461.423 233.462 457.961 230 453.711 230C449.462 230 446 233.462 446 237.711C446 241.961 449.462 245.423 453.711 245.423C457.961 245.423 461.423 241.987 461.423 237.711ZM461.423 283.849C461.423 279.6 457.961 276.138 453.711 276.138C449.462 276.138 446 279.6 446 283.849C446 288.098 449.462 291.561 453.711 291.561C457.961 291.561 461.423 288.125 461.423 283.849ZM461.423 329.987C461.423 325.738 457.961 322.275 453.711 322.275C449.462 322.275 446 325.738 446 329.987C446 334.236 449.462 337.698 453.711 337.698C457.961 337.698 461.423 334.262 461.423 329.987ZM461.423 376.151C461.423 371.902 457.961 368.439 453.711 368.439C449.462 368.439 446 371.902 446 376.151C446 380.4 449.462 383.862 453.711 383.862C457.961 383.862 461.423 380.4 461.423 376.151ZM461.423 422.289C461.423 418.039 457.961 414.577 453.711 414.577C449.462 414.577 446 418.039 446 422.289C446 426.538 449.462 430 453.711 430C457.961 430 461.423 426.538 461.423 422.289Z" fill="#ECF4D8"/>
<path d="M868.289 245.423C864.039 245.423 860.577 241.961 860.577 237.711C860.577 233.462 864.039 230 868.289 230C872.538 230 876 233.462 876 237.711C876 241.987 872.538 245.423 868.289 245.423ZM876 283.849C876 279.6 872.538 276.138 868.289 276.138C864.039 276.138 860.577 279.6 860.577 283.849C860.577 288.098 864.039 291.561 868.289 291.561C872.538 291.561 876 288.125 876 283.849ZM876 329.987C876 325.738 872.538 322.275 868.289 322.275C864.039 322.275 860.577 325.738 860.577 329.987C860.577 334.236 864.039 337.698 868.289 337.698C872.538 337.725 876 334.262 876 329.987ZM876 376.151C876 371.902 872.538 368.439 868.289 368.439C864.039 368.439 860.577 371.902 860.577 376.151C860.577 380.4 864.039 383.862 868.289 383.862C872.538 383.862 876 380.4 876 376.151ZM876 422.289C876 418.039 872.538 414.577 868.289 414.577C864.039 414.577 860.577 418.039 860.577 422.289C860.577 426.538 864.039 430 868.289 430C872.538 430 876 426.538 876 422.289ZM829.862 237.711C829.862 233.462 826.4 230 822.151 230C817.902 230 814.439 233.462 814.439 237.711C814.439 241.961 817.902 245.423 822.151 245.423C826.4 245.423 829.862 241.987 829.862 237.711ZM829.862 283.849C829.862 279.6 826.4 276.138 822.151 276.138C817.902 276.138 814.439 279.6 814.439 283.849C814.439 288.098 817.902 291.561 822.151 291.561C826.4 291.561 829.862 288.125 829.862 283.849ZM829.862 329.987C829.862 325.738 826.4 322.275 822.151 322.275C817.902 322.275 814.439 325.738 814.439 329.987C814.439 334.236 817.902 337.698 822.151 337.698C826.4 337.725 829.862 334.262 829.862 329.987ZM829.862 376.151C829.862 371.902 826.4 368.439 822.151 368.439C817.902 368.439 814.439 371.902 814.439 376.151C814.439 380.4 817.902 383.862 822.151 383.862C826.4 383.862 829.862 380.4 829.862 376.151ZM829.862 422.289C829.862 418.039 826.4 414.577 822.151 414.577C817.902 414.577 814.439 418.039 814.439 422.289C814.439 426.538 817.902 430 822.151 430C826.4 430 829.862 426.538 829.862 422.289ZM783.698 237.711C783.698 233.462 780.236 230 775.987 230C771.738 230 768.275 233.462 768.275 237.711C768.275 241.961 771.738 245.423 775.987 245.423C780.262 245.423 783.698 241.987 783.698 237.711ZM783.698 283.849C783.698 279.6 780.236 276.138 775.987 276.138C771.738 276.138 768.275 279.6 768.275 283.849C768.275 288.098 771.738 291.561 775.987 291.561C780.262 291.561 783.698 288.125 783.698 283.849ZM783.698 329.987C783.698 325.738 780.236 322.275 775.987 322.275C771.738 322.275 768.275 325.738 768.275 329.987C768.275 334.236 771.738 337.698 775.987 337.698C780.262 337.725 783.698 334.262 783.698 329.987ZM783.698 376.151C783.698 371.902 780.236 368.439 775.987 368.439C771.738 368.439 768.275 371.902 768.275 376.151C768.275 380.4 771.738 383.862 775.987 383.862C780.262 383.862 783.698 380.4 783.698 376.151ZM783.698 422.289C783.698 418.039 780.236 414.577 775.987 414.577C771.738 414.577 768.275 418.039 768.275 422.289C768.275 426.538 771.738 430 775.987 430C780.262 430 783.698 426.538 783.698 422.289ZM737.561 237.711C737.561 233.462 734.098 230 729.849 230C725.6 230 722.138 233.462 722.138 237.711C722.138 241.961 725.6 245.423 729.849 245.423C734.125 245.423 737.561 241.987 737.561 237.711ZM737.561 283.849C737.561 279.6 734.098 276.138 729.849 276.138C725.6 276.138 722.138 279.6 722.138 283.849C722.138 288.098 725.6 291.561 729.849 291.561C734.125 291.561 737.561 288.125 737.561 283.849ZM737.561 329.987C737.561 325.738 734.098 322.275 729.849 322.275C725.6 322.275 722.138 325.738 722.138 329.987C722.138 334.236 725.6 337.698 729.849 337.698C734.125 337.725 737.561 334.262 737.561 329.987ZM737.561 376.151C737.561 371.902 734.098 368.439 729.849 368.439C725.6 368.439 722.138 371.902 722.138 376.151C722.138 380.4 725.6 383.862 729.849 383.862C734.125 383.862 737.561 380.4 737.561 376.151ZM737.561 422.289C737.561 418.039 734.098 414.577 729.849 414.577C725.6 414.577 722.138 418.039 722.138 422.289C722.138 426.538 725.6 430 729.849 430C734.125 430 737.561 426.538 737.561 422.289ZM691.423 237.711C691.423 233.462 687.961 230 683.711 230C679.462 230 676 233.462 676 237.711C676 241.961 679.462 245.423 683.711 245.423C687.961 245.423 691.423 241.987 691.423 237.711ZM691.423 283.849C691.423 279.6 687.961 276.138 683.711 276.138C679.462 276.138 676 279.6 676 283.849C676 288.098 679.462 291.561 683.711 291.561C687.961 291.561 691.423 288.125 691.423 283.849ZM691.423 329.987C691.423 325.738 687.961 322.275 683.711 322.275C679.462 322.275 676 325.738 676 329.987C676 334.236 679.462 337.698 683.711 337.698C687.961 337.698 691.423 334.262 691.423 329.987ZM691.423 376.151C691.423 371.902 687.961 368.439 683.711 368.439C679.462 368.439 676 371.902 676 376.151C676 380.4 679.462 383.862 683.711 383.862C687.961 383.862 691.423 380.4 691.423 376.151ZM691.423 422.289C691.423 418.039 687.961 414.577 683.711 414.577C679.462 414.577 676 418.039 676 422.289C676 426.538 679.462 430 683.711 430C687.961 430 691.423 426.538 691.423 422.289Z" fill="#ECF4D8"/>
<path d="M178.289 475.423C174.039 475.423 170.577 471.961 170.577 467.711C170.577 463.462 174.039 460 178.289 460C182.538 460 186 463.462 186 467.711C186 471.987 182.538 475.423 178.289 475.423ZM186 513.849C186 509.6 182.538 506.138 178.289 506.138C174.039 506.138 170.577 509.6 170.577 513.849C170.577 518.098 174.039 521.561 178.289 521.561C182.538 521.561 186 518.125 186 513.849ZM186 559.987C186 555.738 182.538 552.275 178.289 552.275C174.039 552.275 170.577 555.738 170.577 559.987C170.577 564.236 174.039 567.698 178.289 567.698C182.538 567.725 186 564.262 186 559.987ZM186 606.151C186 601.902 182.538 598.439 178.289 598.439C174.039 598.439 170.577 601.902 170.577 606.151C170.577 610.4 174.039 613.862 178.289 613.862C182.538 613.862 186 610.4 186 606.151ZM186 652.289C186 648.039 182.538 644.577 178.289 644.577C174.039 644.577 170.577 648.039 170.577 652.289C170.577 656.538 174.039 660 178.289 660C182.538 660 186 656.538 186 652.289ZM139.862 467.711C139.862 463.462 136.4 460 132.151 460C127.902 460 124.439 463.462 124.439 467.711C124.439 471.961 127.902 475.423 132.151 475.423C136.4 475.423 139.862 471.987 139.862 467.711ZM139.862 513.849C139.862 509.6 136.4 506.138 132.151 506.138C127.902 506.138 124.439 509.6 124.439 513.849C124.439 518.098 127.902 521.561 132.151 521.561C136.4 521.561 139.862 518.125 139.862 513.849ZM139.862 559.987C139.862 555.738 136.4 552.275 132.151 552.275C127.902 552.275 124.439 555.738 124.439 559.987C124.439 564.236 127.902 567.698 132.151 567.698C136.4 567.725 139.862 564.262 139.862 559.987ZM139.862 606.151C139.862 601.902 136.4 598.439 132.151 598.439C127.902 598.439 124.439 601.902 124.439 606.151C124.439 610.4 127.902 613.862 132.151 613.862C136.4 613.862 139.862 610.4 139.862 606.151ZM139.862 652.289C139.862 648.039 136.4 644.577 132.151 644.577C127.902 644.577 124.439 648.039 124.439 652.289C124.439 656.538 127.902 660 132.151 660C136.4 660 139.862 656.538 139.862 652.289ZM93.6984 467.711C93.6984 463.462 90.2361 460 85.9869 460C81.7377 460 78.2754 463.462 78.2754 467.711C78.2754 471.961 81.7377 475.423 85.9869 475.423C90.2623 475.423 93.6984 471.987 93.6984 467.711ZM93.6984 513.849C93.6984 509.6 90.2361 506.138 85.9869 506.138C81.7377 506.138 78.2754 509.6 78.2754 513.849C78.2754 518.098 81.7377 521.561 85.9869 521.561C90.2623 521.561 93.6984 518.125 93.6984 513.849ZM93.6984 559.987C93.6984 555.738 90.2361 552.275 85.9869 552.275C81.7377 552.275 78.2754 555.738 78.2754 559.987C78.2754 564.236 81.7377 567.698 85.9869 567.698C90.2623 567.725 93.6984 564.262 93.6984 559.987ZM93.6984 606.151C93.6984 601.902 90.2361 598.439 85.9869 598.439C81.7377 598.439 78.2754 601.902 78.2754 606.151C78.2754 610.4 81.7377 613.862 85.9869 613.862C90.2623 613.862 93.6984 610.4 93.6984 606.151ZM93.6984 652.289C93.6984 648.039 90.2361 644.577 85.9869 644.577C81.7377 644.577 78.2754 648.039 78.2754 652.289C78.2754 656.538 81.7377 660 85.9869 660C90.2623 660 93.6984 656.538 93.6984 652.289ZM47.5606 467.711C47.5606 463.462 44.0983 460 39.8491 460C35.5999 460 32.1378 463.462 32.1378 467.711C32.1378 471.961 35.5999 475.423 39.8491 475.423C44.1245 475.423 47.5606 471.987 47.5606 467.711ZM47.5606 513.849C47.5606 509.6 44.0983 506.138 39.8491 506.138C35.5999 506.138 32.1378 509.6 32.1378 513.849C32.1378 518.098 35.5999 521.561 39.8491 521.561C44.1245 521.561 47.5606 518.125 47.5606 513.849ZM47.5606 559.987C47.5606 555.738 44.0983 552.275 39.8491 552.275C35.5999 552.275 32.1378 555.738 32.1378 559.987C32.1378 564.236 35.5999 567.698 39.8491 567.698C44.1245 567.725 47.5606 564.262 47.5606 559.987ZM47.5606 606.151C47.5606 601.902 44.0983 598.439 39.8491 598.439C35.5999 598.439 32.1378 601.902 32.1378 606.151C32.1378 610.4 35.5999 613.862 39.8491 613.862C44.1245 613.862 47.5606 610.4 47.5606 606.151ZM47.5606 652.289C47.5606 648.039 44.0983 644.577 39.8491 644.577C35.5999 644.577 32.1378 648.039 32.1378 652.289C32.1378 656.538 35.5999 660 39.8491 660C44.1245 660 47.5606 656.538 47.5606 652.289ZM1.42296 467.711C1.42296 463.462 -2.03934 460 -6.28852 460C-10.5377 460 -14 463.462 -14 467.711C-14 471.961 -10.5377 475.423 -6.28852 475.423C-2.03934 475.423 1.42296 471.987 1.42296 467.711ZM1.42296 513.849C1.42296 509.6 -2.03934 506.138 -6.28852 506.138C-10.5377 506.138 -14 509.6 -14 513.849C-14 518.098 -10.5377 521.561 -6.28852 521.561C-2.03934 521.561 1.42296 518.125 1.42296 513.849ZM1.42296 559.987C1.42296 555.738 -2.03934 552.275 -6.28852 552.275C-10.5377 552.275 -14 555.738 -14 559.987C-14 564.236 -10.5377 567.698 -6.28852 567.698C-2.03934 567.698 1.42296 564.262 1.42296 559.987ZM1.42296 606.151C1.42296 601.902 -2.03934 598.439 -6.28852 598.439C-10.5377 598.439 -14 601.902 -14 606.151C-14 610.4 -10.5377 613.862 -6.28852 613.862C-2.03934 613.862 1.42296 610.4 1.42296 606.151ZM1.42296 652.289C1.42296 648.039 -2.03934 644.577 -6.28852 644.577C-10.5377 644.577 -14 648.039 -14 652.289C-14 656.538 -10.5377 660 -6.28852 660C-2.03934 660 1.42296 656.538 1.42296 652.289Z" fill="#ECF4D8"/>
<path d="M408.289 475.423C404.039 475.423 400.577 471.961 400.577 467.711C400.577 463.462 404.039 460 408.289 460C412.538 460 416 463.462 416 467.711C416 471.987 412.538 475.423 408.289 475.423ZM416 513.849C416 509.6 412.538 506.138 408.289 506.138C404.039 506.138 400.577 509.6 400.577 513.849C400.577 518.098 404.039 521.561 408.289 521.561C412.538 521.561 416 518.125 416 513.849ZM416 559.987C416 555.738 412.538 552.275 408.289 552.275C404.039 552.275 400.577 555.738 400.577 559.987C400.577 564.236 404.039 567.698 408.289 567.698C412.538 567.725 416 564.262 416 559.987ZM416 606.151C416 601.902 412.538 598.439 408.289 598.439C404.039 598.439 400.577 601.902 400.577 606.151C400.577 610.4 404.039 613.862 408.289 613.862C412.538 613.862 416 610.4 416 606.151ZM416 652.289C416 648.039 412.538 644.577 408.289 644.577C404.039 644.577 400.577 648.039 400.577 652.289C400.577 656.538 404.039 660 408.289 660C412.538 660 416 656.538 416 652.289ZM369.862 467.711C369.862 463.462 366.4 460 362.151 460C357.902 460 354.439 463.462 354.439 467.711C354.439 471.961 357.902 475.423 362.151 475.423C366.4 475.423 369.862 471.987 369.862 467.711ZM369.862 513.849C369.862 509.6 366.4 506.138 362.151 506.138C357.902 506.138 354.439 509.6 354.439 513.849C354.439 518.098 357.902 521.561 362.151 521.561C366.4 521.561 369.862 518.125 369.862 513.849ZM369.862 559.987C369.862 555.738 366.4 552.275 362.151 552.275C357.902 552.275 354.439 555.738 354.439 559.987C354.439 564.236 357.902 567.698 362.151 567.698C366.4 567.725 369.862 564.262 369.862 559.987ZM369.862 606.151C369.862 601.902 366.4 598.439 362.151 598.439C357.902 598.439 354.439 601.902 354.439 606.151C354.439 610.4 357.902 613.862 362.151 613.862C366.4 613.862 369.862 610.4 369.862 606.151ZM369.862 652.289C369.862 648.039 366.4 644.577 362.151 644.577C357.902 644.577 354.439 648.039 354.439 652.289C354.439 656.538 357.902 660 362.151 660C366.4 660 369.862 656.538 369.862 652.289ZM323.698 467.711C323.698 463.462 320.236 460 315.987 460C311.738 460 308.275 463.462 308.275 467.711C308.275 471.961 311.738 475.423 315.987 475.423C320.262 475.423 323.698 471.987 323.698 467.711ZM323.698 513.849C323.698 509.6 320.236 506.138 315.987 506.138C311.738 506.138 308.275 509.6 308.275 513.849C308.275 518.098 311.738 521.561 315.987 521.561C320.262 521.561 323.698 518.125 323.698 513.849ZM323.698 559.987C323.698 555.738 320.236 552.275 315.987 552.275C311.738 552.275 308.275 555.738 308.275 559.987C308.275 564.236 311.738 567.698 315.987 567.698C320.262 567.725 323.698 564.262 323.698 559.987ZM323.698 606.151C323.698 601.902 320.236 598.439 315.987 598.439C311.738 598.439 308.275 601.902 308.275 606.151C308.275 610.4 311.738 613.862 315.987 613.862C320.262 613.862 323.698 610.4 323.698 606.151ZM323.698 652.289C323.698 648.039 320.236 644.577 315.987 644.577C311.738 644.577 308.275 648.039 308.275 652.289C308.275 656.538 311.738 660 315.987 660C320.262 660 323.698 656.538 323.698 652.289ZM277.561 467.711C277.561 463.462 274.098 460 269.849 460C265.6 460 262.138 463.462 262.138 467.711C262.138 471.961 265.6 475.423 269.849 475.423C274.125 475.423 277.561 471.987 277.561 467.711ZM277.561 513.849C277.561 509.6 274.098 506.138 269.849 506.138C265.6 506.138 262.138 509.6 262.138 513.849C262.138 518.098 265.6 521.561 269.849 521.561C274.125 521.561 277.561 518.125 277.561 513.849ZM277.561 559.987C277.561 555.738 274.098 552.275 269.849 552.275C265.6 552.275 262.138 555.738 262.138 559.987C262.138 564.236 265.6 567.698 269.849 567.698C274.125 567.725 277.561 564.262 277.561 559.987ZM277.561 606.151C277.561 601.902 274.098 598.439 269.849 598.439C265.6 598.439 262.138 601.902 262.138 606.151C262.138 610.4 265.6 613.862 269.849 613.862C274.125 613.862 277.561 610.4 277.561 606.151ZM277.561 652.289C277.561 648.039 274.098 644.577 269.849 644.577C265.6 644.577 262.138 648.039 262.138 652.289C262.138 656.538 265.6 660 269.849 660C274.125 660 277.561 656.538 277.561 652.289ZM231.423 467.711C231.423 463.462 227.961 460 223.711 460C219.462 460 216 463.462 216 467.711C216 471.961 219.462 475.423 223.711 475.423C227.961 475.423 231.423 471.987 231.423 467.711ZM231.423 513.849C231.423 509.6 227.961 506.138 223.711 506.138C219.462 506.138 216 509.6 216 513.849C216 518.098 219.462 521.561 223.711 521.561C227.961 521.561 231.423 518.125 231.423 513.849ZM231.423 559.987C231.423 555.738 227.961 552.275 223.711 552.275C219.462 552.275 216 555.738 216 559.987C216 564.236 219.462 567.698 223.711 567.698C227.961 567.698 231.423 564.262 231.423 559.987ZM231.423 606.151C231.423 601.902 227.961 598.439 223.711 598.439C219.462 598.439 216 601.902 216 606.151C216 610.4 219.462 613.862 223.711 613.862C227.961 613.862 231.423 610.4 231.423 606.151ZM231.423 652.289C231.423 648.039 227.961 644.577 223.711 644.577C219.462 644.577 216 648.039 216 652.289C216 656.538 219.462 660 223.711 660C227.961 660 231.423 656.538 231.423 652.289Z" fill="#ECF4D8"/>
<path d="M638.289 475.423C634.039 475.423 630.577 471.961 630.577 467.711C630.577 463.462 634.039 460 638.289 460C642.538 460 646 463.462 646 467.711C646 471.987 642.538 475.423 638.289 475.423ZM646 513.849C646 509.6 642.538 506.138 638.289 506.138C634.039 506.138 630.577 509.6 630.577 513.849C630.577 518.098 634.039 521.561 638.289 521.561C642.538 521.561 646 518.125 646 513.849ZM646 559.987C646 555.738 642.538 552.275 638.289 552.275C634.039 552.275 630.577 555.738 630.577 559.987C630.577 564.236 634.039 567.698 638.289 567.698C642.538 567.725 646 564.262 646 559.987ZM646 606.151C646 601.902 642.538 598.439 638.289 598.439C634.039 598.439 630.577 601.902 630.577 606.151C630.577 610.4 634.039 613.862 638.289 613.862C642.538 613.862 646 610.4 646 606.151ZM646 652.289C646 648.039 642.538 644.577 638.289 644.577C634.039 644.577 630.577 648.039 630.577 652.289C630.577 656.538 634.039 660 638.289 660C642.538 660 646 656.538 646 652.289ZM599.862 467.711C599.862 463.462 596.4 460 592.151 460C587.902 460 584.439 463.462 584.439 467.711C584.439 471.961 587.902 475.423 592.151 475.423C596.4 475.423 599.862 471.987 599.862 467.711ZM599.862 513.849C599.862 509.6 596.4 506.138 592.151 506.138C587.902 506.138 584.439 509.6 584.439 513.849C584.439 518.098 587.902 521.561 592.151 521.561C596.4 521.561 599.862 518.125 599.862 513.849ZM599.862 559.987C599.862 555.738 596.4 552.275 592.151 552.275C587.902 552.275 584.439 555.738 584.439 559.987C584.439 564.236 587.902 567.698 592.151 567.698C596.4 567.725 599.862 564.262 599.862 559.987ZM599.862 606.151C599.862 601.902 596.4 598.439 592.151 598.439C587.902 598.439 584.439 601.902 584.439 606.151C584.439 610.4 587.902 613.862 592.151 613.862C596.4 613.862 599.862 610.4 599.862 606.151ZM599.862 652.289C599.862 648.039 596.4 644.577 592.151 644.577C587.902 644.577 584.439 648.039 584.439 652.289C584.439 656.538 587.902 660 592.151 660C596.4 660 599.862 656.538 599.862 652.289ZM553.698 467.711C553.698 463.462 550.236 460 545.987 460C541.738 460 538.275 463.462 538.275 467.711C538.275 471.961 541.738 475.423 545.987 475.423C550.262 475.423 553.698 471.987 553.698 467.711ZM553.698 513.849C553.698 509.6 550.236 506.138 545.987 506.138C541.738 506.138 538.275 509.6 538.275 513.849C538.275 518.098 541.738 521.561 545.987 521.561C550.262 521.561 553.698 518.125 553.698 513.849ZM553.698 559.987C553.698 555.738 550.236 552.275 545.987 552.275C541.738 552.275 538.275 555.738 538.275 559.987C538.275 564.236 541.738 567.698 545.987 567.698C550.262 567.725 553.698 564.262 553.698 559.987ZM553.698 606.151C553.698 601.902 550.236 598.439 545.987 598.439C541.738 598.439 538.275 601.902 538.275 606.151C538.275 610.4 541.738 613.862 545.987 613.862C550.262 613.862 553.698 610.4 553.698 606.151ZM553.698 652.289C553.698 648.039 550.236 644.577 545.987 644.577C541.738 644.577 538.275 648.039 538.275 652.289C538.275 656.538 541.738 660 545.987 660C550.262 660 553.698 656.538 553.698 652.289ZM507.561 467.711C507.561 463.462 504.098 460 499.849 460C495.6 460 492.138 463.462 492.138 467.711C492.138 471.961 495.6 475.423 499.849 475.423C504.125 475.423 507.561 471.987 507.561 467.711ZM507.561 513.849C507.561 509.6 504.098 506.138 499.849 506.138C495.6 506.138 492.138 509.6 492.138 513.849C492.138 518.098 495.6 521.561 499.849 521.561C504.125 521.561 507.561 518.125 507.561 513.849ZM507.561 559.987C507.561 555.738 504.098 552.275 499.849 552.275C495.6 552.275 492.138 555.738 492.138 559.987C492.138 564.236 495.6 567.698 499.849 567.698C504.125 567.725 507.561 564.262 507.561 559.987ZM507.561 606.151C507.561 601.902 504.098 598.439 499.849 598.439C495.6 598.439 492.138 601.902 492.138 606.151C492.138 610.4 495.6 613.862 499.849 613.862C504.125 613.862 507.561 610.4 507.561 606.151ZM507.561 652.289C507.561 648.039 504.098 644.577 499.849 644.577C495.6 644.577 492.138 648.039 492.138 652.289C492.138 656.538 495.6 660 499.849 660C504.125 660 507.561 656.538 507.561 652.289ZM461.423 467.711C461.423 463.462 457.961 460 453.711 460C449.462 460 446 463.462 446 467.711C446 471.961 449.462 475.423 453.711 475.423C457.961 475.423 461.423 471.987 461.423 467.711ZM461.423 513.849C461.423 509.6 457.961 506.138 453.711 506.138C449.462 506.138 446 509.6 446 513.849C446 518.098 449.462 521.561 453.711 521.561C457.961 521.561 461.423 518.125 461.423 513.849ZM461.423 559.987C461.423 555.738 457.961 552.275 453.711 552.275C449.462 552.275 446 555.738 446 559.987C446 564.236 449.462 567.698 453.711 567.698C457.961 567.698 461.423 564.262 461.423 559.987ZM461.423 606.151C461.423 601.902 457.961 598.439 453.711 598.439C449.462 598.439 446 601.902 446 606.151C446 610.4 449.462 613.862 453.711 613.862C457.961 613.862 461.423 610.4 461.423 606.151ZM461.423 652.289C461.423 648.039 457.961 644.577 453.711 644.577C449.462 644.577 446 648.039 446 652.289C446 656.538 449.462 660 453.711 660C457.961 660 461.423 656.538 461.423 652.289Z" fill="#ECF4D8"/>
<path d="M868.289 475.423C864.039 475.423 860.577 471.961 860.577 467.711C860.577 463.462 864.039 460 868.289 460C872.538 460 876 463.462 876 467.711C876 471.987 872.538 475.423 868.289 475.423ZM876 513.849C876 509.6 872.538 506.138 868.289 506.138C864.039 506.138 860.577 509.6 860.577 513.849C860.577 518.098 864.039 521.561 868.289 521.561C872.538 521.561 876 518.125 876 513.849ZM876 559.987C876 555.738 872.538 552.275 868.289 552.275C864.039 552.275 860.577 555.738 860.577 559.987C860.577 564.236 864.039 567.698 868.289 567.698C872.538 567.725 876 564.262 876 559.987ZM876 606.151C876 601.902 872.538 598.439 868.289 598.439C864.039 598.439 860.577 601.902 860.577 606.151C860.577 610.4 864.039 613.862 868.289 613.862C872.538 613.862 876 610.4 876 606.151ZM876 652.289C876 648.039 872.538 644.577 868.289 644.577C864.039 644.577 860.577 648.039 860.577 652.289C860.577 656.538 864.039 660 868.289 660C872.538 660 876 656.538 876 652.289ZM829.862 467.711C829.862 463.462 826.4 460 822.151 460C817.902 460 814.439 463.462 814.439 467.711C814.439 471.961 817.902 475.423 822.151 475.423C826.4 475.423 829.862 471.987 829.862 467.711ZM829.862 513.849C829.862 509.6 826.4 506.138 822.151 506.138C817.902 506.138 814.439 509.6 814.439 513.849C814.439 518.098 817.902 521.561 822.151 521.561C826.4 521.561 829.862 518.125 829.862 513.849ZM829.862 559.987C829.862 555.738 826.4 552.275 822.151 552.275C817.902 552.275 814.439 555.738 814.439 559.987C814.439 564.236 817.902 567.698 822.151 567.698C826.4 567.725 829.862 564.262 829.862 559.987ZM829.862 606.151C829.862 601.902 826.4 598.439 822.151 598.439C817.902 598.439 814.439 601.902 814.439 606.151C814.439 610.4 817.902 613.862 822.151 613.862C826.4 613.862 829.862 610.4 829.862 606.151ZM829.862 652.289C829.862 648.039 826.4 644.577 822.151 644.577C817.902 644.577 814.439 648.039 814.439 652.289C814.439 656.538 817.902 660 822.151 660C826.4 660 829.862 656.538 829.862 652.289ZM783.698 467.711C783.698 463.462 780.236 460 775.987 460C771.738 460 768.275 463.462 768.275 467.711C768.275 471.961 771.738 475.423 775.987 475.423C780.262 475.423 783.698 471.987 783.698 467.711ZM783.698 513.849C783.698 509.6 780.236 506.138 775.987 506.138C771.738 506.138 768.275 509.6 768.275 513.849C768.275 518.098 771.738 521.561 775.987 521.561C780.262 521.561 783.698 518.125 783.698 513.849ZM783.698 559.987C783.698 555.738 780.236 552.275 775.987 552.275C771.738 552.275 768.275 555.738 768.275 559.987C768.275 564.236 771.738 567.698 775.987 567.698C780.262 567.725 783.698 564.262 783.698 559.987ZM783.698 606.151C783.698 601.902 780.236 598.439 775.987 598.439C771.738 598.439 768.275 601.902 768.275 606.151C768.275 610.4 771.738 613.862 775.987 613.862C780.262 613.862 783.698 610.4 783.698 606.151ZM783.698 652.289C783.698 648.039 780.236 644.577 775.987 644.577C771.738 644.577 768.275 648.039 768.275 652.289C768.275 656.538 771.738 660 775.987 660C780.262 660 783.698 656.538 783.698 652.289ZM737.561 467.711C737.561 463.462 734.098 460 729.849 460C725.6 460 722.138 463.462 722.138 467.711C722.138 471.961 725.6 475.423 729.849 475.423C734.125 475.423 737.561 471.987 737.561 467.711ZM737.561 513.849C737.561 509.6 734.098 506.138 729.849 506.138C725.6 506.138 722.138 509.6 722.138 513.849C722.138 518.098 725.6 521.561 729.849 521.561C734.125 521.561 737.561 518.125 737.561 513.849ZM737.561 559.987C737.561 555.738 734.098 552.275 729.849 552.275C725.6 552.275 722.138 555.738 722.138 559.987C722.138 564.236 725.6 567.698 729.849 567.698C734.125 567.725 737.561 564.262 737.561 559.987ZM737.561 606.151C737.561 601.902 734.098 598.439 729.849 598.439C725.6 598.439 722.138 601.902 722.138 606.151C722.138 610.4 725.6 613.862 729.849 613.862C734.125 613.862 737.561 610.4 737.561 606.151ZM737.561 652.289C737.561 648.039 734.098 644.577 729.849 644.577C725.6 644.577 722.138 648.039 722.138 652.289C722.138 656.538 725.6 660 729.849 660C734.125 660 737.561 656.538 737.561 652.289ZM691.423 467.711C691.423 463.462 687.961 460 683.711 460C679.462 460 676 463.462 676 467.711C676 471.961 679.462 475.423 683.711 475.423C687.961 475.423 691.423 471.987 691.423 467.711ZM691.423 513.849C691.423 509.6 687.961 506.138 683.711 506.138C679.462 506.138 676 509.6 676 513.849C676 518.098 679.462 521.561 683.711 521.561C687.961 521.561 691.423 518.125 691.423 513.849ZM691.423 559.987C691.423 555.738 687.961 552.275 683.711 552.275C679.462 552.275 676 555.738 676 559.987C676 564.236 679.462 567.698 683.711 567.698C687.961 567.698 691.423 564.262 691.423 559.987ZM691.423 606.151C691.423 601.902 687.961 598.439 683.711 598.439C679.462 598.439 676 601.902 676 606.151C676 610.4 679.462 613.862 683.711 613.862C687.961 613.862 691.423 610.4 691.423 606.151ZM691.423 652.289C691.423 648.039 687.961 644.577 683.711 644.577C679.462 644.577 676 648.039 676 652.289C676 656.538 679.462 660 683.711 660C687.961 660 691.423 656.538 691.423 652.289Z" fill="#ECF4D8"/>
<path d="M1098.29 475.423C1094.04 475.423 1090.58 471.961 1090.58 467.711C1090.58 463.462 1094.04 460 1098.29 460C1102.54 460 1106 463.462 1106 467.711C1106 471.987 1102.54 475.423 1098.29 475.423ZM1106 513.849C1106 509.6 1102.54 506.138 1098.29 506.138C1094.04 506.138 1090.58 509.6 1090.58 513.849C1090.58 518.098 1094.04 521.561 1098.29 521.561C1102.54 521.561 1106 518.125 1106 513.849ZM1106 559.987C1106 555.738 1102.54 552.275 1098.29 552.275C1094.04 552.275 1090.58 555.738 1090.58 559.987C1090.58 564.236 1094.04 567.698 1098.29 567.698C1102.54 567.725 1106 564.262 1106 559.987ZM1106 606.151C1106 601.902 1102.54 598.439 1098.29 598.439C1094.04 598.439 1090.58 601.902 1090.58 606.151C1090.58 610.4 1094.04 613.862 1098.29 613.862C1102.54 613.862 1106 610.4 1106 606.151ZM1106 652.289C1106 648.039 1102.54 644.577 1098.29 644.577C1094.04 644.577 1090.58 648.039 1090.58 652.289C1090.58 656.538 1094.04 660 1098.29 660C1102.54 660 1106 656.538 1106 652.289ZM1059.86 467.711C1059.86 463.462 1056.4 460 1052.15 460C1047.9 460 1044.44 463.462 1044.44 467.711C1044.44 471.961 1047.9 475.423 1052.15 475.423C1056.4 475.423 1059.86 471.987 1059.86 467.711ZM1059.86 513.849C1059.86 509.6 1056.4 506.138 1052.15 506.138C1047.9 506.138 1044.44 509.6 1044.44 513.849C1044.44 518.098 1047.9 521.561 1052.15 521.561C1056.4 521.561 1059.86 518.125 1059.86 513.849ZM1059.86 559.987C1059.86 555.738 1056.4 552.275 1052.15 552.275C1047.9 552.275 1044.44 555.738 1044.44 559.987C1044.44 564.236 1047.9 567.698 1052.15 567.698C1056.4 567.725 1059.86 564.262 1059.86 559.987ZM1059.86 606.151C1059.86 601.902 1056.4 598.439 1052.15 598.439C1047.9 598.439 1044.44 601.902 1044.44 606.151C1044.44 610.4 1047.9 613.862 1052.15 613.862C1056.4 613.862 1059.86 610.4 1059.86 606.151ZM1059.86 652.289C1059.86 648.039 1056.4 644.577 1052.15 644.577C1047.9 644.577 1044.44 648.039 1044.44 652.289C1044.44 656.538 1047.9 660 1052.15 660C1056.4 660 1059.86 656.538 1059.86 652.289ZM1013.7 467.711C1013.7 463.462 1010.24 460 1005.99 460C1001.74 460 998.275 463.462 998.275 467.711C998.275 471.961 1001.74 475.423 1005.99 475.423C1010.26 475.423 1013.7 471.987 1013.7 467.711ZM1013.7 513.849C1013.7 509.6 1010.24 506.138 1005.99 506.138C1001.74 506.138 998.275 509.6 998.275 513.849C998.275 518.098 1001.74 521.561 1005.99 521.561C1010.26 521.561 1013.7 518.125 1013.7 513.849ZM1013.7 559.987C1013.7 555.738 1010.24 552.275 1005.99 552.275C1001.74 552.275 998.275 555.738 998.275 559.987C998.275 564.236 1001.74 567.698 1005.99 567.698C1010.26 567.725 1013.7 564.262 1013.7 559.987ZM1013.7 606.151C1013.7 601.902 1010.24 598.439 1005.99 598.439C1001.74 598.439 998.275 601.902 998.275 606.151C998.275 610.4 1001.74 613.862 1005.99 613.862C1010.26 613.862 1013.7 610.4 1013.7 606.151ZM1013.7 652.289C1013.7 648.039 1010.24 644.577 1005.99 644.577C1001.74 644.577 998.275 648.039 998.275 652.289C998.275 656.538 1001.74 660 1005.99 660C1010.26 660 1013.7 656.538 1013.7 652.289ZM967.561 467.711C967.561 463.462 964.098 460 959.849 460C955.6 460 952.138 463.462 952.138 467.711C952.138 471.961 955.6 475.423 959.849 475.423C964.125 475.423 967.561 471.987 967.561 467.711ZM967.561 513.849C967.561 509.6 964.098 506.138 959.849 506.138C955.6 506.138 952.138 509.6 952.138 513.849C952.138 518.098 955.6 521.561 959.849 521.561C964.125 521.561 967.561 518.125 967.561 513.849ZM967.561 559.987C967.561 555.738 964.098 552.275 959.849 552.275C955.6 552.275 952.138 555.738 952.138 559.987C952.138 564.236 955.6 567.698 959.849 567.698C964.125 567.725 967.561 564.262 967.561 559.987ZM967.561 606.151C967.561 601.902 964.098 598.439 959.849 598.439C955.6 598.439 952.138 601.902 952.138 606.151C952.138 610.4 955.6 613.862 959.849 613.862C964.125 613.862 967.561 610.4 967.561 606.151ZM967.561 652.289C967.561 648.039 964.098 644.577 959.849 644.577C955.6 644.577 952.138 648.039 952.138 652.289C952.138 656.538 955.6 660 959.849 660C964.125 660 967.561 656.538 967.561 652.289ZM921.423 467.711C921.423 463.462 917.961 460 913.711 460C909.462 460 906 463.462 906 467.711C906 471.961 909.462 475.423 913.711 475.423C917.961 475.423 921.423 471.987 921.423 467.711ZM921.423 513.849C921.423 509.6 917.961 506.138 913.711 506.138C909.462 506.138 906 509.6 906 513.849C906 518.098 909.462 521.561 913.711 521.561C917.961 521.561 921.423 518.125 921.423 513.849ZM921.423 559.987C921.423 555.738 917.961 552.275 913.711 552.275C909.462 552.275 906 555.738 906 559.987C906 564.236 909.462 567.698 913.711 567.698C917.961 567.698 921.423 564.262 921.423 559.987ZM921.423 606.151C921.423 601.902 917.961 598.439 913.711 598.439C909.462 598.439 906 601.902 906 606.151C906 610.4 909.462 613.862 913.711 613.862C917.961 613.862 921.423 610.4 921.423 606.151ZM921.423 652.289C921.423 648.039 917.961 644.577 913.711 644.577C909.462 644.577 906 648.039 906 652.289C906 656.538 909.462 660 913.711 660C917.961 660 921.423 656.538 921.423 652.289Z" fill="#ECF4D8"/>
</svg>
