<svg width="340" height="220" viewBox="0 0 340 220" fill="none" xmlns="http://www.w3.org/2000/svg">
<path d="M96.1443 7.71147C94.0197 7.71147 92.2885 5.98033 92.2885 3.85574C92.2885 1.73115 94.0197 0 96.1443 0C98.2688 0 100 1.73115 100 3.85574C100 5.99345 98.2688 7.71147 96.1443 7.71147ZM100 26.9246C100 24.8 98.2688 23.0689 96.1443 23.0689C94.0197 23.0689 92.2885 24.8 92.2885 26.9246C92.2885 29.0492 94.0197 30.7803 96.1443 30.7803C98.2688 30.7803 100 29.0623 100 26.9246ZM100 49.9934C100 47.8689 98.2688 46.1377 96.1443 46.1377C94.0197 46.1377 92.2885 47.8689 92.2885 49.9934C92.2885 52.118 94.0197 53.8492 96.1443 53.8492C98.2688 53.8623 100 52.1311 100 49.9934ZM100 73.0754C100 70.9508 98.2688 69.2197 96.1443 69.2197C94.0197 69.2197 92.2885 70.9508 92.2885 73.0754C92.2885 75.2 94.0197 76.9312 96.1443 76.9312C98.2688 76.9312 100 75.2 100 73.0754ZM100 96.1443C100 94.0197 98.2688 92.2885 96.1443 92.2885C94.0197 92.2885 92.2885 94.0197 92.2885 96.1443C92.2885 98.2688 94.0197 100 96.1443 100C98.2688 100 100 98.2688 100 96.1443ZM76.9311 3.85574C76.9311 1.73115 75.2 0 73.0754 0C70.9508 0 69.2196 1.73115 69.2196 3.85574C69.2196 5.98033 70.9508 7.71147 73.0754 7.71147C75.2 7.71147 76.9311 5.99345 76.9311 3.85574ZM76.9311 26.9246C76.9311 24.8 75.2 23.0689 73.0754 23.0689C70.9508 23.0689 69.2196 24.8 69.2196 26.9246C69.2196 29.0492 70.9508 30.7803 73.0754 30.7803C75.2 30.7803 76.9311 29.0623 76.9311 26.9246ZM76.9311 49.9934C76.9311 47.8689 75.2 46.1377 73.0754 46.1377C70.9508 46.1377 69.2196 47.8689 69.2196 49.9934C69.2196 52.118 70.9508 53.8492 73.0754 53.8492C75.2 53.8623 76.9311 52.1311 76.9311 49.9934ZM76.9311 73.0754C76.9311 70.9508 75.2 69.2197 73.0754 69.2197C70.9508 69.2197 69.2196 70.9508 69.2196 73.0754C69.2196 75.2 70.9508 76.9312 73.0754 76.9312C75.2 76.9312 76.9311 75.2 76.9311 73.0754ZM76.9311 96.1443C76.9311 94.0197 75.2 92.2885 73.0754 92.2885C70.9508 92.2885 69.2196 94.0197 69.2196 96.1443C69.2196 98.2688 70.9508 100 73.0754 100C75.2 100 76.9311 98.2688 76.9311 96.1443ZM53.8492 3.85574C53.8492 1.73115 52.118 0 49.9934 0C47.8688 0 46.1377 1.73115 46.1377 3.85574C46.1377 5.98033 47.8688 7.71147 49.9934 7.71147C52.1311 7.71147 53.8492 5.99345 53.8492 3.85574ZM53.8492 26.9246C53.8492 24.8 52.118 23.0689 49.9934 23.0689C47.8688 23.0689 46.1377 24.8 46.1377 26.9246C46.1377 29.0492 47.8688 30.7803 49.9934 30.7803C52.1311 30.7803 53.8492 29.0623 53.8492 26.9246ZM53.8492 49.9934C53.8492 47.8689 52.118 46.1377 49.9934 46.1377C47.8688 46.1377 46.1377 47.8689 46.1377 49.9934C46.1377 52.118 47.8688 53.8492 49.9934 53.8492C52.1311 53.8623 53.8492 52.1311 53.8492 49.9934ZM53.8492 73.0754C53.8492 70.9508 52.118 69.2197 49.9934 69.2197C47.8688 69.2197 46.1377 70.9508 46.1377 73.0754C46.1377 75.2 47.8688 76.9312 49.9934 76.9312C52.1311 76.9312 53.8492 75.2 53.8492 73.0754ZM53.8492 96.1443C53.8492 94.0197 52.118 92.2885 49.9934 92.2885C47.8688 92.2885 46.1377 94.0197 46.1377 96.1443C46.1377 98.2688 47.8688 100 49.9934 100C52.1311 100 53.8492 98.2688 53.8492 96.1443ZM30.7803 3.85574C30.7803 1.73115 29.0491 0 26.9245 0C24.8 0 23.0689 1.73115 23.0689 3.85574C23.0689 5.98033 24.8 7.71147 26.9245 7.71147C29.0623 7.71147 30.7803 5.99345 30.7803 3.85574ZM30.7803 26.9246C30.7803 24.8 29.0491 23.0689 26.9245 23.0689C24.8 23.0689 23.0689 24.8 23.0689 26.9246C23.0689 29.0492 24.8 30.7803 26.9245 30.7803C29.0623 30.7803 30.7803 29.0623 30.7803 26.9246ZM30.7803 49.9934C30.7803 47.8689 29.0491 46.1377 26.9245 46.1377C24.8 46.1377 23.0689 47.8689 23.0689 49.9934C23.0689 52.118 24.8 53.8492 26.9245 53.8492C29.0623 53.8623 30.7803 52.1311 30.7803 49.9934ZM30.7803 73.0754C30.7803 70.9508 29.0491 69.2197 26.9245 69.2197C24.8 69.2197 23.0689 70.9508 23.0689 73.0754C23.0689 75.2 24.8 76.9312 26.9245 76.9312C29.0623 76.9312 30.7803 75.2 30.7803 73.0754ZM30.7803 96.1443C30.7803 94.0197 29.0491 92.2885 26.9245 92.2885C24.8 92.2885 23.0689 94.0197 23.0689 96.1443C23.0689 98.2688 24.8 100 26.9245 100C29.0623 100 30.7803 98.2688 30.7803 96.1443ZM7.71148 3.85574C7.71148 1.73115 5.98033 0 3.85574 0C1.73115 0 0 1.73115 0 3.85574C0 5.98033 1.73115 7.71147 3.85574 7.71147C5.98033 7.71147 7.71148 5.99345 7.71148 3.85574ZM7.71148 26.9246C7.71148 24.8 5.98033 23.0689 3.85574 23.0689C1.73115 23.0689 0 24.8 0 26.9246C0 29.0492 1.73115 30.7803 3.85574 30.7803C5.98033 30.7803 7.71148 29.0623 7.71148 26.9246ZM7.71148 49.9934C7.71148 47.8689 5.98033 46.1377 3.85574 46.1377C1.73115 46.1377 0 47.8689 0 49.9934C0 52.118 1.73115 53.8492 3.85574 53.8492C5.98033 53.8492 7.71148 52.1311 7.71148 49.9934ZM7.71148 73.0754C7.71148 70.9508 5.98033 69.2197 3.85574 69.2197C1.73115 69.2197 0 70.9508 0 73.0754C0 75.2 1.73115 76.9312 3.85574 76.9312C5.98033 76.9312 7.71148 75.2 7.71148 73.0754ZM7.71148 96.1443C7.71148 94.0197 5.98033 92.2885 3.85574 92.2885C1.73115 92.2885 0 94.0197 0 96.1443C0 98.2688 1.73115 100 3.85574 100C5.98033 100 7.71148 98.2688 7.71148 96.1443Z" fill="#ECF4D8"/>
<path d="M216.144 7.71147C214.02 7.71147 212.289 5.98033 212.289 3.85574C212.289 1.73115 214.02 0 216.144 0C218.269 0 220 1.73115 220 3.85574C220 5.99345 218.269 7.71147 216.144 7.71147ZM220 26.9246C220 24.8 218.269 23.0689 216.144 23.0689C214.02 23.0689 212.289 24.8 212.289 26.9246C212.289 29.0492 214.02 30.7803 216.144 30.7803C218.269 30.7803 220 29.0623 220 26.9246ZM220 49.9934C220 47.8689 218.269 46.1377 216.144 46.1377C214.02 46.1377 212.289 47.8689 212.289 49.9934C212.289 52.118 214.02 53.8492 216.144 53.8492C218.269 53.8623 220 52.1311 220 49.9934ZM220 73.0754C220 70.9508 218.269 69.2197 216.144 69.2197C214.02 69.2197 212.289 70.9508 212.289 73.0754C212.289 75.2 214.02 76.9312 216.144 76.9312C218.269 76.9312 220 75.2 220 73.0754ZM220 96.1443C220 94.0197 218.269 92.2885 216.144 92.2885C214.02 92.2885 212.289 94.0197 212.289 96.1443C212.289 98.2688 214.02 100 216.144 100C218.269 100 220 98.2688 220 96.1443ZM196.931 3.85574C196.931 1.73115 195.2 0 193.075 0C190.951 0 189.22 1.73115 189.22 3.85574C189.22 5.98033 190.951 7.71147 193.075 7.71147C195.2 7.71147 196.931 5.99345 196.931 3.85574ZM196.931 26.9246C196.931 24.8 195.2 23.0689 193.075 23.0689C190.951 23.0689 189.22 24.8 189.22 26.9246C189.22 29.0492 190.951 30.7803 193.075 30.7803C195.2 30.7803 196.931 29.0623 196.931 26.9246ZM196.931 49.9934C196.931 47.8689 195.2 46.1377 193.075 46.1377C190.951 46.1377 189.22 47.8689 189.22 49.9934C189.22 52.118 190.951 53.8492 193.075 53.8492C195.2 53.8623 196.931 52.1311 196.931 49.9934ZM196.931 73.0754C196.931 70.9508 195.2 69.2197 193.075 69.2197C190.951 69.2197 189.22 70.9508 189.22 73.0754C189.22 75.2 190.951 76.9312 193.075 76.9312C195.2 76.9312 196.931 75.2 196.931 73.0754ZM196.931 96.1443C196.931 94.0197 195.2 92.2885 193.075 92.2885C190.951 92.2885 189.22 94.0197 189.22 96.1443C189.22 98.2688 190.951 100 193.075 100C195.2 100 196.931 98.2688 196.931 96.1443ZM173.849 3.85574C173.849 1.73115 172.118 0 169.993 0C167.869 0 166.138 1.73115 166.138 3.85574C166.138 5.98033 167.869 7.71147 169.993 7.71147C172.131 7.71147 173.849 5.99345 173.849 3.85574ZM173.849 26.9246C173.849 24.8 172.118 23.0689 169.993 23.0689C167.869 23.0689 166.138 24.8 166.138 26.9246C166.138 29.0492 167.869 30.7803 169.993 30.7803C172.131 30.7803 173.849 29.0623 173.849 26.9246ZM173.849 49.9934C173.849 47.8689 172.118 46.1377 169.993 46.1377C167.869 46.1377 166.138 47.8689 166.138 49.9934C166.138 52.118 167.869 53.8492 169.993 53.8492C172.131 53.8623 173.849 52.1311 173.849 49.9934ZM173.849 73.0754C173.849 70.9508 172.118 69.2197 169.993 69.2197C167.869 69.2197 166.138 70.9508 166.138 73.0754C166.138 75.2 167.869 76.9312 169.993 76.9312C172.131 76.9312 173.849 75.2 173.849 73.0754ZM173.849 96.1443C173.849 94.0197 172.118 92.2885 169.993 92.2885C167.869 92.2885 166.138 94.0197 166.138 96.1443C166.138 98.2688 167.869 100 169.993 100C172.131 100 173.849 98.2688 173.849 96.1443ZM150.78 3.85574C150.78 1.73115 149.049 0 146.925 0C144.8 0 143.069 1.73115 143.069 3.85574C143.069 5.98033 144.8 7.71147 146.925 7.71147C149.062 7.71147 150.78 5.99345 150.78 3.85574ZM150.78 26.9246C150.78 24.8 149.049 23.0689 146.925 23.0689C144.8 23.0689 143.069 24.8 143.069 26.9246C143.069 29.0492 144.8 30.7803 146.925 30.7803C149.062 30.7803 150.78 29.0623 150.78 26.9246ZM150.78 49.9934C150.78 47.8689 149.049 46.1377 146.925 46.1377C144.8 46.1377 143.069 47.8689 143.069 49.9934C143.069 52.118 144.8 53.8492 146.925 53.8492C149.062 53.8623 150.78 52.1311 150.78 49.9934ZM150.78 73.0754C150.78 70.9508 149.049 69.2197 146.925 69.2197C144.8 69.2197 143.069 70.9508 143.069 73.0754C143.069 75.2 144.8 76.9312 146.925 76.9312C149.062 76.9312 150.78 75.2 150.78 73.0754ZM150.78 96.1443C150.78 94.0197 149.049 92.2885 146.925 92.2885C144.8 92.2885 143.069 94.0197 143.069 96.1443C143.069 98.2688 144.8 100 146.925 100C149.062 100 150.78 98.2688 150.78 96.1443ZM127.711 3.85574C127.711 1.73115 125.98 0 123.856 0C121.731 0 120 1.73115 120 3.85574C120 5.98033 121.731 7.71147 123.856 7.71147C125.98 7.71147 127.711 5.99345 127.711 3.85574ZM127.711 26.9246C127.711 24.8 125.98 23.0689 123.856 23.0689C121.731 23.0689 120 24.8 120 26.9246C120 29.0492 121.731 30.7803 123.856 30.7803C125.98 30.7803 127.711 29.0623 127.711 26.9246ZM127.711 49.9934C127.711 47.8689 125.98 46.1377 123.856 46.1377C121.731 46.1377 120 47.8689 120 49.9934C120 52.118 121.731 53.8492 123.856 53.8492C125.98 53.8492 127.711 52.1311 127.711 49.9934ZM127.711 73.0754C127.711 70.9508 125.98 69.2197 123.856 69.2197C121.731 69.2197 120 70.9508 120 73.0754C120 75.2 121.731 76.9312 123.856 76.9312C125.98 76.9312 127.711 75.2 127.711 73.0754ZM127.711 96.1443C127.711 94.0197 125.98 92.2885 123.856 92.2885C121.731 92.2885 120 94.0197 120 96.1443C120 98.2688 121.731 100 123.856 100C125.98 100 127.711 98.2688 127.711 96.1443Z" fill="#ECF4D8"/>
<path d="M336.144 7.71147C334.02 7.71147 332.289 5.98033 332.289 3.85574C332.289 1.73115 334.02 0 336.144 0C338.269 0 340 1.73115 340 3.85574C340 5.99345 338.269 7.71147 336.144 7.71147ZM340 26.9246C340 24.8 338.269 23.0689 336.144 23.0689C334.02 23.0689 332.289 24.8 332.289 26.9246C332.289 29.0492 334.02 30.7803 336.144 30.7803C338.269 30.7803 340 29.0623 340 26.9246ZM340 49.9934C340 47.8689 338.269 46.1377 336.144 46.1377C334.02 46.1377 332.289 47.8689 332.289 49.9934C332.289 52.118 334.02 53.8492 336.144 53.8492C338.269 53.8623 340 52.1311 340 49.9934ZM340 73.0754C340 70.9508 338.269 69.2197 336.144 69.2197C334.02 69.2197 332.289 70.9508 332.289 73.0754C332.289 75.2 334.02 76.9312 336.144 76.9312C338.269 76.9312 340 75.2 340 73.0754ZM340 96.1443C340 94.0197 338.269 92.2885 336.144 92.2885C334.02 92.2885 332.289 94.0197 332.289 96.1443C332.289 98.2688 334.02 100 336.144 100C338.269 100 340 98.2688 340 96.1443ZM316.931 3.85574C316.931 1.73115 315.2 0 313.075 0C310.951 0 309.22 1.73115 309.22 3.85574C309.22 5.98033 310.951 7.71147 313.075 7.71147C315.2 7.71147 316.931 5.99345 316.931 3.85574ZM316.931 26.9246C316.931 24.8 315.2 23.0689 313.075 23.0689C310.951 23.0689 309.22 24.8 309.22 26.9246C309.22 29.0492 310.951 30.7803 313.075 30.7803C315.2 30.7803 316.931 29.0623 316.931 26.9246ZM316.931 49.9934C316.931 47.8689 315.2 46.1377 313.075 46.1377C310.951 46.1377 309.22 47.8689 309.22 49.9934C309.22 52.118 310.951 53.8492 313.075 53.8492C315.2 53.8623 316.931 52.1311 316.931 49.9934ZM316.931 73.0754C316.931 70.9508 315.2 69.2197 313.075 69.2197C310.951 69.2197 309.22 70.9508 309.22 73.0754C309.22 75.2 310.951 76.9312 313.075 76.9312C315.2 76.9312 316.931 75.2 316.931 73.0754ZM316.931 96.1443C316.931 94.0197 315.2 92.2885 313.075 92.2885C310.951 92.2885 309.22 94.0197 309.22 96.1443C309.22 98.2688 310.951 100 313.075 100C315.2 100 316.931 98.2688 316.931 96.1443ZM293.849 3.85574C293.849 1.73115 292.118 0 289.993 0C287.869 0 286.138 1.73115 286.138 3.85574C286.138 5.98033 287.869 7.71147 289.993 7.71147C292.131 7.71147 293.849 5.99345 293.849 3.85574ZM293.849 26.9246C293.849 24.8 292.118 23.0689 289.993 23.0689C287.869 23.0689 286.138 24.8 286.138 26.9246C286.138 29.0492 287.869 30.7803 289.993 30.7803C292.131 30.7803 293.849 29.0623 293.849 26.9246ZM293.849 49.9934C293.849 47.8689 292.118 46.1377 289.993 46.1377C287.869 46.1377 286.138 47.8689 286.138 49.9934C286.138 52.118 287.869 53.8492 289.993 53.8492C292.131 53.8623 293.849 52.1311 293.849 49.9934ZM293.849 73.0754C293.849 70.9508 292.118 69.2197 289.993 69.2197C287.869 69.2197 286.138 70.9508 286.138 73.0754C286.138 75.2 287.869 76.9312 289.993 76.9312C292.131 76.9312 293.849 75.2 293.849 73.0754ZM293.849 96.1443C293.849 94.0197 292.118 92.2885 289.993 92.2885C287.869 92.2885 286.138 94.0197 286.138 96.1443C286.138 98.2688 287.869 100 289.993 100C292.131 100 293.849 98.2688 293.849 96.1443ZM270.78 3.85574C270.78 1.73115 269.049 0 266.925 0C264.8 0 263.069 1.73115 263.069 3.85574C263.069 5.98033 264.8 7.71147 266.925 7.71147C269.062 7.71147 270.78 5.99345 270.78 3.85574ZM270.78 26.9246C270.78 24.8 269.049 23.0689 266.925 23.0689C264.8 23.0689 263.069 24.8 263.069 26.9246C263.069 29.0492 264.8 30.7803 266.925 30.7803C269.062 30.7803 270.78 29.0623 270.78 26.9246ZM270.78 49.9934C270.78 47.8689 269.049 46.1377 266.925 46.1377C264.8 46.1377 263.069 47.8689 263.069 49.9934C263.069 52.118 264.8 53.8492 266.925 53.8492C269.062 53.8623 270.78 52.1311 270.78 49.9934ZM270.78 73.0754C270.78 70.9508 269.049 69.2197 266.925 69.2197C264.8 69.2197 263.069 70.9508 263.069 73.0754C263.069 75.2 264.8 76.9312 266.925 76.9312C269.062 76.9312 270.78 75.2 270.78 73.0754ZM270.78 96.1443C270.78 94.0197 269.049 92.2885 266.925 92.2885C264.8 92.2885 263.069 94.0197 263.069 96.1443C263.069 98.2688 264.8 100 266.925 100C269.062 100 270.78 98.2688 270.78 96.1443ZM247.711 3.85574C247.711 1.73115 245.98 0 243.856 0C241.731 0 240 1.73115 240 3.85574C240 5.98033 241.731 7.71147 243.856 7.71147C245.98 7.71147 247.711 5.99345 247.711 3.85574ZM247.711 26.9246C247.711 24.8 245.98 23.0689 243.856 23.0689C241.731 23.0689 240 24.8 240 26.9246C240 29.0492 241.731 30.7803 243.856 30.7803C245.98 30.7803 247.711 29.0623 247.711 26.9246ZM247.711 49.9934C247.711 47.8689 245.98 46.1377 243.856 46.1377C241.731 46.1377 240 47.8689 240 49.9934C240 52.118 241.731 53.8492 243.856 53.8492C245.98 53.8492 247.711 52.1311 247.711 49.9934ZM247.711 73.0754C247.711 70.9508 245.98 69.2197 243.856 69.2197C241.731 69.2197 240 70.9508 240 73.0754C240 75.2 241.731 76.9312 243.856 76.9312C245.98 76.9312 247.711 75.2 247.711 73.0754ZM247.711 96.1443C247.711 94.0197 245.98 92.2885 243.856 92.2885C241.731 92.2885 240 94.0197 240 96.1443C240 98.2688 241.731 100 243.856 100C245.98 100 247.711 98.2688 247.711 96.1443Z" fill="#ECF4D8"/>
<path d="M96.1443 127.711C94.0197 127.711 92.2885 125.98 92.2885 123.856C92.2885 121.731 94.0197 120 96.1443 120C98.2688 120 100 121.731 100 123.856C100 125.993 98.2688 127.711 96.1443 127.711ZM100 146.925C100 144.8 98.2688 143.069 96.1443 143.069C94.0197 143.069 92.2885 144.8 92.2885 146.925C92.2885 149.049 94.0197 150.78 96.1443 150.78C98.2688 150.78 100 149.062 100 146.925ZM100 169.993C100 167.869 98.2688 166.138 96.1443 166.138C94.0197 166.138 92.2885 167.869 92.2885 169.993C92.2885 172.118 94.0197 173.849 96.1443 173.849C98.2688 173.862 100 172.131 100 169.993ZM100 193.075C100 190.951 98.2688 189.22 96.1443 189.22C94.0197 189.22 92.2885 190.951 92.2885 193.075C92.2885 195.2 94.0197 196.931 96.1443 196.931C98.2688 196.931 100 195.2 100 193.075ZM100 216.144C100 214.02 98.2688 212.289 96.1443 212.289C94.0197 212.289 92.2885 214.02 92.2885 216.144C92.2885 218.269 94.0197 220 96.1443 220C98.2688 220 100 218.269 100 216.144ZM76.9311 123.856C76.9311 121.731 75.2 120 73.0754 120C70.9508 120 69.2196 121.731 69.2196 123.856C69.2196 125.98 70.9508 127.711 73.0754 127.711C75.2 127.711 76.9311 125.993 76.9311 123.856ZM76.9311 146.925C76.9311 144.8 75.2 143.069 73.0754 143.069C70.9508 143.069 69.2196 144.8 69.2196 146.925C69.2196 149.049 70.9508 150.78 73.0754 150.78C75.2 150.78 76.9311 149.062 76.9311 146.925ZM76.9311 169.993C76.9311 167.869 75.2 166.138 73.0754 166.138C70.9508 166.138 69.2196 167.869 69.2196 169.993C69.2196 172.118 70.9508 173.849 73.0754 173.849C75.2 173.862 76.9311 172.131 76.9311 169.993ZM76.9311 193.075C76.9311 190.951 75.2 189.22 73.0754 189.22C70.9508 189.22 69.2196 190.951 69.2196 193.075C69.2196 195.2 70.9508 196.931 73.0754 196.931C75.2 196.931 76.9311 195.2 76.9311 193.075ZM76.9311 216.144C76.9311 214.02 75.2 212.289 73.0754 212.289C70.9508 212.289 69.2196 214.02 69.2196 216.144C69.2196 218.269 70.9508 220 73.0754 220C75.2 220 76.9311 218.269 76.9311 216.144ZM53.8492 123.856C53.8492 121.731 52.118 120 49.9934 120C47.8688 120 46.1377 121.731 46.1377 123.856C46.1377 125.98 47.8688 127.711 49.9934 127.711C52.1311 127.711 53.8492 125.993 53.8492 123.856ZM53.8492 146.925C53.8492 144.8 52.118 143.069 49.9934 143.069C47.8688 143.069 46.1377 144.8 46.1377 146.925C46.1377 149.049 47.8688 150.78 49.9934 150.78C52.1311 150.78 53.8492 149.062 53.8492 146.925ZM53.8492 169.993C53.8492 167.869 52.118 166.138 49.9934 166.138C47.8688 166.138 46.1377 167.869 46.1377 169.993C46.1377 172.118 47.8688 173.849 49.9934 173.849C52.1311 173.862 53.8492 172.131 53.8492 169.993ZM53.8492 193.075C53.8492 190.951 52.118 189.22 49.9934 189.22C47.8688 189.22 46.1377 190.951 46.1377 193.075C46.1377 195.2 47.8688 196.931 49.9934 196.931C52.1311 196.931 53.8492 195.2 53.8492 193.075ZM53.8492 216.144C53.8492 214.02 52.118 212.289 49.9934 212.289C47.8688 212.289 46.1377 214.02 46.1377 216.144C46.1377 218.269 47.8688 220 49.9934 220C52.1311 220 53.8492 218.269 53.8492 216.144ZM30.7803 123.856C30.7803 121.731 29.0491 120 26.9245 120C24.8 120 23.0689 121.731 23.0689 123.856C23.0689 125.98 24.8 127.711 26.9245 127.711C29.0623 127.711 30.7803 125.993 30.7803 123.856ZM30.7803 146.925C30.7803 144.8 29.0491 143.069 26.9245 143.069C24.8 143.069 23.0689 144.8 23.0689 146.925C23.0689 149.049 24.8 150.78 26.9245 150.78C29.0623 150.78 30.7803 149.062 30.7803 146.925ZM30.7803 169.993C30.7803 167.869 29.0491 166.138 26.9245 166.138C24.8 166.138 23.0689 167.869 23.0689 169.993C23.0689 172.118 24.8 173.849 26.9245 173.849C29.0623 173.862 30.7803 172.131 30.7803 169.993ZM30.7803 193.075C30.7803 190.951 29.0491 189.22 26.9245 189.22C24.8 189.22 23.0689 190.951 23.0689 193.075C23.0689 195.2 24.8 196.931 26.9245 196.931C29.0623 196.931 30.7803 195.2 30.7803 193.075ZM30.7803 216.144C30.7803 214.02 29.0491 212.289 26.9245 212.289C24.8 212.289 23.0689 214.02 23.0689 216.144C23.0689 218.269 24.8 220 26.9245 220C29.0623 220 30.7803 218.269 30.7803 216.144ZM7.71148 123.856C7.71148 121.731 5.98033 120 3.85574 120C1.73115 120 0 121.731 0 123.856C0 125.98 1.73115 127.711 3.85574 127.711C5.98033 127.711 7.71148 125.993 7.71148 123.856ZM7.71148 146.925C7.71148 144.8 5.98033 143.069 3.85574 143.069C1.73115 143.069 0 144.8 0 146.925C0 149.049 1.73115 150.78 3.85574 150.78C5.98033 150.78 7.71148 149.062 7.71148 146.925ZM7.71148 169.993C7.71148 167.869 5.98033 166.138 3.85574 166.138C1.73115 166.138 0 167.869 0 169.993C0 172.118 1.73115 173.849 3.85574 173.849C5.98033 173.849 7.71148 172.131 7.71148 169.993ZM7.71148 193.075C7.71148 190.951 5.98033 189.22 3.85574 189.22C1.73115 189.22 0 190.951 0 193.075C0 195.2 1.73115 196.931 3.85574 196.931C5.98033 196.931 7.71148 195.2 7.71148 193.075ZM7.71148 216.144C7.71148 214.02 5.98033 212.289 3.85574 212.289C1.73115 212.289 0 214.02 0 216.144C0 218.269 1.73115 220 3.85574 220C5.98033 220 7.71148 218.269 7.71148 216.144Z" fill="#ECF4D8"/>
<path d="M216.144 127.711C214.02 127.711 212.289 125.98 212.289 123.856C212.289 121.731 214.02 120 216.144 120C218.269 120 220 121.731 220 123.856C220 125.993 218.269 127.711 216.144 127.711ZM220 146.925C220 144.8 218.269 143.069 216.144 143.069C214.02 143.069 212.289 144.8 212.289 146.925C212.289 149.049 214.02 150.78 216.144 150.78C218.269 150.78 220 149.062 220 146.925ZM220 169.993C220 167.869 218.269 166.138 216.144 166.138C214.02 166.138 212.289 167.869 212.289 169.993C212.289 172.118 214.02 173.849 216.144 173.849C218.269 173.862 220 172.131 220 169.993ZM220 193.075C220 190.951 218.269 189.22 216.144 189.22C214.02 189.22 212.289 190.951 212.289 193.075C212.289 195.2 214.02 196.931 216.144 196.931C218.269 196.931 220 195.2 220 193.075ZM220 216.144C220 214.02 218.269 212.289 216.144 212.289C214.02 212.289 212.289 214.02 212.289 216.144C212.289 218.269 214.02 220 216.144 220C218.269 220 220 218.269 220 216.144ZM196.931 123.856C196.931 121.731 195.2 120 193.075 120C190.951 120 189.22 121.731 189.22 123.856C189.22 125.98 190.951 127.711 193.075 127.711C195.2 127.711 196.931 125.993 196.931 123.856ZM196.931 146.925C196.931 144.8 195.2 143.069 193.075 143.069C190.951 143.069 189.22 144.8 189.22 146.925C189.22 149.049 190.951 150.78 193.075 150.78C195.2 150.78 196.931 149.062 196.931 146.925ZM196.931 169.993C196.931 167.869 195.2 166.138 193.075 166.138C190.951 166.138 189.22 167.869 189.22 169.993C189.22 172.118 190.951 173.849 193.075 173.849C195.2 173.862 196.931 172.131 196.931 169.993ZM196.931 193.075C196.931 190.951 195.2 189.22 193.075 189.22C190.951 189.22 189.22 190.951 189.22 193.075C189.22 195.2 190.951 196.931 193.075 196.931C195.2 196.931 196.931 195.2 196.931 193.075ZM196.931 216.144C196.931 214.02 195.2 212.289 193.075 212.289C190.951 212.289 189.22 214.02 189.22 216.144C189.22 218.269 190.951 220 193.075 220C195.2 220 196.931 218.269 196.931 216.144ZM173.849 123.856C173.849 121.731 172.118 120 169.993 120C167.869 120 166.138 121.731 166.138 123.856C166.138 125.98 167.869 127.711 169.993 127.711C172.131 127.711 173.849 125.993 173.849 123.856ZM173.849 146.925C173.849 144.8 172.118 143.069 169.993 143.069C167.869 143.069 166.138 144.8 166.138 146.925C166.138 149.049 167.869 150.78 169.993 150.78C172.131 150.78 173.849 149.062 173.849 146.925ZM173.849 169.993C173.849 167.869 172.118 166.138 169.993 166.138C167.869 166.138 166.138 167.869 166.138 169.993C166.138 172.118 167.869 173.849 169.993 173.849C172.131 173.862 173.849 172.131 173.849 169.993ZM173.849 193.075C173.849 190.951 172.118 189.22 169.993 189.22C167.869 189.22 166.138 190.951 166.138 193.075C166.138 195.2 167.869 196.931 169.993 196.931C172.131 196.931 173.849 195.2 173.849 193.075ZM173.849 216.144C173.849 214.02 172.118 212.289 169.993 212.289C167.869 212.289 166.138 214.02 166.138 216.144C166.138 218.269 167.869 220 169.993 220C172.131 220 173.849 218.269 173.849 216.144ZM150.78 123.856C150.78 121.731 149.049 120 146.925 120C144.8 120 143.069 121.731 143.069 123.856C143.069 125.98 144.8 127.711 146.925 127.711C149.062 127.711 150.78 125.993 150.78 123.856ZM150.78 146.925C150.78 144.8 149.049 143.069 146.925 143.069C144.8 143.069 143.069 144.8 143.069 146.925C143.069 149.049 144.8 150.78 146.925 150.78C149.062 150.78 150.78 149.062 150.78 146.925ZM150.78 169.993C150.78 167.869 149.049 166.138 146.925 166.138C144.8 166.138 143.069 167.869 143.069 169.993C143.069 172.118 144.8 173.849 146.925 173.849C149.062 173.862 150.78 172.131 150.78 169.993ZM150.78 193.075C150.78 190.951 149.049 189.22 146.925 189.22C144.8 189.22 143.069 190.951 143.069 193.075C143.069 195.2 144.8 196.931 146.925 196.931C149.062 196.931 150.78 195.2 150.78 193.075ZM150.78 216.144C150.78 214.02 149.049 212.289 146.925 212.289C144.8 212.289 143.069 214.02 143.069 216.144C143.069 218.269 144.8 220 146.925 220C149.062 220 150.78 218.269 150.78 216.144ZM127.711 123.856C127.711 121.731 125.98 120 123.856 120C121.731 120 120 121.731 120 123.856C120 125.98 121.731 127.711 123.856 127.711C125.98 127.711 127.711 125.993 127.711 123.856ZM127.711 146.925C127.711 144.8 125.98 143.069 123.856 143.069C121.731 143.069 120 144.8 120 146.925C120 149.049 121.731 150.78 123.856 150.78C125.98 150.78 127.711 149.062 127.711 146.925ZM127.711 169.993C127.711 167.869 125.98 166.138 123.856 166.138C121.731 166.138 120 167.869 120 169.993C120 172.118 121.731 173.849 123.856 173.849C125.98 173.849 127.711 172.131 127.711 169.993ZM127.711 193.075C127.711 190.951 125.98 189.22 123.856 189.22C121.731 189.22 120 190.951 120 193.075C120 195.2 121.731 196.931 123.856 196.931C125.98 196.931 127.711 195.2 127.711 193.075ZM127.711 216.144C127.711 214.02 125.98 212.289 123.856 212.289C121.731 212.289 120 214.02 120 216.144C120 218.269 121.731 220 123.856 220C125.98 220 127.711 218.269 127.711 216.144Z" fill="#ECF4D8"/>
<path d="M336.144 127.711C334.02 127.711 332.289 125.98 332.289 123.856C332.289 121.731 334.02 120 336.144 120C338.269 120 340 121.731 340 123.856C340 125.993 338.269 127.711 336.144 127.711ZM340 146.925C340 144.8 338.269 143.069 336.144 143.069C334.02 143.069 332.289 144.8 332.289 146.925C332.289 149.049 334.02 150.78 336.144 150.78C338.269 150.78 340 149.062 340 146.925ZM340 169.993C340 167.869 338.269 166.138 336.144 166.138C334.02 166.138 332.289 167.869 332.289 169.993C332.289 172.118 334.02 173.849 336.144 173.849C338.269 173.862 340 172.131 340 169.993ZM340 193.075C340 190.951 338.269 189.22 336.144 189.22C334.02 189.22 332.289 190.951 332.289 193.075C332.289 195.2 334.02 196.931 336.144 196.931C338.269 196.931 340 195.2 340 193.075ZM340 216.144C340 214.02 338.269 212.289 336.144 212.289C334.02 212.289 332.289 214.02 332.289 216.144C332.289 218.269 334.02 220 336.144 220C338.269 220 340 218.269 340 216.144ZM316.931 123.856C316.931 121.731 315.2 120 313.075 120C310.951 120 309.22 121.731 309.22 123.856C309.22 125.98 310.951 127.711 313.075 127.711C315.2 127.711 316.931 125.993 316.931 123.856ZM316.931 146.925C316.931 144.8 315.2 143.069 313.075 143.069C310.951 143.069 309.22 144.8 309.22 146.925C309.22 149.049 310.951 150.78 313.075 150.78C315.2 150.78 316.931 149.062 316.931 146.925ZM316.931 169.993C316.931 167.869 315.2 166.138 313.075 166.138C310.951 166.138 309.22 167.869 309.22 169.993C309.22 172.118 310.951 173.849 313.075 173.849C315.2 173.862 316.931 172.131 316.931 169.993ZM316.931 193.075C316.931 190.951 315.2 189.22 313.075 189.22C310.951 189.22 309.22 190.951 309.22 193.075C309.22 195.2 310.951 196.931 313.075 196.931C315.2 196.931 316.931 195.2 316.931 193.075ZM316.931 216.144C316.931 214.02 315.2 212.289 313.075 212.289C310.951 212.289 309.22 214.02 309.22 216.144C309.22 218.269 310.951 220 313.075 220C315.2 220 316.931 218.269 316.931 216.144ZM293.849 123.856C293.849 121.731 292.118 120 289.993 120C287.869 120 286.138 121.731 286.138 123.856C286.138 125.98 287.869 127.711 289.993 127.711C292.131 127.711 293.849 125.993 293.849 123.856ZM293.849 146.925C293.849 144.8 292.118 143.069 289.993 143.069C287.869 143.069 286.138 144.8 286.138 146.925C286.138 149.049 287.869 150.78 289.993 150.78C292.131 150.78 293.849 149.062 293.849 146.925ZM293.849 169.993C293.849 167.869 292.118 166.138 289.993 166.138C287.869 166.138 286.138 167.869 286.138 169.993C286.138 172.118 287.869 173.849 289.993 173.849C292.131 173.862 293.849 172.131 293.849 169.993ZM293.849 193.075C293.849 190.951 292.118 189.22 289.993 189.22C287.869 189.22 286.138 190.951 286.138 193.075C286.138 195.2 287.869 196.931 289.993 196.931C292.131 196.931 293.849 195.2 293.849 193.075ZM293.849 216.144C293.849 214.02 292.118 212.289 289.993 212.289C287.869 212.289 286.138 214.02 286.138 216.144C286.138 218.269 287.869 220 289.993 220C292.131 220 293.849 218.269 293.849 216.144ZM270.78 123.856C270.78 121.731 269.049 120 266.925 120C264.8 120 263.069 121.731 263.069 123.856C263.069 125.98 264.8 127.711 266.925 127.711C269.062 127.711 270.78 125.993 270.78 123.856ZM270.78 146.925C270.78 144.8 269.049 143.069 266.925 143.069C264.8 143.069 263.069 144.8 263.069 146.925C263.069 149.049 264.8 150.78 266.925 150.78C269.062 150.78 270.78 149.062 270.78 146.925ZM270.78 169.993C270.78 167.869 269.049 166.138 266.925 166.138C264.8 166.138 263.069 167.869 263.069 169.993C263.069 172.118 264.8 173.849 266.925 173.849C269.062 173.862 270.78 172.131 270.78 169.993ZM270.78 193.075C270.78 190.951 269.049 189.22 266.925 189.22C264.8 189.22 263.069 190.951 263.069 193.075C263.069 195.2 264.8 196.931 266.925 196.931C269.062 196.931 270.78 195.2 270.78 193.075ZM270.78 216.144C270.78 214.02 269.049 212.289 266.925 212.289C264.8 212.289 263.069 214.02 263.069 216.144C263.069 218.269 264.8 220 266.925 220C269.062 220 270.78 218.269 270.78 216.144ZM247.711 123.856C247.711 121.731 245.98 120 243.856 120C241.731 120 240 121.731 240 123.856C240 125.98 241.731 127.711 243.856 127.711C245.98 127.711 247.711 125.993 247.711 123.856ZM247.711 146.925C247.711 144.8 245.98 143.069 243.856 143.069C241.731 143.069 240 144.8 240 146.925C240 149.049 241.731 150.78 243.856 150.78C245.98 150.78 247.711 149.062 247.711 146.925ZM247.711 169.993C247.711 167.869 245.98 166.138 243.856 166.138C241.731 166.138 240 167.869 240 169.993C240 172.118 241.731 173.849 243.856 173.849C245.98 173.849 247.711 172.131 247.711 169.993ZM247.711 193.075C247.711 190.951 245.98 189.22 243.856 189.22C241.731 189.22 240 190.951 240 193.075C240 195.2 241.731 196.931 243.856 196.931C245.98 196.931 247.711 195.2 247.711 193.075ZM247.711 216.144C247.711 214.02 245.98 212.289 243.856 212.289C241.731 212.289 240 214.02 240 216.144C240 218.269 241.731 220 243.856 220C245.98 220 247.711 218.269 247.711 216.144Z" fill="#ECF4D8"/>
</svg>
