<svg width="852" height="430" viewBox="0 0 852 430" fill="none" xmlns="http://www.w3.org/2000/svg">
<path d="M154.289 15.4229C150.039 15.4229 146.577 11.9607 146.577 7.71148C146.577 3.4623 150.039 0 154.289 0C158.538 0 162 3.4623 162 7.71148C162 11.9869 158.538 15.4229 154.289 15.4229ZM162 53.8492C162 49.6 158.538 46.1377 154.289 46.1377C150.039 46.1377 146.577 49.6 146.577 53.8492C146.577 58.0984 150.039 61.5607 154.289 61.5607C158.538 61.5607 162 58.1246 162 53.8492ZM162 99.9869C162 95.7377 158.538 92.2754 154.289 92.2754C150.039 92.2754 146.577 95.7377 146.577 99.9869C146.577 104.236 150.039 107.698 154.289 107.698C158.538 107.725 162 104.262 162 99.9869ZM162 146.151C162 141.902 158.538 138.439 154.289 138.439C150.039 138.439 146.577 141.902 146.577 146.151C146.577 150.4 150.039 153.862 154.289 153.862C158.538 153.862 162 150.4 162 146.151ZM162 192.289C162 188.039 158.538 184.577 154.289 184.577C150.039 184.577 146.577 188.039 146.577 192.289C146.577 196.538 150.039 200 154.289 200C158.538 200 162 196.538 162 192.289ZM115.862 7.71148C115.862 3.4623 112.4 0 108.151 0C103.902 0 100.439 3.4623 100.439 7.71148C100.439 11.9607 103.902 15.4229 108.151 15.4229C112.4 15.4229 115.862 11.9869 115.862 7.71148ZM115.862 53.8492C115.862 49.6 112.4 46.1377 108.151 46.1377C103.902 46.1377 100.439 49.6 100.439 53.8492C100.439 58.0984 103.902 61.5607 108.151 61.5607C112.4 61.5607 115.862 58.1246 115.862 53.8492ZM115.862 99.9869C115.862 95.7377 112.4 92.2754 108.151 92.2754C103.902 92.2754 100.439 95.7377 100.439 99.9869C100.439 104.236 103.902 107.698 108.151 107.698C112.4 107.725 115.862 104.262 115.862 99.9869ZM115.862 146.151C115.862 141.902 112.4 138.439 108.151 138.439C103.902 138.439 100.439 141.902 100.439 146.151C100.439 150.4 103.902 153.862 108.151 153.862C112.4 153.862 115.862 150.4 115.862 146.151ZM115.862 192.289C115.862 188.039 112.4 184.577 108.151 184.577C103.902 184.577 100.439 188.039 100.439 192.289C100.439 196.538 103.902 200 108.151 200C112.4 200 115.862 196.538 115.862 192.289ZM69.6984 7.71148C69.6984 3.4623 66.2361 0 61.9869 0C57.7377 0 54.2754 3.4623 54.2754 7.71148C54.2754 11.9607 57.7377 15.4229 61.9869 15.4229C66.2623 15.4229 69.6984 11.9869 69.6984 7.71148ZM69.6984 53.8492C69.6984 49.6 66.2361 46.1377 61.9869 46.1377C57.7377 46.1377 54.2754 49.6 54.2754 53.8492C54.2754 58.0984 57.7377 61.5607 61.9869 61.5607C66.2623 61.5607 69.6984 58.1246 69.6984 53.8492ZM69.6984 99.9869C69.6984 95.7377 66.2361 92.2754 61.9869 92.2754C57.7377 92.2754 54.2754 95.7377 54.2754 99.9869C54.2754 104.236 57.7377 107.698 61.9869 107.698C66.2623 107.725 69.6984 104.262 69.6984 99.9869ZM69.6984 146.151C69.6984 141.902 66.2361 138.439 61.9869 138.439C57.7377 138.439 54.2754 141.902 54.2754 146.151C54.2754 150.4 57.7377 153.862 61.9869 153.862C66.2623 153.862 69.6984 150.4 69.6984 146.151ZM69.6984 192.289C69.6984 188.039 66.2361 184.577 61.9869 184.577C57.7377 184.577 54.2754 188.039 54.2754 192.289C54.2754 196.538 57.7377 200 61.9869 200C66.2623 200 69.6984 196.538 69.6984 192.289ZM23.5606 7.71148C23.5606 3.4623 20.0983 0 15.8491 0C11.5999 0 8.13778 3.4623 8.13778 7.71148C8.13778 11.9607 11.5999 15.4229 15.8491 15.4229C20.1245 15.4229 23.5606 11.9869 23.5606 7.71148ZM23.5606 53.8492C23.5606 49.6 20.0983 46.1377 15.8491 46.1377C11.5999 46.1377 8.13778 49.6 8.13778 53.8492C8.13778 58.0984 11.5999 61.5607 15.8491 61.5607C20.1245 61.5607 23.5606 58.1246 23.5606 53.8492ZM23.5606 99.9869C23.5606 95.7377 20.0983 92.2754 15.8491 92.2754C11.5999 92.2754 8.13778 95.7377 8.13778 99.9869C8.13778 104.236 11.5999 107.698 15.8491 107.698C20.1245 107.725 23.5606 104.262 23.5606 99.9869ZM23.5606 146.151C23.5606 141.902 20.0983 138.439 15.8491 138.439C11.5999 138.439 8.13778 141.902 8.13778 146.151C8.13778 150.4 11.5999 153.862 15.8491 153.862C20.1245 153.862 23.5606 150.4 23.5606 146.151ZM23.5606 192.289C23.5606 188.039 20.0983 184.577 15.8491 184.577C11.5999 184.577 8.13778 188.039 8.13778 192.289C8.13778 196.538 11.5999 200 15.8491 200C20.1245 200 23.5606 196.538 23.5606 192.289ZM-22.577 7.71148C-22.577 3.4623 -26.0393 0 -30.2885 0C-34.5377 0 -38 3.4623 -38 7.71148C-38 11.9607 -34.5377 15.4229 -30.2885 15.4229C-26.0393 15.4229 -22.577 11.9869 -22.577 7.71148ZM-22.577 53.8492C-22.577 49.6 -26.0393 46.1377 -30.2885 46.1377C-34.5377 46.1377 -38 49.6 -38 53.8492C-38 58.0984 -34.5377 61.5607 -30.2885 61.5607C-26.0393 61.5607 -22.577 58.1246 -22.577 53.8492ZM-22.577 99.9869C-22.577 95.7377 -26.0393 92.2754 -30.2885 92.2754C-34.5377 92.2754 -38 95.7377 -38 99.9869C-38 104.236 -34.5377 107.698 -30.2885 107.698C-26.0393 107.698 -22.577 104.262 -22.577 99.9869ZM-22.577 146.151C-22.577 141.902 -26.0393 138.439 -30.2885 138.439C-34.5377 138.439 -38 141.902 -38 146.151C-38 150.4 -34.5377 153.862 -30.2885 153.862C-26.0393 153.862 -22.577 150.4 -22.577 146.151ZM-22.577 192.289C-22.577 188.039 -26.0393 184.577 -30.2885 184.577C-34.5377 184.577 -38 188.039 -38 192.289C-38 196.538 -34.5377 200 -30.2885 200C-26.0393 200 -22.577 196.538 -22.577 192.289Z" fill="#ECF4D8"/>
<path d="M384.289 15.4229C380.039 15.4229 376.577 11.9607 376.577 7.71148C376.577 3.4623 380.039 0 384.289 0C388.538 0 392 3.4623 392 7.71148C392 11.9869 388.538 15.4229 384.289 15.4229ZM392 53.8492C392 49.6 388.538 46.1377 384.289 46.1377C380.039 46.1377 376.577 49.6 376.577 53.8492C376.577 58.0984 380.039 61.5607 384.289 61.5607C388.538 61.5607 392 58.1246 392 53.8492ZM392 99.9869C392 95.7377 388.538 92.2754 384.289 92.2754C380.039 92.2754 376.577 95.7377 376.577 99.9869C376.577 104.236 380.039 107.698 384.289 107.698C388.538 107.725 392 104.262 392 99.9869ZM392 146.151C392 141.902 388.538 138.439 384.289 138.439C380.039 138.439 376.577 141.902 376.577 146.151C376.577 150.4 380.039 153.862 384.289 153.862C388.538 153.862 392 150.4 392 146.151ZM392 192.289C392 188.039 388.538 184.577 384.289 184.577C380.039 184.577 376.577 188.039 376.577 192.289C376.577 196.538 380.039 200 384.289 200C388.538 200 392 196.538 392 192.289ZM345.862 7.71148C345.862 3.4623 342.4 0 338.151 0C333.902 0 330.439 3.4623 330.439 7.71148C330.439 11.9607 333.902 15.4229 338.151 15.4229C342.4 15.4229 345.862 11.9869 345.862 7.71148ZM345.862 53.8492C345.862 49.6 342.4 46.1377 338.151 46.1377C333.902 46.1377 330.439 49.6 330.439 53.8492C330.439 58.0984 333.902 61.5607 338.151 61.5607C342.4 61.5607 345.862 58.1246 345.862 53.8492ZM345.862 99.9869C345.862 95.7377 342.4 92.2754 338.151 92.2754C333.902 92.2754 330.439 95.7377 330.439 99.9869C330.439 104.236 333.902 107.698 338.151 107.698C342.4 107.725 345.862 104.262 345.862 99.9869ZM345.862 146.151C345.862 141.902 342.4 138.439 338.151 138.439C333.902 138.439 330.439 141.902 330.439 146.151C330.439 150.4 333.902 153.862 338.151 153.862C342.4 153.862 345.862 150.4 345.862 146.151ZM345.862 192.289C345.862 188.039 342.4 184.577 338.151 184.577C333.902 184.577 330.439 188.039 330.439 192.289C330.439 196.538 333.902 200 338.151 200C342.4 200 345.862 196.538 345.862 192.289ZM299.698 7.71148C299.698 3.4623 296.236 0 291.987 0C287.738 0 284.275 3.4623 284.275 7.71148C284.275 11.9607 287.738 15.4229 291.987 15.4229C296.262 15.4229 299.698 11.9869 299.698 7.71148ZM299.698 53.8492C299.698 49.6 296.236 46.1377 291.987 46.1377C287.738 46.1377 284.275 49.6 284.275 53.8492C284.275 58.0984 287.738 61.5607 291.987 61.5607C296.262 61.5607 299.698 58.1246 299.698 53.8492ZM299.698 99.9869C299.698 95.7377 296.236 92.2754 291.987 92.2754C287.738 92.2754 284.275 95.7377 284.275 99.9869C284.275 104.236 287.738 107.698 291.987 107.698C296.262 107.725 299.698 104.262 299.698 99.9869ZM299.698 146.151C299.698 141.902 296.236 138.439 291.987 138.439C287.738 138.439 284.275 141.902 284.275 146.151C284.275 150.4 287.738 153.862 291.987 153.862C296.262 153.862 299.698 150.4 299.698 146.151ZM299.698 192.289C299.698 188.039 296.236 184.577 291.987 184.577C287.738 184.577 284.275 188.039 284.275 192.289C284.275 196.538 287.738 200 291.987 200C296.262 200 299.698 196.538 299.698 192.289ZM253.561 7.71148C253.561 3.4623 250.098 0 245.849 0C241.6 0 238.138 3.4623 238.138 7.71148C238.138 11.9607 241.6 15.4229 245.849 15.4229C250.125 15.4229 253.561 11.9869 253.561 7.71148ZM253.561 53.8492C253.561 49.6 250.098 46.1377 245.849 46.1377C241.6 46.1377 238.138 49.6 238.138 53.8492C238.138 58.0984 241.6 61.5607 245.849 61.5607C250.125 61.5607 253.561 58.1246 253.561 53.8492ZM253.561 99.9869C253.561 95.7377 250.098 92.2754 245.849 92.2754C241.6 92.2754 238.138 95.7377 238.138 99.9869C238.138 104.236 241.6 107.698 245.849 107.698C250.125 107.725 253.561 104.262 253.561 99.9869ZM253.561 146.151C253.561 141.902 250.098 138.439 245.849 138.439C241.6 138.439 238.138 141.902 238.138 146.151C238.138 150.4 241.6 153.862 245.849 153.862C250.125 153.862 253.561 150.4 253.561 146.151ZM253.561 192.289C253.561 188.039 250.098 184.577 245.849 184.577C241.6 184.577 238.138 188.039 238.138 192.289C238.138 196.538 241.6 200 245.849 200C250.125 200 253.561 196.538 253.561 192.289ZM207.423 7.71148C207.423 3.4623 203.961 0 199.711 0C195.462 0 192 3.4623 192 7.71148C192 11.9607 195.462 15.4229 199.711 15.4229C203.961 15.4229 207.423 11.9869 207.423 7.71148ZM207.423 53.8492C207.423 49.6 203.961 46.1377 199.711 46.1377C195.462 46.1377 192 49.6 192 53.8492C192 58.0984 195.462 61.5607 199.711 61.5607C203.961 61.5607 207.423 58.1246 207.423 53.8492ZM207.423 99.9869C207.423 95.7377 203.961 92.2754 199.711 92.2754C195.462 92.2754 192 95.7377 192 99.9869C192 104.236 195.462 107.698 199.711 107.698C203.961 107.698 207.423 104.262 207.423 99.9869ZM207.423 146.151C207.423 141.902 203.961 138.439 199.711 138.439C195.462 138.439 192 141.902 192 146.151C192 150.4 195.462 153.862 199.711 153.862C203.961 153.862 207.423 150.4 207.423 146.151ZM207.423 192.289C207.423 188.039 203.961 184.577 199.711 184.577C195.462 184.577 192 188.039 192 192.289C192 196.538 195.462 200 199.711 200C203.961 200 207.423 196.538 207.423 192.289Z" fill="#ECF4D8"/>
<path d="M614.289 15.4229C610.039 15.4229 606.577 11.9607 606.577 7.71148C606.577 3.4623 610.039 0 614.289 0C618.538 0 622 3.4623 622 7.71148C622 11.9869 618.538 15.4229 614.289 15.4229ZM622 53.8492C622 49.6 618.538 46.1377 614.289 46.1377C610.039 46.1377 606.577 49.6 606.577 53.8492C606.577 58.0984 610.039 61.5607 614.289 61.5607C618.538 61.5607 622 58.1246 622 53.8492ZM622 99.9869C622 95.7377 618.538 92.2754 614.289 92.2754C610.039 92.2754 606.577 95.7377 606.577 99.9869C606.577 104.236 610.039 107.698 614.289 107.698C618.538 107.725 622 104.262 622 99.9869ZM622 146.151C622 141.902 618.538 138.439 614.289 138.439C610.039 138.439 606.577 141.902 606.577 146.151C606.577 150.4 610.039 153.862 614.289 153.862C618.538 153.862 622 150.4 622 146.151ZM622 192.289C622 188.039 618.538 184.577 614.289 184.577C610.039 184.577 606.577 188.039 606.577 192.289C606.577 196.538 610.039 200 614.289 200C618.538 200 622 196.538 622 192.289ZM575.862 7.71148C575.862 3.4623 572.4 0 568.151 0C563.902 0 560.439 3.4623 560.439 7.71148C560.439 11.9607 563.902 15.4229 568.151 15.4229C572.4 15.4229 575.862 11.9869 575.862 7.71148ZM575.862 53.8492C575.862 49.6 572.4 46.1377 568.151 46.1377C563.902 46.1377 560.439 49.6 560.439 53.8492C560.439 58.0984 563.902 61.5607 568.151 61.5607C572.4 61.5607 575.862 58.1246 575.862 53.8492ZM575.862 99.9869C575.862 95.7377 572.4 92.2754 568.151 92.2754C563.902 92.2754 560.439 95.7377 560.439 99.9869C560.439 104.236 563.902 107.698 568.151 107.698C572.4 107.725 575.862 104.262 575.862 99.9869ZM575.862 146.151C575.862 141.902 572.4 138.439 568.151 138.439C563.902 138.439 560.439 141.902 560.439 146.151C560.439 150.4 563.902 153.862 568.151 153.862C572.4 153.862 575.862 150.4 575.862 146.151ZM575.862 192.289C575.862 188.039 572.4 184.577 568.151 184.577C563.902 184.577 560.439 188.039 560.439 192.289C560.439 196.538 563.902 200 568.151 200C572.4 200 575.862 196.538 575.862 192.289ZM529.698 7.71148C529.698 3.4623 526.236 0 521.987 0C517.738 0 514.275 3.4623 514.275 7.71148C514.275 11.9607 517.738 15.4229 521.987 15.4229C526.262 15.4229 529.698 11.9869 529.698 7.71148ZM529.698 53.8492C529.698 49.6 526.236 46.1377 521.987 46.1377C517.738 46.1377 514.275 49.6 514.275 53.8492C514.275 58.0984 517.738 61.5607 521.987 61.5607C526.262 61.5607 529.698 58.1246 529.698 53.8492ZM529.698 99.9869C529.698 95.7377 526.236 92.2754 521.987 92.2754C517.738 92.2754 514.275 95.7377 514.275 99.9869C514.275 104.236 517.738 107.698 521.987 107.698C526.262 107.725 529.698 104.262 529.698 99.9869ZM529.698 146.151C529.698 141.902 526.236 138.439 521.987 138.439C517.738 138.439 514.275 141.902 514.275 146.151C514.275 150.4 517.738 153.862 521.987 153.862C526.262 153.862 529.698 150.4 529.698 146.151ZM529.698 192.289C529.698 188.039 526.236 184.577 521.987 184.577C517.738 184.577 514.275 188.039 514.275 192.289C514.275 196.538 517.738 200 521.987 200C526.262 200 529.698 196.538 529.698 192.289ZM483.561 7.71148C483.561 3.4623 480.098 0 475.849 0C471.6 0 468.138 3.4623 468.138 7.71148C468.138 11.9607 471.6 15.4229 475.849 15.4229C480.125 15.4229 483.561 11.9869 483.561 7.71148ZM483.561 53.8492C483.561 49.6 480.098 46.1377 475.849 46.1377C471.6 46.1377 468.138 49.6 468.138 53.8492C468.138 58.0984 471.6 61.5607 475.849 61.5607C480.125 61.5607 483.561 58.1246 483.561 53.8492ZM483.561 99.9869C483.561 95.7377 480.098 92.2754 475.849 92.2754C471.6 92.2754 468.138 95.7377 468.138 99.9869C468.138 104.236 471.6 107.698 475.849 107.698C480.125 107.725 483.561 104.262 483.561 99.9869ZM483.561 146.151C483.561 141.902 480.098 138.439 475.849 138.439C471.6 138.439 468.138 141.902 468.138 146.151C468.138 150.4 471.6 153.862 475.849 153.862C480.125 153.862 483.561 150.4 483.561 146.151ZM483.561 192.289C483.561 188.039 480.098 184.577 475.849 184.577C471.6 184.577 468.138 188.039 468.138 192.289C468.138 196.538 471.6 200 475.849 200C480.125 200 483.561 196.538 483.561 192.289ZM437.423 7.71148C437.423 3.4623 433.961 0 429.711 0C425.462 0 422 3.4623 422 7.71148C422 11.9607 425.462 15.4229 429.711 15.4229C433.961 15.4229 437.423 11.9869 437.423 7.71148ZM437.423 53.8492C437.423 49.6 433.961 46.1377 429.711 46.1377C425.462 46.1377 422 49.6 422 53.8492C422 58.0984 425.462 61.5607 429.711 61.5607C433.961 61.5607 437.423 58.1246 437.423 53.8492ZM437.423 99.9869C437.423 95.7377 433.961 92.2754 429.711 92.2754C425.462 92.2754 422 95.7377 422 99.9869C422 104.236 425.462 107.698 429.711 107.698C433.961 107.698 437.423 104.262 437.423 99.9869ZM437.423 146.151C437.423 141.902 433.961 138.439 429.711 138.439C425.462 138.439 422 141.902 422 146.151C422 150.4 425.462 153.862 429.711 153.862C433.961 153.862 437.423 150.4 437.423 146.151ZM437.423 192.289C437.423 188.039 433.961 184.577 429.711 184.577C425.462 184.577 422 188.039 422 192.289C422 196.538 425.462 200 429.711 200C433.961 200 437.423 196.538 437.423 192.289Z" fill="#ECF4D8"/>
<path d="M154.289 245.423C150.039 245.423 146.577 241.961 146.577 237.711C146.577 233.462 150.039 230 154.289 230C158.538 230 162 233.462 162 237.711C162 241.987 158.538 245.423 154.289 245.423ZM162 283.849C162 279.6 158.538 276.138 154.289 276.138C150.039 276.138 146.577 279.6 146.577 283.849C146.577 288.098 150.039 291.561 154.289 291.561C158.538 291.561 162 288.125 162 283.849ZM162 329.987C162 325.738 158.538 322.275 154.289 322.275C150.039 322.275 146.577 325.738 146.577 329.987C146.577 334.236 150.039 337.698 154.289 337.698C158.538 337.725 162 334.262 162 329.987ZM162 376.151C162 371.902 158.538 368.439 154.289 368.439C150.039 368.439 146.577 371.902 146.577 376.151C146.577 380.4 150.039 383.862 154.289 383.862C158.538 383.862 162 380.4 162 376.151ZM162 422.289C162 418.039 158.538 414.577 154.289 414.577C150.039 414.577 146.577 418.039 146.577 422.289C146.577 426.538 150.039 430 154.289 430C158.538 430 162 426.538 162 422.289ZM115.862 237.711C115.862 233.462 112.4 230 108.151 230C103.902 230 100.439 233.462 100.439 237.711C100.439 241.961 103.902 245.423 108.151 245.423C112.4 245.423 115.862 241.987 115.862 237.711ZM115.862 283.849C115.862 279.6 112.4 276.138 108.151 276.138C103.902 276.138 100.439 279.6 100.439 283.849C100.439 288.098 103.902 291.561 108.151 291.561C112.4 291.561 115.862 288.125 115.862 283.849ZM115.862 329.987C115.862 325.738 112.4 322.275 108.151 322.275C103.902 322.275 100.439 325.738 100.439 329.987C100.439 334.236 103.902 337.698 108.151 337.698C112.4 337.725 115.862 334.262 115.862 329.987ZM115.862 376.151C115.862 371.902 112.4 368.439 108.151 368.439C103.902 368.439 100.439 371.902 100.439 376.151C100.439 380.4 103.902 383.862 108.151 383.862C112.4 383.862 115.862 380.4 115.862 376.151ZM115.862 422.289C115.862 418.039 112.4 414.577 108.151 414.577C103.902 414.577 100.439 418.039 100.439 422.289C100.439 426.538 103.902 430 108.151 430C112.4 430 115.862 426.538 115.862 422.289ZM69.6984 237.711C69.6984 233.462 66.2361 230 61.9869 230C57.7377 230 54.2754 233.462 54.2754 237.711C54.2754 241.961 57.7377 245.423 61.9869 245.423C66.2623 245.423 69.6984 241.987 69.6984 237.711ZM69.6984 283.849C69.6984 279.6 66.2361 276.138 61.9869 276.138C57.7377 276.138 54.2754 279.6 54.2754 283.849C54.2754 288.098 57.7377 291.561 61.9869 291.561C66.2623 291.561 69.6984 288.125 69.6984 283.849ZM69.6984 329.987C69.6984 325.738 66.2361 322.275 61.9869 322.275C57.7377 322.275 54.2754 325.738 54.2754 329.987C54.2754 334.236 57.7377 337.698 61.9869 337.698C66.2623 337.725 69.6984 334.262 69.6984 329.987ZM69.6984 376.151C69.6984 371.902 66.2361 368.439 61.9869 368.439C57.7377 368.439 54.2754 371.902 54.2754 376.151C54.2754 380.4 57.7377 383.862 61.9869 383.862C66.2623 383.862 69.6984 380.4 69.6984 376.151ZM69.6984 422.289C69.6984 418.039 66.2361 414.577 61.9869 414.577C57.7377 414.577 54.2754 418.039 54.2754 422.289C54.2754 426.538 57.7377 430 61.9869 430C66.2623 430 69.6984 426.538 69.6984 422.289ZM23.5606 237.711C23.5606 233.462 20.0983 230 15.8491 230C11.5999 230 8.13778 233.462 8.13778 237.711C8.13778 241.961 11.5999 245.423 15.8491 245.423C20.1245 245.423 23.5606 241.987 23.5606 237.711ZM23.5606 283.849C23.5606 279.6 20.0983 276.138 15.8491 276.138C11.5999 276.138 8.13778 279.6 8.13778 283.849C8.13778 288.098 11.5999 291.561 15.8491 291.561C20.1245 291.561 23.5606 288.125 23.5606 283.849ZM23.5606 329.987C23.5606 325.738 20.0983 322.275 15.8491 322.275C11.5999 322.275 8.13778 325.738 8.13778 329.987C8.13778 334.236 11.5999 337.698 15.8491 337.698C20.1245 337.725 23.5606 334.262 23.5606 329.987ZM23.5606 376.151C23.5606 371.902 20.0983 368.439 15.8491 368.439C11.5999 368.439 8.13778 371.902 8.13778 376.151C8.13778 380.4 11.5999 383.862 15.8491 383.862C20.1245 383.862 23.5606 380.4 23.5606 376.151ZM23.5606 422.289C23.5606 418.039 20.0983 414.577 15.8491 414.577C11.5999 414.577 8.13778 418.039 8.13778 422.289C8.13778 426.538 11.5999 430 15.8491 430C20.1245 430 23.5606 426.538 23.5606 422.289ZM-22.577 237.711C-22.577 233.462 -26.0393 230 -30.2885 230C-34.5377 230 -38 233.462 -38 237.711C-38 241.961 -34.5377 245.423 -30.2885 245.423C-26.0393 245.423 -22.577 241.987 -22.577 237.711ZM-22.577 283.849C-22.577 279.6 -26.0393 276.138 -30.2885 276.138C-34.5377 276.138 -38 279.6 -38 283.849C-38 288.098 -34.5377 291.561 -30.2885 291.561C-26.0393 291.561 -22.577 288.125 -22.577 283.849ZM-22.577 329.987C-22.577 325.738 -26.0393 322.275 -30.2885 322.275C-34.5377 322.275 -38 325.738 -38 329.987C-38 334.236 -34.5377 337.698 -30.2885 337.698C-26.0393 337.698 -22.577 334.262 -22.577 329.987ZM-22.577 376.151C-22.577 371.902 -26.0393 368.439 -30.2885 368.439C-34.5377 368.439 -38 371.902 -38 376.151C-38 380.4 -34.5377 383.862 -30.2885 383.862C-26.0393 383.862 -22.577 380.4 -22.577 376.151ZM-22.577 422.289C-22.577 418.039 -26.0393 414.577 -30.2885 414.577C-34.5377 414.577 -38 418.039 -38 422.289C-38 426.538 -34.5377 430 -30.2885 430C-26.0393 430 -22.577 426.538 -22.577 422.289Z" fill="#ECF4D8"/>
<path d="M384.289 245.423C380.039 245.423 376.577 241.961 376.577 237.711C376.577 233.462 380.039 230 384.289 230C388.538 230 392 233.462 392 237.711C392 241.987 388.538 245.423 384.289 245.423ZM392 283.849C392 279.6 388.538 276.138 384.289 276.138C380.039 276.138 376.577 279.6 376.577 283.849C376.577 288.098 380.039 291.561 384.289 291.561C388.538 291.561 392 288.125 392 283.849ZM392 329.987C392 325.738 388.538 322.275 384.289 322.275C380.039 322.275 376.577 325.738 376.577 329.987C376.577 334.236 380.039 337.698 384.289 337.698C388.538 337.725 392 334.262 392 329.987ZM392 376.151C392 371.902 388.538 368.439 384.289 368.439C380.039 368.439 376.577 371.902 376.577 376.151C376.577 380.4 380.039 383.862 384.289 383.862C388.538 383.862 392 380.4 392 376.151ZM392 422.289C392 418.039 388.538 414.577 384.289 414.577C380.039 414.577 376.577 418.039 376.577 422.289C376.577 426.538 380.039 430 384.289 430C388.538 430 392 426.538 392 422.289ZM345.862 237.711C345.862 233.462 342.4 230 338.151 230C333.902 230 330.439 233.462 330.439 237.711C330.439 241.961 333.902 245.423 338.151 245.423C342.4 245.423 345.862 241.987 345.862 237.711ZM345.862 283.849C345.862 279.6 342.4 276.138 338.151 276.138C333.902 276.138 330.439 279.6 330.439 283.849C330.439 288.098 333.902 291.561 338.151 291.561C342.4 291.561 345.862 288.125 345.862 283.849ZM345.862 329.987C345.862 325.738 342.4 322.275 338.151 322.275C333.902 322.275 330.439 325.738 330.439 329.987C330.439 334.236 333.902 337.698 338.151 337.698C342.4 337.725 345.862 334.262 345.862 329.987ZM345.862 376.151C345.862 371.902 342.4 368.439 338.151 368.439C333.902 368.439 330.439 371.902 330.439 376.151C330.439 380.4 333.902 383.862 338.151 383.862C342.4 383.862 345.862 380.4 345.862 376.151ZM345.862 422.289C345.862 418.039 342.4 414.577 338.151 414.577C333.902 414.577 330.439 418.039 330.439 422.289C330.439 426.538 333.902 430 338.151 430C342.4 430 345.862 426.538 345.862 422.289ZM299.698 237.711C299.698 233.462 296.236 230 291.987 230C287.738 230 284.275 233.462 284.275 237.711C284.275 241.961 287.738 245.423 291.987 245.423C296.262 245.423 299.698 241.987 299.698 237.711ZM299.698 283.849C299.698 279.6 296.236 276.138 291.987 276.138C287.738 276.138 284.275 279.6 284.275 283.849C284.275 288.098 287.738 291.561 291.987 291.561C296.262 291.561 299.698 288.125 299.698 283.849ZM299.698 329.987C299.698 325.738 296.236 322.275 291.987 322.275C287.738 322.275 284.275 325.738 284.275 329.987C284.275 334.236 287.738 337.698 291.987 337.698C296.262 337.725 299.698 334.262 299.698 329.987ZM299.698 376.151C299.698 371.902 296.236 368.439 291.987 368.439C287.738 368.439 284.275 371.902 284.275 376.151C284.275 380.4 287.738 383.862 291.987 383.862C296.262 383.862 299.698 380.4 299.698 376.151ZM299.698 422.289C299.698 418.039 296.236 414.577 291.987 414.577C287.738 414.577 284.275 418.039 284.275 422.289C284.275 426.538 287.738 430 291.987 430C296.262 430 299.698 426.538 299.698 422.289ZM253.561 237.711C253.561 233.462 250.098 230 245.849 230C241.6 230 238.138 233.462 238.138 237.711C238.138 241.961 241.6 245.423 245.849 245.423C250.125 245.423 253.561 241.987 253.561 237.711ZM253.561 283.849C253.561 279.6 250.098 276.138 245.849 276.138C241.6 276.138 238.138 279.6 238.138 283.849C238.138 288.098 241.6 291.561 245.849 291.561C250.125 291.561 253.561 288.125 253.561 283.849ZM253.561 329.987C253.561 325.738 250.098 322.275 245.849 322.275C241.6 322.275 238.138 325.738 238.138 329.987C238.138 334.236 241.6 337.698 245.849 337.698C250.125 337.725 253.561 334.262 253.561 329.987ZM253.561 376.151C253.561 371.902 250.098 368.439 245.849 368.439C241.6 368.439 238.138 371.902 238.138 376.151C238.138 380.4 241.6 383.862 245.849 383.862C250.125 383.862 253.561 380.4 253.561 376.151ZM253.561 422.289C253.561 418.039 250.098 414.577 245.849 414.577C241.6 414.577 238.138 418.039 238.138 422.289C238.138 426.538 241.6 430 245.849 430C250.125 430 253.561 426.538 253.561 422.289ZM207.423 237.711C207.423 233.462 203.961 230 199.711 230C195.462 230 192 233.462 192 237.711C192 241.961 195.462 245.423 199.711 245.423C203.961 245.423 207.423 241.987 207.423 237.711ZM207.423 283.849C207.423 279.6 203.961 276.138 199.711 276.138C195.462 276.138 192 279.6 192 283.849C192 288.098 195.462 291.561 199.711 291.561C203.961 291.561 207.423 288.125 207.423 283.849ZM207.423 329.987C207.423 325.738 203.961 322.275 199.711 322.275C195.462 322.275 192 325.738 192 329.987C192 334.236 195.462 337.698 199.711 337.698C203.961 337.698 207.423 334.262 207.423 329.987ZM207.423 376.151C207.423 371.902 203.961 368.439 199.711 368.439C195.462 368.439 192 371.902 192 376.151C192 380.4 195.462 383.862 199.711 383.862C203.961 383.862 207.423 380.4 207.423 376.151ZM207.423 422.289C207.423 418.039 203.961 414.577 199.711 414.577C195.462 414.577 192 418.039 192 422.289C192 426.538 195.462 430 199.711 430C203.961 430 207.423 426.538 207.423 422.289Z" fill="#ECF4D8"/>
<path d="M614.289 245.423C610.039 245.423 606.577 241.961 606.577 237.711C606.577 233.462 610.039 230 614.289 230C618.538 230 622 233.462 622 237.711C622 241.987 618.538 245.423 614.289 245.423ZM622 283.849C622 279.6 618.538 276.138 614.289 276.138C610.039 276.138 606.577 279.6 606.577 283.849C606.577 288.098 610.039 291.561 614.289 291.561C618.538 291.561 622 288.125 622 283.849ZM622 329.987C622 325.738 618.538 322.275 614.289 322.275C610.039 322.275 606.577 325.738 606.577 329.987C606.577 334.236 610.039 337.698 614.289 337.698C618.538 337.725 622 334.262 622 329.987ZM622 376.151C622 371.902 618.538 368.439 614.289 368.439C610.039 368.439 606.577 371.902 606.577 376.151C606.577 380.4 610.039 383.862 614.289 383.862C618.538 383.862 622 380.4 622 376.151ZM622 422.289C622 418.039 618.538 414.577 614.289 414.577C610.039 414.577 606.577 418.039 606.577 422.289C606.577 426.538 610.039 430 614.289 430C618.538 430 622 426.538 622 422.289ZM575.862 237.711C575.862 233.462 572.4 230 568.151 230C563.902 230 560.439 233.462 560.439 237.711C560.439 241.961 563.902 245.423 568.151 245.423C572.4 245.423 575.862 241.987 575.862 237.711ZM575.862 283.849C575.862 279.6 572.4 276.138 568.151 276.138C563.902 276.138 560.439 279.6 560.439 283.849C560.439 288.098 563.902 291.561 568.151 291.561C572.4 291.561 575.862 288.125 575.862 283.849ZM575.862 329.987C575.862 325.738 572.4 322.275 568.151 322.275C563.902 322.275 560.439 325.738 560.439 329.987C560.439 334.236 563.902 337.698 568.151 337.698C572.4 337.725 575.862 334.262 575.862 329.987ZM575.862 376.151C575.862 371.902 572.4 368.439 568.151 368.439C563.902 368.439 560.439 371.902 560.439 376.151C560.439 380.4 563.902 383.862 568.151 383.862C572.4 383.862 575.862 380.4 575.862 376.151ZM575.862 422.289C575.862 418.039 572.4 414.577 568.151 414.577C563.902 414.577 560.439 418.039 560.439 422.289C560.439 426.538 563.902 430 568.151 430C572.4 430 575.862 426.538 575.862 422.289ZM529.698 237.711C529.698 233.462 526.236 230 521.987 230C517.738 230 514.275 233.462 514.275 237.711C514.275 241.961 517.738 245.423 521.987 245.423C526.262 245.423 529.698 241.987 529.698 237.711ZM529.698 283.849C529.698 279.6 526.236 276.138 521.987 276.138C517.738 276.138 514.275 279.6 514.275 283.849C514.275 288.098 517.738 291.561 521.987 291.561C526.262 291.561 529.698 288.125 529.698 283.849ZM529.698 329.987C529.698 325.738 526.236 322.275 521.987 322.275C517.738 322.275 514.275 325.738 514.275 329.987C514.275 334.236 517.738 337.698 521.987 337.698C526.262 337.725 529.698 334.262 529.698 329.987ZM529.698 376.151C529.698 371.902 526.236 368.439 521.987 368.439C517.738 368.439 514.275 371.902 514.275 376.151C514.275 380.4 517.738 383.862 521.987 383.862C526.262 383.862 529.698 380.4 529.698 376.151ZM529.698 422.289C529.698 418.039 526.236 414.577 521.987 414.577C517.738 414.577 514.275 418.039 514.275 422.289C514.275 426.538 517.738 430 521.987 430C526.262 430 529.698 426.538 529.698 422.289ZM483.561 237.711C483.561 233.462 480.098 230 475.849 230C471.6 230 468.138 233.462 468.138 237.711C468.138 241.961 471.6 245.423 475.849 245.423C480.125 245.423 483.561 241.987 483.561 237.711ZM483.561 283.849C483.561 279.6 480.098 276.138 475.849 276.138C471.6 276.138 468.138 279.6 468.138 283.849C468.138 288.098 471.6 291.561 475.849 291.561C480.125 291.561 483.561 288.125 483.561 283.849ZM483.561 329.987C483.561 325.738 480.098 322.275 475.849 322.275C471.6 322.275 468.138 325.738 468.138 329.987C468.138 334.236 471.6 337.698 475.849 337.698C480.125 337.725 483.561 334.262 483.561 329.987ZM483.561 376.151C483.561 371.902 480.098 368.439 475.849 368.439C471.6 368.439 468.138 371.902 468.138 376.151C468.138 380.4 471.6 383.862 475.849 383.862C480.125 383.862 483.561 380.4 483.561 376.151ZM483.561 422.289C483.561 418.039 480.098 414.577 475.849 414.577C471.6 414.577 468.138 418.039 468.138 422.289C468.138 426.538 471.6 430 475.849 430C480.125 430 483.561 426.538 483.561 422.289ZM437.423 237.711C437.423 233.462 433.961 230 429.711 230C425.462 230 422 233.462 422 237.711C422 241.961 425.462 245.423 429.711 245.423C433.961 245.423 437.423 241.987 437.423 237.711ZM437.423 283.849C437.423 279.6 433.961 276.138 429.711 276.138C425.462 276.138 422 279.6 422 283.849C422 288.098 425.462 291.561 429.711 291.561C433.961 291.561 437.423 288.125 437.423 283.849ZM437.423 329.987C437.423 325.738 433.961 322.275 429.711 322.275C425.462 322.275 422 325.738 422 329.987C422 334.236 425.462 337.698 429.711 337.698C433.961 337.698 437.423 334.262 437.423 329.987ZM437.423 376.151C437.423 371.902 433.961 368.439 429.711 368.439C425.462 368.439 422 371.902 422 376.151C422 380.4 425.462 383.862 429.711 383.862C433.961 383.862 437.423 380.4 437.423 376.151ZM437.423 422.289C437.423 418.039 433.961 414.577 429.711 414.577C425.462 414.577 422 418.039 422 422.289C422 426.538 425.462 430 429.711 430C433.961 430 437.423 426.538 437.423 422.289Z" fill="#ECF4D8"/>
<path d="M844.289 245.423C840.039 245.423 836.577 241.961 836.577 237.711C836.577 233.462 840.039 230 844.289 230C848.538 230 852 233.462 852 237.711C852 241.987 848.538 245.423 844.289 245.423ZM852 283.849C852 279.6 848.538 276.138 844.289 276.138C840.039 276.138 836.577 279.6 836.577 283.849C836.577 288.098 840.039 291.561 844.289 291.561C848.538 291.561 852 288.125 852 283.849ZM852 329.987C852 325.738 848.538 322.275 844.289 322.275C840.039 322.275 836.577 325.738 836.577 329.987C836.577 334.236 840.039 337.698 844.289 337.698C848.538 337.725 852 334.262 852 329.987ZM852 376.151C852 371.902 848.538 368.439 844.289 368.439C840.039 368.439 836.577 371.902 836.577 376.151C836.577 380.4 840.039 383.862 844.289 383.862C848.538 383.862 852 380.4 852 376.151ZM852 422.289C852 418.039 848.538 414.577 844.289 414.577C840.039 414.577 836.577 418.039 836.577 422.289C836.577 426.538 840.039 430 844.289 430C848.538 430 852 426.538 852 422.289ZM805.862 237.711C805.862 233.462 802.4 230 798.151 230C793.902 230 790.439 233.462 790.439 237.711C790.439 241.961 793.902 245.423 798.151 245.423C802.4 245.423 805.862 241.987 805.862 237.711ZM805.862 283.849C805.862 279.6 802.4 276.138 798.151 276.138C793.902 276.138 790.439 279.6 790.439 283.849C790.439 288.098 793.902 291.561 798.151 291.561C802.4 291.561 805.862 288.125 805.862 283.849ZM805.862 329.987C805.862 325.738 802.4 322.275 798.151 322.275C793.902 322.275 790.439 325.738 790.439 329.987C790.439 334.236 793.902 337.698 798.151 337.698C802.4 337.725 805.862 334.262 805.862 329.987ZM805.862 376.151C805.862 371.902 802.4 368.439 798.151 368.439C793.902 368.439 790.439 371.902 790.439 376.151C790.439 380.4 793.902 383.862 798.151 383.862C802.4 383.862 805.862 380.4 805.862 376.151ZM805.862 422.289C805.862 418.039 802.4 414.577 798.151 414.577C793.902 414.577 790.439 418.039 790.439 422.289C790.439 426.538 793.902 430 798.151 430C802.4 430 805.862 426.538 805.862 422.289ZM759.698 237.711C759.698 233.462 756.236 230 751.987 230C747.738 230 744.275 233.462 744.275 237.711C744.275 241.961 747.738 245.423 751.987 245.423C756.262 245.423 759.698 241.987 759.698 237.711ZM759.698 283.849C759.698 279.6 756.236 276.138 751.987 276.138C747.738 276.138 744.275 279.6 744.275 283.849C744.275 288.098 747.738 291.561 751.987 291.561C756.262 291.561 759.698 288.125 759.698 283.849ZM759.698 329.987C759.698 325.738 756.236 322.275 751.987 322.275C747.738 322.275 744.275 325.738 744.275 329.987C744.275 334.236 747.738 337.698 751.987 337.698C756.262 337.725 759.698 334.262 759.698 329.987ZM759.698 376.151C759.698 371.902 756.236 368.439 751.987 368.439C747.738 368.439 744.275 371.902 744.275 376.151C744.275 380.4 747.738 383.862 751.987 383.862C756.262 383.862 759.698 380.4 759.698 376.151ZM759.698 422.289C759.698 418.039 756.236 414.577 751.987 414.577C747.738 414.577 744.275 418.039 744.275 422.289C744.275 426.538 747.738 430 751.987 430C756.262 430 759.698 426.538 759.698 422.289ZM713.561 237.711C713.561 233.462 710.098 230 705.849 230C701.6 230 698.138 233.462 698.138 237.711C698.138 241.961 701.6 245.423 705.849 245.423C710.125 245.423 713.561 241.987 713.561 237.711ZM713.561 283.849C713.561 279.6 710.098 276.138 705.849 276.138C701.6 276.138 698.138 279.6 698.138 283.849C698.138 288.098 701.6 291.561 705.849 291.561C710.125 291.561 713.561 288.125 713.561 283.849ZM713.561 329.987C713.561 325.738 710.098 322.275 705.849 322.275C701.6 322.275 698.138 325.738 698.138 329.987C698.138 334.236 701.6 337.698 705.849 337.698C710.125 337.725 713.561 334.262 713.561 329.987ZM713.561 376.151C713.561 371.902 710.098 368.439 705.849 368.439C701.6 368.439 698.138 371.902 698.138 376.151C698.138 380.4 701.6 383.862 705.849 383.862C710.125 383.862 713.561 380.4 713.561 376.151ZM713.561 422.289C713.561 418.039 710.098 414.577 705.849 414.577C701.6 414.577 698.138 418.039 698.138 422.289C698.138 426.538 701.6 430 705.849 430C710.125 430 713.561 426.538 713.561 422.289ZM667.423 237.711C667.423 233.462 663.961 230 659.711 230C655.462 230 652 233.462 652 237.711C652 241.961 655.462 245.423 659.711 245.423C663.961 245.423 667.423 241.987 667.423 237.711ZM667.423 283.849C667.423 279.6 663.961 276.138 659.711 276.138C655.462 276.138 652 279.6 652 283.849C652 288.098 655.462 291.561 659.711 291.561C663.961 291.561 667.423 288.125 667.423 283.849ZM667.423 329.987C667.423 325.738 663.961 322.275 659.711 322.275C655.462 322.275 652 325.738 652 329.987C652 334.236 655.462 337.698 659.711 337.698C663.961 337.698 667.423 334.262 667.423 329.987ZM667.423 376.151C667.423 371.902 663.961 368.439 659.711 368.439C655.462 368.439 652 371.902 652 376.151C652 380.4 655.462 383.862 659.711 383.862C663.961 383.862 667.423 380.4 667.423 376.151ZM667.423 422.289C667.423 418.039 663.961 414.577 659.711 414.577C655.462 414.577 652 418.039 652 422.289C652 426.538 655.462 430 659.711 430C663.961 430 667.423 426.538 667.423 422.289Z" fill="#ECF4D8"/>
</svg>
