<svg width="336" height="660" viewBox="0 0 336 660" fill="none" xmlns="http://www.w3.org/2000/svg">
<path d="M98.2885 15.4229C94.0393 15.4229 90.577 11.9607 90.577 7.71148C90.577 3.4623 94.0393 0 98.2885 0C102.538 0 106 3.4623 106 7.71148C106 11.9869 102.538 15.4229 98.2885 15.4229ZM106 53.8492C106 49.6 102.538 46.1377 98.2885 46.1377C94.0393 46.1377 90.577 49.6 90.577 53.8492C90.577 58.0984 94.0393 61.5607 98.2885 61.5607C102.538 61.5607 106 58.1246 106 53.8492ZM106 99.9869C106 95.7377 102.538 92.2754 98.2885 92.2754C94.0393 92.2754 90.577 95.7377 90.577 99.9869C90.577 104.236 94.0393 107.698 98.2885 107.698C102.538 107.725 106 104.262 106 99.9869ZM106 146.151C106 141.902 102.538 138.439 98.2885 138.439C94.0393 138.439 90.577 141.902 90.577 146.151C90.577 150.4 94.0393 153.862 98.2885 153.862C102.538 153.862 106 150.4 106 146.151ZM106 192.289C106 188.039 102.538 184.577 98.2885 184.577C94.0393 184.577 90.577 188.039 90.577 192.289C90.577 196.538 94.0393 200 98.2885 200C102.538 200 106 196.538 106 192.289ZM59.8622 7.71148C59.8622 3.4623 56.3999 0 52.1507 0C47.9016 0 44.4393 3.4623 44.4393 7.71148C44.4393 11.9607 47.9016 15.4229 52.1507 15.4229C56.3999 15.4229 59.8622 11.9869 59.8622 7.71148ZM59.8622 53.8492C59.8622 49.6 56.3999 46.1377 52.1507 46.1377C47.9016 46.1377 44.4393 49.6 44.4393 53.8492C44.4393 58.0984 47.9016 61.5607 52.1507 61.5607C56.3999 61.5607 59.8622 58.1246 59.8622 53.8492ZM59.8622 99.9869C59.8622 95.7377 56.3999 92.2754 52.1507 92.2754C47.9016 92.2754 44.4393 95.7377 44.4393 99.9869C44.4393 104.236 47.9016 107.698 52.1507 107.698C56.3999 107.725 59.8622 104.262 59.8622 99.9869ZM59.8622 146.151C59.8622 141.902 56.3999 138.439 52.1507 138.439C47.9016 138.439 44.4393 141.902 44.4393 146.151C44.4393 150.4 47.9016 153.862 52.1507 153.862C56.3999 153.862 59.8622 150.4 59.8622 146.151ZM59.8622 192.289C59.8622 188.039 56.3999 184.577 52.1507 184.577C47.9016 184.577 44.4393 188.039 44.4393 192.289C44.4393 196.538 47.9016 200 52.1507 200C56.3999 200 59.8622 196.538 59.8622 192.289ZM13.6984 7.71148C13.6984 3.4623 10.2361 0 5.98687 0C1.73769 0 -1.72461 3.4623 -1.72461 7.71148C-1.72461 11.9607 1.73769 15.4229 5.98687 15.4229C10.2623 15.4229 13.6984 11.9869 13.6984 7.71148ZM13.6984 53.8492C13.6984 49.6 10.2361 46.1377 5.98687 46.1377C1.73769 46.1377 -1.72461 49.6 -1.72461 53.8492C-1.72461 58.0984 1.73769 61.5607 5.98687 61.5607C10.2623 61.5607 13.6984 58.1246 13.6984 53.8492ZM13.6984 99.9869C13.6984 95.7377 10.2361 92.2754 5.98687 92.2754C1.73769 92.2754 -1.72461 95.7377 -1.72461 99.9869C-1.72461 104.236 1.73769 107.698 5.98687 107.698C10.2623 107.725 13.6984 104.262 13.6984 99.9869ZM13.6984 146.151C13.6984 141.902 10.2361 138.439 5.98687 138.439C1.73769 138.439 -1.72461 141.902 -1.72461 146.151C-1.72461 150.4 1.73769 153.862 5.98687 153.862C10.2623 153.862 13.6984 150.4 13.6984 146.151ZM13.6984 192.289C13.6984 188.039 10.2361 184.577 5.98687 184.577C1.73769 184.577 -1.72461 188.039 -1.72461 192.289C-1.72461 196.538 1.73769 200 5.98687 200C10.2623 200 13.6984 196.538 13.6984 192.289ZM-32.4394 7.71148C-32.4394 3.4623 -35.9017 0 -40.1509 0C-44.4001 0 -47.8622 3.4623 -47.8622 7.71148C-47.8622 11.9607 -44.4001 15.4229 -40.1509 15.4229C-35.8755 15.4229 -32.4394 11.9869 -32.4394 7.71148ZM-32.4394 53.8492C-32.4394 49.6 -35.9017 46.1377 -40.1509 46.1377C-44.4001 46.1377 -47.8622 49.6 -47.8622 53.8492C-47.8622 58.0984 -44.4001 61.5607 -40.1509 61.5607C-35.8755 61.5607 -32.4394 58.1246 -32.4394 53.8492ZM-32.4394 99.9869C-32.4394 95.7377 -35.9017 92.2754 -40.1509 92.2754C-44.4001 92.2754 -47.8622 95.7377 -47.8622 99.9869C-47.8622 104.236 -44.4001 107.698 -40.1509 107.698C-35.8755 107.725 -32.4394 104.262 -32.4394 99.9869ZM-32.4394 146.151C-32.4394 141.902 -35.9017 138.439 -40.1509 138.439C-44.4001 138.439 -47.8622 141.902 -47.8622 146.151C-47.8622 150.4 -44.4001 153.862 -40.1509 153.862C-35.8755 153.862 -32.4394 150.4 -32.4394 146.151ZM-32.4394 192.289C-32.4394 188.039 -35.9017 184.577 -40.1509 184.577C-44.4001 184.577 -47.8622 188.039 -47.8622 192.289C-47.8622 196.538 -44.4001 200 -40.1509 200C-35.8755 200 -32.4394 196.538 -32.4394 192.289ZM-78.577 7.71148C-78.577 3.4623 -82.0393 0 -86.2885 0C-90.5377 0 -94 3.4623 -94 7.71148C-94 11.9607 -90.5377 15.4229 -86.2885 15.4229C-82.0393 15.4229 -78.577 11.9869 -78.577 7.71148ZM-78.577 53.8492C-78.577 49.6 -82.0393 46.1377 -86.2885 46.1377C-90.5377 46.1377 -94 49.6 -94 53.8492C-94 58.0984 -90.5377 61.5607 -86.2885 61.5607C-82.0393 61.5607 -78.577 58.1246 -78.577 53.8492ZM-78.577 99.9869C-78.577 95.7377 -82.0393 92.2754 -86.2885 92.2754C-90.5377 92.2754 -94 95.7377 -94 99.9869C-94 104.236 -90.5377 107.698 -86.2885 107.698C-82.0393 107.698 -78.577 104.262 -78.577 99.9869ZM-78.577 146.151C-78.577 141.902 -82.0393 138.439 -86.2885 138.439C-90.5377 138.439 -94 141.902 -94 146.151C-94 150.4 -90.5377 153.862 -86.2885 153.862C-82.0393 153.862 -78.577 150.4 -78.577 146.151ZM-78.577 192.289C-78.577 188.039 -82.0393 184.577 -86.2885 184.577C-90.5377 184.577 -94 188.039 -94 192.289C-94 196.538 -90.5377 200 -86.2885 200C-82.0393 200 -78.577 196.538 -78.577 192.289Z" fill="#ECF4D8"/>
<path d="M328.289 15.4229C324.039 15.4229 320.577 11.9607 320.577 7.71148C320.577 3.4623 324.039 0 328.289 0C332.538 0 336 3.4623 336 7.71148C336 11.9869 332.538 15.4229 328.289 15.4229ZM336 53.8492C336 49.6 332.538 46.1377 328.289 46.1377C324.039 46.1377 320.577 49.6 320.577 53.8492C320.577 58.0984 324.039 61.5607 328.289 61.5607C332.538 61.5607 336 58.1246 336 53.8492ZM336 99.9869C336 95.7377 332.538 92.2754 328.289 92.2754C324.039 92.2754 320.577 95.7377 320.577 99.9869C320.577 104.236 324.039 107.698 328.289 107.698C332.538 107.725 336 104.262 336 99.9869ZM336 146.151C336 141.902 332.538 138.439 328.289 138.439C324.039 138.439 320.577 141.902 320.577 146.151C320.577 150.4 324.039 153.862 328.289 153.862C332.538 153.862 336 150.4 336 146.151ZM336 192.289C336 188.039 332.538 184.577 328.289 184.577C324.039 184.577 320.577 188.039 320.577 192.289C320.577 196.538 324.039 200 328.289 200C332.538 200 336 196.538 336 192.289ZM289.862 7.71148C289.862 3.4623 286.4 0 282.151 0C277.902 0 274.439 3.4623 274.439 7.71148C274.439 11.9607 277.902 15.4229 282.151 15.4229C286.4 15.4229 289.862 11.9869 289.862 7.71148ZM289.862 53.8492C289.862 49.6 286.4 46.1377 282.151 46.1377C277.902 46.1377 274.439 49.6 274.439 53.8492C274.439 58.0984 277.902 61.5607 282.151 61.5607C286.4 61.5607 289.862 58.1246 289.862 53.8492ZM289.862 99.9869C289.862 95.7377 286.4 92.2754 282.151 92.2754C277.902 92.2754 274.439 95.7377 274.439 99.9869C274.439 104.236 277.902 107.698 282.151 107.698C286.4 107.725 289.862 104.262 289.862 99.9869ZM289.862 146.151C289.862 141.902 286.4 138.439 282.151 138.439C277.902 138.439 274.439 141.902 274.439 146.151C274.439 150.4 277.902 153.862 282.151 153.862C286.4 153.862 289.862 150.4 289.862 146.151ZM289.862 192.289C289.862 188.039 286.4 184.577 282.151 184.577C277.902 184.577 274.439 188.039 274.439 192.289C274.439 196.538 277.902 200 282.151 200C286.4 200 289.862 196.538 289.862 192.289ZM243.698 7.71148C243.698 3.4623 240.236 0 235.987 0C231.738 0 228.275 3.4623 228.275 7.71148C228.275 11.9607 231.738 15.4229 235.987 15.4229C240.262 15.4229 243.698 11.9869 243.698 7.71148ZM243.698 53.8492C243.698 49.6 240.236 46.1377 235.987 46.1377C231.738 46.1377 228.275 49.6 228.275 53.8492C228.275 58.0984 231.738 61.5607 235.987 61.5607C240.262 61.5607 243.698 58.1246 243.698 53.8492ZM243.698 99.9869C243.698 95.7377 240.236 92.2754 235.987 92.2754C231.738 92.2754 228.275 95.7377 228.275 99.9869C228.275 104.236 231.738 107.698 235.987 107.698C240.262 107.725 243.698 104.262 243.698 99.9869ZM243.698 146.151C243.698 141.902 240.236 138.439 235.987 138.439C231.738 138.439 228.275 141.902 228.275 146.151C228.275 150.4 231.738 153.862 235.987 153.862C240.262 153.862 243.698 150.4 243.698 146.151ZM243.698 192.289C243.698 188.039 240.236 184.577 235.987 184.577C231.738 184.577 228.275 188.039 228.275 192.289C228.275 196.538 231.738 200 235.987 200C240.262 200 243.698 196.538 243.698 192.289ZM197.561 7.71148C197.561 3.4623 194.098 0 189.849 0C185.6 0 182.138 3.4623 182.138 7.71148C182.138 11.9607 185.6 15.4229 189.849 15.4229C194.125 15.4229 197.561 11.9869 197.561 7.71148ZM197.561 53.8492C197.561 49.6 194.098 46.1377 189.849 46.1377C185.6 46.1377 182.138 49.6 182.138 53.8492C182.138 58.0984 185.6 61.5607 189.849 61.5607C194.125 61.5607 197.561 58.1246 197.561 53.8492ZM197.561 99.9869C197.561 95.7377 194.098 92.2754 189.849 92.2754C185.6 92.2754 182.138 95.7377 182.138 99.9869C182.138 104.236 185.6 107.698 189.849 107.698C194.125 107.725 197.561 104.262 197.561 99.9869ZM197.561 146.151C197.561 141.902 194.098 138.439 189.849 138.439C185.6 138.439 182.138 141.902 182.138 146.151C182.138 150.4 185.6 153.862 189.849 153.862C194.125 153.862 197.561 150.4 197.561 146.151ZM197.561 192.289C197.561 188.039 194.098 184.577 189.849 184.577C185.6 184.577 182.138 188.039 182.138 192.289C182.138 196.538 185.6 200 189.849 200C194.125 200 197.561 196.538 197.561 192.289ZM151.423 7.71148C151.423 3.4623 147.961 0 143.711 0C139.462 0 136 3.4623 136 7.71148C136 11.9607 139.462 15.4229 143.711 15.4229C147.961 15.4229 151.423 11.9869 151.423 7.71148ZM151.423 53.8492C151.423 49.6 147.961 46.1377 143.711 46.1377C139.462 46.1377 136 49.6 136 53.8492C136 58.0984 139.462 61.5607 143.711 61.5607C147.961 61.5607 151.423 58.1246 151.423 53.8492ZM151.423 99.9869C151.423 95.7377 147.961 92.2754 143.711 92.2754C139.462 92.2754 136 95.7377 136 99.9869C136 104.236 139.462 107.698 143.711 107.698C147.961 107.698 151.423 104.262 151.423 99.9869ZM151.423 146.151C151.423 141.902 147.961 138.439 143.711 138.439C139.462 138.439 136 141.902 136 146.151C136 150.4 139.462 153.862 143.711 153.862C147.961 153.862 151.423 150.4 151.423 146.151ZM151.423 192.289C151.423 188.039 147.961 184.577 143.711 184.577C139.462 184.577 136 188.039 136 192.289C136 196.538 139.462 200 143.711 200C147.961 200 151.423 196.538 151.423 192.289Z" fill="#ECF4D8"/>
<path d="M98.2885 245.423C94.0393 245.423 90.577 241.961 90.577 237.711C90.577 233.462 94.0393 230 98.2885 230C102.538 230 106 233.462 106 237.711C106 241.987 102.538 245.423 98.2885 245.423ZM106 283.849C106 279.6 102.538 276.138 98.2885 276.138C94.0393 276.138 90.577 279.6 90.577 283.849C90.577 288.098 94.0393 291.561 98.2885 291.561C102.538 291.561 106 288.125 106 283.849ZM106 329.987C106 325.738 102.538 322.275 98.2885 322.275C94.0393 322.275 90.577 325.738 90.577 329.987C90.577 334.236 94.0393 337.698 98.2885 337.698C102.538 337.725 106 334.262 106 329.987ZM106 376.151C106 371.902 102.538 368.439 98.2885 368.439C94.0393 368.439 90.577 371.902 90.577 376.151C90.577 380.4 94.0393 383.862 98.2885 383.862C102.538 383.862 106 380.4 106 376.151ZM106 422.289C106 418.039 102.538 414.577 98.2885 414.577C94.0393 414.577 90.577 418.039 90.577 422.289C90.577 426.538 94.0393 430 98.2885 430C102.538 430 106 426.538 106 422.289ZM59.8622 237.711C59.8622 233.462 56.3999 230 52.1507 230C47.9016 230 44.4393 233.462 44.4393 237.711C44.4393 241.961 47.9016 245.423 52.1507 245.423C56.3999 245.423 59.8622 241.987 59.8622 237.711ZM59.8622 283.849C59.8622 279.6 56.3999 276.138 52.1507 276.138C47.9016 276.138 44.4393 279.6 44.4393 283.849C44.4393 288.098 47.9016 291.561 52.1507 291.561C56.3999 291.561 59.8622 288.125 59.8622 283.849ZM59.8622 329.987C59.8622 325.738 56.3999 322.275 52.1507 322.275C47.9016 322.275 44.4393 325.738 44.4393 329.987C44.4393 334.236 47.9016 337.698 52.1507 337.698C56.3999 337.725 59.8622 334.262 59.8622 329.987ZM59.8622 376.151C59.8622 371.902 56.3999 368.439 52.1507 368.439C47.9016 368.439 44.4393 371.902 44.4393 376.151C44.4393 380.4 47.9016 383.862 52.1507 383.862C56.3999 383.862 59.8622 380.4 59.8622 376.151ZM59.8622 422.289C59.8622 418.039 56.3999 414.577 52.1507 414.577C47.9016 414.577 44.4393 418.039 44.4393 422.289C44.4393 426.538 47.9016 430 52.1507 430C56.3999 430 59.8622 426.538 59.8622 422.289ZM13.6984 237.711C13.6984 233.462 10.2361 230 5.98687 230C1.73769 230 -1.72461 233.462 -1.72461 237.711C-1.72461 241.961 1.73769 245.423 5.98687 245.423C10.2623 245.423 13.6984 241.987 13.6984 237.711ZM13.6984 283.849C13.6984 279.6 10.2361 276.138 5.98687 276.138C1.73769 276.138 -1.72461 279.6 -1.72461 283.849C-1.72461 288.098 1.73769 291.561 5.98687 291.561C10.2623 291.561 13.6984 288.125 13.6984 283.849ZM13.6984 329.987C13.6984 325.738 10.2361 322.275 5.98687 322.275C1.73769 322.275 -1.72461 325.738 -1.72461 329.987C-1.72461 334.236 1.73769 337.698 5.98687 337.698C10.2623 337.725 13.6984 334.262 13.6984 329.987ZM13.6984 376.151C13.6984 371.902 10.2361 368.439 5.98687 368.439C1.73769 368.439 -1.72461 371.902 -1.72461 376.151C-1.72461 380.4 1.73769 383.862 5.98687 383.862C10.2623 383.862 13.6984 380.4 13.6984 376.151ZM13.6984 422.289C13.6984 418.039 10.2361 414.577 5.98687 414.577C1.73769 414.577 -1.72461 418.039 -1.72461 422.289C-1.72461 426.538 1.73769 430 5.98687 430C10.2623 430 13.6984 426.538 13.6984 422.289ZM-32.4394 237.711C-32.4394 233.462 -35.9017 230 -40.1509 230C-44.4001 230 -47.8622 233.462 -47.8622 237.711C-47.8622 241.961 -44.4001 245.423 -40.1509 245.423C-35.8755 245.423 -32.4394 241.987 -32.4394 237.711ZM-32.4394 283.849C-32.4394 279.6 -35.9017 276.138 -40.1509 276.138C-44.4001 276.138 -47.8622 279.6 -47.8622 283.849C-47.8622 288.098 -44.4001 291.561 -40.1509 291.561C-35.8755 291.561 -32.4394 288.125 -32.4394 283.849ZM-32.4394 329.987C-32.4394 325.738 -35.9017 322.275 -40.1509 322.275C-44.4001 322.275 -47.8622 325.738 -47.8622 329.987C-47.8622 334.236 -44.4001 337.698 -40.1509 337.698C-35.8755 337.725 -32.4394 334.262 -32.4394 329.987ZM-32.4394 376.151C-32.4394 371.902 -35.9017 368.439 -40.1509 368.439C-44.4001 368.439 -47.8622 371.902 -47.8622 376.151C-47.8622 380.4 -44.4001 383.862 -40.1509 383.862C-35.8755 383.862 -32.4394 380.4 -32.4394 376.151ZM-32.4394 422.289C-32.4394 418.039 -35.9017 414.577 -40.1509 414.577C-44.4001 414.577 -47.8622 418.039 -47.8622 422.289C-47.8622 426.538 -44.4001 430 -40.1509 430C-35.8755 430 -32.4394 426.538 -32.4394 422.289ZM-78.577 237.711C-78.577 233.462 -82.0393 230 -86.2885 230C-90.5377 230 -94 233.462 -94 237.711C-94 241.961 -90.5377 245.423 -86.2885 245.423C-82.0393 245.423 -78.577 241.987 -78.577 237.711ZM-78.577 283.849C-78.577 279.6 -82.0393 276.138 -86.2885 276.138C-90.5377 276.138 -94 279.6 -94 283.849C-94 288.098 -90.5377 291.561 -86.2885 291.561C-82.0393 291.561 -78.577 288.125 -78.577 283.849ZM-78.577 329.987C-78.577 325.738 -82.0393 322.275 -86.2885 322.275C-90.5377 322.275 -94 325.738 -94 329.987C-94 334.236 -90.5377 337.698 -86.2885 337.698C-82.0393 337.698 -78.577 334.262 -78.577 329.987ZM-78.577 376.151C-78.577 371.902 -82.0393 368.439 -86.2885 368.439C-90.5377 368.439 -94 371.902 -94 376.151C-94 380.4 -90.5377 383.862 -86.2885 383.862C-82.0393 383.862 -78.577 380.4 -78.577 376.151ZM-78.577 422.289C-78.577 418.039 -82.0393 414.577 -86.2885 414.577C-90.5377 414.577 -94 418.039 -94 422.289C-94 426.538 -90.5377 430 -86.2885 430C-82.0393 430 -78.577 426.538 -78.577 422.289Z" fill="#ECF4D8"/>
<path d="M328.289 245.423C324.039 245.423 320.577 241.961 320.577 237.711C320.577 233.462 324.039 230 328.289 230C332.538 230 336 233.462 336 237.711C336 241.987 332.538 245.423 328.289 245.423ZM336 283.849C336 279.6 332.538 276.138 328.289 276.138C324.039 276.138 320.577 279.6 320.577 283.849C320.577 288.098 324.039 291.561 328.289 291.561C332.538 291.561 336 288.125 336 283.849ZM336 329.987C336 325.738 332.538 322.275 328.289 322.275C324.039 322.275 320.577 325.738 320.577 329.987C320.577 334.236 324.039 337.698 328.289 337.698C332.538 337.725 336 334.262 336 329.987ZM336 376.151C336 371.902 332.538 368.439 328.289 368.439C324.039 368.439 320.577 371.902 320.577 376.151C320.577 380.4 324.039 383.862 328.289 383.862C332.538 383.862 336 380.4 336 376.151ZM336 422.289C336 418.039 332.538 414.577 328.289 414.577C324.039 414.577 320.577 418.039 320.577 422.289C320.577 426.538 324.039 430 328.289 430C332.538 430 336 426.538 336 422.289ZM289.862 237.711C289.862 233.462 286.4 230 282.151 230C277.902 230 274.439 233.462 274.439 237.711C274.439 241.961 277.902 245.423 282.151 245.423C286.4 245.423 289.862 241.987 289.862 237.711ZM289.862 283.849C289.862 279.6 286.4 276.138 282.151 276.138C277.902 276.138 274.439 279.6 274.439 283.849C274.439 288.098 277.902 291.561 282.151 291.561C286.4 291.561 289.862 288.125 289.862 283.849ZM289.862 329.987C289.862 325.738 286.4 322.275 282.151 322.275C277.902 322.275 274.439 325.738 274.439 329.987C274.439 334.236 277.902 337.698 282.151 337.698C286.4 337.725 289.862 334.262 289.862 329.987ZM289.862 376.151C289.862 371.902 286.4 368.439 282.151 368.439C277.902 368.439 274.439 371.902 274.439 376.151C274.439 380.4 277.902 383.862 282.151 383.862C286.4 383.862 289.862 380.4 289.862 376.151ZM289.862 422.289C289.862 418.039 286.4 414.577 282.151 414.577C277.902 414.577 274.439 418.039 274.439 422.289C274.439 426.538 277.902 430 282.151 430C286.4 430 289.862 426.538 289.862 422.289ZM243.698 237.711C243.698 233.462 240.236 230 235.987 230C231.738 230 228.275 233.462 228.275 237.711C228.275 241.961 231.738 245.423 235.987 245.423C240.262 245.423 243.698 241.987 243.698 237.711ZM243.698 283.849C243.698 279.6 240.236 276.138 235.987 276.138C231.738 276.138 228.275 279.6 228.275 283.849C228.275 288.098 231.738 291.561 235.987 291.561C240.262 291.561 243.698 288.125 243.698 283.849ZM243.698 329.987C243.698 325.738 240.236 322.275 235.987 322.275C231.738 322.275 228.275 325.738 228.275 329.987C228.275 334.236 231.738 337.698 235.987 337.698C240.262 337.725 243.698 334.262 243.698 329.987ZM243.698 376.151C243.698 371.902 240.236 368.439 235.987 368.439C231.738 368.439 228.275 371.902 228.275 376.151C228.275 380.4 231.738 383.862 235.987 383.862C240.262 383.862 243.698 380.4 243.698 376.151ZM243.698 422.289C243.698 418.039 240.236 414.577 235.987 414.577C231.738 414.577 228.275 418.039 228.275 422.289C228.275 426.538 231.738 430 235.987 430C240.262 430 243.698 426.538 243.698 422.289ZM197.561 237.711C197.561 233.462 194.098 230 189.849 230C185.6 230 182.138 233.462 182.138 237.711C182.138 241.961 185.6 245.423 189.849 245.423C194.125 245.423 197.561 241.987 197.561 237.711ZM197.561 283.849C197.561 279.6 194.098 276.138 189.849 276.138C185.6 276.138 182.138 279.6 182.138 283.849C182.138 288.098 185.6 291.561 189.849 291.561C194.125 291.561 197.561 288.125 197.561 283.849ZM197.561 329.987C197.561 325.738 194.098 322.275 189.849 322.275C185.6 322.275 182.138 325.738 182.138 329.987C182.138 334.236 185.6 337.698 189.849 337.698C194.125 337.725 197.561 334.262 197.561 329.987ZM197.561 376.151C197.561 371.902 194.098 368.439 189.849 368.439C185.6 368.439 182.138 371.902 182.138 376.151C182.138 380.4 185.6 383.862 189.849 383.862C194.125 383.862 197.561 380.4 197.561 376.151ZM197.561 422.289C197.561 418.039 194.098 414.577 189.849 414.577C185.6 414.577 182.138 418.039 182.138 422.289C182.138 426.538 185.6 430 189.849 430C194.125 430 197.561 426.538 197.561 422.289ZM151.423 237.711C151.423 233.462 147.961 230 143.711 230C139.462 230 136 233.462 136 237.711C136 241.961 139.462 245.423 143.711 245.423C147.961 245.423 151.423 241.987 151.423 237.711ZM151.423 283.849C151.423 279.6 147.961 276.138 143.711 276.138C139.462 276.138 136 279.6 136 283.849C136 288.098 139.462 291.561 143.711 291.561C147.961 291.561 151.423 288.125 151.423 283.849ZM151.423 329.987C151.423 325.738 147.961 322.275 143.711 322.275C139.462 322.275 136 325.738 136 329.987C136 334.236 139.462 337.698 143.711 337.698C147.961 337.698 151.423 334.262 151.423 329.987ZM151.423 376.151C151.423 371.902 147.961 368.439 143.711 368.439C139.462 368.439 136 371.902 136 376.151C136 380.4 139.462 383.862 143.711 383.862C147.961 383.862 151.423 380.4 151.423 376.151ZM151.423 422.289C151.423 418.039 147.961 414.577 143.711 414.577C139.462 414.577 136 418.039 136 422.289C136 426.538 139.462 430 143.711 430C147.961 430 151.423 426.538 151.423 422.289Z" fill="#ECF4D8"/>
<path d="M98.2885 475.423C94.0393 475.423 90.577 471.961 90.577 467.711C90.577 463.462 94.0393 460 98.2885 460C102.538 460 106 463.462 106 467.711C106 471.987 102.538 475.423 98.2885 475.423ZM106 513.849C106 509.6 102.538 506.138 98.2885 506.138C94.0393 506.138 90.577 509.6 90.577 513.849C90.577 518.098 94.0393 521.561 98.2885 521.561C102.538 521.561 106 518.125 106 513.849ZM106 559.987C106 555.738 102.538 552.275 98.2885 552.275C94.0393 552.275 90.577 555.738 90.577 559.987C90.577 564.236 94.0393 567.698 98.2885 567.698C102.538 567.725 106 564.262 106 559.987ZM106 606.151C106 601.902 102.538 598.439 98.2885 598.439C94.0393 598.439 90.577 601.902 90.577 606.151C90.577 610.4 94.0393 613.862 98.2885 613.862C102.538 613.862 106 610.4 106 606.151ZM106 652.289C106 648.039 102.538 644.577 98.2885 644.577C94.0393 644.577 90.577 648.039 90.577 652.289C90.577 656.538 94.0393 660 98.2885 660C102.538 660 106 656.538 106 652.289ZM59.8622 467.711C59.8622 463.462 56.3999 460 52.1507 460C47.9016 460 44.4393 463.462 44.4393 467.711C44.4393 471.961 47.9016 475.423 52.1507 475.423C56.3999 475.423 59.8622 471.987 59.8622 467.711ZM59.8622 513.849C59.8622 509.6 56.3999 506.138 52.1507 506.138C47.9016 506.138 44.4393 509.6 44.4393 513.849C44.4393 518.098 47.9016 521.561 52.1507 521.561C56.3999 521.561 59.8622 518.125 59.8622 513.849ZM59.8622 559.987C59.8622 555.738 56.3999 552.275 52.1507 552.275C47.9016 552.275 44.4393 555.738 44.4393 559.987C44.4393 564.236 47.9016 567.698 52.1507 567.698C56.3999 567.725 59.8622 564.262 59.8622 559.987ZM59.8622 606.151C59.8622 601.902 56.3999 598.439 52.1507 598.439C47.9016 598.439 44.4393 601.902 44.4393 606.151C44.4393 610.4 47.9016 613.862 52.1507 613.862C56.3999 613.862 59.8622 610.4 59.8622 606.151ZM59.8622 652.289C59.8622 648.039 56.3999 644.577 52.1507 644.577C47.9016 644.577 44.4393 648.039 44.4393 652.289C44.4393 656.538 47.9016 660 52.1507 660C56.3999 660 59.8622 656.538 59.8622 652.289ZM13.6984 467.711C13.6984 463.462 10.2361 460 5.98687 460C1.73769 460 -1.72461 463.462 -1.72461 467.711C-1.72461 471.961 1.73769 475.423 5.98687 475.423C10.2623 475.423 13.6984 471.987 13.6984 467.711ZM13.6984 513.849C13.6984 509.6 10.2361 506.138 5.98687 506.138C1.73769 506.138 -1.72461 509.6 -1.72461 513.849C-1.72461 518.098 1.73769 521.561 5.98687 521.561C10.2623 521.561 13.6984 518.125 13.6984 513.849ZM13.6984 559.987C13.6984 555.738 10.2361 552.275 5.98687 552.275C1.73769 552.275 -1.72461 555.738 -1.72461 559.987C-1.72461 564.236 1.73769 567.698 5.98687 567.698C10.2623 567.725 13.6984 564.262 13.6984 559.987ZM13.6984 606.151C13.6984 601.902 10.2361 598.439 5.98687 598.439C1.73769 598.439 -1.72461 601.902 -1.72461 606.151C-1.72461 610.4 1.73769 613.862 5.98687 613.862C10.2623 613.862 13.6984 610.4 13.6984 606.151ZM13.6984 652.289C13.6984 648.039 10.2361 644.577 5.98687 644.577C1.73769 644.577 -1.72461 648.039 -1.72461 652.289C-1.72461 656.538 1.73769 660 5.98687 660C10.2623 660 13.6984 656.538 13.6984 652.289ZM-32.4394 467.711C-32.4394 463.462 -35.9017 460 -40.1509 460C-44.4001 460 -47.8622 463.462 -47.8622 467.711C-47.8622 471.961 -44.4001 475.423 -40.1509 475.423C-35.8755 475.423 -32.4394 471.987 -32.4394 467.711ZM-32.4394 513.849C-32.4394 509.6 -35.9017 506.138 -40.1509 506.138C-44.4001 506.138 -47.8622 509.6 -47.8622 513.849C-47.8622 518.098 -44.4001 521.561 -40.1509 521.561C-35.8755 521.561 -32.4394 518.125 -32.4394 513.849ZM-32.4394 559.987C-32.4394 555.738 -35.9017 552.275 -40.1509 552.275C-44.4001 552.275 -47.8622 555.738 -47.8622 559.987C-47.8622 564.236 -44.4001 567.698 -40.1509 567.698C-35.8755 567.725 -32.4394 564.262 -32.4394 559.987ZM-32.4394 606.151C-32.4394 601.902 -35.9017 598.439 -40.1509 598.439C-44.4001 598.439 -47.8622 601.902 -47.8622 606.151C-47.8622 610.4 -44.4001 613.862 -40.1509 613.862C-35.8755 613.862 -32.4394 610.4 -32.4394 606.151ZM-32.4394 652.289C-32.4394 648.039 -35.9017 644.577 -40.1509 644.577C-44.4001 644.577 -47.8622 648.039 -47.8622 652.289C-47.8622 656.538 -44.4001 660 -40.1509 660C-35.8755 660 -32.4394 656.538 -32.4394 652.289ZM-78.577 467.711C-78.577 463.462 -82.0393 460 -86.2885 460C-90.5377 460 -94 463.462 -94 467.711C-94 471.961 -90.5377 475.423 -86.2885 475.423C-82.0393 475.423 -78.577 471.987 -78.577 467.711ZM-78.577 513.849C-78.577 509.6 -82.0393 506.138 -86.2885 506.138C-90.5377 506.138 -94 509.6 -94 513.849C-94 518.098 -90.5377 521.561 -86.2885 521.561C-82.0393 521.561 -78.577 518.125 -78.577 513.849ZM-78.577 559.987C-78.577 555.738 -82.0393 552.275 -86.2885 552.275C-90.5377 552.275 -94 555.738 -94 559.987C-94 564.236 -90.5377 567.698 -86.2885 567.698C-82.0393 567.698 -78.577 564.262 -78.577 559.987ZM-78.577 606.151C-78.577 601.902 -82.0393 598.439 -86.2885 598.439C-90.5377 598.439 -94 601.902 -94 606.151C-94 610.4 -90.5377 613.862 -86.2885 613.862C-82.0393 613.862 -78.577 610.4 -78.577 606.151ZM-78.577 652.289C-78.577 648.039 -82.0393 644.577 -86.2885 644.577C-90.5377 644.577 -94 648.039 -94 652.289C-94 656.538 -90.5377 660 -86.2885 660C-82.0393 660 -78.577 656.538 -78.577 652.289Z" fill="#ECF4D8"/>
<path d="M328.289 475.423C324.039 475.423 320.577 471.961 320.577 467.711C320.577 463.462 324.039 460 328.289 460C332.538 460 336 463.462 336 467.711C336 471.987 332.538 475.423 328.289 475.423ZM336 513.849C336 509.6 332.538 506.138 328.289 506.138C324.039 506.138 320.577 509.6 320.577 513.849C320.577 518.098 324.039 521.561 328.289 521.561C332.538 521.561 336 518.125 336 513.849ZM336 559.987C336 555.738 332.538 552.275 328.289 552.275C324.039 552.275 320.577 555.738 320.577 559.987C320.577 564.236 324.039 567.698 328.289 567.698C332.538 567.725 336 564.262 336 559.987ZM336 606.151C336 601.902 332.538 598.439 328.289 598.439C324.039 598.439 320.577 601.902 320.577 606.151C320.577 610.4 324.039 613.862 328.289 613.862C332.538 613.862 336 610.4 336 606.151ZM336 652.289C336 648.039 332.538 644.577 328.289 644.577C324.039 644.577 320.577 648.039 320.577 652.289C320.577 656.538 324.039 660 328.289 660C332.538 660 336 656.538 336 652.289ZM289.862 467.711C289.862 463.462 286.4 460 282.151 460C277.902 460 274.439 463.462 274.439 467.711C274.439 471.961 277.902 475.423 282.151 475.423C286.4 475.423 289.862 471.987 289.862 467.711ZM289.862 513.849C289.862 509.6 286.4 506.138 282.151 506.138C277.902 506.138 274.439 509.6 274.439 513.849C274.439 518.098 277.902 521.561 282.151 521.561C286.4 521.561 289.862 518.125 289.862 513.849ZM289.862 559.987C289.862 555.738 286.4 552.275 282.151 552.275C277.902 552.275 274.439 555.738 274.439 559.987C274.439 564.236 277.902 567.698 282.151 567.698C286.4 567.725 289.862 564.262 289.862 559.987ZM289.862 606.151C289.862 601.902 286.4 598.439 282.151 598.439C277.902 598.439 274.439 601.902 274.439 606.151C274.439 610.4 277.902 613.862 282.151 613.862C286.4 613.862 289.862 610.4 289.862 606.151ZM289.862 652.289C289.862 648.039 286.4 644.577 282.151 644.577C277.902 644.577 274.439 648.039 274.439 652.289C274.439 656.538 277.902 660 282.151 660C286.4 660 289.862 656.538 289.862 652.289ZM243.698 467.711C243.698 463.462 240.236 460 235.987 460C231.738 460 228.275 463.462 228.275 467.711C228.275 471.961 231.738 475.423 235.987 475.423C240.262 475.423 243.698 471.987 243.698 467.711ZM243.698 513.849C243.698 509.6 240.236 506.138 235.987 506.138C231.738 506.138 228.275 509.6 228.275 513.849C228.275 518.098 231.738 521.561 235.987 521.561C240.262 521.561 243.698 518.125 243.698 513.849ZM243.698 559.987C243.698 555.738 240.236 552.275 235.987 552.275C231.738 552.275 228.275 555.738 228.275 559.987C228.275 564.236 231.738 567.698 235.987 567.698C240.262 567.725 243.698 564.262 243.698 559.987ZM243.698 606.151C243.698 601.902 240.236 598.439 235.987 598.439C231.738 598.439 228.275 601.902 228.275 606.151C228.275 610.4 231.738 613.862 235.987 613.862C240.262 613.862 243.698 610.4 243.698 606.151ZM243.698 652.289C243.698 648.039 240.236 644.577 235.987 644.577C231.738 644.577 228.275 648.039 228.275 652.289C228.275 656.538 231.738 660 235.987 660C240.262 660 243.698 656.538 243.698 652.289ZM197.561 467.711C197.561 463.462 194.098 460 189.849 460C185.6 460 182.138 463.462 182.138 467.711C182.138 471.961 185.6 475.423 189.849 475.423C194.125 475.423 197.561 471.987 197.561 467.711ZM197.561 513.849C197.561 509.6 194.098 506.138 189.849 506.138C185.6 506.138 182.138 509.6 182.138 513.849C182.138 518.098 185.6 521.561 189.849 521.561C194.125 521.561 197.561 518.125 197.561 513.849ZM197.561 559.987C197.561 555.738 194.098 552.275 189.849 552.275C185.6 552.275 182.138 555.738 182.138 559.987C182.138 564.236 185.6 567.698 189.849 567.698C194.125 567.725 197.561 564.262 197.561 559.987ZM197.561 606.151C197.561 601.902 194.098 598.439 189.849 598.439C185.6 598.439 182.138 601.902 182.138 606.151C182.138 610.4 185.6 613.862 189.849 613.862C194.125 613.862 197.561 610.4 197.561 606.151ZM197.561 652.289C197.561 648.039 194.098 644.577 189.849 644.577C185.6 644.577 182.138 648.039 182.138 652.289C182.138 656.538 185.6 660 189.849 660C194.125 660 197.561 656.538 197.561 652.289ZM151.423 467.711C151.423 463.462 147.961 460 143.711 460C139.462 460 136 463.462 136 467.711C136 471.961 139.462 475.423 143.711 475.423C147.961 475.423 151.423 471.987 151.423 467.711ZM151.423 513.849C151.423 509.6 147.961 506.138 143.711 506.138C139.462 506.138 136 509.6 136 513.849C136 518.098 139.462 521.561 143.711 521.561C147.961 521.561 151.423 518.125 151.423 513.849ZM151.423 559.987C151.423 555.738 147.961 552.275 143.711 552.275C139.462 552.275 136 555.738 136 559.987C136 564.236 139.462 567.698 143.711 567.698C147.961 567.698 151.423 564.262 151.423 559.987ZM151.423 606.151C151.423 601.902 147.961 598.439 143.711 598.439C139.462 598.439 136 601.902 136 606.151C136 610.4 139.462 613.862 143.711 613.862C147.961 613.862 151.423 610.4 151.423 606.151ZM151.423 652.289C151.423 648.039 147.961 644.577 143.711 644.577C139.462 644.577 136 648.039 136 652.289C136 656.538 139.462 660 143.711 660C147.961 660 151.423 656.538 151.423 652.289Z" fill="#ECF4D8"/>
</svg>
