<svg width="818" height="200" viewBox="0 0 818 200" fill="none" xmlns="http://www.w3.org/2000/svg">
<path d="M120.289 15.4229C116.039 15.4229 112.577 11.9607 112.577 7.71148C112.577 3.4623 116.039 0 120.289 0C124.538 0 128 3.4623 128 7.71148C128 11.9869 124.538 15.4229 120.289 15.4229ZM128 53.8492C128 49.6 124.538 46.1377 120.289 46.1377C116.039 46.1377 112.577 49.6 112.577 53.8492C112.577 58.0984 116.039 61.5607 120.289 61.5607C124.538 61.5607 128 58.1246 128 53.8492ZM128 99.9869C128 95.7377 124.538 92.2754 120.289 92.2754C116.039 92.2754 112.577 95.7377 112.577 99.9869C112.577 104.236 116.039 107.698 120.289 107.698C124.538 107.725 128 104.262 128 99.9869ZM128 146.151C128 141.902 124.538 138.439 120.289 138.439C116.039 138.439 112.577 141.902 112.577 146.151C112.577 150.4 116.039 153.862 120.289 153.862C124.538 153.862 128 150.4 128 146.151ZM128 192.289C128 188.039 124.538 184.577 120.289 184.577C116.039 184.577 112.577 188.039 112.577 192.289C112.577 196.538 116.039 200 120.289 200C124.538 200 128 196.538 128 192.289ZM81.8622 7.71148C81.8622 3.4623 78.3999 0 74.1507 0C69.9016 0 66.4393 3.4623 66.4393 7.71148C66.4393 11.9607 69.9016 15.4229 74.1507 15.4229C78.3999 15.4229 81.8622 11.9869 81.8622 7.71148ZM81.8622 53.8492C81.8622 49.6 78.3999 46.1377 74.1507 46.1377C69.9016 46.1377 66.4393 49.6 66.4393 53.8492C66.4393 58.0984 69.9016 61.5607 74.1507 61.5607C78.3999 61.5607 81.8622 58.1246 81.8622 53.8492ZM81.8622 99.9869C81.8622 95.7377 78.3999 92.2754 74.1507 92.2754C69.9016 92.2754 66.4393 95.7377 66.4393 99.9869C66.4393 104.236 69.9016 107.698 74.1507 107.698C78.3999 107.725 81.8622 104.262 81.8622 99.9869ZM81.8622 146.151C81.8622 141.902 78.3999 138.439 74.1507 138.439C69.9016 138.439 66.4393 141.902 66.4393 146.151C66.4393 150.4 69.9016 153.862 74.1507 153.862C78.3999 153.862 81.8622 150.4 81.8622 146.151ZM81.8622 192.289C81.8622 188.039 78.3999 184.577 74.1507 184.577C69.9016 184.577 66.4393 188.039 66.4393 192.289C66.4393 196.538 69.9016 200 74.1507 200C78.3999 200 81.8622 196.538 81.8622 192.289ZM35.6984 7.71148C35.6984 3.4623 32.2361 0 27.9869 0C23.7377 0 20.2754 3.4623 20.2754 7.71148C20.2754 11.9607 23.7377 15.4229 27.9869 15.4229C32.2623 15.4229 35.6984 11.9869 35.6984 7.71148ZM35.6984 53.8492C35.6984 49.6 32.2361 46.1377 27.9869 46.1377C23.7377 46.1377 20.2754 49.6 20.2754 53.8492C20.2754 58.0984 23.7377 61.5607 27.9869 61.5607C32.2623 61.5607 35.6984 58.1246 35.6984 53.8492ZM35.6984 99.9869C35.6984 95.7377 32.2361 92.2754 27.9869 92.2754C23.7377 92.2754 20.2754 95.7377 20.2754 99.9869C20.2754 104.236 23.7377 107.698 27.9869 107.698C32.2623 107.725 35.6984 104.262 35.6984 99.9869ZM35.6984 146.151C35.6984 141.902 32.2361 138.439 27.9869 138.439C23.7377 138.439 20.2754 141.902 20.2754 146.151C20.2754 150.4 23.7377 153.862 27.9869 153.862C32.2623 153.862 35.6984 150.4 35.6984 146.151ZM35.6984 192.289C35.6984 188.039 32.2361 184.577 27.9869 184.577C23.7377 184.577 20.2754 188.039 20.2754 192.289C20.2754 196.538 23.7377 200 27.9869 200C32.2623 200 35.6984 196.538 35.6984 192.289ZM-10.4394 7.71148C-10.4394 3.4623 -13.9017 0 -18.1509 0C-22.4001 0 -25.8622 3.4623 -25.8622 7.71148C-25.8622 11.9607 -22.4001 15.4229 -18.1509 15.4229C-13.8755 15.4229 -10.4394 11.9869 -10.4394 7.71148ZM-10.4394 53.8492C-10.4394 49.6 -13.9017 46.1377 -18.1509 46.1377C-22.4001 46.1377 -25.8622 49.6 -25.8622 53.8492C-25.8622 58.0984 -22.4001 61.5607 -18.1509 61.5607C-13.8755 61.5607 -10.4394 58.1246 -10.4394 53.8492ZM-10.4394 99.9869C-10.4394 95.7377 -13.9017 92.2754 -18.1509 92.2754C-22.4001 92.2754 -25.8622 95.7377 -25.8622 99.9869C-25.8622 104.236 -22.4001 107.698 -18.1509 107.698C-13.8755 107.725 -10.4394 104.262 -10.4394 99.9869ZM-10.4394 146.151C-10.4394 141.902 -13.9017 138.439 -18.1509 138.439C-22.4001 138.439 -25.8622 141.902 -25.8622 146.151C-25.8622 150.4 -22.4001 153.862 -18.1509 153.862C-13.8755 153.862 -10.4394 150.4 -10.4394 146.151ZM-10.4394 192.289C-10.4394 188.039 -13.9017 184.577 -18.1509 184.577C-22.4001 184.577 -25.8622 188.039 -25.8622 192.289C-25.8622 196.538 -22.4001 200 -18.1509 200C-13.8755 200 -10.4394 196.538 -10.4394 192.289ZM-56.577 7.71148C-56.577 3.4623 -60.0393 0 -64.2885 0C-68.5377 0 -72 3.4623 -72 7.71148C-72 11.9607 -68.5377 15.4229 -64.2885 15.4229C-60.0393 15.4229 -56.577 11.9869 -56.577 7.71148ZM-56.577 53.8492C-56.577 49.6 -60.0393 46.1377 -64.2885 46.1377C-68.5377 46.1377 -72 49.6 -72 53.8492C-72 58.0984 -68.5377 61.5607 -64.2885 61.5607C-60.0393 61.5607 -56.577 58.1246 -56.577 53.8492ZM-56.577 99.9869C-56.577 95.7377 -60.0393 92.2754 -64.2885 92.2754C-68.5377 92.2754 -72 95.7377 -72 99.9869C-72 104.236 -68.5377 107.698 -64.2885 107.698C-60.0393 107.698 -56.577 104.262 -56.577 99.9869ZM-56.577 146.151C-56.577 141.902 -60.0393 138.439 -64.2885 138.439C-68.5377 138.439 -72 141.902 -72 146.151C-72 150.4 -68.5377 153.862 -64.2885 153.862C-60.0393 153.862 -56.577 150.4 -56.577 146.151ZM-56.577 192.289C-56.577 188.039 -60.0393 184.577 -64.2885 184.577C-68.5377 184.577 -72 188.039 -72 192.289C-72 196.538 -68.5377 200 -64.2885 200C-60.0393 200 -56.577 196.538 -56.577 192.289Z" fill="#ECF4D8"/>
<path d="M350.289 15.4229C346.039 15.4229 342.577 11.9607 342.577 7.71148C342.577 3.4623 346.039 0 350.289 0C354.538 0 358 3.4623 358 7.71148C358 11.9869 354.538 15.4229 350.289 15.4229ZM358 53.8492C358 49.6 354.538 46.1377 350.289 46.1377C346.039 46.1377 342.577 49.6 342.577 53.8492C342.577 58.0984 346.039 61.5607 350.289 61.5607C354.538 61.5607 358 58.1246 358 53.8492ZM358 99.9869C358 95.7377 354.538 92.2754 350.289 92.2754C346.039 92.2754 342.577 95.7377 342.577 99.9869C342.577 104.236 346.039 107.698 350.289 107.698C354.538 107.725 358 104.262 358 99.9869ZM358 146.151C358 141.902 354.538 138.439 350.289 138.439C346.039 138.439 342.577 141.902 342.577 146.151C342.577 150.4 346.039 153.862 350.289 153.862C354.538 153.862 358 150.4 358 146.151ZM358 192.289C358 188.039 354.538 184.577 350.289 184.577C346.039 184.577 342.577 188.039 342.577 192.289C342.577 196.538 346.039 200 350.289 200C354.538 200 358 196.538 358 192.289ZM311.862 7.71148C311.862 3.4623 308.4 0 304.151 0C299.902 0 296.439 3.4623 296.439 7.71148C296.439 11.9607 299.902 15.4229 304.151 15.4229C308.4 15.4229 311.862 11.9869 311.862 7.71148ZM311.862 53.8492C311.862 49.6 308.4 46.1377 304.151 46.1377C299.902 46.1377 296.439 49.6 296.439 53.8492C296.439 58.0984 299.902 61.5607 304.151 61.5607C308.4 61.5607 311.862 58.1246 311.862 53.8492ZM311.862 99.9869C311.862 95.7377 308.4 92.2754 304.151 92.2754C299.902 92.2754 296.439 95.7377 296.439 99.9869C296.439 104.236 299.902 107.698 304.151 107.698C308.4 107.725 311.862 104.262 311.862 99.9869ZM311.862 146.151C311.862 141.902 308.4 138.439 304.151 138.439C299.902 138.439 296.439 141.902 296.439 146.151C296.439 150.4 299.902 153.862 304.151 153.862C308.4 153.862 311.862 150.4 311.862 146.151ZM311.862 192.289C311.862 188.039 308.4 184.577 304.151 184.577C299.902 184.577 296.439 188.039 296.439 192.289C296.439 196.538 299.902 200 304.151 200C308.4 200 311.862 196.538 311.862 192.289ZM265.698 7.71148C265.698 3.4623 262.236 0 257.987 0C253.738 0 250.275 3.4623 250.275 7.71148C250.275 11.9607 253.738 15.4229 257.987 15.4229C262.262 15.4229 265.698 11.9869 265.698 7.71148ZM265.698 53.8492C265.698 49.6 262.236 46.1377 257.987 46.1377C253.738 46.1377 250.275 49.6 250.275 53.8492C250.275 58.0984 253.738 61.5607 257.987 61.5607C262.262 61.5607 265.698 58.1246 265.698 53.8492ZM265.698 99.9869C265.698 95.7377 262.236 92.2754 257.987 92.2754C253.738 92.2754 250.275 95.7377 250.275 99.9869C250.275 104.236 253.738 107.698 257.987 107.698C262.262 107.725 265.698 104.262 265.698 99.9869ZM265.698 146.151C265.698 141.902 262.236 138.439 257.987 138.439C253.738 138.439 250.275 141.902 250.275 146.151C250.275 150.4 253.738 153.862 257.987 153.862C262.262 153.862 265.698 150.4 265.698 146.151ZM265.698 192.289C265.698 188.039 262.236 184.577 257.987 184.577C253.738 184.577 250.275 188.039 250.275 192.289C250.275 196.538 253.738 200 257.987 200C262.262 200 265.698 196.538 265.698 192.289ZM219.561 7.71148C219.561 3.4623 216.098 0 211.849 0C207.6 0 204.138 3.4623 204.138 7.71148C204.138 11.9607 207.6 15.4229 211.849 15.4229C216.125 15.4229 219.561 11.9869 219.561 7.71148ZM219.561 53.8492C219.561 49.6 216.098 46.1377 211.849 46.1377C207.6 46.1377 204.138 49.6 204.138 53.8492C204.138 58.0984 207.6 61.5607 211.849 61.5607C216.125 61.5607 219.561 58.1246 219.561 53.8492ZM219.561 99.9869C219.561 95.7377 216.098 92.2754 211.849 92.2754C207.6 92.2754 204.138 95.7377 204.138 99.9869C204.138 104.236 207.6 107.698 211.849 107.698C216.125 107.725 219.561 104.262 219.561 99.9869ZM219.561 146.151C219.561 141.902 216.098 138.439 211.849 138.439C207.6 138.439 204.138 141.902 204.138 146.151C204.138 150.4 207.6 153.862 211.849 153.862C216.125 153.862 219.561 150.4 219.561 146.151ZM219.561 192.289C219.561 188.039 216.098 184.577 211.849 184.577C207.6 184.577 204.138 188.039 204.138 192.289C204.138 196.538 207.6 200 211.849 200C216.125 200 219.561 196.538 219.561 192.289ZM173.423 7.71148C173.423 3.4623 169.961 0 165.711 0C161.462 0 158 3.4623 158 7.71148C158 11.9607 161.462 15.4229 165.711 15.4229C169.961 15.4229 173.423 11.9869 173.423 7.71148ZM173.423 53.8492C173.423 49.6 169.961 46.1377 165.711 46.1377C161.462 46.1377 158 49.6 158 53.8492C158 58.0984 161.462 61.5607 165.711 61.5607C169.961 61.5607 173.423 58.1246 173.423 53.8492ZM173.423 99.9869C173.423 95.7377 169.961 92.2754 165.711 92.2754C161.462 92.2754 158 95.7377 158 99.9869C158 104.236 161.462 107.698 165.711 107.698C169.961 107.698 173.423 104.262 173.423 99.9869ZM173.423 146.151C173.423 141.902 169.961 138.439 165.711 138.439C161.462 138.439 158 141.902 158 146.151C158 150.4 161.462 153.862 165.711 153.862C169.961 153.862 173.423 150.4 173.423 146.151ZM173.423 192.289C173.423 188.039 169.961 184.577 165.711 184.577C161.462 184.577 158 188.039 158 192.289C158 196.538 161.462 200 165.711 200C169.961 200 173.423 196.538 173.423 192.289Z" fill="#ECF4D8"/>
<path d="M580.289 15.4229C576.039 15.4229 572.577 11.9607 572.577 7.71148C572.577 3.4623 576.039 0 580.289 0C584.538 0 588 3.4623 588 7.71148C588 11.9869 584.538 15.4229 580.289 15.4229ZM588 53.8492C588 49.6 584.538 46.1377 580.289 46.1377C576.039 46.1377 572.577 49.6 572.577 53.8492C572.577 58.0984 576.039 61.5607 580.289 61.5607C584.538 61.5607 588 58.1246 588 53.8492ZM588 99.9869C588 95.7377 584.538 92.2754 580.289 92.2754C576.039 92.2754 572.577 95.7377 572.577 99.9869C572.577 104.236 576.039 107.698 580.289 107.698C584.538 107.725 588 104.262 588 99.9869ZM588 146.151C588 141.902 584.538 138.439 580.289 138.439C576.039 138.439 572.577 141.902 572.577 146.151C572.577 150.4 576.039 153.862 580.289 153.862C584.538 153.862 588 150.4 588 146.151ZM588 192.289C588 188.039 584.538 184.577 580.289 184.577C576.039 184.577 572.577 188.039 572.577 192.289C572.577 196.538 576.039 200 580.289 200C584.538 200 588 196.538 588 192.289ZM541.862 7.71148C541.862 3.4623 538.4 0 534.151 0C529.902 0 526.439 3.4623 526.439 7.71148C526.439 11.9607 529.902 15.4229 534.151 15.4229C538.4 15.4229 541.862 11.9869 541.862 7.71148ZM541.862 53.8492C541.862 49.6 538.4 46.1377 534.151 46.1377C529.902 46.1377 526.439 49.6 526.439 53.8492C526.439 58.0984 529.902 61.5607 534.151 61.5607C538.4 61.5607 541.862 58.1246 541.862 53.8492ZM541.862 99.9869C541.862 95.7377 538.4 92.2754 534.151 92.2754C529.902 92.2754 526.439 95.7377 526.439 99.9869C526.439 104.236 529.902 107.698 534.151 107.698C538.4 107.725 541.862 104.262 541.862 99.9869ZM541.862 146.151C541.862 141.902 538.4 138.439 534.151 138.439C529.902 138.439 526.439 141.902 526.439 146.151C526.439 150.4 529.902 153.862 534.151 153.862C538.4 153.862 541.862 150.4 541.862 146.151ZM541.862 192.289C541.862 188.039 538.4 184.577 534.151 184.577C529.902 184.577 526.439 188.039 526.439 192.289C526.439 196.538 529.902 200 534.151 200C538.4 200 541.862 196.538 541.862 192.289ZM495.698 7.71148C495.698 3.4623 492.236 0 487.987 0C483.738 0 480.275 3.4623 480.275 7.71148C480.275 11.9607 483.738 15.4229 487.987 15.4229C492.262 15.4229 495.698 11.9869 495.698 7.71148ZM495.698 53.8492C495.698 49.6 492.236 46.1377 487.987 46.1377C483.738 46.1377 480.275 49.6 480.275 53.8492C480.275 58.0984 483.738 61.5607 487.987 61.5607C492.262 61.5607 495.698 58.1246 495.698 53.8492ZM495.698 99.9869C495.698 95.7377 492.236 92.2754 487.987 92.2754C483.738 92.2754 480.275 95.7377 480.275 99.9869C480.275 104.236 483.738 107.698 487.987 107.698C492.262 107.725 495.698 104.262 495.698 99.9869ZM495.698 146.151C495.698 141.902 492.236 138.439 487.987 138.439C483.738 138.439 480.275 141.902 480.275 146.151C480.275 150.4 483.738 153.862 487.987 153.862C492.262 153.862 495.698 150.4 495.698 146.151ZM495.698 192.289C495.698 188.039 492.236 184.577 487.987 184.577C483.738 184.577 480.275 188.039 480.275 192.289C480.275 196.538 483.738 200 487.987 200C492.262 200 495.698 196.538 495.698 192.289ZM449.561 7.71148C449.561 3.4623 446.098 0 441.849 0C437.6 0 434.138 3.4623 434.138 7.71148C434.138 11.9607 437.6 15.4229 441.849 15.4229C446.125 15.4229 449.561 11.9869 449.561 7.71148ZM449.561 53.8492C449.561 49.6 446.098 46.1377 441.849 46.1377C437.6 46.1377 434.138 49.6 434.138 53.8492C434.138 58.0984 437.6 61.5607 441.849 61.5607C446.125 61.5607 449.561 58.1246 449.561 53.8492ZM449.561 99.9869C449.561 95.7377 446.098 92.2754 441.849 92.2754C437.6 92.2754 434.138 95.7377 434.138 99.9869C434.138 104.236 437.6 107.698 441.849 107.698C446.125 107.725 449.561 104.262 449.561 99.9869ZM449.561 146.151C449.561 141.902 446.098 138.439 441.849 138.439C437.6 138.439 434.138 141.902 434.138 146.151C434.138 150.4 437.6 153.862 441.849 153.862C446.125 153.862 449.561 150.4 449.561 146.151ZM449.561 192.289C449.561 188.039 446.098 184.577 441.849 184.577C437.6 184.577 434.138 188.039 434.138 192.289C434.138 196.538 437.6 200 441.849 200C446.125 200 449.561 196.538 449.561 192.289ZM403.423 7.71148C403.423 3.4623 399.961 0 395.711 0C391.462 0 388 3.4623 388 7.71148C388 11.9607 391.462 15.4229 395.711 15.4229C399.961 15.4229 403.423 11.9869 403.423 7.71148ZM403.423 53.8492C403.423 49.6 399.961 46.1377 395.711 46.1377C391.462 46.1377 388 49.6 388 53.8492C388 58.0984 391.462 61.5607 395.711 61.5607C399.961 61.5607 403.423 58.1246 403.423 53.8492ZM403.423 99.9869C403.423 95.7377 399.961 92.2754 395.711 92.2754C391.462 92.2754 388 95.7377 388 99.9869C388 104.236 391.462 107.698 395.711 107.698C399.961 107.698 403.423 104.262 403.423 99.9869ZM403.423 146.151C403.423 141.902 399.961 138.439 395.711 138.439C391.462 138.439 388 141.902 388 146.151C388 150.4 391.462 153.862 395.711 153.862C399.961 153.862 403.423 150.4 403.423 146.151ZM403.423 192.289C403.423 188.039 399.961 184.577 395.711 184.577C391.462 184.577 388 188.039 388 192.289C388 196.538 391.462 200 395.711 200C399.961 200 403.423 196.538 403.423 192.289Z" fill="#ECF4D8"/>
<path d="M810.289 15.4229C806.039 15.4229 802.577 11.9607 802.577 7.71148C802.577 3.4623 806.039 0 810.289 0C814.538 0 818 3.4623 818 7.71148C818 11.9869 814.538 15.4229 810.289 15.4229ZM818 53.8492C818 49.6 814.538 46.1377 810.289 46.1377C806.039 46.1377 802.577 49.6 802.577 53.8492C802.577 58.0984 806.039 61.5607 810.289 61.5607C814.538 61.5607 818 58.1246 818 53.8492ZM818 99.9869C818 95.7377 814.538 92.2754 810.289 92.2754C806.039 92.2754 802.577 95.7377 802.577 99.9869C802.577 104.236 806.039 107.698 810.289 107.698C814.538 107.725 818 104.262 818 99.9869ZM818 146.151C818 141.902 814.538 138.439 810.289 138.439C806.039 138.439 802.577 141.902 802.577 146.151C802.577 150.4 806.039 153.862 810.289 153.862C814.538 153.862 818 150.4 818 146.151ZM818 192.289C818 188.039 814.538 184.577 810.289 184.577C806.039 184.577 802.577 188.039 802.577 192.289C802.577 196.538 806.039 200 810.289 200C814.538 200 818 196.538 818 192.289ZM771.862 7.71148C771.862 3.4623 768.4 0 764.151 0C759.902 0 756.439 3.4623 756.439 7.71148C756.439 11.9607 759.902 15.4229 764.151 15.4229C768.4 15.4229 771.862 11.9869 771.862 7.71148ZM771.862 53.8492C771.862 49.6 768.4 46.1377 764.151 46.1377C759.902 46.1377 756.439 49.6 756.439 53.8492C756.439 58.0984 759.902 61.5607 764.151 61.5607C768.4 61.5607 771.862 58.1246 771.862 53.8492ZM771.862 99.9869C771.862 95.7377 768.4 92.2754 764.151 92.2754C759.902 92.2754 756.439 95.7377 756.439 99.9869C756.439 104.236 759.902 107.698 764.151 107.698C768.4 107.725 771.862 104.262 771.862 99.9869ZM771.862 146.151C771.862 141.902 768.4 138.439 764.151 138.439C759.902 138.439 756.439 141.902 756.439 146.151C756.439 150.4 759.902 153.862 764.151 153.862C768.4 153.862 771.862 150.4 771.862 146.151ZM771.862 192.289C771.862 188.039 768.4 184.577 764.151 184.577C759.902 184.577 756.439 188.039 756.439 192.289C756.439 196.538 759.902 200 764.151 200C768.4 200 771.862 196.538 771.862 192.289ZM725.698 7.71148C725.698 3.4623 722.236 0 717.987 0C713.738 0 710.275 3.4623 710.275 7.71148C710.275 11.9607 713.738 15.4229 717.987 15.4229C722.262 15.4229 725.698 11.9869 725.698 7.71148ZM725.698 53.8492C725.698 49.6 722.236 46.1377 717.987 46.1377C713.738 46.1377 710.275 49.6 710.275 53.8492C710.275 58.0984 713.738 61.5607 717.987 61.5607C722.262 61.5607 725.698 58.1246 725.698 53.8492ZM725.698 99.9869C725.698 95.7377 722.236 92.2754 717.987 92.2754C713.738 92.2754 710.275 95.7377 710.275 99.9869C710.275 104.236 713.738 107.698 717.987 107.698C722.262 107.725 725.698 104.262 725.698 99.9869ZM725.698 146.151C725.698 141.902 722.236 138.439 717.987 138.439C713.738 138.439 710.275 141.902 710.275 146.151C710.275 150.4 713.738 153.862 717.987 153.862C722.262 153.862 725.698 150.4 725.698 146.151ZM725.698 192.289C725.698 188.039 722.236 184.577 717.987 184.577C713.738 184.577 710.275 188.039 710.275 192.289C710.275 196.538 713.738 200 717.987 200C722.262 200 725.698 196.538 725.698 192.289ZM679.561 7.71148C679.561 3.4623 676.098 0 671.849 0C667.6 0 664.138 3.4623 664.138 7.71148C664.138 11.9607 667.6 15.4229 671.849 15.4229C676.125 15.4229 679.561 11.9869 679.561 7.71148ZM679.561 53.8492C679.561 49.6 676.098 46.1377 671.849 46.1377C667.6 46.1377 664.138 49.6 664.138 53.8492C664.138 58.0984 667.6 61.5607 671.849 61.5607C676.125 61.5607 679.561 58.1246 679.561 53.8492ZM679.561 99.9869C679.561 95.7377 676.098 92.2754 671.849 92.2754C667.6 92.2754 664.138 95.7377 664.138 99.9869C664.138 104.236 667.6 107.698 671.849 107.698C676.125 107.725 679.561 104.262 679.561 99.9869ZM679.561 146.151C679.561 141.902 676.098 138.439 671.849 138.439C667.6 138.439 664.138 141.902 664.138 146.151C664.138 150.4 667.6 153.862 671.849 153.862C676.125 153.862 679.561 150.4 679.561 146.151ZM679.561 192.289C679.561 188.039 676.098 184.577 671.849 184.577C667.6 184.577 664.138 188.039 664.138 192.289C664.138 196.538 667.6 200 671.849 200C676.125 200 679.561 196.538 679.561 192.289ZM633.423 7.71148C633.423 3.4623 629.961 0 625.711 0C621.462 0 618 3.4623 618 7.71148C618 11.9607 621.462 15.4229 625.711 15.4229C629.961 15.4229 633.423 11.9869 633.423 7.71148ZM633.423 53.8492C633.423 49.6 629.961 46.1377 625.711 46.1377C621.462 46.1377 618 49.6 618 53.8492C618 58.0984 621.462 61.5607 625.711 61.5607C629.961 61.5607 633.423 58.1246 633.423 53.8492ZM633.423 99.9869C633.423 95.7377 629.961 92.2754 625.711 92.2754C621.462 92.2754 618 95.7377 618 99.9869C618 104.236 621.462 107.698 625.711 107.698C629.961 107.698 633.423 104.262 633.423 99.9869ZM633.423 146.151C633.423 141.902 629.961 138.439 625.711 138.439C621.462 138.439 618 141.902 618 146.151C618 150.4 621.462 153.862 625.711 153.862C629.961 153.862 633.423 150.4 633.423 146.151ZM633.423 192.289C633.423 188.039 629.961 184.577 625.711 184.577C621.462 184.577 618 188.039 618 192.289C618 196.538 621.462 200 625.711 200C629.961 200 633.423 196.538 633.423 192.289Z" fill="#ECF4D8"/>
</svg>
