<svg width="315" height="100" viewBox="0 0 315 100" fill="none" xmlns="http://www.w3.org/2000/svg">
<path d="M71.1443 7.71147C69.0197 7.71147 67.2885 5.98033 67.2885 3.85574C67.2885 1.73115 69.0197 0 71.1443 0C73.2688 0 75 1.73115 75 3.85574C75 5.99345 73.2688 7.71147 71.1443 7.71147ZM75 26.9246C75 24.8 73.2688 23.0689 71.1443 23.0689C69.0197 23.0689 67.2885 24.8 67.2885 26.9246C67.2885 29.0492 69.0197 30.7803 71.1443 30.7803C73.2688 30.7803 75 29.0623 75 26.9246ZM75 49.9934C75 47.8689 73.2688 46.1377 71.1443 46.1377C69.0197 46.1377 67.2885 47.8689 67.2885 49.9934C67.2885 52.118 69.0197 53.8492 71.1443 53.8492C73.2688 53.8623 75 52.1311 75 49.9934ZM75 73.0754C75 70.9508 73.2688 69.2197 71.1443 69.2197C69.0197 69.2197 67.2885 70.9508 67.2885 73.0754C67.2885 75.2 69.0197 76.9312 71.1443 76.9312C73.2688 76.9312 75 75.2 75 73.0754ZM75 96.1443C75 94.0197 73.2688 92.2885 71.1443 92.2885C69.0197 92.2885 67.2885 94.0197 67.2885 96.1443C67.2885 98.2688 69.0197 100 71.1443 100C73.2688 100 75 98.2688 75 96.1443ZM51.9311 3.85574C51.9311 1.73115 50.2 0 48.0754 0C45.9508 0 44.2196 1.73115 44.2196 3.85574C44.2196 5.98033 45.9508 7.71147 48.0754 7.71147C50.2 7.71147 51.9311 5.99345 51.9311 3.85574ZM51.9311 26.9246C51.9311 24.8 50.2 23.0689 48.0754 23.0689C45.9508 23.0689 44.2196 24.8 44.2196 26.9246C44.2196 29.0492 45.9508 30.7803 48.0754 30.7803C50.2 30.7803 51.9311 29.0623 51.9311 26.9246ZM51.9311 49.9934C51.9311 47.8689 50.2 46.1377 48.0754 46.1377C45.9508 46.1377 44.2196 47.8689 44.2196 49.9934C44.2196 52.118 45.9508 53.8492 48.0754 53.8492C50.2 53.8623 51.9311 52.1311 51.9311 49.9934ZM51.9311 73.0754C51.9311 70.9508 50.2 69.2197 48.0754 69.2197C45.9508 69.2197 44.2196 70.9508 44.2196 73.0754C44.2196 75.2 45.9508 76.9312 48.0754 76.9312C50.2 76.9312 51.9311 75.2 51.9311 73.0754ZM51.9311 96.1443C51.9311 94.0197 50.2 92.2885 48.0754 92.2885C45.9508 92.2885 44.2196 94.0197 44.2196 96.1443C44.2196 98.2688 45.9508 100 48.0754 100C50.2 100 51.9311 98.2688 51.9311 96.1443ZM28.8492 3.85574C28.8492 1.73115 27.118 0 24.9934 0C22.8688 0 21.1377 1.73115 21.1377 3.85574C21.1377 5.98033 22.8688 7.71147 24.9934 7.71147C27.1311 7.71147 28.8492 5.99345 28.8492 3.85574ZM28.8492 26.9246C28.8492 24.8 27.118 23.0689 24.9934 23.0689C22.8688 23.0689 21.1377 24.8 21.1377 26.9246C21.1377 29.0492 22.8688 30.7803 24.9934 30.7803C27.1311 30.7803 28.8492 29.0623 28.8492 26.9246ZM28.8492 49.9934C28.8492 47.8689 27.118 46.1377 24.9934 46.1377C22.8688 46.1377 21.1377 47.8689 21.1377 49.9934C21.1377 52.118 22.8688 53.8492 24.9934 53.8492C27.1311 53.8623 28.8492 52.1311 28.8492 49.9934ZM28.8492 73.0754C28.8492 70.9508 27.118 69.2197 24.9934 69.2197C22.8688 69.2197 21.1377 70.9508 21.1377 73.0754C21.1377 75.2 22.8688 76.9312 24.9934 76.9312C27.1311 76.9312 28.8492 75.2 28.8492 73.0754ZM28.8492 96.1443C28.8492 94.0197 27.118 92.2885 24.9934 92.2885C22.8688 92.2885 21.1377 94.0197 21.1377 96.1443C21.1377 98.2688 22.8688 100 24.9934 100C27.1311 100 28.8492 98.2688 28.8492 96.1443ZM5.78029 3.85574C5.78029 1.73115 4.04914 0 1.92455 0C-0.200043 0 -1.93111 1.73115 -1.93111 3.85574C-1.93111 5.98033 -0.200043 7.71147 1.92455 7.71147C4.06225 7.71147 5.78029 5.99345 5.78029 3.85574ZM5.78029 26.9246C5.78029 24.8 4.04914 23.0689 1.92455 23.0689C-0.200043 23.0689 -1.93111 24.8 -1.93111 26.9246C-1.93111 29.0492 -0.200043 30.7803 1.92455 30.7803C4.06225 30.7803 5.78029 29.0623 5.78029 26.9246ZM5.78029 49.9934C5.78029 47.8689 4.04914 46.1377 1.92455 46.1377C-0.200043 46.1377 -1.93111 47.8689 -1.93111 49.9934C-1.93111 52.118 -0.200043 53.8492 1.92455 53.8492C4.06225 53.8623 5.78029 52.1311 5.78029 49.9934ZM5.78029 73.0754C5.78029 70.9508 4.04914 69.2197 1.92455 69.2197C-0.200043 69.2197 -1.93111 70.9508 -1.93111 73.0754C-1.93111 75.2 -0.200043 76.9312 1.92455 76.9312C4.06225 76.9312 5.78029 75.2 5.78029 73.0754ZM5.78029 96.1443C5.78029 94.0197 4.04914 92.2885 1.92455 92.2885C-0.200043 92.2885 -1.93111 94.0197 -1.93111 96.1443C-1.93111 98.2688 -0.200043 100 1.92455 100C4.06225 100 5.78029 98.2688 5.78029 96.1443ZM-17.2885 3.85574C-17.2885 1.73115 -19.0197 0 -21.1443 0C-23.2688 0 -25 1.73115 -25 3.85574C-25 5.98033 -23.2688 7.71147 -21.1443 7.71147C-19.0197 7.71147 -17.2885 5.99345 -17.2885 3.85574ZM-17.2885 26.9246C-17.2885 24.8 -19.0197 23.0689 -21.1443 23.0689C-23.2688 23.0689 -25 24.8 -25 26.9246C-25 29.0492 -23.2688 30.7803 -21.1443 30.7803C-19.0197 30.7803 -17.2885 29.0623 -17.2885 26.9246ZM-17.2885 49.9934C-17.2885 47.8689 -19.0197 46.1377 -21.1443 46.1377C-23.2688 46.1377 -25 47.8689 -25 49.9934C-25 52.118 -23.2688 53.8492 -21.1443 53.8492C-19.0197 53.8492 -17.2885 52.1311 -17.2885 49.9934ZM-17.2885 73.0754C-17.2885 70.9508 -19.0197 69.2197 -21.1443 69.2197C-23.2688 69.2197 -25 70.9508 -25 73.0754C-25 75.2 -23.2688 76.9312 -21.1443 76.9312C-19.0197 76.9312 -17.2885 75.2 -17.2885 73.0754ZM-17.2885 96.1443C-17.2885 94.0197 -19.0197 92.2885 -21.1443 92.2885C-23.2688 92.2885 -25 94.0197 -25 96.1443C-25 98.2688 -23.2688 100 -21.1443 100C-19.0197 100 -17.2885 98.2688 -17.2885 96.1443Z" fill="#ECF4D8"/>
<path d="M191.144 7.71147C189.02 7.71147 187.289 5.98033 187.289 3.85574C187.289 1.73115 189.02 0 191.144 0C193.269 0 195 1.73115 195 3.85574C195 5.99345 193.269 7.71147 191.144 7.71147ZM195 26.9246C195 24.8 193.269 23.0689 191.144 23.0689C189.02 23.0689 187.289 24.8 187.289 26.9246C187.289 29.0492 189.02 30.7803 191.144 30.7803C193.269 30.7803 195 29.0623 195 26.9246ZM195 49.9934C195 47.8689 193.269 46.1377 191.144 46.1377C189.02 46.1377 187.289 47.8689 187.289 49.9934C187.289 52.118 189.02 53.8492 191.144 53.8492C193.269 53.8623 195 52.1311 195 49.9934ZM195 73.0754C195 70.9508 193.269 69.2197 191.144 69.2197C189.02 69.2197 187.289 70.9508 187.289 73.0754C187.289 75.2 189.02 76.9312 191.144 76.9312C193.269 76.9312 195 75.2 195 73.0754ZM195 96.1443C195 94.0197 193.269 92.2885 191.144 92.2885C189.02 92.2885 187.289 94.0197 187.289 96.1443C187.289 98.2688 189.02 100 191.144 100C193.269 100 195 98.2688 195 96.1443ZM171.931 3.85574C171.931 1.73115 170.2 0 168.075 0C165.951 0 164.22 1.73115 164.22 3.85574C164.22 5.98033 165.951 7.71147 168.075 7.71147C170.2 7.71147 171.931 5.99345 171.931 3.85574ZM171.931 26.9246C171.931 24.8 170.2 23.0689 168.075 23.0689C165.951 23.0689 164.22 24.8 164.22 26.9246C164.22 29.0492 165.951 30.7803 168.075 30.7803C170.2 30.7803 171.931 29.0623 171.931 26.9246ZM171.931 49.9934C171.931 47.8689 170.2 46.1377 168.075 46.1377C165.951 46.1377 164.22 47.8689 164.22 49.9934C164.22 52.118 165.951 53.8492 168.075 53.8492C170.2 53.8623 171.931 52.1311 171.931 49.9934ZM171.931 73.0754C171.931 70.9508 170.2 69.2197 168.075 69.2197C165.951 69.2197 164.22 70.9508 164.22 73.0754C164.22 75.2 165.951 76.9312 168.075 76.9312C170.2 76.9312 171.931 75.2 171.931 73.0754ZM171.931 96.1443C171.931 94.0197 170.2 92.2885 168.075 92.2885C165.951 92.2885 164.22 94.0197 164.22 96.1443C164.22 98.2688 165.951 100 168.075 100C170.2 100 171.931 98.2688 171.931 96.1443ZM148.849 3.85574C148.849 1.73115 147.118 0 144.993 0C142.869 0 141.138 1.73115 141.138 3.85574C141.138 5.98033 142.869 7.71147 144.993 7.71147C147.131 7.71147 148.849 5.99345 148.849 3.85574ZM148.849 26.9246C148.849 24.8 147.118 23.0689 144.993 23.0689C142.869 23.0689 141.138 24.8 141.138 26.9246C141.138 29.0492 142.869 30.7803 144.993 30.7803C147.131 30.7803 148.849 29.0623 148.849 26.9246ZM148.849 49.9934C148.849 47.8689 147.118 46.1377 144.993 46.1377C142.869 46.1377 141.138 47.8689 141.138 49.9934C141.138 52.118 142.869 53.8492 144.993 53.8492C147.131 53.8623 148.849 52.1311 148.849 49.9934ZM148.849 73.0754C148.849 70.9508 147.118 69.2197 144.993 69.2197C142.869 69.2197 141.138 70.9508 141.138 73.0754C141.138 75.2 142.869 76.9312 144.993 76.9312C147.131 76.9312 148.849 75.2 148.849 73.0754ZM148.849 96.1443C148.849 94.0197 147.118 92.2885 144.993 92.2885C142.869 92.2885 141.138 94.0197 141.138 96.1443C141.138 98.2688 142.869 100 144.993 100C147.131 100 148.849 98.2688 148.849 96.1443ZM125.78 3.85574C125.78 1.73115 124.049 0 121.925 0C119.8 0 118.069 1.73115 118.069 3.85574C118.069 5.98033 119.8 7.71147 121.925 7.71147C124.062 7.71147 125.78 5.99345 125.78 3.85574ZM125.78 26.9246C125.78 24.8 124.049 23.0689 121.925 23.0689C119.8 23.0689 118.069 24.8 118.069 26.9246C118.069 29.0492 119.8 30.7803 121.925 30.7803C124.062 30.7803 125.78 29.0623 125.78 26.9246ZM125.78 49.9934C125.78 47.8689 124.049 46.1377 121.925 46.1377C119.8 46.1377 118.069 47.8689 118.069 49.9934C118.069 52.118 119.8 53.8492 121.925 53.8492C124.062 53.8623 125.78 52.1311 125.78 49.9934ZM125.78 73.0754C125.78 70.9508 124.049 69.2197 121.925 69.2197C119.8 69.2197 118.069 70.9508 118.069 73.0754C118.069 75.2 119.8 76.9312 121.925 76.9312C124.062 76.9312 125.78 75.2 125.78 73.0754ZM125.78 96.1443C125.78 94.0197 124.049 92.2885 121.925 92.2885C119.8 92.2885 118.069 94.0197 118.069 96.1443C118.069 98.2688 119.8 100 121.925 100C124.062 100 125.78 98.2688 125.78 96.1443ZM102.711 3.85574C102.711 1.73115 100.98 0 98.8557 0C96.7312 0 95 1.73115 95 3.85574C95 5.98033 96.7312 7.71147 98.8557 7.71147C100.98 7.71147 102.711 5.99345 102.711 3.85574ZM102.711 26.9246C102.711 24.8 100.98 23.0689 98.8557 23.0689C96.7312 23.0689 95 24.8 95 26.9246C95 29.0492 96.7312 30.7803 98.8557 30.7803C100.98 30.7803 102.711 29.0623 102.711 26.9246ZM102.711 49.9934C102.711 47.8689 100.98 46.1377 98.8557 46.1377C96.7312 46.1377 95 47.8689 95 49.9934C95 52.118 96.7312 53.8492 98.8557 53.8492C100.98 53.8492 102.711 52.1311 102.711 49.9934ZM102.711 73.0754C102.711 70.9508 100.98 69.2197 98.8557 69.2197C96.7312 69.2197 95 70.9508 95 73.0754C95 75.2 96.7312 76.9312 98.8557 76.9312C100.98 76.9312 102.711 75.2 102.711 73.0754ZM102.711 96.1443C102.711 94.0197 100.98 92.2885 98.8557 92.2885C96.7312 92.2885 95 94.0197 95 96.1443C95 98.2688 96.7312 100 98.8557 100C100.98 100 102.711 98.2688 102.711 96.1443Z" fill="#ECF4D8"/>
<path d="M311.144 7.71147C309.02 7.71147 307.289 5.98033 307.289 3.85574C307.289 1.73115 309.02 0 311.144 0C313.269 0 315 1.73115 315 3.85574C315 5.99345 313.269 7.71147 311.144 7.71147ZM315 26.9246C315 24.8 313.269 23.0689 311.144 23.0689C309.02 23.0689 307.289 24.8 307.289 26.9246C307.289 29.0492 309.02 30.7803 311.144 30.7803C313.269 30.7803 315 29.0623 315 26.9246ZM315 49.9934C315 47.8689 313.269 46.1377 311.144 46.1377C309.02 46.1377 307.289 47.8689 307.289 49.9934C307.289 52.118 309.02 53.8492 311.144 53.8492C313.269 53.8623 315 52.1311 315 49.9934ZM315 73.0754C315 70.9508 313.269 69.2197 311.144 69.2197C309.02 69.2197 307.289 70.9508 307.289 73.0754C307.289 75.2 309.02 76.9312 311.144 76.9312C313.269 76.9312 315 75.2 315 73.0754ZM315 96.1443C315 94.0197 313.269 92.2885 311.144 92.2885C309.02 92.2885 307.289 94.0197 307.289 96.1443C307.289 98.2688 309.02 100 311.144 100C313.269 100 315 98.2688 315 96.1443ZM291.931 3.85574C291.931 1.73115 290.2 0 288.075 0C285.951 0 284.22 1.73115 284.22 3.85574C284.22 5.98033 285.951 7.71147 288.075 7.71147C290.2 7.71147 291.931 5.99345 291.931 3.85574ZM291.931 26.9246C291.931 24.8 290.2 23.0689 288.075 23.0689C285.951 23.0689 284.22 24.8 284.22 26.9246C284.22 29.0492 285.951 30.7803 288.075 30.7803C290.2 30.7803 291.931 29.0623 291.931 26.9246ZM291.931 49.9934C291.931 47.8689 290.2 46.1377 288.075 46.1377C285.951 46.1377 284.22 47.8689 284.22 49.9934C284.22 52.118 285.951 53.8492 288.075 53.8492C290.2 53.8623 291.931 52.1311 291.931 49.9934ZM291.931 73.0754C291.931 70.9508 290.2 69.2197 288.075 69.2197C285.951 69.2197 284.22 70.9508 284.22 73.0754C284.22 75.2 285.951 76.9312 288.075 76.9312C290.2 76.9312 291.931 75.2 291.931 73.0754ZM291.931 96.1443C291.931 94.0197 290.2 92.2885 288.075 92.2885C285.951 92.2885 284.22 94.0197 284.22 96.1443C284.22 98.2688 285.951 100 288.075 100C290.2 100 291.931 98.2688 291.931 96.1443ZM268.849 3.85574C268.849 1.73115 267.118 0 264.993 0C262.869 0 261.138 1.73115 261.138 3.85574C261.138 5.98033 262.869 7.71147 264.993 7.71147C267.131 7.71147 268.849 5.99345 268.849 3.85574ZM268.849 26.9246C268.849 24.8 267.118 23.0689 264.993 23.0689C262.869 23.0689 261.138 24.8 261.138 26.9246C261.138 29.0492 262.869 30.7803 264.993 30.7803C267.131 30.7803 268.849 29.0623 268.849 26.9246ZM268.849 49.9934C268.849 47.8689 267.118 46.1377 264.993 46.1377C262.869 46.1377 261.138 47.8689 261.138 49.9934C261.138 52.118 262.869 53.8492 264.993 53.8492C267.131 53.8623 268.849 52.1311 268.849 49.9934ZM268.849 73.0754C268.849 70.9508 267.118 69.2197 264.993 69.2197C262.869 69.2197 261.138 70.9508 261.138 73.0754C261.138 75.2 262.869 76.9312 264.993 76.9312C267.131 76.9312 268.849 75.2 268.849 73.0754ZM268.849 96.1443C268.849 94.0197 267.118 92.2885 264.993 92.2885C262.869 92.2885 261.138 94.0197 261.138 96.1443C261.138 98.2688 262.869 100 264.993 100C267.131 100 268.849 98.2688 268.849 96.1443ZM245.78 3.85574C245.78 1.73115 244.049 0 241.925 0C239.8 0 238.069 1.73115 238.069 3.85574C238.069 5.98033 239.8 7.71147 241.925 7.71147C244.062 7.71147 245.78 5.99345 245.78 3.85574ZM245.78 26.9246C245.78 24.8 244.049 23.0689 241.925 23.0689C239.8 23.0689 238.069 24.8 238.069 26.9246C238.069 29.0492 239.8 30.7803 241.925 30.7803C244.062 30.7803 245.78 29.0623 245.78 26.9246ZM245.78 49.9934C245.78 47.8689 244.049 46.1377 241.925 46.1377C239.8 46.1377 238.069 47.8689 238.069 49.9934C238.069 52.118 239.8 53.8492 241.925 53.8492C244.062 53.8623 245.78 52.1311 245.78 49.9934ZM245.78 73.0754C245.78 70.9508 244.049 69.2197 241.925 69.2197C239.8 69.2197 238.069 70.9508 238.069 73.0754C238.069 75.2 239.8 76.9312 241.925 76.9312C244.062 76.9312 245.78 75.2 245.78 73.0754ZM245.78 96.1443C245.78 94.0197 244.049 92.2885 241.925 92.2885C239.8 92.2885 238.069 94.0197 238.069 96.1443C238.069 98.2688 239.8 100 241.925 100C244.062 100 245.78 98.2688 245.78 96.1443ZM222.711 3.85574C222.711 1.73115 220.98 0 218.856 0C216.731 0 215 1.73115 215 3.85574C215 5.98033 216.731 7.71147 218.856 7.71147C220.98 7.71147 222.711 5.99345 222.711 3.85574ZM222.711 26.9246C222.711 24.8 220.98 23.0689 218.856 23.0689C216.731 23.0689 215 24.8 215 26.9246C215 29.0492 216.731 30.7803 218.856 30.7803C220.98 30.7803 222.711 29.0623 222.711 26.9246ZM222.711 49.9934C222.711 47.8689 220.98 46.1377 218.856 46.1377C216.731 46.1377 215 47.8689 215 49.9934C215 52.118 216.731 53.8492 218.856 53.8492C220.98 53.8492 222.711 52.1311 222.711 49.9934ZM222.711 73.0754C222.711 70.9508 220.98 69.2197 218.856 69.2197C216.731 69.2197 215 70.9508 215 73.0754C215 75.2 216.731 76.9312 218.856 76.9312C220.98 76.9312 222.711 75.2 222.711 73.0754ZM222.711 96.1443C222.711 94.0197 220.98 92.2885 218.856 92.2885C216.731 92.2885 215 94.0197 215 96.1443C215 98.2688 216.731 100 218.856 100C220.98 100 222.711 98.2688 222.711 96.1443Z" fill="#ECF4D8"/>
</svg>
