<svg width="626" height="200" viewBox="0 0 626 200" fill="none" xmlns="http://www.w3.org/2000/svg">
<g opacity="0.5">
<path d="M192.289 15.4229C188.039 15.4229 184.577 11.9607 184.577 7.71148C184.577 3.4623 188.039 0 192.289 0C196.538 0 200 3.4623 200 7.71148C200 11.9869 196.538 15.4229 192.289 15.4229ZM200 53.8492C200 49.6 196.538 46.1377 192.289 46.1377C188.039 46.1377 184.577 49.6 184.577 53.8492C184.577 58.0984 188.039 61.5607 192.289 61.5607C196.538 61.5607 200 58.1246 200 53.8492ZM200 99.9869C200 95.7377 196.538 92.2754 192.289 92.2754C188.039 92.2754 184.577 95.7377 184.577 99.9869C184.577 104.236 188.039 107.698 192.289 107.698C196.538 107.725 200 104.262 200 99.9869ZM200 146.151C200 141.902 196.538 138.439 192.289 138.439C188.039 138.439 184.577 141.902 184.577 146.151C184.577 150.4 188.039 153.862 192.289 153.862C196.538 153.862 200 150.4 200 146.151ZM200 192.289C200 188.039 196.538 184.577 192.289 184.577C188.039 184.577 184.577 188.039 184.577 192.289C184.577 196.538 188.039 200 192.289 200C196.538 200 200 196.538 200 192.289ZM153.862 7.71148C153.862 3.4623 150.4 0 146.151 0C141.902 0 138.439 3.4623 138.439 7.71148C138.439 11.9607 141.902 15.4229 146.151 15.4229C150.4 15.4229 153.862 11.9869 153.862 7.71148ZM153.862 53.8492C153.862 49.6 150.4 46.1377 146.151 46.1377C141.902 46.1377 138.439 49.6 138.439 53.8492C138.439 58.0984 141.902 61.5607 146.151 61.5607C150.4 61.5607 153.862 58.1246 153.862 53.8492ZM153.862 99.9869C153.862 95.7377 150.4 92.2754 146.151 92.2754C141.902 92.2754 138.439 95.7377 138.439 99.9869C138.439 104.236 141.902 107.698 146.151 107.698C150.4 107.725 153.862 104.262 153.862 99.9869ZM153.862 146.151C153.862 141.902 150.4 138.439 146.151 138.439C141.902 138.439 138.439 141.902 138.439 146.151C138.439 150.4 141.902 153.862 146.151 153.862C150.4 153.862 153.862 150.4 153.862 146.151ZM153.862 192.289C153.862 188.039 150.4 184.577 146.151 184.577C141.902 184.577 138.439 188.039 138.439 192.289C138.439 196.538 141.902 200 146.151 200C150.4 200 153.862 196.538 153.862 192.289ZM107.698 7.71148C107.698 3.4623 104.236 0 99.9869 0C95.7377 0 92.2754 3.4623 92.2754 7.71148C92.2754 11.9607 95.7377 15.4229 99.9869 15.4229C104.262 15.4229 107.698 11.9869 107.698 7.71148ZM107.698 53.8492C107.698 49.6 104.236 46.1377 99.9869 46.1377C95.7377 46.1377 92.2754 49.6 92.2754 53.8492C92.2754 58.0984 95.7377 61.5607 99.9869 61.5607C104.262 61.5607 107.698 58.1246 107.698 53.8492ZM107.698 99.9869C107.698 95.7377 104.236 92.2754 99.9869 92.2754C95.7377 92.2754 92.2754 95.7377 92.2754 99.9869C92.2754 104.236 95.7377 107.698 99.9869 107.698C104.262 107.725 107.698 104.262 107.698 99.9869ZM107.698 146.151C107.698 141.902 104.236 138.439 99.9869 138.439C95.7377 138.439 92.2754 141.902 92.2754 146.151C92.2754 150.4 95.7377 153.862 99.9869 153.862C104.262 153.862 107.698 150.4 107.698 146.151ZM107.698 192.289C107.698 188.039 104.236 184.577 99.9869 184.577C95.7377 184.577 92.2754 188.039 92.2754 192.289C92.2754 196.538 95.7377 200 99.9869 200C104.262 200 107.698 196.538 107.698 192.289ZM61.5606 7.71148C61.5606 3.4623 58.0983 0 53.8491 0C49.5999 0 46.1378 3.4623 46.1378 7.71148C46.1378 11.9607 49.5999 15.4229 53.8491 15.4229C58.1245 15.4229 61.5606 11.9869 61.5606 7.71148ZM61.5606 53.8492C61.5606 49.6 58.0983 46.1377 53.8491 46.1377C49.5999 46.1377 46.1378 49.6 46.1378 53.8492C46.1378 58.0984 49.5999 61.5607 53.8491 61.5607C58.1245 61.5607 61.5606 58.1246 61.5606 53.8492ZM61.5606 99.9869C61.5606 95.7377 58.0983 92.2754 53.8491 92.2754C49.5999 92.2754 46.1378 95.7377 46.1378 99.9869C46.1378 104.236 49.5999 107.698 53.8491 107.698C58.1245 107.725 61.5606 104.262 61.5606 99.9869ZM61.5606 146.151C61.5606 141.902 58.0983 138.439 53.8491 138.439C49.5999 138.439 46.1378 141.902 46.1378 146.151C46.1378 150.4 49.5999 153.862 53.8491 153.862C58.1245 153.862 61.5606 150.4 61.5606 146.151ZM61.5606 192.289C61.5606 188.039 58.0983 184.577 53.8491 184.577C49.5999 184.577 46.1378 188.039 46.1378 192.289C46.1378 196.538 49.5999 200 53.8491 200C58.1245 200 61.5606 196.538 61.5606 192.289ZM15.423 7.71148C15.423 3.4623 11.9607 0 7.71148 0C3.4623 0 0 3.4623 0 7.71148C0 11.9607 3.4623 15.4229 7.71148 15.4229C11.9607 15.4229 15.423 11.9869 15.423 7.71148ZM15.423 53.8492C15.423 49.6 11.9607 46.1377 7.71148 46.1377C3.4623 46.1377 0 49.6 0 53.8492C0 58.0984 3.4623 61.5607 7.71148 61.5607C11.9607 61.5607 15.423 58.1246 15.423 53.8492ZM15.423 99.9869C15.423 95.7377 11.9607 92.2754 7.71148 92.2754C3.4623 92.2754 0 95.7377 0 99.9869C0 104.236 3.4623 107.698 7.71148 107.698C11.9607 107.698 15.423 104.262 15.423 99.9869ZM15.423 146.151C15.423 141.902 11.9607 138.439 7.71148 138.439C3.4623 138.439 0 141.902 0 146.151C0 150.4 3.4623 153.862 7.71148 153.862C11.9607 153.862 15.423 150.4 15.423 146.151ZM15.423 192.289C15.423 188.039 11.9607 184.577 7.71148 184.577C3.4623 184.577 0 188.039 0 192.289C0 196.538 3.4623 200 7.71148 200C11.9607 200 15.423 196.538 15.423 192.289Z" fill="#7488A2"/>
<path d="M422.289 15.4229C418.039 15.4229 414.577 11.9607 414.577 7.71148C414.577 3.4623 418.039 0 422.289 0C426.538 0 430 3.4623 430 7.71148C430 11.9869 426.538 15.4229 422.289 15.4229ZM430 53.8492C430 49.6 426.538 46.1377 422.289 46.1377C418.039 46.1377 414.577 49.6 414.577 53.8492C414.577 58.0984 418.039 61.5607 422.289 61.5607C426.538 61.5607 430 58.1246 430 53.8492ZM430 99.9869C430 95.7377 426.538 92.2754 422.289 92.2754C418.039 92.2754 414.577 95.7377 414.577 99.9869C414.577 104.236 418.039 107.698 422.289 107.698C426.538 107.725 430 104.262 430 99.9869ZM430 146.151C430 141.902 426.538 138.439 422.289 138.439C418.039 138.439 414.577 141.902 414.577 146.151C414.577 150.4 418.039 153.862 422.289 153.862C426.538 153.862 430 150.4 430 146.151ZM430 192.289C430 188.039 426.538 184.577 422.289 184.577C418.039 184.577 414.577 188.039 414.577 192.289C414.577 196.538 418.039 200 422.289 200C426.538 200 430 196.538 430 192.289ZM383.862 7.71148C383.862 3.4623 380.4 0 376.151 0C371.902 0 368.439 3.4623 368.439 7.71148C368.439 11.9607 371.902 15.4229 376.151 15.4229C380.4 15.4229 383.862 11.9869 383.862 7.71148ZM383.862 53.8492C383.862 49.6 380.4 46.1377 376.151 46.1377C371.902 46.1377 368.439 49.6 368.439 53.8492C368.439 58.0984 371.902 61.5607 376.151 61.5607C380.4 61.5607 383.862 58.1246 383.862 53.8492ZM383.862 99.9869C383.862 95.7377 380.4 92.2754 376.151 92.2754C371.902 92.2754 368.439 95.7377 368.439 99.9869C368.439 104.236 371.902 107.698 376.151 107.698C380.4 107.725 383.862 104.262 383.862 99.9869ZM383.862 146.151C383.862 141.902 380.4 138.439 376.151 138.439C371.902 138.439 368.439 141.902 368.439 146.151C368.439 150.4 371.902 153.862 376.151 153.862C380.4 153.862 383.862 150.4 383.862 146.151ZM383.862 192.289C383.862 188.039 380.4 184.577 376.151 184.577C371.902 184.577 368.439 188.039 368.439 192.289C368.439 196.538 371.902 200 376.151 200C380.4 200 383.862 196.538 383.862 192.289ZM337.698 7.71148C337.698 3.4623 334.236 0 329.987 0C325.738 0 322.275 3.4623 322.275 7.71148C322.275 11.9607 325.738 15.4229 329.987 15.4229C334.262 15.4229 337.698 11.9869 337.698 7.71148ZM337.698 53.8492C337.698 49.6 334.236 46.1377 329.987 46.1377C325.738 46.1377 322.275 49.6 322.275 53.8492C322.275 58.0984 325.738 61.5607 329.987 61.5607C334.262 61.5607 337.698 58.1246 337.698 53.8492ZM337.698 99.9869C337.698 95.7377 334.236 92.2754 329.987 92.2754C325.738 92.2754 322.275 95.7377 322.275 99.9869C322.275 104.236 325.738 107.698 329.987 107.698C334.262 107.725 337.698 104.262 337.698 99.9869ZM337.698 146.151C337.698 141.902 334.236 138.439 329.987 138.439C325.738 138.439 322.275 141.902 322.275 146.151C322.275 150.4 325.738 153.862 329.987 153.862C334.262 153.862 337.698 150.4 337.698 146.151ZM337.698 192.289C337.698 188.039 334.236 184.577 329.987 184.577C325.738 184.577 322.275 188.039 322.275 192.289C322.275 196.538 325.738 200 329.987 200C334.262 200 337.698 196.538 337.698 192.289ZM291.561 7.71148C291.561 3.4623 288.098 0 283.849 0C279.6 0 276.138 3.4623 276.138 7.71148C276.138 11.9607 279.6 15.4229 283.849 15.4229C288.125 15.4229 291.561 11.9869 291.561 7.71148ZM291.561 53.8492C291.561 49.6 288.098 46.1377 283.849 46.1377C279.6 46.1377 276.138 49.6 276.138 53.8492C276.138 58.0984 279.6 61.5607 283.849 61.5607C288.125 61.5607 291.561 58.1246 291.561 53.8492ZM291.561 99.9869C291.561 95.7377 288.098 92.2754 283.849 92.2754C279.6 92.2754 276.138 95.7377 276.138 99.9869C276.138 104.236 279.6 107.698 283.849 107.698C288.125 107.725 291.561 104.262 291.561 99.9869ZM291.561 146.151C291.561 141.902 288.098 138.439 283.849 138.439C279.6 138.439 276.138 141.902 276.138 146.151C276.138 150.4 279.6 153.862 283.849 153.862C288.125 153.862 291.561 150.4 291.561 146.151ZM291.561 192.289C291.561 188.039 288.098 184.577 283.849 184.577C279.6 184.577 276.138 188.039 276.138 192.289C276.138 196.538 279.6 200 283.849 200C288.125 200 291.561 196.538 291.561 192.289ZM245.423 7.71148C245.423 3.4623 241.961 0 237.711 0C233.462 0 230 3.4623 230 7.71148C230 11.9607 233.462 15.4229 237.711 15.4229C241.961 15.4229 245.423 11.9869 245.423 7.71148ZM245.423 53.8492C245.423 49.6 241.961 46.1377 237.711 46.1377C233.462 46.1377 230 49.6 230 53.8492C230 58.0984 233.462 61.5607 237.711 61.5607C241.961 61.5607 245.423 58.1246 245.423 53.8492ZM245.423 99.9869C245.423 95.7377 241.961 92.2754 237.711 92.2754C233.462 92.2754 230 95.7377 230 99.9869C230 104.236 233.462 107.698 237.711 107.698C241.961 107.698 245.423 104.262 245.423 99.9869ZM245.423 146.151C245.423 141.902 241.961 138.439 237.711 138.439C233.462 138.439 230 141.902 230 146.151C230 150.4 233.462 153.862 237.711 153.862C241.961 153.862 245.423 150.4 245.423 146.151ZM245.423 192.289C245.423 188.039 241.961 184.577 237.711 184.577C233.462 184.577 230 188.039 230 192.289C230 196.538 233.462 200 237.711 200C241.961 200 245.423 196.538 245.423 192.289Z" fill="#7488A2"/>
<path d="M652.289 15.4229C648.039 15.4229 644.577 11.9607 644.577 7.71148C644.577 3.4623 648.039 0 652.289 0C656.538 0 660 3.4623 660 7.71148C660 11.9869 656.538 15.4229 652.289 15.4229ZM660 53.8492C660 49.6 656.538 46.1377 652.289 46.1377C648.039 46.1377 644.577 49.6 644.577 53.8492C644.577 58.0984 648.039 61.5607 652.289 61.5607C656.538 61.5607 660 58.1246 660 53.8492ZM660 99.9869C660 95.7377 656.538 92.2754 652.289 92.2754C648.039 92.2754 644.577 95.7377 644.577 99.9869C644.577 104.236 648.039 107.698 652.289 107.698C656.538 107.725 660 104.262 660 99.9869ZM660 146.151C660 141.902 656.538 138.439 652.289 138.439C648.039 138.439 644.577 141.902 644.577 146.151C644.577 150.4 648.039 153.862 652.289 153.862C656.538 153.862 660 150.4 660 146.151ZM660 192.289C660 188.039 656.538 184.577 652.289 184.577C648.039 184.577 644.577 188.039 644.577 192.289C644.577 196.538 648.039 200 652.289 200C656.538 200 660 196.538 660 192.289ZM613.862 7.71148C613.862 3.4623 610.4 0 606.151 0C601.902 0 598.439 3.4623 598.439 7.71148C598.439 11.9607 601.902 15.4229 606.151 15.4229C610.4 15.4229 613.862 11.9869 613.862 7.71148ZM613.862 53.8492C613.862 49.6 610.4 46.1377 606.151 46.1377C601.902 46.1377 598.439 49.6 598.439 53.8492C598.439 58.0984 601.902 61.5607 606.151 61.5607C610.4 61.5607 613.862 58.1246 613.862 53.8492ZM613.862 99.9869C613.862 95.7377 610.4 92.2754 606.151 92.2754C601.902 92.2754 598.439 95.7377 598.439 99.9869C598.439 104.236 601.902 107.698 606.151 107.698C610.4 107.725 613.862 104.262 613.862 99.9869ZM613.862 146.151C613.862 141.902 610.4 138.439 606.151 138.439C601.902 138.439 598.439 141.902 598.439 146.151C598.439 150.4 601.902 153.862 606.151 153.862C610.4 153.862 613.862 150.4 613.862 146.151ZM613.862 192.289C613.862 188.039 610.4 184.577 606.151 184.577C601.902 184.577 598.439 188.039 598.439 192.289C598.439 196.538 601.902 200 606.151 200C610.4 200 613.862 196.538 613.862 192.289ZM567.698 7.71148C567.698 3.4623 564.236 0 559.987 0C555.738 0 552.275 3.4623 552.275 7.71148C552.275 11.9607 555.738 15.4229 559.987 15.4229C564.262 15.4229 567.698 11.9869 567.698 7.71148ZM567.698 53.8492C567.698 49.6 564.236 46.1377 559.987 46.1377C555.738 46.1377 552.275 49.6 552.275 53.8492C552.275 58.0984 555.738 61.5607 559.987 61.5607C564.262 61.5607 567.698 58.1246 567.698 53.8492ZM567.698 99.9869C567.698 95.7377 564.236 92.2754 559.987 92.2754C555.738 92.2754 552.275 95.7377 552.275 99.9869C552.275 104.236 555.738 107.698 559.987 107.698C564.262 107.725 567.698 104.262 567.698 99.9869ZM567.698 146.151C567.698 141.902 564.236 138.439 559.987 138.439C555.738 138.439 552.275 141.902 552.275 146.151C552.275 150.4 555.738 153.862 559.987 153.862C564.262 153.862 567.698 150.4 567.698 146.151ZM567.698 192.289C567.698 188.039 564.236 184.577 559.987 184.577C555.738 184.577 552.275 188.039 552.275 192.289C552.275 196.538 555.738 200 559.987 200C564.262 200 567.698 196.538 567.698 192.289ZM521.561 7.71148C521.561 3.4623 518.098 0 513.849 0C509.6 0 506.138 3.4623 506.138 7.71148C506.138 11.9607 509.6 15.4229 513.849 15.4229C518.125 15.4229 521.561 11.9869 521.561 7.71148ZM521.561 53.8492C521.561 49.6 518.098 46.1377 513.849 46.1377C509.6 46.1377 506.138 49.6 506.138 53.8492C506.138 58.0984 509.6 61.5607 513.849 61.5607C518.125 61.5607 521.561 58.1246 521.561 53.8492ZM521.561 99.9869C521.561 95.7377 518.098 92.2754 513.849 92.2754C509.6 92.2754 506.138 95.7377 506.138 99.9869C506.138 104.236 509.6 107.698 513.849 107.698C518.125 107.725 521.561 104.262 521.561 99.9869ZM521.561 146.151C521.561 141.902 518.098 138.439 513.849 138.439C509.6 138.439 506.138 141.902 506.138 146.151C506.138 150.4 509.6 153.862 513.849 153.862C518.125 153.862 521.561 150.4 521.561 146.151ZM521.561 192.289C521.561 188.039 518.098 184.577 513.849 184.577C509.6 184.577 506.138 188.039 506.138 192.289C506.138 196.538 509.6 200 513.849 200C518.125 200 521.561 196.538 521.561 192.289ZM475.423 7.71148C475.423 3.4623 471.961 0 467.711 0C463.462 0 460 3.4623 460 7.71148C460 11.9607 463.462 15.4229 467.711 15.4229C471.961 15.4229 475.423 11.9869 475.423 7.71148ZM475.423 53.8492C475.423 49.6 471.961 46.1377 467.711 46.1377C463.462 46.1377 460 49.6 460 53.8492C460 58.0984 463.462 61.5607 467.711 61.5607C471.961 61.5607 475.423 58.1246 475.423 53.8492ZM475.423 99.9869C475.423 95.7377 471.961 92.2754 467.711 92.2754C463.462 92.2754 460 95.7377 460 99.9869C460 104.236 463.462 107.698 467.711 107.698C471.961 107.698 475.423 104.262 475.423 99.9869ZM475.423 146.151C475.423 141.902 471.961 138.439 467.711 138.439C463.462 138.439 460 141.902 460 146.151C460 150.4 463.462 153.862 467.711 153.862C471.961 153.862 475.423 150.4 475.423 146.151ZM475.423 192.289C475.423 188.039 471.961 184.577 467.711 184.577C463.462 184.577 460 188.039 460 192.289C460 196.538 463.462 200 467.711 200C471.961 200 475.423 196.538 475.423 192.289Z" fill="#7488A2"/>
</g>
</svg>
