<svg width="275" height="120" viewBox="0 0 275 120" fill="none" xmlns="http://www.w3.org/2000/svg">
<g opacity="0.5">
<path d="M115.373 9.25377C112.824 9.25377 110.746 7.1764 110.746 4.62689C110.746 2.07738 112.824 0 115.373 0C117.923 0 120 2.07738 120 4.62689C120 7.19214 117.923 9.25377 115.373 9.25377ZM120 32.3095C120 29.76 117.923 27.6826 115.373 27.6826C112.824 27.6826 110.746 29.76 110.746 32.3095C110.746 34.859 112.824 36.9364 115.373 36.9364C117.923 36.9364 120 34.8748 120 32.3095ZM120 59.9921C120 57.4426 117.923 55.3652 115.373 55.3652C112.824 55.3652 110.746 57.4426 110.746 59.9921C110.746 62.5416 112.824 64.619 115.373 64.619C117.923 64.6348 120 62.5574 120 59.9921ZM120 87.6905C120 85.141 117.923 83.0636 115.373 83.0636C112.824 83.0636 110.746 85.141 110.746 87.6905C110.746 90.24 112.824 92.3174 115.373 92.3174C117.923 92.3174 120 90.24 120 87.6905ZM120 115.373C120 112.824 117.923 110.746 115.373 110.746C112.824 110.746 110.746 112.824 110.746 115.373C110.746 117.923 112.824 120 115.373 120C117.923 120 120 117.923 120 115.373ZM92.3173 4.62689C92.3173 2.07738 90.24 0 87.6904 0C85.1409 0 83.0636 2.07738 83.0636 4.62689C83.0636 7.1764 85.1409 9.25377 87.6904 9.25377C90.24 9.25377 92.3173 7.19214 92.3173 4.62689ZM92.3173 32.3095C92.3173 29.76 90.24 27.6826 87.6904 27.6826C85.1409 27.6826 83.0636 29.76 83.0636 32.3095C83.0636 34.859 85.1409 36.9364 87.6904 36.9364C90.24 36.9364 92.3173 34.8748 92.3173 32.3095ZM92.3173 59.9921C92.3173 57.4426 90.24 55.3652 87.6904 55.3652C85.1409 55.3652 83.0636 57.4426 83.0636 59.9921C83.0636 62.5416 85.1409 64.619 87.6904 64.619C90.24 64.6348 92.3173 62.5574 92.3173 59.9921ZM92.3173 87.6905C92.3173 85.141 90.24 83.0636 87.6904 83.0636C85.1409 83.0636 83.0636 85.141 83.0636 87.6905C83.0636 90.24 85.1409 92.3174 87.6904 92.3174C90.24 92.3174 92.3173 90.24 92.3173 87.6905ZM92.3173 115.373C92.3173 112.824 90.24 110.746 87.6904 110.746C85.1409 110.746 83.0636 112.824 83.0636 115.373C83.0636 117.923 85.1409 120 87.6904 120C90.24 120 92.3173 117.923 92.3173 115.373ZM64.619 4.62689C64.619 2.07738 62.5416 0 59.9921 0C57.4426 0 55.3652 2.07738 55.3652 4.62689C55.3652 7.1764 57.4426 9.25377 59.9921 9.25377C62.5574 9.25377 64.619 7.19214 64.619 4.62689ZM64.619 32.3095C64.619 29.76 62.5416 27.6826 59.9921 27.6826C57.4426 27.6826 55.3652 29.76 55.3652 32.3095C55.3652 34.859 57.4426 36.9364 59.9921 36.9364C62.5574 36.9364 64.619 34.8748 64.619 32.3095ZM64.619 59.9921C64.619 57.4426 62.5416 55.3652 59.9921 55.3652C57.4426 55.3652 55.3652 57.4426 55.3652 59.9921C55.3652 62.5416 57.4426 64.619 59.9921 64.619C62.5574 64.6348 64.619 62.5574 64.619 59.9921ZM64.619 87.6905C64.619 85.141 62.5416 83.0636 59.9921 83.0636C57.4426 83.0636 55.3652 85.141 55.3652 87.6905C55.3652 90.24 57.4426 92.3174 59.9921 92.3174C62.5574 92.3174 64.619 90.24 64.619 87.6905ZM64.619 115.373C64.619 112.824 62.5416 110.746 59.9921 110.746C57.4426 110.746 55.3652 112.824 55.3652 115.373C55.3652 117.923 57.4426 120 59.9921 120C62.5574 120 64.619 117.923 64.619 115.373ZM36.9363 4.62689C36.9363 2.07738 34.859 0 32.3095 0C29.76 0 27.6827 2.07738 27.6827 4.62689C27.6827 7.1764 29.76 9.25377 32.3095 9.25377C34.8747 9.25377 36.9363 7.19214 36.9363 4.62689ZM36.9363 32.3095C36.9363 29.76 34.859 27.6826 32.3095 27.6826C29.76 27.6826 27.6827 29.76 27.6827 32.3095C27.6827 34.859 29.76 36.9364 32.3095 36.9364C34.8747 36.9364 36.9363 34.8748 36.9363 32.3095ZM36.9363 59.9921C36.9363 57.4426 34.859 55.3652 32.3095 55.3652C29.76 55.3652 27.6827 57.4426 27.6827 59.9921C27.6827 62.5416 29.76 64.619 32.3095 64.619C34.8747 64.6348 36.9363 62.5574 36.9363 59.9921ZM36.9363 87.6905C36.9363 85.141 34.859 83.0636 32.3095 83.0636C29.76 83.0636 27.6827 85.141 27.6827 87.6905C27.6827 90.24 29.76 92.3174 32.3095 92.3174C34.8747 92.3174 36.9363 90.24 36.9363 87.6905ZM36.9363 115.373C36.9363 112.824 34.859 110.746 32.3095 110.746C29.76 110.746 27.6827 112.824 27.6827 115.373C27.6827 117.923 29.76 120 32.3095 120C34.8747 120 36.9363 117.923 36.9363 115.373ZM9.25378 4.62689C9.25378 2.07738 7.1764 0 4.62689 0C2.07738 0 0 2.07738 0 4.62689C0 7.1764 2.07738 9.25377 4.62689 9.25377C7.1764 9.25377 9.25378 7.19214 9.25378 4.62689ZM9.25378 32.3095C9.25378 29.76 7.1764 27.6826 4.62689 27.6826C2.07738 27.6826 0 29.76 0 32.3095C0 34.859 2.07738 36.9364 4.62689 36.9364C7.1764 36.9364 9.25378 34.8748 9.25378 32.3095ZM9.25378 59.9921C9.25378 57.4426 7.1764 55.3652 4.62689 55.3652C2.07738 55.3652 0 57.4426 0 59.9921C0 62.5416 2.07738 64.619 4.62689 64.619C7.1764 64.619 9.25378 62.5574 9.25378 59.9921ZM9.25378 87.6905C9.25378 85.141 7.1764 83.0636 4.62689 83.0636C2.07738 83.0636 0 85.141 0 87.6905C0 90.24 2.07738 92.3174 4.62689 92.3174C7.1764 92.3174 9.25378 90.24 9.25378 87.6905ZM9.25378 115.373C9.25378 112.824 7.1764 110.746 4.62689 110.746C2.07738 110.746 0 112.824 0 115.373C0 117.923 2.07738 120 4.62689 120C7.1764 120 9.25378 117.923 9.25378 115.373Z" fill="#7488A2"/>
<path d="M255.373 9.25377C252.824 9.25377 250.746 7.1764 250.746 4.62689C250.746 2.07738 252.824 0 255.373 0C257.923 0 260 2.07738 260 4.62689C260 7.19214 257.923 9.25377 255.373 9.25377ZM260 32.3095C260 29.76 257.923 27.6826 255.373 27.6826C252.824 27.6826 250.746 29.76 250.746 32.3095C250.746 34.859 252.824 36.9364 255.373 36.9364C257.923 36.9364 260 34.8748 260 32.3095ZM260 59.9921C260 57.4426 257.923 55.3652 255.373 55.3652C252.824 55.3652 250.746 57.4426 250.746 59.9921C250.746 62.5416 252.824 64.619 255.373 64.619C257.923 64.6348 260 62.5574 260 59.9921ZM260 87.6905C260 85.141 257.923 83.0636 255.373 83.0636C252.824 83.0636 250.746 85.141 250.746 87.6905C250.746 90.24 252.824 92.3174 255.373 92.3174C257.923 92.3174 260 90.24 260 87.6905ZM260 115.373C260 112.824 257.923 110.746 255.373 110.746C252.824 110.746 250.746 112.824 250.746 115.373C250.746 117.923 252.824 120 255.373 120C257.923 120 260 117.923 260 115.373ZM232.317 4.62689C232.317 2.07738 230.24 0 227.69 0C225.141 0 223.064 2.07738 223.064 4.62689C223.064 7.1764 225.141 9.25377 227.69 9.25377C230.24 9.25377 232.317 7.19214 232.317 4.62689ZM232.317 32.3095C232.317 29.76 230.24 27.6826 227.69 27.6826C225.141 27.6826 223.064 29.76 223.064 32.3095C223.064 34.859 225.141 36.9364 227.69 36.9364C230.24 36.9364 232.317 34.8748 232.317 32.3095ZM232.317 59.9921C232.317 57.4426 230.24 55.3652 227.69 55.3652C225.141 55.3652 223.064 57.4426 223.064 59.9921C223.064 62.5416 225.141 64.619 227.69 64.619C230.24 64.6348 232.317 62.5574 232.317 59.9921ZM232.317 87.6905C232.317 85.141 230.24 83.0636 227.69 83.0636C225.141 83.0636 223.064 85.141 223.064 87.6905C223.064 90.24 225.141 92.3174 227.69 92.3174C230.24 92.3174 232.317 90.24 232.317 87.6905ZM232.317 115.373C232.317 112.824 230.24 110.746 227.69 110.746C225.141 110.746 223.064 112.824 223.064 115.373C223.064 117.923 225.141 120 227.69 120C230.24 120 232.317 117.923 232.317 115.373ZM204.619 4.62689C204.619 2.07738 202.542 0 199.992 0C197.443 0 195.365 2.07738 195.365 4.62689C195.365 7.1764 197.443 9.25377 199.992 9.25377C202.557 9.25377 204.619 7.19214 204.619 4.62689ZM204.619 32.3095C204.619 29.76 202.542 27.6826 199.992 27.6826C197.443 27.6826 195.365 29.76 195.365 32.3095C195.365 34.859 197.443 36.9364 199.992 36.9364C202.557 36.9364 204.619 34.8748 204.619 32.3095ZM204.619 59.9921C204.619 57.4426 202.542 55.3652 199.992 55.3652C197.443 55.3652 195.365 57.4426 195.365 59.9921C195.365 62.5416 197.443 64.619 199.992 64.619C202.557 64.6348 204.619 62.5574 204.619 59.9921ZM204.619 87.6905C204.619 85.141 202.542 83.0636 199.992 83.0636C197.443 83.0636 195.365 85.141 195.365 87.6905C195.365 90.24 197.443 92.3174 199.992 92.3174C202.557 92.3174 204.619 90.24 204.619 87.6905ZM204.619 115.373C204.619 112.824 202.542 110.746 199.992 110.746C197.443 110.746 195.365 112.824 195.365 115.373C195.365 117.923 197.443 120 199.992 120C202.557 120 204.619 117.923 204.619 115.373ZM176.936 4.62689C176.936 2.07738 174.859 0 172.309 0C169.76 0 167.683 2.07738 167.683 4.62689C167.683 7.1764 169.76 9.25377 172.309 9.25377C174.875 9.25377 176.936 7.19214 176.936 4.62689ZM176.936 32.3095C176.936 29.76 174.859 27.6826 172.309 27.6826C169.76 27.6826 167.683 29.76 167.683 32.3095C167.683 34.859 169.76 36.9364 172.309 36.9364C174.875 36.9364 176.936 34.8748 176.936 32.3095ZM176.936 59.9921C176.936 57.4426 174.859 55.3652 172.309 55.3652C169.76 55.3652 167.683 57.4426 167.683 59.9921C167.683 62.5416 169.76 64.619 172.309 64.619C174.875 64.6348 176.936 62.5574 176.936 59.9921ZM176.936 87.6905C176.936 85.141 174.859 83.0636 172.309 83.0636C169.76 83.0636 167.683 85.141 167.683 87.6905C167.683 90.24 169.76 92.3174 172.309 92.3174C174.875 92.3174 176.936 90.24 176.936 87.6905ZM176.936 115.373C176.936 112.824 174.859 110.746 172.309 110.746C169.76 110.746 167.683 112.824 167.683 115.373C167.683 117.923 169.76 120 172.309 120C174.875 120 176.936 117.923 176.936 115.373ZM149.254 4.62689C149.254 2.07738 147.176 0 144.627 0C142.077 0 140 2.07738 140 4.62689C140 7.1764 142.077 9.25377 144.627 9.25377C147.176 9.25377 149.254 7.19214 149.254 4.62689ZM149.254 32.3095C149.254 29.76 147.176 27.6826 144.627 27.6826C142.077 27.6826 140 29.76 140 32.3095C140 34.859 142.077 36.9364 144.627 36.9364C147.176 36.9364 149.254 34.8748 149.254 32.3095ZM149.254 59.9921C149.254 57.4426 147.176 55.3652 144.627 55.3652C142.077 55.3652 140 57.4426 140 59.9921C140 62.5416 142.077 64.619 144.627 64.619C147.176 64.619 149.254 62.5574 149.254 59.9921ZM149.254 87.6905C149.254 85.141 147.176 83.0636 144.627 83.0636C142.077 83.0636 140 85.141 140 87.6905C140 90.24 142.077 92.3174 144.627 92.3174C147.176 92.3174 149.254 90.24 149.254 87.6905ZM149.254 115.373C149.254 112.824 147.176 110.746 144.627 110.746C142.077 110.746 140 112.824 140 115.373C140 117.923 142.077 120 144.627 120C147.176 120 149.254 117.923 149.254 115.373Z" fill="#7488A2"/>
</g>
</svg>
