<svg width="90" height="240" viewBox="0 0 90 240" fill="none" xmlns="http://www.w3.org/2000/svg">
<path d="M115.373 -10.7462C112.824 -10.7462 110.746 -12.8236 110.746 -15.3731C110.746 -17.9226 112.824 -20 115.373 -20C117.923 -20 120 -17.9226 120 -15.3731C120 -12.8079 117.923 -10.7462 115.373 -10.7462ZM120 12.3095C120 9.76 117.923 7.68263 115.373 7.68263C112.824 7.68263 110.746 9.76 110.746 12.3095C110.746 14.859 112.824 16.9364 115.373 16.9364C117.923 16.9364 120 14.8748 120 12.3095ZM120 39.9921C120 37.4426 117.923 35.3652 115.373 35.3652C112.824 35.3652 110.746 37.4426 110.746 39.9921C110.746 42.5416 112.824 44.619 115.373 44.619C117.923 44.6348 120 42.5574 120 39.9921ZM120 67.6905C120 65.141 117.923 63.0636 115.373 63.0636C112.824 63.0636 110.746 65.141 110.746 67.6905C110.746 70.24 112.824 72.3174 115.373 72.3174C117.923 72.3174 120 70.24 120 67.6905ZM120 95.3731C120 92.8236 117.923 90.7462 115.373 90.7462C112.824 90.7462 110.746 92.8236 110.746 95.3731C110.746 97.9226 112.824 100 115.373 100C117.923 100 120 97.9226 120 95.3731ZM92.3173 -15.3731C92.3173 -17.9226 90.24 -20 87.6904 -20C85.1409 -20 83.0636 -17.9226 83.0636 -15.3731C83.0636 -12.8236 85.1409 -10.7462 87.6904 -10.7462C90.24 -10.7462 92.3173 -12.8079 92.3173 -15.3731ZM92.3173 12.3095C92.3173 9.76 90.24 7.68263 87.6904 7.68263C85.1409 7.68263 83.0636 9.76 83.0636 12.3095C83.0636 14.859 85.1409 16.9364 87.6904 16.9364C90.24 16.9364 92.3173 14.8748 92.3173 12.3095ZM92.3173 39.9921C92.3173 37.4426 90.24 35.3652 87.6904 35.3652C85.1409 35.3652 83.0636 37.4426 83.0636 39.9921C83.0636 42.5416 85.1409 44.619 87.6904 44.619C90.24 44.6348 92.3173 42.5574 92.3173 39.9921ZM92.3173 67.6905C92.3173 65.141 90.24 63.0636 87.6904 63.0636C85.1409 63.0636 83.0636 65.141 83.0636 67.6905C83.0636 70.24 85.1409 72.3174 87.6904 72.3174C90.24 72.3174 92.3173 70.24 92.3173 67.6905ZM92.3173 95.3731C92.3173 92.8236 90.24 90.7462 87.6904 90.7462C85.1409 90.7462 83.0636 92.8236 83.0636 95.3731C83.0636 97.9226 85.1409 100 87.6904 100C90.24 100 92.3173 97.9226 92.3173 95.3731ZM64.619 -15.3731C64.619 -17.9226 62.5416 -20 59.9921 -20C57.4426 -20 55.3652 -17.9226 55.3652 -15.3731C55.3652 -12.8236 57.4426 -10.7462 59.9921 -10.7462C62.5574 -10.7462 64.619 -12.8079 64.619 -15.3731ZM64.619 12.3095C64.619 9.76 62.5416 7.68263 59.9921 7.68263C57.4426 7.68263 55.3652 9.76 55.3652 12.3095C55.3652 14.859 57.4426 16.9364 59.9921 16.9364C62.5574 16.9364 64.619 14.8748 64.619 12.3095ZM64.619 39.9921C64.619 37.4426 62.5416 35.3652 59.9921 35.3652C57.4426 35.3652 55.3652 37.4426 55.3652 39.9921C55.3652 42.5416 57.4426 44.619 59.9921 44.619C62.5574 44.6348 64.619 42.5574 64.619 39.9921ZM64.619 67.6905C64.619 65.141 62.5416 63.0636 59.9921 63.0636C57.4426 63.0636 55.3652 65.141 55.3652 67.6905C55.3652 70.24 57.4426 72.3174 59.9921 72.3174C62.5574 72.3174 64.619 70.24 64.619 67.6905ZM64.619 95.3731C64.619 92.8236 62.5416 90.7462 59.9921 90.7462C57.4426 90.7462 55.3652 92.8236 55.3652 95.3731C55.3652 97.9226 57.4426 100 59.9921 100C62.5574 100 64.619 97.9226 64.619 95.3731ZM36.9363 -15.3731C36.9363 -17.9226 34.859 -20 32.3095 -20C29.76 -20 27.6827 -17.9226 27.6827 -15.3731C27.6827 -12.8236 29.76 -10.7462 32.3095 -10.7462C34.8747 -10.7462 36.9363 -12.8079 36.9363 -15.3731ZM36.9363 12.3095C36.9363 9.76 34.859 7.68263 32.3095 7.68263C29.76 7.68263 27.6827 9.76 27.6827 12.3095C27.6827 14.859 29.76 16.9364 32.3095 16.9364C34.8747 16.9364 36.9363 14.8748 36.9363 12.3095ZM36.9363 39.9921C36.9363 37.4426 34.859 35.3652 32.3095 35.3652C29.76 35.3652 27.6827 37.4426 27.6827 39.9921C27.6827 42.5416 29.76 44.619 32.3095 44.619C34.8747 44.6348 36.9363 42.5574 36.9363 39.9921ZM36.9363 67.6905C36.9363 65.141 34.859 63.0636 32.3095 63.0636C29.76 63.0636 27.6827 65.141 27.6827 67.6905C27.6827 70.24 29.76 72.3174 32.3095 72.3174C34.8747 72.3174 36.9363 70.24 36.9363 67.6905ZM36.9363 95.3731C36.9363 92.8236 34.859 90.7462 32.3095 90.7462C29.76 90.7462 27.6827 92.8236 27.6827 95.3731C27.6827 97.9226 29.76 100 32.3095 100C34.8747 100 36.9363 97.9226 36.9363 95.3731ZM9.25378 -15.3731C9.25378 -17.9226 7.1764 -20 4.62689 -20C2.07738 -20 0 -17.9226 0 -15.3731C0 -12.8236 2.07738 -10.7462 4.62689 -10.7462C7.1764 -10.7462 9.25378 -12.8079 9.25378 -15.3731ZM9.25378 12.3095C9.25378 9.76 7.1764 7.68263 4.62689 7.68263C2.07738 7.68263 0 9.76 0 12.3095C0 14.859 2.07738 16.9364 4.62689 16.9364C7.1764 16.9364 9.25378 14.8748 9.25378 12.3095ZM9.25378 39.9921C9.25378 37.4426 7.1764 35.3652 4.62689 35.3652C2.07738 35.3652 0 37.4426 0 39.9921C0 42.5416 2.07738 44.619 4.62689 44.619C7.1764 44.619 9.25378 42.5574 9.25378 39.9921ZM9.25378 67.6905C9.25378 65.141 7.1764 63.0636 4.62689 63.0636C2.07738 63.0636 0 65.141 0 67.6905C0 70.24 2.07738 72.3174 4.62689 72.3174C7.1764 72.3174 9.25378 70.24 9.25378 67.6905ZM9.25378 95.3731C9.25378 92.8236 7.1764 90.7462 4.62689 90.7462C2.07738 90.7462 0 92.8236 0 95.3731C0 97.9226 2.07738 100 4.62689 100C7.1764 100 9.25378 97.9226 9.25378 95.3731Z" fill="#7F9E2F"/>
<path d="M115.373 129.254C112.824 129.254 110.746 127.176 110.746 124.627C110.746 122.077 112.824 120 115.373 120C117.923 120 120 122.077 120 124.627C120 127.192 117.923 129.254 115.373 129.254ZM120 152.31C120 149.76 117.923 147.683 115.373 147.683C112.824 147.683 110.746 149.76 110.746 152.31C110.746 154.859 112.824 156.936 115.373 156.936C117.923 156.936 120 154.875 120 152.31ZM120 179.992C120 177.443 117.923 175.365 115.373 175.365C112.824 175.365 110.746 177.443 110.746 179.992C110.746 182.542 112.824 184.619 115.373 184.619C117.923 184.635 120 182.557 120 179.992ZM120 207.69C120 205.141 117.923 203.064 115.373 203.064C112.824 203.064 110.746 205.141 110.746 207.69C110.746 210.24 112.824 212.317 115.373 212.317C117.923 212.317 120 210.24 120 207.69ZM120 235.373C120 232.824 117.923 230.746 115.373 230.746C112.824 230.746 110.746 232.824 110.746 235.373C110.746 237.923 112.824 240 115.373 240C117.923 240 120 237.923 120 235.373ZM92.3173 124.627C92.3173 122.077 90.24 120 87.6904 120C85.1409 120 83.0636 122.077 83.0636 124.627C83.0636 127.176 85.1409 129.254 87.6904 129.254C90.24 129.254 92.3173 127.192 92.3173 124.627ZM92.3173 152.31C92.3173 149.76 90.24 147.683 87.6904 147.683C85.1409 147.683 83.0636 149.76 83.0636 152.31C83.0636 154.859 85.1409 156.936 87.6904 156.936C90.24 156.936 92.3173 154.875 92.3173 152.31ZM92.3173 179.992C92.3173 177.443 90.24 175.365 87.6904 175.365C85.1409 175.365 83.0636 177.443 83.0636 179.992C83.0636 182.542 85.1409 184.619 87.6904 184.619C90.24 184.635 92.3173 182.557 92.3173 179.992ZM92.3173 207.69C92.3173 205.141 90.24 203.064 87.6904 203.064C85.1409 203.064 83.0636 205.141 83.0636 207.69C83.0636 210.24 85.1409 212.317 87.6904 212.317C90.24 212.317 92.3173 210.24 92.3173 207.69ZM92.3173 235.373C92.3173 232.824 90.24 230.746 87.6904 230.746C85.1409 230.746 83.0636 232.824 83.0636 235.373C83.0636 237.923 85.1409 240 87.6904 240C90.24 240 92.3173 237.923 92.3173 235.373ZM64.619 124.627C64.619 122.077 62.5416 120 59.9921 120C57.4426 120 55.3652 122.077 55.3652 124.627C55.3652 127.176 57.4426 129.254 59.9921 129.254C62.5574 129.254 64.619 127.192 64.619 124.627ZM64.619 152.31C64.619 149.76 62.5416 147.683 59.9921 147.683C57.4426 147.683 55.3652 149.76 55.3652 152.31C55.3652 154.859 57.4426 156.936 59.9921 156.936C62.5574 156.936 64.619 154.875 64.619 152.31ZM64.619 179.992C64.619 177.443 62.5416 175.365 59.9921 175.365C57.4426 175.365 55.3652 177.443 55.3652 179.992C55.3652 182.542 57.4426 184.619 59.9921 184.619C62.5574 184.635 64.619 182.557 64.619 179.992ZM64.619 207.69C64.619 205.141 62.5416 203.064 59.9921 203.064C57.4426 203.064 55.3652 205.141 55.3652 207.69C55.3652 210.24 57.4426 212.317 59.9921 212.317C62.5574 212.317 64.619 210.24 64.619 207.69ZM64.619 235.373C64.619 232.824 62.5416 230.746 59.9921 230.746C57.4426 230.746 55.3652 232.824 55.3652 235.373C55.3652 237.923 57.4426 240 59.9921 240C62.5574 240 64.619 237.923 64.619 235.373ZM36.9363 124.627C36.9363 122.077 34.859 120 32.3095 120C29.76 120 27.6827 122.077 27.6827 124.627C27.6827 127.176 29.76 129.254 32.3095 129.254C34.8747 129.254 36.9363 127.192 36.9363 124.627ZM36.9363 152.31C36.9363 149.76 34.859 147.683 32.3095 147.683C29.76 147.683 27.6827 149.76 27.6827 152.31C27.6827 154.859 29.76 156.936 32.3095 156.936C34.8747 156.936 36.9363 154.875 36.9363 152.31ZM36.9363 179.992C36.9363 177.443 34.859 175.365 32.3095 175.365C29.76 175.365 27.6827 177.443 27.6827 179.992C27.6827 182.542 29.76 184.619 32.3095 184.619C34.8747 184.635 36.9363 182.557 36.9363 179.992ZM36.9363 207.69C36.9363 205.141 34.859 203.064 32.3095 203.064C29.76 203.064 27.6827 205.141 27.6827 207.69C27.6827 210.24 29.76 212.317 32.3095 212.317C34.8747 212.317 36.9363 210.24 36.9363 207.69ZM36.9363 235.373C36.9363 232.824 34.859 230.746 32.3095 230.746C29.76 230.746 27.6827 232.824 27.6827 235.373C27.6827 237.923 29.76 240 32.3095 240C34.8747 240 36.9363 237.923 36.9363 235.373ZM9.25378 124.627C9.25378 122.077 7.1764 120 4.62689 120C2.07738 120 0 122.077 0 124.627C0 127.176 2.07738 129.254 4.62689 129.254C7.1764 129.254 9.25378 127.192 9.25378 124.627ZM9.25378 152.31C9.25378 149.76 7.1764 147.683 4.62689 147.683C2.07738 147.683 0 149.76 0 152.31C0 154.859 2.07738 156.936 4.62689 156.936C7.1764 156.936 9.25378 154.875 9.25378 152.31ZM9.25378 179.992C9.25378 177.443 7.1764 175.365 4.62689 175.365C2.07738 175.365 0 177.443 0 179.992C0 182.542 2.07738 184.619 4.62689 184.619C7.1764 184.619 9.25378 182.557 9.25378 179.992ZM9.25378 207.69C9.25378 205.141 7.1764 203.064 4.62689 203.064C2.07738 203.064 0 205.141 0 207.69C0 210.24 2.07738 212.317 4.62689 212.317C7.1764 212.317 9.25378 210.24 9.25378 207.69ZM9.25378 235.373C9.25378 232.824 7.1764 230.746 4.62689 230.746C2.07738 230.746 0 232.824 0 235.373C0 237.923 2.07738 240 4.62689 240C7.1764 240 9.25378 237.923 9.25378 235.373Z" fill="#7F9E2F"/>
</svg>
