<svg width="845" height="430" viewBox="0 0 845 430" fill="none" xmlns="http://www.w3.org/2000/svg">
<path d="M192.289 15.4229C188.039 15.4229 184.577 11.9607 184.577 7.71148C184.577 3.4623 188.039 0 192.289 0C196.538 0 200 3.4623 200 7.71148C200 11.9869 196.538 15.4229 192.289 15.4229ZM200 53.8492C200 49.6 196.538 46.1377 192.289 46.1377C188.039 46.1377 184.577 49.6 184.577 53.8492C184.577 58.0984 188.039 61.5607 192.289 61.5607C196.538 61.5607 200 58.1246 200 53.8492ZM200 99.9869C200 95.7377 196.538 92.2754 192.289 92.2754C188.039 92.2754 184.577 95.7377 184.577 99.9869C184.577 104.236 188.039 107.698 192.289 107.698C196.538 107.725 200 104.262 200 99.9869ZM200 146.151C200 141.902 196.538 138.439 192.289 138.439C188.039 138.439 184.577 141.902 184.577 146.151C184.577 150.4 188.039 153.862 192.289 153.862C196.538 153.862 200 150.4 200 146.151ZM200 192.289C200 188.039 196.538 184.577 192.289 184.577C188.039 184.577 184.577 188.039 184.577 192.289C184.577 196.538 188.039 200 192.289 200C196.538 200 200 196.538 200 192.289ZM153.862 7.71148C153.862 3.4623 150.4 0 146.151 0C141.902 0 138.439 3.4623 138.439 7.71148C138.439 11.9607 141.902 15.4229 146.151 15.4229C150.4 15.4229 153.862 11.9869 153.862 7.71148ZM153.862 53.8492C153.862 49.6 150.4 46.1377 146.151 46.1377C141.902 46.1377 138.439 49.6 138.439 53.8492C138.439 58.0984 141.902 61.5607 146.151 61.5607C150.4 61.5607 153.862 58.1246 153.862 53.8492ZM153.862 99.9869C153.862 95.7377 150.4 92.2754 146.151 92.2754C141.902 92.2754 138.439 95.7377 138.439 99.9869C138.439 104.236 141.902 107.698 146.151 107.698C150.4 107.725 153.862 104.262 153.862 99.9869ZM153.862 146.151C153.862 141.902 150.4 138.439 146.151 138.439C141.902 138.439 138.439 141.902 138.439 146.151C138.439 150.4 141.902 153.862 146.151 153.862C150.4 153.862 153.862 150.4 153.862 146.151ZM153.862 192.289C153.862 188.039 150.4 184.577 146.151 184.577C141.902 184.577 138.439 188.039 138.439 192.289C138.439 196.538 141.902 200 146.151 200C150.4 200 153.862 196.538 153.862 192.289ZM107.698 7.71148C107.698 3.4623 104.236 0 99.9869 0C95.7377 0 92.2754 3.4623 92.2754 7.71148C92.2754 11.9607 95.7377 15.4229 99.9869 15.4229C104.262 15.4229 107.698 11.9869 107.698 7.71148ZM107.698 53.8492C107.698 49.6 104.236 46.1377 99.9869 46.1377C95.7377 46.1377 92.2754 49.6 92.2754 53.8492C92.2754 58.0984 95.7377 61.5607 99.9869 61.5607C104.262 61.5607 107.698 58.1246 107.698 53.8492ZM107.698 99.9869C107.698 95.7377 104.236 92.2754 99.9869 92.2754C95.7377 92.2754 92.2754 95.7377 92.2754 99.9869C92.2754 104.236 95.7377 107.698 99.9869 107.698C104.262 107.725 107.698 104.262 107.698 99.9869ZM107.698 146.151C107.698 141.902 104.236 138.439 99.9869 138.439C95.7377 138.439 92.2754 141.902 92.2754 146.151C92.2754 150.4 95.7377 153.862 99.9869 153.862C104.262 153.862 107.698 150.4 107.698 146.151ZM107.698 192.289C107.698 188.039 104.236 184.577 99.9869 184.577C95.7377 184.577 92.2754 188.039 92.2754 192.289C92.2754 196.538 95.7377 200 99.9869 200C104.262 200 107.698 196.538 107.698 192.289ZM61.5606 7.71148C61.5606 3.4623 58.0983 0 53.8491 0C49.5999 0 46.1378 3.4623 46.1378 7.71148C46.1378 11.9607 49.5999 15.4229 53.8491 15.4229C58.1245 15.4229 61.5606 11.9869 61.5606 7.71148ZM61.5606 53.8492C61.5606 49.6 58.0983 46.1377 53.8491 46.1377C49.5999 46.1377 46.1378 49.6 46.1378 53.8492C46.1378 58.0984 49.5999 61.5607 53.8491 61.5607C58.1245 61.5607 61.5606 58.1246 61.5606 53.8492ZM61.5606 99.9869C61.5606 95.7377 58.0983 92.2754 53.8491 92.2754C49.5999 92.2754 46.1378 95.7377 46.1378 99.9869C46.1378 104.236 49.5999 107.698 53.8491 107.698C58.1245 107.725 61.5606 104.262 61.5606 99.9869ZM61.5606 146.151C61.5606 141.902 58.0983 138.439 53.8491 138.439C49.5999 138.439 46.1378 141.902 46.1378 146.151C46.1378 150.4 49.5999 153.862 53.8491 153.862C58.1245 153.862 61.5606 150.4 61.5606 146.151ZM61.5606 192.289C61.5606 188.039 58.0983 184.577 53.8491 184.577C49.5999 184.577 46.1378 188.039 46.1378 192.289C46.1378 196.538 49.5999 200 53.8491 200C58.1245 200 61.5606 196.538 61.5606 192.289ZM15.423 7.71148C15.423 3.4623 11.9607 0 7.71148 0C3.4623 0 0 3.4623 0 7.71148C0 11.9607 3.4623 15.4229 7.71148 15.4229C11.9607 15.4229 15.423 11.9869 15.423 7.71148ZM15.423 53.8492C15.423 49.6 11.9607 46.1377 7.71148 46.1377C3.4623 46.1377 0 49.6 0 53.8492C0 58.0984 3.4623 61.5607 7.71148 61.5607C11.9607 61.5607 15.423 58.1246 15.423 53.8492ZM15.423 99.9869C15.423 95.7377 11.9607 92.2754 7.71148 92.2754C3.4623 92.2754 0 95.7377 0 99.9869C0 104.236 3.4623 107.698 7.71148 107.698C11.9607 107.698 15.423 104.262 15.423 99.9869ZM15.423 146.151C15.423 141.902 11.9607 138.439 7.71148 138.439C3.4623 138.439 0 141.902 0 146.151C0 150.4 3.4623 153.862 7.71148 153.862C11.9607 153.862 15.423 150.4 15.423 146.151ZM15.423 192.289C15.423 188.039 11.9607 184.577 7.71148 184.577C3.4623 184.577 0 188.039 0 192.289C0 196.538 3.4623 200 7.71148 200C11.9607 200 15.423 196.538 15.423 192.289Z" fill="#ECF4D8"/>
<path d="M422.289 15.4229C418.039 15.4229 414.577 11.9607 414.577 7.71148C414.577 3.4623 418.039 0 422.289 0C426.538 0 430 3.4623 430 7.71148C430 11.9869 426.538 15.4229 422.289 15.4229ZM430 53.8492C430 49.6 426.538 46.1377 422.289 46.1377C418.039 46.1377 414.577 49.6 414.577 53.8492C414.577 58.0984 418.039 61.5607 422.289 61.5607C426.538 61.5607 430 58.1246 430 53.8492ZM430 99.9869C430 95.7377 426.538 92.2754 422.289 92.2754C418.039 92.2754 414.577 95.7377 414.577 99.9869C414.577 104.236 418.039 107.698 422.289 107.698C426.538 107.725 430 104.262 430 99.9869ZM430 146.151C430 141.902 426.538 138.439 422.289 138.439C418.039 138.439 414.577 141.902 414.577 146.151C414.577 150.4 418.039 153.862 422.289 153.862C426.538 153.862 430 150.4 430 146.151ZM430 192.289C430 188.039 426.538 184.577 422.289 184.577C418.039 184.577 414.577 188.039 414.577 192.289C414.577 196.538 418.039 200 422.289 200C426.538 200 430 196.538 430 192.289ZM383.862 7.71148C383.862 3.4623 380.4 0 376.151 0C371.902 0 368.439 3.4623 368.439 7.71148C368.439 11.9607 371.902 15.4229 376.151 15.4229C380.4 15.4229 383.862 11.9869 383.862 7.71148ZM383.862 53.8492C383.862 49.6 380.4 46.1377 376.151 46.1377C371.902 46.1377 368.439 49.6 368.439 53.8492C368.439 58.0984 371.902 61.5607 376.151 61.5607C380.4 61.5607 383.862 58.1246 383.862 53.8492ZM383.862 99.9869C383.862 95.7377 380.4 92.2754 376.151 92.2754C371.902 92.2754 368.439 95.7377 368.439 99.9869C368.439 104.236 371.902 107.698 376.151 107.698C380.4 107.725 383.862 104.262 383.862 99.9869ZM383.862 146.151C383.862 141.902 380.4 138.439 376.151 138.439C371.902 138.439 368.439 141.902 368.439 146.151C368.439 150.4 371.902 153.862 376.151 153.862C380.4 153.862 383.862 150.4 383.862 146.151ZM383.862 192.289C383.862 188.039 380.4 184.577 376.151 184.577C371.902 184.577 368.439 188.039 368.439 192.289C368.439 196.538 371.902 200 376.151 200C380.4 200 383.862 196.538 383.862 192.289ZM337.698 7.71148C337.698 3.4623 334.236 0 329.987 0C325.738 0 322.275 3.4623 322.275 7.71148C322.275 11.9607 325.738 15.4229 329.987 15.4229C334.262 15.4229 337.698 11.9869 337.698 7.71148ZM337.698 53.8492C337.698 49.6 334.236 46.1377 329.987 46.1377C325.738 46.1377 322.275 49.6 322.275 53.8492C322.275 58.0984 325.738 61.5607 329.987 61.5607C334.262 61.5607 337.698 58.1246 337.698 53.8492ZM337.698 99.9869C337.698 95.7377 334.236 92.2754 329.987 92.2754C325.738 92.2754 322.275 95.7377 322.275 99.9869C322.275 104.236 325.738 107.698 329.987 107.698C334.262 107.725 337.698 104.262 337.698 99.9869ZM337.698 146.151C337.698 141.902 334.236 138.439 329.987 138.439C325.738 138.439 322.275 141.902 322.275 146.151C322.275 150.4 325.738 153.862 329.987 153.862C334.262 153.862 337.698 150.4 337.698 146.151ZM337.698 192.289C337.698 188.039 334.236 184.577 329.987 184.577C325.738 184.577 322.275 188.039 322.275 192.289C322.275 196.538 325.738 200 329.987 200C334.262 200 337.698 196.538 337.698 192.289ZM291.561 7.71148C291.561 3.4623 288.098 0 283.849 0C279.6 0 276.138 3.4623 276.138 7.71148C276.138 11.9607 279.6 15.4229 283.849 15.4229C288.125 15.4229 291.561 11.9869 291.561 7.71148ZM291.561 53.8492C291.561 49.6 288.098 46.1377 283.849 46.1377C279.6 46.1377 276.138 49.6 276.138 53.8492C276.138 58.0984 279.6 61.5607 283.849 61.5607C288.125 61.5607 291.561 58.1246 291.561 53.8492ZM291.561 99.9869C291.561 95.7377 288.098 92.2754 283.849 92.2754C279.6 92.2754 276.138 95.7377 276.138 99.9869C276.138 104.236 279.6 107.698 283.849 107.698C288.125 107.725 291.561 104.262 291.561 99.9869ZM291.561 146.151C291.561 141.902 288.098 138.439 283.849 138.439C279.6 138.439 276.138 141.902 276.138 146.151C276.138 150.4 279.6 153.862 283.849 153.862C288.125 153.862 291.561 150.4 291.561 146.151ZM291.561 192.289C291.561 188.039 288.098 184.577 283.849 184.577C279.6 184.577 276.138 188.039 276.138 192.289C276.138 196.538 279.6 200 283.849 200C288.125 200 291.561 196.538 291.561 192.289ZM245.423 7.71148C245.423 3.4623 241.961 0 237.711 0C233.462 0 230 3.4623 230 7.71148C230 11.9607 233.462 15.4229 237.711 15.4229C241.961 15.4229 245.423 11.9869 245.423 7.71148ZM245.423 53.8492C245.423 49.6 241.961 46.1377 237.711 46.1377C233.462 46.1377 230 49.6 230 53.8492C230 58.0984 233.462 61.5607 237.711 61.5607C241.961 61.5607 245.423 58.1246 245.423 53.8492ZM245.423 99.9869C245.423 95.7377 241.961 92.2754 237.711 92.2754C233.462 92.2754 230 95.7377 230 99.9869C230 104.236 233.462 107.698 237.711 107.698C241.961 107.698 245.423 104.262 245.423 99.9869ZM245.423 146.151C245.423 141.902 241.961 138.439 237.711 138.439C233.462 138.439 230 141.902 230 146.151C230 150.4 233.462 153.862 237.711 153.862C241.961 153.862 245.423 150.4 245.423 146.151ZM245.423 192.289C245.423 188.039 241.961 184.577 237.711 184.577C233.462 184.577 230 188.039 230 192.289C230 196.538 233.462 200 237.711 200C241.961 200 245.423 196.538 245.423 192.289Z" fill="#ECF4D8"/>
<path d="M652.289 15.4229C648.039 15.4229 644.577 11.9607 644.577 7.71148C644.577 3.4623 648.039 0 652.289 0C656.538 0 660 3.4623 660 7.71148C660 11.9869 656.538 15.4229 652.289 15.4229ZM660 53.8492C660 49.6 656.538 46.1377 652.289 46.1377C648.039 46.1377 644.577 49.6 644.577 53.8492C644.577 58.0984 648.039 61.5607 652.289 61.5607C656.538 61.5607 660 58.1246 660 53.8492ZM660 99.9869C660 95.7377 656.538 92.2754 652.289 92.2754C648.039 92.2754 644.577 95.7377 644.577 99.9869C644.577 104.236 648.039 107.698 652.289 107.698C656.538 107.725 660 104.262 660 99.9869ZM660 146.151C660 141.902 656.538 138.439 652.289 138.439C648.039 138.439 644.577 141.902 644.577 146.151C644.577 150.4 648.039 153.862 652.289 153.862C656.538 153.862 660 150.4 660 146.151ZM660 192.289C660 188.039 656.538 184.577 652.289 184.577C648.039 184.577 644.577 188.039 644.577 192.289C644.577 196.538 648.039 200 652.289 200C656.538 200 660 196.538 660 192.289ZM613.862 7.71148C613.862 3.4623 610.4 0 606.151 0C601.902 0 598.439 3.4623 598.439 7.71148C598.439 11.9607 601.902 15.4229 606.151 15.4229C610.4 15.4229 613.862 11.9869 613.862 7.71148ZM613.862 53.8492C613.862 49.6 610.4 46.1377 606.151 46.1377C601.902 46.1377 598.439 49.6 598.439 53.8492C598.439 58.0984 601.902 61.5607 606.151 61.5607C610.4 61.5607 613.862 58.1246 613.862 53.8492ZM613.862 99.9869C613.862 95.7377 610.4 92.2754 606.151 92.2754C601.902 92.2754 598.439 95.7377 598.439 99.9869C598.439 104.236 601.902 107.698 606.151 107.698C610.4 107.725 613.862 104.262 613.862 99.9869ZM613.862 146.151C613.862 141.902 610.4 138.439 606.151 138.439C601.902 138.439 598.439 141.902 598.439 146.151C598.439 150.4 601.902 153.862 606.151 153.862C610.4 153.862 613.862 150.4 613.862 146.151ZM613.862 192.289C613.862 188.039 610.4 184.577 606.151 184.577C601.902 184.577 598.439 188.039 598.439 192.289C598.439 196.538 601.902 200 606.151 200C610.4 200 613.862 196.538 613.862 192.289ZM567.698 7.71148C567.698 3.4623 564.236 0 559.987 0C555.738 0 552.275 3.4623 552.275 7.71148C552.275 11.9607 555.738 15.4229 559.987 15.4229C564.262 15.4229 567.698 11.9869 567.698 7.71148ZM567.698 53.8492C567.698 49.6 564.236 46.1377 559.987 46.1377C555.738 46.1377 552.275 49.6 552.275 53.8492C552.275 58.0984 555.738 61.5607 559.987 61.5607C564.262 61.5607 567.698 58.1246 567.698 53.8492ZM567.698 99.9869C567.698 95.7377 564.236 92.2754 559.987 92.2754C555.738 92.2754 552.275 95.7377 552.275 99.9869C552.275 104.236 555.738 107.698 559.987 107.698C564.262 107.725 567.698 104.262 567.698 99.9869ZM567.698 146.151C567.698 141.902 564.236 138.439 559.987 138.439C555.738 138.439 552.275 141.902 552.275 146.151C552.275 150.4 555.738 153.862 559.987 153.862C564.262 153.862 567.698 150.4 567.698 146.151ZM567.698 192.289C567.698 188.039 564.236 184.577 559.987 184.577C555.738 184.577 552.275 188.039 552.275 192.289C552.275 196.538 555.738 200 559.987 200C564.262 200 567.698 196.538 567.698 192.289ZM521.561 7.71148C521.561 3.4623 518.098 0 513.849 0C509.6 0 506.138 3.4623 506.138 7.71148C506.138 11.9607 509.6 15.4229 513.849 15.4229C518.125 15.4229 521.561 11.9869 521.561 7.71148ZM521.561 53.8492C521.561 49.6 518.098 46.1377 513.849 46.1377C509.6 46.1377 506.138 49.6 506.138 53.8492C506.138 58.0984 509.6 61.5607 513.849 61.5607C518.125 61.5607 521.561 58.1246 521.561 53.8492ZM521.561 99.9869C521.561 95.7377 518.098 92.2754 513.849 92.2754C509.6 92.2754 506.138 95.7377 506.138 99.9869C506.138 104.236 509.6 107.698 513.849 107.698C518.125 107.725 521.561 104.262 521.561 99.9869ZM521.561 146.151C521.561 141.902 518.098 138.439 513.849 138.439C509.6 138.439 506.138 141.902 506.138 146.151C506.138 150.4 509.6 153.862 513.849 153.862C518.125 153.862 521.561 150.4 521.561 146.151ZM521.561 192.289C521.561 188.039 518.098 184.577 513.849 184.577C509.6 184.577 506.138 188.039 506.138 192.289C506.138 196.538 509.6 200 513.849 200C518.125 200 521.561 196.538 521.561 192.289ZM475.423 7.71148C475.423 3.4623 471.961 0 467.711 0C463.462 0 460 3.4623 460 7.71148C460 11.9607 463.462 15.4229 467.711 15.4229C471.961 15.4229 475.423 11.9869 475.423 7.71148ZM475.423 53.8492C475.423 49.6 471.961 46.1377 467.711 46.1377C463.462 46.1377 460 49.6 460 53.8492C460 58.0984 463.462 61.5607 467.711 61.5607C471.961 61.5607 475.423 58.1246 475.423 53.8492ZM475.423 99.9869C475.423 95.7377 471.961 92.2754 467.711 92.2754C463.462 92.2754 460 95.7377 460 99.9869C460 104.236 463.462 107.698 467.711 107.698C471.961 107.698 475.423 104.262 475.423 99.9869ZM475.423 146.151C475.423 141.902 471.961 138.439 467.711 138.439C463.462 138.439 460 141.902 460 146.151C460 150.4 463.462 153.862 467.711 153.862C471.961 153.862 475.423 150.4 475.423 146.151ZM475.423 192.289C475.423 188.039 471.961 184.577 467.711 184.577C463.462 184.577 460 188.039 460 192.289C460 196.538 463.462 200 467.711 200C471.961 200 475.423 196.538 475.423 192.289Z" fill="#ECF4D8"/>
<path d="M882.289 15.4229C878.039 15.4229 874.577 11.9607 874.577 7.71148C874.577 3.4623 878.039 0 882.289 0C886.538 0 890 3.4623 890 7.71148C890 11.9869 886.538 15.4229 882.289 15.4229ZM890 53.8492C890 49.6 886.538 46.1377 882.289 46.1377C878.039 46.1377 874.577 49.6 874.577 53.8492C874.577 58.0984 878.039 61.5607 882.289 61.5607C886.538 61.5607 890 58.1246 890 53.8492ZM890 99.9869C890 95.7377 886.538 92.2754 882.289 92.2754C878.039 92.2754 874.577 95.7377 874.577 99.9869C874.577 104.236 878.039 107.698 882.289 107.698C886.538 107.725 890 104.262 890 99.9869ZM890 146.151C890 141.902 886.538 138.439 882.289 138.439C878.039 138.439 874.577 141.902 874.577 146.151C874.577 150.4 878.039 153.862 882.289 153.862C886.538 153.862 890 150.4 890 146.151ZM890 192.289C890 188.039 886.538 184.577 882.289 184.577C878.039 184.577 874.577 188.039 874.577 192.289C874.577 196.538 878.039 200 882.289 200C886.538 200 890 196.538 890 192.289ZM843.862 7.71148C843.862 3.4623 840.4 0 836.151 0C831.902 0 828.439 3.4623 828.439 7.71148C828.439 11.9607 831.902 15.4229 836.151 15.4229C840.4 15.4229 843.862 11.9869 843.862 7.71148ZM843.862 53.8492C843.862 49.6 840.4 46.1377 836.151 46.1377C831.902 46.1377 828.439 49.6 828.439 53.8492C828.439 58.0984 831.902 61.5607 836.151 61.5607C840.4 61.5607 843.862 58.1246 843.862 53.8492ZM843.862 99.9869C843.862 95.7377 840.4 92.2754 836.151 92.2754C831.902 92.2754 828.439 95.7377 828.439 99.9869C828.439 104.236 831.902 107.698 836.151 107.698C840.4 107.725 843.862 104.262 843.862 99.9869ZM843.862 146.151C843.862 141.902 840.4 138.439 836.151 138.439C831.902 138.439 828.439 141.902 828.439 146.151C828.439 150.4 831.902 153.862 836.151 153.862C840.4 153.862 843.862 150.4 843.862 146.151ZM843.862 192.289C843.862 188.039 840.4 184.577 836.151 184.577C831.902 184.577 828.439 188.039 828.439 192.289C828.439 196.538 831.902 200 836.151 200C840.4 200 843.862 196.538 843.862 192.289ZM797.698 7.71148C797.698 3.4623 794.236 0 789.987 0C785.738 0 782.275 3.4623 782.275 7.71148C782.275 11.9607 785.738 15.4229 789.987 15.4229C794.262 15.4229 797.698 11.9869 797.698 7.71148ZM797.698 53.8492C797.698 49.6 794.236 46.1377 789.987 46.1377C785.738 46.1377 782.275 49.6 782.275 53.8492C782.275 58.0984 785.738 61.5607 789.987 61.5607C794.262 61.5607 797.698 58.1246 797.698 53.8492ZM797.698 99.9869C797.698 95.7377 794.236 92.2754 789.987 92.2754C785.738 92.2754 782.275 95.7377 782.275 99.9869C782.275 104.236 785.738 107.698 789.987 107.698C794.262 107.725 797.698 104.262 797.698 99.9869ZM797.698 146.151C797.698 141.902 794.236 138.439 789.987 138.439C785.738 138.439 782.275 141.902 782.275 146.151C782.275 150.4 785.738 153.862 789.987 153.862C794.262 153.862 797.698 150.4 797.698 146.151ZM797.698 192.289C797.698 188.039 794.236 184.577 789.987 184.577C785.738 184.577 782.275 188.039 782.275 192.289C782.275 196.538 785.738 200 789.987 200C794.262 200 797.698 196.538 797.698 192.289ZM751.561 7.71148C751.561 3.4623 748.098 0 743.849 0C739.6 0 736.138 3.4623 736.138 7.71148C736.138 11.9607 739.6 15.4229 743.849 15.4229C748.125 15.4229 751.561 11.9869 751.561 7.71148ZM751.561 53.8492C751.561 49.6 748.098 46.1377 743.849 46.1377C739.6 46.1377 736.138 49.6 736.138 53.8492C736.138 58.0984 739.6 61.5607 743.849 61.5607C748.125 61.5607 751.561 58.1246 751.561 53.8492ZM751.561 99.9869C751.561 95.7377 748.098 92.2754 743.849 92.2754C739.6 92.2754 736.138 95.7377 736.138 99.9869C736.138 104.236 739.6 107.698 743.849 107.698C748.125 107.725 751.561 104.262 751.561 99.9869ZM751.561 146.151C751.561 141.902 748.098 138.439 743.849 138.439C739.6 138.439 736.138 141.902 736.138 146.151C736.138 150.4 739.6 153.862 743.849 153.862C748.125 153.862 751.561 150.4 751.561 146.151ZM751.561 192.289C751.561 188.039 748.098 184.577 743.849 184.577C739.6 184.577 736.138 188.039 736.138 192.289C736.138 196.538 739.6 200 743.849 200C748.125 200 751.561 196.538 751.561 192.289ZM705.423 7.71148C705.423 3.4623 701.961 0 697.711 0C693.462 0 690 3.4623 690 7.71148C690 11.9607 693.462 15.4229 697.711 15.4229C701.961 15.4229 705.423 11.9869 705.423 7.71148ZM705.423 53.8492C705.423 49.6 701.961 46.1377 697.711 46.1377C693.462 46.1377 690 49.6 690 53.8492C690 58.0984 693.462 61.5607 697.711 61.5607C701.961 61.5607 705.423 58.1246 705.423 53.8492ZM705.423 99.9869C705.423 95.7377 701.961 92.2754 697.711 92.2754C693.462 92.2754 690 95.7377 690 99.9869C690 104.236 693.462 107.698 697.711 107.698C701.961 107.698 705.423 104.262 705.423 99.9869ZM705.423 146.151C705.423 141.902 701.961 138.439 697.711 138.439C693.462 138.439 690 141.902 690 146.151C690 150.4 693.462 153.862 697.711 153.862C701.961 153.862 705.423 150.4 705.423 146.151ZM705.423 192.289C705.423 188.039 701.961 184.577 697.711 184.577C693.462 184.577 690 188.039 690 192.289C690 196.538 693.462 200 697.711 200C701.961 200 705.423 196.538 705.423 192.289Z" fill="#ECF4D8"/>
<path d="M192.289 245.423C188.039 245.423 184.577 241.961 184.577 237.711C184.577 233.462 188.039 230 192.289 230C196.538 230 200 233.462 200 237.711C200 241.987 196.538 245.423 192.289 245.423ZM200 283.849C200 279.6 196.538 276.138 192.289 276.138C188.039 276.138 184.577 279.6 184.577 283.849C184.577 288.098 188.039 291.561 192.289 291.561C196.538 291.561 200 288.125 200 283.849ZM200 329.987C200 325.738 196.538 322.275 192.289 322.275C188.039 322.275 184.577 325.738 184.577 329.987C184.577 334.236 188.039 337.698 192.289 337.698C196.538 337.725 200 334.262 200 329.987ZM200 376.151C200 371.902 196.538 368.439 192.289 368.439C188.039 368.439 184.577 371.902 184.577 376.151C184.577 380.4 188.039 383.862 192.289 383.862C196.538 383.862 200 380.4 200 376.151ZM200 422.289C200 418.039 196.538 414.577 192.289 414.577C188.039 414.577 184.577 418.039 184.577 422.289C184.577 426.538 188.039 430 192.289 430C196.538 430 200 426.538 200 422.289ZM153.862 237.711C153.862 233.462 150.4 230 146.151 230C141.902 230 138.439 233.462 138.439 237.711C138.439 241.961 141.902 245.423 146.151 245.423C150.4 245.423 153.862 241.987 153.862 237.711ZM153.862 283.849C153.862 279.6 150.4 276.138 146.151 276.138C141.902 276.138 138.439 279.6 138.439 283.849C138.439 288.098 141.902 291.561 146.151 291.561C150.4 291.561 153.862 288.125 153.862 283.849ZM153.862 329.987C153.862 325.738 150.4 322.275 146.151 322.275C141.902 322.275 138.439 325.738 138.439 329.987C138.439 334.236 141.902 337.698 146.151 337.698C150.4 337.725 153.862 334.262 153.862 329.987ZM153.862 376.151C153.862 371.902 150.4 368.439 146.151 368.439C141.902 368.439 138.439 371.902 138.439 376.151C138.439 380.4 141.902 383.862 146.151 383.862C150.4 383.862 153.862 380.4 153.862 376.151ZM153.862 422.289C153.862 418.039 150.4 414.577 146.151 414.577C141.902 414.577 138.439 418.039 138.439 422.289C138.439 426.538 141.902 430 146.151 430C150.4 430 153.862 426.538 153.862 422.289ZM107.698 237.711C107.698 233.462 104.236 230 99.9869 230C95.7377 230 92.2754 233.462 92.2754 237.711C92.2754 241.961 95.7377 245.423 99.9869 245.423C104.262 245.423 107.698 241.987 107.698 237.711ZM107.698 283.849C107.698 279.6 104.236 276.138 99.9869 276.138C95.7377 276.138 92.2754 279.6 92.2754 283.849C92.2754 288.098 95.7377 291.561 99.9869 291.561C104.262 291.561 107.698 288.125 107.698 283.849ZM107.698 329.987C107.698 325.738 104.236 322.275 99.9869 322.275C95.7377 322.275 92.2754 325.738 92.2754 329.987C92.2754 334.236 95.7377 337.698 99.9869 337.698C104.262 337.725 107.698 334.262 107.698 329.987ZM107.698 376.151C107.698 371.902 104.236 368.439 99.9869 368.439C95.7377 368.439 92.2754 371.902 92.2754 376.151C92.2754 380.4 95.7377 383.862 99.9869 383.862C104.262 383.862 107.698 380.4 107.698 376.151ZM107.698 422.289C107.698 418.039 104.236 414.577 99.9869 414.577C95.7377 414.577 92.2754 418.039 92.2754 422.289C92.2754 426.538 95.7377 430 99.9869 430C104.262 430 107.698 426.538 107.698 422.289ZM61.5606 237.711C61.5606 233.462 58.0983 230 53.8491 230C49.5999 230 46.1378 233.462 46.1378 237.711C46.1378 241.961 49.5999 245.423 53.8491 245.423C58.1245 245.423 61.5606 241.987 61.5606 237.711ZM61.5606 283.849C61.5606 279.6 58.0983 276.138 53.8491 276.138C49.5999 276.138 46.1378 279.6 46.1378 283.849C46.1378 288.098 49.5999 291.561 53.8491 291.561C58.1245 291.561 61.5606 288.125 61.5606 283.849ZM61.5606 329.987C61.5606 325.738 58.0983 322.275 53.8491 322.275C49.5999 322.275 46.1378 325.738 46.1378 329.987C46.1378 334.236 49.5999 337.698 53.8491 337.698C58.1245 337.725 61.5606 334.262 61.5606 329.987ZM61.5606 376.151C61.5606 371.902 58.0983 368.439 53.8491 368.439C49.5999 368.439 46.1378 371.902 46.1378 376.151C46.1378 380.4 49.5999 383.862 53.8491 383.862C58.1245 383.862 61.5606 380.4 61.5606 376.151ZM61.5606 422.289C61.5606 418.039 58.0983 414.577 53.8491 414.577C49.5999 414.577 46.1378 418.039 46.1378 422.289C46.1378 426.538 49.5999 430 53.8491 430C58.1245 430 61.5606 426.538 61.5606 422.289ZM15.423 237.711C15.423 233.462 11.9607 230 7.71148 230C3.4623 230 0 233.462 0 237.711C0 241.961 3.4623 245.423 7.71148 245.423C11.9607 245.423 15.423 241.987 15.423 237.711ZM15.423 283.849C15.423 279.6 11.9607 276.138 7.71148 276.138C3.4623 276.138 0 279.6 0 283.849C0 288.098 3.4623 291.561 7.71148 291.561C11.9607 291.561 15.423 288.125 15.423 283.849ZM15.423 329.987C15.423 325.738 11.9607 322.275 7.71148 322.275C3.4623 322.275 0 325.738 0 329.987C0 334.236 3.4623 337.698 7.71148 337.698C11.9607 337.698 15.423 334.262 15.423 329.987ZM15.423 376.151C15.423 371.902 11.9607 368.439 7.71148 368.439C3.4623 368.439 0 371.902 0 376.151C0 380.4 3.4623 383.862 7.71148 383.862C11.9607 383.862 15.423 380.4 15.423 376.151ZM15.423 422.289C15.423 418.039 11.9607 414.577 7.71148 414.577C3.4623 414.577 0 418.039 0 422.289C0 426.538 3.4623 430 7.71148 430C11.9607 430 15.423 426.538 15.423 422.289Z" fill="#ECF4D8"/>
<path d="M422.289 245.423C418.039 245.423 414.577 241.961 414.577 237.711C414.577 233.462 418.039 230 422.289 230C426.538 230 430 233.462 430 237.711C430 241.987 426.538 245.423 422.289 245.423ZM430 283.849C430 279.6 426.538 276.138 422.289 276.138C418.039 276.138 414.577 279.6 414.577 283.849C414.577 288.098 418.039 291.561 422.289 291.561C426.538 291.561 430 288.125 430 283.849ZM430 329.987C430 325.738 426.538 322.275 422.289 322.275C418.039 322.275 414.577 325.738 414.577 329.987C414.577 334.236 418.039 337.698 422.289 337.698C426.538 337.725 430 334.262 430 329.987ZM430 376.151C430 371.902 426.538 368.439 422.289 368.439C418.039 368.439 414.577 371.902 414.577 376.151C414.577 380.4 418.039 383.862 422.289 383.862C426.538 383.862 430 380.4 430 376.151ZM430 422.289C430 418.039 426.538 414.577 422.289 414.577C418.039 414.577 414.577 418.039 414.577 422.289C414.577 426.538 418.039 430 422.289 430C426.538 430 430 426.538 430 422.289ZM383.862 237.711C383.862 233.462 380.4 230 376.151 230C371.902 230 368.439 233.462 368.439 237.711C368.439 241.961 371.902 245.423 376.151 245.423C380.4 245.423 383.862 241.987 383.862 237.711ZM383.862 283.849C383.862 279.6 380.4 276.138 376.151 276.138C371.902 276.138 368.439 279.6 368.439 283.849C368.439 288.098 371.902 291.561 376.151 291.561C380.4 291.561 383.862 288.125 383.862 283.849ZM383.862 329.987C383.862 325.738 380.4 322.275 376.151 322.275C371.902 322.275 368.439 325.738 368.439 329.987C368.439 334.236 371.902 337.698 376.151 337.698C380.4 337.725 383.862 334.262 383.862 329.987ZM383.862 376.151C383.862 371.902 380.4 368.439 376.151 368.439C371.902 368.439 368.439 371.902 368.439 376.151C368.439 380.4 371.902 383.862 376.151 383.862C380.4 383.862 383.862 380.4 383.862 376.151ZM383.862 422.289C383.862 418.039 380.4 414.577 376.151 414.577C371.902 414.577 368.439 418.039 368.439 422.289C368.439 426.538 371.902 430 376.151 430C380.4 430 383.862 426.538 383.862 422.289ZM337.698 237.711C337.698 233.462 334.236 230 329.987 230C325.738 230 322.275 233.462 322.275 237.711C322.275 241.961 325.738 245.423 329.987 245.423C334.262 245.423 337.698 241.987 337.698 237.711ZM337.698 283.849C337.698 279.6 334.236 276.138 329.987 276.138C325.738 276.138 322.275 279.6 322.275 283.849C322.275 288.098 325.738 291.561 329.987 291.561C334.262 291.561 337.698 288.125 337.698 283.849ZM337.698 329.987C337.698 325.738 334.236 322.275 329.987 322.275C325.738 322.275 322.275 325.738 322.275 329.987C322.275 334.236 325.738 337.698 329.987 337.698C334.262 337.725 337.698 334.262 337.698 329.987ZM337.698 376.151C337.698 371.902 334.236 368.439 329.987 368.439C325.738 368.439 322.275 371.902 322.275 376.151C322.275 380.4 325.738 383.862 329.987 383.862C334.262 383.862 337.698 380.4 337.698 376.151ZM337.698 422.289C337.698 418.039 334.236 414.577 329.987 414.577C325.738 414.577 322.275 418.039 322.275 422.289C322.275 426.538 325.738 430 329.987 430C334.262 430 337.698 426.538 337.698 422.289ZM291.561 237.711C291.561 233.462 288.098 230 283.849 230C279.6 230 276.138 233.462 276.138 237.711C276.138 241.961 279.6 245.423 283.849 245.423C288.125 245.423 291.561 241.987 291.561 237.711ZM291.561 283.849C291.561 279.6 288.098 276.138 283.849 276.138C279.6 276.138 276.138 279.6 276.138 283.849C276.138 288.098 279.6 291.561 283.849 291.561C288.125 291.561 291.561 288.125 291.561 283.849ZM291.561 329.987C291.561 325.738 288.098 322.275 283.849 322.275C279.6 322.275 276.138 325.738 276.138 329.987C276.138 334.236 279.6 337.698 283.849 337.698C288.125 337.725 291.561 334.262 291.561 329.987ZM291.561 376.151C291.561 371.902 288.098 368.439 283.849 368.439C279.6 368.439 276.138 371.902 276.138 376.151C276.138 380.4 279.6 383.862 283.849 383.862C288.125 383.862 291.561 380.4 291.561 376.151ZM291.561 422.289C291.561 418.039 288.098 414.577 283.849 414.577C279.6 414.577 276.138 418.039 276.138 422.289C276.138 426.538 279.6 430 283.849 430C288.125 430 291.561 426.538 291.561 422.289ZM245.423 237.711C245.423 233.462 241.961 230 237.711 230C233.462 230 230 233.462 230 237.711C230 241.961 233.462 245.423 237.711 245.423C241.961 245.423 245.423 241.987 245.423 237.711ZM245.423 283.849C245.423 279.6 241.961 276.138 237.711 276.138C233.462 276.138 230 279.6 230 283.849C230 288.098 233.462 291.561 237.711 291.561C241.961 291.561 245.423 288.125 245.423 283.849ZM245.423 329.987C245.423 325.738 241.961 322.275 237.711 322.275C233.462 322.275 230 325.738 230 329.987C230 334.236 233.462 337.698 237.711 337.698C241.961 337.698 245.423 334.262 245.423 329.987ZM245.423 376.151C245.423 371.902 241.961 368.439 237.711 368.439C233.462 368.439 230 371.902 230 376.151C230 380.4 233.462 383.862 237.711 383.862C241.961 383.862 245.423 380.4 245.423 376.151ZM245.423 422.289C245.423 418.039 241.961 414.577 237.711 414.577C233.462 414.577 230 418.039 230 422.289C230 426.538 233.462 430 237.711 430C241.961 430 245.423 426.538 245.423 422.289Z" fill="#ECF4D8"/>
<path d="M652.289 245.423C648.039 245.423 644.577 241.961 644.577 237.711C644.577 233.462 648.039 230 652.289 230C656.538 230 660 233.462 660 237.711C660 241.987 656.538 245.423 652.289 245.423ZM660 283.849C660 279.6 656.538 276.138 652.289 276.138C648.039 276.138 644.577 279.6 644.577 283.849C644.577 288.098 648.039 291.561 652.289 291.561C656.538 291.561 660 288.125 660 283.849ZM660 329.987C660 325.738 656.538 322.275 652.289 322.275C648.039 322.275 644.577 325.738 644.577 329.987C644.577 334.236 648.039 337.698 652.289 337.698C656.538 337.725 660 334.262 660 329.987ZM660 376.151C660 371.902 656.538 368.439 652.289 368.439C648.039 368.439 644.577 371.902 644.577 376.151C644.577 380.4 648.039 383.862 652.289 383.862C656.538 383.862 660 380.4 660 376.151ZM660 422.289C660 418.039 656.538 414.577 652.289 414.577C648.039 414.577 644.577 418.039 644.577 422.289C644.577 426.538 648.039 430 652.289 430C656.538 430 660 426.538 660 422.289ZM613.862 237.711C613.862 233.462 610.4 230 606.151 230C601.902 230 598.439 233.462 598.439 237.711C598.439 241.961 601.902 245.423 606.151 245.423C610.4 245.423 613.862 241.987 613.862 237.711ZM613.862 283.849C613.862 279.6 610.4 276.138 606.151 276.138C601.902 276.138 598.439 279.6 598.439 283.849C598.439 288.098 601.902 291.561 606.151 291.561C610.4 291.561 613.862 288.125 613.862 283.849ZM613.862 329.987C613.862 325.738 610.4 322.275 606.151 322.275C601.902 322.275 598.439 325.738 598.439 329.987C598.439 334.236 601.902 337.698 606.151 337.698C610.4 337.725 613.862 334.262 613.862 329.987ZM613.862 376.151C613.862 371.902 610.4 368.439 606.151 368.439C601.902 368.439 598.439 371.902 598.439 376.151C598.439 380.4 601.902 383.862 606.151 383.862C610.4 383.862 613.862 380.4 613.862 376.151ZM613.862 422.289C613.862 418.039 610.4 414.577 606.151 414.577C601.902 414.577 598.439 418.039 598.439 422.289C598.439 426.538 601.902 430 606.151 430C610.4 430 613.862 426.538 613.862 422.289ZM567.698 237.711C567.698 233.462 564.236 230 559.987 230C555.738 230 552.275 233.462 552.275 237.711C552.275 241.961 555.738 245.423 559.987 245.423C564.262 245.423 567.698 241.987 567.698 237.711ZM567.698 283.849C567.698 279.6 564.236 276.138 559.987 276.138C555.738 276.138 552.275 279.6 552.275 283.849C552.275 288.098 555.738 291.561 559.987 291.561C564.262 291.561 567.698 288.125 567.698 283.849ZM567.698 329.987C567.698 325.738 564.236 322.275 559.987 322.275C555.738 322.275 552.275 325.738 552.275 329.987C552.275 334.236 555.738 337.698 559.987 337.698C564.262 337.725 567.698 334.262 567.698 329.987ZM567.698 376.151C567.698 371.902 564.236 368.439 559.987 368.439C555.738 368.439 552.275 371.902 552.275 376.151C552.275 380.4 555.738 383.862 559.987 383.862C564.262 383.862 567.698 380.4 567.698 376.151ZM567.698 422.289C567.698 418.039 564.236 414.577 559.987 414.577C555.738 414.577 552.275 418.039 552.275 422.289C552.275 426.538 555.738 430 559.987 430C564.262 430 567.698 426.538 567.698 422.289ZM521.561 237.711C521.561 233.462 518.098 230 513.849 230C509.6 230 506.138 233.462 506.138 237.711C506.138 241.961 509.6 245.423 513.849 245.423C518.125 245.423 521.561 241.987 521.561 237.711ZM521.561 283.849C521.561 279.6 518.098 276.138 513.849 276.138C509.6 276.138 506.138 279.6 506.138 283.849C506.138 288.098 509.6 291.561 513.849 291.561C518.125 291.561 521.561 288.125 521.561 283.849ZM521.561 329.987C521.561 325.738 518.098 322.275 513.849 322.275C509.6 322.275 506.138 325.738 506.138 329.987C506.138 334.236 509.6 337.698 513.849 337.698C518.125 337.725 521.561 334.262 521.561 329.987ZM521.561 376.151C521.561 371.902 518.098 368.439 513.849 368.439C509.6 368.439 506.138 371.902 506.138 376.151C506.138 380.4 509.6 383.862 513.849 383.862C518.125 383.862 521.561 380.4 521.561 376.151ZM521.561 422.289C521.561 418.039 518.098 414.577 513.849 414.577C509.6 414.577 506.138 418.039 506.138 422.289C506.138 426.538 509.6 430 513.849 430C518.125 430 521.561 426.538 521.561 422.289ZM475.423 237.711C475.423 233.462 471.961 230 467.711 230C463.462 230 460 233.462 460 237.711C460 241.961 463.462 245.423 467.711 245.423C471.961 245.423 475.423 241.987 475.423 237.711ZM475.423 283.849C475.423 279.6 471.961 276.138 467.711 276.138C463.462 276.138 460 279.6 460 283.849C460 288.098 463.462 291.561 467.711 291.561C471.961 291.561 475.423 288.125 475.423 283.849ZM475.423 329.987C475.423 325.738 471.961 322.275 467.711 322.275C463.462 322.275 460 325.738 460 329.987C460 334.236 463.462 337.698 467.711 337.698C471.961 337.698 475.423 334.262 475.423 329.987ZM475.423 376.151C475.423 371.902 471.961 368.439 467.711 368.439C463.462 368.439 460 371.902 460 376.151C460 380.4 463.462 383.862 467.711 383.862C471.961 383.862 475.423 380.4 475.423 376.151ZM475.423 422.289C475.423 418.039 471.961 414.577 467.711 414.577C463.462 414.577 460 418.039 460 422.289C460 426.538 463.462 430 467.711 430C471.961 430 475.423 426.538 475.423 422.289Z" fill="#ECF4D8"/>
<path d="M882.289 245.423C878.039 245.423 874.577 241.961 874.577 237.711C874.577 233.462 878.039 230 882.289 230C886.538 230 890 233.462 890 237.711C890 241.987 886.538 245.423 882.289 245.423ZM890 283.849C890 279.6 886.538 276.138 882.289 276.138C878.039 276.138 874.577 279.6 874.577 283.849C874.577 288.098 878.039 291.561 882.289 291.561C886.538 291.561 890 288.125 890 283.849ZM890 329.987C890 325.738 886.538 322.275 882.289 322.275C878.039 322.275 874.577 325.738 874.577 329.987C874.577 334.236 878.039 337.698 882.289 337.698C886.538 337.725 890 334.262 890 329.987ZM890 376.151C890 371.902 886.538 368.439 882.289 368.439C878.039 368.439 874.577 371.902 874.577 376.151C874.577 380.4 878.039 383.862 882.289 383.862C886.538 383.862 890 380.4 890 376.151ZM890 422.289C890 418.039 886.538 414.577 882.289 414.577C878.039 414.577 874.577 418.039 874.577 422.289C874.577 426.538 878.039 430 882.289 430C886.538 430 890 426.538 890 422.289ZM843.862 237.711C843.862 233.462 840.4 230 836.151 230C831.902 230 828.439 233.462 828.439 237.711C828.439 241.961 831.902 245.423 836.151 245.423C840.4 245.423 843.862 241.987 843.862 237.711ZM843.862 283.849C843.862 279.6 840.4 276.138 836.151 276.138C831.902 276.138 828.439 279.6 828.439 283.849C828.439 288.098 831.902 291.561 836.151 291.561C840.4 291.561 843.862 288.125 843.862 283.849ZM843.862 329.987C843.862 325.738 840.4 322.275 836.151 322.275C831.902 322.275 828.439 325.738 828.439 329.987C828.439 334.236 831.902 337.698 836.151 337.698C840.4 337.725 843.862 334.262 843.862 329.987ZM843.862 376.151C843.862 371.902 840.4 368.439 836.151 368.439C831.902 368.439 828.439 371.902 828.439 376.151C828.439 380.4 831.902 383.862 836.151 383.862C840.4 383.862 843.862 380.4 843.862 376.151ZM843.862 422.289C843.862 418.039 840.4 414.577 836.151 414.577C831.902 414.577 828.439 418.039 828.439 422.289C828.439 426.538 831.902 430 836.151 430C840.4 430 843.862 426.538 843.862 422.289ZM797.698 237.711C797.698 233.462 794.236 230 789.987 230C785.738 230 782.275 233.462 782.275 237.711C782.275 241.961 785.738 245.423 789.987 245.423C794.262 245.423 797.698 241.987 797.698 237.711ZM797.698 283.849C797.698 279.6 794.236 276.138 789.987 276.138C785.738 276.138 782.275 279.6 782.275 283.849C782.275 288.098 785.738 291.561 789.987 291.561C794.262 291.561 797.698 288.125 797.698 283.849ZM797.698 329.987C797.698 325.738 794.236 322.275 789.987 322.275C785.738 322.275 782.275 325.738 782.275 329.987C782.275 334.236 785.738 337.698 789.987 337.698C794.262 337.725 797.698 334.262 797.698 329.987ZM797.698 376.151C797.698 371.902 794.236 368.439 789.987 368.439C785.738 368.439 782.275 371.902 782.275 376.151C782.275 380.4 785.738 383.862 789.987 383.862C794.262 383.862 797.698 380.4 797.698 376.151ZM797.698 422.289C797.698 418.039 794.236 414.577 789.987 414.577C785.738 414.577 782.275 418.039 782.275 422.289C782.275 426.538 785.738 430 789.987 430C794.262 430 797.698 426.538 797.698 422.289ZM751.561 237.711C751.561 233.462 748.098 230 743.849 230C739.6 230 736.138 233.462 736.138 237.711C736.138 241.961 739.6 245.423 743.849 245.423C748.125 245.423 751.561 241.987 751.561 237.711ZM751.561 283.849C751.561 279.6 748.098 276.138 743.849 276.138C739.6 276.138 736.138 279.6 736.138 283.849C736.138 288.098 739.6 291.561 743.849 291.561C748.125 291.561 751.561 288.125 751.561 283.849ZM751.561 329.987C751.561 325.738 748.098 322.275 743.849 322.275C739.6 322.275 736.138 325.738 736.138 329.987C736.138 334.236 739.6 337.698 743.849 337.698C748.125 337.725 751.561 334.262 751.561 329.987ZM751.561 376.151C751.561 371.902 748.098 368.439 743.849 368.439C739.6 368.439 736.138 371.902 736.138 376.151C736.138 380.4 739.6 383.862 743.849 383.862C748.125 383.862 751.561 380.4 751.561 376.151ZM751.561 422.289C751.561 418.039 748.098 414.577 743.849 414.577C739.6 414.577 736.138 418.039 736.138 422.289C736.138 426.538 739.6 430 743.849 430C748.125 430 751.561 426.538 751.561 422.289ZM705.423 237.711C705.423 233.462 701.961 230 697.711 230C693.462 230 690 233.462 690 237.711C690 241.961 693.462 245.423 697.711 245.423C701.961 245.423 705.423 241.987 705.423 237.711ZM705.423 283.849C705.423 279.6 701.961 276.138 697.711 276.138C693.462 276.138 690 279.6 690 283.849C690 288.098 693.462 291.561 697.711 291.561C701.961 291.561 705.423 288.125 705.423 283.849ZM705.423 329.987C705.423 325.738 701.961 322.275 697.711 322.275C693.462 322.275 690 325.738 690 329.987C690 334.236 693.462 337.698 697.711 337.698C701.961 337.698 705.423 334.262 705.423 329.987ZM705.423 376.151C705.423 371.902 701.961 368.439 697.711 368.439C693.462 368.439 690 371.902 690 376.151C690 380.4 693.462 383.862 697.711 383.862C701.961 383.862 705.423 380.4 705.423 376.151ZM705.423 422.289C705.423 418.039 701.961 414.577 697.711 414.577C693.462 414.577 690 418.039 690 422.289C690 426.538 693.462 430 697.711 430C701.961 430 705.423 426.538 705.423 422.289Z" fill="#ECF4D8"/>
</svg>
