<svg width="815" height="430" viewBox="0 0 815 430" fill="none" xmlns="http://www.w3.org/2000/svg">
<path d="M117.289 15.4229C113.039 15.4229 109.577 11.9607 109.577 7.71148C109.577 3.4623 113.039 0 117.289 0C121.538 0 125 3.4623 125 7.71148C125 11.9869 121.538 15.4229 117.289 15.4229ZM125 53.8492C125 49.6 121.538 46.1377 117.289 46.1377C113.039 46.1377 109.577 49.6 109.577 53.8492C109.577 58.0984 113.039 61.5607 117.289 61.5607C121.538 61.5607 125 58.1246 125 53.8492ZM125 99.9869C125 95.7377 121.538 92.2754 117.289 92.2754C113.039 92.2754 109.577 95.7377 109.577 99.9869C109.577 104.236 113.039 107.698 117.289 107.698C121.538 107.725 125 104.262 125 99.9869ZM125 146.151C125 141.902 121.538 138.439 117.289 138.439C113.039 138.439 109.577 141.902 109.577 146.151C109.577 150.4 113.039 153.862 117.289 153.862C121.538 153.862 125 150.4 125 146.151ZM125 192.289C125 188.039 121.538 184.577 117.289 184.577C113.039 184.577 109.577 188.039 109.577 192.289C109.577 196.538 113.039 200 117.289 200C121.538 200 125 196.538 125 192.289ZM78.8622 7.71148C78.8622 3.4623 75.3999 0 71.1507 0C66.9016 0 63.4393 3.4623 63.4393 7.71148C63.4393 11.9607 66.9016 15.4229 71.1507 15.4229C75.3999 15.4229 78.8622 11.9869 78.8622 7.71148ZM78.8622 53.8492C78.8622 49.6 75.3999 46.1377 71.1507 46.1377C66.9016 46.1377 63.4393 49.6 63.4393 53.8492C63.4393 58.0984 66.9016 61.5607 71.1507 61.5607C75.3999 61.5607 78.8622 58.1246 78.8622 53.8492ZM78.8622 99.9869C78.8622 95.7377 75.3999 92.2754 71.1507 92.2754C66.9016 92.2754 63.4393 95.7377 63.4393 99.9869C63.4393 104.236 66.9016 107.698 71.1507 107.698C75.3999 107.725 78.8622 104.262 78.8622 99.9869ZM78.8622 146.151C78.8622 141.902 75.3999 138.439 71.1507 138.439C66.9016 138.439 63.4393 141.902 63.4393 146.151C63.4393 150.4 66.9016 153.862 71.1507 153.862C75.3999 153.862 78.8622 150.4 78.8622 146.151ZM78.8622 192.289C78.8622 188.039 75.3999 184.577 71.1507 184.577C66.9016 184.577 63.4393 188.039 63.4393 192.289C63.4393 196.538 66.9016 200 71.1507 200C75.3999 200 78.8622 196.538 78.8622 192.289ZM32.6984 7.71148C32.6984 3.4623 29.2361 0 24.9869 0C20.7377 0 17.2754 3.4623 17.2754 7.71148C17.2754 11.9607 20.7377 15.4229 24.9869 15.4229C29.2623 15.4229 32.6984 11.9869 32.6984 7.71148ZM32.6984 53.8492C32.6984 49.6 29.2361 46.1377 24.9869 46.1377C20.7377 46.1377 17.2754 49.6 17.2754 53.8492C17.2754 58.0984 20.7377 61.5607 24.9869 61.5607C29.2623 61.5607 32.6984 58.1246 32.6984 53.8492ZM32.6984 99.9869C32.6984 95.7377 29.2361 92.2754 24.9869 92.2754C20.7377 92.2754 17.2754 95.7377 17.2754 99.9869C17.2754 104.236 20.7377 107.698 24.9869 107.698C29.2623 107.725 32.6984 104.262 32.6984 99.9869ZM32.6984 146.151C32.6984 141.902 29.2361 138.439 24.9869 138.439C20.7377 138.439 17.2754 141.902 17.2754 146.151C17.2754 150.4 20.7377 153.862 24.9869 153.862C29.2623 153.862 32.6984 150.4 32.6984 146.151ZM32.6984 192.289C32.6984 188.039 29.2361 184.577 24.9869 184.577C20.7377 184.577 17.2754 188.039 17.2754 192.289C17.2754 196.538 20.7377 200 24.9869 200C29.2623 200 32.6984 196.538 32.6984 192.289ZM-13.4394 7.71148C-13.4394 3.4623 -16.9017 0 -21.1509 0C-25.4001 0 -28.8622 3.4623 -28.8622 7.71148C-28.8622 11.9607 -25.4001 15.4229 -21.1509 15.4229C-16.8755 15.4229 -13.4394 11.9869 -13.4394 7.71148ZM-13.4394 53.8492C-13.4394 49.6 -16.9017 46.1377 -21.1509 46.1377C-25.4001 46.1377 -28.8622 49.6 -28.8622 53.8492C-28.8622 58.0984 -25.4001 61.5607 -21.1509 61.5607C-16.8755 61.5607 -13.4394 58.1246 -13.4394 53.8492ZM-13.4394 99.9869C-13.4394 95.7377 -16.9017 92.2754 -21.1509 92.2754C-25.4001 92.2754 -28.8622 95.7377 -28.8622 99.9869C-28.8622 104.236 -25.4001 107.698 -21.1509 107.698C-16.8755 107.725 -13.4394 104.262 -13.4394 99.9869ZM-13.4394 146.151C-13.4394 141.902 -16.9017 138.439 -21.1509 138.439C-25.4001 138.439 -28.8622 141.902 -28.8622 146.151C-28.8622 150.4 -25.4001 153.862 -21.1509 153.862C-16.8755 153.862 -13.4394 150.4 -13.4394 146.151ZM-13.4394 192.289C-13.4394 188.039 -16.9017 184.577 -21.1509 184.577C-25.4001 184.577 -28.8622 188.039 -28.8622 192.289C-28.8622 196.538 -25.4001 200 -21.1509 200C-16.8755 200 -13.4394 196.538 -13.4394 192.289ZM-59.577 7.71148C-59.577 3.4623 -63.0393 0 -67.2885 0C-71.5377 0 -75 3.4623 -75 7.71148C-75 11.9607 -71.5377 15.4229 -67.2885 15.4229C-63.0393 15.4229 -59.577 11.9869 -59.577 7.71148ZM-59.577 53.8492C-59.577 49.6 -63.0393 46.1377 -67.2885 46.1377C-71.5377 46.1377 -75 49.6 -75 53.8492C-75 58.0984 -71.5377 61.5607 -67.2885 61.5607C-63.0393 61.5607 -59.577 58.1246 -59.577 53.8492ZM-59.577 99.9869C-59.577 95.7377 -63.0393 92.2754 -67.2885 92.2754C-71.5377 92.2754 -75 95.7377 -75 99.9869C-75 104.236 -71.5377 107.698 -67.2885 107.698C-63.0393 107.698 -59.577 104.262 -59.577 99.9869ZM-59.577 146.151C-59.577 141.902 -63.0393 138.439 -67.2885 138.439C-71.5377 138.439 -75 141.902 -75 146.151C-75 150.4 -71.5377 153.862 -67.2885 153.862C-63.0393 153.862 -59.577 150.4 -59.577 146.151ZM-59.577 192.289C-59.577 188.039 -63.0393 184.577 -67.2885 184.577C-71.5377 184.577 -75 188.039 -75 192.289C-75 196.538 -71.5377 200 -67.2885 200C-63.0393 200 -59.577 196.538 -59.577 192.289Z" fill="#ECF4D8"/>
<path d="M347.289 15.4229C343.039 15.4229 339.577 11.9607 339.577 7.71148C339.577 3.4623 343.039 0 347.289 0C351.538 0 355 3.4623 355 7.71148C355 11.9869 351.538 15.4229 347.289 15.4229ZM355 53.8492C355 49.6 351.538 46.1377 347.289 46.1377C343.039 46.1377 339.577 49.6 339.577 53.8492C339.577 58.0984 343.039 61.5607 347.289 61.5607C351.538 61.5607 355 58.1246 355 53.8492ZM355 99.9869C355 95.7377 351.538 92.2754 347.289 92.2754C343.039 92.2754 339.577 95.7377 339.577 99.9869C339.577 104.236 343.039 107.698 347.289 107.698C351.538 107.725 355 104.262 355 99.9869ZM355 146.151C355 141.902 351.538 138.439 347.289 138.439C343.039 138.439 339.577 141.902 339.577 146.151C339.577 150.4 343.039 153.862 347.289 153.862C351.538 153.862 355 150.4 355 146.151ZM355 192.289C355 188.039 351.538 184.577 347.289 184.577C343.039 184.577 339.577 188.039 339.577 192.289C339.577 196.538 343.039 200 347.289 200C351.538 200 355 196.538 355 192.289ZM308.862 7.71148C308.862 3.4623 305.4 0 301.151 0C296.902 0 293.439 3.4623 293.439 7.71148C293.439 11.9607 296.902 15.4229 301.151 15.4229C305.4 15.4229 308.862 11.9869 308.862 7.71148ZM308.862 53.8492C308.862 49.6 305.4 46.1377 301.151 46.1377C296.902 46.1377 293.439 49.6 293.439 53.8492C293.439 58.0984 296.902 61.5607 301.151 61.5607C305.4 61.5607 308.862 58.1246 308.862 53.8492ZM308.862 99.9869C308.862 95.7377 305.4 92.2754 301.151 92.2754C296.902 92.2754 293.439 95.7377 293.439 99.9869C293.439 104.236 296.902 107.698 301.151 107.698C305.4 107.725 308.862 104.262 308.862 99.9869ZM308.862 146.151C308.862 141.902 305.4 138.439 301.151 138.439C296.902 138.439 293.439 141.902 293.439 146.151C293.439 150.4 296.902 153.862 301.151 153.862C305.4 153.862 308.862 150.4 308.862 146.151ZM308.862 192.289C308.862 188.039 305.4 184.577 301.151 184.577C296.902 184.577 293.439 188.039 293.439 192.289C293.439 196.538 296.902 200 301.151 200C305.4 200 308.862 196.538 308.862 192.289ZM262.698 7.71148C262.698 3.4623 259.236 0 254.987 0C250.738 0 247.275 3.4623 247.275 7.71148C247.275 11.9607 250.738 15.4229 254.987 15.4229C259.262 15.4229 262.698 11.9869 262.698 7.71148ZM262.698 53.8492C262.698 49.6 259.236 46.1377 254.987 46.1377C250.738 46.1377 247.275 49.6 247.275 53.8492C247.275 58.0984 250.738 61.5607 254.987 61.5607C259.262 61.5607 262.698 58.1246 262.698 53.8492ZM262.698 99.9869C262.698 95.7377 259.236 92.2754 254.987 92.2754C250.738 92.2754 247.275 95.7377 247.275 99.9869C247.275 104.236 250.738 107.698 254.987 107.698C259.262 107.725 262.698 104.262 262.698 99.9869ZM262.698 146.151C262.698 141.902 259.236 138.439 254.987 138.439C250.738 138.439 247.275 141.902 247.275 146.151C247.275 150.4 250.738 153.862 254.987 153.862C259.262 153.862 262.698 150.4 262.698 146.151ZM262.698 192.289C262.698 188.039 259.236 184.577 254.987 184.577C250.738 184.577 247.275 188.039 247.275 192.289C247.275 196.538 250.738 200 254.987 200C259.262 200 262.698 196.538 262.698 192.289ZM216.561 7.71148C216.561 3.4623 213.098 0 208.849 0C204.6 0 201.138 3.4623 201.138 7.71148C201.138 11.9607 204.6 15.4229 208.849 15.4229C213.125 15.4229 216.561 11.9869 216.561 7.71148ZM216.561 53.8492C216.561 49.6 213.098 46.1377 208.849 46.1377C204.6 46.1377 201.138 49.6 201.138 53.8492C201.138 58.0984 204.6 61.5607 208.849 61.5607C213.125 61.5607 216.561 58.1246 216.561 53.8492ZM216.561 99.9869C216.561 95.7377 213.098 92.2754 208.849 92.2754C204.6 92.2754 201.138 95.7377 201.138 99.9869C201.138 104.236 204.6 107.698 208.849 107.698C213.125 107.725 216.561 104.262 216.561 99.9869ZM216.561 146.151C216.561 141.902 213.098 138.439 208.849 138.439C204.6 138.439 201.138 141.902 201.138 146.151C201.138 150.4 204.6 153.862 208.849 153.862C213.125 153.862 216.561 150.4 216.561 146.151ZM216.561 192.289C216.561 188.039 213.098 184.577 208.849 184.577C204.6 184.577 201.138 188.039 201.138 192.289C201.138 196.538 204.6 200 208.849 200C213.125 200 216.561 196.538 216.561 192.289ZM170.423 7.71148C170.423 3.4623 166.961 0 162.711 0C158.462 0 155 3.4623 155 7.71148C155 11.9607 158.462 15.4229 162.711 15.4229C166.961 15.4229 170.423 11.9869 170.423 7.71148ZM170.423 53.8492C170.423 49.6 166.961 46.1377 162.711 46.1377C158.462 46.1377 155 49.6 155 53.8492C155 58.0984 158.462 61.5607 162.711 61.5607C166.961 61.5607 170.423 58.1246 170.423 53.8492ZM170.423 99.9869C170.423 95.7377 166.961 92.2754 162.711 92.2754C158.462 92.2754 155 95.7377 155 99.9869C155 104.236 158.462 107.698 162.711 107.698C166.961 107.698 170.423 104.262 170.423 99.9869ZM170.423 146.151C170.423 141.902 166.961 138.439 162.711 138.439C158.462 138.439 155 141.902 155 146.151C155 150.4 158.462 153.862 162.711 153.862C166.961 153.862 170.423 150.4 170.423 146.151ZM170.423 192.289C170.423 188.039 166.961 184.577 162.711 184.577C158.462 184.577 155 188.039 155 192.289C155 196.538 158.462 200 162.711 200C166.961 200 170.423 196.538 170.423 192.289Z" fill="#ECF4D8"/>
<path d="M577.289 15.4229C573.039 15.4229 569.577 11.9607 569.577 7.71148C569.577 3.4623 573.039 0 577.289 0C581.538 0 585 3.4623 585 7.71148C585 11.9869 581.538 15.4229 577.289 15.4229ZM585 53.8492C585 49.6 581.538 46.1377 577.289 46.1377C573.039 46.1377 569.577 49.6 569.577 53.8492C569.577 58.0984 573.039 61.5607 577.289 61.5607C581.538 61.5607 585 58.1246 585 53.8492ZM585 99.9869C585 95.7377 581.538 92.2754 577.289 92.2754C573.039 92.2754 569.577 95.7377 569.577 99.9869C569.577 104.236 573.039 107.698 577.289 107.698C581.538 107.725 585 104.262 585 99.9869ZM585 146.151C585 141.902 581.538 138.439 577.289 138.439C573.039 138.439 569.577 141.902 569.577 146.151C569.577 150.4 573.039 153.862 577.289 153.862C581.538 153.862 585 150.4 585 146.151ZM585 192.289C585 188.039 581.538 184.577 577.289 184.577C573.039 184.577 569.577 188.039 569.577 192.289C569.577 196.538 573.039 200 577.289 200C581.538 200 585 196.538 585 192.289ZM538.862 7.71148C538.862 3.4623 535.4 0 531.151 0C526.902 0 523.439 3.4623 523.439 7.71148C523.439 11.9607 526.902 15.4229 531.151 15.4229C535.4 15.4229 538.862 11.9869 538.862 7.71148ZM538.862 53.8492C538.862 49.6 535.4 46.1377 531.151 46.1377C526.902 46.1377 523.439 49.6 523.439 53.8492C523.439 58.0984 526.902 61.5607 531.151 61.5607C535.4 61.5607 538.862 58.1246 538.862 53.8492ZM538.862 99.9869C538.862 95.7377 535.4 92.2754 531.151 92.2754C526.902 92.2754 523.439 95.7377 523.439 99.9869C523.439 104.236 526.902 107.698 531.151 107.698C535.4 107.725 538.862 104.262 538.862 99.9869ZM538.862 146.151C538.862 141.902 535.4 138.439 531.151 138.439C526.902 138.439 523.439 141.902 523.439 146.151C523.439 150.4 526.902 153.862 531.151 153.862C535.4 153.862 538.862 150.4 538.862 146.151ZM538.862 192.289C538.862 188.039 535.4 184.577 531.151 184.577C526.902 184.577 523.439 188.039 523.439 192.289C523.439 196.538 526.902 200 531.151 200C535.4 200 538.862 196.538 538.862 192.289ZM492.698 7.71148C492.698 3.4623 489.236 0 484.987 0C480.738 0 477.275 3.4623 477.275 7.71148C477.275 11.9607 480.738 15.4229 484.987 15.4229C489.262 15.4229 492.698 11.9869 492.698 7.71148ZM492.698 53.8492C492.698 49.6 489.236 46.1377 484.987 46.1377C480.738 46.1377 477.275 49.6 477.275 53.8492C477.275 58.0984 480.738 61.5607 484.987 61.5607C489.262 61.5607 492.698 58.1246 492.698 53.8492ZM492.698 99.9869C492.698 95.7377 489.236 92.2754 484.987 92.2754C480.738 92.2754 477.275 95.7377 477.275 99.9869C477.275 104.236 480.738 107.698 484.987 107.698C489.262 107.725 492.698 104.262 492.698 99.9869ZM492.698 146.151C492.698 141.902 489.236 138.439 484.987 138.439C480.738 138.439 477.275 141.902 477.275 146.151C477.275 150.4 480.738 153.862 484.987 153.862C489.262 153.862 492.698 150.4 492.698 146.151ZM492.698 192.289C492.698 188.039 489.236 184.577 484.987 184.577C480.738 184.577 477.275 188.039 477.275 192.289C477.275 196.538 480.738 200 484.987 200C489.262 200 492.698 196.538 492.698 192.289ZM446.561 7.71148C446.561 3.4623 443.098 0 438.849 0C434.6 0 431.138 3.4623 431.138 7.71148C431.138 11.9607 434.6 15.4229 438.849 15.4229C443.125 15.4229 446.561 11.9869 446.561 7.71148ZM446.561 53.8492C446.561 49.6 443.098 46.1377 438.849 46.1377C434.6 46.1377 431.138 49.6 431.138 53.8492C431.138 58.0984 434.6 61.5607 438.849 61.5607C443.125 61.5607 446.561 58.1246 446.561 53.8492ZM446.561 99.9869C446.561 95.7377 443.098 92.2754 438.849 92.2754C434.6 92.2754 431.138 95.7377 431.138 99.9869C431.138 104.236 434.6 107.698 438.849 107.698C443.125 107.725 446.561 104.262 446.561 99.9869ZM446.561 146.151C446.561 141.902 443.098 138.439 438.849 138.439C434.6 138.439 431.138 141.902 431.138 146.151C431.138 150.4 434.6 153.862 438.849 153.862C443.125 153.862 446.561 150.4 446.561 146.151ZM446.561 192.289C446.561 188.039 443.098 184.577 438.849 184.577C434.6 184.577 431.138 188.039 431.138 192.289C431.138 196.538 434.6 200 438.849 200C443.125 200 446.561 196.538 446.561 192.289ZM400.423 7.71148C400.423 3.4623 396.961 0 392.711 0C388.462 0 385 3.4623 385 7.71148C385 11.9607 388.462 15.4229 392.711 15.4229C396.961 15.4229 400.423 11.9869 400.423 7.71148ZM400.423 53.8492C400.423 49.6 396.961 46.1377 392.711 46.1377C388.462 46.1377 385 49.6 385 53.8492C385 58.0984 388.462 61.5607 392.711 61.5607C396.961 61.5607 400.423 58.1246 400.423 53.8492ZM400.423 99.9869C400.423 95.7377 396.961 92.2754 392.711 92.2754C388.462 92.2754 385 95.7377 385 99.9869C385 104.236 388.462 107.698 392.711 107.698C396.961 107.698 400.423 104.262 400.423 99.9869ZM400.423 146.151C400.423 141.902 396.961 138.439 392.711 138.439C388.462 138.439 385 141.902 385 146.151C385 150.4 388.462 153.862 392.711 153.862C396.961 153.862 400.423 150.4 400.423 146.151ZM400.423 192.289C400.423 188.039 396.961 184.577 392.711 184.577C388.462 184.577 385 188.039 385 192.289C385 196.538 388.462 200 392.711 200C396.961 200 400.423 196.538 400.423 192.289Z" fill="#ECF4D8"/>
<path d="M117.289 245.423C113.039 245.423 109.577 241.961 109.577 237.711C109.577 233.462 113.039 230 117.289 230C121.538 230 125 233.462 125 237.711C125 241.987 121.538 245.423 117.289 245.423ZM125 283.849C125 279.6 121.538 276.138 117.289 276.138C113.039 276.138 109.577 279.6 109.577 283.849C109.577 288.098 113.039 291.561 117.289 291.561C121.538 291.561 125 288.125 125 283.849ZM125 329.987C125 325.738 121.538 322.275 117.289 322.275C113.039 322.275 109.577 325.738 109.577 329.987C109.577 334.236 113.039 337.698 117.289 337.698C121.538 337.725 125 334.262 125 329.987ZM125 376.151C125 371.902 121.538 368.439 117.289 368.439C113.039 368.439 109.577 371.902 109.577 376.151C109.577 380.4 113.039 383.862 117.289 383.862C121.538 383.862 125 380.4 125 376.151ZM125 422.289C125 418.039 121.538 414.577 117.289 414.577C113.039 414.577 109.577 418.039 109.577 422.289C109.577 426.538 113.039 430 117.289 430C121.538 430 125 426.538 125 422.289ZM78.8622 237.711C78.8622 233.462 75.3999 230 71.1507 230C66.9016 230 63.4393 233.462 63.4393 237.711C63.4393 241.961 66.9016 245.423 71.1507 245.423C75.3999 245.423 78.8622 241.987 78.8622 237.711ZM78.8622 283.849C78.8622 279.6 75.3999 276.138 71.1507 276.138C66.9016 276.138 63.4393 279.6 63.4393 283.849C63.4393 288.098 66.9016 291.561 71.1507 291.561C75.3999 291.561 78.8622 288.125 78.8622 283.849ZM78.8622 329.987C78.8622 325.738 75.3999 322.275 71.1507 322.275C66.9016 322.275 63.4393 325.738 63.4393 329.987C63.4393 334.236 66.9016 337.698 71.1507 337.698C75.3999 337.725 78.8622 334.262 78.8622 329.987ZM78.8622 376.151C78.8622 371.902 75.3999 368.439 71.1507 368.439C66.9016 368.439 63.4393 371.902 63.4393 376.151C63.4393 380.4 66.9016 383.862 71.1507 383.862C75.3999 383.862 78.8622 380.4 78.8622 376.151ZM78.8622 422.289C78.8622 418.039 75.3999 414.577 71.1507 414.577C66.9016 414.577 63.4393 418.039 63.4393 422.289C63.4393 426.538 66.9016 430 71.1507 430C75.3999 430 78.8622 426.538 78.8622 422.289ZM32.6984 237.711C32.6984 233.462 29.2361 230 24.9869 230C20.7377 230 17.2754 233.462 17.2754 237.711C17.2754 241.961 20.7377 245.423 24.9869 245.423C29.2623 245.423 32.6984 241.987 32.6984 237.711ZM32.6984 283.849C32.6984 279.6 29.2361 276.138 24.9869 276.138C20.7377 276.138 17.2754 279.6 17.2754 283.849C17.2754 288.098 20.7377 291.561 24.9869 291.561C29.2623 291.561 32.6984 288.125 32.6984 283.849ZM32.6984 329.987C32.6984 325.738 29.2361 322.275 24.9869 322.275C20.7377 322.275 17.2754 325.738 17.2754 329.987C17.2754 334.236 20.7377 337.698 24.9869 337.698C29.2623 337.725 32.6984 334.262 32.6984 329.987ZM32.6984 376.151C32.6984 371.902 29.2361 368.439 24.9869 368.439C20.7377 368.439 17.2754 371.902 17.2754 376.151C17.2754 380.4 20.7377 383.862 24.9869 383.862C29.2623 383.862 32.6984 380.4 32.6984 376.151ZM32.6984 422.289C32.6984 418.039 29.2361 414.577 24.9869 414.577C20.7377 414.577 17.2754 418.039 17.2754 422.289C17.2754 426.538 20.7377 430 24.9869 430C29.2623 430 32.6984 426.538 32.6984 422.289ZM-13.4394 237.711C-13.4394 233.462 -16.9017 230 -21.1509 230C-25.4001 230 -28.8622 233.462 -28.8622 237.711C-28.8622 241.961 -25.4001 245.423 -21.1509 245.423C-16.8755 245.423 -13.4394 241.987 -13.4394 237.711ZM-13.4394 283.849C-13.4394 279.6 -16.9017 276.138 -21.1509 276.138C-25.4001 276.138 -28.8622 279.6 -28.8622 283.849C-28.8622 288.098 -25.4001 291.561 -21.1509 291.561C-16.8755 291.561 -13.4394 288.125 -13.4394 283.849ZM-13.4394 329.987C-13.4394 325.738 -16.9017 322.275 -21.1509 322.275C-25.4001 322.275 -28.8622 325.738 -28.8622 329.987C-28.8622 334.236 -25.4001 337.698 -21.1509 337.698C-16.8755 337.725 -13.4394 334.262 -13.4394 329.987ZM-13.4394 376.151C-13.4394 371.902 -16.9017 368.439 -21.1509 368.439C-25.4001 368.439 -28.8622 371.902 -28.8622 376.151C-28.8622 380.4 -25.4001 383.862 -21.1509 383.862C-16.8755 383.862 -13.4394 380.4 -13.4394 376.151ZM-13.4394 422.289C-13.4394 418.039 -16.9017 414.577 -21.1509 414.577C-25.4001 414.577 -28.8622 418.039 -28.8622 422.289C-28.8622 426.538 -25.4001 430 -21.1509 430C-16.8755 430 -13.4394 426.538 -13.4394 422.289ZM-59.577 237.711C-59.577 233.462 -63.0393 230 -67.2885 230C-71.5377 230 -75 233.462 -75 237.711C-75 241.961 -71.5377 245.423 -67.2885 245.423C-63.0393 245.423 -59.577 241.987 -59.577 237.711ZM-59.577 283.849C-59.577 279.6 -63.0393 276.138 -67.2885 276.138C-71.5377 276.138 -75 279.6 -75 283.849C-75 288.098 -71.5377 291.561 -67.2885 291.561C-63.0393 291.561 -59.577 288.125 -59.577 283.849ZM-59.577 329.987C-59.577 325.738 -63.0393 322.275 -67.2885 322.275C-71.5377 322.275 -75 325.738 -75 329.987C-75 334.236 -71.5377 337.698 -67.2885 337.698C-63.0393 337.698 -59.577 334.262 -59.577 329.987ZM-59.577 376.151C-59.577 371.902 -63.0393 368.439 -67.2885 368.439C-71.5377 368.439 -75 371.902 -75 376.151C-75 380.4 -71.5377 383.862 -67.2885 383.862C-63.0393 383.862 -59.577 380.4 -59.577 376.151ZM-59.577 422.289C-59.577 418.039 -63.0393 414.577 -67.2885 414.577C-71.5377 414.577 -75 418.039 -75 422.289C-75 426.538 -71.5377 430 -67.2885 430C-63.0393 430 -59.577 426.538 -59.577 422.289Z" fill="#ECF4D8"/>
<path d="M347.289 245.423C343.039 245.423 339.577 241.961 339.577 237.711C339.577 233.462 343.039 230 347.289 230C351.538 230 355 233.462 355 237.711C355 241.987 351.538 245.423 347.289 245.423ZM355 283.849C355 279.6 351.538 276.138 347.289 276.138C343.039 276.138 339.577 279.6 339.577 283.849C339.577 288.098 343.039 291.561 347.289 291.561C351.538 291.561 355 288.125 355 283.849ZM355 329.987C355 325.738 351.538 322.275 347.289 322.275C343.039 322.275 339.577 325.738 339.577 329.987C339.577 334.236 343.039 337.698 347.289 337.698C351.538 337.725 355 334.262 355 329.987ZM355 376.151C355 371.902 351.538 368.439 347.289 368.439C343.039 368.439 339.577 371.902 339.577 376.151C339.577 380.4 343.039 383.862 347.289 383.862C351.538 383.862 355 380.4 355 376.151ZM355 422.289C355 418.039 351.538 414.577 347.289 414.577C343.039 414.577 339.577 418.039 339.577 422.289C339.577 426.538 343.039 430 347.289 430C351.538 430 355 426.538 355 422.289ZM308.862 237.711C308.862 233.462 305.4 230 301.151 230C296.902 230 293.439 233.462 293.439 237.711C293.439 241.961 296.902 245.423 301.151 245.423C305.4 245.423 308.862 241.987 308.862 237.711ZM308.862 283.849C308.862 279.6 305.4 276.138 301.151 276.138C296.902 276.138 293.439 279.6 293.439 283.849C293.439 288.098 296.902 291.561 301.151 291.561C305.4 291.561 308.862 288.125 308.862 283.849ZM308.862 329.987C308.862 325.738 305.4 322.275 301.151 322.275C296.902 322.275 293.439 325.738 293.439 329.987C293.439 334.236 296.902 337.698 301.151 337.698C305.4 337.725 308.862 334.262 308.862 329.987ZM308.862 376.151C308.862 371.902 305.4 368.439 301.151 368.439C296.902 368.439 293.439 371.902 293.439 376.151C293.439 380.4 296.902 383.862 301.151 383.862C305.4 383.862 308.862 380.4 308.862 376.151ZM308.862 422.289C308.862 418.039 305.4 414.577 301.151 414.577C296.902 414.577 293.439 418.039 293.439 422.289C293.439 426.538 296.902 430 301.151 430C305.4 430 308.862 426.538 308.862 422.289ZM262.698 237.711C262.698 233.462 259.236 230 254.987 230C250.738 230 247.275 233.462 247.275 237.711C247.275 241.961 250.738 245.423 254.987 245.423C259.262 245.423 262.698 241.987 262.698 237.711ZM262.698 283.849C262.698 279.6 259.236 276.138 254.987 276.138C250.738 276.138 247.275 279.6 247.275 283.849C247.275 288.098 250.738 291.561 254.987 291.561C259.262 291.561 262.698 288.125 262.698 283.849ZM262.698 329.987C262.698 325.738 259.236 322.275 254.987 322.275C250.738 322.275 247.275 325.738 247.275 329.987C247.275 334.236 250.738 337.698 254.987 337.698C259.262 337.725 262.698 334.262 262.698 329.987ZM262.698 376.151C262.698 371.902 259.236 368.439 254.987 368.439C250.738 368.439 247.275 371.902 247.275 376.151C247.275 380.4 250.738 383.862 254.987 383.862C259.262 383.862 262.698 380.4 262.698 376.151ZM262.698 422.289C262.698 418.039 259.236 414.577 254.987 414.577C250.738 414.577 247.275 418.039 247.275 422.289C247.275 426.538 250.738 430 254.987 430C259.262 430 262.698 426.538 262.698 422.289ZM216.561 237.711C216.561 233.462 213.098 230 208.849 230C204.6 230 201.138 233.462 201.138 237.711C201.138 241.961 204.6 245.423 208.849 245.423C213.125 245.423 216.561 241.987 216.561 237.711ZM216.561 283.849C216.561 279.6 213.098 276.138 208.849 276.138C204.6 276.138 201.138 279.6 201.138 283.849C201.138 288.098 204.6 291.561 208.849 291.561C213.125 291.561 216.561 288.125 216.561 283.849ZM216.561 329.987C216.561 325.738 213.098 322.275 208.849 322.275C204.6 322.275 201.138 325.738 201.138 329.987C201.138 334.236 204.6 337.698 208.849 337.698C213.125 337.725 216.561 334.262 216.561 329.987ZM216.561 376.151C216.561 371.902 213.098 368.439 208.849 368.439C204.6 368.439 201.138 371.902 201.138 376.151C201.138 380.4 204.6 383.862 208.849 383.862C213.125 383.862 216.561 380.4 216.561 376.151ZM216.561 422.289C216.561 418.039 213.098 414.577 208.849 414.577C204.6 414.577 201.138 418.039 201.138 422.289C201.138 426.538 204.6 430 208.849 430C213.125 430 216.561 426.538 216.561 422.289ZM170.423 237.711C170.423 233.462 166.961 230 162.711 230C158.462 230 155 233.462 155 237.711C155 241.961 158.462 245.423 162.711 245.423C166.961 245.423 170.423 241.987 170.423 237.711ZM170.423 283.849C170.423 279.6 166.961 276.138 162.711 276.138C158.462 276.138 155 279.6 155 283.849C155 288.098 158.462 291.561 162.711 291.561C166.961 291.561 170.423 288.125 170.423 283.849ZM170.423 329.987C170.423 325.738 166.961 322.275 162.711 322.275C158.462 322.275 155 325.738 155 329.987C155 334.236 158.462 337.698 162.711 337.698C166.961 337.698 170.423 334.262 170.423 329.987ZM170.423 376.151C170.423 371.902 166.961 368.439 162.711 368.439C158.462 368.439 155 371.902 155 376.151C155 380.4 158.462 383.862 162.711 383.862C166.961 383.862 170.423 380.4 170.423 376.151ZM170.423 422.289C170.423 418.039 166.961 414.577 162.711 414.577C158.462 414.577 155 418.039 155 422.289C155 426.538 158.462 430 162.711 430C166.961 430 170.423 426.538 170.423 422.289Z" fill="#ECF4D8"/>
<path d="M577.289 245.423C573.039 245.423 569.577 241.961 569.577 237.711C569.577 233.462 573.039 230 577.289 230C581.538 230 585 233.462 585 237.711C585 241.987 581.538 245.423 577.289 245.423ZM585 283.849C585 279.6 581.538 276.138 577.289 276.138C573.039 276.138 569.577 279.6 569.577 283.849C569.577 288.098 573.039 291.561 577.289 291.561C581.538 291.561 585 288.125 585 283.849ZM585 329.987C585 325.738 581.538 322.275 577.289 322.275C573.039 322.275 569.577 325.738 569.577 329.987C569.577 334.236 573.039 337.698 577.289 337.698C581.538 337.725 585 334.262 585 329.987ZM585 376.151C585 371.902 581.538 368.439 577.289 368.439C573.039 368.439 569.577 371.902 569.577 376.151C569.577 380.4 573.039 383.862 577.289 383.862C581.538 383.862 585 380.4 585 376.151ZM585 422.289C585 418.039 581.538 414.577 577.289 414.577C573.039 414.577 569.577 418.039 569.577 422.289C569.577 426.538 573.039 430 577.289 430C581.538 430 585 426.538 585 422.289ZM538.862 237.711C538.862 233.462 535.4 230 531.151 230C526.902 230 523.439 233.462 523.439 237.711C523.439 241.961 526.902 245.423 531.151 245.423C535.4 245.423 538.862 241.987 538.862 237.711ZM538.862 283.849C538.862 279.6 535.4 276.138 531.151 276.138C526.902 276.138 523.439 279.6 523.439 283.849C523.439 288.098 526.902 291.561 531.151 291.561C535.4 291.561 538.862 288.125 538.862 283.849ZM538.862 329.987C538.862 325.738 535.4 322.275 531.151 322.275C526.902 322.275 523.439 325.738 523.439 329.987C523.439 334.236 526.902 337.698 531.151 337.698C535.4 337.725 538.862 334.262 538.862 329.987ZM538.862 376.151C538.862 371.902 535.4 368.439 531.151 368.439C526.902 368.439 523.439 371.902 523.439 376.151C523.439 380.4 526.902 383.862 531.151 383.862C535.4 383.862 538.862 380.4 538.862 376.151ZM538.862 422.289C538.862 418.039 535.4 414.577 531.151 414.577C526.902 414.577 523.439 418.039 523.439 422.289C523.439 426.538 526.902 430 531.151 430C535.4 430 538.862 426.538 538.862 422.289ZM492.698 237.711C492.698 233.462 489.236 230 484.987 230C480.738 230 477.275 233.462 477.275 237.711C477.275 241.961 480.738 245.423 484.987 245.423C489.262 245.423 492.698 241.987 492.698 237.711ZM492.698 283.849C492.698 279.6 489.236 276.138 484.987 276.138C480.738 276.138 477.275 279.6 477.275 283.849C477.275 288.098 480.738 291.561 484.987 291.561C489.262 291.561 492.698 288.125 492.698 283.849ZM492.698 329.987C492.698 325.738 489.236 322.275 484.987 322.275C480.738 322.275 477.275 325.738 477.275 329.987C477.275 334.236 480.738 337.698 484.987 337.698C489.262 337.725 492.698 334.262 492.698 329.987ZM492.698 376.151C492.698 371.902 489.236 368.439 484.987 368.439C480.738 368.439 477.275 371.902 477.275 376.151C477.275 380.4 480.738 383.862 484.987 383.862C489.262 383.862 492.698 380.4 492.698 376.151ZM492.698 422.289C492.698 418.039 489.236 414.577 484.987 414.577C480.738 414.577 477.275 418.039 477.275 422.289C477.275 426.538 480.738 430 484.987 430C489.262 430 492.698 426.538 492.698 422.289ZM446.561 237.711C446.561 233.462 443.098 230 438.849 230C434.6 230 431.138 233.462 431.138 237.711C431.138 241.961 434.6 245.423 438.849 245.423C443.125 245.423 446.561 241.987 446.561 237.711ZM446.561 283.849C446.561 279.6 443.098 276.138 438.849 276.138C434.6 276.138 431.138 279.6 431.138 283.849C431.138 288.098 434.6 291.561 438.849 291.561C443.125 291.561 446.561 288.125 446.561 283.849ZM446.561 329.987C446.561 325.738 443.098 322.275 438.849 322.275C434.6 322.275 431.138 325.738 431.138 329.987C431.138 334.236 434.6 337.698 438.849 337.698C443.125 337.725 446.561 334.262 446.561 329.987ZM446.561 376.151C446.561 371.902 443.098 368.439 438.849 368.439C434.6 368.439 431.138 371.902 431.138 376.151C431.138 380.4 434.6 383.862 438.849 383.862C443.125 383.862 446.561 380.4 446.561 376.151ZM446.561 422.289C446.561 418.039 443.098 414.577 438.849 414.577C434.6 414.577 431.138 418.039 431.138 422.289C431.138 426.538 434.6 430 438.849 430C443.125 430 446.561 426.538 446.561 422.289ZM400.423 237.711C400.423 233.462 396.961 230 392.711 230C388.462 230 385 233.462 385 237.711C385 241.961 388.462 245.423 392.711 245.423C396.961 245.423 400.423 241.987 400.423 237.711ZM400.423 283.849C400.423 279.6 396.961 276.138 392.711 276.138C388.462 276.138 385 279.6 385 283.849C385 288.098 388.462 291.561 392.711 291.561C396.961 291.561 400.423 288.125 400.423 283.849ZM400.423 329.987C400.423 325.738 396.961 322.275 392.711 322.275C388.462 322.275 385 325.738 385 329.987C385 334.236 388.462 337.698 392.711 337.698C396.961 337.698 400.423 334.262 400.423 329.987ZM400.423 376.151C400.423 371.902 396.961 368.439 392.711 368.439C388.462 368.439 385 371.902 385 376.151C385 380.4 388.462 383.862 392.711 383.862C396.961 383.862 400.423 380.4 400.423 376.151ZM400.423 422.289C400.423 418.039 396.961 414.577 392.711 414.577C388.462 414.577 385 418.039 385 422.289C385 426.538 388.462 430 392.711 430C396.961 430 400.423 426.538 400.423 422.289Z" fill="#ECF4D8"/>
<path d="M807.289 245.423C803.039 245.423 799.577 241.961 799.577 237.711C799.577 233.462 803.039 230 807.289 230C811.538 230 815 233.462 815 237.711C815 241.987 811.538 245.423 807.289 245.423ZM815 283.849C815 279.6 811.538 276.138 807.289 276.138C803.039 276.138 799.577 279.6 799.577 283.849C799.577 288.098 803.039 291.561 807.289 291.561C811.538 291.561 815 288.125 815 283.849ZM815 329.987C815 325.738 811.538 322.275 807.289 322.275C803.039 322.275 799.577 325.738 799.577 329.987C799.577 334.236 803.039 337.698 807.289 337.698C811.538 337.725 815 334.262 815 329.987ZM815 376.151C815 371.902 811.538 368.439 807.289 368.439C803.039 368.439 799.577 371.902 799.577 376.151C799.577 380.4 803.039 383.862 807.289 383.862C811.538 383.862 815 380.4 815 376.151ZM815 422.289C815 418.039 811.538 414.577 807.289 414.577C803.039 414.577 799.577 418.039 799.577 422.289C799.577 426.538 803.039 430 807.289 430C811.538 430 815 426.538 815 422.289ZM768.862 237.711C768.862 233.462 765.4 230 761.151 230C756.902 230 753.439 233.462 753.439 237.711C753.439 241.961 756.902 245.423 761.151 245.423C765.4 245.423 768.862 241.987 768.862 237.711ZM768.862 283.849C768.862 279.6 765.4 276.138 761.151 276.138C756.902 276.138 753.439 279.6 753.439 283.849C753.439 288.098 756.902 291.561 761.151 291.561C765.4 291.561 768.862 288.125 768.862 283.849ZM768.862 329.987C768.862 325.738 765.4 322.275 761.151 322.275C756.902 322.275 753.439 325.738 753.439 329.987C753.439 334.236 756.902 337.698 761.151 337.698C765.4 337.725 768.862 334.262 768.862 329.987ZM768.862 376.151C768.862 371.902 765.4 368.439 761.151 368.439C756.902 368.439 753.439 371.902 753.439 376.151C753.439 380.4 756.902 383.862 761.151 383.862C765.4 383.862 768.862 380.4 768.862 376.151ZM768.862 422.289C768.862 418.039 765.4 414.577 761.151 414.577C756.902 414.577 753.439 418.039 753.439 422.289C753.439 426.538 756.902 430 761.151 430C765.4 430 768.862 426.538 768.862 422.289ZM722.698 237.711C722.698 233.462 719.236 230 714.987 230C710.738 230 707.275 233.462 707.275 237.711C707.275 241.961 710.738 245.423 714.987 245.423C719.262 245.423 722.698 241.987 722.698 237.711ZM722.698 283.849C722.698 279.6 719.236 276.138 714.987 276.138C710.738 276.138 707.275 279.6 707.275 283.849C707.275 288.098 710.738 291.561 714.987 291.561C719.262 291.561 722.698 288.125 722.698 283.849ZM722.698 329.987C722.698 325.738 719.236 322.275 714.987 322.275C710.738 322.275 707.275 325.738 707.275 329.987C707.275 334.236 710.738 337.698 714.987 337.698C719.262 337.725 722.698 334.262 722.698 329.987ZM722.698 376.151C722.698 371.902 719.236 368.439 714.987 368.439C710.738 368.439 707.275 371.902 707.275 376.151C707.275 380.4 710.738 383.862 714.987 383.862C719.262 383.862 722.698 380.4 722.698 376.151ZM722.698 422.289C722.698 418.039 719.236 414.577 714.987 414.577C710.738 414.577 707.275 418.039 707.275 422.289C707.275 426.538 710.738 430 714.987 430C719.262 430 722.698 426.538 722.698 422.289ZM676.561 237.711C676.561 233.462 673.098 230 668.849 230C664.6 230 661.138 233.462 661.138 237.711C661.138 241.961 664.6 245.423 668.849 245.423C673.125 245.423 676.561 241.987 676.561 237.711ZM676.561 283.849C676.561 279.6 673.098 276.138 668.849 276.138C664.6 276.138 661.138 279.6 661.138 283.849C661.138 288.098 664.6 291.561 668.849 291.561C673.125 291.561 676.561 288.125 676.561 283.849ZM676.561 329.987C676.561 325.738 673.098 322.275 668.849 322.275C664.6 322.275 661.138 325.738 661.138 329.987C661.138 334.236 664.6 337.698 668.849 337.698C673.125 337.725 676.561 334.262 676.561 329.987ZM676.561 376.151C676.561 371.902 673.098 368.439 668.849 368.439C664.6 368.439 661.138 371.902 661.138 376.151C661.138 380.4 664.6 383.862 668.849 383.862C673.125 383.862 676.561 380.4 676.561 376.151ZM676.561 422.289C676.561 418.039 673.098 414.577 668.849 414.577C664.6 414.577 661.138 418.039 661.138 422.289C661.138 426.538 664.6 430 668.849 430C673.125 430 676.561 426.538 676.561 422.289ZM630.423 237.711C630.423 233.462 626.961 230 622.711 230C618.462 230 615 233.462 615 237.711C615 241.961 618.462 245.423 622.711 245.423C626.961 245.423 630.423 241.987 630.423 237.711ZM630.423 283.849C630.423 279.6 626.961 276.138 622.711 276.138C618.462 276.138 615 279.6 615 283.849C615 288.098 618.462 291.561 622.711 291.561C626.961 291.561 630.423 288.125 630.423 283.849ZM630.423 329.987C630.423 325.738 626.961 322.275 622.711 322.275C618.462 322.275 615 325.738 615 329.987C615 334.236 618.462 337.698 622.711 337.698C626.961 337.698 630.423 334.262 630.423 329.987ZM630.423 376.151C630.423 371.902 626.961 368.439 622.711 368.439C618.462 368.439 615 371.902 615 376.151C615 380.4 618.462 383.862 622.711 383.862C626.961 383.862 630.423 380.4 630.423 376.151ZM630.423 422.289C630.423 418.039 626.961 414.577 622.711 414.577C618.462 414.577 615 418.039 615 422.289C615 426.538 618.462 430 622.711 430C626.961 430 630.423 426.538 630.423 422.289Z" fill="#ECF4D8"/>
</svg>
