<svg width="100" height="580" viewBox="0 0 100 580" fill="none" xmlns="http://www.w3.org/2000/svg">
<path d="M96.1443 7.71147C94.0197 7.71147 92.2885 5.98033 92.2885 3.85574C92.2885 1.73115 94.0197 0 96.1443 0C98.2688 0 100 1.73115 100 3.85574C100 5.99345 98.2688 7.71147 96.1443 7.71147ZM100 26.9246C100 24.8 98.2688 23.0689 96.1443 23.0689C94.0197 23.0689 92.2885 24.8 92.2885 26.9246C92.2885 29.0492 94.0197 30.7803 96.1443 30.7803C98.2688 30.7803 100 29.0623 100 26.9246ZM100 49.9934C100 47.8689 98.2688 46.1377 96.1443 46.1377C94.0197 46.1377 92.2885 47.8689 92.2885 49.9934C92.2885 52.118 94.0197 53.8492 96.1443 53.8492C98.2688 53.8623 100 52.1311 100 49.9934ZM100 73.0754C100 70.9508 98.2688 69.2197 96.1443 69.2197C94.0197 69.2197 92.2885 70.9508 92.2885 73.0754C92.2885 75.2 94.0197 76.9312 96.1443 76.9312C98.2688 76.9312 100 75.2 100 73.0754ZM100 96.1443C100 94.0197 98.2688 92.2885 96.1443 92.2885C94.0197 92.2885 92.2885 94.0197 92.2885 96.1443C92.2885 98.2688 94.0197 100 96.1443 100C98.2688 100 100 98.2688 100 96.1443ZM76.9311 3.85574C76.9311 1.73115 75.2 0 73.0754 0C70.9508 0 69.2196 1.73115 69.2196 3.85574C69.2196 5.98033 70.9508 7.71147 73.0754 7.71147C75.2 7.71147 76.9311 5.99345 76.9311 3.85574ZM76.9311 26.9246C76.9311 24.8 75.2 23.0689 73.0754 23.0689C70.9508 23.0689 69.2196 24.8 69.2196 26.9246C69.2196 29.0492 70.9508 30.7803 73.0754 30.7803C75.2 30.7803 76.9311 29.0623 76.9311 26.9246ZM76.9311 49.9934C76.9311 47.8689 75.2 46.1377 73.0754 46.1377C70.9508 46.1377 69.2196 47.8689 69.2196 49.9934C69.2196 52.118 70.9508 53.8492 73.0754 53.8492C75.2 53.8623 76.9311 52.1311 76.9311 49.9934ZM76.9311 73.0754C76.9311 70.9508 75.2 69.2197 73.0754 69.2197C70.9508 69.2197 69.2196 70.9508 69.2196 73.0754C69.2196 75.2 70.9508 76.9312 73.0754 76.9312C75.2 76.9312 76.9311 75.2 76.9311 73.0754ZM76.9311 96.1443C76.9311 94.0197 75.2 92.2885 73.0754 92.2885C70.9508 92.2885 69.2196 94.0197 69.2196 96.1443C69.2196 98.2688 70.9508 100 73.0754 100C75.2 100 76.9311 98.2688 76.9311 96.1443ZM53.8492 3.85574C53.8492 1.73115 52.118 0 49.9934 0C47.8688 0 46.1377 1.73115 46.1377 3.85574C46.1377 5.98033 47.8688 7.71147 49.9934 7.71147C52.1311 7.71147 53.8492 5.99345 53.8492 3.85574ZM53.8492 26.9246C53.8492 24.8 52.118 23.0689 49.9934 23.0689C47.8688 23.0689 46.1377 24.8 46.1377 26.9246C46.1377 29.0492 47.8688 30.7803 49.9934 30.7803C52.1311 30.7803 53.8492 29.0623 53.8492 26.9246ZM53.8492 49.9934C53.8492 47.8689 52.118 46.1377 49.9934 46.1377C47.8688 46.1377 46.1377 47.8689 46.1377 49.9934C46.1377 52.118 47.8688 53.8492 49.9934 53.8492C52.1311 53.8623 53.8492 52.1311 53.8492 49.9934ZM53.8492 73.0754C53.8492 70.9508 52.118 69.2197 49.9934 69.2197C47.8688 69.2197 46.1377 70.9508 46.1377 73.0754C46.1377 75.2 47.8688 76.9312 49.9934 76.9312C52.1311 76.9312 53.8492 75.2 53.8492 73.0754ZM53.8492 96.1443C53.8492 94.0197 52.118 92.2885 49.9934 92.2885C47.8688 92.2885 46.1377 94.0197 46.1377 96.1443C46.1377 98.2688 47.8688 100 49.9934 100C52.1311 100 53.8492 98.2688 53.8492 96.1443ZM30.7803 3.85574C30.7803 1.73115 29.0491 0 26.9245 0C24.8 0 23.0689 1.73115 23.0689 3.85574C23.0689 5.98033 24.8 7.71147 26.9245 7.71147C29.0623 7.71147 30.7803 5.99345 30.7803 3.85574ZM30.7803 26.9246C30.7803 24.8 29.0491 23.0689 26.9245 23.0689C24.8 23.0689 23.0689 24.8 23.0689 26.9246C23.0689 29.0492 24.8 30.7803 26.9245 30.7803C29.0623 30.7803 30.7803 29.0623 30.7803 26.9246ZM30.7803 49.9934C30.7803 47.8689 29.0491 46.1377 26.9245 46.1377C24.8 46.1377 23.0689 47.8689 23.0689 49.9934C23.0689 52.118 24.8 53.8492 26.9245 53.8492C29.0623 53.8623 30.7803 52.1311 30.7803 49.9934ZM30.7803 73.0754C30.7803 70.9508 29.0491 69.2197 26.9245 69.2197C24.8 69.2197 23.0689 70.9508 23.0689 73.0754C23.0689 75.2 24.8 76.9312 26.9245 76.9312C29.0623 76.9312 30.7803 75.2 30.7803 73.0754ZM30.7803 96.1443C30.7803 94.0197 29.0491 92.2885 26.9245 92.2885C24.8 92.2885 23.0689 94.0197 23.0689 96.1443C23.0689 98.2688 24.8 100 26.9245 100C29.0623 100 30.7803 98.2688 30.7803 96.1443ZM7.71148 3.85574C7.71148 1.73115 5.98033 0 3.85574 0C1.73115 0 0 1.73115 0 3.85574C0 5.98033 1.73115 7.71147 3.85574 7.71147C5.98033 7.71147 7.71148 5.99345 7.71148 3.85574ZM7.71148 26.9246C7.71148 24.8 5.98033 23.0689 3.85574 23.0689C1.73115 23.0689 0 24.8 0 26.9246C0 29.0492 1.73115 30.7803 3.85574 30.7803C5.98033 30.7803 7.71148 29.0623 7.71148 26.9246ZM7.71148 49.9934C7.71148 47.8689 5.98033 46.1377 3.85574 46.1377C1.73115 46.1377 0 47.8689 0 49.9934C0 52.118 1.73115 53.8492 3.85574 53.8492C5.98033 53.8492 7.71148 52.1311 7.71148 49.9934ZM7.71148 73.0754C7.71148 70.9508 5.98033 69.2197 3.85574 69.2197C1.73115 69.2197 0 70.9508 0 73.0754C0 75.2 1.73115 76.9312 3.85574 76.9312C5.98033 76.9312 7.71148 75.2 7.71148 73.0754ZM7.71148 96.1443C7.71148 94.0197 5.98033 92.2885 3.85574 92.2885C1.73115 92.2885 0 94.0197 0 96.1443C0 98.2688 1.73115 100 3.85574 100C5.98033 100 7.71148 98.2688 7.71148 96.1443Z" fill="#ECF4D8"/>
<path d="M96.1443 127.711C94.0197 127.711 92.2885 125.98 92.2885 123.856C92.2885 121.731 94.0197 120 96.1443 120C98.2688 120 100 121.731 100 123.856C100 125.993 98.2688 127.711 96.1443 127.711ZM100 146.925C100 144.8 98.2688 143.069 96.1443 143.069C94.0197 143.069 92.2885 144.8 92.2885 146.925C92.2885 149.049 94.0197 150.78 96.1443 150.78C98.2688 150.78 100 149.062 100 146.925ZM100 169.993C100 167.869 98.2688 166.138 96.1443 166.138C94.0197 166.138 92.2885 167.869 92.2885 169.993C92.2885 172.118 94.0197 173.849 96.1443 173.849C98.2688 173.862 100 172.131 100 169.993ZM100 193.075C100 190.951 98.2688 189.22 96.1443 189.22C94.0197 189.22 92.2885 190.951 92.2885 193.075C92.2885 195.2 94.0197 196.931 96.1443 196.931C98.2688 196.931 100 195.2 100 193.075ZM100 216.144C100 214.02 98.2688 212.289 96.1443 212.289C94.0197 212.289 92.2885 214.02 92.2885 216.144C92.2885 218.269 94.0197 220 96.1443 220C98.2688 220 100 218.269 100 216.144ZM76.9311 123.856C76.9311 121.731 75.2 120 73.0754 120C70.9508 120 69.2196 121.731 69.2196 123.856C69.2196 125.98 70.9508 127.711 73.0754 127.711C75.2 127.711 76.9311 125.993 76.9311 123.856ZM76.9311 146.925C76.9311 144.8 75.2 143.069 73.0754 143.069C70.9508 143.069 69.2196 144.8 69.2196 146.925C69.2196 149.049 70.9508 150.78 73.0754 150.78C75.2 150.78 76.9311 149.062 76.9311 146.925ZM76.9311 169.993C76.9311 167.869 75.2 166.138 73.0754 166.138C70.9508 166.138 69.2196 167.869 69.2196 169.993C69.2196 172.118 70.9508 173.849 73.0754 173.849C75.2 173.862 76.9311 172.131 76.9311 169.993ZM76.9311 193.075C76.9311 190.951 75.2 189.22 73.0754 189.22C70.9508 189.22 69.2196 190.951 69.2196 193.075C69.2196 195.2 70.9508 196.931 73.0754 196.931C75.2 196.931 76.9311 195.2 76.9311 193.075ZM76.9311 216.144C76.9311 214.02 75.2 212.289 73.0754 212.289C70.9508 212.289 69.2196 214.02 69.2196 216.144C69.2196 218.269 70.9508 220 73.0754 220C75.2 220 76.9311 218.269 76.9311 216.144ZM53.8492 123.856C53.8492 121.731 52.118 120 49.9934 120C47.8688 120 46.1377 121.731 46.1377 123.856C46.1377 125.98 47.8688 127.711 49.9934 127.711C52.1311 127.711 53.8492 125.993 53.8492 123.856ZM53.8492 146.925C53.8492 144.8 52.118 143.069 49.9934 143.069C47.8688 143.069 46.1377 144.8 46.1377 146.925C46.1377 149.049 47.8688 150.78 49.9934 150.78C52.1311 150.78 53.8492 149.062 53.8492 146.925ZM53.8492 169.993C53.8492 167.869 52.118 166.138 49.9934 166.138C47.8688 166.138 46.1377 167.869 46.1377 169.993C46.1377 172.118 47.8688 173.849 49.9934 173.849C52.1311 173.862 53.8492 172.131 53.8492 169.993ZM53.8492 193.075C53.8492 190.951 52.118 189.22 49.9934 189.22C47.8688 189.22 46.1377 190.951 46.1377 193.075C46.1377 195.2 47.8688 196.931 49.9934 196.931C52.1311 196.931 53.8492 195.2 53.8492 193.075ZM53.8492 216.144C53.8492 214.02 52.118 212.289 49.9934 212.289C47.8688 212.289 46.1377 214.02 46.1377 216.144C46.1377 218.269 47.8688 220 49.9934 220C52.1311 220 53.8492 218.269 53.8492 216.144ZM30.7803 123.856C30.7803 121.731 29.0491 120 26.9245 120C24.8 120 23.0689 121.731 23.0689 123.856C23.0689 125.98 24.8 127.711 26.9245 127.711C29.0623 127.711 30.7803 125.993 30.7803 123.856ZM30.7803 146.925C30.7803 144.8 29.0491 143.069 26.9245 143.069C24.8 143.069 23.0689 144.8 23.0689 146.925C23.0689 149.049 24.8 150.78 26.9245 150.78C29.0623 150.78 30.7803 149.062 30.7803 146.925ZM30.7803 169.993C30.7803 167.869 29.0491 166.138 26.9245 166.138C24.8 166.138 23.0689 167.869 23.0689 169.993C23.0689 172.118 24.8 173.849 26.9245 173.849C29.0623 173.862 30.7803 172.131 30.7803 169.993ZM30.7803 193.075C30.7803 190.951 29.0491 189.22 26.9245 189.22C24.8 189.22 23.0689 190.951 23.0689 193.075C23.0689 195.2 24.8 196.931 26.9245 196.931C29.0623 196.931 30.7803 195.2 30.7803 193.075ZM30.7803 216.144C30.7803 214.02 29.0491 212.289 26.9245 212.289C24.8 212.289 23.0689 214.02 23.0689 216.144C23.0689 218.269 24.8 220 26.9245 220C29.0623 220 30.7803 218.269 30.7803 216.144ZM7.71148 123.856C7.71148 121.731 5.98033 120 3.85574 120C1.73115 120 0 121.731 0 123.856C0 125.98 1.73115 127.711 3.85574 127.711C5.98033 127.711 7.71148 125.993 7.71148 123.856ZM7.71148 146.925C7.71148 144.8 5.98033 143.069 3.85574 143.069C1.73115 143.069 0 144.8 0 146.925C0 149.049 1.73115 150.78 3.85574 150.78C5.98033 150.78 7.71148 149.062 7.71148 146.925ZM7.71148 169.993C7.71148 167.869 5.98033 166.138 3.85574 166.138C1.73115 166.138 0 167.869 0 169.993C0 172.118 1.73115 173.849 3.85574 173.849C5.98033 173.849 7.71148 172.131 7.71148 169.993ZM7.71148 193.075C7.71148 190.951 5.98033 189.22 3.85574 189.22C1.73115 189.22 0 190.951 0 193.075C0 195.2 1.73115 196.931 3.85574 196.931C5.98033 196.931 7.71148 195.2 7.71148 193.075ZM7.71148 216.144C7.71148 214.02 5.98033 212.289 3.85574 212.289C1.73115 212.289 0 214.02 0 216.144C0 218.269 1.73115 220 3.85574 220C5.98033 220 7.71148 218.269 7.71148 216.144Z" fill="#ECF4D8"/>
<path d="M96.1443 247.711C94.0197 247.711 92.2885 245.98 92.2885 243.856C92.2885 241.731 94.0197 240 96.1443 240C98.2688 240 100 241.731 100 243.856C100 245.993 98.2688 247.711 96.1443 247.711ZM100 266.925C100 264.8 98.2688 263.069 96.1443 263.069C94.0197 263.069 92.2885 264.8 92.2885 266.925C92.2885 269.049 94.0197 270.78 96.1443 270.78C98.2688 270.78 100 269.062 100 266.925ZM100 289.993C100 287.869 98.2688 286.138 96.1443 286.138C94.0197 286.138 92.2885 287.869 92.2885 289.993C92.2885 292.118 94.0197 293.849 96.1443 293.849C98.2688 293.862 100 292.131 100 289.993ZM100 313.075C100 310.951 98.2688 309.22 96.1443 309.22C94.0197 309.22 92.2885 310.951 92.2885 313.075C92.2885 315.2 94.0197 316.931 96.1443 316.931C98.2688 316.931 100 315.2 100 313.075ZM100 336.144C100 334.02 98.2688 332.289 96.1443 332.289C94.0197 332.289 92.2885 334.02 92.2885 336.144C92.2885 338.269 94.0197 340 96.1443 340C98.2688 340 100 338.269 100 336.144ZM76.9311 243.856C76.9311 241.731 75.2 240 73.0754 240C70.9508 240 69.2196 241.731 69.2196 243.856C69.2196 245.98 70.9508 247.711 73.0754 247.711C75.2 247.711 76.9311 245.993 76.9311 243.856ZM76.9311 266.925C76.9311 264.8 75.2 263.069 73.0754 263.069C70.9508 263.069 69.2196 264.8 69.2196 266.925C69.2196 269.049 70.9508 270.78 73.0754 270.78C75.2 270.78 76.9311 269.062 76.9311 266.925ZM76.9311 289.993C76.9311 287.869 75.2 286.138 73.0754 286.138C70.9508 286.138 69.2196 287.869 69.2196 289.993C69.2196 292.118 70.9508 293.849 73.0754 293.849C75.2 293.862 76.9311 292.131 76.9311 289.993ZM76.9311 313.075C76.9311 310.951 75.2 309.22 73.0754 309.22C70.9508 309.22 69.2196 310.951 69.2196 313.075C69.2196 315.2 70.9508 316.931 73.0754 316.931C75.2 316.931 76.9311 315.2 76.9311 313.075ZM76.9311 336.144C76.9311 334.02 75.2 332.289 73.0754 332.289C70.9508 332.289 69.2196 334.02 69.2196 336.144C69.2196 338.269 70.9508 340 73.0754 340C75.2 340 76.9311 338.269 76.9311 336.144ZM53.8492 243.856C53.8492 241.731 52.118 240 49.9934 240C47.8688 240 46.1377 241.731 46.1377 243.856C46.1377 245.98 47.8688 247.711 49.9934 247.711C52.1311 247.711 53.8492 245.993 53.8492 243.856ZM53.8492 266.925C53.8492 264.8 52.118 263.069 49.9934 263.069C47.8688 263.069 46.1377 264.8 46.1377 266.925C46.1377 269.049 47.8688 270.78 49.9934 270.78C52.1311 270.78 53.8492 269.062 53.8492 266.925ZM53.8492 289.993C53.8492 287.869 52.118 286.138 49.9934 286.138C47.8688 286.138 46.1377 287.869 46.1377 289.993C46.1377 292.118 47.8688 293.849 49.9934 293.849C52.1311 293.862 53.8492 292.131 53.8492 289.993ZM53.8492 313.075C53.8492 310.951 52.118 309.22 49.9934 309.22C47.8688 309.22 46.1377 310.951 46.1377 313.075C46.1377 315.2 47.8688 316.931 49.9934 316.931C52.1311 316.931 53.8492 315.2 53.8492 313.075ZM53.8492 336.144C53.8492 334.02 52.118 332.289 49.9934 332.289C47.8688 332.289 46.1377 334.02 46.1377 336.144C46.1377 338.269 47.8688 340 49.9934 340C52.1311 340 53.8492 338.269 53.8492 336.144ZM30.7803 243.856C30.7803 241.731 29.0491 240 26.9245 240C24.8 240 23.0689 241.731 23.0689 243.856C23.0689 245.98 24.8 247.711 26.9245 247.711C29.0623 247.711 30.7803 245.993 30.7803 243.856ZM30.7803 266.925C30.7803 264.8 29.0491 263.069 26.9245 263.069C24.8 263.069 23.0689 264.8 23.0689 266.925C23.0689 269.049 24.8 270.78 26.9245 270.78C29.0623 270.78 30.7803 269.062 30.7803 266.925ZM30.7803 289.993C30.7803 287.869 29.0491 286.138 26.9245 286.138C24.8 286.138 23.0689 287.869 23.0689 289.993C23.0689 292.118 24.8 293.849 26.9245 293.849C29.0623 293.862 30.7803 292.131 30.7803 289.993ZM30.7803 313.075C30.7803 310.951 29.0491 309.22 26.9245 309.22C24.8 309.22 23.0689 310.951 23.0689 313.075C23.0689 315.2 24.8 316.931 26.9245 316.931C29.0623 316.931 30.7803 315.2 30.7803 313.075ZM30.7803 336.144C30.7803 334.02 29.0491 332.289 26.9245 332.289C24.8 332.289 23.0689 334.02 23.0689 336.144C23.0689 338.269 24.8 340 26.9245 340C29.0623 340 30.7803 338.269 30.7803 336.144ZM7.71148 243.856C7.71148 241.731 5.98033 240 3.85574 240C1.73115 240 0 241.731 0 243.856C0 245.98 1.73115 247.711 3.85574 247.711C5.98033 247.711 7.71148 245.993 7.71148 243.856ZM7.71148 266.925C7.71148 264.8 5.98033 263.069 3.85574 263.069C1.73115 263.069 0 264.8 0 266.925C0 269.049 1.73115 270.78 3.85574 270.78C5.98033 270.78 7.71148 269.062 7.71148 266.925ZM7.71148 289.993C7.71148 287.869 5.98033 286.138 3.85574 286.138C1.73115 286.138 0 287.869 0 289.993C0 292.118 1.73115 293.849 3.85574 293.849C5.98033 293.849 7.71148 292.131 7.71148 289.993ZM7.71148 313.075C7.71148 310.951 5.98033 309.22 3.85574 309.22C1.73115 309.22 0 310.951 0 313.075C0 315.2 1.73115 316.931 3.85574 316.931C5.98033 316.931 7.71148 315.2 7.71148 313.075ZM7.71148 336.144C7.71148 334.02 5.98033 332.289 3.85574 332.289C1.73115 332.289 0 334.02 0 336.144C0 338.269 1.73115 340 3.85574 340C5.98033 340 7.71148 338.269 7.71148 336.144Z" fill="#ECF4D8"/>
<path d="M96.1443 367.711C94.0197 367.711 92.2885 365.98 92.2885 363.856C92.2885 361.731 94.0197 360 96.1443 360C98.2688 360 100 361.731 100 363.856C100 365.993 98.2688 367.711 96.1443 367.711ZM100 386.925C100 384.8 98.2688 383.069 96.1443 383.069C94.0197 383.069 92.2885 384.8 92.2885 386.925C92.2885 389.049 94.0197 390.78 96.1443 390.78C98.2688 390.78 100 389.062 100 386.925ZM100 409.993C100 407.869 98.2688 406.138 96.1443 406.138C94.0197 406.138 92.2885 407.869 92.2885 409.993C92.2885 412.118 94.0197 413.849 96.1443 413.849C98.2688 413.862 100 412.131 100 409.993ZM100 433.075C100 430.951 98.2688 429.22 96.1443 429.22C94.0197 429.22 92.2885 430.951 92.2885 433.075C92.2885 435.2 94.0197 436.931 96.1443 436.931C98.2688 436.931 100 435.2 100 433.075ZM100 456.144C100 454.02 98.2688 452.289 96.1443 452.289C94.0197 452.289 92.2885 454.02 92.2885 456.144C92.2885 458.269 94.0197 460 96.1443 460C98.2688 460 100 458.269 100 456.144ZM76.9311 363.856C76.9311 361.731 75.2 360 73.0754 360C70.9508 360 69.2196 361.731 69.2196 363.856C69.2196 365.98 70.9508 367.711 73.0754 367.711C75.2 367.711 76.9311 365.993 76.9311 363.856ZM76.9311 386.925C76.9311 384.8 75.2 383.069 73.0754 383.069C70.9508 383.069 69.2196 384.8 69.2196 386.925C69.2196 389.049 70.9508 390.78 73.0754 390.78C75.2 390.78 76.9311 389.062 76.9311 386.925ZM76.9311 409.993C76.9311 407.869 75.2 406.138 73.0754 406.138C70.9508 406.138 69.2196 407.869 69.2196 409.993C69.2196 412.118 70.9508 413.849 73.0754 413.849C75.2 413.862 76.9311 412.131 76.9311 409.993ZM76.9311 433.075C76.9311 430.951 75.2 429.22 73.0754 429.22C70.9508 429.22 69.2196 430.951 69.2196 433.075C69.2196 435.2 70.9508 436.931 73.0754 436.931C75.2 436.931 76.9311 435.2 76.9311 433.075ZM76.9311 456.144C76.9311 454.02 75.2 452.289 73.0754 452.289C70.9508 452.289 69.2196 454.02 69.2196 456.144C69.2196 458.269 70.9508 460 73.0754 460C75.2 460 76.9311 458.269 76.9311 456.144ZM53.8492 363.856C53.8492 361.731 52.118 360 49.9934 360C47.8688 360 46.1377 361.731 46.1377 363.856C46.1377 365.98 47.8688 367.711 49.9934 367.711C52.1311 367.711 53.8492 365.993 53.8492 363.856ZM53.8492 386.925C53.8492 384.8 52.118 383.069 49.9934 383.069C47.8688 383.069 46.1377 384.8 46.1377 386.925C46.1377 389.049 47.8688 390.78 49.9934 390.78C52.1311 390.78 53.8492 389.062 53.8492 386.925ZM53.8492 409.993C53.8492 407.869 52.118 406.138 49.9934 406.138C47.8688 406.138 46.1377 407.869 46.1377 409.993C46.1377 412.118 47.8688 413.849 49.9934 413.849C52.1311 413.862 53.8492 412.131 53.8492 409.993ZM53.8492 433.075C53.8492 430.951 52.118 429.22 49.9934 429.22C47.8688 429.22 46.1377 430.951 46.1377 433.075C46.1377 435.2 47.8688 436.931 49.9934 436.931C52.1311 436.931 53.8492 435.2 53.8492 433.075ZM53.8492 456.144C53.8492 454.02 52.118 452.289 49.9934 452.289C47.8688 452.289 46.1377 454.02 46.1377 456.144C46.1377 458.269 47.8688 460 49.9934 460C52.1311 460 53.8492 458.269 53.8492 456.144ZM30.7803 363.856C30.7803 361.731 29.0491 360 26.9245 360C24.8 360 23.0689 361.731 23.0689 363.856C23.0689 365.98 24.8 367.711 26.9245 367.711C29.0623 367.711 30.7803 365.993 30.7803 363.856ZM30.7803 386.925C30.7803 384.8 29.0491 383.069 26.9245 383.069C24.8 383.069 23.0689 384.8 23.0689 386.925C23.0689 389.049 24.8 390.78 26.9245 390.78C29.0623 390.78 30.7803 389.062 30.7803 386.925ZM30.7803 409.993C30.7803 407.869 29.0491 406.138 26.9245 406.138C24.8 406.138 23.0689 407.869 23.0689 409.993C23.0689 412.118 24.8 413.849 26.9245 413.849C29.0623 413.862 30.7803 412.131 30.7803 409.993ZM30.7803 433.075C30.7803 430.951 29.0491 429.22 26.9245 429.22C24.8 429.22 23.0689 430.951 23.0689 433.075C23.0689 435.2 24.8 436.931 26.9245 436.931C29.0623 436.931 30.7803 435.2 30.7803 433.075ZM30.7803 456.144C30.7803 454.02 29.0491 452.289 26.9245 452.289C24.8 452.289 23.0689 454.02 23.0689 456.144C23.0689 458.269 24.8 460 26.9245 460C29.0623 460 30.7803 458.269 30.7803 456.144ZM7.71148 363.856C7.71148 361.731 5.98033 360 3.85574 360C1.73115 360 0 361.731 0 363.856C0 365.98 1.73115 367.711 3.85574 367.711C5.98033 367.711 7.71148 365.993 7.71148 363.856ZM7.71148 386.925C7.71148 384.8 5.98033 383.069 3.85574 383.069C1.73115 383.069 0 384.8 0 386.925C0 389.049 1.73115 390.78 3.85574 390.78C5.98033 390.78 7.71148 389.062 7.71148 386.925ZM7.71148 409.993C7.71148 407.869 5.98033 406.138 3.85574 406.138C1.73115 406.138 0 407.869 0 409.993C0 412.118 1.73115 413.849 3.85574 413.849C5.98033 413.849 7.71148 412.131 7.71148 409.993ZM7.71148 433.075C7.71148 430.951 5.98033 429.22 3.85574 429.22C1.73115 429.22 0 430.951 0 433.075C0 435.2 1.73115 436.931 3.85574 436.931C5.98033 436.931 7.71148 435.2 7.71148 433.075ZM7.71148 456.144C7.71148 454.02 5.98033 452.289 3.85574 452.289C1.73115 452.289 0 454.02 0 456.144C0 458.269 1.73115 460 3.85574 460C5.98033 460 7.71148 458.269 7.71148 456.144Z" fill="#ECF4D8"/>
<path d="M96.1443 487.711C94.0197 487.711 92.2885 485.98 92.2885 483.856C92.2885 481.731 94.0197 480 96.1443 480C98.2688 480 100 481.731 100 483.856C100 485.993 98.2688 487.711 96.1443 487.711ZM100 506.925C100 504.8 98.2688 503.069 96.1443 503.069C94.0197 503.069 92.2885 504.8 92.2885 506.925C92.2885 509.049 94.0197 510.78 96.1443 510.78C98.2688 510.78 100 509.062 100 506.925ZM100 529.993C100 527.869 98.2688 526.138 96.1443 526.138C94.0197 526.138 92.2885 527.869 92.2885 529.993C92.2885 532.118 94.0197 533.849 96.1443 533.849C98.2688 533.862 100 532.131 100 529.993ZM100 553.075C100 550.951 98.2688 549.22 96.1443 549.22C94.0197 549.22 92.2885 550.951 92.2885 553.075C92.2885 555.2 94.0197 556.931 96.1443 556.931C98.2688 556.931 100 555.2 100 553.075ZM100 576.144C100 574.02 98.2688 572.289 96.1443 572.289C94.0197 572.289 92.2885 574.02 92.2885 576.144C92.2885 578.269 94.0197 580 96.1443 580C98.2688 580 100 578.269 100 576.144ZM76.9311 483.856C76.9311 481.731 75.2 480 73.0754 480C70.9508 480 69.2196 481.731 69.2196 483.856C69.2196 485.98 70.9508 487.711 73.0754 487.711C75.2 487.711 76.9311 485.993 76.9311 483.856ZM76.9311 506.925C76.9311 504.8 75.2 503.069 73.0754 503.069C70.9508 503.069 69.2196 504.8 69.2196 506.925C69.2196 509.049 70.9508 510.78 73.0754 510.78C75.2 510.78 76.9311 509.062 76.9311 506.925ZM76.9311 529.993C76.9311 527.869 75.2 526.138 73.0754 526.138C70.9508 526.138 69.2196 527.869 69.2196 529.993C69.2196 532.118 70.9508 533.849 73.0754 533.849C75.2 533.862 76.9311 532.131 76.9311 529.993ZM76.9311 553.075C76.9311 550.951 75.2 549.22 73.0754 549.22C70.9508 549.22 69.2196 550.951 69.2196 553.075C69.2196 555.2 70.9508 556.931 73.0754 556.931C75.2 556.931 76.9311 555.2 76.9311 553.075ZM76.9311 576.144C76.9311 574.02 75.2 572.289 73.0754 572.289C70.9508 572.289 69.2196 574.02 69.2196 576.144C69.2196 578.269 70.9508 580 73.0754 580C75.2 580 76.9311 578.269 76.9311 576.144ZM53.8492 483.856C53.8492 481.731 52.118 480 49.9934 480C47.8688 480 46.1377 481.731 46.1377 483.856C46.1377 485.98 47.8688 487.711 49.9934 487.711C52.1311 487.711 53.8492 485.993 53.8492 483.856ZM53.8492 506.925C53.8492 504.8 52.118 503.069 49.9934 503.069C47.8688 503.069 46.1377 504.8 46.1377 506.925C46.1377 509.049 47.8688 510.78 49.9934 510.78C52.1311 510.78 53.8492 509.062 53.8492 506.925ZM53.8492 529.993C53.8492 527.869 52.118 526.138 49.9934 526.138C47.8688 526.138 46.1377 527.869 46.1377 529.993C46.1377 532.118 47.8688 533.849 49.9934 533.849C52.1311 533.862 53.8492 532.131 53.8492 529.993ZM53.8492 553.075C53.8492 550.951 52.118 549.22 49.9934 549.22C47.8688 549.22 46.1377 550.951 46.1377 553.075C46.1377 555.2 47.8688 556.931 49.9934 556.931C52.1311 556.931 53.8492 555.2 53.8492 553.075ZM53.8492 576.144C53.8492 574.02 52.118 572.289 49.9934 572.289C47.8688 572.289 46.1377 574.02 46.1377 576.144C46.1377 578.269 47.8688 580 49.9934 580C52.1311 580 53.8492 578.269 53.8492 576.144ZM30.7803 483.856C30.7803 481.731 29.0491 480 26.9245 480C24.8 480 23.0689 481.731 23.0689 483.856C23.0689 485.98 24.8 487.711 26.9245 487.711C29.0623 487.711 30.7803 485.993 30.7803 483.856ZM30.7803 506.925C30.7803 504.8 29.0491 503.069 26.9245 503.069C24.8 503.069 23.0689 504.8 23.0689 506.925C23.0689 509.049 24.8 510.78 26.9245 510.78C29.0623 510.78 30.7803 509.062 30.7803 506.925ZM30.7803 529.993C30.7803 527.869 29.0491 526.138 26.9245 526.138C24.8 526.138 23.0689 527.869 23.0689 529.993C23.0689 532.118 24.8 533.849 26.9245 533.849C29.0623 533.862 30.7803 532.131 30.7803 529.993ZM30.7803 553.075C30.7803 550.951 29.0491 549.22 26.9245 549.22C24.8 549.22 23.0689 550.951 23.0689 553.075C23.0689 555.2 24.8 556.931 26.9245 556.931C29.0623 556.931 30.7803 555.2 30.7803 553.075ZM30.7803 576.144C30.7803 574.02 29.0491 572.289 26.9245 572.289C24.8 572.289 23.0689 574.02 23.0689 576.144C23.0689 578.269 24.8 580 26.9245 580C29.0623 580 30.7803 578.269 30.7803 576.144ZM7.71148 483.856C7.71148 481.731 5.98033 480 3.85574 480C1.73115 480 0 481.731 0 483.856C0 485.98 1.73115 487.711 3.85574 487.711C5.98033 487.711 7.71148 485.993 7.71148 483.856ZM7.71148 506.925C7.71148 504.8 5.98033 503.069 3.85574 503.069C1.73115 503.069 0 504.8 0 506.925C0 509.049 1.73115 510.78 3.85574 510.78C5.98033 510.78 7.71148 509.062 7.71148 506.925ZM7.71148 529.993C7.71148 527.869 5.98033 526.138 3.85574 526.138C1.73115 526.138 0 527.869 0 529.993C0 532.118 1.73115 533.849 3.85574 533.849C5.98033 533.849 7.71148 532.131 7.71148 529.993ZM7.71148 553.075C7.71148 550.951 5.98033 549.22 3.85574 549.22C1.73115 549.22 0 550.951 0 553.075C0 555.2 1.73115 556.931 3.85574 556.931C5.98033 556.931 7.71148 555.2 7.71148 553.075ZM7.71148 576.144C7.71148 574.02 5.98033 572.289 3.85574 572.289C1.73115 572.289 0 574.02 0 576.144C0 578.269 1.73115 580 3.85574 580C5.98033 580 7.71148 578.269 7.71148 576.144Z" fill="#ECF4D8"/>
</svg>
