<svg width="490" height="890" viewBox="0 0 490 890" fill="none" xmlns="http://www.w3.org/2000/svg">
<path d="M22.2885 15.4229C18.0393 15.4229 14.577 11.9607 14.577 7.71148C14.577 3.4623 18.0393 0 22.2885 0C26.5377 0 30 3.4623 30 7.71148C30 11.9869 26.5377 15.4229 22.2885 15.4229ZM30 53.8492C30 49.6 26.5377 46.1377 22.2885 46.1377C18.0393 46.1377 14.577 49.6 14.577 53.8492C14.577 58.0984 18.0393 61.5607 22.2885 61.5607C26.5377 61.5607 30 58.1246 30 53.8492ZM30 99.9869C30 95.7377 26.5377 92.2754 22.2885 92.2754C18.0393 92.2754 14.577 95.7377 14.577 99.9869C14.577 104.236 18.0393 107.698 22.2885 107.698C26.5377 107.725 30 104.262 30 99.9869ZM30 146.151C30 141.902 26.5377 138.439 22.2885 138.439C18.0393 138.439 14.577 141.902 14.577 146.151C14.577 150.4 18.0393 153.862 22.2885 153.862C26.5377 153.862 30 150.4 30 146.151ZM30 192.289C30 188.039 26.5377 184.577 22.2885 184.577C18.0393 184.577 14.577 188.039 14.577 192.289C14.577 196.538 18.0393 200 22.2885 200C26.5377 200 30 196.538 30 192.289ZM-16.1378 7.71148C-16.1378 3.4623 -19.6001 0 -23.8493 0C-28.0984 0 -31.5607 3.4623 -31.5607 7.71148C-31.5607 11.9607 -28.0984 15.4229 -23.8493 15.4229C-19.6001 15.4229 -16.1378 11.9869 -16.1378 7.71148ZM-16.1378 53.8492C-16.1378 49.6 -19.6001 46.1377 -23.8493 46.1377C-28.0984 46.1377 -31.5607 49.6 -31.5607 53.8492C-31.5607 58.0984 -28.0984 61.5607 -23.8493 61.5607C-19.6001 61.5607 -16.1378 58.1246 -16.1378 53.8492ZM-16.1378 99.9869C-16.1378 95.7377 -19.6001 92.2754 -23.8493 92.2754C-28.0984 92.2754 -31.5607 95.7377 -31.5607 99.9869C-31.5607 104.236 -28.0984 107.698 -23.8493 107.698C-19.6001 107.725 -16.1378 104.262 -16.1378 99.9869ZM-16.1378 146.151C-16.1378 141.902 -19.6001 138.439 -23.8493 138.439C-28.0984 138.439 -31.5607 141.902 -31.5607 146.151C-31.5607 150.4 -28.0984 153.862 -23.8493 153.862C-19.6001 153.862 -16.1378 150.4 -16.1378 146.151ZM-16.1378 192.289C-16.1378 188.039 -19.6001 184.577 -23.8493 184.577C-28.0984 184.577 -31.5607 188.039 -31.5607 192.289C-31.5607 196.538 -28.0984 200 -23.8493 200C-19.6001 200 -16.1378 196.538 -16.1378 192.289ZM-62.3016 7.71148C-62.3016 3.4623 -65.7639 0 -70.0131 0C-74.2623 0 -77.7246 3.4623 -77.7246 7.71148C-77.7246 11.9607 -74.2623 15.4229 -70.0131 15.4229C-65.7377 15.4229 -62.3016 11.9869 -62.3016 7.71148ZM-62.3016 53.8492C-62.3016 49.6 -65.7639 46.1377 -70.0131 46.1377C-74.2623 46.1377 -77.7246 49.6 -77.7246 53.8492C-77.7246 58.0984 -74.2623 61.5607 -70.0131 61.5607C-65.7377 61.5607 -62.3016 58.1246 -62.3016 53.8492ZM-62.3016 99.9869C-62.3016 95.7377 -65.7639 92.2754 -70.0131 92.2754C-74.2623 92.2754 -77.7246 95.7377 -77.7246 99.9869C-77.7246 104.236 -74.2623 107.698 -70.0131 107.698C-65.7377 107.725 -62.3016 104.262 -62.3016 99.9869ZM-62.3016 146.151C-62.3016 141.902 -65.7639 138.439 -70.0131 138.439C-74.2623 138.439 -77.7246 141.902 -77.7246 146.151C-77.7246 150.4 -74.2623 153.862 -70.0131 153.862C-65.7377 153.862 -62.3016 150.4 -62.3016 146.151ZM-62.3016 192.289C-62.3016 188.039 -65.7639 184.577 -70.0131 184.577C-74.2623 184.577 -77.7246 188.039 -77.7246 192.289C-77.7246 196.538 -74.2623 200 -70.0131 200C-65.7377 200 -62.3016 196.538 -62.3016 192.289ZM-108.439 7.71148C-108.439 3.4623 -111.902 0 -116.151 0C-120.4 0 -123.862 3.4623 -123.862 7.71148C-123.862 11.9607 -120.4 15.4229 -116.151 15.4229C-111.875 15.4229 -108.439 11.9869 -108.439 7.71148ZM-108.439 53.8492C-108.439 49.6 -111.902 46.1377 -116.151 46.1377C-120.4 46.1377 -123.862 49.6 -123.862 53.8492C-123.862 58.0984 -120.4 61.5607 -116.151 61.5607C-111.875 61.5607 -108.439 58.1246 -108.439 53.8492ZM-108.439 99.9869C-108.439 95.7377 -111.902 92.2754 -116.151 92.2754C-120.4 92.2754 -123.862 95.7377 -123.862 99.9869C-123.862 104.236 -120.4 107.698 -116.151 107.698C-111.875 107.725 -108.439 104.262 -108.439 99.9869ZM-108.439 146.151C-108.439 141.902 -111.902 138.439 -116.151 138.439C-120.4 138.439 -123.862 141.902 -123.862 146.151C-123.862 150.4 -120.4 153.862 -116.151 153.862C-111.875 153.862 -108.439 150.4 -108.439 146.151ZM-108.439 192.289C-108.439 188.039 -111.902 184.577 -116.151 184.577C-120.4 184.577 -123.862 188.039 -123.862 192.289C-123.862 196.538 -120.4 200 -116.151 200C-111.875 200 -108.439 196.538 -108.439 192.289ZM-154.577 7.71148C-154.577 3.4623 -158.039 0 -162.289 0C-166.538 0 -170 3.4623 -170 7.71148C-170 11.9607 -166.538 15.4229 -162.289 15.4229C-158.039 15.4229 -154.577 11.9869 -154.577 7.71148ZM-154.577 53.8492C-154.577 49.6 -158.039 46.1377 -162.289 46.1377C-166.538 46.1377 -170 49.6 -170 53.8492C-170 58.0984 -166.538 61.5607 -162.289 61.5607C-158.039 61.5607 -154.577 58.1246 -154.577 53.8492ZM-154.577 99.9869C-154.577 95.7377 -158.039 92.2754 -162.289 92.2754C-166.538 92.2754 -170 95.7377 -170 99.9869C-170 104.236 -166.538 107.698 -162.289 107.698C-158.039 107.698 -154.577 104.262 -154.577 99.9869ZM-154.577 146.151C-154.577 141.902 -158.039 138.439 -162.289 138.439C-166.538 138.439 -170 141.902 -170 146.151C-170 150.4 -166.538 153.862 -162.289 153.862C-158.039 153.862 -154.577 150.4 -154.577 146.151ZM-154.577 192.289C-154.577 188.039 -158.039 184.577 -162.289 184.577C-166.538 184.577 -170 188.039 -170 192.289C-170 196.538 -166.538 200 -162.289 200C-158.039 200 -154.577 196.538 -154.577 192.289Z" fill="#ECF4D8"/>
<path d="M252.289 15.4229C248.039 15.4229 244.577 11.9607 244.577 7.71148C244.577 3.4623 248.039 0 252.289 0C256.538 0 260 3.4623 260 7.71148C260 11.9869 256.538 15.4229 252.289 15.4229ZM260 53.8492C260 49.6 256.538 46.1377 252.289 46.1377C248.039 46.1377 244.577 49.6 244.577 53.8492C244.577 58.0984 248.039 61.5607 252.289 61.5607C256.538 61.5607 260 58.1246 260 53.8492ZM260 99.9869C260 95.7377 256.538 92.2754 252.289 92.2754C248.039 92.2754 244.577 95.7377 244.577 99.9869C244.577 104.236 248.039 107.698 252.289 107.698C256.538 107.725 260 104.262 260 99.9869ZM260 146.151C260 141.902 256.538 138.439 252.289 138.439C248.039 138.439 244.577 141.902 244.577 146.151C244.577 150.4 248.039 153.862 252.289 153.862C256.538 153.862 260 150.4 260 146.151ZM260 192.289C260 188.039 256.538 184.577 252.289 184.577C248.039 184.577 244.577 188.039 244.577 192.289C244.577 196.538 248.039 200 252.289 200C256.538 200 260 196.538 260 192.289ZM213.862 7.71148C213.862 3.4623 210.4 0 206.151 0C201.902 0 198.439 3.4623 198.439 7.71148C198.439 11.9607 201.902 15.4229 206.151 15.4229C210.4 15.4229 213.862 11.9869 213.862 7.71148ZM213.862 53.8492C213.862 49.6 210.4 46.1377 206.151 46.1377C201.902 46.1377 198.439 49.6 198.439 53.8492C198.439 58.0984 201.902 61.5607 206.151 61.5607C210.4 61.5607 213.862 58.1246 213.862 53.8492ZM213.862 99.9869C213.862 95.7377 210.4 92.2754 206.151 92.2754C201.902 92.2754 198.439 95.7377 198.439 99.9869C198.439 104.236 201.902 107.698 206.151 107.698C210.4 107.725 213.862 104.262 213.862 99.9869ZM213.862 146.151C213.862 141.902 210.4 138.439 206.151 138.439C201.902 138.439 198.439 141.902 198.439 146.151C198.439 150.4 201.902 153.862 206.151 153.862C210.4 153.862 213.862 150.4 213.862 146.151ZM213.862 192.289C213.862 188.039 210.4 184.577 206.151 184.577C201.902 184.577 198.439 188.039 198.439 192.289C198.439 196.538 201.902 200 206.151 200C210.4 200 213.862 196.538 213.862 192.289ZM167.698 7.71148C167.698 3.4623 164.236 0 159.987 0C155.738 0 152.275 3.4623 152.275 7.71148C152.275 11.9607 155.738 15.4229 159.987 15.4229C164.262 15.4229 167.698 11.9869 167.698 7.71148ZM167.698 53.8492C167.698 49.6 164.236 46.1377 159.987 46.1377C155.738 46.1377 152.275 49.6 152.275 53.8492C152.275 58.0984 155.738 61.5607 159.987 61.5607C164.262 61.5607 167.698 58.1246 167.698 53.8492ZM167.698 99.9869C167.698 95.7377 164.236 92.2754 159.987 92.2754C155.738 92.2754 152.275 95.7377 152.275 99.9869C152.275 104.236 155.738 107.698 159.987 107.698C164.262 107.725 167.698 104.262 167.698 99.9869ZM167.698 146.151C167.698 141.902 164.236 138.439 159.987 138.439C155.738 138.439 152.275 141.902 152.275 146.151C152.275 150.4 155.738 153.862 159.987 153.862C164.262 153.862 167.698 150.4 167.698 146.151ZM167.698 192.289C167.698 188.039 164.236 184.577 159.987 184.577C155.738 184.577 152.275 188.039 152.275 192.289C152.275 196.538 155.738 200 159.987 200C164.262 200 167.698 196.538 167.698 192.289ZM121.561 7.71148C121.561 3.4623 118.098 0 113.849 0C109.6 0 106.138 3.4623 106.138 7.71148C106.138 11.9607 109.6 15.4229 113.849 15.4229C118.125 15.4229 121.561 11.9869 121.561 7.71148ZM121.561 53.8492C121.561 49.6 118.098 46.1377 113.849 46.1377C109.6 46.1377 106.138 49.6 106.138 53.8492C106.138 58.0984 109.6 61.5607 113.849 61.5607C118.125 61.5607 121.561 58.1246 121.561 53.8492ZM121.561 99.9869C121.561 95.7377 118.098 92.2754 113.849 92.2754C109.6 92.2754 106.138 95.7377 106.138 99.9869C106.138 104.236 109.6 107.698 113.849 107.698C118.125 107.725 121.561 104.262 121.561 99.9869ZM121.561 146.151C121.561 141.902 118.098 138.439 113.849 138.439C109.6 138.439 106.138 141.902 106.138 146.151C106.138 150.4 109.6 153.862 113.849 153.862C118.125 153.862 121.561 150.4 121.561 146.151ZM121.561 192.289C121.561 188.039 118.098 184.577 113.849 184.577C109.6 184.577 106.138 188.039 106.138 192.289C106.138 196.538 109.6 200 113.849 200C118.125 200 121.561 196.538 121.561 192.289ZM75.423 7.71148C75.423 3.4623 71.9607 0 67.7115 0C63.4623 0 60 3.4623 60 7.71148C60 11.9607 63.4623 15.4229 67.7115 15.4229C71.9607 15.4229 75.423 11.9869 75.423 7.71148ZM75.423 53.8492C75.423 49.6 71.9607 46.1377 67.7115 46.1377C63.4623 46.1377 60 49.6 60 53.8492C60 58.0984 63.4623 61.5607 67.7115 61.5607C71.9607 61.5607 75.423 58.1246 75.423 53.8492ZM75.423 99.9869C75.423 95.7377 71.9607 92.2754 67.7115 92.2754C63.4623 92.2754 60 95.7377 60 99.9869C60 104.236 63.4623 107.698 67.7115 107.698C71.9607 107.698 75.423 104.262 75.423 99.9869ZM75.423 146.151C75.423 141.902 71.9607 138.439 67.7115 138.439C63.4623 138.439 60 141.902 60 146.151C60 150.4 63.4623 153.862 67.7115 153.862C71.9607 153.862 75.423 150.4 75.423 146.151ZM75.423 192.289C75.423 188.039 71.9607 184.577 67.7115 184.577C63.4623 184.577 60 188.039 60 192.289C60 196.538 63.4623 200 67.7115 200C71.9607 200 75.423 196.538 75.423 192.289Z" fill="#ECF4D8"/>
<path d="M482.289 15.4229C478.039 15.4229 474.577 11.9607 474.577 7.71148C474.577 3.4623 478.039 0 482.289 0C486.538 0 490 3.4623 490 7.71148C490 11.9869 486.538 15.4229 482.289 15.4229ZM490 53.8492C490 49.6 486.538 46.1377 482.289 46.1377C478.039 46.1377 474.577 49.6 474.577 53.8492C474.577 58.0984 478.039 61.5607 482.289 61.5607C486.538 61.5607 490 58.1246 490 53.8492ZM490 99.9869C490 95.7377 486.538 92.2754 482.289 92.2754C478.039 92.2754 474.577 95.7377 474.577 99.9869C474.577 104.236 478.039 107.698 482.289 107.698C486.538 107.725 490 104.262 490 99.9869ZM490 146.151C490 141.902 486.538 138.439 482.289 138.439C478.039 138.439 474.577 141.902 474.577 146.151C474.577 150.4 478.039 153.862 482.289 153.862C486.538 153.862 490 150.4 490 146.151ZM490 192.289C490 188.039 486.538 184.577 482.289 184.577C478.039 184.577 474.577 188.039 474.577 192.289C474.577 196.538 478.039 200 482.289 200C486.538 200 490 196.538 490 192.289ZM443.862 7.71148C443.862 3.4623 440.4 0 436.151 0C431.902 0 428.439 3.4623 428.439 7.71148C428.439 11.9607 431.902 15.4229 436.151 15.4229C440.4 15.4229 443.862 11.9869 443.862 7.71148ZM443.862 53.8492C443.862 49.6 440.4 46.1377 436.151 46.1377C431.902 46.1377 428.439 49.6 428.439 53.8492C428.439 58.0984 431.902 61.5607 436.151 61.5607C440.4 61.5607 443.862 58.1246 443.862 53.8492ZM443.862 99.9869C443.862 95.7377 440.4 92.2754 436.151 92.2754C431.902 92.2754 428.439 95.7377 428.439 99.9869C428.439 104.236 431.902 107.698 436.151 107.698C440.4 107.725 443.862 104.262 443.862 99.9869ZM443.862 146.151C443.862 141.902 440.4 138.439 436.151 138.439C431.902 138.439 428.439 141.902 428.439 146.151C428.439 150.4 431.902 153.862 436.151 153.862C440.4 153.862 443.862 150.4 443.862 146.151ZM443.862 192.289C443.862 188.039 440.4 184.577 436.151 184.577C431.902 184.577 428.439 188.039 428.439 192.289C428.439 196.538 431.902 200 436.151 200C440.4 200 443.862 196.538 443.862 192.289ZM397.698 7.71148C397.698 3.4623 394.236 0 389.987 0C385.738 0 382.275 3.4623 382.275 7.71148C382.275 11.9607 385.738 15.4229 389.987 15.4229C394.262 15.4229 397.698 11.9869 397.698 7.71148ZM397.698 53.8492C397.698 49.6 394.236 46.1377 389.987 46.1377C385.738 46.1377 382.275 49.6 382.275 53.8492C382.275 58.0984 385.738 61.5607 389.987 61.5607C394.262 61.5607 397.698 58.1246 397.698 53.8492ZM397.698 99.9869C397.698 95.7377 394.236 92.2754 389.987 92.2754C385.738 92.2754 382.275 95.7377 382.275 99.9869C382.275 104.236 385.738 107.698 389.987 107.698C394.262 107.725 397.698 104.262 397.698 99.9869ZM397.698 146.151C397.698 141.902 394.236 138.439 389.987 138.439C385.738 138.439 382.275 141.902 382.275 146.151C382.275 150.4 385.738 153.862 389.987 153.862C394.262 153.862 397.698 150.4 397.698 146.151ZM397.698 192.289C397.698 188.039 394.236 184.577 389.987 184.577C385.738 184.577 382.275 188.039 382.275 192.289C382.275 196.538 385.738 200 389.987 200C394.262 200 397.698 196.538 397.698 192.289ZM351.561 7.71148C351.561 3.4623 348.098 0 343.849 0C339.6 0 336.138 3.4623 336.138 7.71148C336.138 11.9607 339.6 15.4229 343.849 15.4229C348.125 15.4229 351.561 11.9869 351.561 7.71148ZM351.561 53.8492C351.561 49.6 348.098 46.1377 343.849 46.1377C339.6 46.1377 336.138 49.6 336.138 53.8492C336.138 58.0984 339.6 61.5607 343.849 61.5607C348.125 61.5607 351.561 58.1246 351.561 53.8492ZM351.561 99.9869C351.561 95.7377 348.098 92.2754 343.849 92.2754C339.6 92.2754 336.138 95.7377 336.138 99.9869C336.138 104.236 339.6 107.698 343.849 107.698C348.125 107.725 351.561 104.262 351.561 99.9869ZM351.561 146.151C351.561 141.902 348.098 138.439 343.849 138.439C339.6 138.439 336.138 141.902 336.138 146.151C336.138 150.4 339.6 153.862 343.849 153.862C348.125 153.862 351.561 150.4 351.561 146.151ZM351.561 192.289C351.561 188.039 348.098 184.577 343.849 184.577C339.6 184.577 336.138 188.039 336.138 192.289C336.138 196.538 339.6 200 343.849 200C348.125 200 351.561 196.538 351.561 192.289ZM305.423 7.71148C305.423 3.4623 301.961 0 297.711 0C293.462 0 290 3.4623 290 7.71148C290 11.9607 293.462 15.4229 297.711 15.4229C301.961 15.4229 305.423 11.9869 305.423 7.71148ZM305.423 53.8492C305.423 49.6 301.961 46.1377 297.711 46.1377C293.462 46.1377 290 49.6 290 53.8492C290 58.0984 293.462 61.5607 297.711 61.5607C301.961 61.5607 305.423 58.1246 305.423 53.8492ZM305.423 99.9869C305.423 95.7377 301.961 92.2754 297.711 92.2754C293.462 92.2754 290 95.7377 290 99.9869C290 104.236 293.462 107.698 297.711 107.698C301.961 107.698 305.423 104.262 305.423 99.9869ZM305.423 146.151C305.423 141.902 301.961 138.439 297.711 138.439C293.462 138.439 290 141.902 290 146.151C290 150.4 293.462 153.862 297.711 153.862C301.961 153.862 305.423 150.4 305.423 146.151ZM305.423 192.289C305.423 188.039 301.961 184.577 297.711 184.577C293.462 184.577 290 188.039 290 192.289C290 196.538 293.462 200 297.711 200C301.961 200 305.423 196.538 305.423 192.289Z" fill="#ECF4D8"/>
<path d="M22.2885 245.423C18.0393 245.423 14.577 241.961 14.577 237.711C14.577 233.462 18.0393 230 22.2885 230C26.5377 230 30 233.462 30 237.711C30 241.987 26.5377 245.423 22.2885 245.423ZM30 283.849C30 279.6 26.5377 276.138 22.2885 276.138C18.0393 276.138 14.577 279.6 14.577 283.849C14.577 288.098 18.0393 291.561 22.2885 291.561C26.5377 291.561 30 288.125 30 283.849ZM30 329.987C30 325.738 26.5377 322.275 22.2885 322.275C18.0393 322.275 14.577 325.738 14.577 329.987C14.577 334.236 18.0393 337.698 22.2885 337.698C26.5377 337.725 30 334.262 30 329.987ZM30 376.151C30 371.902 26.5377 368.439 22.2885 368.439C18.0393 368.439 14.577 371.902 14.577 376.151C14.577 380.4 18.0393 383.862 22.2885 383.862C26.5377 383.862 30 380.4 30 376.151ZM30 422.289C30 418.039 26.5377 414.577 22.2885 414.577C18.0393 414.577 14.577 418.039 14.577 422.289C14.577 426.538 18.0393 430 22.2885 430C26.5377 430 30 426.538 30 422.289ZM-16.1378 237.711C-16.1378 233.462 -19.6001 230 -23.8493 230C-28.0984 230 -31.5607 233.462 -31.5607 237.711C-31.5607 241.961 -28.0984 245.423 -23.8493 245.423C-19.6001 245.423 -16.1378 241.987 -16.1378 237.711ZM-16.1378 283.849C-16.1378 279.6 -19.6001 276.138 -23.8493 276.138C-28.0984 276.138 -31.5607 279.6 -31.5607 283.849C-31.5607 288.098 -28.0984 291.561 -23.8493 291.561C-19.6001 291.561 -16.1378 288.125 -16.1378 283.849ZM-16.1378 329.987C-16.1378 325.738 -19.6001 322.275 -23.8493 322.275C-28.0984 322.275 -31.5607 325.738 -31.5607 329.987C-31.5607 334.236 -28.0984 337.698 -23.8493 337.698C-19.6001 337.725 -16.1378 334.262 -16.1378 329.987ZM-16.1378 376.151C-16.1378 371.902 -19.6001 368.439 -23.8493 368.439C-28.0984 368.439 -31.5607 371.902 -31.5607 376.151C-31.5607 380.4 -28.0984 383.862 -23.8493 383.862C-19.6001 383.862 -16.1378 380.4 -16.1378 376.151ZM-16.1378 422.289C-16.1378 418.039 -19.6001 414.577 -23.8493 414.577C-28.0984 414.577 -31.5607 418.039 -31.5607 422.289C-31.5607 426.538 -28.0984 430 -23.8493 430C-19.6001 430 -16.1378 426.538 -16.1378 422.289ZM-62.3016 237.711C-62.3016 233.462 -65.7639 230 -70.0131 230C-74.2623 230 -77.7246 233.462 -77.7246 237.711C-77.7246 241.961 -74.2623 245.423 -70.0131 245.423C-65.7377 245.423 -62.3016 241.987 -62.3016 237.711ZM-62.3016 283.849C-62.3016 279.6 -65.7639 276.138 -70.0131 276.138C-74.2623 276.138 -77.7246 279.6 -77.7246 283.849C-77.7246 288.098 -74.2623 291.561 -70.0131 291.561C-65.7377 291.561 -62.3016 288.125 -62.3016 283.849ZM-62.3016 329.987C-62.3016 325.738 -65.7639 322.275 -70.0131 322.275C-74.2623 322.275 -77.7246 325.738 -77.7246 329.987C-77.7246 334.236 -74.2623 337.698 -70.0131 337.698C-65.7377 337.725 -62.3016 334.262 -62.3016 329.987ZM-62.3016 376.151C-62.3016 371.902 -65.7639 368.439 -70.0131 368.439C-74.2623 368.439 -77.7246 371.902 -77.7246 376.151C-77.7246 380.4 -74.2623 383.862 -70.0131 383.862C-65.7377 383.862 -62.3016 380.4 -62.3016 376.151ZM-62.3016 422.289C-62.3016 418.039 -65.7639 414.577 -70.0131 414.577C-74.2623 414.577 -77.7246 418.039 -77.7246 422.289C-77.7246 426.538 -74.2623 430 -70.0131 430C-65.7377 430 -62.3016 426.538 -62.3016 422.289ZM-108.439 237.711C-108.439 233.462 -111.902 230 -116.151 230C-120.4 230 -123.862 233.462 -123.862 237.711C-123.862 241.961 -120.4 245.423 -116.151 245.423C-111.875 245.423 -108.439 241.987 -108.439 237.711ZM-108.439 283.849C-108.439 279.6 -111.902 276.138 -116.151 276.138C-120.4 276.138 -123.862 279.6 -123.862 283.849C-123.862 288.098 -120.4 291.561 -116.151 291.561C-111.875 291.561 -108.439 288.125 -108.439 283.849ZM-108.439 329.987C-108.439 325.738 -111.902 322.275 -116.151 322.275C-120.4 322.275 -123.862 325.738 -123.862 329.987C-123.862 334.236 -120.4 337.698 -116.151 337.698C-111.875 337.725 -108.439 334.262 -108.439 329.987ZM-108.439 376.151C-108.439 371.902 -111.902 368.439 -116.151 368.439C-120.4 368.439 -123.862 371.902 -123.862 376.151C-123.862 380.4 -120.4 383.862 -116.151 383.862C-111.875 383.862 -108.439 380.4 -108.439 376.151ZM-108.439 422.289C-108.439 418.039 -111.902 414.577 -116.151 414.577C-120.4 414.577 -123.862 418.039 -123.862 422.289C-123.862 426.538 -120.4 430 -116.151 430C-111.875 430 -108.439 426.538 -108.439 422.289ZM-154.577 237.711C-154.577 233.462 -158.039 230 -162.289 230C-166.538 230 -170 233.462 -170 237.711C-170 241.961 -166.538 245.423 -162.289 245.423C-158.039 245.423 -154.577 241.987 -154.577 237.711ZM-154.577 283.849C-154.577 279.6 -158.039 276.138 -162.289 276.138C-166.538 276.138 -170 279.6 -170 283.849C-170 288.098 -166.538 291.561 -162.289 291.561C-158.039 291.561 -154.577 288.125 -154.577 283.849ZM-154.577 329.987C-154.577 325.738 -158.039 322.275 -162.289 322.275C-166.538 322.275 -170 325.738 -170 329.987C-170 334.236 -166.538 337.698 -162.289 337.698C-158.039 337.698 -154.577 334.262 -154.577 329.987ZM-154.577 376.151C-154.577 371.902 -158.039 368.439 -162.289 368.439C-166.538 368.439 -170 371.902 -170 376.151C-170 380.4 -166.538 383.862 -162.289 383.862C-158.039 383.862 -154.577 380.4 -154.577 376.151ZM-154.577 422.289C-154.577 418.039 -158.039 414.577 -162.289 414.577C-166.538 414.577 -170 418.039 -170 422.289C-170 426.538 -166.538 430 -162.289 430C-158.039 430 -154.577 426.538 -154.577 422.289Z" fill="#ECF4D8"/>
<path d="M252.289 245.423C248.039 245.423 244.577 241.961 244.577 237.711C244.577 233.462 248.039 230 252.289 230C256.538 230 260 233.462 260 237.711C260 241.987 256.538 245.423 252.289 245.423ZM260 283.849C260 279.6 256.538 276.138 252.289 276.138C248.039 276.138 244.577 279.6 244.577 283.849C244.577 288.098 248.039 291.561 252.289 291.561C256.538 291.561 260 288.125 260 283.849ZM260 329.987C260 325.738 256.538 322.275 252.289 322.275C248.039 322.275 244.577 325.738 244.577 329.987C244.577 334.236 248.039 337.698 252.289 337.698C256.538 337.725 260 334.262 260 329.987ZM260 376.151C260 371.902 256.538 368.439 252.289 368.439C248.039 368.439 244.577 371.902 244.577 376.151C244.577 380.4 248.039 383.862 252.289 383.862C256.538 383.862 260 380.4 260 376.151ZM260 422.289C260 418.039 256.538 414.577 252.289 414.577C248.039 414.577 244.577 418.039 244.577 422.289C244.577 426.538 248.039 430 252.289 430C256.538 430 260 426.538 260 422.289ZM213.862 237.711C213.862 233.462 210.4 230 206.151 230C201.902 230 198.439 233.462 198.439 237.711C198.439 241.961 201.902 245.423 206.151 245.423C210.4 245.423 213.862 241.987 213.862 237.711ZM213.862 283.849C213.862 279.6 210.4 276.138 206.151 276.138C201.902 276.138 198.439 279.6 198.439 283.849C198.439 288.098 201.902 291.561 206.151 291.561C210.4 291.561 213.862 288.125 213.862 283.849ZM213.862 329.987C213.862 325.738 210.4 322.275 206.151 322.275C201.902 322.275 198.439 325.738 198.439 329.987C198.439 334.236 201.902 337.698 206.151 337.698C210.4 337.725 213.862 334.262 213.862 329.987ZM213.862 376.151C213.862 371.902 210.4 368.439 206.151 368.439C201.902 368.439 198.439 371.902 198.439 376.151C198.439 380.4 201.902 383.862 206.151 383.862C210.4 383.862 213.862 380.4 213.862 376.151ZM213.862 422.289C213.862 418.039 210.4 414.577 206.151 414.577C201.902 414.577 198.439 418.039 198.439 422.289C198.439 426.538 201.902 430 206.151 430C210.4 430 213.862 426.538 213.862 422.289ZM167.698 237.711C167.698 233.462 164.236 230 159.987 230C155.738 230 152.275 233.462 152.275 237.711C152.275 241.961 155.738 245.423 159.987 245.423C164.262 245.423 167.698 241.987 167.698 237.711ZM167.698 283.849C167.698 279.6 164.236 276.138 159.987 276.138C155.738 276.138 152.275 279.6 152.275 283.849C152.275 288.098 155.738 291.561 159.987 291.561C164.262 291.561 167.698 288.125 167.698 283.849ZM167.698 329.987C167.698 325.738 164.236 322.275 159.987 322.275C155.738 322.275 152.275 325.738 152.275 329.987C152.275 334.236 155.738 337.698 159.987 337.698C164.262 337.725 167.698 334.262 167.698 329.987ZM167.698 376.151C167.698 371.902 164.236 368.439 159.987 368.439C155.738 368.439 152.275 371.902 152.275 376.151C152.275 380.4 155.738 383.862 159.987 383.862C164.262 383.862 167.698 380.4 167.698 376.151ZM167.698 422.289C167.698 418.039 164.236 414.577 159.987 414.577C155.738 414.577 152.275 418.039 152.275 422.289C152.275 426.538 155.738 430 159.987 430C164.262 430 167.698 426.538 167.698 422.289ZM121.561 237.711C121.561 233.462 118.098 230 113.849 230C109.6 230 106.138 233.462 106.138 237.711C106.138 241.961 109.6 245.423 113.849 245.423C118.125 245.423 121.561 241.987 121.561 237.711ZM121.561 283.849C121.561 279.6 118.098 276.138 113.849 276.138C109.6 276.138 106.138 279.6 106.138 283.849C106.138 288.098 109.6 291.561 113.849 291.561C118.125 291.561 121.561 288.125 121.561 283.849ZM121.561 329.987C121.561 325.738 118.098 322.275 113.849 322.275C109.6 322.275 106.138 325.738 106.138 329.987C106.138 334.236 109.6 337.698 113.849 337.698C118.125 337.725 121.561 334.262 121.561 329.987ZM121.561 376.151C121.561 371.902 118.098 368.439 113.849 368.439C109.6 368.439 106.138 371.902 106.138 376.151C106.138 380.4 109.6 383.862 113.849 383.862C118.125 383.862 121.561 380.4 121.561 376.151ZM121.561 422.289C121.561 418.039 118.098 414.577 113.849 414.577C109.6 414.577 106.138 418.039 106.138 422.289C106.138 426.538 109.6 430 113.849 430C118.125 430 121.561 426.538 121.561 422.289ZM75.423 237.711C75.423 233.462 71.9607 230 67.7115 230C63.4623 230 60 233.462 60 237.711C60 241.961 63.4623 245.423 67.7115 245.423C71.9607 245.423 75.423 241.987 75.423 237.711ZM75.423 283.849C75.423 279.6 71.9607 276.138 67.7115 276.138C63.4623 276.138 60 279.6 60 283.849C60 288.098 63.4623 291.561 67.7115 291.561C71.9607 291.561 75.423 288.125 75.423 283.849ZM75.423 329.987C75.423 325.738 71.9607 322.275 67.7115 322.275C63.4623 322.275 60 325.738 60 329.987C60 334.236 63.4623 337.698 67.7115 337.698C71.9607 337.698 75.423 334.262 75.423 329.987ZM75.423 376.151C75.423 371.902 71.9607 368.439 67.7115 368.439C63.4623 368.439 60 371.902 60 376.151C60 380.4 63.4623 383.862 67.7115 383.862C71.9607 383.862 75.423 380.4 75.423 376.151ZM75.423 422.289C75.423 418.039 71.9607 414.577 67.7115 414.577C63.4623 414.577 60 418.039 60 422.289C60 426.538 63.4623 430 67.7115 430C71.9607 430 75.423 426.538 75.423 422.289Z" fill="#ECF4D8"/>
<path d="M482.289 245.423C478.039 245.423 474.577 241.961 474.577 237.711C474.577 233.462 478.039 230 482.289 230C486.538 230 490 233.462 490 237.711C490 241.987 486.538 245.423 482.289 245.423ZM490 283.849C490 279.6 486.538 276.138 482.289 276.138C478.039 276.138 474.577 279.6 474.577 283.849C474.577 288.098 478.039 291.561 482.289 291.561C486.538 291.561 490 288.125 490 283.849ZM490 329.987C490 325.738 486.538 322.275 482.289 322.275C478.039 322.275 474.577 325.738 474.577 329.987C474.577 334.236 478.039 337.698 482.289 337.698C486.538 337.725 490 334.262 490 329.987ZM490 376.151C490 371.902 486.538 368.439 482.289 368.439C478.039 368.439 474.577 371.902 474.577 376.151C474.577 380.4 478.039 383.862 482.289 383.862C486.538 383.862 490 380.4 490 376.151ZM490 422.289C490 418.039 486.538 414.577 482.289 414.577C478.039 414.577 474.577 418.039 474.577 422.289C474.577 426.538 478.039 430 482.289 430C486.538 430 490 426.538 490 422.289ZM443.862 237.711C443.862 233.462 440.4 230 436.151 230C431.902 230 428.439 233.462 428.439 237.711C428.439 241.961 431.902 245.423 436.151 245.423C440.4 245.423 443.862 241.987 443.862 237.711ZM443.862 283.849C443.862 279.6 440.4 276.138 436.151 276.138C431.902 276.138 428.439 279.6 428.439 283.849C428.439 288.098 431.902 291.561 436.151 291.561C440.4 291.561 443.862 288.125 443.862 283.849ZM443.862 329.987C443.862 325.738 440.4 322.275 436.151 322.275C431.902 322.275 428.439 325.738 428.439 329.987C428.439 334.236 431.902 337.698 436.151 337.698C440.4 337.725 443.862 334.262 443.862 329.987ZM443.862 376.151C443.862 371.902 440.4 368.439 436.151 368.439C431.902 368.439 428.439 371.902 428.439 376.151C428.439 380.4 431.902 383.862 436.151 383.862C440.4 383.862 443.862 380.4 443.862 376.151ZM443.862 422.289C443.862 418.039 440.4 414.577 436.151 414.577C431.902 414.577 428.439 418.039 428.439 422.289C428.439 426.538 431.902 430 436.151 430C440.4 430 443.862 426.538 443.862 422.289ZM397.698 237.711C397.698 233.462 394.236 230 389.987 230C385.738 230 382.275 233.462 382.275 237.711C382.275 241.961 385.738 245.423 389.987 245.423C394.262 245.423 397.698 241.987 397.698 237.711ZM397.698 283.849C397.698 279.6 394.236 276.138 389.987 276.138C385.738 276.138 382.275 279.6 382.275 283.849C382.275 288.098 385.738 291.561 389.987 291.561C394.262 291.561 397.698 288.125 397.698 283.849ZM397.698 329.987C397.698 325.738 394.236 322.275 389.987 322.275C385.738 322.275 382.275 325.738 382.275 329.987C382.275 334.236 385.738 337.698 389.987 337.698C394.262 337.725 397.698 334.262 397.698 329.987ZM397.698 376.151C397.698 371.902 394.236 368.439 389.987 368.439C385.738 368.439 382.275 371.902 382.275 376.151C382.275 380.4 385.738 383.862 389.987 383.862C394.262 383.862 397.698 380.4 397.698 376.151ZM397.698 422.289C397.698 418.039 394.236 414.577 389.987 414.577C385.738 414.577 382.275 418.039 382.275 422.289C382.275 426.538 385.738 430 389.987 430C394.262 430 397.698 426.538 397.698 422.289ZM351.561 237.711C351.561 233.462 348.098 230 343.849 230C339.6 230 336.138 233.462 336.138 237.711C336.138 241.961 339.6 245.423 343.849 245.423C348.125 245.423 351.561 241.987 351.561 237.711ZM351.561 283.849C351.561 279.6 348.098 276.138 343.849 276.138C339.6 276.138 336.138 279.6 336.138 283.849C336.138 288.098 339.6 291.561 343.849 291.561C348.125 291.561 351.561 288.125 351.561 283.849ZM351.561 329.987C351.561 325.738 348.098 322.275 343.849 322.275C339.6 322.275 336.138 325.738 336.138 329.987C336.138 334.236 339.6 337.698 343.849 337.698C348.125 337.725 351.561 334.262 351.561 329.987ZM351.561 376.151C351.561 371.902 348.098 368.439 343.849 368.439C339.6 368.439 336.138 371.902 336.138 376.151C336.138 380.4 339.6 383.862 343.849 383.862C348.125 383.862 351.561 380.4 351.561 376.151ZM351.561 422.289C351.561 418.039 348.098 414.577 343.849 414.577C339.6 414.577 336.138 418.039 336.138 422.289C336.138 426.538 339.6 430 343.849 430C348.125 430 351.561 426.538 351.561 422.289ZM305.423 237.711C305.423 233.462 301.961 230 297.711 230C293.462 230 290 233.462 290 237.711C290 241.961 293.462 245.423 297.711 245.423C301.961 245.423 305.423 241.987 305.423 237.711ZM305.423 283.849C305.423 279.6 301.961 276.138 297.711 276.138C293.462 276.138 290 279.6 290 283.849C290 288.098 293.462 291.561 297.711 291.561C301.961 291.561 305.423 288.125 305.423 283.849ZM305.423 329.987C305.423 325.738 301.961 322.275 297.711 322.275C293.462 322.275 290 325.738 290 329.987C290 334.236 293.462 337.698 297.711 337.698C301.961 337.698 305.423 334.262 305.423 329.987ZM305.423 376.151C305.423 371.902 301.961 368.439 297.711 368.439C293.462 368.439 290 371.902 290 376.151C290 380.4 293.462 383.862 297.711 383.862C301.961 383.862 305.423 380.4 305.423 376.151ZM305.423 422.289C305.423 418.039 301.961 414.577 297.711 414.577C293.462 414.577 290 418.039 290 422.289C290 426.538 293.462 430 297.711 430C301.961 430 305.423 426.538 305.423 422.289Z" fill="#ECF4D8"/>
<path d="M22.2885 475.423C18.0393 475.423 14.577 471.961 14.577 467.711C14.577 463.462 18.0393 460 22.2885 460C26.5377 460 30 463.462 30 467.711C30 471.987 26.5377 475.423 22.2885 475.423ZM30 513.849C30 509.6 26.5377 506.138 22.2885 506.138C18.0393 506.138 14.577 509.6 14.577 513.849C14.577 518.098 18.0393 521.561 22.2885 521.561C26.5377 521.561 30 518.125 30 513.849ZM30 559.987C30 555.738 26.5377 552.275 22.2885 552.275C18.0393 552.275 14.577 555.738 14.577 559.987C14.577 564.236 18.0393 567.698 22.2885 567.698C26.5377 567.725 30 564.262 30 559.987ZM30 606.151C30 601.902 26.5377 598.439 22.2885 598.439C18.0393 598.439 14.577 601.902 14.577 606.151C14.577 610.4 18.0393 613.862 22.2885 613.862C26.5377 613.862 30 610.4 30 606.151ZM30 652.289C30 648.039 26.5377 644.577 22.2885 644.577C18.0393 644.577 14.577 648.039 14.577 652.289C14.577 656.538 18.0393 660 22.2885 660C26.5377 660 30 656.538 30 652.289ZM-16.1378 467.711C-16.1378 463.462 -19.6001 460 -23.8493 460C-28.0984 460 -31.5607 463.462 -31.5607 467.711C-31.5607 471.961 -28.0984 475.423 -23.8493 475.423C-19.6001 475.423 -16.1378 471.987 -16.1378 467.711ZM-16.1378 513.849C-16.1378 509.6 -19.6001 506.138 -23.8493 506.138C-28.0984 506.138 -31.5607 509.6 -31.5607 513.849C-31.5607 518.098 -28.0984 521.561 -23.8493 521.561C-19.6001 521.561 -16.1378 518.125 -16.1378 513.849ZM-16.1378 559.987C-16.1378 555.738 -19.6001 552.275 -23.8493 552.275C-28.0984 552.275 -31.5607 555.738 -31.5607 559.987C-31.5607 564.236 -28.0984 567.698 -23.8493 567.698C-19.6001 567.725 -16.1378 564.262 -16.1378 559.987ZM-16.1378 606.151C-16.1378 601.902 -19.6001 598.439 -23.8493 598.439C-28.0984 598.439 -31.5607 601.902 -31.5607 606.151C-31.5607 610.4 -28.0984 613.862 -23.8493 613.862C-19.6001 613.862 -16.1378 610.4 -16.1378 606.151ZM-16.1378 652.289C-16.1378 648.039 -19.6001 644.577 -23.8493 644.577C-28.0984 644.577 -31.5607 648.039 -31.5607 652.289C-31.5607 656.538 -28.0984 660 -23.8493 660C-19.6001 660 -16.1378 656.538 -16.1378 652.289ZM-62.3016 467.711C-62.3016 463.462 -65.7639 460 -70.0131 460C-74.2623 460 -77.7246 463.462 -77.7246 467.711C-77.7246 471.961 -74.2623 475.423 -70.0131 475.423C-65.7377 475.423 -62.3016 471.987 -62.3016 467.711ZM-62.3016 513.849C-62.3016 509.6 -65.7639 506.138 -70.0131 506.138C-74.2623 506.138 -77.7246 509.6 -77.7246 513.849C-77.7246 518.098 -74.2623 521.561 -70.0131 521.561C-65.7377 521.561 -62.3016 518.125 -62.3016 513.849ZM-62.3016 559.987C-62.3016 555.738 -65.7639 552.275 -70.0131 552.275C-74.2623 552.275 -77.7246 555.738 -77.7246 559.987C-77.7246 564.236 -74.2623 567.698 -70.0131 567.698C-65.7377 567.725 -62.3016 564.262 -62.3016 559.987ZM-62.3016 606.151C-62.3016 601.902 -65.7639 598.439 -70.0131 598.439C-74.2623 598.439 -77.7246 601.902 -77.7246 606.151C-77.7246 610.4 -74.2623 613.862 -70.0131 613.862C-65.7377 613.862 -62.3016 610.4 -62.3016 606.151ZM-62.3016 652.289C-62.3016 648.039 -65.7639 644.577 -70.0131 644.577C-74.2623 644.577 -77.7246 648.039 -77.7246 652.289C-77.7246 656.538 -74.2623 660 -70.0131 660C-65.7377 660 -62.3016 656.538 -62.3016 652.289ZM-108.439 467.711C-108.439 463.462 -111.902 460 -116.151 460C-120.4 460 -123.862 463.462 -123.862 467.711C-123.862 471.961 -120.4 475.423 -116.151 475.423C-111.875 475.423 -108.439 471.987 -108.439 467.711ZM-108.439 513.849C-108.439 509.6 -111.902 506.138 -116.151 506.138C-120.4 506.138 -123.862 509.6 -123.862 513.849C-123.862 518.098 -120.4 521.561 -116.151 521.561C-111.875 521.561 -108.439 518.125 -108.439 513.849ZM-108.439 559.987C-108.439 555.738 -111.902 552.275 -116.151 552.275C-120.4 552.275 -123.862 555.738 -123.862 559.987C-123.862 564.236 -120.4 567.698 -116.151 567.698C-111.875 567.725 -108.439 564.262 -108.439 559.987ZM-108.439 606.151C-108.439 601.902 -111.902 598.439 -116.151 598.439C-120.4 598.439 -123.862 601.902 -123.862 606.151C-123.862 610.4 -120.4 613.862 -116.151 613.862C-111.875 613.862 -108.439 610.4 -108.439 606.151ZM-108.439 652.289C-108.439 648.039 -111.902 644.577 -116.151 644.577C-120.4 644.577 -123.862 648.039 -123.862 652.289C-123.862 656.538 -120.4 660 -116.151 660C-111.875 660 -108.439 656.538 -108.439 652.289ZM-154.577 467.711C-154.577 463.462 -158.039 460 -162.289 460C-166.538 460 -170 463.462 -170 467.711C-170 471.961 -166.538 475.423 -162.289 475.423C-158.039 475.423 -154.577 471.987 -154.577 467.711ZM-154.577 513.849C-154.577 509.6 -158.039 506.138 -162.289 506.138C-166.538 506.138 -170 509.6 -170 513.849C-170 518.098 -166.538 521.561 -162.289 521.561C-158.039 521.561 -154.577 518.125 -154.577 513.849ZM-154.577 559.987C-154.577 555.738 -158.039 552.275 -162.289 552.275C-166.538 552.275 -170 555.738 -170 559.987C-170 564.236 -166.538 567.698 -162.289 567.698C-158.039 567.698 -154.577 564.262 -154.577 559.987ZM-154.577 606.151C-154.577 601.902 -158.039 598.439 -162.289 598.439C-166.538 598.439 -170 601.902 -170 606.151C-170 610.4 -166.538 613.862 -162.289 613.862C-158.039 613.862 -154.577 610.4 -154.577 606.151ZM-154.577 652.289C-154.577 648.039 -158.039 644.577 -162.289 644.577C-166.538 644.577 -170 648.039 -170 652.289C-170 656.538 -166.538 660 -162.289 660C-158.039 660 -154.577 656.538 -154.577 652.289Z" fill="#ECF4D8"/>
<path d="M252.289 475.423C248.039 475.423 244.577 471.961 244.577 467.711C244.577 463.462 248.039 460 252.289 460C256.538 460 260 463.462 260 467.711C260 471.987 256.538 475.423 252.289 475.423ZM260 513.849C260 509.6 256.538 506.138 252.289 506.138C248.039 506.138 244.577 509.6 244.577 513.849C244.577 518.098 248.039 521.561 252.289 521.561C256.538 521.561 260 518.125 260 513.849ZM260 559.987C260 555.738 256.538 552.275 252.289 552.275C248.039 552.275 244.577 555.738 244.577 559.987C244.577 564.236 248.039 567.698 252.289 567.698C256.538 567.725 260 564.262 260 559.987ZM260 606.151C260 601.902 256.538 598.439 252.289 598.439C248.039 598.439 244.577 601.902 244.577 606.151C244.577 610.4 248.039 613.862 252.289 613.862C256.538 613.862 260 610.4 260 606.151ZM260 652.289C260 648.039 256.538 644.577 252.289 644.577C248.039 644.577 244.577 648.039 244.577 652.289C244.577 656.538 248.039 660 252.289 660C256.538 660 260 656.538 260 652.289ZM213.862 467.711C213.862 463.462 210.4 460 206.151 460C201.902 460 198.439 463.462 198.439 467.711C198.439 471.961 201.902 475.423 206.151 475.423C210.4 475.423 213.862 471.987 213.862 467.711ZM213.862 513.849C213.862 509.6 210.4 506.138 206.151 506.138C201.902 506.138 198.439 509.6 198.439 513.849C198.439 518.098 201.902 521.561 206.151 521.561C210.4 521.561 213.862 518.125 213.862 513.849ZM213.862 559.987C213.862 555.738 210.4 552.275 206.151 552.275C201.902 552.275 198.439 555.738 198.439 559.987C198.439 564.236 201.902 567.698 206.151 567.698C210.4 567.725 213.862 564.262 213.862 559.987ZM213.862 606.151C213.862 601.902 210.4 598.439 206.151 598.439C201.902 598.439 198.439 601.902 198.439 606.151C198.439 610.4 201.902 613.862 206.151 613.862C210.4 613.862 213.862 610.4 213.862 606.151ZM213.862 652.289C213.862 648.039 210.4 644.577 206.151 644.577C201.902 644.577 198.439 648.039 198.439 652.289C198.439 656.538 201.902 660 206.151 660C210.4 660 213.862 656.538 213.862 652.289ZM167.698 467.711C167.698 463.462 164.236 460 159.987 460C155.738 460 152.275 463.462 152.275 467.711C152.275 471.961 155.738 475.423 159.987 475.423C164.262 475.423 167.698 471.987 167.698 467.711ZM167.698 513.849C167.698 509.6 164.236 506.138 159.987 506.138C155.738 506.138 152.275 509.6 152.275 513.849C152.275 518.098 155.738 521.561 159.987 521.561C164.262 521.561 167.698 518.125 167.698 513.849ZM167.698 559.987C167.698 555.738 164.236 552.275 159.987 552.275C155.738 552.275 152.275 555.738 152.275 559.987C152.275 564.236 155.738 567.698 159.987 567.698C164.262 567.725 167.698 564.262 167.698 559.987ZM167.698 606.151C167.698 601.902 164.236 598.439 159.987 598.439C155.738 598.439 152.275 601.902 152.275 606.151C152.275 610.4 155.738 613.862 159.987 613.862C164.262 613.862 167.698 610.4 167.698 606.151ZM167.698 652.289C167.698 648.039 164.236 644.577 159.987 644.577C155.738 644.577 152.275 648.039 152.275 652.289C152.275 656.538 155.738 660 159.987 660C164.262 660 167.698 656.538 167.698 652.289ZM121.561 467.711C121.561 463.462 118.098 460 113.849 460C109.6 460 106.138 463.462 106.138 467.711C106.138 471.961 109.6 475.423 113.849 475.423C118.125 475.423 121.561 471.987 121.561 467.711ZM121.561 513.849C121.561 509.6 118.098 506.138 113.849 506.138C109.6 506.138 106.138 509.6 106.138 513.849C106.138 518.098 109.6 521.561 113.849 521.561C118.125 521.561 121.561 518.125 121.561 513.849ZM121.561 559.987C121.561 555.738 118.098 552.275 113.849 552.275C109.6 552.275 106.138 555.738 106.138 559.987C106.138 564.236 109.6 567.698 113.849 567.698C118.125 567.725 121.561 564.262 121.561 559.987ZM121.561 606.151C121.561 601.902 118.098 598.439 113.849 598.439C109.6 598.439 106.138 601.902 106.138 606.151C106.138 610.4 109.6 613.862 113.849 613.862C118.125 613.862 121.561 610.4 121.561 606.151ZM121.561 652.289C121.561 648.039 118.098 644.577 113.849 644.577C109.6 644.577 106.138 648.039 106.138 652.289C106.138 656.538 109.6 660 113.849 660C118.125 660 121.561 656.538 121.561 652.289ZM75.423 467.711C75.423 463.462 71.9607 460 67.7115 460C63.4623 460 60 463.462 60 467.711C60 471.961 63.4623 475.423 67.7115 475.423C71.9607 475.423 75.423 471.987 75.423 467.711ZM75.423 513.849C75.423 509.6 71.9607 506.138 67.7115 506.138C63.4623 506.138 60 509.6 60 513.849C60 518.098 63.4623 521.561 67.7115 521.561C71.9607 521.561 75.423 518.125 75.423 513.849ZM75.423 559.987C75.423 555.738 71.9607 552.275 67.7115 552.275C63.4623 552.275 60 555.738 60 559.987C60 564.236 63.4623 567.698 67.7115 567.698C71.9607 567.698 75.423 564.262 75.423 559.987ZM75.423 606.151C75.423 601.902 71.9607 598.439 67.7115 598.439C63.4623 598.439 60 601.902 60 606.151C60 610.4 63.4623 613.862 67.7115 613.862C71.9607 613.862 75.423 610.4 75.423 606.151ZM75.423 652.289C75.423 648.039 71.9607 644.577 67.7115 644.577C63.4623 644.577 60 648.039 60 652.289C60 656.538 63.4623 660 67.7115 660C71.9607 660 75.423 656.538 75.423 652.289Z" fill="#ECF4D8"/>
<path d="M482.289 475.423C478.039 475.423 474.577 471.961 474.577 467.711C474.577 463.462 478.039 460 482.289 460C486.538 460 490 463.462 490 467.711C490 471.987 486.538 475.423 482.289 475.423ZM490 513.849C490 509.6 486.538 506.138 482.289 506.138C478.039 506.138 474.577 509.6 474.577 513.849C474.577 518.098 478.039 521.561 482.289 521.561C486.538 521.561 490 518.125 490 513.849ZM490 559.987C490 555.738 486.538 552.275 482.289 552.275C478.039 552.275 474.577 555.738 474.577 559.987C474.577 564.236 478.039 567.698 482.289 567.698C486.538 567.725 490 564.262 490 559.987ZM490 606.151C490 601.902 486.538 598.439 482.289 598.439C478.039 598.439 474.577 601.902 474.577 606.151C474.577 610.4 478.039 613.862 482.289 613.862C486.538 613.862 490 610.4 490 606.151ZM490 652.289C490 648.039 486.538 644.577 482.289 644.577C478.039 644.577 474.577 648.039 474.577 652.289C474.577 656.538 478.039 660 482.289 660C486.538 660 490 656.538 490 652.289ZM443.862 467.711C443.862 463.462 440.4 460 436.151 460C431.902 460 428.439 463.462 428.439 467.711C428.439 471.961 431.902 475.423 436.151 475.423C440.4 475.423 443.862 471.987 443.862 467.711ZM443.862 513.849C443.862 509.6 440.4 506.138 436.151 506.138C431.902 506.138 428.439 509.6 428.439 513.849C428.439 518.098 431.902 521.561 436.151 521.561C440.4 521.561 443.862 518.125 443.862 513.849ZM443.862 559.987C443.862 555.738 440.4 552.275 436.151 552.275C431.902 552.275 428.439 555.738 428.439 559.987C428.439 564.236 431.902 567.698 436.151 567.698C440.4 567.725 443.862 564.262 443.862 559.987ZM443.862 606.151C443.862 601.902 440.4 598.439 436.151 598.439C431.902 598.439 428.439 601.902 428.439 606.151C428.439 610.4 431.902 613.862 436.151 613.862C440.4 613.862 443.862 610.4 443.862 606.151ZM443.862 652.289C443.862 648.039 440.4 644.577 436.151 644.577C431.902 644.577 428.439 648.039 428.439 652.289C428.439 656.538 431.902 660 436.151 660C440.4 660 443.862 656.538 443.862 652.289ZM397.698 467.711C397.698 463.462 394.236 460 389.987 460C385.738 460 382.275 463.462 382.275 467.711C382.275 471.961 385.738 475.423 389.987 475.423C394.262 475.423 397.698 471.987 397.698 467.711ZM397.698 513.849C397.698 509.6 394.236 506.138 389.987 506.138C385.738 506.138 382.275 509.6 382.275 513.849C382.275 518.098 385.738 521.561 389.987 521.561C394.262 521.561 397.698 518.125 397.698 513.849ZM397.698 559.987C397.698 555.738 394.236 552.275 389.987 552.275C385.738 552.275 382.275 555.738 382.275 559.987C382.275 564.236 385.738 567.698 389.987 567.698C394.262 567.725 397.698 564.262 397.698 559.987ZM397.698 606.151C397.698 601.902 394.236 598.439 389.987 598.439C385.738 598.439 382.275 601.902 382.275 606.151C382.275 610.4 385.738 613.862 389.987 613.862C394.262 613.862 397.698 610.4 397.698 606.151ZM397.698 652.289C397.698 648.039 394.236 644.577 389.987 644.577C385.738 644.577 382.275 648.039 382.275 652.289C382.275 656.538 385.738 660 389.987 660C394.262 660 397.698 656.538 397.698 652.289ZM351.561 467.711C351.561 463.462 348.098 460 343.849 460C339.6 460 336.138 463.462 336.138 467.711C336.138 471.961 339.6 475.423 343.849 475.423C348.125 475.423 351.561 471.987 351.561 467.711ZM351.561 513.849C351.561 509.6 348.098 506.138 343.849 506.138C339.6 506.138 336.138 509.6 336.138 513.849C336.138 518.098 339.6 521.561 343.849 521.561C348.125 521.561 351.561 518.125 351.561 513.849ZM351.561 559.987C351.561 555.738 348.098 552.275 343.849 552.275C339.6 552.275 336.138 555.738 336.138 559.987C336.138 564.236 339.6 567.698 343.849 567.698C348.125 567.725 351.561 564.262 351.561 559.987ZM351.561 606.151C351.561 601.902 348.098 598.439 343.849 598.439C339.6 598.439 336.138 601.902 336.138 606.151C336.138 610.4 339.6 613.862 343.849 613.862C348.125 613.862 351.561 610.4 351.561 606.151ZM351.561 652.289C351.561 648.039 348.098 644.577 343.849 644.577C339.6 644.577 336.138 648.039 336.138 652.289C336.138 656.538 339.6 660 343.849 660C348.125 660 351.561 656.538 351.561 652.289ZM305.423 467.711C305.423 463.462 301.961 460 297.711 460C293.462 460 290 463.462 290 467.711C290 471.961 293.462 475.423 297.711 475.423C301.961 475.423 305.423 471.987 305.423 467.711ZM305.423 513.849C305.423 509.6 301.961 506.138 297.711 506.138C293.462 506.138 290 509.6 290 513.849C290 518.098 293.462 521.561 297.711 521.561C301.961 521.561 305.423 518.125 305.423 513.849ZM305.423 559.987C305.423 555.738 301.961 552.275 297.711 552.275C293.462 552.275 290 555.738 290 559.987C290 564.236 293.462 567.698 297.711 567.698C301.961 567.698 305.423 564.262 305.423 559.987ZM305.423 606.151C305.423 601.902 301.961 598.439 297.711 598.439C293.462 598.439 290 601.902 290 606.151C290 610.4 293.462 613.862 297.711 613.862C301.961 613.862 305.423 610.4 305.423 606.151ZM305.423 652.289C305.423 648.039 301.961 644.577 297.711 644.577C293.462 644.577 290 648.039 290 652.289C290 656.538 293.462 660 297.711 660C301.961 660 305.423 656.538 305.423 652.289Z" fill="#ECF4D8"/>
<path d="M22.2885 705.423C18.0393 705.423 14.577 701.961 14.577 697.711C14.577 693.462 18.0393 690 22.2885 690C26.5377 690 30 693.462 30 697.711C30 701.987 26.5377 705.423 22.2885 705.423ZM30 743.849C30 739.6 26.5377 736.138 22.2885 736.138C18.0393 736.138 14.577 739.6 14.577 743.849C14.577 748.098 18.0393 751.561 22.2885 751.561C26.5377 751.561 30 748.125 30 743.849ZM30 789.987C30 785.738 26.5377 782.275 22.2885 782.275C18.0393 782.275 14.577 785.738 14.577 789.987C14.577 794.236 18.0393 797.698 22.2885 797.698C26.5377 797.725 30 794.262 30 789.987ZM30 836.151C30 831.902 26.5377 828.439 22.2885 828.439C18.0393 828.439 14.577 831.902 14.577 836.151C14.577 840.4 18.0393 843.862 22.2885 843.862C26.5377 843.862 30 840.4 30 836.151ZM30 882.289C30 878.039 26.5377 874.577 22.2885 874.577C18.0393 874.577 14.577 878.039 14.577 882.289C14.577 886.538 18.0393 890 22.2885 890C26.5377 890 30 886.538 30 882.289ZM-16.1378 697.711C-16.1378 693.462 -19.6001 690 -23.8493 690C-28.0984 690 -31.5607 693.462 -31.5607 697.711C-31.5607 701.961 -28.0984 705.423 -23.8493 705.423C-19.6001 705.423 -16.1378 701.987 -16.1378 697.711ZM-16.1378 743.849C-16.1378 739.6 -19.6001 736.138 -23.8493 736.138C-28.0984 736.138 -31.5607 739.6 -31.5607 743.849C-31.5607 748.098 -28.0984 751.561 -23.8493 751.561C-19.6001 751.561 -16.1378 748.125 -16.1378 743.849ZM-16.1378 789.987C-16.1378 785.738 -19.6001 782.275 -23.8493 782.275C-28.0984 782.275 -31.5607 785.738 -31.5607 789.987C-31.5607 794.236 -28.0984 797.698 -23.8493 797.698C-19.6001 797.725 -16.1378 794.262 -16.1378 789.987ZM-16.1378 836.151C-16.1378 831.902 -19.6001 828.439 -23.8493 828.439C-28.0984 828.439 -31.5607 831.902 -31.5607 836.151C-31.5607 840.4 -28.0984 843.862 -23.8493 843.862C-19.6001 843.862 -16.1378 840.4 -16.1378 836.151ZM-16.1378 882.289C-16.1378 878.039 -19.6001 874.577 -23.8493 874.577C-28.0984 874.577 -31.5607 878.039 -31.5607 882.289C-31.5607 886.538 -28.0984 890 -23.8493 890C-19.6001 890 -16.1378 886.538 -16.1378 882.289ZM-62.3016 697.711C-62.3016 693.462 -65.7639 690 -70.0131 690C-74.2623 690 -77.7246 693.462 -77.7246 697.711C-77.7246 701.961 -74.2623 705.423 -70.0131 705.423C-65.7377 705.423 -62.3016 701.987 -62.3016 697.711ZM-62.3016 743.849C-62.3016 739.6 -65.7639 736.138 -70.0131 736.138C-74.2623 736.138 -77.7246 739.6 -77.7246 743.849C-77.7246 748.098 -74.2623 751.561 -70.0131 751.561C-65.7377 751.561 -62.3016 748.125 -62.3016 743.849ZM-62.3016 789.987C-62.3016 785.738 -65.7639 782.275 -70.0131 782.275C-74.2623 782.275 -77.7246 785.738 -77.7246 789.987C-77.7246 794.236 -74.2623 797.698 -70.0131 797.698C-65.7377 797.725 -62.3016 794.262 -62.3016 789.987ZM-62.3016 836.151C-62.3016 831.902 -65.7639 828.439 -70.0131 828.439C-74.2623 828.439 -77.7246 831.902 -77.7246 836.151C-77.7246 840.4 -74.2623 843.862 -70.0131 843.862C-65.7377 843.862 -62.3016 840.4 -62.3016 836.151ZM-62.3016 882.289C-62.3016 878.039 -65.7639 874.577 -70.0131 874.577C-74.2623 874.577 -77.7246 878.039 -77.7246 882.289C-77.7246 886.538 -74.2623 890 -70.0131 890C-65.7377 890 -62.3016 886.538 -62.3016 882.289ZM-108.439 697.711C-108.439 693.462 -111.902 690 -116.151 690C-120.4 690 -123.862 693.462 -123.862 697.711C-123.862 701.961 -120.4 705.423 -116.151 705.423C-111.875 705.423 -108.439 701.987 -108.439 697.711ZM-108.439 743.849C-108.439 739.6 -111.902 736.138 -116.151 736.138C-120.4 736.138 -123.862 739.6 -123.862 743.849C-123.862 748.098 -120.4 751.561 -116.151 751.561C-111.875 751.561 -108.439 748.125 -108.439 743.849ZM-108.439 789.987C-108.439 785.738 -111.902 782.275 -116.151 782.275C-120.4 782.275 -123.862 785.738 -123.862 789.987C-123.862 794.236 -120.4 797.698 -116.151 797.698C-111.875 797.725 -108.439 794.262 -108.439 789.987ZM-108.439 836.151C-108.439 831.902 -111.902 828.439 -116.151 828.439C-120.4 828.439 -123.862 831.902 -123.862 836.151C-123.862 840.4 -120.4 843.862 -116.151 843.862C-111.875 843.862 -108.439 840.4 -108.439 836.151ZM-108.439 882.289C-108.439 878.039 -111.902 874.577 -116.151 874.577C-120.4 874.577 -123.862 878.039 -123.862 882.289C-123.862 886.538 -120.4 890 -116.151 890C-111.875 890 -108.439 886.538 -108.439 882.289ZM-154.577 697.711C-154.577 693.462 -158.039 690 -162.289 690C-166.538 690 -170 693.462 -170 697.711C-170 701.961 -166.538 705.423 -162.289 705.423C-158.039 705.423 -154.577 701.987 -154.577 697.711ZM-154.577 743.849C-154.577 739.6 -158.039 736.138 -162.289 736.138C-166.538 736.138 -170 739.6 -170 743.849C-170 748.098 -166.538 751.561 -162.289 751.561C-158.039 751.561 -154.577 748.125 -154.577 743.849ZM-154.577 789.987C-154.577 785.738 -158.039 782.275 -162.289 782.275C-166.538 782.275 -170 785.738 -170 789.987C-170 794.236 -166.538 797.698 -162.289 797.698C-158.039 797.698 -154.577 794.262 -154.577 789.987ZM-154.577 836.151C-154.577 831.902 -158.039 828.439 -162.289 828.439C-166.538 828.439 -170 831.902 -170 836.151C-170 840.4 -166.538 843.862 -162.289 843.862C-158.039 843.862 -154.577 840.4 -154.577 836.151ZM-154.577 882.289C-154.577 878.039 -158.039 874.577 -162.289 874.577C-166.538 874.577 -170 878.039 -170 882.289C-170 886.538 -166.538 890 -162.289 890C-158.039 890 -154.577 886.538 -154.577 882.289Z" fill="#ECF4D8"/>
<path d="M252.289 705.423C248.039 705.423 244.577 701.961 244.577 697.711C244.577 693.462 248.039 690 252.289 690C256.538 690 260 693.462 260 697.711C260 701.987 256.538 705.423 252.289 705.423ZM260 743.849C260 739.6 256.538 736.138 252.289 736.138C248.039 736.138 244.577 739.6 244.577 743.849C244.577 748.098 248.039 751.561 252.289 751.561C256.538 751.561 260 748.125 260 743.849ZM260 789.987C260 785.738 256.538 782.275 252.289 782.275C248.039 782.275 244.577 785.738 244.577 789.987C244.577 794.236 248.039 797.698 252.289 797.698C256.538 797.725 260 794.262 260 789.987ZM260 836.151C260 831.902 256.538 828.439 252.289 828.439C248.039 828.439 244.577 831.902 244.577 836.151C244.577 840.4 248.039 843.862 252.289 843.862C256.538 843.862 260 840.4 260 836.151ZM260 882.289C260 878.039 256.538 874.577 252.289 874.577C248.039 874.577 244.577 878.039 244.577 882.289C244.577 886.538 248.039 890 252.289 890C256.538 890 260 886.538 260 882.289ZM213.862 697.711C213.862 693.462 210.4 690 206.151 690C201.902 690 198.439 693.462 198.439 697.711C198.439 701.961 201.902 705.423 206.151 705.423C210.4 705.423 213.862 701.987 213.862 697.711ZM213.862 743.849C213.862 739.6 210.4 736.138 206.151 736.138C201.902 736.138 198.439 739.6 198.439 743.849C198.439 748.098 201.902 751.561 206.151 751.561C210.4 751.561 213.862 748.125 213.862 743.849ZM213.862 789.987C213.862 785.738 210.4 782.275 206.151 782.275C201.902 782.275 198.439 785.738 198.439 789.987C198.439 794.236 201.902 797.698 206.151 797.698C210.4 797.725 213.862 794.262 213.862 789.987ZM213.862 836.151C213.862 831.902 210.4 828.439 206.151 828.439C201.902 828.439 198.439 831.902 198.439 836.151C198.439 840.4 201.902 843.862 206.151 843.862C210.4 843.862 213.862 840.4 213.862 836.151ZM213.862 882.289C213.862 878.039 210.4 874.577 206.151 874.577C201.902 874.577 198.439 878.039 198.439 882.289C198.439 886.538 201.902 890 206.151 890C210.4 890 213.862 886.538 213.862 882.289ZM167.698 697.711C167.698 693.462 164.236 690 159.987 690C155.738 690 152.275 693.462 152.275 697.711C152.275 701.961 155.738 705.423 159.987 705.423C164.262 705.423 167.698 701.987 167.698 697.711ZM167.698 743.849C167.698 739.6 164.236 736.138 159.987 736.138C155.738 736.138 152.275 739.6 152.275 743.849C152.275 748.098 155.738 751.561 159.987 751.561C164.262 751.561 167.698 748.125 167.698 743.849ZM167.698 789.987C167.698 785.738 164.236 782.275 159.987 782.275C155.738 782.275 152.275 785.738 152.275 789.987C152.275 794.236 155.738 797.698 159.987 797.698C164.262 797.725 167.698 794.262 167.698 789.987ZM167.698 836.151C167.698 831.902 164.236 828.439 159.987 828.439C155.738 828.439 152.275 831.902 152.275 836.151C152.275 840.4 155.738 843.862 159.987 843.862C164.262 843.862 167.698 840.4 167.698 836.151ZM167.698 882.289C167.698 878.039 164.236 874.577 159.987 874.577C155.738 874.577 152.275 878.039 152.275 882.289C152.275 886.538 155.738 890 159.987 890C164.262 890 167.698 886.538 167.698 882.289ZM121.561 697.711C121.561 693.462 118.098 690 113.849 690C109.6 690 106.138 693.462 106.138 697.711C106.138 701.961 109.6 705.423 113.849 705.423C118.125 705.423 121.561 701.987 121.561 697.711ZM121.561 743.849C121.561 739.6 118.098 736.138 113.849 736.138C109.6 736.138 106.138 739.6 106.138 743.849C106.138 748.098 109.6 751.561 113.849 751.561C118.125 751.561 121.561 748.125 121.561 743.849ZM121.561 789.987C121.561 785.738 118.098 782.275 113.849 782.275C109.6 782.275 106.138 785.738 106.138 789.987C106.138 794.236 109.6 797.698 113.849 797.698C118.125 797.725 121.561 794.262 121.561 789.987ZM121.561 836.151C121.561 831.902 118.098 828.439 113.849 828.439C109.6 828.439 106.138 831.902 106.138 836.151C106.138 840.4 109.6 843.862 113.849 843.862C118.125 843.862 121.561 840.4 121.561 836.151ZM121.561 882.289C121.561 878.039 118.098 874.577 113.849 874.577C109.6 874.577 106.138 878.039 106.138 882.289C106.138 886.538 109.6 890 113.849 890C118.125 890 121.561 886.538 121.561 882.289ZM75.423 697.711C75.423 693.462 71.9607 690 67.7115 690C63.4623 690 60 693.462 60 697.711C60 701.961 63.4623 705.423 67.7115 705.423C71.9607 705.423 75.423 701.987 75.423 697.711ZM75.423 743.849C75.423 739.6 71.9607 736.138 67.7115 736.138C63.4623 736.138 60 739.6 60 743.849C60 748.098 63.4623 751.561 67.7115 751.561C71.9607 751.561 75.423 748.125 75.423 743.849ZM75.423 789.987C75.423 785.738 71.9607 782.275 67.7115 782.275C63.4623 782.275 60 785.738 60 789.987C60 794.236 63.4623 797.698 67.7115 797.698C71.9607 797.698 75.423 794.262 75.423 789.987ZM75.423 836.151C75.423 831.902 71.9607 828.439 67.7115 828.439C63.4623 828.439 60 831.902 60 836.151C60 840.4 63.4623 843.862 67.7115 843.862C71.9607 843.862 75.423 840.4 75.423 836.151ZM75.423 882.289C75.423 878.039 71.9607 874.577 67.7115 874.577C63.4623 874.577 60 878.039 60 882.289C60 886.538 63.4623 890 67.7115 890C71.9607 890 75.423 886.538 75.423 882.289Z" fill="#ECF4D8"/>
<path d="M482.289 705.423C478.039 705.423 474.577 701.961 474.577 697.711C474.577 693.462 478.039 690 482.289 690C486.538 690 490 693.462 490 697.711C490 701.987 486.538 705.423 482.289 705.423ZM490 743.849C490 739.6 486.538 736.138 482.289 736.138C478.039 736.138 474.577 739.6 474.577 743.849C474.577 748.098 478.039 751.561 482.289 751.561C486.538 751.561 490 748.125 490 743.849ZM490 789.987C490 785.738 486.538 782.275 482.289 782.275C478.039 782.275 474.577 785.738 474.577 789.987C474.577 794.236 478.039 797.698 482.289 797.698C486.538 797.725 490 794.262 490 789.987ZM490 836.151C490 831.902 486.538 828.439 482.289 828.439C478.039 828.439 474.577 831.902 474.577 836.151C474.577 840.4 478.039 843.862 482.289 843.862C486.538 843.862 490 840.4 490 836.151ZM490 882.289C490 878.039 486.538 874.577 482.289 874.577C478.039 874.577 474.577 878.039 474.577 882.289C474.577 886.538 478.039 890 482.289 890C486.538 890 490 886.538 490 882.289ZM443.862 697.711C443.862 693.462 440.4 690 436.151 690C431.902 690 428.439 693.462 428.439 697.711C428.439 701.961 431.902 705.423 436.151 705.423C440.4 705.423 443.862 701.987 443.862 697.711ZM443.862 743.849C443.862 739.6 440.4 736.138 436.151 736.138C431.902 736.138 428.439 739.6 428.439 743.849C428.439 748.098 431.902 751.561 436.151 751.561C440.4 751.561 443.862 748.125 443.862 743.849ZM443.862 789.987C443.862 785.738 440.4 782.275 436.151 782.275C431.902 782.275 428.439 785.738 428.439 789.987C428.439 794.236 431.902 797.698 436.151 797.698C440.4 797.725 443.862 794.262 443.862 789.987ZM443.862 836.151C443.862 831.902 440.4 828.439 436.151 828.439C431.902 828.439 428.439 831.902 428.439 836.151C428.439 840.4 431.902 843.862 436.151 843.862C440.4 843.862 443.862 840.4 443.862 836.151ZM443.862 882.289C443.862 878.039 440.4 874.577 436.151 874.577C431.902 874.577 428.439 878.039 428.439 882.289C428.439 886.538 431.902 890 436.151 890C440.4 890 443.862 886.538 443.862 882.289ZM397.698 697.711C397.698 693.462 394.236 690 389.987 690C385.738 690 382.275 693.462 382.275 697.711C382.275 701.961 385.738 705.423 389.987 705.423C394.262 705.423 397.698 701.987 397.698 697.711ZM397.698 743.849C397.698 739.6 394.236 736.138 389.987 736.138C385.738 736.138 382.275 739.6 382.275 743.849C382.275 748.098 385.738 751.561 389.987 751.561C394.262 751.561 397.698 748.125 397.698 743.849ZM397.698 789.987C397.698 785.738 394.236 782.275 389.987 782.275C385.738 782.275 382.275 785.738 382.275 789.987C382.275 794.236 385.738 797.698 389.987 797.698C394.262 797.725 397.698 794.262 397.698 789.987ZM397.698 836.151C397.698 831.902 394.236 828.439 389.987 828.439C385.738 828.439 382.275 831.902 382.275 836.151C382.275 840.4 385.738 843.862 389.987 843.862C394.262 843.862 397.698 840.4 397.698 836.151ZM397.698 882.289C397.698 878.039 394.236 874.577 389.987 874.577C385.738 874.577 382.275 878.039 382.275 882.289C382.275 886.538 385.738 890 389.987 890C394.262 890 397.698 886.538 397.698 882.289ZM351.561 697.711C351.561 693.462 348.098 690 343.849 690C339.6 690 336.138 693.462 336.138 697.711C336.138 701.961 339.6 705.423 343.849 705.423C348.125 705.423 351.561 701.987 351.561 697.711ZM351.561 743.849C351.561 739.6 348.098 736.138 343.849 736.138C339.6 736.138 336.138 739.6 336.138 743.849C336.138 748.098 339.6 751.561 343.849 751.561C348.125 751.561 351.561 748.125 351.561 743.849ZM351.561 789.987C351.561 785.738 348.098 782.275 343.849 782.275C339.6 782.275 336.138 785.738 336.138 789.987C336.138 794.236 339.6 797.698 343.849 797.698C348.125 797.725 351.561 794.262 351.561 789.987ZM351.561 836.151C351.561 831.902 348.098 828.439 343.849 828.439C339.6 828.439 336.138 831.902 336.138 836.151C336.138 840.4 339.6 843.862 343.849 843.862C348.125 843.862 351.561 840.4 351.561 836.151ZM351.561 882.289C351.561 878.039 348.098 874.577 343.849 874.577C339.6 874.577 336.138 878.039 336.138 882.289C336.138 886.538 339.6 890 343.849 890C348.125 890 351.561 886.538 351.561 882.289ZM305.423 697.711C305.423 693.462 301.961 690 297.711 690C293.462 690 290 693.462 290 697.711C290 701.961 293.462 705.423 297.711 705.423C301.961 705.423 305.423 701.987 305.423 697.711ZM305.423 743.849C305.423 739.6 301.961 736.138 297.711 736.138C293.462 736.138 290 739.6 290 743.849C290 748.098 293.462 751.561 297.711 751.561C301.961 751.561 305.423 748.125 305.423 743.849ZM305.423 789.987C305.423 785.738 301.961 782.275 297.711 782.275C293.462 782.275 290 785.738 290 789.987C290 794.236 293.462 797.698 297.711 797.698C301.961 797.698 305.423 794.262 305.423 789.987ZM305.423 836.151C305.423 831.902 301.961 828.439 297.711 828.439C293.462 828.439 290 831.902 290 836.151C290 840.4 293.462 843.862 297.711 843.862C301.961 843.862 305.423 840.4 305.423 836.151ZM305.423 882.289C305.423 878.039 301.961 874.577 297.711 874.577C293.462 874.577 290 878.039 290 882.289C290 886.538 293.462 890 297.711 890C301.961 890 305.423 886.538 305.423 882.289Z" fill="#ECF4D8"/>
</svg>
