<svg width="374" height="430" viewBox="0 0 374 430" fill="none" xmlns="http://www.w3.org/2000/svg">
<path d="M136.289 15.4229C132.039 15.4229 128.577 11.9607 128.577 7.71148C128.577 3.4623 132.039 0 136.289 0C140.538 0 144 3.4623 144 7.71148C144 11.9869 140.538 15.4229 136.289 15.4229ZM144 53.8492C144 49.6 140.538 46.1377 136.289 46.1377C132.039 46.1377 128.577 49.6 128.577 53.8492C128.577 58.0984 132.039 61.5607 136.289 61.5607C140.538 61.5607 144 58.1246 144 53.8492ZM144 99.9869C144 95.7377 140.538 92.2754 136.289 92.2754C132.039 92.2754 128.577 95.7377 128.577 99.9869C128.577 104.236 132.039 107.698 136.289 107.698C140.538 107.725 144 104.262 144 99.9869ZM144 146.151C144 141.902 140.538 138.439 136.289 138.439C132.039 138.439 128.577 141.902 128.577 146.151C128.577 150.4 132.039 153.862 136.289 153.862C140.538 153.862 144 150.4 144 146.151ZM144 192.289C144 188.039 140.538 184.577 136.289 184.577C132.039 184.577 128.577 188.039 128.577 192.289C128.577 196.538 132.039 200 136.289 200C140.538 200 144 196.538 144 192.289ZM97.8622 7.71148C97.8622 3.4623 94.3999 0 90.1507 0C85.9016 0 82.4393 3.4623 82.4393 7.71148C82.4393 11.9607 85.9016 15.4229 90.1507 15.4229C94.3999 15.4229 97.8622 11.9869 97.8622 7.71148ZM97.8622 53.8492C97.8622 49.6 94.3999 46.1377 90.1507 46.1377C85.9016 46.1377 82.4393 49.6 82.4393 53.8492C82.4393 58.0984 85.9016 61.5607 90.1507 61.5607C94.3999 61.5607 97.8622 58.1246 97.8622 53.8492ZM97.8622 99.9869C97.8622 95.7377 94.3999 92.2754 90.1507 92.2754C85.9016 92.2754 82.4393 95.7377 82.4393 99.9869C82.4393 104.236 85.9016 107.698 90.1507 107.698C94.3999 107.725 97.8622 104.262 97.8622 99.9869ZM97.8622 146.151C97.8622 141.902 94.3999 138.439 90.1507 138.439C85.9016 138.439 82.4393 141.902 82.4393 146.151C82.4393 150.4 85.9016 153.862 90.1507 153.862C94.3999 153.862 97.8622 150.4 97.8622 146.151ZM97.8622 192.289C97.8622 188.039 94.3999 184.577 90.1507 184.577C85.9016 184.577 82.4393 188.039 82.4393 192.289C82.4393 196.538 85.9016 200 90.1507 200C94.3999 200 97.8622 196.538 97.8622 192.289ZM51.6984 7.71148C51.6984 3.4623 48.2361 0 43.9869 0C39.7377 0 36.2754 3.4623 36.2754 7.71148C36.2754 11.9607 39.7377 15.4229 43.9869 15.4229C48.2623 15.4229 51.6984 11.9869 51.6984 7.71148ZM51.6984 53.8492C51.6984 49.6 48.2361 46.1377 43.9869 46.1377C39.7377 46.1377 36.2754 49.6 36.2754 53.8492C36.2754 58.0984 39.7377 61.5607 43.9869 61.5607C48.2623 61.5607 51.6984 58.1246 51.6984 53.8492ZM51.6984 99.9869C51.6984 95.7377 48.2361 92.2754 43.9869 92.2754C39.7377 92.2754 36.2754 95.7377 36.2754 99.9869C36.2754 104.236 39.7377 107.698 43.9869 107.698C48.2623 107.725 51.6984 104.262 51.6984 99.9869ZM51.6984 146.151C51.6984 141.902 48.2361 138.439 43.9869 138.439C39.7377 138.439 36.2754 141.902 36.2754 146.151C36.2754 150.4 39.7377 153.862 43.9869 153.862C48.2623 153.862 51.6984 150.4 51.6984 146.151ZM51.6984 192.289C51.6984 188.039 48.2361 184.577 43.9869 184.577C39.7377 184.577 36.2754 188.039 36.2754 192.289C36.2754 196.538 39.7377 200 43.9869 200C48.2623 200 51.6984 196.538 51.6984 192.289ZM5.56058 7.71148C5.56058 3.4623 2.09828 0 -2.1509 0C-6.40009 0 -9.86222 3.4623 -9.86222 7.71148C-9.86222 11.9607 -6.40009 15.4229 -2.1509 15.4229C2.12451 15.4229 5.56058 11.9869 5.56058 7.71148ZM5.56058 53.8492C5.56058 49.6 2.09828 46.1377 -2.1509 46.1377C-6.40009 46.1377 -9.86222 49.6 -9.86222 53.8492C-9.86222 58.0984 -6.40009 61.5607 -2.1509 61.5607C2.12451 61.5607 5.56058 58.1246 5.56058 53.8492ZM5.56058 99.9869C5.56058 95.7377 2.09828 92.2754 -2.1509 92.2754C-6.40009 92.2754 -9.86222 95.7377 -9.86222 99.9869C-9.86222 104.236 -6.40009 107.698 -2.1509 107.698C2.12451 107.725 5.56058 104.262 5.56058 99.9869ZM5.56058 146.151C5.56058 141.902 2.09828 138.439 -2.1509 138.439C-6.40009 138.439 -9.86222 141.902 -9.86222 146.151C-9.86222 150.4 -6.40009 153.862 -2.1509 153.862C2.12451 153.862 5.56058 150.4 5.56058 146.151ZM5.56058 192.289C5.56058 188.039 2.09828 184.577 -2.1509 184.577C-6.40009 184.577 -9.86222 188.039 -9.86222 192.289C-9.86222 196.538 -6.40009 200 -2.1509 200C2.12451 200 5.56058 196.538 5.56058 192.289ZM-40.577 7.71148C-40.577 3.4623 -44.0393 0 -48.2885 0C-52.5377 0 -56 3.4623 -56 7.71148C-56 11.9607 -52.5377 15.4229 -48.2885 15.4229C-44.0393 15.4229 -40.577 11.9869 -40.577 7.71148ZM-40.577 53.8492C-40.577 49.6 -44.0393 46.1377 -48.2885 46.1377C-52.5377 46.1377 -56 49.6 -56 53.8492C-56 58.0984 -52.5377 61.5607 -48.2885 61.5607C-44.0393 61.5607 -40.577 58.1246 -40.577 53.8492ZM-40.577 99.9869C-40.577 95.7377 -44.0393 92.2754 -48.2885 92.2754C-52.5377 92.2754 -56 95.7377 -56 99.9869C-56 104.236 -52.5377 107.698 -48.2885 107.698C-44.0393 107.698 -40.577 104.262 -40.577 99.9869ZM-40.577 146.151C-40.577 141.902 -44.0393 138.439 -48.2885 138.439C-52.5377 138.439 -56 141.902 -56 146.151C-56 150.4 -52.5377 153.862 -48.2885 153.862C-44.0393 153.862 -40.577 150.4 -40.577 146.151ZM-40.577 192.289C-40.577 188.039 -44.0393 184.577 -48.2885 184.577C-52.5377 184.577 -56 188.039 -56 192.289C-56 196.538 -52.5377 200 -48.2885 200C-44.0393 200 -40.577 196.538 -40.577 192.289Z" fill="#ECF4D8"/>
<path d="M366.289 15.4229C362.039 15.4229 358.577 11.9607 358.577 7.71148C358.577 3.4623 362.039 0 366.289 0C370.538 0 374 3.4623 374 7.71148C374 11.9869 370.538 15.4229 366.289 15.4229ZM374 53.8492C374 49.6 370.538 46.1377 366.289 46.1377C362.039 46.1377 358.577 49.6 358.577 53.8492C358.577 58.0984 362.039 61.5607 366.289 61.5607C370.538 61.5607 374 58.1246 374 53.8492ZM374 99.9869C374 95.7377 370.538 92.2754 366.289 92.2754C362.039 92.2754 358.577 95.7377 358.577 99.9869C358.577 104.236 362.039 107.698 366.289 107.698C370.538 107.725 374 104.262 374 99.9869ZM374 146.151C374 141.902 370.538 138.439 366.289 138.439C362.039 138.439 358.577 141.902 358.577 146.151C358.577 150.4 362.039 153.862 366.289 153.862C370.538 153.862 374 150.4 374 146.151ZM374 192.289C374 188.039 370.538 184.577 366.289 184.577C362.039 184.577 358.577 188.039 358.577 192.289C358.577 196.538 362.039 200 366.289 200C370.538 200 374 196.538 374 192.289ZM327.862 7.71148C327.862 3.4623 324.4 0 320.151 0C315.902 0 312.439 3.4623 312.439 7.71148C312.439 11.9607 315.902 15.4229 320.151 15.4229C324.4 15.4229 327.862 11.9869 327.862 7.71148ZM327.862 53.8492C327.862 49.6 324.4 46.1377 320.151 46.1377C315.902 46.1377 312.439 49.6 312.439 53.8492C312.439 58.0984 315.902 61.5607 320.151 61.5607C324.4 61.5607 327.862 58.1246 327.862 53.8492ZM327.862 99.9869C327.862 95.7377 324.4 92.2754 320.151 92.2754C315.902 92.2754 312.439 95.7377 312.439 99.9869C312.439 104.236 315.902 107.698 320.151 107.698C324.4 107.725 327.862 104.262 327.862 99.9869ZM327.862 146.151C327.862 141.902 324.4 138.439 320.151 138.439C315.902 138.439 312.439 141.902 312.439 146.151C312.439 150.4 315.902 153.862 320.151 153.862C324.4 153.862 327.862 150.4 327.862 146.151ZM327.862 192.289C327.862 188.039 324.4 184.577 320.151 184.577C315.902 184.577 312.439 188.039 312.439 192.289C312.439 196.538 315.902 200 320.151 200C324.4 200 327.862 196.538 327.862 192.289ZM281.698 7.71148C281.698 3.4623 278.236 0 273.987 0C269.738 0 266.275 3.4623 266.275 7.71148C266.275 11.9607 269.738 15.4229 273.987 15.4229C278.262 15.4229 281.698 11.9869 281.698 7.71148ZM281.698 53.8492C281.698 49.6 278.236 46.1377 273.987 46.1377C269.738 46.1377 266.275 49.6 266.275 53.8492C266.275 58.0984 269.738 61.5607 273.987 61.5607C278.262 61.5607 281.698 58.1246 281.698 53.8492ZM281.698 99.9869C281.698 95.7377 278.236 92.2754 273.987 92.2754C269.738 92.2754 266.275 95.7377 266.275 99.9869C266.275 104.236 269.738 107.698 273.987 107.698C278.262 107.725 281.698 104.262 281.698 99.9869ZM281.698 146.151C281.698 141.902 278.236 138.439 273.987 138.439C269.738 138.439 266.275 141.902 266.275 146.151C266.275 150.4 269.738 153.862 273.987 153.862C278.262 153.862 281.698 150.4 281.698 146.151ZM281.698 192.289C281.698 188.039 278.236 184.577 273.987 184.577C269.738 184.577 266.275 188.039 266.275 192.289C266.275 196.538 269.738 200 273.987 200C278.262 200 281.698 196.538 281.698 192.289ZM235.561 7.71148C235.561 3.4623 232.098 0 227.849 0C223.6 0 220.138 3.4623 220.138 7.71148C220.138 11.9607 223.6 15.4229 227.849 15.4229C232.125 15.4229 235.561 11.9869 235.561 7.71148ZM235.561 53.8492C235.561 49.6 232.098 46.1377 227.849 46.1377C223.6 46.1377 220.138 49.6 220.138 53.8492C220.138 58.0984 223.6 61.5607 227.849 61.5607C232.125 61.5607 235.561 58.1246 235.561 53.8492ZM235.561 99.9869C235.561 95.7377 232.098 92.2754 227.849 92.2754C223.6 92.2754 220.138 95.7377 220.138 99.9869C220.138 104.236 223.6 107.698 227.849 107.698C232.125 107.725 235.561 104.262 235.561 99.9869ZM235.561 146.151C235.561 141.902 232.098 138.439 227.849 138.439C223.6 138.439 220.138 141.902 220.138 146.151C220.138 150.4 223.6 153.862 227.849 153.862C232.125 153.862 235.561 150.4 235.561 146.151ZM235.561 192.289C235.561 188.039 232.098 184.577 227.849 184.577C223.6 184.577 220.138 188.039 220.138 192.289C220.138 196.538 223.6 200 227.849 200C232.125 200 235.561 196.538 235.561 192.289ZM189.423 7.71148C189.423 3.4623 185.961 0 181.711 0C177.462 0 174 3.4623 174 7.71148C174 11.9607 177.462 15.4229 181.711 15.4229C185.961 15.4229 189.423 11.9869 189.423 7.71148ZM189.423 53.8492C189.423 49.6 185.961 46.1377 181.711 46.1377C177.462 46.1377 174 49.6 174 53.8492C174 58.0984 177.462 61.5607 181.711 61.5607C185.961 61.5607 189.423 58.1246 189.423 53.8492ZM189.423 99.9869C189.423 95.7377 185.961 92.2754 181.711 92.2754C177.462 92.2754 174 95.7377 174 99.9869C174 104.236 177.462 107.698 181.711 107.698C185.961 107.698 189.423 104.262 189.423 99.9869ZM189.423 146.151C189.423 141.902 185.961 138.439 181.711 138.439C177.462 138.439 174 141.902 174 146.151C174 150.4 177.462 153.862 181.711 153.862C185.961 153.862 189.423 150.4 189.423 146.151ZM189.423 192.289C189.423 188.039 185.961 184.577 181.711 184.577C177.462 184.577 174 188.039 174 192.289C174 196.538 177.462 200 181.711 200C185.961 200 189.423 196.538 189.423 192.289Z" fill="#ECF4D8"/>
<path d="M136.289 245.423C132.039 245.423 128.577 241.961 128.577 237.711C128.577 233.462 132.039 230 136.289 230C140.538 230 144 233.462 144 237.711C144 241.987 140.538 245.423 136.289 245.423ZM144 283.849C144 279.6 140.538 276.138 136.289 276.138C132.039 276.138 128.577 279.6 128.577 283.849C128.577 288.098 132.039 291.561 136.289 291.561C140.538 291.561 144 288.125 144 283.849ZM144 329.987C144 325.738 140.538 322.275 136.289 322.275C132.039 322.275 128.577 325.738 128.577 329.987C128.577 334.236 132.039 337.698 136.289 337.698C140.538 337.725 144 334.262 144 329.987ZM144 376.151C144 371.902 140.538 368.439 136.289 368.439C132.039 368.439 128.577 371.902 128.577 376.151C128.577 380.4 132.039 383.862 136.289 383.862C140.538 383.862 144 380.4 144 376.151ZM144 422.289C144 418.039 140.538 414.577 136.289 414.577C132.039 414.577 128.577 418.039 128.577 422.289C128.577 426.538 132.039 430 136.289 430C140.538 430 144 426.538 144 422.289ZM97.8622 237.711C97.8622 233.462 94.3999 230 90.1507 230C85.9016 230 82.4393 233.462 82.4393 237.711C82.4393 241.961 85.9016 245.423 90.1507 245.423C94.3999 245.423 97.8622 241.987 97.8622 237.711ZM97.8622 283.849C97.8622 279.6 94.3999 276.138 90.1507 276.138C85.9016 276.138 82.4393 279.6 82.4393 283.849C82.4393 288.098 85.9016 291.561 90.1507 291.561C94.3999 291.561 97.8622 288.125 97.8622 283.849ZM97.8622 329.987C97.8622 325.738 94.3999 322.275 90.1507 322.275C85.9016 322.275 82.4393 325.738 82.4393 329.987C82.4393 334.236 85.9016 337.698 90.1507 337.698C94.3999 337.725 97.8622 334.262 97.8622 329.987ZM97.8622 376.151C97.8622 371.902 94.3999 368.439 90.1507 368.439C85.9016 368.439 82.4393 371.902 82.4393 376.151C82.4393 380.4 85.9016 383.862 90.1507 383.862C94.3999 383.862 97.8622 380.4 97.8622 376.151ZM97.8622 422.289C97.8622 418.039 94.3999 414.577 90.1507 414.577C85.9016 414.577 82.4393 418.039 82.4393 422.289C82.4393 426.538 85.9016 430 90.1507 430C94.3999 430 97.8622 426.538 97.8622 422.289ZM51.6984 237.711C51.6984 233.462 48.2361 230 43.9869 230C39.7377 230 36.2754 233.462 36.2754 237.711C36.2754 241.961 39.7377 245.423 43.9869 245.423C48.2623 245.423 51.6984 241.987 51.6984 237.711ZM51.6984 283.849C51.6984 279.6 48.2361 276.138 43.9869 276.138C39.7377 276.138 36.2754 279.6 36.2754 283.849C36.2754 288.098 39.7377 291.561 43.9869 291.561C48.2623 291.561 51.6984 288.125 51.6984 283.849ZM51.6984 329.987C51.6984 325.738 48.2361 322.275 43.9869 322.275C39.7377 322.275 36.2754 325.738 36.2754 329.987C36.2754 334.236 39.7377 337.698 43.9869 337.698C48.2623 337.725 51.6984 334.262 51.6984 329.987ZM51.6984 376.151C51.6984 371.902 48.2361 368.439 43.9869 368.439C39.7377 368.439 36.2754 371.902 36.2754 376.151C36.2754 380.4 39.7377 383.862 43.9869 383.862C48.2623 383.862 51.6984 380.4 51.6984 376.151ZM51.6984 422.289C51.6984 418.039 48.2361 414.577 43.9869 414.577C39.7377 414.577 36.2754 418.039 36.2754 422.289C36.2754 426.538 39.7377 430 43.9869 430C48.2623 430 51.6984 426.538 51.6984 422.289ZM5.56058 237.711C5.56058 233.462 2.09828 230 -2.1509 230C-6.40009 230 -9.86222 233.462 -9.86222 237.711C-9.86222 241.961 -6.40009 245.423 -2.1509 245.423C2.12451 245.423 5.56058 241.987 5.56058 237.711ZM5.56058 283.849C5.56058 279.6 2.09828 276.138 -2.1509 276.138C-6.40009 276.138 -9.86222 279.6 -9.86222 283.849C-9.86222 288.098 -6.40009 291.561 -2.1509 291.561C2.12451 291.561 5.56058 288.125 5.56058 283.849ZM5.56058 329.987C5.56058 325.738 2.09828 322.275 -2.1509 322.275C-6.40009 322.275 -9.86222 325.738 -9.86222 329.987C-9.86222 334.236 -6.40009 337.698 -2.1509 337.698C2.12451 337.725 5.56058 334.262 5.56058 329.987ZM5.56058 376.151C5.56058 371.902 2.09828 368.439 -2.1509 368.439C-6.40009 368.439 -9.86222 371.902 -9.86222 376.151C-9.86222 380.4 -6.40009 383.862 -2.1509 383.862C2.12451 383.862 5.56058 380.4 5.56058 376.151ZM5.56058 422.289C5.56058 418.039 2.09828 414.577 -2.1509 414.577C-6.40009 414.577 -9.86222 418.039 -9.86222 422.289C-9.86222 426.538 -6.40009 430 -2.1509 430C2.12451 430 5.56058 426.538 5.56058 422.289ZM-40.577 237.711C-40.577 233.462 -44.0393 230 -48.2885 230C-52.5377 230 -56 233.462 -56 237.711C-56 241.961 -52.5377 245.423 -48.2885 245.423C-44.0393 245.423 -40.577 241.987 -40.577 237.711ZM-40.577 283.849C-40.577 279.6 -44.0393 276.138 -48.2885 276.138C-52.5377 276.138 -56 279.6 -56 283.849C-56 288.098 -52.5377 291.561 -48.2885 291.561C-44.0393 291.561 -40.577 288.125 -40.577 283.849ZM-40.577 329.987C-40.577 325.738 -44.0393 322.275 -48.2885 322.275C-52.5377 322.275 -56 325.738 -56 329.987C-56 334.236 -52.5377 337.698 -48.2885 337.698C-44.0393 337.698 -40.577 334.262 -40.577 329.987ZM-40.577 376.151C-40.577 371.902 -44.0393 368.439 -48.2885 368.439C-52.5377 368.439 -56 371.902 -56 376.151C-56 380.4 -52.5377 383.862 -48.2885 383.862C-44.0393 383.862 -40.577 380.4 -40.577 376.151ZM-40.577 422.289C-40.577 418.039 -44.0393 414.577 -48.2885 414.577C-52.5377 414.577 -56 418.039 -56 422.289C-56 426.538 -52.5377 430 -48.2885 430C-44.0393 430 -40.577 426.538 -40.577 422.289Z" fill="#ECF4D8"/>
<path d="M366.289 245.423C362.039 245.423 358.577 241.961 358.577 237.711C358.577 233.462 362.039 230 366.289 230C370.538 230 374 233.462 374 237.711C374 241.987 370.538 245.423 366.289 245.423ZM374 283.849C374 279.6 370.538 276.138 366.289 276.138C362.039 276.138 358.577 279.6 358.577 283.849C358.577 288.098 362.039 291.561 366.289 291.561C370.538 291.561 374 288.125 374 283.849ZM374 329.987C374 325.738 370.538 322.275 366.289 322.275C362.039 322.275 358.577 325.738 358.577 329.987C358.577 334.236 362.039 337.698 366.289 337.698C370.538 337.725 374 334.262 374 329.987ZM374 376.151C374 371.902 370.538 368.439 366.289 368.439C362.039 368.439 358.577 371.902 358.577 376.151C358.577 380.4 362.039 383.862 366.289 383.862C370.538 383.862 374 380.4 374 376.151ZM374 422.289C374 418.039 370.538 414.577 366.289 414.577C362.039 414.577 358.577 418.039 358.577 422.289C358.577 426.538 362.039 430 366.289 430C370.538 430 374 426.538 374 422.289ZM327.862 237.711C327.862 233.462 324.4 230 320.151 230C315.902 230 312.439 233.462 312.439 237.711C312.439 241.961 315.902 245.423 320.151 245.423C324.4 245.423 327.862 241.987 327.862 237.711ZM327.862 283.849C327.862 279.6 324.4 276.138 320.151 276.138C315.902 276.138 312.439 279.6 312.439 283.849C312.439 288.098 315.902 291.561 320.151 291.561C324.4 291.561 327.862 288.125 327.862 283.849ZM327.862 329.987C327.862 325.738 324.4 322.275 320.151 322.275C315.902 322.275 312.439 325.738 312.439 329.987C312.439 334.236 315.902 337.698 320.151 337.698C324.4 337.725 327.862 334.262 327.862 329.987ZM327.862 376.151C327.862 371.902 324.4 368.439 320.151 368.439C315.902 368.439 312.439 371.902 312.439 376.151C312.439 380.4 315.902 383.862 320.151 383.862C324.4 383.862 327.862 380.4 327.862 376.151ZM327.862 422.289C327.862 418.039 324.4 414.577 320.151 414.577C315.902 414.577 312.439 418.039 312.439 422.289C312.439 426.538 315.902 430 320.151 430C324.4 430 327.862 426.538 327.862 422.289ZM281.698 237.711C281.698 233.462 278.236 230 273.987 230C269.738 230 266.275 233.462 266.275 237.711C266.275 241.961 269.738 245.423 273.987 245.423C278.262 245.423 281.698 241.987 281.698 237.711ZM281.698 283.849C281.698 279.6 278.236 276.138 273.987 276.138C269.738 276.138 266.275 279.6 266.275 283.849C266.275 288.098 269.738 291.561 273.987 291.561C278.262 291.561 281.698 288.125 281.698 283.849ZM281.698 329.987C281.698 325.738 278.236 322.275 273.987 322.275C269.738 322.275 266.275 325.738 266.275 329.987C266.275 334.236 269.738 337.698 273.987 337.698C278.262 337.725 281.698 334.262 281.698 329.987ZM281.698 376.151C281.698 371.902 278.236 368.439 273.987 368.439C269.738 368.439 266.275 371.902 266.275 376.151C266.275 380.4 269.738 383.862 273.987 383.862C278.262 383.862 281.698 380.4 281.698 376.151ZM281.698 422.289C281.698 418.039 278.236 414.577 273.987 414.577C269.738 414.577 266.275 418.039 266.275 422.289C266.275 426.538 269.738 430 273.987 430C278.262 430 281.698 426.538 281.698 422.289ZM235.561 237.711C235.561 233.462 232.098 230 227.849 230C223.6 230 220.138 233.462 220.138 237.711C220.138 241.961 223.6 245.423 227.849 245.423C232.125 245.423 235.561 241.987 235.561 237.711ZM235.561 283.849C235.561 279.6 232.098 276.138 227.849 276.138C223.6 276.138 220.138 279.6 220.138 283.849C220.138 288.098 223.6 291.561 227.849 291.561C232.125 291.561 235.561 288.125 235.561 283.849ZM235.561 329.987C235.561 325.738 232.098 322.275 227.849 322.275C223.6 322.275 220.138 325.738 220.138 329.987C220.138 334.236 223.6 337.698 227.849 337.698C232.125 337.725 235.561 334.262 235.561 329.987ZM235.561 376.151C235.561 371.902 232.098 368.439 227.849 368.439C223.6 368.439 220.138 371.902 220.138 376.151C220.138 380.4 223.6 383.862 227.849 383.862C232.125 383.862 235.561 380.4 235.561 376.151ZM235.561 422.289C235.561 418.039 232.098 414.577 227.849 414.577C223.6 414.577 220.138 418.039 220.138 422.289C220.138 426.538 223.6 430 227.849 430C232.125 430 235.561 426.538 235.561 422.289ZM189.423 237.711C189.423 233.462 185.961 230 181.711 230C177.462 230 174 233.462 174 237.711C174 241.961 177.462 245.423 181.711 245.423C185.961 245.423 189.423 241.987 189.423 237.711ZM189.423 283.849C189.423 279.6 185.961 276.138 181.711 276.138C177.462 276.138 174 279.6 174 283.849C174 288.098 177.462 291.561 181.711 291.561C185.961 291.561 189.423 288.125 189.423 283.849ZM189.423 329.987C189.423 325.738 185.961 322.275 181.711 322.275C177.462 322.275 174 325.738 174 329.987C174 334.236 177.462 337.698 181.711 337.698C185.961 337.698 189.423 334.262 189.423 329.987ZM189.423 376.151C189.423 371.902 185.961 368.439 181.711 368.439C177.462 368.439 174 371.902 174 376.151C174 380.4 177.462 383.862 181.711 383.862C185.961 383.862 189.423 380.4 189.423 376.151ZM189.423 422.289C189.423 418.039 185.961 414.577 181.711 414.577C177.462 414.577 174 418.039 174 422.289C174 426.538 177.462 430 181.711 430C185.961 430 189.423 426.538 189.423 422.289Z" fill="#ECF4D8"/>
</svg>
