<svg width="80" height="80" viewBox="0 0 80 80" fill="none" xmlns="http://www.w3.org/2000/svg">
<path fill-rule="evenodd" clip-rule="evenodd" d="M48.1487 30.0736L47.6574 28.9913C44.9879 23.1101 39.0372 19 32.125 19C22.7192 19 15.1091 26.5633 15.11 35.8829C15.11 36.0172 15.1185 36.1608 15.1328 36.3164L15.2087 37.1423L14.4111 37.3697C12.0222 38.0506 9.91158 39.8078 8.3863 41.9832C6.8572 44.1641 6 46.6468 6 48.646V49.83C6 52.3995 7.40784 55.0899 9.82546 57.1665C12.232 59.2337 15.5669 60.623 19.254 60.623H61.234C64.9138 60.623 68.2494 59.2339 70.6586 57.1663C73.0789 55.0891 74.49 52.3987 74.49 49.83V48.646C74.49 46.2357 73.2499 43.3941 71.1022 41.0613C68.9657 38.7407 66.0265 37.0297 62.7678 36.7575L61.8789 36.6833L61.8515 35.7917C61.7182 31.4574 58.1473 27.986 53.738 27.986C52.0227 27.986 50.4366 28.515 49.131 29.4045L48.1487 30.0736ZM21.91 37.93H26.8205L31.7096 56.377H26.8742L25.8512 52.348H22.5512L21.4872 56.377H16.6307L21.91 37.93ZM21.781 51.348H26.629L27.652 55.377H30.41L26.051 38.93H22.664L17.957 55.377H20.717L21.781 51.348ZM39.967 38.93L42.193 51.781H42.24L44.394 38.93H47.016L43.724 55.377H40.666L38.533 42.986H38.484L36.373 55.377H33.31L30.113 38.93H32.781L34.957 51.713H35.006L37.183 38.93H39.967ZM34.9817 45.8992L36.3389 37.93H40.8087L42.2007 45.9662L43.5477 37.93H48.236L44.5437 56.377H39.8234L38.5135 48.7673L37.217 56.377H32.4857L28.8999 37.93H33.6252L34.9817 45.8992ZM58.4277 42.309C58.2965 40.6582 57.5154 38.608 53.767 38.608C50.66 38.608 48.619 40.268 48.619 43.266C48.619 45.612 49.66 46.856 52.072 47.774L53.881 48.401C55.369 48.835 56.248 49.598 56.248 51.323C56.248 52.544 55.41 53.721 53.742 53.721C51.914 53.721 51.031 52.705 51.031 50.703V50.285H48.385V50.678C48.385 50.8779 48.392 51.0809 48.4075 51.285C48.5702 53.4336 49.6707 55.698 53.416 55.698C56.756 55.698 58.893 54.249 58.893 50.751C58.892 48.49 57.869 47.221 55.527 46.394L53.742 45.746C51.98 45.08 51.262 44.365 51.262 42.963C51.262 41.209 52.352 40.588 53.485 40.588C55.131 40.588 55.805 41.463 55.805 42.963V43.309H58.451V42.936C58.451 42.7377 58.445 42.5268 58.4277 42.309ZM54.0895 44.8083C53.2555 44.4925 52.817 44.2157 52.5793 43.9557C52.3827 43.7407 52.262 43.4709 52.262 42.963C52.262 42.3027 52.4593 42.0042 52.6194 41.8595C52.799 41.697 53.0884 41.588 53.485 41.588C54.1376 41.588 54.4049 41.7582 54.5268 41.8905C54.6632 42.0387 54.805 42.3421 54.805 42.963V44.309H59.451V42.936C59.451 42.0323 59.3425 40.6772 58.5052 39.5409C57.6232 38.344 56.1051 37.608 53.767 37.608C52.0444 37.608 50.4976 38.0686 49.3677 39.0616C48.2202 40.0701 47.619 41.5263 47.619 43.266C47.619 44.5928 47.9165 45.7286 48.653 46.6712C49.3738 47.5937 50.4284 48.2184 51.7163 48.7086L51.7303 48.7139L53.5771 49.354L53.601 49.361C54.2605 49.5534 54.6451 49.7812 54.8721 50.0389C55.0788 50.2735 55.248 50.6391 55.248 51.323C55.248 51.7104 55.1151 52.0563 54.8902 52.2968C54.6783 52.5233 54.3251 52.721 53.742 52.721C53.0113 52.721 52.6485 52.523 52.4477 52.2975C52.2269 52.0497 52.031 51.5788 52.031 50.703V49.285H47.385V50.678C47.385 51.9383 47.6349 53.4487 48.5705 54.6628C49.5436 55.9254 51.1246 56.698 53.416 56.698C55.2085 56.698 56.8476 56.3122 58.0502 55.3019C59.285 54.2647 59.893 52.7121 59.893 50.751C59.8924 49.4649 59.5982 48.345 58.8763 47.4197C58.167 46.5104 57.1311 45.9005 55.8643 45.4526C55.8629 45.4521 55.8614 45.4516 55.86 45.4511L54.0895 44.8083ZM48.568 28.578C48.8443 28.3897 49.1319 28.2159 49.4296 28.0576C50.71 27.377 52.1769 26.986 53.738 26.986C58.683 26.986 62.701 30.882 62.851 35.761C69.964 36.355 75.49 43.2 75.49 48.646V49.83C75.49 55.693 69.095 61.623 61.234 61.623H19.254C11.379 61.623 5 55.693 5 49.83V48.646C5 44.144 8.801 37.929 14.137 36.408C14.121 36.234 14.11 36.058 14.11 35.883C14.109 26.004 22.174 18 32.125 18C39.0822 18 45.1184 21.9334 48.125 27.6711C48.2809 27.9686 48.4287 28.271 48.568 28.578ZM22.271 49.252H26.189L24.287 41.141H24.244L22.271 49.252ZM23.5434 48.252L24.2481 45.3551L24.9274 48.252H23.5434Z" fill="white"/>
<path fill-rule="evenodd" clip-rule="evenodd" d="M21.9083 37.93H26.8187L31.7078 56.377H26.8724L25.8494 52.348H22.5494L21.4854 56.377H16.6289L21.9083 37.93ZM21.7792 51.348H26.6272L27.6502 55.377H30.4082L26.0492 38.93H22.6622L17.9552 55.377H20.7152L21.7792 51.348ZM39.9652 38.93L42.1912 51.781H42.2382L44.3922 38.93H47.0142L43.7222 55.377H40.6642L38.5312 42.986H38.4822L36.3712 55.377H33.3082L30.1112 38.93H32.7792L34.9552 51.713H35.0042L37.1812 38.93H39.9652ZM34.98 45.8992L36.3372 37.93H40.8069L42.1989 45.9662L43.5459 37.93H48.2342L44.5419 56.377H39.8217L38.5117 48.7673L37.2153 56.377H32.4839L28.8981 37.93H33.6234L34.98 45.8992ZM58.4259 42.309C58.2948 40.6582 57.5136 38.608 53.7652 38.608C50.6582 38.608 48.6172 40.268 48.6172 43.266C48.6172 45.612 49.6582 46.856 52.0702 47.774L53.8792 48.401C55.3672 48.835 56.2462 49.598 56.2462 51.323C56.2462 52.544 55.4082 53.721 53.7402 53.721C51.9122 53.721 51.0292 52.705 51.0292 50.703V50.285H48.3832V50.678C48.3832 50.8779 48.3902 51.0809 48.4057 51.285C48.5684 53.4336 49.669 55.698 53.4142 55.698C56.7542 55.698 58.8912 54.249 58.8912 50.751C58.8902 48.49 57.8672 47.221 55.5252 46.394L53.7402 45.746C51.9782 45.08 51.2602 44.365 51.2602 42.963C51.2602 41.209 52.3502 40.588 53.4832 40.588C55.1292 40.588 55.8032 41.463 55.8032 42.963V43.309H58.4492V42.936C58.4492 42.7377 58.4433 42.5268 58.4259 42.309ZM54.0878 44.8083C53.2537 44.4925 52.8152 44.2157 52.5775 43.9557C52.3809 43.7407 52.2602 43.4709 52.2602 42.963C52.2602 42.3027 52.4575 42.0042 52.6176 41.8595C52.7973 41.697 53.0867 41.588 53.4832 41.588C54.1358 41.588 54.4031 41.7582 54.525 41.8905C54.6615 42.0387 54.8032 42.3421 54.8032 42.963V44.309H59.4492V42.936C59.4492 42.0323 59.3408 40.6772 58.5034 39.5409C57.6214 38.344 56.1033 37.608 53.7652 37.608C52.0427 37.608 50.4959 38.0686 49.366 39.0616C48.2184 40.0701 47.6172 41.5263 47.6172 43.266C47.6172 44.5928 47.9148 45.7286 48.6512 46.6712C49.372 47.5937 50.4267 48.2184 51.7145 48.7086L51.7286 48.7139L53.5753 49.354L53.5992 49.361C54.2588 49.5534 54.6433 49.7812 54.8704 50.0389C55.0771 50.2735 55.2462 50.6391 55.2462 51.323C55.2462 51.7104 55.1133 52.0563 54.8884 52.2968C54.6765 52.5233 54.3233 52.721 53.7402 52.721C53.0095 52.721 52.6468 52.523 52.4459 52.2975C52.2251 52.0497 52.0292 51.5788 52.0292 50.703V49.285H47.3832V50.678C47.3832 51.9383 47.6331 53.4487 48.5688 54.6628C49.5418 55.9254 51.1228 56.698 53.4142 56.698C55.2068 56.698 56.8458 56.3122 58.0485 55.3019C59.2832 54.2647 59.8912 52.7121 59.8912 50.751C59.8907 49.4649 59.5965 48.345 58.8746 47.4197C58.1653 46.5104 57.1294 45.9005 55.8626 45.4526L55.8582 45.4511L54.0878 44.8083ZM22.2692 49.252H26.1872L24.2852 41.141H24.2422L22.2692 49.252ZM23.5417 48.252L24.2463 45.3551L24.9256 48.252H23.5417Z" fill="#FF9A00"/>
</svg>
