<svg width="80" height="80" viewBox="0 0 80 80" fill="none" xmlns="http://www.w3.org/2000/svg">
<path fill-rule="evenodd" clip-rule="evenodd" d="M27.6324 65L51.5176 65C52.7646 65 53.8782 64.3066 54.5728 63.334L67.7711 41.9441C68.4657 40.6971 68.4657 39.3054 67.6327 38.1943L60.2754 26.1108L60.2728 26.1108L60.2714 26.1108L54.5838 16.666C53.8892 15.6933 52.7781 15 51.5286 15H27.6322C26.3852 15 25.2717 15.6933 24.5771 16.666L16.5 30L11.521 38.1943C11.1801 38.7603 11 39.4085 11 40.0692C11 40.7299 11.1801 41.3781 11.521 41.9441L24.5772 63.334C25.2718 64.4451 26.3829 65 27.6324 65ZM25.4251 62.8039L25.4278 62.8081C25.9267 63.6033 26.704 64 27.6324 64L40.4471 64L46.2187 54.8892H31.1104L16.5185 31.8954L12.3776 38.7103L12.3767 38.7118C12.1302 39.1217 12 39.5909 12 40.0692C12 40.5471 12.1301 41.0161 12.3762 41.4257L12.3776 41.4281L25.4251 62.8039ZM31.6602 53.8892L47 54L56.2425 40L47.4935 26.1108L31.6601 26.1108L22.8585 40L16.5 30L31.6602 53.8892ZM17.1346 31L22.2114 39L31.1099 25.1108H58.5019L53.7486 17.2176C53.2054 16.4741 52.3863 16 51.5286 16H27.6322C26.7764 16 25.9546 16.4749 25.4115 17.2185L17.1346 31ZM48.5 26.1108L57.4253 40.0015L47.8651 54.1589L47.444 54.8239V54.8892H47.4027L41.6342 64H51.5176C52.3747 64 53.1975 63.5238 53.7406 62.7784L66.9076 41.4391C67.4318 40.485 67.3877 39.5346 66.8326 38.7942L66.8037 38.7556L59.162 26.1108L48.5 26.1108ZM50.688 22.9346L50.6882 22.9359C51.332 22.9359 51.9466 22.7174 52.4027 22.2612C52.8588 21.8051 53.0773 21.1905 53.0773 20.5467C53.0773 19.9056 52.8619 19.2913 52.4078 18.834C51.9531 18.376 51.339 18.1563 50.6944 18.1563C50.0509 18.1563 49.4366 18.3749 48.9806 18.8307C48.5244 19.2865 48.3052 19.901 48.3052 20.5454C48.3052 21.1899 48.5244 21.8044 48.9806 22.2602C49.4351 22.7144 50.0469 22.9332 50.688 22.9346ZM50.6944 21.9358C50.7277 21.9357 50.7609 21.9347 50.7933 21.9328C51.5687 21.888 52.0773 21.3454 52.0773 20.5467C52.0773 19.7124 51.5274 19.1563 50.6944 19.1563C49.8614 19.1563 49.3052 19.7112 49.3052 20.5454C49.3052 21.3439 49.8147 21.8864 50.5887 21.9316C50.6213 21.9335 50.6544 21.9345 50.6879 21.9346C50.69 21.9346 50.6923 21.9346 50.6944 21.9346L50.6882 21.9359C50.6902 21.9359 50.6923 21.9358 50.6944 21.9358ZM26.7578 22.2597C26.302 21.8037 26.0836 21.1892 26.0836 20.5454C26.0836 19.9017 26.302 19.2872 26.7578 18.8311C27.2136 18.375 27.8279 18.1563 28.4715 18.1563C29.1156 18.1563 29.7298 18.3757 30.1856 18.8314C30.6413 19.2871 30.8607 19.9013 30.8607 20.5454C30.8607 21.1889 30.642 21.8033 30.1862 22.2593C29.7304 22.7154 29.1159 22.9346 28.4715 22.9346C27.8279 22.9346 27.2136 22.7159 26.7578 22.2597ZM15.6409 41.7052C15.1848 41.2497 14.9654 40.6355 14.9654 39.9913C14.9654 39.3471 15.1848 38.7329 15.6405 38.2772C16.0962 37.8215 16.7104 37.6021 17.3545 37.6021C17.998 37.6021 18.6123 37.8208 19.0684 38.2765C19.5245 38.7323 19.7437 39.3468 19.7437 39.9913C19.7437 40.6358 19.5244 41.2502 19.0679 41.7059C18.6116 42.1612 17.9974 42.3792 17.3545 42.3792C16.7111 42.3792 16.0969 42.1605 15.6409 41.7052ZM26.7515 61.1495C26.2961 60.6935 26.0774 60.0793 26.0774 59.4358C26.0774 58.7924 26.2961 58.1782 26.7515 57.7222C27.207 57.2661 27.8212 57.0467 28.4654 57.0467C29.1089 57.0467 29.7232 57.2654 30.1792 57.7211C30.6353 58.1769 30.8545 58.7914 30.8545 59.4358C30.8545 60.0797 30.636 60.6942 30.1799 61.1504C29.7238 61.6065 29.1092 61.825 28.4654 61.825C27.8212 61.825 27.207 61.6056 26.7515 61.1495ZM48.9731 61.1499C48.5173 60.6942 48.298 60.08 48.298 59.4358C48.298 58.7917 48.5173 58.1775 48.9731 57.7218C49.4288 57.2661 50.043 57.0467 50.6871 57.0467C51.3306 57.0467 51.9449 57.2653 52.401 57.7211C52.8571 58.1769 53.0763 58.7914 53.0763 59.4358C53.0763 60.0796 52.8578 60.6942 52.4017 61.1504C51.9455 61.6065 51.3309 61.825 50.6871 61.825C50.043 61.825 49.4288 61.6056 48.9731 61.1499ZM60.0849 41.7049C59.6288 41.2491 59.41 40.6348 59.41 39.9913C59.41 39.3478 59.6287 38.7334 60.0844 38.2774C60.5403 37.8213 61.1548 37.6021 61.7992 37.6021C62.4431 37.6021 63.0576 37.8206 63.5136 38.2772C63.9694 38.7336 64.1871 39.3481 64.1871 39.9913C64.1871 40.6351 63.9686 41.2495 63.5124 41.7054C63.0563 42.1612 62.4421 42.3792 61.7992 42.3792C61.1554 42.3792 60.541 42.1607 60.0849 41.7049ZM28.4715 21.9346C27.6385 21.9346 27.0836 21.3797 27.0836 20.5454C27.0836 19.7112 27.6385 19.1563 28.4715 19.1563C29.3045 19.1563 29.8607 19.7124 29.8607 20.5454C29.8607 21.3784 29.3057 21.9346 28.4715 21.9346ZM50.6871 60.825C49.8541 60.825 49.298 60.2688 49.298 59.4358C49.298 58.6028 49.8541 58.0467 50.6871 58.0467C51.5201 58.0467 52.0763 58.6016 52.0763 59.4358C52.0763 60.2701 51.5214 60.825 50.6871 60.825ZM61.7992 41.3792C60.965 41.3792 60.41 40.8243 60.41 39.9913C60.41 39.1583 60.965 38.6021 61.7992 38.6021C62.6334 38.6021 63.1871 39.157 63.1871 39.9913C63.1871 40.8255 62.6322 41.3792 61.7992 41.3792ZM17.3545 41.3792C16.5215 41.3792 15.9654 40.8243 15.9654 39.9913C15.9654 39.1583 16.5215 38.6021 17.3545 38.6021C18.1875 38.6021 18.7437 39.157 18.7437 39.9913C18.7437 40.8255 18.1875 41.3792 17.3545 41.3792ZM28.4654 60.825C27.6324 60.825 27.0774 60.2688 27.0774 59.4358C27.0774 58.6028 27.6324 58.0467 28.4654 58.0467C29.2984 58.0467 29.8545 58.6016 29.8545 59.4358C29.8545 60.2701 29.2996 60.825 28.4654 60.825Z" fill="#EA4334"/>
<path fill-rule="evenodd" clip-rule="evenodd" d="M26.0836 20.5454C26.0836 21.1892 26.302 21.8037 26.7578 22.2597C27.2136 22.7159 27.8279 22.9346 28.4715 22.9346C29.1159 22.9346 29.7304 22.7154 30.1862 22.2593C30.642 21.8033 30.8607 21.1889 30.8607 20.5454C30.8607 19.9013 30.6413 19.2871 30.1856 18.8314C29.7298 18.3757 29.1156 18.1563 28.4715 18.1563C27.8279 18.1563 27.2136 18.375 26.7578 18.8311C26.302 19.2872 26.0836 19.9017 26.0836 20.5454ZM28.4715 21.9346C27.6385 21.9346 27.0836 21.3797 27.0836 20.5454C27.0836 19.7112 27.6385 19.1563 28.4715 19.1563C29.3045 19.1563 29.8607 19.7124 29.8607 20.5454C29.8607 21.3784 29.3057 21.9346 28.4715 21.9346Z" fill="#0074BC"/>
<path fill-rule="evenodd" clip-rule="evenodd" d="M22.2114 39L17.1346 31L17.1352 30.999L22.2171 38.9912L22.2114 39ZM14.9654 39.9913C14.9654 40.6355 15.1848 41.2497 15.6409 41.7052C16.0969 42.1605 16.7111 42.3792 17.3545 42.3792C17.9974 42.3792 18.6116 42.1612 19.0679 41.7059C19.5244 41.2502 19.7437 40.6358 19.7437 39.9913C19.7437 39.3468 19.5245 38.7323 19.0684 38.2765C18.6123 37.8208 17.998 37.6021 17.3545 37.6021C16.7104 37.6021 16.0962 37.8215 15.6405 38.2772C15.1848 38.7329 14.9654 39.3471 14.9654 39.9913ZM26.0774 59.4358C26.0774 60.0793 26.2961 60.6935 26.7515 61.1495C27.207 61.6056 27.8212 61.825 28.4654 61.825C29.1092 61.825 29.7238 61.6065 30.1799 61.1504C30.636 60.6942 30.8545 60.0797 30.8545 59.4358C30.8545 58.7914 30.6353 58.1769 30.1792 57.7211C29.7232 57.2654 29.1089 57.0467 28.4654 57.0467C27.8212 57.0467 27.207 57.2661 26.7515 57.7222C26.2961 58.1782 26.0774 58.7924 26.0774 59.4358ZM15.9654 39.9913C15.9654 40.8243 16.5215 41.3792 17.3545 41.3792C18.1875 41.3792 18.7437 40.8255 18.7437 39.9913C18.7437 39.157 18.1875 38.6021 17.3545 38.6021C16.5215 38.6021 15.9654 39.1583 15.9654 39.9913ZM27.0774 59.4358C27.0774 60.2688 27.6324 60.825 28.4654 60.825C29.2996 60.825 29.8545 60.2701 29.8545 59.4358C29.8545 58.6016 29.2984 58.0467 28.4654 58.0467C27.6324 58.0467 27.0774 58.6028 27.0774 59.4358Z" fill="#0074BC"/>
<path fill-rule="evenodd" clip-rule="evenodd" d="M50.688 22.9346L50.6882 22.9359C51.332 22.9359 51.9466 22.7174 52.4027 22.2612C52.8588 21.8051 53.0773 21.1905 53.0773 20.5467C53.0773 19.9056 52.8619 19.2913 52.4078 18.834C51.9531 18.376 51.339 18.1563 50.6944 18.1563C50.0509 18.1563 49.4366 18.3749 48.9806 18.8307C48.5244 19.2865 48.3052 19.901 48.3052 20.5454C48.3052 21.1899 48.5244 21.8044 48.9806 22.2602C49.4351 22.7144 50.0469 22.9332 50.688 22.9346ZM50.7933 21.9328C50.7609 21.9347 50.7277 21.9357 50.6944 21.9358L50.6882 21.9359L50.6944 21.9346L50.6879 21.9346C50.6544 21.9345 50.6213 21.9335 50.5887 21.9316C49.8147 21.8864 49.3052 21.3439 49.3052 20.5454C49.3052 19.7112 49.8614 19.1563 50.6944 19.1563C51.5274 19.1563 52.0773 19.7124 52.0773 20.5467C52.0773 21.3454 51.5687 21.888 50.7933 21.9328Z" fill="#0074BC"/>
<path d="M54.5838 16.666C53.8892 15.6933 52.7781 15 51.5286 15H27.6322C26.3852 15 25.2717 15.6933 24.5771 16.666L16.5 30L17.1352 30.999L25.4115 17.2185C25.9546 16.4749 26.7764 16 27.6322 16H51.5286C52.3863 16 53.2054 16.4741 53.7486 17.2176L58.5019 25.1108H31.1099L22.2171 38.9912L22.8585 40L26.1668 34.7794L31.6601 26.1108L47.4935 26.1108L48.5 26.1108L59.162 26.1108L60.2714 26.1108L54.5838 16.666Z" fill="#0074BC"/>
<path fill-rule="evenodd" clip-rule="evenodd" d="M11 40.0692C11 39.4085 11.1801 38.7603 11.521 38.1943L16.5 30L17.1346 31L22.2114 39L31.6602 53.8892L47 54L47.8651 54.1589L47.444 54.8239V54.8892H47.4027L41.6342 64L40.4093 65L27.6324 65C26.3829 65 25.2718 64.4451 24.5772 63.334L11.521 41.9441C11.1801 41.3781 11 40.7299 11 40.0692ZM25.4251 62.8039L25.4278 62.8081C25.9267 63.6033 26.704 64 27.6324 64L40.4471 64L46.2187 54.8892H31.1104L16.5185 31.8954L12.3776 38.7103L12.3767 38.7118C12.1302 39.1217 12 39.5909 12 40.0692C12 40.5471 12.1301 41.0161 12.3762 41.4257L12.3776 41.4281L25.4251 62.8039Z" fill="#F8BB16"/>
<path fill-rule="evenodd" clip-rule="evenodd" d="M26.0774 59.4358C26.0774 60.0793 26.2961 60.6935 26.7515 61.1495C27.207 61.6056 27.8212 61.825 28.4654 61.825C29.1092 61.825 29.7238 61.6065 30.1799 61.1504C30.636 60.6942 30.8545 60.0797 30.8545 59.4358C30.8545 58.7914 30.6353 58.1769 30.1792 57.7211C29.7232 57.2654 29.1089 57.0467 28.4654 57.0467C27.8212 57.0467 27.207 57.2661 26.7515 57.7222C26.2961 58.1782 26.0774 58.7924 26.0774 59.4358ZM28.4654 60.825C27.6324 60.825 27.0774 60.2688 27.0774 59.4358C27.0774 58.6028 27.6324 58.0467 28.4654 58.0467C29.2984 58.0467 29.8545 58.6016 29.8545 59.4358C29.8545 60.2701 29.2996 60.825 28.4654 60.825Z" fill="#F8BB16"/>
<path fill-rule="evenodd" clip-rule="evenodd" d="M14.9654 39.9913C14.9654 40.6355 15.1848 41.2497 15.6409 41.7052C16.0969 42.1605 16.7111 42.3792 17.3545 42.3792C17.9974 42.3792 18.6116 42.1612 19.0679 41.7059C19.5244 41.2502 19.7437 40.6358 19.7437 39.9913C19.7437 39.3468 19.5245 38.7323 19.0684 38.2765C18.6123 37.8208 17.998 37.6021 17.3545 37.6021C16.7104 37.6021 16.0962 37.8215 15.6405 38.2772C15.1848 38.7329 14.9654 39.3471 14.9654 39.9913ZM17.3545 41.3792C16.5215 41.3792 15.9654 40.8243 15.9654 39.9913C15.9654 39.1583 16.5215 38.6021 17.3545 38.6021C18.1875 38.6021 18.7437 39.157 18.7437 39.9913C18.7437 40.8255 18.1875 41.3792 17.3545 41.3792Z" fill="#F8BB16"/>
<path fill-rule="evenodd" clip-rule="evenodd" d="M50.6875 22.9346L50.6876 22.9359C51.3315 22.9359 51.946 22.7174 52.4022 22.2612C52.8583 21.8051 53.0768 21.1905 53.0768 20.5467C53.0768 19.9056 52.8613 19.2913 52.4073 18.834C51.9526 18.376 51.3384 18.1563 50.6939 18.1563C50.0504 18.1563 49.4361 18.375 48.98 18.8307C48.5239 19.2865 48.3047 19.901 48.3047 20.5454C48.3047 21.1899 48.5239 21.8044 48.98 22.2602C49.4346 22.7144 50.0463 22.9332 50.6875 22.9346ZM50.6939 21.9358C50.7272 21.9357 50.7604 21.9347 50.7928 21.9329C51.5682 21.888 52.0768 21.3454 52.0768 20.5467C52.0768 19.7124 51.5269 19.1563 50.6939 19.1563C49.8609 19.1563 49.3047 19.7112 49.3047 20.5454C49.3047 21.3439 49.8141 21.8864 50.5881 21.9316C50.6208 21.9335 50.6539 21.9345 50.6874 21.9346C50.6895 21.9346 50.6918 21.9346 50.6939 21.9346L50.6876 21.9359C50.6897 21.9359 50.6918 21.9359 50.6939 21.9358ZM26.7573 22.2598C26.3015 21.8037 26.083 21.1892 26.083 20.5454C26.083 19.9017 26.3015 19.2872 26.7573 18.8311C27.2131 18.375 27.8274 18.1563 28.471 18.1563C29.1151 18.1563 29.7293 18.3757 30.185 18.8314C30.6407 19.2871 30.8601 19.9013 30.8601 20.5454C30.8601 21.1889 30.6415 21.8033 30.1857 22.2593C29.7299 22.7154 29.1154 22.9346 28.471 22.9346C27.8274 22.9346 27.2131 22.7159 26.7573 22.2598ZM15.6404 41.7052C15.1843 41.2497 14.9648 40.6355 14.9648 39.9913C14.9648 39.3471 15.1842 38.7329 15.6399 38.2772C16.0957 37.8215 16.7099 37.6021 17.354 37.6021C17.9975 37.6021 18.6118 37.8208 19.0678 38.2765C19.524 38.7323 19.7432 39.3468 19.7432 39.9913C19.7432 40.6358 19.5239 41.2502 19.0674 41.7059C18.6111 42.1613 17.9969 42.3792 17.354 42.3792C16.7105 42.3792 16.0964 42.1605 15.6404 41.7052ZM26.7509 61.1495C26.2956 60.6935 26.0769 60.0793 26.0769 59.4359C26.0769 58.7924 26.2956 58.1782 26.7509 57.7222C27.2065 57.2662 27.8206 57.0467 28.4648 57.0467C29.1083 57.0467 29.7227 57.2654 30.1787 57.7211C30.6348 58.1769 30.854 58.7914 30.854 59.4359C30.854 60.0797 30.6355 60.6942 30.1794 61.1504C29.7232 61.6065 29.1086 61.825 28.4648 61.825C27.8206 61.825 27.2065 61.6056 26.7509 61.1495ZM48.9725 61.1499C48.5168 60.6942 48.2974 60.08 48.2974 59.4358C48.2974 58.7917 48.5168 58.1775 48.9725 57.7218C49.4282 57.2661 50.0425 57.0467 50.6866 57.0467C51.3301 57.0467 51.9444 57.2654 52.4004 57.7211C52.8566 58.1769 53.0758 58.7914 53.0758 59.4358C53.0758 60.0796 52.8573 60.6942 52.4011 61.1504C51.945 61.6065 51.3304 61.825 50.6866 61.825C50.0425 61.825 49.4282 61.6056 48.9725 61.1499ZM60.0844 41.7049C59.6283 41.2491 59.4095 40.6348 59.4095 39.9913C59.4095 39.3478 59.6282 38.7334 60.0839 38.2774C60.5397 37.8213 61.1542 37.6021 61.7987 37.6021C62.4426 37.6021 63.0571 37.8207 63.513 38.2772C63.9688 38.7336 64.1866 39.3481 64.1866 39.9913C64.1866 40.6351 63.9681 41.2495 63.5119 41.7054C63.0558 42.1612 62.4416 42.3792 61.7987 42.3792C61.1549 42.3792 60.5404 42.1607 60.0844 41.7049ZM28.471 21.9346C27.638 21.9346 27.083 21.3797 27.083 20.5454C27.083 19.7112 27.638 19.1563 28.471 19.1563C29.304 19.1563 29.8601 19.7124 29.8601 20.5454C29.8601 21.3784 29.3052 21.9346 28.471 21.9346ZM50.6866 60.825C49.8536 60.825 49.2974 60.2688 49.2974 59.4358C49.2974 58.6028 49.8536 58.0467 50.6866 58.0467C51.5196 58.0467 52.0758 58.6016 52.0758 59.4358C52.0758 60.2701 51.5208 60.825 50.6866 60.825ZM61.7987 41.3792C60.9644 41.3792 60.4095 40.8243 60.4095 39.9913C60.4095 39.1583 60.9644 38.6021 61.7987 38.6021C62.6329 38.6021 63.1866 39.157 63.1866 39.9913C63.1866 40.8255 62.6317 41.3792 61.7987 41.3792ZM17.354 41.3792C16.521 41.3792 15.9648 40.8243 15.9648 39.9913C15.9648 39.1583 16.521 38.6021 17.354 38.6021C18.187 38.6021 18.7432 39.157 18.7432 39.9913C18.7432 40.8255 18.187 41.3792 17.354 41.3792ZM28.4648 60.825C27.6318 60.825 27.0769 60.2689 27.0769 59.4359C27.0769 58.6029 27.6318 58.0467 28.4648 58.0467C29.2978 58.0467 29.854 58.6016 29.854 59.4359C29.854 60.2701 29.2991 60.825 28.4648 60.825Z" fill="white"/>
</svg>
