<svg width="80" height="80" viewBox="0 0 80 80" fill="none" xmlns="http://www.w3.org/2000/svg">
<path fill-rule="evenodd" clip-rule="evenodd" d="M53.1562 48.5625V49.5625C53.1562 51.7177 51.2183 53.25 48.9708 53.25C47.427 53.25 45.6153 52.634 44.4478 51.1995L33.7188 38.4301V49.5604C33.7188 51.6071 32.0912 53.2479 30.0646 53.2479H29.9062C27.8364 53.2479 26.2188 51.5345 26.2188 49.5604V30.4375C26.2188 28.3005 28.1026 26.75 30.3438 26.75C31.9094 26.75 33.7554 27.3601 34.928 28.8015L45.5938 41.5593V30.4375C45.5938 28.3676 47.3071 26.75 49.2813 26.75H49.4375C51.5048 26.75 53.125 28.4629 53.125 30.4375V48.5625H53.1562ZM46.5938 44.3146L34.1562 29.4375C33.2187 28.2812 31.6896 27.75 30.3438 27.75C28.5312 27.75 27.2188 28.9687 27.2188 30.4375V49.5604C27.2188 50.9979 28.4042 52.2479 29.9062 52.2479H30.0646C31.5312 52.2479 32.7188 51.0625 32.7188 49.5604V35.6854L45.2188 50.5625C46.1562 51.7187 47.6563 52.25 48.9708 52.25C50.3693 52.25 51.4825 51.5456 51.9359 50.5625C52.0259 50.3673 52.0899 50.1611 52.125 49.9472C52.1456 49.8214 52.1562 49.6929 52.1562 49.5625H52.125V30.4375C52.125 29 50.9375 27.75 49.4375 27.75H49.2813C47.8438 27.75 46.5938 28.9354 46.5938 30.4375V44.3146ZM19 28.0774V51.9226L39.6562 63.8454L60.3125 51.9226V28.0774L39.6562 16.1546L19 28.0774ZM39.6562 15L18 27.5V52.5L39.6562 65L61.3125 52.5V27.5L39.6562 15Z" fill="#009639"/>
<path fill-rule="evenodd" clip-rule="evenodd" d="M53.1562 48.5625V49.5625C53.1562 51.7177 51.2183 53.25 48.9708 53.25C47.427 53.25 45.6153 52.634 44.4478 51.1995L33.7188 38.4301V49.5604C33.7188 51.6071 32.0912 53.2479 30.0646 53.2479H29.9062C27.8364 53.2479 26.2188 51.5345 26.2188 49.5604V30.4375C26.2188 28.3005 28.1026 26.75 30.3438 26.75C31.9094 26.75 33.7554 27.3601 34.928 28.8015L45.5938 41.5593V30.4375C45.5938 28.3676 47.3071 26.75 49.2813 26.75H49.4375C51.5048 26.75 53.125 28.4629 53.125 30.4375V48.5625H53.1562ZM46.5938 44.3146L34.1562 29.4375C33.2187 28.2812 31.6896 27.75 30.3438 27.75C28.5312 27.75 27.2188 28.9688 27.2188 30.4375V49.5604C27.2188 50.9979 28.4042 52.2479 29.9062 52.2479H30.0646C31.5312 52.2479 32.7188 51.0625 32.7188 49.5604V35.6854L45.2188 50.5625C46.1562 51.7187 47.6563 52.25 48.9708 52.25C50.3693 52.25 51.4825 51.5456 51.9359 50.5625C52.0259 50.3673 52.0899 50.1611 52.125 49.9472C52.1456 49.8214 52.1562 49.6929 52.1562 49.5625H52.125V30.4375C52.125 29 50.9375 27.75 49.4375 27.75H49.2813C47.8438 27.75 46.5938 28.9354 46.5938 30.4375V44.3146Z" fill="white"/>
</svg>
