<svg width="22" height="23" viewBox="0 0 22 23" fill="none" xmlns="http://www.w3.org/2000/svg">
<path d="M20.4401 11.05L11.25 20.2401C10.1241 21.366 8.59711 21.9985 7.0049 21.9985C5.41269 21.9985 3.88569 21.366 2.75983 20.2401C1.63397 19.1142 1.00146 17.5872 1.00146 15.995C1.00146 14.4028 1.63397 12.8758 2.75983 11.75L11.95 2.55982C12.7006 1.80924 13.7186 1.38757 14.78 1.38757C15.8415 1.38757 16.8595 1.80924 17.6101 2.55982C18.3606 3.31039 18.7823 4.32839 18.7823 5.38986C18.7823 6.45134 18.3606 7.46933 17.6101 8.21991L8.40992 17.4101C8.03464 17.7853 7.52564 17.9962 6.9949 17.9962C6.46416 17.9962 5.95516 17.7853 5.57988 17.4101C5.20459 17.0348 4.99375 16.5258 4.99375 15.995C4.99375 15.4643 5.20459 14.9553 5.57988 14.58L9.82495 10.3399" stroke="white" stroke-width="2.00003" stroke-linecap="round" stroke-linejoin="round"/>
</svg>
