<svg width="40" height="40" viewBox="0 0 40 40" fill="none" xmlns="http://www.w3.org/2000/svg">
<g clip-path="url(#clip0_711_8112)">
<path d="M16.4563 18.9677C17.2864 18.5501 17.914 18.0851 18.344 17.5826C19.1091 16.6775 19.4866 15.4774 19.4866 13.9898C19.4866 12.5421 19.1091 11.3045 18.354 10.267C17.0939 8.57682 14.9612 7.71175 11.946 7.66675H0V32.0512H11.1384C12.3935 32.0512 13.5561 31.9437 14.6312 31.7237C15.7063 31.5012 16.6364 31.0937 17.4239 30.4986C18.124 29.9811 18.709 29.3385 19.1741 28.581C19.9091 27.4359 20.2767 26.1383 20.2767 24.6931C20.2767 23.293 19.9541 22.1004 19.3141 21.1203C18.6665 20.1403 17.7165 19.4227 16.4563 18.9677ZM4.9279 11.9021H10.3083C11.4909 11.9021 12.466 12.0296 13.2311 12.2821C14.1162 12.6497 14.5587 13.3972 14.5587 14.5373C14.5587 15.5599 14.2212 16.275 13.5536 16.6775C12.8811 17.08 12.0085 17.2825 10.9384 17.2825H4.9279V11.9021ZM13.4361 27.3909C12.8411 27.6784 12.0035 27.8209 10.9309 27.8209H4.9279V21.3179H11.0134C12.0735 21.3254 12.8986 21.4654 13.4886 21.7279C14.5387 22.2029 15.0612 23.073 15.0612 24.3456C15.0612 25.8457 14.5212 26.8558 13.4361 27.3909Z" fill="#C653B9"/>
<path d="M36.1479 8.80579H25.5546V11.841H36.1479V8.80579Z" fill="#C653B9"/>
<path d="M39.8363 20.7836C39.6162 19.371 39.1312 18.1284 38.3761 17.0558C37.5486 15.8407 36.4985 14.9506 35.2209 14.3881C33.9483 13.823 32.5157 13.5405 30.9205 13.543C28.2428 13.543 26.0676 14.3806 24.385 16.0432C22.7074 17.7108 21.8673 20.1085 21.8673 23.2338C21.8673 26.5665 22.7949 28.9742 24.66 30.4518C26.5177 31.932 28.6629 32.6695 31.0981 32.6695C34.0458 32.6695 36.3385 31.792 37.9761 30.0418C39.0237 28.9367 39.6162 27.8491 39.7462 26.7815H34.8659C34.5833 27.3091 34.2558 27.7216 33.8808 28.0217C33.2007 28.5717 32.3156 28.8467 31.2306 28.8467C30.198 28.8467 29.3229 28.6192 28.5928 28.1667C27.3878 27.4416 26.7577 26.1715 26.6777 24.3639H39.9963C40.0163 22.8062 39.9663 21.6086 39.8363 20.7836ZM26.7977 21.2511C26.9727 20.0785 27.3978 19.1484 28.0728 18.4609C28.7479 17.7758 29.7029 17.4308 30.9255 17.4283C32.0531 17.4283 32.9957 17.7508 33.7633 18.3984C34.5208 19.0509 34.9484 19.9985 35.0359 21.2511H26.7977Z" fill="#C653B9"/>
</g>
<defs>
<clipPath id="clip0_711_8112">
<rect width="40" height="40" fill="white"/>
</clipPath>
</defs>
</svg>
