<svg width="16" height="16" viewBox="0 0 16 16" fill="none" xmlns="http://www.w3.org/2000/svg">
<g clip-path="url(#clip0)">
<path d="M6.25145 7.14164C6.56678 6.98303 6.80518 6.80637 6.96854 6.61546C7.25917 6.27164 7.40259 5.81575 7.40259 5.25063C7.40259 4.7007 7.25917 4.23056 6.97234 3.8364C6.49365 3.19435 5.68349 2.86573 4.53805 2.84863H0V12.1118H4.23127C4.70806 12.1118 5.14971 12.071 5.55812 11.9874C5.96652 11.9029 6.31984 11.7481 6.61902 11.522C6.88496 11.3254 7.10721 11.0813 7.28387 10.7935C7.5631 10.3585 7.70272 9.86561 7.70272 9.31663C7.70272 8.78476 7.5802 8.33171 7.33705 7.9594C7.09106 7.58709 6.73014 7.3145 6.25145 7.14164ZM1.87202 4.45756H3.91595C4.36519 4.45756 4.73561 4.506 5.02624 4.60193C5.36246 4.74154 5.53057 5.02553 5.53057 5.45863C5.53057 5.84709 5.40235 6.11873 5.14876 6.27164C4.89327 6.42456 4.5618 6.50149 4.15529 6.50149H1.87202V4.45756ZM5.10412 10.3414C4.87807 10.4507 4.5599 10.5048 4.15244 10.5048H1.87202V8.03443H4.18378C4.58649 8.03728 4.89992 8.09047 5.12407 8.1902C5.52297 8.37065 5.72148 8.70118 5.72148 9.18462C5.72148 9.75448 5.51632 10.1382 5.10412 10.3414Z" fill="white"/>
<path d="M13.7352 3.28076H9.71094V4.43379H13.7352V3.28076Z" fill="white"/>
<path d="M15.1327 7.83162C15.0491 7.295 14.8649 6.82296 14.578 6.4155C14.2637 5.95391 13.8647 5.61579 13.3794 5.40209C12.896 5.18744 12.3517 5.08011 11.7458 5.08106C10.7286 5.08106 9.90227 5.39924 9.26307 6.03084C8.62577 6.66434 8.30664 7.57518 8.30664 8.7624C8.30664 10.0285 8.65901 10.9431 9.36754 11.5044C10.0732 12.0667 10.8881 12.3469 11.8132 12.3469C12.933 12.3469 13.804 12.0135 14.4261 11.3487C14.824 10.9288 15.0491 10.5157 15.0985 10.1101H13.2445C13.1372 10.3105 13.0128 10.4673 12.8703 10.5812C12.612 10.7902 12.2758 10.8947 11.8636 10.8947C11.4713 10.8947 11.1389 10.8082 10.8615 10.6363C10.4038 10.3609 10.1644 9.87839 10.134 9.1917H15.1935C15.2011 8.59999 15.1821 8.14505 15.1327 7.83162ZM10.1796 8.00923C10.2461 7.56378 10.4076 7.21047 10.664 6.94928C10.9204 6.68904 11.2832 6.55797 11.7477 6.55702C12.176 6.55702 12.5341 6.67954 12.8257 6.92553C13.1135 7.17342 13.2759 7.53339 13.3091 8.00923H10.1796Z" fill="white"/>
</g>
<defs>
<clipPath id="clip0">
<rect y="-0.000488281" width="15.1952" height="15.1952" fill="white"/>
</clipPath>
</defs>
</svg>
