<svg width="29" height="29" viewBox="0 0 29 29" fill="none" xmlns="http://www.w3.org/2000/svg">
<g clip-path="url(#clip0)">
<path d="M11.6954 13.3377C12.2776 13.0448 12.7177 12.7187 13.0193 12.3663C13.5558 11.7315 13.8206 10.8899 13.8206 9.84656C13.8206 8.83132 13.5558 7.96336 13.0263 7.23569C12.1426 6.05036 10.6469 5.44367 8.53224 5.41211H0.154297V22.5134H7.96587C8.8461 22.5134 9.66145 22.438 10.4154 22.2837C11.1694 22.1277 11.8217 21.8418 12.374 21.4245C12.865 21.0616 13.2753 20.6109 13.6014 20.0796C14.1169 19.2766 14.3747 18.3665 14.3747 17.353C14.3747 16.3711 14.1485 15.5347 13.6996 14.8474C13.2455 14.16 12.5792 13.6568 11.6954 13.3377ZM3.61033 8.38244H7.38373C8.21311 8.38244 8.89695 8.47186 9.4335 8.64896C10.0542 8.90672 10.3646 9.43099 10.3646 10.2306C10.3646 10.9477 10.1279 11.4492 9.6597 11.7315C9.18802 12.0138 8.57607 12.1558 7.8256 12.1558H3.61033V8.38244ZM9.57729 19.245C9.15997 19.4466 8.57257 19.5466 7.82034 19.5466H3.61033V14.9859H7.8782C8.62166 14.9912 9.2003 15.0893 9.61411 15.2735C10.3506 15.6066 10.717 16.2168 10.717 17.1093C10.717 18.1614 10.3383 18.8698 9.57729 19.245Z" fill="#EFE314"/>
<path d="M25.5104 6.21094H18.0811V8.33961H25.5104V6.21094Z" fill="#EFE314"/>
<path d="M28.0922 14.6112C27.9379 13.6205 27.5977 12.749 27.0682 11.9968C26.4878 11.1446 25.7514 10.5204 24.8553 10.1259C23.9628 9.7296 22.9581 9.53146 21.8394 9.53321C19.9615 9.53321 18.436 10.1206 17.2559 11.2867C16.0794 12.4562 15.4902 14.1377 15.4902 16.3295C15.4902 18.6669 16.1408 20.3554 17.4488 21.3917C18.7516 22.4297 20.2561 22.947 21.9639 22.947C24.0312 22.947 25.6391 22.3316 26.7876 21.1041C27.5223 20.3291 27.9379 19.5664 28.0291 18.8177H24.6064C24.4082 19.1876 24.1785 19.477 23.9155 19.6874C23.4386 20.0731 22.8179 20.266 22.0569 20.266C21.3327 20.266 20.719 20.1064 20.207 19.7891C19.3618 19.2806 18.92 18.3898 18.8638 17.1221H28.2044C28.2184 16.0297 28.1834 15.1898 28.0922 14.6112ZM18.948 14.9391C19.0708 14.1167 19.3688 13.4644 19.8423 12.9822C20.3157 12.5018 20.9855 12.2598 21.8429 12.2581C22.6337 12.2581 23.2948 12.4843 23.8331 12.9384C24.3644 13.396 24.6642 14.0606 24.7256 14.9391H18.948Z" fill="#EFE314"/>
</g>
<defs>
<clipPath id="clip0">
<rect x="0.154297" y="0.152344" width="28.0527" height="28.0527" fill="white"/>
</clipPath>
</defs>
</svg>
