<svg width="40" height="40" viewBox="0 0 40 40" fill="none" xmlns="http://www.w3.org/2000/svg">
<path d="M16.4563 17.9674C17.2864 17.5499 17.914 17.0849 18.344 16.5823C19.1091 15.6772 19.4866 14.4771 19.4866 12.9895C19.4866 11.5419 19.1091 10.3043 18.354 9.26672C17.0939 7.57658 14.9612 6.71151 11.946 6.6665H0V31.051H11.1384C12.3935 31.051 13.5561 30.9435 14.6312 30.7235C15.7063 30.501 16.6364 30.0934 17.4239 29.4984C18.124 28.9808 18.709 28.3383 19.1741 27.5807C19.9091 26.4356 20.2767 25.138 20.2767 23.6929C20.2767 22.2928 19.9541 21.1002 19.3141 20.1201C18.6665 19.14 17.7165 18.4225 16.4563 17.9674ZM4.9279 10.9019H10.3083C11.4909 10.9019 12.466 11.0294 13.2311 11.2819C14.1162 11.6494 14.5587 12.397 14.5587 13.5371C14.5587 14.5596 14.2212 15.2747 13.5536 15.6772C12.8811 16.0798 12.0085 16.2823 10.9384 16.2823H4.9279V10.9019ZM13.4361 26.3906C12.8411 26.6781 12.0035 26.8207 10.9309 26.8207H4.9279V20.3176H11.0134C12.0735 20.3251 12.8986 20.4651 13.4886 20.7277C14.5387 21.2027 15.0612 22.0728 15.0612 23.3454C15.0612 24.8455 14.5212 25.8556 13.4361 26.3906Z" fill="#6800FD"/>
<path d="M36.1479 7.80566H25.5545V10.8409H36.1479V7.80566Z" fill="#6800FD"/>
<path d="M39.8362 19.7831C39.6162 18.3705 39.1312 17.1279 38.3761 16.0553C37.5485 14.8402 36.4985 13.9501 35.2209 13.3876C33.9483 12.8225 32.5156 12.54 30.9205 12.5425C28.2428 12.5425 26.0676 13.3801 24.385 15.0427C22.7073 16.7103 21.8673 19.108 21.8673 22.2333C21.8673 25.566 22.7949 27.9737 24.66 29.4514C26.5177 30.9315 28.6628 31.669 31.098 31.669C34.0458 31.669 36.3384 30.7915 37.9761 29.0413C39.0237 27.9362 39.6162 26.8486 39.7462 25.7811H34.8658C34.5833 26.3086 34.2558 26.7211 33.8807 27.0212C33.2007 27.5712 32.3156 27.8462 31.2305 27.8462C30.1979 27.8462 29.3229 27.6187 28.5928 27.1662C27.3877 26.4411 26.7577 25.171 26.6777 23.3634H39.9962C40.0162 21.8057 39.9662 20.6081 39.8362 19.7831ZM26.7977 20.2506C26.9727 19.078 27.3977 18.1479 28.0728 17.4604C28.7478 16.7753 29.7029 16.4303 30.9255 16.4278C32.0531 16.4278 32.9957 16.7503 33.7632 17.3979C34.5208 18.0504 34.9483 18.998 35.0358 20.2506H26.7977Z" fill="#6800FD"/>
</svg>
