<svg width="81" height="20" viewBox="0 0 81 20" fill="none" xmlns="http://www.w3.org/2000/svg">
<path d="M80.5975 9.04442L71.8137 0.395757C71.2778 -0.131919 70.4087 -0.131919 69.8727 0.395757C69.3367 0.923542 69.3367 1.77911 69.8727 2.30689L76.3135 8.64863H1.37197C0.614045 8.64863 -0.000488281 9.25371 -0.000488281 9.99999C-0.000488281 10.7461 0.614045 11.3513 1.37197 11.3513H76.3135L69.873 17.6931C69.3369 18.2209 69.3369 19.0764 69.873 19.6042C70.1409 19.8679 70.4922 20 70.8435 20C71.1947 20 71.5459 19.8679 71.814 19.6042L80.5975 10.9556C81.1335 10.4278 81.1335 9.5722 80.5975 9.04442Z" fill="#EFE314"/>
</svg>
