<svg width="561" height="804" viewBox="0 0 561 804" fill="none" xmlns="http://www.w3.org/2000/svg">
<g opacity="0.05">
<path d="M379.705 614.029L339.109 614.029L339.109 803.463L365.898 803.463L365.898 642.636L365.898 641.288L366.777 642.31C387.992 666.977 419.35 682.7 454.395 682.7C501.465 682.7 541.852 654.357 559.842 614.029L529.703 614.029C514.149 639.12 486.279 655.831 454.704 655.831C423.129 655.831 395.259 639.12 379.705 614.029ZM365.898 491.527L365.898 451.463L339.109 451.463L339.109 520.134L379.705 520.134C395.259 495.043 423.129 478.331 454.704 478.331C486.279 478.331 514.149 495.043 529.703 520.134L559.842 520.134C541.852 479.806 501.465 451.463 454.395 451.463C419.35 451.463 387.992 467.186 366.777 491.853L365.898 492.875L365.898 491.527Z" stroke="white"/>
<path d="M41.1425 189.754H0.5L0.5 0.5H27.3201V161.175V162.521L28.1988 161.501C49.4375 136.857 80.8311 121.149 115.917 121.149C163.04 121.149 203.474 149.465 221.483 189.754H191.31C175.738 164.686 147.836 147.991 116.226 147.991C84.6163 147.991 56.7146 164.686 41.1425 189.754ZM27.3201 312.141V352.166H0.5L0.5 283.561H41.1425C56.7146 308.629 84.6163 325.324 116.226 325.324C147.836 325.324 175.738 308.629 191.31 283.561H221.483C203.474 323.85 163.04 352.166 115.917 352.166C80.8311 352.166 49.4375 336.458 28.1988 311.814L27.3201 310.794V312.141Z" stroke="white"/>
<path d="M542.109 235.963C542.109 284.845 502.929 324.463 454.609 324.463C406.29 324.463 367.109 284.845 367.109 235.963C367.109 187.08 406.29 147.463 454.609 147.463C502.929 147.463 542.109 187.08 542.109 235.963Z" stroke="white"/>
<path d="M203.109 567.463C203.109 616.067 163.932 655.463 115.609 655.463C67.2871 655.463 28.1094 616.067 28.1094 567.463C28.1094 518.859 67.2871 479.463 115.609 479.463C163.932 479.463 203.109 518.859 203.109 567.463Z" stroke="white"/>
</g>
</svg>
