<svg width="40" height="40" viewBox="0 0 40 40" fill="none" xmlns="http://www.w3.org/2000/svg">
<g clip-path="url(#clip0_711_8192)">
<path d="M20 0C8.9725 0 0 8.9725 0 20C0 31.0275 8.9725 40 20 40C31.0275 40 40 31.0275 40 20C40 8.9725 31.0275 0 20 0ZM20 37.5C10.35 37.5 2.5 29.6475 2.5 20C2.5 10.35 10.35 2.5 20 2.5C29.6475 2.5 37.5 10.35 37.5 20C37.5 29.6475 29.6475 37.5 20 37.5Z" fill="#C653B9"/>
<path d="M19.9952 4.99927C18.9452 4.99927 17.9202 5.10927 16.9302 5.31427C18.7502 7.89427 20.4027 10.5793 21.8577 13.3618C24.6102 12.0793 27.2002 10.4243 29.5652 8.44927C26.9677 6.29427 23.6327 4.99927 19.9952 4.99927Z" fill="#C653B9"/>
<path d="M31.3534 10.2147C28.7809 12.3822 25.9509 14.1797 22.9459 15.5847C23.6034 16.9547 24.2134 18.3422 24.7784 19.7522C28.0984 19.0697 31.5534 19.0072 34.9784 19.5747C34.8784 15.9997 33.5334 12.7397 31.3534 10.2147Z" fill="#C653B9"/>
<path d="M14.4202 6.08289C9.9177 7.88789 6.5027 11.8079 5.3927 16.6204C10.2477 16.8279 15.0527 16.0179 19.5252 14.3104C18.0227 11.4579 16.3202 8.70789 14.4202 6.08289Z" fill="#C653B9"/>
<path d="M20.656 16.573C16.326 18.2605 11.701 19.1805 6.99848 19.1805C6.35098 19.1805 5.70098 19.1405 5.05098 19.1055C5.03348 19.403 5.00598 19.698 5.00598 20.0005C5.00598 23.683 6.33848 27.053 8.54098 29.663C12.1435 25.1905 16.986 21.9855 22.346 20.3755C21.8235 19.0905 21.2585 17.8255 20.656 16.573Z" fill="#C653B9"/>
<path d="M25.696 22.1215C26.8885 25.4465 27.8235 28.864 28.5085 32.349C31.8885 30.0165 34.2485 26.334 34.841 22.079C31.776 21.5365 28.6785 21.5615 25.696 22.1215Z" fill="#C653B9"/>
<path d="M23.2428 22.7015C18.2028 24.174 13.6503 27.199 10.3128 31.4415C12.9278 33.659 16.3053 35.0015 20.0028 35.0015C22.2228 35.0015 24.3253 34.5065 26.2203 33.639C25.5328 29.904 24.5328 26.249 23.2428 22.7015Z" fill="#C653B9"/>
</g>
<defs>
<clipPath id="clip0_711_8192">
<rect width="40" height="40" fill="white"/>
</clipPath>
</defs>
</svg>
