<svg width="40" height="40" viewBox="0 0 40 40" fill="none" xmlns="http://www.w3.org/2000/svg">
<path d="M20 0C8.9725 0 0 8.9725 0 20C0 31.0275 8.9725 40 20 40C31.0275 40 40 31.0275 40 20C40 8.9725 31.0275 0 20 0ZM20 37.5C10.35 37.5 2.5 29.6475 2.5 20C2.5 10.35 10.35 2.5 20 2.5C29.6475 2.5 37.5 10.35 37.5 20C37.5 29.6475 29.6475 37.5 20 37.5Z" fill="#6800FD"/>
<path d="M19.9951 4.99951C18.9451 4.99951 17.9201 5.10951 16.9301 5.31451C18.7501 7.89451 20.4026 10.5795 21.8576 13.362C24.6101 12.0795 27.2001 10.4245 29.5651 8.44951C26.9676 6.29451 23.6326 4.99951 19.9951 4.99951Z" fill="#6800FD"/>
<path d="M31.3534 10.2148C28.7809 12.3823 25.9509 14.1798 22.9459 15.5848C23.6034 16.9548 24.2134 18.3423 24.7784 19.7523C28.0984 19.0698 31.5534 19.0073 34.9784 19.5748C34.8784 15.9998 33.5334 12.7398 31.3534 10.2148Z" fill="#6800FD"/>
<path d="M14.4202 6.08301C9.91773 7.88801 6.50273 11.808 5.39273 16.6205C10.2477 16.828 15.0527 16.018 19.5252 14.3105C18.0227 11.458 16.3202 8.70801 14.4202 6.08301Z" fill="#6800FD"/>
<path d="M20.656 16.5728C16.326 18.2603 11.701 19.1802 6.9985 19.1802C6.351 19.1802 5.701 19.1402 5.051 19.1052C5.0335 19.4027 5.006 19.6977 5.006 20.0002C5.006 23.6827 6.3385 27.0527 8.541 29.6627C12.1435 25.1902 16.986 21.9852 22.346 20.3752C21.8235 19.0902 21.2585 17.8253 20.656 16.5728Z" fill="#6800FD"/>
<path d="M25.696 22.1216C26.8885 25.4466 27.8235 28.8641 28.5085 32.3491C31.8885 30.0166 34.2485 26.3341 34.841 22.0791C31.776 21.5366 28.6785 21.5616 25.696 22.1216Z" fill="#6800FD"/>
<path d="M23.2428 22.7017C18.2028 24.1742 13.6503 27.1992 10.3128 31.4417C12.9278 33.6592 16.3053 35.0017 20.0028 35.0017C22.2228 35.0017 24.3253 34.5067 26.2203 33.6392C25.5328 29.9042 24.5328 26.2492 23.2428 22.7017Z" fill="#6800FD"/>
</svg>
