<svg width="17" height="17" viewBox="0 0 17 17" fill="none" xmlns="http://www.w3.org/2000/svg">
<g clip-path="url(#clip0)">
<path d="M8.52115 0.642578C4.1771 0.642578 0.642578 4.1771 0.642578 8.52115C0.642578 12.8652 4.1771 16.3997 8.52115 16.3997C12.8652 16.3997 16.3997 12.8652 16.3997 8.52115C16.3997 4.1771 12.8652 0.642578 8.52115 0.642578ZM8.52115 15.4149C4.71974 15.4149 1.6274 12.3216 1.6274 8.52115C1.6274 4.71974 4.71974 1.6274 8.52115 1.6274C12.3216 1.6274 15.4149 4.71974 15.4149 8.52115C15.4149 12.3216 12.3216 15.4149 8.52115 15.4149Z" fill="white"/>
<path d="M8.52184 2.61182C8.10822 2.61182 7.70444 2.65515 7.31445 2.7359C8.0314 3.75224 8.68237 4.80994 9.25554 5.90604C10.3398 5.40083 11.3601 4.74888 12.2917 3.97087C11.2685 3.12195 9.95476 2.61182 8.52184 2.61182Z" fill="white"/>
<path d="M12.9936 4.6665C11.9802 5.52034 10.8654 6.22843 9.68164 6.7819C9.94065 7.32158 10.1809 7.86816 10.4035 8.4236C11.7114 8.15474 13.0724 8.13012 14.4216 8.35367C14.3822 6.94538 13.8524 5.66117 12.9936 4.6665Z" fill="white"/>
<path d="M6.32572 3.03857C4.55206 3.74962 3.20679 5.29381 2.76953 7.1896C4.68205 7.27134 6.57488 6.95225 8.33673 6.27962C7.74485 5.15594 7.07419 4.07264 6.32572 3.03857Z" fill="white"/>
<path d="M8.77631 7.1709C7.0706 7.83565 5.24868 8.19806 3.39623 8.19806C3.14116 8.19806 2.88511 8.18231 2.62905 8.16852C2.62216 8.28571 2.61133 8.40192 2.61133 8.52109C2.61133 9.97172 3.13624 11.2993 4.00387 12.3274C5.42299 10.5656 7.33059 9.30303 9.44205 8.66881C9.23622 8.16261 9.01365 7.66429 8.77631 7.1709Z" fill="white"/>
<path d="M10.7637 9.35645C11.2334 10.6663 11.6018 12.0125 11.8716 13.3854C13.2031 12.4665 14.1327 11.0159 14.3661 9.33971C13.1588 9.126 11.9386 9.13585 10.7637 9.35645Z" fill="white"/>
<path d="M9.79661 9.58496C7.81122 10.165 6.01786 11.3567 4.70312 13.0279C5.73325 13.9014 7.06374 14.4303 8.52029 14.4303C9.39481 14.4303 10.223 14.2353 10.9695 13.8936C10.6987 12.4222 10.3048 10.9824 9.79661 9.58496Z" fill="white"/>
</g>
<defs>
<clipPath id="clip0">
<rect x="0.642578" y="0.642578" width="15.7571" height="15.7571" fill="white"/>
</clipPath>
</defs>
</svg>
