<svg width="30" height="30" viewBox="0 0 30 30" fill="none" xmlns="http://www.w3.org/2000/svg">
<g clip-path="url(#clip0)">
<path d="M15.0392 0.494141C7.01942 0.494141 0.494141 7.01942 0.494141 15.0392C0.494141 23.059 7.01942 29.5843 15.0392 29.5843C23.059 29.5843 29.5843 23.059 29.5843 15.0392C29.5843 7.01942 23.059 0.494141 15.0392 0.494141ZM15.0392 27.7661C8.02121 27.7661 2.31227 22.0554 2.31227 15.0392C2.31227 8.02121 8.02121 2.31227 15.0392 2.31227C22.0554 2.31227 27.7661 8.02121 27.7661 15.0392C27.7661 22.0554 22.0554 27.7661 15.0392 27.7661Z" fill="#171718"/>
<path d="M15.0396 4.13086C14.276 4.13086 13.5305 4.21086 12.8105 4.35994C14.1341 6.23626 15.3359 8.18893 16.3941 10.2125C18.3958 9.27981 20.2794 8.07621 21.9994 6.63988C20.1103 5.07265 17.685 4.13086 15.0396 4.13086Z" fill="#171718"/>
<path d="M23.2941 7.92383C21.4232 9.50015 19.3651 10.8074 17.1797 11.8292C17.6579 12.8255 18.1015 13.8346 18.5124 14.86C20.9269 14.3637 23.4395 14.3182 25.9304 14.7309C25.8576 12.131 24.8795 9.76014 23.2941 7.92383Z" fill="#171718"/>
<path d="M10.9852 4.91797C7.71074 6.23066 5.22717 9.08149 4.41992 12.5814C7.95073 12.7323 11.4452 12.1432 14.6978 10.9014C13.6051 8.82695 12.367 6.82701 10.9852 4.91797Z" fill="#171718"/>
<path d="M15.5124 12.5469C12.3634 13.7741 8.99982 14.4432 5.57991 14.4432C5.10901 14.4432 4.6363 14.4141 4.16359 14.3886C4.15086 14.605 4.13086 14.8195 4.13086 15.0395C4.13086 17.7176 5.09992 20.1685 6.7017 22.0666C9.32163 18.814 12.8433 16.4831 16.7414 15.3122C16.3614 14.3777 15.9505 13.4578 15.5124 12.5469Z" fill="#171718"/>
<path d="M19.1807 16.582C20.0479 19.0001 20.7279 21.4855 21.2261 24.02C23.6842 22.3237 25.4005 19.6456 25.8314 16.5511C23.6024 16.1566 21.3497 16.1748 19.1807 16.582Z" fill="#171718"/>
<path d="M17.3956 17.0039C13.7302 18.0748 10.4194 20.2747 7.99219 23.3601C9.89395 24.9728 12.3502 25.9491 15.0393 25.9491C16.6538 25.9491 18.1828 25.5891 19.5609 24.9582C19.061 22.2419 18.3337 19.5838 17.3956 17.0039Z" fill="#171718"/>
</g>
<defs>
<clipPath id="clip0">
<rect x="0.494141" y="0.494141" width="29.0901" height="29.0901" fill="white"/>
</clipPath>
</defs>
</svg>
