<svg width="25" height="25" viewBox="0 0 25 25" fill="none" xmlns="http://www.w3.org/2000/svg">
<g clip-path="url(#clip0)">
<path d="M21.0405 0.130859H3.11963C1.4724 0.130859 0.132812 1.47045 0.132812 3.11767V21.0386C0.132812 22.6858 1.4724 24.0254 3.11963 24.0254H12.0801V15.8116H9.09325V12.0781H12.0801V9.0913C12.0801 6.61672 14.0857 4.61108 16.5603 4.61108H19.5471V8.3446H18.0537C17.2293 8.3446 16.5603 8.26694 16.5603 9.0913V12.0781H20.2938L18.8004 15.8116H16.5603V24.0254H21.0405C22.6877 24.0254 24.0273 22.6858 24.0273 21.0386V3.11767C24.0273 1.47045 22.6877 0.130859 21.0405 0.130859Z" fill="#171718"/>
</g>
<defs>
<clipPath id="clip0">
<rect x="0.132812" y="0.130859" width="23.8945" height="23.8945" fill="white"/>
</clipPath>
</defs>
</svg>
