<svg width="14" height="14" viewBox="0 0 14 14" fill="none" xmlns="http://www.w3.org/2000/svg">
<g clip-path="url(#clip0)">
<path d="M2.96466 4.11572H0.0703125V13.0139H2.96466V4.11572Z" fill="white"/>
<path d="M10.8488 4.22007C10.818 4.21037 10.7889 4.19985 10.7565 4.19095C10.7177 4.18205 10.6789 4.17477 10.6392 4.1683C10.4855 4.13756 10.3173 4.11572 10.1199 4.11572C8.43249 4.11572 7.36227 5.34287 7.00958 5.8169V4.11572H4.11523V13.0139H7.00958V8.16037C7.00958 8.16037 9.19692 5.11394 10.1199 7.35144C10.1199 9.34868 10.1199 13.0139 10.1199 13.0139H13.0134V7.00926C13.0134 5.66482 12.0921 4.54446 10.8488 4.22007Z" fill="white"/>
<path d="M1.48594 2.90205C2.26777 2.90205 2.90156 2.26825 2.90156 1.48643C2.90156 0.704598 2.26777 0.0708008 1.48594 0.0708008C0.704109 0.0708008 0.0703125 0.704598 0.0703125 1.48643C0.0703125 2.26825 0.704109 2.90205 1.48594 2.90205Z" fill="white"/>
</g>
<defs>
<clipPath id="clip0">
<rect x="0.0703125" y="0.0708008" width="12.9429" height="12.9429" fill="white"/>
</clipPath>
</defs>
</svg>
