<svg width="25" height="25" viewBox="0 0 25 25" fill="none" xmlns="http://www.w3.org/2000/svg">
<g clip-path="url(#clip0)">
<path d="M5.47427 7.59766H0.130859V24.0251H5.47427V7.59766Z" fill="#EFE314"/>
<path d="M20.0288 7.79031C19.972 7.77239 19.9183 7.75297 19.8585 7.73654C19.7868 7.72012 19.7152 7.70668 19.642 7.69473C19.3582 7.63798 19.0476 7.59766 18.6832 7.59766C15.568 7.59766 13.5922 9.86315 12.9411 10.7383V7.59766H7.59766V24.0251H12.9411V15.0647C12.9411 15.0647 16.9792 9.44052 18.6832 13.5713C18.6832 17.2585 18.6832 24.0251 18.6832 24.0251H24.0251V12.9396C24.0251 10.4575 22.3241 8.38916 20.0288 7.79031Z" fill="#EFE314"/>
<path d="M2.74432 5.35778C4.1877 5.35778 5.35778 4.1877 5.35778 2.74432C5.35778 1.30095 4.1877 0.130859 2.74432 0.130859C1.30095 0.130859 0.130859 1.30095 0.130859 2.74432C0.130859 4.1877 1.30095 5.35778 2.74432 5.35778Z" fill="#EFE314"/>
</g>
<defs>
<clipPath id="clip0">
<rect x="0.130859" y="0.130859" width="23.8945" height="23.8945" fill="white"/>
</clipPath>
</defs>
</svg>
