<svg width="41" height="40" viewBox="0 0 41 40" fill="none" xmlns="http://www.w3.org/2000/svg">
<path d="M8.945 12.4995H0V39.9995H8.945V12.4995Z" fill="#6800FD"/>
<path d="M4.375 8.75C6.79124 8.75 8.75 6.79124 8.75 4.375C8.75 1.95875 6.79124 0 4.375 0C1.95875 0 0 1.95875 0 4.375C0 6.79124 1.95875 8.75 4.375 8.75Z" fill="#6800FD"/>
<path d="M33.3129 12.822C33.2179 12.792 33.1279 12.7595 33.0279 12.732C32.9079 12.7045 32.7879 12.682 32.6654 12.662C32.1904 12.567 31.6704 12.4995 31.0604 12.4995C25.8454 12.4995 22.5379 16.292 21.4479 17.757V12.4995H12.5029V39.9995H21.4479V24.9995C21.4479 24.9995 28.2079 15.5845 31.0604 22.4995C31.0604 28.672 31.0604 39.9995 31.0604 39.9995H40.0029V21.442C40.0029 17.287 37.1554 13.8245 33.3129 12.822Z" fill="#6800FD"/>
</svg>
