<svg width="41" height="40" viewBox="0 0 41 40" fill="none" xmlns="http://www.w3.org/2000/svg">
<path d="M8.945 12.4996H0V39.9996H8.945V12.4996Z" fill="#C653B9"/>
<path d="M4.375 8.75C6.79124 8.75 8.75 6.79124 8.75 4.375C8.75 1.95875 6.79124 0 4.375 0C1.95875 0 0 1.95875 0 4.375C0 6.79124 1.95875 8.75 4.375 8.75Z" fill="#C653B9"/>
<path d="M33.3129 12.8221C33.2179 12.7921 33.1279 12.7596 33.0279 12.7321C32.9079 12.7046 32.7879 12.6821 32.6654 12.6621C32.1904 12.5671 31.6704 12.4996 31.0604 12.4996C25.8454 12.4996 22.5379 16.2921 21.4479 17.7571V12.4996H12.5029V39.9996H21.4479V24.9996C21.4479 24.9996 28.2079 15.5846 31.0604 22.4996C31.0604 28.6721 31.0604 39.9996 31.0604 39.9996H40.0029V21.4421C40.0029 17.2871 37.1554 13.8246 33.3129 12.8221Z" fill="#C653B9"/>
</svg>
