<svg width="40" height="40" viewBox="0 0 40 40" fill="none" xmlns="http://www.w3.org/2000/svg">
<g clip-path="url(#clip0_947_2380)">
<path d="M8.945 12.5H0V40H8.945V12.5Z" fill="url(#paint0_linear_947_2380)"/>
<path d="M4.375 8.75C6.79124 8.75 8.75 6.79124 8.75 4.375C8.75 1.95875 6.79124 0 4.375 0C1.95875 0 0 1.95875 0 4.375C0 6.79124 1.95875 8.75 4.375 8.75Z" fill="url(#paint1_linear_947_2380)"/>
<path d="M33.3129 12.8225C33.2179 12.7925 33.1279 12.76 33.0279 12.7325C32.9079 12.705 32.7879 12.6825 32.6654 12.6625C32.1904 12.5675 31.6704 12.5 31.0604 12.5C25.8454 12.5 22.5379 16.2925 21.4479 17.7575V12.5H12.5029V40H21.4479V25C21.4479 25 28.2079 15.585 31.0604 22.5C31.0604 28.6725 31.0604 40 31.0604 40H40.0029V21.4425C40.0029 17.2875 37.1554 13.825 33.3129 12.8225Z" fill="url(#paint2_linear_947_2380)"/>
</g>
<defs>
<linearGradient id="paint0_linear_947_2380" x1="1.86662" y1="33.125" x2="11.5022" y2="31.0067" gradientUnits="userSpaceOnUse">
<stop stop-color="#FFDCAB"/>
<stop offset="1" stop-color="#FFE8C7"/>
</linearGradient>
<linearGradient id="paint1_linear_947_2380" x1="1.82593" y1="6.5625" x2="8.60858" y2="1.97826" gradientUnits="userSpaceOnUse">
<stop stop-color="#FFDCAB"/>
<stop offset="1" stop-color="#FFE8C7"/>
</linearGradient>
<linearGradient id="paint2_linear_947_2380" x1="18.2416" y1="33.125" x2="39.5585" y2="18.7174" gradientUnits="userSpaceOnUse">
<stop stop-color="#FFDCAB"/>
<stop offset="1" stop-color="#FFE8C7"/>
</linearGradient>
<clipPath id="clip0_947_2380">
<rect width="40" height="40" fill="white"/>
</clipPath>
</defs>
</svg>
