<svg width="20" height="20" viewBox="0 0 20 20" fill="none" xmlns="http://www.w3.org/2000/svg">
<path d="M17.0455 8.39773C17.0455 11.0185 15.3365 13.5815 13.4331 15.5907C12.5019 16.5737 11.5672 17.3788 10.8643 17.9386C10.6401 18.1171 10.4403 18.27 10.2727 18.3951C10.1051 18.27 9.90535 18.1171 9.68117 17.9386C8.97821 17.3788 8.04357 16.5737 7.11232 15.5907C5.20892 13.5815 3.5 11.0185 3.5 8.39773C3.5 6.60149 4.21355 4.87882 5.48369 3.60869C6.75382 2.33855 8.47649 1.625 10.2727 1.625C12.069 1.625 13.7916 2.33855 15.0618 3.60869C16.3319 4.87882 17.0455 6.60149 17.0455 8.39773Z" stroke="#BDBDBD" stroke-width="2" stroke-linecap="round" stroke-linejoin="round"/>
<path d="M10.3125 10C11.1754 10 11.875 9.30044 11.875 8.4375C11.875 7.57456 11.1754 6.875 10.3125 6.875C9.44956 6.875 8.75 7.57456 8.75 8.4375C8.75 9.30044 9.44956 10 10.3125 10Z" fill="#BDBDBD"/>
</svg>
