<svg width="32" height="32" viewBox="0 0 32 32" fill="none" xmlns="http://www.w3.org/2000/svg">
<path d="M27.8727 13.4364C27.8727 17.8708 24.9979 22.1179 21.9286 25.3577C20.4144 26.956 18.8968 28.2632 17.7566 29.1711C17.2162 29.6015 16.7624 29.9407 16.4364 30.1772C16.1104 29.9407 15.6565 29.6015 15.1161 29.1711C13.9759 28.2632 12.4583 26.956 10.9441 25.3577C7.87483 22.1179 5 17.8708 5 13.4364C5 10.4033 6.2049 7.49437 8.34963 5.34963C10.4944 3.2049 13.4033 2 16.4364 2C19.4695 2 22.3784 3.2049 24.5231 5.34963C26.6678 7.49437 27.8727 10.4033 27.8727 13.4364Z" stroke="#171718" stroke-width="2" stroke-linecap="round" stroke-linejoin="round"/>
<path d="M16.5 16C17.8807 16 19 14.8807 19 13.5C19 12.1193 17.8807 11 16.5 11C15.1193 11 14 12.1193 14 13.5C14 14.8807 15.1193 16 16.5 16Z" fill="#171718"/>
</svg>
