<svg width="17" height="18" viewBox="0 0 17 18" fill="none" xmlns="http://www.w3.org/2000/svg">
<path fill-rule="evenodd" clip-rule="evenodd" d="M13.9998 5.99991C15.6567 5.99991 16.9998 4.65676 16.9998 2.99989C16.9998 1.34303 15.6567 -0.00012207 13.9998 -0.00012207C12.343 -0.00012207 10.9998 1.34303 10.9998 2.99989C10.9998 3.13698 11.009 3.27192 11.0268 3.40413L5.0564 6.81579C4.51936 6.30992 3.79577 5.99991 2.99977 5.99991C1.34291 5.99991 -0.000244141 7.34306 -0.000244141 8.99993C-0.000244141 10.6568 1.34291 11.9999 2.99977 11.9999C3.77029 11.9999 4.47296 11.7095 5.00426 11.232L11.0502 15.5506C11.3088 16.9445 12.5311 18 13.9998 18C15.6567 18 16.9998 16.6568 16.9998 15C16.9998 13.3431 15.6567 11.9999 13.9998 11.9999C12.9351 11.9999 11.9999 12.5546 11.4675 13.3908L5.96469 9.46024C5.9878 9.31018 5.99979 9.15645 5.99979 8.99993C5.99979 8.86283 5.99059 8.72788 5.97278 8.59566L11.9432 5.184C12.4802 5.68989 13.2038 5.99991 13.9998 5.99991ZM12.9999 15.0084C12.9999 15.0031 12.9999 14.9977 12.9999 14.9923C13.004 14.4435 13.4501 14 13.9998 14C14.5521 14 14.9998 14.4477 14.9998 15C14.9998 15.5522 14.5521 16 13.9998 16C13.4504 16 13.0044 15.5568 12.9999 15.0084ZM13.9998 3.9999C14.5521 3.9999 14.9998 3.55218 14.9998 2.99989C14.9998 2.44761 14.5521 1.99989 13.9998 1.99989C13.4475 1.99989 12.9998 2.44761 12.9998 2.99989C12.9998 3.55218 13.4475 3.9999 13.9998 3.9999ZM3.99978 8.99993C3.99978 9.55221 3.55206 9.99993 2.99977 9.99993C2.44748 9.99993 1.99977 9.55221 1.99977 8.99993C1.99977 8.44764 2.44748 7.99992 2.99977 7.99992C3.55206 7.99992 3.99978 8.44764 3.99978 8.99993Z" fill="white"/>
</svg>
