<svg width="24" height="24" viewBox="0 0 24 24" fill="none" xmlns="http://www.w3.org/2000/svg">
<path d="M23.2208 13.7922C23.2987 13.1688 23.3766 12.6234 23.3766 12C23.3766 5.76623 18.3117 0.623377 12 0.623377C11.3766 0.623377 10.8312 0.701299 10.2078 0.779221C9.19481 0.233766 8.1039 0 7.01299 0C3.11688 0 0 3.11688 0 7.01299C0 8.1039 0.233766 9.19481 0.779221 10.2078C0.701299 10.8312 0.623377 11.3766 0.623377 12C0.623377 18.2338 5.68831 23.3766 12 23.3766C12.6234 23.3766 13.1688 23.2987 13.7922 23.2208C14.8052 23.6883 15.8961 24 16.987 24C20.8831 24 24 20.8831 24 16.987C24 15.8961 23.6883 14.8052 23.2208 13.7922ZM16.7532 16.1299C16.5195 16.5974 16.2078 16.987 15.7403 17.2987C15.2727 17.6104 14.8052 17.8442 14.1818 18C13.5584 18.1558 12.8571 18.2338 12.0779 18.2338C10.4416 18.2338 9.11688 17.8442 8.18182 17.1429C7.63636 16.6753 7.16883 16.1299 6.93506 15.4286C6.62338 14.8052 7.16883 14.026 7.94805 14.026H8.18182C8.64935 14.026 9.11688 14.3377 9.27273 14.7273C9.42857 15.1169 9.66234 15.4286 9.97403 15.6623C10.4416 16.0519 11.1429 16.2078 12 16.2078C12.7792 16.2078 13.4026 16.0519 13.8701 15.8182C14.3377 15.5844 14.5714 15.1169 14.5714 14.6494C14.5714 14.4156 14.4935 14.2597 14.4156 14.1039C14.3377 13.9481 14.1039 13.7922 13.9481 13.7143C13.7143 13.5584 13.4805 13.4805 13.0909 13.4026C12.7792 13.3247 12.3896 13.1688 11.9221 13.0909L11.4545 12.9351C10.9091 12.7792 10.2857 12.6234 9.81818 12.4675C9.27273 12.3117 8.8052 12.0779 8.41558 11.8442C8.02597 11.6104 7.71429 11.2987 7.48052 10.8312C7.24675 10.4416 7.16883 9.8961 7.16883 9.27273C7.16883 8.64935 7.32468 8.1039 7.55844 7.63636C7.79221 7.16883 8.18182 6.77922 8.57143 6.54545C9.03896 6.23377 9.50649 6 10.1299 5.92208C10.6753 5.76623 11.2987 5.68831 12 5.68831C12.7792 5.68831 13.4026 5.76623 14.026 5.92208C14.6494 6.07792 15.1169 6.31169 15.5844 6.7013C16.0519 7.01299 16.3636 7.4026 16.5974 7.94805C16.987 8.64935 16.4416 9.58442 15.5844 9.58442H15.3507C14.8831 9.58442 14.4935 9.35065 14.2597 8.96104C14.1039 8.72727 13.9481 8.49351 13.7143 8.25974C13.3247 7.94805 12.7013 7.79221 12 7.79221C11.2987 7.79221 10.7532 7.94805 10.3636 8.18182C9.97403 8.41558 9.81818 8.8052 9.81818 9.19481C9.81818 9.42857 9.8961 9.58442 9.97403 9.74026C10.0519 9.8961 10.2078 10.0519 10.4416 10.1299C10.6753 10.2078 10.9091 10.3636 11.2208 10.4416C11.5325 10.5195 11.9221 10.5974 12.3896 10.7532C12.8571 10.8312 13.2468 10.987 13.7143 11.0649C14.1039 11.1429 14.4935 11.2987 14.8831 11.3766C15.2727 11.5325 15.5844 11.6883 15.8961 11.8442C16.2078 12 16.4416 12.2338 16.6753 12.4675C16.9091 12.7013 17.0649 13.013 17.1429 13.3247C17.2987 13.6364 17.2987 14.1039 17.2987 14.5714C17.1429 15.1169 16.987 15.6623 16.7532 16.1299Z" fill="#EFE314"/>
</svg>
