<svg width="40" height="40" viewBox="0 0 40 40" fill="none" xmlns="http://www.w3.org/2000/svg">
<path d="M38.7013 22.987C38.8312 21.9481 38.961 21.039 38.961 20C38.961 9.61039 30.5195 1.03896 20 1.03896C18.961 1.03896 18.0519 1.16883 17.013 1.2987C15.3247 0.38961 13.5065 0 11.6883 0C5.19481 0 0 5.19481 0 11.6883C0 13.5065 0.38961 15.3247 1.2987 17.013C1.16883 18.0519 1.03896 18.961 1.03896 20C1.03896 30.3896 9.48052 38.961 20 38.961C21.039 38.961 21.9481 38.8312 22.987 38.7013C24.6753 39.4805 26.4935 40 28.3117 40C34.8052 40 40 34.8052 40 28.3117C40 26.4935 39.4805 24.6753 38.7013 22.987ZM27.9221 26.8831C27.5325 27.6623 27.013 28.3117 26.2338 28.8312C25.4545 29.3507 24.6753 29.7403 23.6364 30C22.5974 30.2597 21.4286 30.3896 20.1299 30.3896C17.4026 30.3896 15.1948 29.7403 13.6364 28.5714C12.7273 27.7922 11.9481 26.8831 11.5584 25.7143C11.039 24.6753 11.9481 23.3766 13.2468 23.3766H13.6364C14.4156 23.3766 15.1948 23.8961 15.4545 24.5455C15.7143 25.1948 16.1039 25.7143 16.6234 26.1039C17.4026 26.7532 18.5714 27.013 20 27.013C21.2987 27.013 22.3377 26.7532 23.1169 26.3636C23.8961 25.974 24.2857 25.1948 24.2857 24.4156C24.2857 24.026 24.1558 23.7662 24.026 23.5065C23.8961 23.2468 23.5065 22.987 23.2468 22.8571C22.8571 22.5974 22.4675 22.4675 21.8182 22.3377C21.2987 22.2078 20.6494 21.9481 19.8701 21.8182L19.0909 21.5584C18.1818 21.2987 17.1429 21.039 16.3636 20.7792C15.4545 20.5195 14.6753 20.1299 14.026 19.7403C13.3766 19.3506 12.8571 18.8312 12.4675 18.0519C12.0779 17.4026 11.9481 16.4935 11.9481 15.4545C11.9481 14.4156 12.2078 13.5065 12.5974 12.7273C12.987 11.9481 13.6364 11.2987 14.2857 10.9091C15.0649 10.3896 15.8442 10 16.8831 9.87013C17.7922 9.61039 18.8312 9.48052 20 9.48052C21.2987 9.48052 22.3377 9.61039 23.3766 9.87013C24.4156 10.1299 25.1948 10.5195 25.974 11.1688C26.7532 11.6883 27.2727 12.3377 27.6623 13.2468C28.3117 14.4156 27.4026 15.974 25.974 15.974H25.5844C24.8052 15.974 24.1558 15.5844 23.7662 14.9351C23.5065 14.5455 23.2468 14.1558 22.8571 13.7662C22.2078 13.2468 21.1688 12.987 20 12.987C18.8312 12.987 17.9221 13.2468 17.2727 13.6364C16.6234 14.026 16.3636 14.6753 16.3636 15.3247C16.3636 15.7143 16.4935 15.974 16.6234 16.2338C16.7532 16.4935 17.013 16.7532 17.4026 16.8831C17.7922 17.013 18.1818 17.2727 18.7013 17.4026C19.2208 17.5325 19.8701 17.6623 20.6493 17.9221C21.4286 18.0519 22.0779 18.3117 22.8571 18.4416C23.5065 18.5714 24.1558 18.8312 24.8052 18.961C25.4545 19.2208 25.974 19.4805 26.4935 19.7403C27.013 20 27.4026 20.3896 27.7922 20.7792C28.1818 21.1688 28.4416 21.6883 28.5714 22.2078C28.8312 22.7273 28.8312 23.5065 28.8312 24.2857C28.5714 25.1948 28.3117 26.1039 27.9221 26.8831Z" fill="#C653B9"/>
</svg>
