<svg width="120" height="84" viewBox="0 0 120 84" fill="none" xmlns="http://www.w3.org/2000/svg">
<path fill-rule="evenodd" clip-rule="evenodd" d="M112.292 46.8353L113.392 47.9471L118.69 38.1128L117.833 37.5233C115.657 36.0249 113.129 34.7499 110.26 33.6904C107.318 32.5585 104.115 32 100.662 32C98.159 32 95.7997 32.3511 93.5912 33.0624C91.3806 33.7295 89.4102 34.7352 87.693 36.0855L87.6867 36.0904L87.6805 36.0954C85.985 37.4669 84.6574 39.1794 83.6982 41.216C82.7265 43.2792 82.2557 45.6072 82.2557 48.1744C82.2557 50.123 82.5373 51.8681 83.1362 53.3819L83.1449 53.4038L83.1544 53.4253C83.7992 54.8795 84.7381 56.1734 85.9552 57.3055L85.9646 57.3142L85.9742 57.3228C87.1846 58.3998 88.6613 59.3331 90.3849 60.1338L90.4019 60.1417L90.4191 60.149C92.1624 60.8911 94.1861 61.5797 96.484 62.2177C98.3441 62.755 100.026 63.2474 101.531 63.6948C102.994 64.1298 104.213 64.6002 105.201 65.0997C106.161 65.5851 106.837 66.1194 107.285 66.6769C107.677 67.1645 107.895 67.7746 107.895 68.5763C107.895 69.8617 107.429 70.7048 106.526 71.2895C105.536 71.9304 103.904 72.3325 101.461 72.3325C99.7367 72.3325 98.0584 72.1201 96.4234 71.6962C94.7494 71.2622 93.2383 70.7451 91.8864 70.1481C90.5063 69.4936 89.308 68.8659 88.288 68.2656C87.2898 67.6062 86.6736 67.128 86.367 66.818L85.2383 65.6768L80 76.0088L80.8077 76.5884C83.668 78.6408 86.889 80.2203 90.462 81.3318C94.0338 82.443 97.6569 83 101.328 83C103.719 83 106.007 82.7442 108.187 82.2283L108.195 82.2262L108.204 82.2241C110.452 81.6558 112.448 80.7727 114.174 79.562C115.972 78.3317 117.384 76.7295 118.402 74.7715C119.484 72.7306 120 70.3373 120 67.6336C120 65.319 119.628 63.2967 118.823 61.6162C118.038 59.9326 116.91 58.4951 115.448 57.3115C114.044 56.1384 112.33 55.1832 110.33 54.4303C108.423 53.6961 106.3 53.0115 103.962 52.3752L103.952 52.3724L103.942 52.3699C102.179 51.9242 100.619 51.5021 99.261 51.1036C97.9833 50.7157 96.9567 50.296 96.1625 49.8544C95.3946 49.4274 94.8481 48.9726 94.4783 48.509C94.1988 48.0679 94.0276 47.4826 94.0276 46.693C94.0276 45.3114 94.509 44.3455 95.4336 43.6444C96.3846 42.9233 97.9722 42.4655 100.395 42.4655C101.717 42.4655 103.018 42.6324 104.299 42.9667C105.615 43.3101 106.814 43.7364 107.898 44.2423L107.922 44.2535L107.946 44.2636C109.096 44.7371 110.021 45.2189 110.737 45.7019L110.749 45.7099L110.761 45.7176C111.6 46.2532 112.08 46.6208 112.292 46.8353ZM109.852 34.7751C107.055 33.6978 103.991 33.1591 100.662 33.1591C98.2642 33.1591 96.0222 33.4958 93.9355 34.1691C91.8488 34.7975 90.0064 35.7402 88.4081 36.9971C86.8542 38.254 85.6332 39.8251 84.7453 41.7104C83.8573 43.5957 83.4134 45.7504 83.4134 48.1744C83.4134 50.0148 83.6798 51.6084 84.2125 52.955C84.7897 54.2568 85.6332 55.4239 86.7432 56.4563C87.8531 57.4439 89.2294 58.3192 90.8721 59.0823C92.5592 59.8005 94.5349 60.4739 96.7991 61.1023C98.6638 61.641 100.351 62.1348 101.86 62.5836C103.37 63.0325 104.657 63.5263 105.723 64.065C106.788 64.6036 107.61 65.2321 108.187 65.9503C108.764 66.6685 109.053 67.5438 109.053 68.5763C109.053 71.8532 106.522 73.4916 101.461 73.4916C99.6405 73.4916 97.8647 73.2672 96.1332 72.8183C94.4017 72.3694 92.8256 71.8307 91.4049 71.2023C89.9842 70.5289 88.741 69.8781 87.6755 69.2496C87.2016 68.9371 86.7946 68.6536 86.4546 68.3992C86.062 68.1053 85.7586 67.8501 85.5444 67.6336L81.4821 75.6463C84.2347 77.6214 87.3425 79.1476 90.8055 80.2249C94.2685 81.3022 97.7759 81.8409 101.328 81.8409C103.636 81.8409 105.834 81.594 107.921 81.1003C110.052 80.5616 111.916 79.7311 113.515 78.6089C115.157 77.4867 116.445 76.0278 117.377 74.2323C118.354 72.3918 118.842 70.1923 118.842 67.6336C118.842 65.4341 118.487 63.5936 117.777 62.1123C117.066 60.5861 116.045 59.2843 114.713 58.207C113.426 57.1297 111.828 56.2319 109.918 55.5137C108.054 54.7955 105.967 54.1221 103.658 53.4937C101.883 53.0448 100.306 52.6184 98.9302 52.2144C97.5983 51.8104 96.4883 51.3615 95.6004 50.8677C94.7125 50.3739 94.0243 49.8128 93.5359 49.1844C93.092 48.511 92.87 47.6806 92.87 46.693C92.87 44.9873 93.4915 43.6631 94.7347 42.7204C95.9778 41.7777 97.8647 41.3064 100.395 41.3064C101.816 41.3064 103.215 41.4859 104.591 41.8451C105.967 42.2042 107.232 42.6531 108.387 43.1917C109.586 43.6855 110.584 44.2017 111.384 44.7404C111.69 44.9359 111.961 45.1166 112.197 45.2826C112.611 45.5738 112.917 45.8195 113.115 46.0197L117.177 38.4784C115.091 37.042 112.649 35.8075 109.852 34.7751Z" fill="#EFE314"/>
<path d="M100.662 33.1591C103.991 33.1591 107.055 33.6978 109.852 34.7751C112.649 35.8075 115.091 37.042 117.177 38.4784L113.115 46.0197C112.917 45.8195 112.611 45.5738 112.197 45.2826C111.961 45.1166 111.69 44.9359 111.384 44.7404C110.584 44.2017 109.586 43.6855 108.387 43.1917C107.232 42.6531 105.967 42.2042 104.591 41.8451C103.215 41.4859 101.816 41.3064 100.395 41.3064C97.8647 41.3064 95.9778 41.7777 94.7347 42.7204C93.4915 43.6631 92.87 44.9873 92.87 46.693C92.87 47.6806 93.092 48.511 93.5359 49.1844C94.0243 49.8128 94.7125 50.3739 95.6004 50.8677C96.4883 51.3615 97.5983 51.8104 98.9302 52.2144C100.306 52.6184 101.883 53.0448 103.658 53.4937C105.967 54.1221 108.054 54.7955 109.918 55.5137C111.828 56.2319 113.426 57.1297 114.713 58.207C116.045 59.2843 117.066 60.5861 117.777 62.1123C118.487 63.5936 118.842 65.4341 118.842 67.6336C118.842 70.1923 118.354 72.3918 117.377 74.2323C116.445 76.0278 115.157 77.4867 113.515 78.6089C111.916 79.7311 110.052 80.5616 107.921 81.1003C105.834 81.594 103.636 81.8409 101.328 81.8409C97.7759 81.8409 94.2685 81.3022 90.8055 80.2249C87.3425 79.1476 84.2347 77.6214 81.4821 75.6463L85.5444 67.6336C85.7586 67.8501 86.062 68.1053 86.4546 68.3992C86.7946 68.6536 87.2016 68.9371 87.6755 69.2496C88.741 69.8781 89.9842 70.5289 91.4049 71.2023C92.8256 71.8307 94.4017 72.3694 96.1332 72.8183C97.8647 73.2672 99.6405 73.4916 101.461 73.4916C106.522 73.4916 109.053 71.8532 109.053 68.5763C109.053 67.5438 108.764 66.6685 108.187 65.9503C107.61 65.2321 106.788 64.6036 105.723 64.065C104.657 63.5263 103.37 63.0325 101.86 62.5836C100.351 62.1348 98.6638 61.641 96.7991 61.1023C94.5349 60.4739 92.5592 59.8005 90.8721 59.0823C89.2294 58.3192 87.8531 57.4439 86.7432 56.4563C85.6332 55.4239 84.7897 54.2568 84.2125 52.955C83.6798 51.6084 83.4134 50.0148 83.4134 48.1744C83.4134 45.7504 83.8573 43.5957 84.7453 41.7104C85.6332 39.8251 86.8542 38.254 88.4081 36.9971C90.0064 35.7402 91.8488 34.7975 93.9355 34.1691C96.0222 33.4958 98.2642 33.1591 100.662 33.1591Z" fill="#EFE314"/>
<path d="M45.1001 66.5726C42.569 68.1217 39.4242 68.8963 35.6659 68.8963C31.9842 68.8963 28.8779 68.1605 26.3467 66.6888C23.8156 65.1397 21.7447 63.1259 20.134 60.6473C18.5999 58.1687 17.4878 55.3416 16.7975 52.166C16.1839 48.9129 15.8771 45.5436 15.8771 42.0581V0H0V42.0581C0 47.4025 0.613607 52.5532 1.84082 57.5104C3.14473 62.4675 5.21565 66.8437 8.05359 70.639C10.8915 74.3568 14.5732 77.3776 19.0985 79.7013C23.7006 81.9474 29.2614 83.0705 35.7809 83.0705C42.0704 83.0705 47.4778 81.9862 52.0032 79.8174C56.5285 77.6487 60.2101 74.7054 63.0481 70.9876C65.9627 67.2697 68.072 62.9322 69.3759 57.9751C70.7565 53.018 71.4468 47.7123 71.4468 42.0581V0H55.6848V42.0581C55.6848 45.4661 55.3396 48.7967 54.6493 52.0498C54.0357 55.2254 52.9236 58.0526 51.3129 60.5311C49.7788 63.0097 47.7079 65.0235 45.1001 66.5726Z" fill="#EFE314"/>
</svg>
