<svg width="24" height="24" viewBox="0 0 24 24" fill="none" xmlns="http://www.w3.org/2000/svg">
<path d="M20.4878 3.5C18.23 1.25 15.2195 0 12.0418 0C5.43554 0 0.0836224 5.33333 0.0836224 11.9167C0.0836224 14 0.668989 16.0833 1.67247 17.8333L0 24L6.3554 22.3333C8.1115 23.25 10.0348 23.75 12.0418 23.75C18.6481 23.75 24 18.4167 24 11.8333C23.9164 8.75 22.7456 5.75 20.4878 3.5ZM17.8118 16.1667C17.561 16.8333 16.3902 17.5 15.8049 17.5833C15.3031 17.6667 14.6341 17.6667 13.9652 17.5C13.547 17.3333 12.9617 17.1667 12.2927 16.8333C9.28223 15.5833 7.35889 12.5833 7.19164 12.3333C7.02439 12.1667 5.93728 10.75 5.93728 9.25C5.93728 7.75 6.68989 7.08333 6.94077 6.75C7.19164 6.41667 7.52613 6.41667 7.777 6.41667C7.94425 6.41667 8.19512 6.41667 8.36237 6.41667C8.52961 6.41667 8.78049 6.33333 9.03136 6.91667C9.28223 7.5 9.86759 9 9.95122 9.08333C10.0348 9.25 10.0348 9.41667 9.95122 9.58333C9.86759 9.75 9.78397 9.91667 9.61672 10.0833C9.44947 10.25 9.28223 10.5 9.1986 10.5833C9.03136 10.75 8.86411 10.9167 9.03136 11.1667C9.19861 11.5 9.78397 12.4167 10.7038 13.25C11.8746 14.25 12.7944 14.5833 13.1289 14.75C13.4634 14.9167 13.6307 14.8333 13.7979 14.6667C13.9652 14.5 14.5505 13.8333 14.7178 13.5C14.885 13.1667 15.1359 13.25 15.3868 13.3333C15.6376 13.4167 17.1429 14.1667 17.3937 14.3333C17.7282 14.5 17.8955 14.5833 17.9791 14.6667C18.0627 14.9167 18.0627 15.5 17.8118 16.1667Z" fill="#EFE314"/>
</svg>
