<svg width="40" height="40" viewBox="0 0 40 40" fill="none" xmlns="http://www.w3.org/2000/svg">
<path d="M34.1463 5.83333C30.3833 2.08333 25.3658 0 20.0697 0C9.05923 0 0.139371 8.88889 0.139371 19.8611C0.139371 23.3333 1.11498 26.8056 2.78746 29.7222L0 40L10.5923 37.2222C13.5192 38.75 16.7247 39.5833 20.0697 39.5833C31.0801 39.5833 40 30.6944 40 19.7222C39.8606 14.5833 37.9094 9.58333 34.1463 5.83333ZM29.6864 26.9444C29.2683 28.0556 27.3171 29.1667 26.3415 29.3056C25.5052 29.4444 24.3902 29.4444 23.2753 29.1667C22.5784 28.8889 21.6028 28.6111 20.4878 28.0556C15.4704 25.9722 12.2648 20.9722 11.9861 20.5556C11.7073 20.2778 9.89547 17.9167 9.89547 15.4167C9.89547 12.9167 11.1498 11.8056 11.5679 11.25C11.9861 10.6944 12.5436 10.6944 12.9617 10.6944C13.2404 10.6944 13.6585 10.6944 13.9373 10.6944C14.216 10.6944 14.6341 10.5556 15.0523 11.5278C15.4704 12.5 16.446 15 16.5854 15.1389C16.7247 15.4167 16.7247 15.6944 16.5854 15.9722C16.446 16.25 16.3066 16.5278 16.0279 16.8056C15.7491 17.0833 15.4704 17.5 15.331 17.6389C15.0523 17.9167 14.7735 18.1944 15.0523 18.6111C15.331 19.1667 16.3066 20.6944 17.8397 22.0833C19.7909 23.75 21.324 24.3056 21.8815 24.5833C22.439 24.8611 22.7178 24.7222 22.9965 24.4444C23.2753 24.1667 24.2509 23.0556 24.5296 22.5C24.8084 21.9444 25.2265 22.0833 25.6446 22.2222C26.0627 22.3611 28.5714 23.6111 28.9895 23.8889C29.547 24.1667 29.8258 24.3056 29.9651 24.4444C30.1045 24.8611 30.1045 25.8333 29.6864 26.9444Z" fill="url(#paint0_linear_947_2394)"/>
<defs>
<linearGradient id="paint0_linear_947_2394" x1="8.34711" y1="30" x2="39.3535" y2="9.04349" gradientUnits="userSpaceOnUse">
<stop stop-color="#FFDCAB"/>
<stop offset="1" stop-color="#FFE8C7"/>
</linearGradient>
</defs>
</svg>
