<svg width="263" height="87" viewBox="0 0 263 87" fill="none" xmlns="http://www.w3.org/2000/svg">
<path d="M18.1922 0L39.4164 41.325L61.0044 0H79.0753L47.7848 55.825V85.7917H31.1692V55.5833L0 0H18.1922Z" fill="#EFE314"/>
<path d="M105.076 87C99.9012 87 95.2521 86.1139 91.1285 84.3417C87.005 82.5694 83.4878 80.1931 80.5771 77.2125C77.7472 74.1514 75.5641 70.6472 74.0279 66.7C72.4917 62.7528 71.7236 58.6042 71.7236 54.2542C71.7236 49.8236 72.4917 45.6347 74.0279 41.6875C75.5641 37.7403 77.7472 34.2764 80.5771 31.2958C83.4878 28.2347 87.005 25.8181 91.1285 24.0458C95.2521 22.2736 99.9012 21.3875 105.076 21.3875C110.251 21.3875 114.859 22.2736 118.902 24.0458C123.025 25.8181 126.502 28.2347 129.332 31.2958C132.243 34.2764 134.466 37.7403 136.003 41.6875C137.539 45.6347 138.307 49.8236 138.307 54.2542C138.307 58.6042 137.539 62.7528 136.003 66.7C134.466 70.6472 132.283 74.1514 129.453 77.2125C126.623 80.1931 123.147 82.5694 119.023 84.3417C114.9 86.1139 110.251 87 105.076 87ZM88.4604 54.2542C88.4604 57.0736 88.8646 59.6514 89.6732 61.9875C90.5626 64.243 91.7349 66.2167 93.1903 67.9083C94.7265 69.6 96.5053 70.9292 98.5267 71.8958C100.548 72.7819 102.731 73.225 105.076 73.225C107.421 73.225 109.604 72.7819 111.625 71.8958C113.646 70.9292 115.385 69.6 116.84 67.9083C118.376 66.2167 119.549 64.2028 120.357 61.8667C121.247 59.5305 121.691 56.9528 121.691 54.1333C121.691 51.3944 121.247 48.8569 120.357 46.5208C119.549 44.1847 118.376 42.1708 116.84 40.4792C115.385 38.7875 113.646 37.4986 111.625 36.6125C109.604 35.6458 107.421 35.1625 105.076 35.1625C102.731 35.1625 100.548 35.6458 98.5267 36.6125C96.5053 37.5792 94.7265 38.9083 93.1903 40.6C91.7349 42.2917 90.5626 44.3056 89.6732 46.6417C88.8646 48.9778 88.4604 51.5153 88.4604 54.2542Z" fill="#EFE314"/>
<path d="M168.681 87C162.132 87 157.159 84.9055 153.764 80.7167C150.368 76.5278 148.67 70.325 148.67 62.1083V22.475H164.921V58.6042C164.921 68.3514 168.439 73.225 175.473 73.225C178.626 73.225 181.658 72.2986 184.569 70.4458C187.561 68.5125 189.986 65.6125 191.846 61.7458V22.475H208.098V67.1833C208.098 68.875 208.381 70.0833 208.946 70.8083C209.593 71.5333 210.604 71.9361 211.979 72.0167V85.7917C210.361 86.1139 208.987 86.3153 207.855 86.3958C206.804 86.4764 205.834 86.5167 204.944 86.5167C202.033 86.5167 199.648 85.8722 197.789 84.5833C196.01 83.2139 194.959 81.3611 194.635 79.025L194.271 73.95C191.442 78.3 187.803 81.5625 183.356 83.7375C178.909 85.9125 174.018 87 168.681 87Z" fill="#EFE314"/>
<path d="M262.087 36.4917C257.155 36.5722 252.749 37.5389 248.868 39.3917C244.987 41.1639 242.197 43.8625 240.499 47.4875V85.7917H224.248V22.475H239.165V36.0083C240.297 33.8333 241.631 31.9 243.168 30.2083C244.704 28.4361 246.361 26.9056 248.14 25.6167C249.919 24.3278 251.698 23.3611 253.477 22.7167C255.336 21.9917 257.115 21.6292 258.813 21.6292C259.702 21.6292 260.349 21.6292 260.753 21.6292C261.239 21.6292 261.683 21.6694 262.087 21.75V36.4917Z" fill="#EFE314"/>
</svg>
