<svg width="80" height="80" viewBox="0 0 80 80" fill="none" xmlns="http://www.w3.org/2000/svg">
<path fill-rule="evenodd" clip-rule="evenodd" d="M55.0725 38.65L55.339 38.5844C55.7861 38.4743 56.3852 38.327 56.9933 38.1777C57.7373 37.995 58.5067 37.8065 59.0232 37.6813C58.0861 36.4993 56.279 34.2178 55.9135 33.7416C55.4662 33.8255 53.2717 34.2228 51.9932 34.4477L55.0725 38.65ZM54.7719 39.4776C54.7719 39.4776 58.4853 38.5623 59.5242 38.3129C59.5275 38.3121 59.5307 38.3114 59.5339 38.3106C59.6299 38.2876 59.7022 38.2705 59.7453 38.2606C59.7474 38.2601 59.7493 38.2597 59.7512 38.2592C59.7624 38.2567 59.7713 38.2547 59.7779 38.2533C60.0635 38.1855 60.2811 38.0909 60.1586 37.9353C60.0294 37.7728 56.6968 33.5722 56.4519 33.2408C56.2145 32.9198 56.0475 32.9604 55.8583 33.0063C55.8522 33.0078 55.846 33.0093 55.8398 33.0108C55.6789 33.044 52.7403 33.5757 51.5109 33.7896C51.5087 33.79 51.5065 33.7903 51.5042 33.7907C51.4999 33.7915 51.4955 33.7923 51.4912 33.793C51.2228 33.8397 51.0395 33.8705 50.9904 33.8766C50.7183 33.9105 50.8069 34.0594 50.9155 34.2149L54.7719 39.4776ZM49.5894 32.8215C49.7785 32.7909 50.4336 32.6817 51.2483 32.5459C52.9525 32.2619 55.3548 31.8616 55.6493 31.8204C55.6871 31.815 55.7243 31.8089 55.7611 31.8029C56.1418 31.7409 56.4866 31.6847 57.1251 32.4496C57.4733 32.8664 58.6326 34.3004 59.746 35.6775C60.8732 37.0718 61.9534 38.4078 62.097 38.5712C62.3897 38.8958 62.3148 39.1529 61.7774 39.288C61.393 39.3965 58.2876 40.2176 56.6033 40.6625C56.2913 40.7449 56.0281 40.8144 55.8399 40.8641C55.9874 41.0609 56.1463 41.2726 56.3136 41.4958C56.4019 41.6135 56.4925 41.7343 56.5851 41.8578C58.4052 44.2844 60.9843 47.7229 61.2333 48.0884C61.6209 48.6633 61.2672 48.8256 60.696 49.0626C60.1246 49.2923 47.4197 53.8381 46.5491 54.102L46.5085 54.1144C45.4281 54.4443 44.9283 54.5969 44.2161 53.6014C43.6722 52.8505 40.7406 47.6013 39.3055 45.0107C36.585 45.7209 31.6064 47.013 30.1713 47.358C28.7701 47.6963 28.1717 46.8573 27.9404 46.3432C27.8743 46.1962 27.151 44.6425 26.1401 42.4707C23.6178 37.0521 19.3043 27.7855 18.9353 26.9162C18.4184 25.6987 18.9898 25.4687 19.5066 25.4281C20.0236 25.3807 27.2944 24.7787 28.2465 24.7381C29.147 24.6934 29.2749 24.8846 29.6372 25.4262C29.658 25.4572 29.6795 25.4894 29.702 25.5227L40.1897 42.9409L53.3641 39.8022C53.2589 39.655 53.1008 39.4329 52.9062 39.1592C52.3188 38.3331 51.399 37.0366 50.5965 35.9054C49.8083 34.7945 49.1333 33.843 48.9976 33.6535C48.6371 33.153 49.0043 32.923 49.5894 32.8215ZM48.4033 34.0802C48.5437 34.2763 49.2182 35.2272 50.0049 36.3361C50.7313 37.3599 51.5532 38.5185 52.1385 39.3421L40.5405 42.1051L30.3192 25.1292L30.3087 25.1137C30.2907 25.0871 30.2723 25.0594 30.2534 25.0312C30.1768 24.9166 30.0937 24.7923 30.0136 24.688C29.9058 24.5478 29.7673 24.3934 29.5737 24.268C29.1755 24.0098 28.713 23.9826 28.2127 24.0072C27.2318 24.0495 19.9936 24.6491 19.4443 24.6991C19.1575 24.7221 18.5684 24.808 18.2241 25.3257C17.8662 25.8638 17.9808 26.5402 18.2618 27.2021M48.4033 34.0802C48.2705 33.8956 48.1473 33.6595 48.1261 33.3822C48.1026 33.074 48.2119 32.8012 48.3959 32.5975C48.561 32.4147 48.7655 32.3083 48.9318 32.243C49.1046 32.1751 49.2893 32.131 49.4644 32.1006L49.4684 32.0999L49.4723 32.0993C49.6517 32.0702 50.284 31.9649 51.078 31.8325C52.7848 31.5481 55.239 31.1391 55.547 31.0959C55.5613 31.0938 55.5804 31.0904 55.6036 31.0863C55.7618 31.0581 56.1129 30.9955 56.4718 31.0901C56.9126 31.2063 57.2951 31.5115 57.6867 31.9805C58.0573 32.4242 59.2431 33.8913 60.3641 35.2783C61.4609 36.6353 62.4958 37.9157 62.6444 38.0856C62.8311 38.2941 63.1426 38.7421 62.9266 39.2753C62.736 39.7459 62.2625 39.9192 61.9664 39.9949C61.56 40.1088 58.7898 40.8416 57.077 41.2941C57.1086 41.3362 57.1404 41.3786 57.1724 41.4214C58.9881 43.842 61.5784 47.2954 61.838 47.6765L61.8399 47.6793C61.9666 47.8673 62.0865 48.0969 62.1192 48.3594C62.1565 48.6586 62.0722 48.934 61.9 49.1536C61.7512 49.3435 61.5599 49.4618 61.4208 49.5363C61.2764 49.6136 61.1137 49.6814 60.9763 49.7384L60.9726 49.7399L60.9689 49.7414C60.3822 49.9773 47.6685 54.5266 46.7626 54.8018C46.7458 54.807 46.7289 54.8121 46.712 54.8173C46.4621 54.8936 46.2098 54.9707 45.9771 55.0225C45.7246 55.0786 45.4448 55.1174 45.1523 55.0832C44.5034 55.0073 44.037 54.6079 43.6223 54.0288C43.3183 53.6082 42.4234 52.0596 41.4584 50.3566C40.595 48.8328 39.6457 47.1317 38.9409 45.862C36.1484 46.59 31.6935 47.7446 30.3423 48.0694C29.4672 48.2805 28.7564 48.1362 28.2162 47.7823C27.7017 47.4452 27.4196 46.9689 27.2732 46.6434C27.2137 46.5112 26.5307 45.044 25.5645 42.9683C23.0555 37.578 18.636 28.0837 18.2618 27.2021M28.3893 26.1382C28.3734 26.1115 28.3613 26.0879 28.3506 26.0672C28.3018 25.9723 28.2841 25.9378 28.0832 25.9488C27.9744 25.9551 26.4822 26.0857 24.8834 26.2257C22.9851 26.3918 20.9365 26.5712 20.8736 26.5712C20.7581 26.5712 20.7514 26.747 20.8736 26.9704C20.8825 26.9865 20.9364 27.0953 21.0289 27.2833C21.0305 27.2866 21.0322 27.2899 21.0338 27.2933C22.2345 29.7349 29.7259 45.1086 29.7699 45.234C29.7714 45.2383 29.7729 45.2426 29.7744 45.2468C29.8179 45.3718 29.8302 45.4072 30.212 45.3219C30.4357 45.2721 32.904 44.6853 35.0288 44.1802C36.6521 43.7943 38.0748 43.456 38.1426 43.4414L37.9882 42.7262L37.9876 42.7263C37.9876 42.7263 37.9859 42.7267 37.9836 42.7272M38.1426 43.4414L37.9876 42.7263ZM21.8163 27.2274C22.5057 28.6321 24.2672 32.2426 26.0076 35.8147C27.1091 38.0753 28.2083 40.3334 29.0351 42.0348C29.4485 42.8854 29.794 43.5973 30.0376 44.1008C30.125 44.2814 30.1994 44.4355 30.2593 44.5597C30.9315 44.4018 33.0378 43.9013 34.8823 43.463C35.8352 43.2366 36.7183 43.0267 37.2976 42.8893C37.2453 42.7993 37.1867 42.6984 37.1221 42.5873C36.8421 42.1057 36.451 41.4335 35.9861 40.635C35.0565 39.0379 33.8323 36.9357 32.6132 34.8426C31.3941 32.7495 30.18 30.6655 29.2708 29.1047L27.8699 26.7002C27.8396 26.7028 27.8069 26.7055 27.772 26.7085C27.5622 26.7264 27.2749 26.7513 26.936 26.7807C26.374 26.8296 25.6712 26.8912 24.9462 26.9546C24.7968 26.9677 24.6466 26.9809 24.4964 26.994C23.6173 27.0709 22.7417 27.1475 22.0785 27.2048C21.9869 27.2127 21.8993 27.2203 21.8163 27.2274ZM21.5026 26.5918C21.5026 26.5918 21.5036 26.5939 21.5049 26.598C21.5031 26.5938 21.5026 26.5918 21.5026 26.5918ZM28.1492 26.6785L28.1481 26.6785ZM27.6927 26.3878C27.6941 26.3905 27.6951 26.3924 27.6958 26.3937C27.6913 26.3859 27.6903 26.3833 27.6927 26.3878ZM29.8997 44.6375C29.8905 44.6385 29.8918 44.6378 29.9014 44.6373L29.8997 44.6375ZM28.3893 26.1382C28.3893 26.1382 38.0607 42.7377 38.2241 43.0289ZM41.1282 44.5306C41.1282 44.5306 41.2735 44.7805 41.5105 45.1875C42.5082 46.9011 45.1306 51.3995 45.3724 51.7549C45.6716 52.1944 45.8552 52.1605 46.0933 52.0591C46.2287 51.9998 50.4452 50.5806 53.9893 49.3876C56.4961 48.5438 58.6666 47.8132 58.8188 47.7572C59.161 47.6394 59.0877 47.5276 58.9843 47.3697C58.9747 47.355 58.9648 47.3399 58.9549 47.3243C58.9085 47.251 58.2298 46.3291 57.4207 45.2301C56.2124 43.5888 54.7132 41.5525 54.5951 41.358C54.4079 41.0661 54.3066 41.0993 54.044 41.1851C54.0205 41.1928 53.9957 41.2009 53.9694 41.2093L41.1282 44.5306ZM42.2463 44.9972C42.2892 45.0708 42.3343 45.1483 42.3815 45.2293C42.7559 45.872 43.2582 46.7335 43.7698 47.6086C44.7816 49.3394 45.7968 51.0665 45.9664 51.3268C46.0876 51.284 46.2599 51.225 46.4548 51.1584C46.8104 51.0369 47.3054 50.8689 47.8931 50.6701C49.0688 50.2725 50.6183 49.7505 52.1715 49.2275C52.7058 49.0476 53.2405 48.8676 53.7606 48.6926C54.7529 48.3586 55.6922 48.0424 56.4743 47.7788C57.0703 47.578 57.5747 47.4078 57.9414 47.2837C57.9635 47.2762 57.9852 47.2688 58.0063 47.2617C57.9078 47.1272 57.792 46.9695 57.663 46.7939C57.4224 46.4665 57.1367 46.0785 56.8324 45.6651C56.6325 45.3937 56.4247 45.1113 56.2162 44.828C55.6908 44.1139 55.1621 43.3944 54.7523 42.8329C54.4804 42.4604 54.244 42.1348 54.1007 41.9311L42.2463 44.9972Z" fill="#FB503B"/>
</svg>
