<svg width="80" height="80" viewBox="0 0 80 80" fill="none" xmlns="http://www.w3.org/2000/svg">
<path d="M39.6231 28.8613L39.6257 28.8598C40.4555 28.3809 41.5457 28.3794 42.3725 28.8592L42.3759 28.8612C44.4251 30.0286 46.4742 31.1952 48.5232 32.3617C51.4191 34.0103 54.3147 35.6587 57.2099 37.3095L57.2106 37.3099C57.9875 37.7511 58.5077 38.6292 58.4999 39.5225V39.5269L58.4999 56.4753L58.4999 56.4783C58.5056 57.4053 57.9355 58.3077 57.1096 58.7422L57.1024 58.746L57.0953 58.7501C54.5045 60.2229 51.9135 61.697 49.3228 63.1711C46.9863 64.5005 44.65 65.8298 42.314 67.158L42.3114 67.1595C41.4731 67.6428 40.3669 67.6074 39.5482 67.0802L39.5392 67.0744L39.5298 67.069C38.7262 66.5992 37.92 66.1297 37.1143 65.6605C36.4411 65.2684 35.7681 64.8764 35.0971 64.4847C35.036 64.448 34.9732 64.4125 34.9154 64.3801C34.9289 64.3751 34.9426 64.3699 34.9562 64.3644C35.5758 64.1635 36.1443 63.8536 36.6635 63.5707C36.6886 63.5569 36.7137 63.5433 36.7387 63.5297L36.7412 63.5312C37.2731 63.8387 37.8092 64.1536 38.3471 64.4696C39.0718 64.8953 39.7997 65.3229 40.5251 65.7369C40.8345 65.9161 41.1387 65.8686 41.3516 65.7893C41.4974 65.7351 41.6552 65.6411 41.7446 65.5878C41.7656 65.5753 41.7828 65.5651 41.7952 65.5581L41.7978 65.5566C44.1018 64.2436 46.4098 62.9315 48.718 61.6193C51.2465 60.1819 53.7752 58.7443 56.2993 57.3052C56.6623 57.1201 56.8464 56.7411 56.8272 56.3725C56.8294 52.8188 56.8292 49.2646 56.8289 45.7106C56.8288 43.6845 56.8286 41.6586 56.8289 39.6329C56.857 39.2041 56.6126 38.8235 56.25 38.6471C53.5132 37.093 50.7775 35.5378 48.0417 33.9826C45.8789 32.753 43.716 31.5235 41.5524 30.2944C41.3887 30.1871 41.1972 30.1295 41.0009 30.1292C40.8042 30.1289 40.6123 30.1861 40.4481 30.2932C38.2748 31.5282 36.1025 32.7639 33.9304 33.9996C31.2043 35.5503 28.4785 37.1009 25.7513 38.6497C25.4015 38.8205 25.1375 39.1923 25.1711 39.6359C25.1716 43.3558 25.1715 47.076 25.1713 50.7964C25.1712 52.6543 25.1711 54.5123 25.1711 56.3703C25.1595 56.5591 25.2028 56.7476 25.2965 56.9127C25.3909 57.079 25.5322 57.214 25.703 57.3004C26.5662 57.794 27.4306 58.2854 28.2943 58.7766C28.7379 59.0288 29.1812 59.2809 29.6242 59.5332L29.6242 59.5333L29.6332 59.5381C30.4276 59.9693 31.4949 60.2791 32.5044 59.8996C33.4234 59.5656 34.0542 58.6357 34.039 57.6593C34.0422 55.0104 34.0416 52.3654 34.041 49.721C34.0403 46.835 34.0397 43.9497 34.044 41.0606C34.6323 41.0566 35.2155 41.053 35.797 41.0613L35.797 41.0707C35.7961 43.1324 35.7967 45.1936 35.7974 47.2546C35.7986 50.7867 35.7997 54.3183 35.7928 57.8504L35.7928 57.852C35.7943 59.24 35.2272 60.6416 34.086 61.2515C32.5768 62.0387 30.6695 61.8857 29.1141 61.0972L29.1128 61.0965C28.2245 60.6495 27.3781 60.1617 26.5178 59.6659C25.9873 59.3601 25.4515 59.0513 24.8973 58.7471L24.8974 58.747L24.8881 58.7422C24.0626 58.3114 23.4944 57.4063 23.5001 56.4785V56.4754V39.5269H23.5001L23.5001 39.5222C23.4916 38.61 24.0328 37.7157 24.8338 37.281L24.8339 37.281L24.8426 37.2761C28.5572 35.1624 32.2714 33.0475 35.9853 30.9326C37.1979 30.2421 38.4105 29.5517 39.6231 28.8613Z" stroke="#689F63"/>
<path d="M49.6769 41.4685L49.6788 41.4695C51.0014 42.1501 51.7815 43.5669 51.8634 45.0059L51.8573 45.0059C51.646 45.0056 51.4372 45.0064 51.2298 45.0071C50.7943 45.0087 50.3651 45.0102 49.9324 45.0022C49.9277 44.9903 49.924 44.9768 49.922 44.9632L49.9189 44.9424L49.914 44.9219C49.7056 44.0423 49.1849 43.1013 48.2212 42.6323L48.2212 42.6322L48.2171 42.6303C46.939 42.0225 45.4814 42.0369 44.2309 42.0492C44.183 42.0496 44.1355 42.0501 44.0883 42.0505L44.078 42.0506L44.0677 42.0511C43.1276 42.0985 41.9614 42.1742 41.0202 42.7941C40.1707 43.3476 39.9504 44.4235 40.2307 45.2539L40.238 45.2756L40.2473 45.2966C40.4168 45.679 40.7248 45.9055 41.0096 46.0485C41.2609 46.1747 41.5401 46.2575 41.7528 46.3205C41.7745 46.3269 41.7956 46.3332 41.8159 46.3392L41.8272 46.3426L41.8386 46.3455C43.0535 46.6472 44.3002 46.8039 45.512 46.9562C45.6867 46.9782 45.8607 47 46.0338 47.0222C47.4212 47.2002 48.7605 47.4002 50.0388 47.8262L50.0409 47.8269C51.079 48.1676 51.9743 48.794 52.2767 49.67C52.7219 50.9972 52.5119 52.5468 51.5626 53.5642L51.5602 53.5668C50.7694 54.4268 49.5884 54.9225 48.3401 55.199C46.6858 55.549 44.9554 55.5607 43.2397 55.4021C41.6259 55.227 40.0395 54.8302 38.8874 53.8645L38.8843 53.8619C37.9641 53.1031 37.4862 51.919 37.5003 50.7454C38.1448 50.7405 38.7873 50.7388 39.4289 50.7461L39.4308 50.7581C39.5603 51.563 39.8947 52.528 40.7643 53.0896L40.7642 53.0897L40.7743 53.0959C42.1223 53.9218 43.7728 53.937 45.1674 53.9499C45.3031 53.9511 45.4363 53.9524 45.5666 53.9543L45.5809 53.9545L45.5952 53.9539C45.6602 53.9512 45.7263 53.9485 45.7933 53.9459C46.3631 53.923 46.9963 53.8976 47.6066 53.7931C48.2946 53.6753 48.9958 53.4513 49.6004 52.9862L49.6079 52.9805L49.6152 52.9744C50.3389 52.3726 50.5207 51.4037 50.3427 50.6152L50.3394 50.6005L50.3352 50.5862C50.211 50.1575 49.9177 49.8688 49.6193 49.6747C49.3251 49.4833 48.9914 49.361 48.7206 49.2737L48.7206 49.2737L48.7112 49.2708C47.388 48.8733 46.0163 48.7349 44.7005 48.6021C44.6318 48.5952 44.5633 48.5883 44.495 48.5813C43.0988 48.4397 41.7657 48.2892 40.5034 47.8561L40.5034 47.8561L40.5002 47.855C39.4893 47.5157 38.6142 46.9054 38.2786 46.0544C37.7644 44.7285 38.0149 43.1182 39.0562 42.1423L39.0562 42.1423L39.0598 42.1388C40.1173 41.1277 41.6809 40.7068 43.2651 40.5532C45.4995 40.4169 47.7846 40.4846 49.6769 41.4685Z" stroke="white"/>
<path d="M48.2841 12.0001C48.2418 12.0001 48.2002 12.0111 48.1634 12.0321C48.1269 12.0535 48.0965 12.084 48.0754 12.1207C48.0542 12.1573 48.043 12.1989 48.0428 12.2412V18.3916C48.0428 18.452 48.0148 18.506 47.9624 18.5363C47.9368 18.5513 47.9077 18.5591 47.878 18.5591C47.8483 18.5591 47.8192 18.5513 47.7936 18.5363L46.7884 17.9575C46.715 17.9151 46.6318 17.8928 46.5471 17.8928C46.4624 17.8928 46.3792 17.9151 46.3059 17.9575L42.2932 20.2729C42.1432 20.3595 42.052 20.5259 42.052 20.6991V25.3299C42.052 25.5029 42.1433 25.6614 42.2932 25.748L46.3059 28.0635C46.3792 28.106 46.4624 28.1284 46.5471 28.1284C46.6319 28.1284 46.7151 28.106 46.7884 28.0635L50.801 25.748C50.8745 25.7057 50.9355 25.6448 50.9779 25.5714C51.0202 25.498 51.0425 25.4147 51.0423 25.3299V13.7849C51.0422 13.6982 51.0191 13.613 50.9753 13.5381C50.9315 13.4633 50.8686 13.4013 50.7931 13.3587L48.4047 12.0241C48.3673 12.0032 48.3257 11.9995 48.2841 12.0001V12.0001ZM22.471 17.7806C22.3946 17.7836 22.3226 17.7971 22.254 17.8368L18.2412 20.1523C18.1677 20.1945 18.1067 20.2554 18.0643 20.3289C18.0219 20.4023 17.9998 20.4856 18 20.5703L18.008 26.7853C18.008 26.8716 18.0526 26.952 18.1286 26.9942C18.1651 27.0161 18.2068 27.0277 18.2493 27.0277C18.2918 27.0277 18.3335 27.0161 18.3699 26.9942L20.7502 25.6275C20.901 25.5379 20.9994 25.3821 20.9994 25.2094V22.307C20.9994 22.1338 21.0905 21.9749 21.2407 21.8889L22.2539 21.302C22.3271 21.2594 22.4104 21.2372 22.4952 21.2377C22.5779 21.2377 22.6628 21.2583 22.7363 21.302L23.7496 21.8889C23.8232 21.9311 23.8843 21.992 23.9267 22.0654C23.969 22.1389 23.9912 22.2222 23.9909 22.307V25.2093C23.9909 25.382 24.0904 25.5389 24.2401 25.6274L26.6204 26.9942C26.6568 27.0161 26.6985 27.0277 26.741 27.0277C26.7835 27.0277 26.8252 27.0161 26.8617 26.9942C26.8984 26.973 26.9288 26.9425 26.95 26.9058C26.9712 26.8691 26.9824 26.8275 26.9824 26.7851L26.9902 20.5703C26.9907 20.4855 26.9686 20.4021 26.9262 20.3287C26.8838 20.2552 26.8227 20.1944 26.749 20.1523L22.7363 17.8368C22.6685 17.7971 22.5963 17.7838 22.5193 17.7806H22.471ZM58.5289 17.8368C58.445 17.8368 58.3629 17.8581 58.2877 17.9012L54.275 20.2167C54.2015 20.2589 54.1405 20.3199 54.0981 20.3933C54.0558 20.4667 54.0335 20.55 54.0337 20.6347V25.2656C54.0337 25.4398 54.1318 25.5976 54.2829 25.6837L58.2635 27.9509C58.4105 28.0347 58.59 28.0411 58.738 27.9588L61.1504 26.6162C61.227 26.5737 61.2787 26.4944 61.2791 26.4072C61.2795 26.3648 61.2685 26.323 61.2473 26.2862C61.2261 26.2495 61.1954 26.2191 61.1585 26.1982L57.1216 23.8827C57.0461 23.8395 56.993 23.7523 56.993 23.6656V22.2185C56.993 22.1319 57.0467 22.0526 57.1216 22.0095L58.3761 21.2858C58.4128 21.2646 58.4544 21.2534 58.4967 21.2534C58.5391 21.2534 58.5807 21.2646 58.6174 21.2858L59.8717 22.0095C59.9085 22.0306 59.939 22.061 59.9602 22.0977C59.9814 22.1344 59.9925 22.176 59.9924 22.2184V23.3601C59.9923 23.4024 60.0034 23.4441 60.0246 23.4808C60.0458 23.5175 60.0763 23.5479 60.113 23.569C60.1882 23.6125 60.2792 23.6126 60.3542 23.569L62.7587 22.1704C62.8321 22.1279 62.893 22.067 62.9353 21.9936C62.9777 21.9202 63 21.837 63 21.7522V20.6348C63 20.4622 62.9084 20.3034 62.7587 20.2167L58.7702 17.9012C58.6968 17.8588 58.6136 17.8366 58.5289 17.8369V17.8368ZM46.531 21.294C46.552 21.294 46.5766 21.2991 46.5953 21.31L47.9705 22.1059C48.0078 22.1275 48.0349 22.1673 48.0349 22.2104V23.8022C48.0349 23.8455 48.008 23.8852 47.9705 23.9068L46.5953 24.7027C46.577 24.7132 46.5562 24.7187 46.5351 24.7187C46.5139 24.7187 46.4931 24.7132 46.4748 24.7027L45.0997 23.9068C45.0623 23.8851 45.0353 23.8455 45.0353 23.8022V22.2104C45.0353 22.1672 45.0624 22.1277 45.0997 22.1059L46.4748 21.3101C46.4917 21.2996 46.5112 21.294 46.5311 21.2941V21.294H46.531Z" stroke="#79B361"/>
<path d="M34.5265 18.3153L38.5216 20.6127V25.2319L34.5265 27.5371L30.5312 25.2318V20.6127L34.5265 18.3153ZM58.1537 22.719L58.5182 22.5065L58.8826 22.719V23.1313L58.5181 23.3401L58.1537 23.1314V22.719Z" stroke="#79B361"/>
<path d="M30.5312 20.6127L34.5265 18.3153L38.5216 20.6127V25.2319L34.5265 27.5371L30.5312 25.2318V20.6127ZM58.1537 23.1314V22.719L58.5182 22.5065L58.8826 22.719V23.1313L58.5181 23.3401L58.1537 23.1314Z" stroke="white"/>
</svg>
