<svg width="80" height="80" viewBox="0 0 80 80" fill="none" xmlns="http://www.w3.org/2000/svg">
<path fill-rule="evenodd" clip-rule="evenodd" d="M30.3399 37.4527L24.9622 37.4249L24.1488 41.8489L24.6183 41.8308C25.156 41.8102 25.6859 41.8151 26.1512 41.8222C26.2176 41.8232 26.2826 41.8243 26.3461 41.8253L26.347 41.8254C26.4864 41.8276 26.6193 41.8298 26.7423 41.8311C27.6667 41.8407 28.3351 41.8161 28.8924 41.6949C29.3935 41.586 29.7193 41.4155 29.986 41.1573C30.2692 40.8832 30.6739 40.3261 31.012 39.1428C31.1899 38.52 31.1337 38.2046 31.1027 38.0921C31.0921 38.0535 31.0738 37.9977 31.0344 37.9346C30.9981 37.8765 30.953 37.8265 30.9039 37.7808C30.7771 37.6626 30.5977 37.5547 30.4057 37.4787L30.3399 37.4527ZM25.058 41.0664L25.5885 38.1808L30.1893 38.2046C30.2753 38.2446 30.3421 38.2891 30.3811 38.3228C30.3828 38.3415 30.3842 38.3694 30.3832 38.4072C30.3807 38.5073 30.3619 38.6784 30.2883 38.9361C29.9767 40.0264 29.6282 40.4561 29.4625 40.6165C29.317 40.7574 29.1275 40.8735 28.7326 40.9594C28.2658 41.0609 27.6726 41.0881 26.7502 41.0784C26.6295 41.0772 26.4987 41.075 26.3584 41.0728C26.2949 41.0717 26.2295 41.0707 26.1627 41.0696C25.8272 41.0645 25.4506 41.0604 25.058 41.0664Z" fill="white"/>
<path fill-rule="evenodd" clip-rule="evenodd" d="M30.3992 34.1649H22.2452L19.5352 48.905H23.625L24.3201 45.1133C24.9196 45.0669 25.5611 45.0761 26.2378 45.0862L26.2776 45.0868C27.7263 45.1086 29.3343 45.1328 30.7524 44.5088C32.219 43.8636 33.4292 42.5553 34.1481 40.0389C34.4628 38.9376 34.4618 38.0064 34.2478 37.2277C34.0338 36.4491 33.6134 35.8471 33.1268 35.3939C32.6424 34.9427 32.0915 34.638 31.6054 34.4457C31.1265 34.2563 30.6817 34.1649 30.3992 34.1649ZM20.4388 48.1523L22.8721 34.9176H30.3992C30.5558 34.9176 30.9033 34.9774 31.3286 35.1457C31.7467 35.3111 32.2119 35.5704 32.6138 35.9447C33.0137 36.3171 33.3502 36.8021 33.522 37.4272C33.6938 38.0523 33.7075 38.8414 33.4244 39.8321C32.7529 42.1825 31.6683 43.2836 30.4493 43.8199C29.195 44.3718 27.7433 44.356 26.2491 44.3336L26.2355 44.3334C25.4683 44.3219 24.8167 44.3262 24.0013 44.3334L23.7504 44.3262L22.9978 48.1523H20.4388Z" fill="white"/>
<path fill-rule="evenodd" clip-rule="evenodd" d="M57.1858 37.4527L51.808 37.4249L50.9947 41.8489L51.4642 41.8308C52.0792 41.8073 52.683 41.817 53.192 41.8253L53.1922 41.8254L53.1938 41.8254L53.2442 41.8262C53.3649 41.8282 53.4802 41.83 53.5882 41.8311C54.5126 41.8407 55.181 41.8161 55.7383 41.6949C56.2394 41.586 56.5652 41.4155 56.8319 41.1573C57.1151 40.8832 57.5198 40.3261 57.8579 39.1428C58.0358 38.52 57.9795 38.2046 57.9486 38.0921C57.938 38.0535 57.9197 37.9977 57.8803 37.9346C57.844 37.8765 57.7989 37.8265 57.7498 37.7808C57.623 37.6626 57.4436 37.5547 57.2516 37.4787L57.1858 37.4527ZM53.206 41.0728L53.2058 41.0728L53.2065 41.0728C52.8255 41.0666 52.3731 41.0592 51.9038 41.0664L52.4344 38.1808L57.0352 38.2046C57.1212 38.2446 57.188 38.2891 57.227 38.3228C57.2287 38.3415 57.2301 38.3694 57.2291 38.4072C57.2266 38.5073 57.2078 38.6784 57.1341 38.9361C56.8226 40.0264 56.4741 40.4561 56.3084 40.6165C56.1629 40.7574 55.9733 40.8735 55.5784 40.9594C55.1117 41.0609 54.5184 41.0881 53.596 41.0784C53.4905 41.0773 53.3772 41.0756 53.2564 41.0736L53.2065 41.0728L53.206 41.0728Z" fill="white"/>
<path fill-rule="evenodd" clip-rule="evenodd" d="M57.2451 34.1649H49.0911L46.381 48.905H50.4709L51.166 45.1133C51.7655 45.0669 52.407 45.0761 53.0837 45.0862L53.1235 45.0868C54.5722 45.1086 56.1802 45.1328 57.5983 44.5088C59.0649 43.8636 60.2751 42.5553 60.994 40.0389C61.3087 38.9376 61.3076 38.0064 61.0936 37.2277C60.8796 36.4491 60.4593 35.8471 59.9727 35.3939C59.4882 34.9427 58.9374 34.638 58.4513 34.4457C57.9724 34.2563 57.5276 34.1649 57.2451 34.1649ZM47.2847 48.1523L49.718 34.9176H57.2451C57.4016 34.9176 57.7491 34.9774 58.1744 35.1457C58.5926 35.3111 59.0578 35.5704 59.4597 35.9447C59.8596 36.3171 60.1961 36.8021 60.3679 37.4272C60.5397 38.0523 60.5534 38.8414 60.2703 39.8321C59.5988 42.1825 58.5141 43.2836 57.2952 43.8199C56.0408 44.3718 54.5891 44.356 53.095 44.3336L53.0814 44.3334C52.3142 44.3219 51.5371 44.3262 50.8472 44.3262H50.5336L49.8436 48.1523H47.2847Z" fill="white"/>
<path fill-rule="evenodd" clip-rule="evenodd" d="M36.9649 29.0215H41.0867L40.0221 34.0943C40.1883 34.0896 40.3681 34.0833 40.5579 34.0766C41.3315 34.0493 42.274 34.0162 43.1677 34.0635C43.8484 34.0995 44.5337 34.1822 45.1453 34.3544C45.7543 34.5259 46.3193 34.7942 46.7285 35.222L46.7418 35.2359L46.7536 35.251C47.5017 36.2128 47.6198 37.2751 47.4173 38.7328C47.2796 39.7244 46.9851 40.9487 46.6109 42.5041L46.6108 42.5044L46.6106 42.5052C46.4441 43.1973 46.2619 43.955 46.0706 44.7868L46.0035 45.0789H41.7517L41.8928 44.5968L41.8929 44.5966L41.8931 44.5957L41.8981 44.5786C41.9017 44.5664 41.907 44.5481 41.9139 44.5242C41.9277 44.4763 41.9479 44.4059 41.9733 44.3159C42.0243 44.1359 42.0963 43.8779 42.1805 43.5664C42.349 42.943 42.5657 42.1074 42.7591 41.2556C42.9532 40.4011 43.1215 39.5414 43.1963 38.866C43.2339 38.5264 43.246 38.2496 43.2308 38.0498C43.2232 37.9496 43.2097 37.8833 43.1967 37.844C43.1952 37.8397 43.1939 37.836 43.1927 37.8329C42.9999 37.6964 42.6751 37.589 42.2426 37.521C41.8034 37.4519 41.3026 37.4305 40.8231 37.4344C40.3453 37.4382 39.8985 37.4669 39.5705 37.4948C39.4697 37.5033 39.3804 37.5118 39.3052 37.5194L37.7303 45.0789H33.6393L33.7311 44.6275C34.2434 42.108 35.0149 38.3194 35.6647 35.1417C35.9895 33.5529 36.284 32.1166 36.5004 31.0681C36.6086 30.5439 36.6973 30.1162 36.7606 29.8147C36.7923 29.664 36.8177 29.5443 36.8361 29.4595C36.8452 29.4173 36.8528 29.3827 36.8587 29.3571L36.8594 29.354C36.863 29.338 36.8708 29.3038 36.8791 29.2788L36.9649 29.0215ZM38.944 36.8024L38.6785 36.8368L37.1183 44.3262H34.5605C35.0701 41.8203 35.7901 38.2853 36.4021 35.2925C36.7269 33.7038 37.0213 32.2681 37.2376 31.2202C37.3457 30.6962 37.4342 30.2696 37.4973 29.9694C37.5125 29.8966 37.5263 29.8314 37.5384 29.7742H40.1597L39.0934 34.8548H39.5569C39.8798 34.8548 40.2489 34.8416 40.6488 34.8272L40.649 34.8272L40.6491 34.8272C41.4007 34.8002 42.2611 34.7692 43.1279 34.8151C43.7802 34.8497 44.4043 34.9277 44.9413 35.0789C45.4726 35.2285 45.8907 35.442 46.1715 35.7287C46.7305 36.4566 46.86 37.2741 46.6718 38.6292C46.5394 39.5828 46.2584 40.7506 45.8904 42.2798C45.7414 42.8993 45.578 43.5782 45.4045 44.3262H42.7523C42.7963 44.169 42.8488 43.9786 42.9071 43.7628C43.0772 43.1337 43.2966 42.2875 43.4931 41.4223C43.6891 40.5597 43.8648 39.6671 43.9444 38.9488C43.984 38.5916 44.0017 38.2612 43.9813 37.9928C43.9712 37.8589 43.9505 37.7258 43.9109 37.6066C43.8727 37.4915 43.8047 37.3529 43.6747 37.2533C43.3319 36.9905 42.8432 36.8535 42.3595 36.7774C41.8639 36.6995 41.3179 36.6777 40.8171 36.6817C40.3145 36.6857 39.8475 36.7158 39.5067 36.7448C39.3361 36.7593 39.1964 36.7736 39.099 36.7843C39.0503 36.7896 39.012 36.7941 38.9858 36.7973C38.9726 36.7988 38.9625 36.8001 38.9554 36.801L38.9442 36.8024L38.944 36.8024Z" fill="white"/>
<path fill-rule="evenodd" clip-rule="evenodd" d="M60.5501 49.4794C65.6547 46.6922 67.8351 43.3754 67.8351 40.5C67.8351 37.6246 65.6547 34.3078 60.5501 31.5206C55.5651 28.7987 48.4558 27.0143 40.4247 27.0143C32.3936 27.0143 25.2843 28.7987 20.2994 31.5206C15.1947 34.3078 13.0143 37.6246 13.0143 40.5C13.0143 43.3754 15.1947 46.6922 20.2994 49.4794C25.2843 52.2013 32.3936 53.9857 40.4247 53.9857C48.4558 53.9857 55.5651 52.2013 60.5501 49.4794ZM62.4738 53.0028C56.7928 56.1047 48.9958 58 40.4247 58C31.8536 58 24.0567 56.1047 18.3756 53.0028C12.7228 49.9163 9 45.5288 9 40.5C9 35.4712 12.7228 31.0837 18.3756 27.9972C24.0567 24.8953 31.8536 23 40.4247 23C48.9958 23 56.7928 24.8953 62.4738 27.9972C68.1266 31.0837 71.8495 35.4712 71.8495 40.5C71.8495 45.5288 68.1266 49.9163 62.4738 53.0028ZM68.5878 40.5C68.5878 43.7774 66.1205 47.2955 60.9108 50.14C55.7953 52.9331 48.5571 54.7384 40.4247 54.7384C32.2923 54.7384 25.0541 52.9331 19.9387 50.14C14.7289 47.2955 12.2616 43.7774 12.2616 40.5C12.2616 37.2226 14.7289 33.7045 19.9387 30.86C25.0541 28.0669 32.2923 26.2616 40.4247 26.2616C48.5571 26.2616 55.7953 28.0669 60.9108 30.86C66.1205 33.7045 68.5878 37.2226 68.5878 40.5ZM71.0968 40.5C71.0968 49.7493 57.3644 57.2473 40.4247 57.2473C23.485 57.2473 9.75269 49.7493 9.75269 40.5C9.75269 31.2507 23.485 23.7527 40.4247 23.7527C57.3644 23.7527 71.0968 31.2507 71.0968 40.5Z" fill="#777BB3"/>
</svg>
