<svg width="80" height="80" viewBox="0 0 80 80" fill="none" xmlns="http://www.w3.org/2000/svg">
<path fill-rule="evenodd" clip-rule="evenodd" d="M40.4992 59.1262C50.7865 59.1262 59.1258 50.7865 59.1258 40.4985C59.1258 30.2128 50.7869 21.8738 40.4992 21.8738C30.2121 21.8738 21.8738 30.2126 21.8738 40.4985C21.8738 50.7866 30.2129 59.1262 40.4992 59.1262ZM62.9996 40.4985C62.9996 52.9257 52.9261 63 40.4992 63C28.073 63 18 52.9256 18 40.4985C18 28.0731 28.0727 18 40.4992 18C52.926 18 62.9996 28.0731 62.9996 40.4985ZM59.9006 40.4985C59.9006 51.2143 51.2144 59.901 40.4992 59.901C29.7849 59.901 21.099 51.2144 21.099 40.4985C21.099 29.7847 29.7842 21.099 40.4992 21.099C51.2147 21.099 59.9006 29.7848 59.9006 40.4985ZM62.2249 40.4985C62.2249 52.4978 52.4982 62.2252 40.4992 62.2252C28.501 62.2252 18.7748 52.4978 18.7748 40.4985C18.7748 28.501 28.5006 18.7748 40.4992 18.7748C52.4982 18.7748 62.2249 28.501 62.2249 40.4985Z" fill="white"/>
<path fill-rule="evenodd" clip-rule="evenodd" d="M49.2224 30.5277C49.0412 30.803 48.9732 31.0385 48.9821 31.3076C49.0066 32.0414 49.5554 32.5248 50.3505 32.4968C51.4135 32.4606 51.7183 31.4079 51.7009 30.8669C51.6656 29.8631 50.8385 29.1511 49.6356 28.924C49.3138 28.8632 48.965 28.8372 48.5974 28.8496C48.5717 28.8505 48.546 28.8515 48.5203 28.8528C48.5172 28.853 48.514 28.8532 48.5108 28.8533C47.8629 28.8873 47.2462 29.048 46.6694 29.307C45.7263 29.7304 44.89 30.4167 44.1984 31.2416C43.1397 32.4936 42.3808 33.9409 41.8079 35.4418C41.713 35.6906 41.6231 35.9408 41.5378 36.1919C41.5278 36.2216 41.5177 36.2513 41.5078 36.281C41.2762 36.0878 41.0561 35.8823 40.8359 35.6737C40.8024 35.6419 40.7688 35.6101 40.7352 35.5782C40.1113 34.9857 39.4734 34.3801 38.5625 33.9696C38.3499 33.8738 38.1223 33.7887 37.8767 33.7168C36.5425 33.3265 35.1417 33.4872 33.8532 34.464C33.2435 34.9277 32.8227 35.6282 32.6228 36.2888C32.105 38.0012 33.167 39.5268 33.6493 40.0734L34.7043 41.223C34.9213 41.4488 35.4456 42.0368 35.1891 42.8796C35.0067 43.4877 34.4681 43.953 33.8014 44.0966C33.4617 44.1698 33.0887 44.1594 32.7125 44.0417C32.667 44.0275 32.6196 44.0114 32.5713 43.9936C32.5714 43.9936 32.5713 43.9936 32.5713 43.9936C32.3173 43.8997 32.0362 43.756 31.8494 43.5701C31.683 43.4046 31.5913 43.2057 31.6599 42.9787C31.6987 42.8504 31.7678 42.7408 31.8348 42.6344C31.8816 42.5603 31.9273 42.4878 31.9611 42.4115C32.0314 42.2587 32.0678 42.1432 32.091 42.0696C32.0924 42.0651 32.0938 42.0607 32.0952 42.0565C32.2987 41.3809 32.0202 40.501 31.3086 40.2771C30.6441 40.0696 29.9647 40.2341 29.7011 41.104C29.4475 41.9425 29.7437 43.3606 31.3591 44.2481C31.6484 44.407 31.9799 44.5489 32.3581 44.6674C32.4059 44.6824 32.4537 44.6967 32.5013 44.7104C32.5011 44.7103 32.5014 44.7104 32.5013 44.7104C32.9724 44.8453 33.4313 44.9145 33.8701 44.9266C36.0907 44.9877 37.8065 43.5871 38.0943 41.8562C38.3149 40.5359 37.7285 39.5539 36.6555 38.2928L35.7805 37.3076C35.251 36.7691 35.0692 35.8509 35.6173 35.1454C36.0801 34.5499 36.7387 34.2964 37.8182 34.5948C37.965 34.6353 38.1043 34.6817 38.237 34.7332C39.0954 35.0666 39.682 35.6158 40.2905 36.1856C40.5275 36.4075 40.7678 36.6326 41.0289 36.8492C41.1065 36.9137 41.186 36.9774 41.2678 37.0401C41.258 37.0729 41.2483 37.1057 41.2386 37.1385C40.7777 38.702 40.4699 40.2674 40.1926 41.6779L40.1822 41.7304L40.0065 42.8146C39.1692 47.2846 38.5295 49.7399 36.8676 51.1493C36.8578 51.1564 36.8478 51.1636 36.8377 51.1709C36.7175 51.2582 36.5792 51.3586 36.4186 51.4525C36.1344 51.6187 35.7803 51.7644 35.333 51.7806C35.3326 51.7806 35.3323 51.7806 35.3319 51.7806C35.332 51.7806 35.3318 51.7806 35.3319 51.7806C35.1388 51.7861 35.0122 51.7198 34.9343 51.6381C34.8597 51.5599 34.8293 51.4678 34.8268 51.4112C34.8197 51.1803 34.9827 51.0561 35.1229 50.9492C35.1463 50.9313 35.1691 50.914 35.1904 50.8967C35.4129 50.7733 35.7486 50.5687 35.7254 49.9137C35.7015 49.14 35.0713 48.4688 34.1611 48.4993C33.4789 48.5227 32.4395 49.1755 32.4787 50.3715C32.5127 51.4193 33.3312 52.2439 34.6195 52.4348C34.85 52.4689 35.0955 52.4827 35.3543 52.474C35.3548 52.4739 35.3554 52.4739 35.3559 52.4739C35.3568 52.4739 35.3576 52.4738 35.3584 52.4738C35.6929 52.462 36.178 52.4037 36.757 52.2153C37.7583 51.8895 39.0404 51.1746 40.3105 49.638C42.6225 46.8831 43.2862 43.7299 43.7761 41.4018L43.791 41.3311L44.3398 38.2485C44.346 38.2493 44.3522 38.25 44.3584 38.2508C44.6567 38.2866 44.9772 38.311 45.3244 38.3195C46.4239 38.3432 47.3156 38.1389 48.0007 37.8154C49.1281 37.283 49.6959 36.4277 49.7096 35.7338C49.7246 35.0589 49.275 34.3939 48.6448 34.4098C48.1946 34.4225 47.6287 34.7281 47.4934 35.3619C47.4407 35.6073 47.574 35.8435 47.7036 36.073C47.9014 36.4234 48.0905 36.7584 47.5965 37.088C47.5948 37.0892 47.5931 37.0903 47.5914 37.0914C47.1268 37.3973 46.3713 37.6314 45.3421 37.607C45.3413 37.607 45.3406 37.607 45.3399 37.607C45.3264 37.6066 45.3129 37.6063 45.2994 37.6059C45.039 37.5979 44.7614 37.5735 44.4668 37.5297L44.7364 36.0122C45.1656 33.7695 45.6729 31.1248 47.0959 30.0264C47.4985 29.7156 47.9744 29.5286 48.5426 29.5095C48.563 29.5086 48.5892 29.5079 48.6198 29.5081C48.62 29.5081 48.6203 29.5081 48.6206 29.5081C48.8024 29.5091 49.137 29.5399 49.315 29.7116C49.3838 29.778 49.4292 29.8655 49.4333 29.9805C49.4368 30.108 49.4114 30.1576 49.301 30.3732C49.2785 30.4171 49.2524 30.4679 49.2224 30.5277ZM50.2667 30.0153C50.2662 30.0778 50.2614 30.1505 50.2466 30.2308C50.2269 30.3376 50.1951 30.4273 50.164 30.5008C50.1357 30.5676 50.1022 30.6344 50.0742 30.6893C50.0632 30.7109 50.0524 30.732 50.0412 30.7539C50.0195 30.7962 49.9963 30.8414 49.9676 30.8986L49.946 30.9416L49.9194 30.9819C49.8191 31.1344 49.8124 31.2041 49.8149 31.2804C49.8203 31.4392 49.8756 31.5199 49.9266 31.5644C49.982 31.6128 50.1004 31.6759 50.321 31.6682L50.3221 31.6681C50.4447 31.664 50.5179 31.6332 50.5661 31.6028C50.6185 31.5697 50.6715 31.5173 50.7208 31.4373C50.8296 31.261 50.8721 31.0287 50.8681 30.8946C50.8564 30.5729 50.6955 30.2866 50.3357 30.0571C50.3135 30.0429 50.2905 30.0289 50.2667 30.0153ZM45.0537 31.5263C44.9806 31.6064 44.9087 31.6886 44.8382 31.7727L44.836 31.7754C43.6716 33.1525 42.8804 34.8058 42.2982 36.5433L42.1815 36.8916L42.0665 37.2765C41.6008 38.8342 41.2923 40.4028 41.0074 41.8518L41.0026 41.876L40.8275 42.9565L40.8257 42.9665C40.4077 45.1978 40.0288 46.987 39.5331 48.4025C39.3294 48.9842 39.1023 49.514 38.8381 49.9941C39.1111 49.7404 39.3886 49.4481 39.6669 49.1114L39.6689 49.109L39.6709 49.1066C41.8492 46.5111 42.4767 43.5301 42.9701 41.1868L42.9728 41.1737L43.498 38.2238L43.4973 38.2237L43.9169 35.8625L43.9269 35.8102C44.1857 34.4577 44.4942 32.8453 45.0537 31.5263ZM48.6863 36.2272C48.8235 36.0194 48.8742 35.8363 48.8766 35.7175L48.8766 35.7155C48.8801 35.5569 48.826 35.4066 48.755 35.3134C48.7219 35.2699 48.6941 35.2505 48.681 35.2434C48.6732 35.2392 48.67 35.2386 48.6677 35.2386C48.61 35.2404 48.5209 35.265 48.4449 35.3207C48.3939 35.3581 48.3525 35.4059 48.3266 35.4727C48.327 35.4737 48.3275 35.4746 48.3279 35.4756C48.3458 35.5149 48.3708 35.5616 48.411 35.6332C48.4162 35.6423 48.4218 35.6522 48.4277 35.6628C48.4618 35.723 48.5072 35.8034 48.5472 35.8825C48.5883 35.964 48.6445 36.0823 48.6863 36.2272ZM33.9934 51.3781C33.9986 51.0023 34.1659 50.7227 34.3349 50.5387C34.4158 50.4507 34.4974 50.3836 34.5525 50.3402C34.6005 50.3023 34.6162 50.2908 34.6272 50.2826C34.6367 50.2757 34.6427 50.2712 34.6627 50.2549L34.7201 50.2082L34.7849 50.1723C34.8465 50.1382 34.8692 50.1217 34.8762 50.116C34.8772 50.1135 34.8786 50.1096 34.8802 50.1039C34.8857 50.0842 34.8959 50.0348 34.8927 49.943L34.8925 49.9391C34.8824 49.6097 34.6241 49.3135 34.1892 49.328C34.0683 49.3323 33.8253 49.4094 33.6175 49.6021C33.4311 49.7751 33.3006 50.0144 33.3114 50.3445C33.3234 50.7145 33.5318 51.1195 33.9934 51.3781ZM34.8372 34.8077C34.1477 35.8618 34.4549 37.1306 35.1686 37.8708L36.0252 38.8352C37.0715 40.0659 37.4276 40.791 37.2723 41.7202L37.2722 41.7208C37.1422 42.5027 36.5816 43.2584 35.7252 43.7016C35.8356 43.5223 35.9243 43.3272 35.9871 43.1184C36.3838 41.812 35.5562 40.9104 35.3133 40.657L34.2704 39.5206C33.8251 39.0136 33.0368 37.7974 33.4207 36.5278M34.8372 34.8077C34.6765 34.8983 34.5169 35.0031 34.3587 35.1231C33.9137 35.4618 33.58 36.0014 33.4207 36.5278M30.853 42.7711C30.8559 42.7607 30.8589 42.7503 30.862 42.7399C30.9281 42.5212 31.0324 42.3487 31.0956 42.2471C31.1175 42.2119 31.1343 42.1851 31.1474 42.1642C31.1825 42.108 31.1909 42.0946 31.1988 42.0768L31.2011 42.0715L31.2035 42.0663C31.2518 41.9613 31.2754 41.8868 31.2966 41.8195C31.2972 41.8177 31.2977 41.8159 31.2983 41.8142C31.3436 41.6599 31.3354 41.4651 31.271 41.3044C31.2091 41.1498 31.125 41.0891 31.058 41.0678C30.8519 41.0037 30.7343 41.0263 30.6873 41.0467C30.6665 41.0557 30.574 41.0958 30.499 41.343M30.853 42.7711C30.4238 42.2066 30.4124 41.6295 30.499 41.343L30.853 42.7711Z" fill="white"/>
</svg>
