<svg width="80" height="80" viewBox="0 0 80 80" fill="none" xmlns="http://www.w3.org/2000/svg">
<path d="M53.7289 60.5891L39.69 64.4811L25.691 60.5949L22.5466 25.3262H56.8766L53.7289 60.5891Z" stroke="white"/>
<path d="M32.582 19.9922H35.207V21.2383H30.8359V15.5H35.207V16.7461H32.582H32.082V17.2461V19.4922V19.9922H32.582ZM41.6523 17.8438V21.3359H37.2813V20.2852H39.9063H40.4063V19.7852V19.3945V18.8945H39.9063H37.2813V15.5H41.6523V16.4531H39.0273H38.5273V16.9531V17.3438V17.8438H39.0273H41.6523ZM45.4727 17.8438H48.0977V21.3359H43.7266V20.2852H46.3516H46.8516V19.7852V19.3945V18.8945H46.3516H43.7266V15.5H48.0977V16.4531H45.4727H44.9727V16.9531V17.3438V17.8438H45.4727Z" stroke="white"/>
<path d="M29.1393 32.7173H39.7117H50.2586L49.5066 41.1478L49.5066 41.1486L49.3984 42.3386L49.3984 42.3394L48.3204 54.4187L39.6914 56.8109L31.0746 54.4188L30.5326 48.345H33.9803L34.2554 51.4263L34.2864 51.7736L34.6231 51.8645L39.5619 53.1981L39.6923 53.2333L39.8226 53.1981L44.7727 51.8617L45.1093 51.7708L45.1404 51.4236L45.6551 45.6722L45.7039 45.1276H45.1571H39.7117H30.2451L29.9372 41.6931H39.7117H45.5417H45.9992L46.0397 41.2373L46.4433 36.6962L46.4916 36.152H45.9452H39.7117H29.4515L29.1393 32.7173Z" stroke="white"/>
</svg>
