<svg width="80" height="80" viewBox="0 0 80 80" fill="none" xmlns="http://www.w3.org/2000/svg">
<path d="M25.6903 60.5958L22.5466 25.3352H56.8686L53.7216 60.59L39.686 64.4811L25.6903 60.5958Z" stroke="#E44D26"/>
<path d="M25.7949 15.5H27.048V17.2261V17.7261H27.548H29.6091H30.1091V17.2261V15.5H31.3623V21.2411H30.1092V19.4838V18.9838H29.6092H27.5481H27.0481V19.4838V21.2411H25.795L25.7949 15.5ZM45.5694 15.5H47.1388V21.2411H45.895V18.3998V16.706L44.9751 18.1283L43.8253 19.9061L42.6746 18.1282L41.7549 16.707V18.3998V21.2411H40.5503V15.5H42.119L43.418 17.629L43.8451 18.3289L44.2718 17.6288L45.5694 15.5ZM36.5785 21.2411H35.3253L35.3252 17.2354L35.3252 16.7354H34.8252H33.3417V15.5H38.5629V16.7354H37.0785H36.5785V17.2354V21.2411ZM51.0139 20.0129H53.6825V21.2411H49.2601V15.5H50.5139V19.5129V20.0129H51.0139Z" stroke="white"/>
<path d="M33.4333 36.1472H32.8867L32.9353 36.6916L33.3404 41.2317L33.3811 41.6873H33.8385H39.7053H49.4484L49.3897 42.3326L49.3897 42.3334L48.3119 54.4098L39.69 56.7994L31.0702 54.4098L30.5284 48.3377H33.9751L34.2501 51.4182L34.2811 51.7656L34.6178 51.8565L39.5555 53.1898L39.6859 53.225L39.8162 53.1898L44.7652 51.8537L45.1018 51.7628L45.1329 51.4155L45.6475 45.6654L45.6962 45.1209H45.1495H39.7053H30.2411L29.1345 32.7135H39.7206H50.2495L49.9421 36.1472H39.7053H33.4333Z" stroke="white"/>
</svg>
