<svg width="80" height="80" viewBox="0 0 80 80" fill="none" xmlns="http://www.w3.org/2000/svg">
<path d="M37.9011 16.07L37.9037 16.0686C38.985 15.4496 40.4033 15.4475 41.4814 16.068L41.4848 16.0699C44.0559 17.5227 46.6269 18.9744 49.1979 20.426C52.8323 22.478 56.4665 24.5299 60.0999 26.5846L60.1007 26.585C61.1149 27.1563 61.7917 28.2898 61.7815 29.4453V29.4497L61.7815 50.5434L61.7815 50.5465C61.789 51.7465 61.0468 52.9105 59.9702 53.4723L59.963 53.4761L59.956 53.48C56.7026 55.3143 53.4493 57.1501 50.1962 58.9859C47.2663 60.6393 44.3365 62.2925 41.407 63.9444L41.4044 63.9459C40.3093 64.5721 38.8684 64.5255 37.8011 63.844L37.7921 63.8382L37.7828 63.8329C36.7742 63.2482 35.763 62.6641 34.7522 62.0803C33.9071 61.5921 33.0622 61.1041 32.2195 60.6161C32.1342 60.5653 32.0463 60.5165 31.9658 60.4717C31.9502 60.4631 31.9349 60.4545 31.9199 60.4462C31.8615 60.4136 31.8069 60.3828 31.7549 60.3522C31.7558 60.3519 31.7566 60.3516 31.7575 60.3514L31.7748 60.346C31.86 60.3197 31.9627 60.2878 32.0649 60.2475C32.8318 60.0013 33.5365 59.6204 34.1911 59.2666C34.2373 59.2417 34.2832 59.2169 34.3289 59.1922L34.3453 59.1834C34.3468 59.1838 34.3483 59.1844 34.3499 59.185C34.3623 59.1897 34.3775 59.1971 34.394 59.2077L34.4041 59.2141L34.4145 59.2201C35.084 59.604 35.7572 59.9962 36.4321 60.3894C37.3406 60.9187 38.2523 61.4499 39.1628 61.9653C39.5058 62.1624 39.8434 62.1121 40.0891 62.0214C40.2588 61.9588 40.4394 61.8523 40.5539 61.7848C40.5832 61.7675 40.6081 61.7528 40.6275 61.742L40.63 61.7406C43.5218 60.1062 46.4179 58.4733 49.3142 56.8402C52.4879 55.0508 55.6618 53.2613 58.8306 51.4694C59.2393 51.2641 59.4507 50.838 59.4276 50.4186C59.4303 45.9959 59.43 41.5726 59.4297 37.1496C59.4295 34.6255 59.4294 32.1014 59.4297 29.5777C59.4635 29.091 59.1832 28.66 58.7699 28.4622C55.3344 26.5274 51.9002 24.5912 48.466 22.655C45.7505 21.124 43.0349 19.5929 40.3186 18.0625C40.1333 17.9411 39.9164 17.8761 39.6945 17.8758C39.4722 17.8754 39.2549 17.9399 39.069 18.0611C36.3406 19.5988 33.6133 21.1375 30.8862 22.6761C27.4641 24.6068 24.0423 26.5373 20.619 28.4654C20.2189 28.6575 19.9172 29.0788 19.9574 29.5808C19.9581 34.212 19.9579 38.8437 19.9576 43.4757C19.9575 45.7892 19.9574 48.1028 19.9574 50.4165C19.9434 50.6299 19.9926 50.843 20.099 51.029C20.2062 51.2163 20.3665 51.3674 20.5593 51.4635C21.6434 52.0782 22.7289 52.6903 23.8137 53.3021C24.3703 53.616 24.9268 53.9298 25.4828 54.2439L25.4827 54.2439L25.4917 54.2488C26.4744 54.7777 27.7717 55.1446 28.9873 54.691C30.0878 54.2945 30.8495 53.185 30.8308 52.0179C30.8349 48.7217 30.8341 45.4294 30.8333 42.1376C30.8325 38.5157 30.8316 34.8944 30.8372 31.2693L30.8372 31.2506L30.8369 31.2465C30.8372 31.2462 30.8376 31.2458 30.838 31.2455C30.8431 31.2408 30.8492 31.2373 30.8543 31.2355C30.8555 31.235 30.8564 31.2348 30.8571 31.2346C30.8574 31.2345 30.8577 31.2345 30.8579 31.2344L30.8821 31.2368L30.9079 31.2366C31.6989 31.2313 32.4844 31.226 33.2678 31.2387L33.2746 31.2388C33.2753 31.2396 33.276 31.2405 33.2768 31.2416C33.283 31.2496 33.2892 31.2612 33.293 31.275C33.2968 31.2885 33.297 31.2994 33.2961 31.306L33.2918 31.3385L33.2918 31.3711C33.2906 33.937 33.2915 36.5024 33.2923 39.0676C33.2938 43.4637 33.2952 47.8591 33.2865 52.2552L33.2865 52.2568C33.2885 54.0074 32.5679 55.8059 31.0785 56.5951C29.1388 57.599 26.6992 57.3998 24.7189 56.4042L24.7176 56.4035C23.6006 55.846 22.532 55.2352 21.4494 54.6164C20.7842 54.2363 20.1138 53.8531 19.4236 53.4773L19.4236 53.4772L19.4144 53.4724C18.3376 52.9151 17.5982 51.7473 17.6056 50.5467V50.5436V29.4497H17.6056L17.6056 29.445C17.5945 28.2653 18.2985 27.1108 19.3444 26.5478L19.3444 26.5479L19.3531 26.543C24.0149 23.9121 28.6761 21.2797 33.3371 18.6475C34.8585 17.7883 36.3798 16.9291 37.9011 16.07Z" stroke="white"/>
<path d="M50.82 31.9106L50.8219 31.9117C52.4801 32.8102 53.448 34.7069 53.5114 36.618C53.5033 36.6219 53.4932 36.6258 53.4813 36.6287C53.4642 36.6329 53.4477 36.6341 53.4341 36.6331L53.4165 36.6318L53.3989 36.6318C53.1462 36.6315 52.8961 36.6324 52.6476 36.6334C52.1154 36.6354 51.5902 36.6374 51.0609 36.6266L51.0462 36.6263L51.0416 36.6265C51.041 36.6257 51.0402 36.6249 51.0395 36.624C51.0301 36.613 51.0172 36.5935 51.005 36.5644C50.9929 36.5354 50.984 36.5026 50.9793 36.4695L50.9764 36.4496L50.972 36.43C50.729 35.3502 50.1236 34.1995 49.0027 33.6251L49.0027 33.6251L48.9985 33.623C47.4827 32.8641 45.7498 32.8819 44.2449 32.8974C44.1896 32.8979 44.1346 32.8985 44.0799 32.899L44.0691 32.8991L44.0582 32.8997C42.9264 32.9598 41.5495 33.0564 40.4436 33.8233C39.4741 34.4883 39.2264 35.7738 39.5439 36.7642L39.5506 36.7852L39.5592 36.8056C39.7453 37.2479 40.0877 37.5183 40.4216 37.6948C40.7156 37.8503 41.0434 37.9526 41.2995 38.0326C41.3254 38.0407 41.3506 38.0486 41.375 38.0562L41.3867 38.0599L41.3986 38.063C42.8513 38.443 44.342 38.6402 45.7961 38.8327C46.0057 38.8604 46.2146 38.888 46.4225 38.9161C48.0868 39.1409 49.7001 39.3943 51.2415 39.9352L51.2438 39.9359C52.4936 40.3678 53.6114 41.1735 53.9941 42.3415C54.5427 44.0628 54.2864 46.0815 53.1098 47.409L53.1075 47.4118C52.1371 48.5228 50.6981 49.154 49.1956 49.5044C47.201 49.9488 45.1169 49.9632 43.054 49.7624C41.1155 49.541 39.1908 49.0383 37.7858 47.7982L37.7827 47.7956C36.6197 46.7857 36.0284 45.1925 36.0792 43.6274C36.0841 43.6241 36.0905 43.6209 36.0976 43.6187C36.1062 43.6161 36.1119 43.6162 36.1136 43.6163L36.137 43.6183L36.1604 43.6181C36.9467 43.6118 37.7309 43.6097 38.5141 43.6192L38.535 43.6194L38.5525 43.6182C38.5535 43.619 38.5548 43.6201 38.5562 43.6216C38.5619 43.6275 38.5691 43.6373 38.5751 43.651C38.581 43.6646 38.5844 43.6791 38.5851 43.6925L38.5864 43.7168L38.5901 43.7408C38.7423 44.7371 39.1318 45.9105 40.136 46.5933L40.136 46.5934L40.1461 46.6C41.7417 47.6294 43.6993 47.6488 45.3767 47.6655C45.5385 47.6671 45.6978 47.6686 45.8538 47.6711L45.8688 47.6713L45.8838 47.6707C45.962 47.6672 46.0414 47.6638 46.1216 47.6605C46.8058 47.6315 47.5603 47.5996 48.2873 47.4686C49.1068 47.3208 49.9326 47.0413 50.6406 46.4679L50.648 46.4618L50.6553 46.4555C51.4815 45.7321 51.6896 44.5693 51.4859 43.6193L51.4829 43.6053L51.4791 43.5915C51.3426 43.0955 51.0175 42.7522 50.6698 42.5141C50.3277 42.2797 49.9365 42.1282 49.6129 42.0184L49.6129 42.0183L49.6031 42.0152C48.0232 41.5154 46.3844 41.3413 44.8042 41.1734C44.7225 41.1647 44.641 41.1561 44.5597 41.1474C42.8858 40.9686 41.2782 40.7779 39.7541 40.2273L39.7508 40.2262C38.5322 39.7955 37.4432 39.0106 37.0201 37.8806C36.3842 36.1545 36.6926 34.0527 37.9838 32.7785L37.9838 32.7785L37.9873 32.7749C39.2812 31.4723 41.1822 30.9391 43.086 30.745C45.7678 30.5727 48.5279 30.6558 50.82 31.9106Z" stroke="white"/>
</svg>
