<svg width="80" height="80" viewBox="0 0 80 80" fill="none" xmlns="http://www.w3.org/2000/svg">
<path fill-rule="evenodd" clip-rule="evenodd" d="M51.8966 29.1974C51.3162 33.2454 49.5157 38.3706 46.5944 43.5773C43.673 48.784 40.2371 52.9916 37.0848 55.5965C35.5054 56.9016 34.0474 57.7627 32.8048 58.1731C31.5631 58.5832 30.6634 58.5076 30.0329 58.1539C29.4024 57.8001 28.869 57.0716 28.5719 55.7981C28.2746 54.5237 28.2497 52.8306 28.5405 50.8025C29.1209 46.7546 30.9214 41.6294 33.8427 36.4227C36.7641 31.216 40.2 27.0083 43.3523 24.4034C44.9317 23.0983 46.3897 22.2373 47.6322 21.8269C48.874 21.4167 49.7737 21.4923 50.4042 21.8461C51.0347 22.1998 51.5681 22.9284 51.8652 24.2019C52.1625 25.4762 52.1874 27.1693 51.8966 29.1974ZM54.2034 23.6564C53.8147 21.9901 52.9983 20.5484 51.5791 19.7521C50.1598 18.9558 48.5039 19.0104 46.8792 19.547C45.2554 20.0833 43.5362 21.1367 41.8228 22.5526C38.3895 25.3897 34.7772 29.8502 31.7488 35.2478C28.7203 40.6454 26.7959 46.053 26.1637 50.4617C25.8483 52.662 25.8451 54.6782 26.2336 56.3436C26.6224 58.0098 27.4388 59.4515 28.858 60.2478C30.2773 61.0441 31.9332 60.9896 33.5578 60.453C35.1817 59.9167 36.9008 58.8633 38.6143 57.4474C42.0476 54.6103 45.6599 50.1498 48.6883 44.7521C51.7168 39.3545 53.6412 33.947 54.2733 29.5382C54.5888 27.338 54.5919 25.3218 54.2034 23.6564Z" stroke="white"/>
<path fill-rule="evenodd" clip-rule="evenodd" d="M28.5389 29.1974C29.1193 33.2454 30.9198 38.3706 33.8412 43.5773C36.7625 48.784 40.1984 52.9916 43.3507 55.5965C44.9301 56.9016 46.3881 57.7627 47.6307 58.1731C48.8724 58.5832 49.7722 58.5076 50.4027 58.1539C51.0332 57.8001 51.5666 57.0716 51.8637 55.7981C52.161 54.5237 52.1859 52.8306 51.8951 50.8025C51.3147 46.7546 49.5142 41.6294 46.5928 36.4227C43.6715 31.216 40.2356 27.0083 37.0833 24.4034C35.5039 23.0983 34.0459 22.2373 32.8033 21.8269C31.5616 21.4167 30.6619 21.4923 30.0313 21.8461C29.4008 22.1998 28.8674 22.9284 28.5704 24.2019C28.2731 25.4762 28.2481 27.1693 28.5389 29.1974ZM26.2321 23.6564C26.6208 21.9901 27.4372 20.5484 28.8565 19.7521C30.2757 18.9558 31.9316 19.0104 33.5563 19.547C35.1801 20.0833 36.8993 21.1367 38.6127 22.5526C42.046 25.3897 45.6583 29.8502 48.6868 35.2478C51.7152 40.6454 53.6396 46.053 54.2718 50.4617C54.5873 52.662 54.5904 54.6782 54.2019 56.3436C53.8132 58.0098 52.9968 59.4515 51.5775 60.2478C50.1583 61.0441 48.5024 60.9896 46.8777 60.453C45.2539 59.9167 43.5347 58.8633 41.8213 57.4474C38.388 54.6103 34.7757 50.1498 31.7472 44.7521C28.7188 39.3545 26.7944 33.947 26.1622 29.5382C25.8467 27.338 25.8436 25.3218 26.2321 23.6564Z" stroke="white"/>
<path fill-rule="evenodd" clip-rule="evenodd" d="M25.0819 44.8986C28.8961 46.3731 34.2469 47.3107 40.2172 47.3107C46.1874 47.3107 51.5382 46.3731 55.3524 44.8986C57.2634 44.1598 58.7278 43.3096 59.6937 42.4268C60.659 41.5445 61.0333 40.7229 61.0333 39.9999C61.0333 39.2769 60.659 38.4553 59.6937 37.5731C58.7278 36.6902 57.2634 35.84 55.3524 35.1012C51.5382 33.6267 46.1874 32.6891 40.2172 32.6891C34.2469 32.6891 28.8961 33.6267 25.0819 35.1012C23.1709 35.84 21.7065 36.6902 20.7406 37.5731C19.7754 38.4553 19.401 39.2769 19.401 39.9999C19.401 40.7229 19.7754 41.5445 20.7406 42.4268C21.7065 43.3096 23.1709 44.1598 25.0819 44.8986ZM19.1208 44.199C17.8578 43.0447 17 41.6273 17 39.9999C17 38.3725 17.8578 36.9551 19.1208 35.8008C20.383 34.6471 22.143 33.6632 24.2162 32.8617C28.3704 31.2558 34.028 30.2881 40.2172 30.2881C46.4063 30.2881 52.0639 31.2558 56.2182 32.8617C58.2914 33.6632 60.0513 34.647 61.3136 35.8008C62.5765 36.9551 63.4343 38.3725 63.4343 39.9999C63.4343 41.6273 62.5765 43.0447 61.3136 44.199C60.0513 45.3528 58.2914 46.3366 56.2182 47.1381C52.0639 48.7441 46.4063 49.7118 40.2172 49.7118C34.028 49.7118 28.3704 48.7441 24.2162 47.1381C22.143 46.3366 20.383 45.3528 19.1208 44.199Z" stroke="white"/>
<path d="M43.3088 40.1391C43.3088 42.0608 41.751 43.6187 39.8292 43.6187C37.9075 43.6187 36.3496 42.0608 36.3496 40.1391C36.3496 38.2174 37.9075 36.6595 39.8292 36.6595C41.751 36.6595 43.3088 38.2174 43.3088 40.1391Z" stroke="white"/>
</svg>
