<svg width="80" height="80" viewBox="0 0 80 80" fill="none" xmlns="http://www.w3.org/2000/svg">
<path fill-rule="evenodd" clip-rule="evenodd" d="M39.1059 18.6092L21.1768 29.0456L27.7185 32.904L39.1059 26.0569V18.6092ZM38.6213 19.4519L22.1353 29.0484L27.7161 32.34L38.6213 25.7829V19.4519ZM20.3516 30.4811V51.5599L26.7494 47.6833V34.3577L20.3516 30.4811ZM20.8361 31.3413L26.2648 34.6306V47.4103L20.8361 50.6997V31.3413ZM21.6614 52.5423L39.1059 62.3996V54.7096L27.9608 48.6524L21.6614 52.5423ZM22.6137 52.5238L38.6213 61.5692V54.9977L27.9763 49.2124L22.6137 52.5238ZM40.8019 62.3996L58.4886 52.5423L51.947 48.6524L40.8019 54.7096V62.3996ZM41.2864 61.5748L57.5177 52.5287L51.9362 49.2098L41.2864 54.9977V61.5748ZM59.7986 51.3176V30.4811L53.4007 34.3577V47.6833L59.7986 51.3176ZM59.314 50.485V31.3413L53.8852 34.6306V47.4013L59.314 50.485ZM58.9732 29.0456L40.8019 18.6092V26.0569L52.6738 32.904L58.9732 29.0456ZM58.0236 29.059L41.2864 19.4463V25.777L52.6664 32.3403L58.0236 29.059Z" fill="#1C78C0"/>
<path fill-rule="evenodd" clip-rule="evenodd" d="M39.455 18V26.2552L27.719 33.3118L20.4827 29.0437L39.455 18ZM39.1046 18.6093V26.057L27.7173 32.904L21.1756 29.0457L39.1046 18.6093ZM38.6201 19.452L22.1341 29.0485L27.7149 32.3401L38.6201 25.783V19.452ZM38.2698 25.5848V20.0613L22.827 29.0505L27.7132 31.9323L38.2698 25.5848ZM20 29.8593L27.0985 34.1604V47.8807L20 52.1818V29.8593ZM26.7481 34.3577V47.6834L20.3503 51.5599V30.4812L26.7481 34.3577ZM26.2636 47.4104V34.6307L20.8349 31.3414V50.6998L26.2636 47.4104ZM21.1852 50.0779L25.9133 47.2131V34.8281L21.1852 31.9633V50.0779ZM20.9717 52.5557L27.9484 48.2477L39.455 54.5013V63L20.9717 52.5557ZM21.6602 52.5424L27.9596 48.6525L39.1046 54.7096V62.3997L21.6602 52.5424ZM22.6124 52.5239L38.6201 61.5693V54.9978L27.9751 49.2125L22.6124 52.5239ZM27.9863 49.6173L23.3009 52.5105L38.2698 60.9689V55.2061L27.9863 49.6173ZM40.4503 62.996V54.5013L51.9535 48.2496L59.1894 52.5522L40.4503 62.996ZM40.8006 62.3997V54.7096L51.9457 48.6525L58.4874 52.5424L40.8006 62.3997ZM41.2852 61.5749L57.5164 52.5288L51.935 49.2099L41.2852 54.9978V61.5749ZM41.6355 55.2061V60.9786L56.8145 52.519L51.9272 49.6128L41.6355 55.2061ZM60.1476 51.9196L53.0491 47.8873V34.1604L60.1476 29.8593V51.9196ZM53.3994 34.3577V47.6834L59.7973 51.3177V30.4812L53.3994 34.3577ZM53.884 47.4014V34.6307L59.3128 31.3414V50.4851L53.884 47.4014ZM58.9624 49.8832L54.2343 47.1975V34.8281L58.9624 31.9633V49.8832ZM59.6585 29.036L52.678 33.3116L40.4503 26.2594V18.0041L59.6585 29.036ZM58.972 29.0457L52.6726 32.904L40.8006 26.057V18.6093L58.972 29.0457ZM41.2852 25.7771L52.6651 32.3404L58.0223 29.0591L41.2852 19.4464V25.7771ZM41.6355 20.0516V25.5748L52.6598 31.9328L57.3358 29.0688L41.6355 20.0516Z" fill="#1C78C0"/>
<path fill-rule="evenodd" clip-rule="evenodd" d="M28.9299 46.9111L38.6213 52.1973V41.6604L28.9299 35.9337V46.9111ZM28.4453 47.1987L39.1058 53.0136V41.3839L28.4453 35.0845V47.1987ZM29.4145 33.6308L40.075 39.9302L50.9778 33.6308L40.075 27.816L29.4145 33.6308ZM30.3955 33.6477L40.0777 39.369L49.9798 33.6478L40.0775 28.3665L30.3955 33.6477ZM41.0442 53.0136L51.7046 46.9564V35.0845L41.0442 41.3839V53.0136ZM51.22 35.9337L41.5287 41.6604V52.1809L51.22 46.6744V35.9337Z" fill="white"/>
<path fill-rule="evenodd" clip-rule="evenodd" d="M28.4441 47.1988V35.0846L39.1046 41.384V53.0137L28.4441 47.1988ZM28.9286 46.9112L38.62 52.1974V41.6605L28.9286 35.9338V46.9112ZM29.279 36.5477V46.7032L38.2697 51.6073V41.8604L29.279 36.5477ZM28.0938 47.4068V34.4707L39.4549 41.1841V53.6038L28.0938 47.4068ZM28.704 33.6187L40.0719 27.4181L51.698 33.6187L40.0717 40.3361L28.704 33.6187ZM40.0737 39.9303L29.4132 33.6309L40.0737 27.8161L50.9765 33.6309L40.0737 39.9303ZM40.0763 28.3666L30.3942 33.6478L40.0765 39.3691L49.9786 33.6479L40.0763 28.3666ZM49.2571 33.6601L40.0782 28.7647L31.1035 33.66L40.0785 38.9633L49.2571 33.6601ZM40.6926 53.6156V41.1841L52.0537 34.4707V47.1604L40.6926 53.6156ZM41.0429 41.384L51.7034 35.0846V46.9566L41.0429 53.0137V41.384ZM51.2188 35.9338L41.5275 41.6605V52.181L51.2188 46.6746V35.9338ZM50.8685 46.4707V36.5477L41.8778 41.8604V51.579L50.8685 46.4707Z" fill="white"/>
</svg>
