<svg width="80" height="80" viewBox="0 0 80 80" fill="none" xmlns="http://www.w3.org/2000/svg">
<path fill-rule="evenodd" clip-rule="evenodd" d="M39.455 26.2552V18L20.4827 29.0437L27.719 33.3118L39.455 26.2552ZM39.1046 18.6094V18.6093L21.1756 29.0457L27.7173 32.904L27.7175 32.9039L21.1759 29.0456L39.1046 18.6094ZM27.7151 32.3399L38.6201 25.783V19.4521L38.6204 19.4519V25.7829L27.7152 32.34L27.7151 32.3399ZM38.2698 20.0613V25.5848L27.7132 31.9323L22.827 29.0505L38.2698 20.0613ZM27.0985 34.1604L20 29.8593V52.1818L27.0985 47.8807V34.1604ZM20.3507 30.4814V51.5597L20.3503 51.5599V30.4812L20.3507 30.4814ZM26.2636 34.6307V47.4104L20.8352 50.6995V50.6997L26.2639 47.4103V34.6306L20.8352 31.3413V31.3416L26.2636 34.6307ZM25.9133 47.2131L21.1852 50.0779V31.9633L25.9133 34.8281V47.2131ZM27.9484 48.2477L20.9717 52.5557L39.455 63V54.5013L27.9484 48.2477ZM27.9596 48.6525L21.6602 52.5424L39.1046 62.3997V62.3994L21.6605 52.5423L27.9597 48.6526L27.9596 48.6525ZM38.6201 61.569V54.9978L27.9752 49.2125L27.9754 49.2124L38.6204 54.9977V61.5692L38.6201 61.569ZM23.3009 52.5105L27.9863 49.6173L38.2698 55.2061V60.9689L23.3009 52.5105ZM40.4503 54.5013V62.996L59.1894 52.5522L51.9535 48.2496L40.4503 54.5013ZM40.8006 54.7096V62.3997L40.801 62.3995V54.7095L51.9458 48.6526L51.9457 48.6525L40.8006 54.7096ZM41.2856 61.5747L57.5164 52.5288L51.935 49.2099L51.9353 49.2098L57.5168 52.5287L41.2856 61.5748V61.5747ZM41.6355 60.9786V55.2061L51.9272 49.6128L56.8145 52.519L41.6355 60.9786ZM53.0491 47.8873L60.1476 51.9196V29.8593L53.0491 34.1604V47.8873ZM53.3994 47.6834V34.3577L59.7973 30.4812V30.4813L53.3998 34.3576V47.6833L59.7973 51.3174V51.3177L53.3994 47.6834ZM59.3128 31.3415V50.4848L59.3131 50.485V31.3413L59.3128 31.3415ZM54.2343 47.1975L58.9624 49.8832V31.9633L54.2343 34.8281V47.1975ZM52.678 33.3116L59.6585 29.036L40.4503 18.0041V26.2594L52.678 33.3116ZM40.801 18.6095V26.0569L52.6728 32.9039L52.6726 32.904L40.8006 26.057V18.6093L40.801 18.6095ZM41.2856 19.4466V19.4463L58.0227 29.059L52.6655 32.3403L52.6654 32.3402L58.0223 29.0591L41.2856 19.4466ZM41.6355 25.5748V20.0516L57.3358 29.0688L52.6598 31.9328L41.6355 25.5748ZM28.4441 35.0846V47.1988L39.1046 53.0137V53.0134L28.4445 47.1987V35.0848L28.4441 35.0846ZM38.6201 52.1971V41.6605L28.929 35.934V35.9337L38.6204 41.6604V52.1973L38.6201 52.1971ZM29.279 46.7032V36.5477L38.2698 41.8604V51.6072L29.279 46.7032ZM28.0938 34.4707V47.4068L39.455 53.6038V41.1841L28.0938 34.4707ZM40.0719 27.4181L28.704 33.6187L40.0718 40.336L51.6981 33.6187L40.0719 27.4181ZM29.4133 33.6309L40.0738 39.9303L40.074 39.9301L29.4136 33.6308L40.0739 27.8161L40.0738 27.8161L29.4133 33.6309ZM40.0768 39.3689L49.9787 33.6479L40.0765 28.3667L40.0767 28.3665L49.979 33.6478L40.0769 39.369L40.0768 39.3689ZM40.0782 28.7647L49.2572 33.6601L40.0785 38.9633L31.1036 33.6599L40.0782 28.7647ZM40.6927 41.1841V53.6156L52.0538 47.1604V34.4707L40.6927 41.1841ZM51.7034 35.0846L41.043 41.384V53.0137L41.0433 53.0135V41.3839L51.7034 35.0847V35.0846ZM41.5279 52.1808L51.2189 46.6745V35.9339L51.2192 35.9337V46.6744L41.5279 52.1809V52.1808ZM50.8685 36.5477V46.4707L41.8779 51.579V41.8604L50.8685 36.5477Z" fill="white"/>
</svg>
