<svg width="68" height="68" viewBox="0 0 68 68" fill="none" xmlns="http://www.w3.org/2000/svg">
<rect width="68" height="68" rx="34" fill="#9FC63B"/>
<path d="M17.5 41.5L26.875 32.125" stroke="#122D50" stroke-linecap="round"/>
<path d="M28.75 32.125C29.7855 32.125 30.625 31.2855 30.625 30.25C30.625 29.2145 29.7855 28.375 28.75 28.375C27.7145 28.375 26.875 29.2145 26.875 30.25C26.875 31.2855 27.7145 32.125 28.75 32.125Z" stroke="#122D50" stroke-linecap="square"/>
<path d="M38.125 41.5C39.1605 41.5 40 40.6605 40 39.625C40 38.5895 39.1605 37.75 38.125 37.75C37.0895 37.75 36.25 38.5895 36.25 39.625C36.25 40.6605 37.0895 41.5 38.125 41.5Z" stroke="#122D50" stroke-linecap="square"/>
<path d="M30.625 32.125L36.25 37.75M40 37.75L51.25 26.5" stroke="#122D50" stroke-linecap="round"/>
</svg>
