<svg width="40" height="40" viewBox="0 0 40 40" fill="none" xmlns="http://www.w3.org/2000/svg">
<rect width="40" height="40" rx="20" fill="#9FC63B"/>
<path d="M27.1586 11.4754L22.6831 14.1607C22.4556 14.2972 22.1833 14.3377 21.926 14.2734L14.0432 12.3027C13.7262 12.2234 13.3908 12.3163 13.1597 12.5474V12.5474C12.7705 12.9366 12.8024 13.5768 13.2284 13.9254L17.7549 17.6289C18.1627 17.9625 18.2416 18.5553 17.9354 18.9841L16.0302 21.6513C15.8425 21.9141 15.5394 22.0701 15.2165 22.0701H12.8127C12.5694 22.0701 12.3361 22.1667 12.164 22.3387V22.3387C11.742 22.7607 11.829 23.467 12.3407 23.774L13.9763 24.7554C14.0465 24.7974 14.1111 24.8479 14.169 24.9058L15.0943 25.8311C15.1521 25.8889 15.2026 25.9536 15.2447 26.0237L16.2261 27.6594C16.5331 28.1711 17.2393 28.258 17.6613 27.836V27.836C17.8334 27.664 17.93 27.4307 17.93 27.1874V24.7836C17.93 24.4606 18.086 24.1576 18.3488 23.9699L21.016 22.0647C21.4448 21.7585 22.0376 21.8374 22.3712 22.2452L26.0747 26.7717C26.4233 27.1977 27.0635 27.2296 27.4527 26.8404V26.8404C27.6838 26.6093 27.7767 26.2739 27.6974 25.9568L25.7267 18.074C25.6624 17.8168 25.7029 17.5444 25.8394 17.317L28.5247 12.8415C28.7597 12.4497 28.698 11.9482 28.3749 11.6252C28.0518 11.3021 27.5503 11.2403 27.1586 11.4754Z" stroke="#122D50" stroke-linecap="round" stroke-linejoin="round"/>
</svg>
