<svg width="100" height="100" viewBox="0 0 100 100" fill="none" xmlns="http://www.w3.org/2000/svg">
<path d="M14.5066 45.8966C14.4894 46.3971 14.5579 46.8976 14.6949 47.3815C14.849 47.7986 15.0373 48.199 15.2427 48.5827C15.3112 48.6995 15.3626 48.833 15.3626 48.9665C15.3455 49.1667 15.2256 49.3669 15.0373 49.467L13.9587 50.1677C13.8217 50.2512 13.6677 50.3179 13.5136 50.3179C13.3253 50.3012 13.1369 50.2178 13 50.0843C12.7774 49.8507 12.5548 49.5838 12.3836 49.3002C12.2124 49.0165 12.0412 48.6995 11.8529 48.3158C10.5175 49.8507 8.83972 50.6182 6.81952 50.6182C5.38141 50.6182 4.23434 50.2178 3.39545 49.4169C2.55655 48.6161 2.12854 47.5483 2.12854 46.2136C2.12854 44.7954 2.64215 43.6442 3.68649 42.7766C4.73083 41.9091 6.11758 41.4753 7.88098 41.4753C8.48019 41.4753 9.09652 41.5253 9.69574 41.6087C10.3292 41.6922 10.9798 41.8256 11.6646 41.9758V40.7578C11.6646 39.4898 11.3907 38.6056 10.8599 38.0884C10.3292 37.5712 9.38757 37.3209 8.0693 37.3209C7.45297 37.3209 6.81952 37.3876 6.22031 37.5378C5.58685 37.688 4.97052 37.8715 4.37131 38.1051C4.18298 38.1885 3.97754 38.2552 3.77209 38.322C3.68649 38.3553 3.58377 38.372 3.49817 38.372C3.25848 38.372 3.13864 38.2052 3.13864 37.8548V37.0373C3.12152 36.8371 3.17288 36.6368 3.25848 36.4533C3.39545 36.3032 3.54953 36.1864 3.73785 36.103C4.42267 35.7693 5.14172 35.519 5.89502 35.3522C6.76816 35.1353 7.67554 35.0352 8.56579 35.0352C10.6031 35.0352 12.0926 35.4856 13.0513 36.3866C14.0101 37.2875 14.4723 38.6556 14.4723 40.4909V45.8966H14.5066ZM7.55569 48.4326C8.15491 48.4326 8.75412 48.3325 9.31909 48.1323C9.95254 47.9154 10.5004 47.5483 10.9455 47.0645C11.2194 46.7642 11.4249 46.3971 11.5276 45.9967C11.6475 45.5295 11.6988 45.029 11.6988 44.5452V43.8444C11.1852 43.7276 10.6545 43.6275 10.1237 43.5608C9.59302 43.4941 9.04516 43.4607 8.51443 43.4607C7.36737 43.4607 6.52847 43.6776 5.9635 44.1281C5.39853 44.5785 5.1246 45.2125 5.1246 46.0467C5.1246 46.8309 5.33005 47.4148 5.75806 47.8153C6.18606 48.2157 6.76816 48.4326 7.55569 48.4326ZM21.3033 50.2345C21.0808 50.2512 20.8411 50.2011 20.6528 50.0676C20.4816 49.8841 20.3446 49.6672 20.2932 49.4169L16.27 36.5201C16.1844 36.3032 16.133 36.0863 16.1159 35.8527C16.0988 35.6525 16.2357 35.469 16.4412 35.4356H18.2217C18.547 35.4356 18.7695 35.4856 18.8894 35.6024C19.0092 35.7192 19.1291 35.9361 19.2318 36.2531L22.0909 47.2981L24.7617 36.2531C24.8473 35.9194 24.95 35.7025 25.0869 35.6024C25.2924 35.4856 25.5321 35.4189 25.7718 35.4356H27.1414C27.4667 35.4356 27.6892 35.4856 27.8262 35.6024C27.9974 35.786 28.1172 36.0028 28.1515 36.2531L30.8565 47.4315L33.8183 36.2531C33.8697 36.0028 33.9895 35.786 34.1607 35.6024C34.3662 35.4856 34.5887 35.4189 34.8284 35.4356H36.4206C36.6261 35.4022 36.8144 35.5524 36.8486 35.7526V35.8527C36.8486 35.9361 36.8315 36.0362 36.8144 36.1196C36.7801 36.2698 36.7459 36.4033 36.6945 36.5367L32.5685 49.4336C32.4658 49.7673 32.346 49.9842 32.209 50.0843C32.0207 50.2011 31.781 50.2678 31.5584 50.2512H30.0861C29.7608 50.2512 29.5382 50.2011 29.4013 50.0843C29.2301 49.9008 29.1102 49.6672 29.076 49.4169L26.4223 38.6556L23.7858 49.4003C23.7515 49.6505 23.6317 49.8841 23.4605 50.0676C23.2551 50.2011 23.0154 50.2512 22.7757 50.2345H21.3033ZM43.303 50.6849C42.4127 50.6849 41.5225 50.5848 40.6665 50.3846C39.8104 50.1844 39.1428 49.9675 38.6976 49.7173C38.4751 49.6172 38.2867 49.4503 38.1669 49.2501C38.0984 49.0999 38.0642 48.9498 38.0642 48.7829V47.9321C38.0642 47.5817 38.2011 47.4148 38.4579 47.4148C38.5607 47.4148 38.6634 47.4315 38.7661 47.4649C38.8688 47.4983 39.0229 47.565 39.1941 47.6317C39.7933 47.8987 40.4268 48.0822 41.0774 48.2157C41.745 48.3492 42.4299 48.4159 43.1147 48.4159C44.1933 48.4159 45.0322 48.2324 45.6142 47.8653C46.1792 47.5316 46.5216 46.931 46.5045 46.2803C46.5216 45.8465 46.3504 45.4294 46.0423 45.1124C45.7341 44.7954 45.152 44.5118 44.3131 44.2448L41.8307 43.4941C40.5809 43.1103 39.6564 42.5431 39.0914 41.7923C38.5435 41.0915 38.2354 40.2573 38.2354 39.3731C38.2183 38.7224 38.3723 38.0884 38.6976 37.5211C39.0058 36.9872 39.4167 36.5201 39.9303 36.153C40.461 35.7526 41.0602 35.469 41.7108 35.2854C42.4127 35.0852 43.1318 34.9851 43.868 35.0018C44.2446 35.0018 44.6384 35.0185 45.015 35.0685C45.4088 35.1186 45.7683 35.1853 46.1279 35.2521C46.4874 35.3188 46.7956 35.4189 47.1037 35.519C47.3605 35.6024 47.6002 35.7025 47.8228 35.8193C48.0282 35.9194 48.1994 36.0529 48.3364 36.2364C48.4562 36.4033 48.5076 36.5868 48.4905 36.787V37.5712C48.4905 37.9215 48.3535 38.1051 48.0967 38.1051C47.8741 38.0717 47.6516 38.005 47.4461 37.9048C46.4189 37.4544 45.289 37.2375 44.159 37.2542C43.1832 37.2542 42.4127 37.4043 41.882 37.7213C41.3513 38.0383 41.0774 38.5222 41.0774 39.2062C41.0602 39.6567 41.2486 40.0905 41.591 40.3908C41.9334 40.7078 42.5668 41.0248 43.4742 41.3084L45.9053 42.0592C47.138 42.4429 48.0282 42.9768 48.5589 43.6609C49.0897 44.3283 49.3636 45.1625 49.3465 45.9967C49.3636 46.6641 49.2095 47.3314 48.9014 47.9321C48.5932 48.4993 48.1652 48.9998 47.6516 49.4003C47.0866 49.8341 46.436 50.151 45.7512 50.3346C44.9637 50.5682 44.1419 50.6849 43.303 50.6849Z" fill="white"/>
<mask id="path-2-inside-1_345_385" fill="white">
<path d="M46.5386 58.7934C40.906 62.8477 32.7225 65 25.686 65C15.8247 65 6.93923 61.4462 0.228046 55.54C-0.302685 55.0729 0.176685 54.4389 0.810138 54.8059C8.06917 58.9102 17.0231 61.3962 26.2852 61.3962C32.9622 61.3628 39.5706 60.0448 45.7168 57.5254C46.6584 57.1083 47.4631 58.1261 46.5386 58.7934Z"/>
</mask>
<path d="M46.5386 58.7934L47.1228 59.6051L47.1239 59.6043L46.5386 58.7934ZM0.228046 55.54L-0.432673 56.2907L-0.432605 56.2907L0.228046 55.54ZM0.810138 54.8059L0.30875 55.6712L0.317955 55.6764L0.810138 54.8059ZM26.2852 61.3962V62.3962L26.2902 62.3962L26.2852 61.3962ZM45.7168 57.5254L46.0961 58.4507L46.109 58.4454L46.1218 58.4398L45.7168 57.5254ZM45.9544 57.9818C40.5262 61.889 32.5593 64 25.686 64V66C32.8856 66 41.2858 63.8064 47.1228 59.6051L45.9544 57.9818ZM25.686 64C16.0698 64 7.41877 60.5361 0.888697 54.7893L-0.432605 56.2907C6.45968 62.3563 15.5795 66 25.686 66V64ZM0.888765 54.7894C0.896388 54.7961 0.968084 54.8655 0.992549 55.0131C1.01738 55.1628 0.98064 55.3339 0.872608 55.4731C0.765688 55.6109 0.620636 55.678 0.496714 55.6929C0.37304 55.7078 0.305942 55.6695 0.308778 55.6712L1.3115 53.9407C0.678547 53.5739 -0.192089 53.5828 -0.707562 54.2471C-1.2393 54.9325 -0.995333 55.7954 -0.432673 56.2907L0.888765 54.7894ZM0.317955 55.6764C7.72658 59.8653 16.85 62.3962 26.2852 62.3962V60.3962C17.1962 60.3962 8.41176 57.9552 1.30232 53.9354L0.317955 55.6764ZM26.2902 62.3962C33.0951 62.3622 39.8307 61.0189 46.0961 58.4507L45.3376 56.6002C39.3106 59.0706 32.8292 60.3635 26.2802 60.3962L26.2902 62.3962ZM46.1218 58.4398C46.2037 58.4035 46.1127 58.4731 46.0127 58.3325C45.9625 58.2619 45.9313 58.1534 45.9556 58.042C45.9792 57.9336 46.0309 57.9266 45.9533 57.9826L47.1239 59.6043C47.5085 59.3266 47.8063 58.9421 47.9097 58.4682C48.0137 57.9913 47.8958 57.5293 47.6423 57.173C47.1357 56.461 46.1716 56.2303 45.3118 56.6111L46.1218 58.4398Z" fill="white" mask="url(#path-2-inside-1_345_385)"/>
<path d="M45.994 55.1629C44.8862 55.1889 43.6885 55.3099 42.7891 55.4122C44.2399 54.5555 46.0831 54.2268 47.7012 54.2044C48.5712 54.1923 49.3548 54.2692 49.9485 54.3895C50.246 54.4498 50.4854 54.5189 50.6595 54.588C50.8173 54.6506 50.8807 54.6974 50.8952 54.7082C50.8999 54.7199 50.9282 54.7808 50.9499 54.93C50.9752 55.1034 50.9839 55.3401 50.9679 55.6323C50.9361 56.215 50.8092 56.9692 50.57 57.7849C50.1227 59.3106 49.305 60.9773 48.0678 62.1257C48.4012 61.309 48.8313 60.2123 49.1445 59.1754C49.3364 58.5401 49.4911 57.9058 49.5483 57.361C49.5769 57.0885 49.5832 56.821 49.5501 56.5779C49.5176 56.3394 49.442 56.0848 49.2735 55.8767C49.1088 55.6712 48.8797 55.5388 48.655 55.4491C48.4253 55.3574 48.1616 55.295 47.8857 55.2519C47.3342 55.1657 46.6703 55.1469 45.994 55.1629ZM47.843 62.6821C47.843 62.6821 47.843 62.6818 47.8431 62.6813L47.843 62.6821Z" stroke="white"/>
<path d="M78.8618 53.7544C79.033 54.0881 79.2898 54.3717 79.598 54.5886C79.9233 54.8055 80.2828 54.9723 80.6766 55.0558C81.0875 55.1559 81.5155 55.2059 81.9435 55.2059C82.2688 55.2059 82.5769 55.1726 82.9022 55.1392C83.2275 55.0891 83.5528 55.0057 83.861 54.8556C84.152 54.7221 84.4088 54.5219 84.5971 54.2883C84.8026 54.0214 84.9053 53.7043 84.8882 53.3707C84.9053 53.0036 84.7512 52.6532 84.4944 52.403C84.2034 52.136 83.8438 51.9358 83.4672 51.7857C83.0049 51.6021 82.5256 51.4687 82.0291 51.3519C81.4983 51.2351 80.9505 51.0849 80.4026 50.9348C79.8377 50.8013 79.2898 50.6345 78.742 50.4342C78.2284 50.2507 77.7319 49.9838 77.3039 49.6501C76.8759 49.3331 76.5334 48.9327 76.2766 48.4655C76.0027 47.9316 75.8658 47.3477 75.8829 46.747C75.8658 46.063 76.037 45.3789 76.3965 44.7783C76.7218 44.2277 77.1669 43.7439 77.6976 43.3768C78.2455 42.9931 78.8618 42.7261 79.5124 42.5426C80.1801 42.3591 80.8649 42.2757 81.5497 42.2757C82.3201 42.2757 83.0734 42.3591 83.8267 42.5259C84.5287 42.6761 85.1792 42.9597 85.7613 43.3601C86.3263 43.7439 86.7885 44.2444 87.1138 44.8284C87.4562 45.4957 87.6274 46.2465 87.6103 46.9973H84.3917C84.3746 46.6136 84.2718 46.2465 84.1006 45.9128C83.9466 45.6292 83.724 45.3956 83.4501 45.2288C83.159 45.0619 82.8509 44.9451 82.5256 44.8784C82.1489 44.8117 81.7723 44.7783 81.3956 44.7783C81.1217 44.7783 80.8478 44.8117 80.591 44.8617C80.3342 44.9118 80.0774 45.0119 79.8548 45.1454C79.6322 45.2788 79.461 45.4624 79.3241 45.6626C79.17 45.8961 79.1015 46.1631 79.1186 46.4467C79.1015 46.697 79.17 46.9306 79.2898 47.1475C79.461 47.381 79.6836 47.5479 79.9575 47.648C80.4026 47.8315 80.8649 47.9817 81.3271 48.0985C81.9092 48.2486 82.6797 48.4488 83.6213 48.6824C83.8952 48.7325 84.289 48.8326 84.8026 48.9827C85.3333 49.1329 85.8298 49.3665 86.292 49.6668C86.8057 50.0005 87.2508 50.4176 87.5761 50.9181C87.9356 51.452 88.1239 52.1194 88.1239 52.9536C88.1239 53.6042 87.987 54.2382 87.713 54.8389C87.4391 55.4228 87.0282 55.94 86.5146 56.3405C85.9325 56.7909 85.2648 57.1246 84.5458 57.3248C83.6555 57.5751 82.7481 57.6919 81.8236 57.6752C81.0019 57.6752 80.1972 57.5751 79.3925 57.3749C78.6392 57.1914 77.9373 56.8743 77.321 56.4239C76.7218 55.9901 76.2253 55.4395 75.8829 54.7888C75.5062 54.0547 75.335 53.2539 75.3693 52.4364H78.5879C78.5708 52.9202 78.6735 53.354 78.8618 53.7544ZM94.4756 48.7658C94.8351 48.7491 95.1775 48.6657 95.5028 48.5322C95.811 48.4155 96.0849 48.2152 96.2903 47.965C96.5129 47.6814 96.6156 47.331 96.5985 46.9806C96.5985 46.3633 96.3931 45.8795 95.965 45.5625C95.5542 45.2288 95.0405 45.0619 94.5098 45.0619C93.7394 45.0619 93.1744 45.3122 92.7807 45.796C92.3698 46.3299 92.1814 46.9806 92.2157 47.648H89.3566C89.3737 46.9472 89.5107 46.2632 89.7675 45.6125C90.0072 45.0286 90.3496 44.478 90.8118 44.0275C91.2741 43.577 91.8048 43.2267 92.404 43.0098C93.0717 42.7595 93.7736 42.6427 94.4756 42.6427C95.0748 42.6427 95.674 42.7261 96.2561 42.893C96.8382 43.0598 97.3689 43.3268 97.8483 43.6605C98.3105 43.9941 98.7043 44.4279 98.9954 44.9118C99.3035 45.429 99.4576 46.0296 99.4405 46.6302C99.4576 47.2809 99.2693 47.9316 98.9269 48.4822C98.5673 49.0328 98.0195 49.4165 97.3689 49.5834V49.6334C98.1222 49.7836 98.807 50.184 99.2864 50.7846C99.7658 51.4019 100.005 52.1527 99.9883 52.9035C100.005 53.6042 99.8514 54.305 99.5432 54.9223C99.2522 55.5062 98.8413 56.0068 98.3277 56.4072C97.7969 56.8076 97.2148 57.1246 96.5643 57.3081C95.8966 57.5084 95.1946 57.6251 94.4927 57.6251C93.7223 57.6418 92.9519 57.5084 92.2157 57.2748C91.5651 57.0579 90.9659 56.7075 90.4694 56.257C89.9729 55.7899 89.5963 55.2393 89.3566 54.6053C89.0827 53.8879 88.9628 53.1371 88.9799 52.3696H91.839C91.8562 52.7367 91.9075 53.1204 92.0274 53.4708C92.1301 53.8045 92.3013 54.1048 92.5239 54.3884C92.7464 54.6387 93.0032 54.8556 93.3114 54.989C93.6709 55.1559 94.0476 55.2226 94.4413 55.2226C95.0748 55.2393 95.6911 55.0224 96.1534 54.622C96.6156 54.2216 96.8553 53.6543 96.8553 52.9536C96.8553 52.403 96.7526 51.9859 96.53 51.7022C96.3246 51.4186 96.0335 51.2017 95.6911 51.0682C95.3316 50.9348 94.955 50.868 94.5783 50.8514C94.1674 50.8347 93.7908 50.818 93.4312 50.818V48.7658C93.7736 48.7992 94.1332 48.7992 94.4756 48.7658ZM64.2753 35.3184H65.4737V64.6826H64.2753V35.3184Z" fill="white"/>
</svg>
