<svg width="36" height="254" viewBox="0 0 36 254" fill="none" xmlns="http://www.w3.org/2000/svg">
<path d="M35.4553 254H0.544703V240.358C0.544703 234.426 2.06327 229.829 5.10041 226.567C8.10454 223.304 12.3961 221.673 17.9752 221.673C23.5543 221.673 27.8624 223.304 30.8996 226.567C33.9367 229.829 35.4553 234.426 35.4553 240.358V254ZM29.1664 246.338V240.802C29.1664 233.388 25.436 229.681 17.9752 229.681C10.5475 229.681 6.83356 233.388 6.83356 240.802V246.338H29.1664Z" fill="#173864"/>
<path d="M36 201.288C36 206.231 34.729 210.004 32.1871 212.607C29.6451 215.178 25.8652 216.463 20.8473 216.463H0.544703V208.801H20.8968C23.7359 208.801 25.8817 208.159 27.3342 206.873C28.7538 205.588 29.4635 203.726 29.4635 201.288C29.4635 196.312 26.608 193.824 20.8968 193.824H0.544703V186.261H20.8473C25.8652 186.261 29.6451 187.53 32.1871 190.068C34.729 192.605 36 196.345 36 201.288Z" fill="#173864"/>
<path d="M35.4553 179.976H0.544703V164.06C0.544703 160.171 1.48556 157.172 3.36726 155.063C5.24897 152.954 7.87345 151.9 11.2407 151.9C13.8487 151.9 16.0275 152.576 17.7772 153.927C19.4938 155.245 20.6657 157.14 21.293 159.611C21.8212 157.864 23.0922 156.431 25.1059 155.311L35.4553 149.676V158.128L24.3136 164.158C23.4223 164.653 22.8116 165.262 22.4814 165.987C22.1183 166.712 21.9367 167.569 21.9367 168.558V172.314H35.4553V179.976ZM16.3906 172.314V165.444C16.3906 161.325 14.74 159.265 11.4388 159.265C8.17056 159.265 6.53645 161.325 6.53645 165.444V172.314H16.3906Z" fill="#173864"/>
<path d="M35.4553 150.733L0.544703 134.718V128.539L35.4553 112.524V120.235L27.879 123.497V139.759L35.4553 142.972V150.733ZM8.71527 131.702L21.8872 137.189V126.018L8.71527 131.604V131.702Z" fill="#173864"/>
<path d="M35.4553 105.612H6.88308V117.129H0.544703V86.4336H6.88308V97.9507H35.4553V105.612Z" fill="#173864"/>
<path d="M35.4553 83.1794H0.544703V75.5179H35.4553V83.1794Z" fill="#173864"/>
<path d="M36 52.8843C36 56.3114 35.2572 59.3266 33.7717 61.9299C32.2531 64.5002 30.1568 66.5103 27.4828 67.9602C24.7758 69.3772 21.6066 70.0857 17.9752 70.0857C14.3439 70.0857 11.1912 69.3772 8.51719 67.9602C5.81018 66.5103 3.71389 64.5002 2.22834 61.9299C0.742779 59.3595 0 56.3443 0 52.8843C0 49.4242 0.742779 46.4091 2.22834 43.8387C3.71389 41.2355 5.81018 39.2253 8.51719 37.8084C11.1912 36.3584 14.3274 35.6335 17.9257 35.6335C21.5571 35.6335 24.7263 36.3584 27.4333 37.8084C30.1403 39.2253 32.2531 41.2355 33.7717 43.8387C35.2572 46.4091 36 49.4242 36 52.8843ZM29.4635 52.8843C29.4635 49.9844 28.4567 47.7272 26.4429 46.1125C24.3961 44.4648 21.5736 43.641 17.9752 43.641C14.3439 43.641 11.5378 44.4484 9.55708 46.0631C7.54333 47.6777 6.53645 49.9515 6.53645 52.8843C6.53645 55.7512 7.54333 58.0085 9.55708 59.6561C11.5378 61.2708 14.3439 62.0781 17.9752 62.0781C21.5736 62.0781 24.3961 61.2708 26.4429 59.6561C28.4567 58.0085 29.4635 55.7512 29.4635 52.8843Z" fill="#173864"/>
<path d="M35.4553 30.2013H0.544703V24.5169L22.7785 7.11781H0.544703V0H35.4553V5.63494L13.1719 23.0835H35.4553V30.2013Z" fill="#173864"/>
</svg>
