<svg width="100" height="100" viewBox="0 0 100 100" fill="none" xmlns="http://www.w3.org/2000/svg">
<path d="M0.650781 58.3933V46.8653H14.5461V46.1909H0.650781V35.6741H15.4246V35H0V59.0674H15.5547V58.3933H0.650977H0.650781ZM28.0834 41.7415L22.3236 49.5955L16.6938 41.7417H15.8477L21.933 50.1013L15.2617 59.0672H16.0428L22.3232 50.6064L28.6363 59.0672H29.4498L22.7463 50.1009L28.8641 41.7413H28.0832L28.0834 41.7415ZM31.4025 65V54.2137H31.4676C31.8582 55.7867 32.6283 57.0507 33.7781 58.0058C34.9279 58.9608 36.3922 59.4384 38.1711 59.4384C39.3209 59.4384 40.3406 59.1968 41.2301 58.7137C42.1195 58.2306 42.8625 57.5733 43.4592 56.7418C44.0557 55.9103 44.5113 54.944 44.826 53.8428C45.1404 52.7418 45.2979 51.5844 45.2979 50.3711C45.2979 49.0676 45.135 47.8653 44.8096 46.7643C44.4842 45.6631 44.0123 44.708 43.3941 43.8991C42.7758 43.0901 42.0273 42.4607 41.1486 42.0116C40.2701 41.562 39.2775 41.3373 38.1711 41.3373C37.325 41.3373 36.5387 41.4665 35.8119 41.7249C35.0852 41.9834 34.4398 42.3484 33.8758 42.8204C33.3084 43.296 32.8146 43.8587 32.4113 44.4889C31.9992 45.1294 31.6846 45.8316 31.4676 46.5958H31.4025V41.7415H30.7518V65H31.4025ZM38.1711 58.7977C36.132 58.7977 34.4939 58.073 33.2574 56.6236C32.0209 55.1743 31.4025 53.0898 31.4025 50.3707C31.4025 49.2471 31.5545 48.1797 31.8582 47.1685C32.1619 46.1574 32.6012 45.2696 33.176 44.5057C33.751 43.7415 34.4615 43.1348 35.3074 42.6855C36.1535 42.2359 37.1082 42.0112 38.1711 42.0112C39.2559 42.0112 40.2051 42.2359 41.0186 42.6855C41.832 43.1348 42.5047 43.7472 43.0361 44.5225C43.5676 45.2977 43.9689 46.1855 44.2402 47.1853C44.5113 48.1854 44.6469 49.2471 44.6469 50.3707C44.6469 51.3821 44.5223 52.3878 44.2727 53.3876C44.0232 54.3877 43.6381 55.2865 43.1174 56.0845C42.5969 56.882 41.9299 57.5336 41.1162 58.0394C40.3025 58.545 39.3209 58.7977 38.1711 58.7977ZM48.8773 59.0674V49.2584C48.8773 48.3146 49.0074 47.3931 49.268 46.4944C49.5281 45.5955 49.9295 44.8033 50.4719 44.118C51.0143 43.4326 51.7029 42.8932 52.5383 42.4999C53.3734 42.1067 54.366 41.9438 55.5158 42.0112V41.3371C54.5178 41.3148 53.6447 41.4269 52.8963 41.6741C52.1477 41.9213 51.5023 42.2584 50.96 42.6855C50.4176 43.1124 49.9838 43.6123 49.6584 44.1854C49.3333 44.7577 49.0919 45.3767 48.9424 46.0224H48.8773V41.7415H48.2266V59.0676H48.8773V59.0674ZM56.3293 50.5393H70.3221C70.3656 49.3482 70.2518 48.2023 69.9805 47.1012C69.7094 46 69.2754 45.0224 68.6789 44.1686C68.0822 43.3147 67.3121 42.6292 66.3684 42.1123C65.4246 41.5954 64.302 41.3371 63.0004 41.3371C62.0674 41.3371 61.1562 41.5394 60.2668 41.944C59.3773 42.3484 58.5963 42.9382 57.9238 43.7134C57.2514 44.4887 56.709 45.4381 56.2969 46.562C55.8848 47.6854 55.6785 48.9663 55.6785 50.4045C55.6785 51.6854 55.8195 52.8821 56.1016 53.9944C56.3836 55.1067 56.8174 56.0731 57.4031 56.8933C57.9891 57.7135 58.743 58.3483 59.6648 58.7977C60.5867 59.2472 61.6986 59.4607 63.0004 59.4382C64.9094 59.4382 66.5148 58.8818 67.8164 57.7697C69.1182 56.6572 69.8883 55.0899 70.127 53.0674H69.4762C69.1941 54.9776 68.4727 56.4102 67.3121 57.3651C66.1514 58.3202 64.6926 58.7977 62.9352 58.7977C61.742 58.7977 60.7332 58.5842 59.9088 58.1574C59.0846 57.7305 58.4119 57.146 57.8912 56.4045C57.3707 55.6628 56.9855 54.7921 56.7361 53.7921C56.4865 52.7922 56.351 51.7078 56.3293 50.5393ZM69.6713 49.8652H56.3295C56.3943 48.6517 56.6113 47.5618 56.9801 46.5956C57.349 45.6291 57.8316 44.8033 58.4283 44.118C59.0248 43.4326 59.7191 42.9102 60.5109 42.5505C61.3027 42.191 62.1543 42.0112 63.0654 42.0112C64.1502 42.0112 65.1045 42.2191 65.9291 42.6349C66.7533 43.0506 67.4422 43.6181 67.9955 44.3372C68.5486 45.0562 68.9662 45.8933 69.2482 46.8483C69.5303 47.8034 69.6713 48.8091 69.6713 49.8652ZM83.827 46.8653H84.4777C84.4777 44.9326 83.9354 43.5281 82.8508 42.6517C81.7658 41.7753 80.2906 41.3371 78.425 41.3371C77.3836 41.3371 76.5051 41.472 75.7891 41.7417C75.0732 42.0112 74.4875 42.3595 74.0318 42.7864C73.5764 43.2133 73.251 43.6853 73.0557 44.2022C72.8604 44.7191 72.7627 45.2136 72.7627 45.6854C72.7627 46.6292 72.9254 47.382 73.251 47.9438C73.5764 48.5056 74.0861 48.9438 74.7803 49.2584C75.2576 49.483 75.7998 49.6853 76.4074 49.8654C77.0148 50.045 77.7199 50.236 78.5227 50.4381C79.2385 50.6182 79.9436 50.7978 80.6379 50.9775C81.332 51.1573 81.9449 51.3989 82.4764 51.7022C83.008 52.0056 83.4418 52.3933 83.7781 52.8653C84.1143 53.3371 84.2824 53.9551 84.2824 54.7191C84.2824 55.4607 84.1145 56.0899 83.7781 56.6066C83.4447 57.1208 83.0058 57.5525 82.4928 57.8709C81.9721 58.1966 81.3916 58.4325 80.7518 58.5786C80.1117 58.7247 79.4881 58.7977 78.8807 58.7977C76.9064 58.7977 75.3932 58.3427 74.341 57.4327C73.2889 56.5225 72.7629 55.0899 72.7629 53.1347H72.1119C72.1119 55.3147 72.6814 56.9101 73.8203 57.9215C74.9594 58.9326 76.6461 59.4382 78.8807 59.4382C79.5965 59.4382 80.3178 59.3538 81.0447 59.1853C81.7713 59.0168 82.4223 58.7416 82.9971 58.3595C83.567 57.9827 84.0457 57.4754 84.3963 56.8765C84.7543 56.2696 84.9334 55.5281 84.9334 54.6517C84.9334 53.8202 84.776 53.1461 84.4615 52.6292C84.1469 52.1125 83.7348 51.6854 83.2248 51.3483C82.715 51.0113 82.1402 50.7472 81.5002 50.5563C80.8566 50.3641 80.2111 50.1787 79.5639 49.9999C78.7674 49.7834 77.9701 49.57 77.1721 49.3596C76.4889 49.1797 75.8543 48.9663 75.2686 48.7191C74.7045 48.4718 74.2543 48.118 73.918 47.6573C73.5816 47.1966 73.4137 46.5393 73.4137 45.6854C73.4137 45.5282 73.457 45.2472 73.5438 44.8427C73.6305 44.4381 73.8367 44.028 74.1621 43.6123C74.4875 43.1967 74.9863 42.8259 75.659 42.4999C76.3314 42.1742 77.2535 42.0112 78.425 42.0112C79.2277 42.0112 79.9598 42.1012 80.6215 42.2808C81.2832 42.4607 81.8527 42.7472 82.3299 43.1405C82.8072 43.5338 83.176 44.0337 83.4363 44.6404C83.6967 45.2474 83.827 45.9888 83.827 46.8653ZM98.8936 46.8653H99.5443C99.5443 44.9326 99.0022 43.5281 97.9174 42.6517C96.8326 41.7753 95.3574 41.3371 93.4916 41.3371C92.4504 41.3371 91.5717 41.472 90.8559 41.7417C90.1398 42.0112 89.5541 42.3595 89.0986 42.7864C88.643 43.2133 88.3176 43.6853 88.1223 44.2022C87.927 44.7191 87.8295 45.2136 87.8295 45.6854C87.8295 46.6292 87.9922 47.382 88.3178 47.9438C88.643 48.5056 89.1529 48.9438 89.8471 49.2584C90.3244 49.483 90.8666 49.6853 91.474 49.8654C92.0814 50.045 92.7865 50.236 93.5893 50.4381C94.3053 50.6182 95.0104 50.7978 95.7045 50.9775C96.3988 51.1573 97.0115 51.3989 97.5432 51.7022C98.0746 52.0056 98.5086 52.3933 98.8447 52.8653C99.1811 53.3371 99.3492 53.9551 99.3492 54.7191C99.3492 55.4607 99.1811 56.0899 98.8447 56.6066C98.5113 57.1208 98.0725 57.5525 97.5596 57.8709C97.0387 58.1966 96.4584 58.4325 95.8184 58.5786C95.1785 58.7247 94.5547 58.7977 93.9473 58.7977C91.973 58.7977 90.46 58.3427 89.4078 57.4327C88.3555 56.5225 87.8295 55.0899 87.8295 53.1347H87.1787C87.1787 55.3147 87.748 56.9101 88.8871 57.9215C90.026 58.9326 91.7127 59.4382 93.9473 59.4382C94.6633 59.4382 95.3846 59.3538 96.1113 59.1853C96.8379 59.0168 97.4889 58.7416 98.0639 58.3595C98.6338 57.9827 99.1125 57.4754 99.4631 56.8765C99.8211 56.2696 100 55.5281 100 54.6517C100 53.8202 99.8428 53.1461 99.5281 52.6292C99.2137 52.1125 98.8016 51.6854 98.2916 51.3483C97.7818 51.0113 97.2068 50.7472 96.567 50.5563C95.9233 50.3641 95.2779 50.1787 94.6307 49.9999C93.8342 49.7834 93.0369 49.57 92.2389 49.3596C91.5555 49.1797 90.9209 48.9663 90.3352 48.7191C89.7711 48.4718 89.3209 48.118 88.9848 47.6573C88.6484 47.1966 88.4803 46.5393 88.4803 45.6854C88.4803 45.5282 88.5236 45.2472 88.6105 44.8427C88.6973 44.4381 88.9035 44.028 89.2287 43.6123C89.5541 43.1967 90.0531 42.8259 90.7256 42.4999C91.3982 42.1742 92.3201 42.0112 93.4918 42.0112C94.2945 42.0112 95.0266 42.1012 95.6883 42.2808C96.35 42.4607 96.9193 42.7472 97.3967 43.1405C97.874 43.5338 98.2428 44.0337 98.5031 44.6404C98.7635 45.2474 98.8938 45.9888 98.8938 46.8653H98.8936Z" fill="white"/>
</svg>
