<svg width="36" height="312" viewBox="0 0 36 312" fill="none" xmlns="http://www.w3.org/2000/svg">
<path d="M36 293.672C36 297.602 35.2572 300.937 33.7717 303.678C32.2861 306.386 30.2063 308.45 27.5323 309.87C24.8583 311.29 21.7221 312 18.1238 312C14.4264 312 11.2242 311.273 8.51719 309.82C5.81018 308.334 3.71389 306.204 2.22834 303.431C0.742779 300.657 0 297.321 0 293.425C0 290.981 0.346629 288.669 1.03989 286.49C1.73315 284.277 2.6575 282.477 3.81293 281.09L9.80468 283.567C8.68225 285.086 7.88996 286.638 7.42778 288.223C6.9326 289.808 6.68501 291.526 6.68501 293.375C6.68501 296.908 7.67538 299.567 9.65612 301.35C11.6039 303.1 14.4264 303.975 18.1238 303.975C21.8542 303.975 24.6768 303.084 26.5915 301.301C28.5062 299.484 29.4635 296.809 29.4635 293.276C29.4635 291.394 29.1664 289.412 28.5722 287.332H21.7387V294.861H16.1926V280.991H33.326C34.1843 282.709 34.8446 284.69 35.3067 286.935C35.7689 289.181 36 291.427 36 293.672Z" fill="#173864"/>
<path d="M35.4553 274.691H0.544703V250.766H6.53645V267.36H14.707V251.856H20.7483V267.36H29.4635V250.766H35.4553V274.691Z" fill="#173864"/>
<path d="M36 228.997C36 232.431 35.2572 235.453 33.7717 238.062C32.2531 240.638 30.1568 242.652 27.4828 244.105C24.7758 245.525 21.6066 246.235 17.9752 246.235C14.3439 246.235 11.1912 245.525 8.51719 244.105C5.81018 242.652 3.71389 240.638 2.22834 238.062C0.742779 235.486 0 232.464 0 228.997C0 225.53 0.742779 222.508 2.22834 219.932C3.71389 217.323 5.81018 215.309 8.51719 213.889C11.1912 212.436 14.3274 211.709 17.9257 211.709C21.5571 211.709 24.7263 212.436 27.4333 213.889C30.1403 215.309 32.2531 217.323 33.7717 219.932C35.2572 222.508 36 225.53 36 228.997ZM29.4635 228.997C29.4635 226.091 28.4567 223.829 26.4429 222.211C24.3961 220.56 21.5736 219.734 17.9752 219.734C14.3439 219.734 11.5378 220.543 9.55708 222.161C7.54333 223.779 6.53645 226.058 6.53645 228.997C6.53645 231.87 7.54333 234.132 9.55708 235.783C11.5378 237.401 14.3439 238.21 17.9752 238.21C21.5736 238.21 24.3961 237.401 26.4429 235.783C28.4567 234.132 29.4635 231.87 29.4635 228.997Z" fill="#173864"/>
<path d="M36 188.978C36 192.908 35.2572 196.243 33.7717 198.984C32.2861 201.692 30.2063 203.756 27.5323 205.176C24.8583 206.596 21.7221 207.306 18.1238 207.306C14.4264 207.306 11.2242 206.579 8.51719 205.126C5.81018 203.64 3.71389 201.51 2.22834 198.736C0.742779 195.962 0 192.627 0 188.73C0 186.287 0.346629 183.975 1.03989 181.796C1.73315 179.583 2.6575 177.783 3.81293 176.396L9.80468 178.873C8.68225 180.392 7.88996 181.944 7.42778 183.529C6.9326 185.114 6.68501 186.832 6.68501 188.681C6.68501 192.214 7.67538 194.873 9.65612 196.656C11.6039 198.406 14.4264 199.281 18.1238 199.281C21.8542 199.281 24.6768 198.39 26.5915 196.606C28.5062 194.79 29.4635 192.115 29.4635 188.582C29.4635 186.699 29.1664 184.718 28.5722 182.638H21.7387V190.167H16.1926V176.297H33.326C34.1843 178.014 34.8446 179.996 35.3067 182.241C35.7689 184.487 36 186.732 36 188.978Z" fill="#173864"/>
<path d="M35.4553 169.997H0.544703V154.047C0.544703 150.15 1.48556 147.145 3.36726 145.032C5.24897 142.918 7.87345 141.861 11.2407 141.861C13.8487 141.861 16.0275 142.538 17.7772 143.892C19.4938 145.213 20.6657 147.112 21.293 149.589C21.8212 147.839 23.0922 146.402 25.1059 145.279L35.4553 139.632V148.103L24.3136 154.146C23.4223 154.641 22.8116 155.252 22.4814 155.979C22.1183 156.705 21.9367 157.564 21.9367 158.555V162.319H35.4553V169.997ZM16.3906 162.319V155.434C16.3906 151.306 14.74 149.242 11.4388 149.242C8.17056 149.242 6.53645 151.306 6.53645 155.434V162.319H16.3906Z" fill="#173864"/>
<path d="M35.4553 140.691L0.544703 124.642V118.45L35.4553 102.401V110.129L27.879 113.398V129.695L35.4553 132.915V140.691ZM8.71527 121.621L21.8872 127.119V115.924L8.71527 121.522V121.621Z" fill="#173864"/>
<path d="M35.4553 99.8784H0.544703V83.9283C0.544703 80.0316 1.53507 77.0265 3.51582 74.913C5.46355 72.7995 8.18707 71.7428 11.6864 71.7428C15.1857 71.7428 17.9257 72.7995 19.9065 74.913C21.8872 77.0265 22.8776 80.0316 22.8776 83.9283V92.2006H35.4553V99.8784ZM16.9354 92.2006V85.2162C16.9354 81.1543 15.1857 79.1234 11.6864 79.1234C8.25309 79.1234 6.53645 81.1543 6.53645 85.2162V92.2006H16.9354Z" fill="#173864"/>
<path d="M35.4553 67.4797H0.544703V59.8018H14.5585V43.5545H0.544703V35.8766H35.4553V43.5545H20.9464V59.8018H35.4553V67.4797Z" fill="#173864"/>
<path d="M35.4553 21.0522H19.7084L0.544703 34.5256V25.6094L12.8253 17.0894L0.544703 8.56949V0L19.7579 13.3744H35.4553V21.0522Z" fill="#173864"/>
</svg>
