<svg width="101" height="100" viewBox="0 0 101 100" fill="none" xmlns="http://www.w3.org/2000/svg">
<path d="M58.2511 5.56991C55.0688 4.56594 51.659 4.0166 48.1357 4.0166C37.8497 4.0166 28.6435 8.6576 22.4871 15.9695L38.3043 29.2674L58.2511 5.56991Z" fill="white"/>
<path d="M22.4871 15.9697C17.416 21.9928 14.6382 29.6152 14.6448 37.4888C14.6448 43.7778 15.895 48.8924 17.9598 53.4576L38.3044 29.2676L22.4871 15.9697Z" fill="white"/>
<mask id="path-3-inside-1_345_357" fill="white">
<path d="M48.1356 24.7022C50.5775 24.7044 52.9678 25.4044 55.0252 26.7196C57.0826 28.0348 58.7213 29.9106 59.7483 32.1259C60.7754 34.3412 61.148 36.8039 60.8224 39.224C60.4967 41.644 59.4863 43.9206 57.9101 45.7856L77.838 22.0881C73.7476 14.2074 66.6958 8.27292 58.2322 5.58887L38.3232 29.2864C39.5228 27.8498 41.0236 26.6945 42.7193 25.9023C44.4149 25.1101 46.264 24.7004 48.1356 24.7022Z"/>
</mask>
<path d="M57.9101 45.7856L57.1448 45.142L58.6739 46.4311L57.9101 45.7856ZM77.838 22.0881L78.6034 22.7317L79.0334 22.2204L78.7256 21.6274L77.838 22.0881ZM58.2322 5.58887L58.5345 4.63565L57.8968 4.43344L57.4665 4.94562L58.2322 5.58887ZM38.3232 29.2864L37.5557 28.6454L39.0889 29.9296L38.3232 29.2864ZM48.1347 25.7022C50.386 25.7043 52.5898 26.3496 54.4866 27.5622L55.5638 25.8771C53.3459 24.4592 50.769 23.7046 48.1366 23.7022L48.1347 25.7022ZM54.4866 27.5622C56.3834 28.7747 57.8942 30.5041 58.8411 32.5465L60.6556 31.7053C59.5483 29.3171 57.7817 27.2949 55.5638 25.8771L54.4866 27.5622ZM58.8411 32.5465C59.788 34.589 60.1315 36.8594 59.8313 39.0906L61.8134 39.3573C62.1645 36.7484 61.7628 34.0935 60.6556 31.7053L58.8411 32.5465ZM59.8313 39.0906C59.531 41.3217 58.5995 43.4206 57.1464 45.1401L58.6739 46.4311C60.3731 44.4205 61.4623 41.9662 61.8134 39.3573L59.8313 39.0906ZM58.6755 46.4292L78.6034 22.7317L77.0727 21.4445L57.1448 45.142L58.6755 46.4292ZM78.7256 21.6274C74.5131 13.5114 67.2508 7.39983 58.5345 4.63565L57.9299 6.54208C66.1409 9.14602 72.9822 14.9033 76.9505 22.5488L78.7256 21.6274ZM57.4665 4.94562L37.5576 28.6431L39.0889 29.9296L58.9978 6.23212L57.4665 4.94562ZM39.0908 29.9273C40.1965 28.6032 41.5797 27.5384 43.1425 26.8083L42.296 24.9963C40.4675 25.8505 38.8492 27.0963 37.5557 28.6454L39.0908 29.9273ZM43.1425 26.8083C44.7054 26.0781 46.4097 25.7005 48.1347 25.7022L48.1366 23.7022C46.1184 23.7003 44.1245 24.142 42.296 24.9963L43.1425 26.8083Z" fill="white" mask="url(#path-3-inside-1_345_357)"/>
<path d="M54.2944 49.3056C54.1097 49.402 53.9224 49.4941 53.7329 49.5819C51.9787 50.3944 50.0684 50.8144 48.1352 50.8127M54.2944 49.3056L48.1357 50.3127M54.2944 49.3056L33.1894 74.386M48.1352 50.8127L48.1357 50.3127M48.1352 50.8127C48.1354 50.8127 48.1355 50.8127 48.1357 50.8127V50.3127M48.1352 50.8127C40.7938 50.8124 34.8307 44.8494 34.8303 37.508C34.8266 36.1291 35.0389 34.7694 35.4504 33.4752M48.1357 50.3127C41.07 50.3127 35.3303 44.573 35.3303 37.5073C35.3253 35.7069 35.7032 33.9404 36.4234 32.3193L35.4504 33.4752M35.4504 33.4752C35.6045 32.9905 35.7866 32.5149 35.9957 32.051L17.9597 53.4761M35.4504 33.4752L18.546 53.5561M18.546 53.5561C18.5021 53.461 18.4585 53.3657 18.4153 53.2702L17.9597 53.4761M18.546 53.5561L18.3422 53.7981L17.9597 53.4761M18.546 53.5561C21.1615 59.221 25.0155 64.0602 29.2905 69.428C30.5601 71.0222 31.8669 72.663 33.1894 74.386M17.9597 53.4761C20.6047 59.3266 24.5695 64.3045 28.9271 69.7755C30.2118 71.3884 31.5306 73.0441 32.8598 74.7777L33.1894 74.386M33.1894 74.386C33.2931 74.521 33.3968 74.6566 33.5007 74.7926" stroke="white"/>
<path d="M81.1077 37.4882C81.1077 47.5121 77.9035 54.4752 73.293 61.1234C71.3691 63.8975 69.2056 66.6096 66.9217 69.4727C66.4593 70.0523 65.992 70.6381 65.5208 71.2319C62.7267 74.7523 59.8052 78.5389 56.9972 82.9269C53.7729 87.9166 52.4813 91.9778 51.5687 94.8472C51.5105 95.0301 51.4539 95.2081 51.3984 95.3812C50.9293 96.8448 50.5631 97.8787 50.0731 98.5573C49.8371 98.884 49.5826 99.1121 49.2867 99.2621C48.99 99.4125 48.6215 99.4996 48.1357 99.4996C47.6497 99.4996 47.281 99.4127 46.9843 99.2626C46.6883 99.1131 46.4339 98.8856 46.198 98.5598C45.7082 97.8831 45.342 96.8517 44.8729 95.3905C44.8171 95.2166 44.7601 95.0377 44.7016 94.8539C43.7891 91.9893 42.4973 87.9337 39.2746 82.9463C37.4877 80.1384 35.6498 77.5944 33.83 75.1998L77.7339 22.951C79.8921 27.3382 81.1077 32.2692 81.1077 37.4882Z" stroke="white"/>
</svg>
