<svg width="68" height="68" viewBox="0 0 68 68" fill="none" xmlns="http://www.w3.org/2000/svg">
<rect width="68" height="68" rx="34" fill="#9FC63B"/>
<path d="M34 22V28M22 28L25.75 31.75M42.25 31.75L46 28M20.5 41.5H25M34 41.5L35.5 32.5M43 41.5H47.5M28.75 46.0015H22C20.0481 43.4069 18.9949 40.2468 19 37C19 28.7155 25.7155 22 34 22C42.2845 22 49 28.7155 49 37C49 40.378 47.884 43.495 46 46.0015L39.25 46" stroke="#122D50" stroke-linecap="round" stroke-linejoin="round"/>
<path d="M34 50.5C35.1935 50.5 36.3381 50.0259 37.182 49.182C38.0259 48.3381 38.5 47.1935 38.5 46C38.5 44.8065 38.0259 43.6619 37.182 42.818C36.3381 41.9741 35.1935 41.5 34 41.5C32.8065 41.5 31.6619 41.9741 30.818 42.818C29.9741 43.6619 29.5 44.8065 29.5 46C29.5 47.1935 29.9741 48.3381 30.818 49.182C31.6619 50.0259 32.8065 50.5 34 50.5V50.5Z" stroke="#122D50" stroke-linecap="round" stroke-linejoin="round"/>
</svg>
