<svg width="100" height="100" viewBox="0 0 100 100" fill="none" xmlns="http://www.w3.org/2000/svg">
<path d="M49.6456 0.273438L52.3142 5.28556C52.9141 6.21049 53.5641 7.02918 54.3296 7.79162C56.5741 10.0081 58.6662 12.3737 60.5917 14.8723C65.1132 20.8094 68.163 27.4027 70.3409 34.5334C71.6471 38.8893 72.3564 43.3577 72.4095 47.8761C72.6283 61.3845 67.9974 72.9836 58.6606 82.6235C57.1418 84.1522 55.5011 85.5546 53.7547 86.8169C52.8298 86.8169 52.3923 86.1076 52.0111 85.4546C51.3168 84.2435 50.8548 82.9136 50.6487 81.533C50.3206 79.8987 50.105 78.2645 50.2112 76.5771V75.8146C50.1362 75.6522 49.3206 0.657784 49.6456 0.273438Z" fill="white"/>
<path d="M49.6455 0.107501C49.5361 -0.111232 49.4267 0.0543803 49.3174 0.160622C49.3705 1.25429 48.9893 2.22922 48.3924 3.1604C47.7362 4.08533 46.8675 4.79465 45.9957 5.55709C41.1523 9.75053 37.3401 14.8158 34.2872 20.481C30.225 28.1054 28.1314 36.2767 27.5377 44.8791C27.2659 47.982 28.5189 58.9312 29.497 62.0903C32.1655 70.4772 36.9589 77.5048 43.1678 83.6044C44.6927 85.073 46.3238 86.4354 48.0112 87.7447C48.5018 87.7447 48.5549 87.3072 48.6674 86.9822C48.8825 86.2868 49.0465 85.5767 49.158 84.8574L50.2517 76.6892L49.6455 0.107501Z" fill="white"/>
<path d="M49.378 84.948C49.6829 83.4504 49.9249 81.9412 50.1036 80.4243C50.2682 81.5425 50.4994 82.6631 50.8648 83.7592L50.8656 83.7617C51.0877 84.4165 51.3732 85.0481 51.7182 85.6473L51.7234 85.6563L51.7289 85.665C52.0415 86.1595 52.4428 86.6511 52.9715 87.0012C52.4337 87.8897 51.9438 88.8604 51.8242 90.0056L51.8153 90.0719C51.7975 90.2054 51.7776 90.3434 51.7572 90.4852C51.6586 91.1699 51.5474 91.9426 51.5922 92.7153V97.7126V97.7351L51.5942 97.7576L51.7375 99.3423C51.6026 99.2797 51.4707 99.2318 51.3465 99.1915C51.245 99.1586 51.1422 99.1289 51.0495 99.1021C51.028 99.0959 51.007 99.0898 50.9867 99.0839C50.8767 99.0519 50.7808 99.0227 50.6912 98.9897C50.5094 98.9166 50.3359 98.8544 50.2098 98.8092C50.1522 98.7886 50.1044 98.7715 50.0704 98.7585C50.0361 98.7455 50.0109 98.7349 49.9927 98.7268C49.9908 98.7122 49.9889 98.6936 49.9872 98.6703C49.979 98.5569 49.9792 98.4064 49.9797 98.1729C49.9798 98.1162 49.9799 98.0547 49.9799 97.9875V96.8939V96.8801L49.9791 96.8663C49.8132 93.8643 49.5425 90.8668 48.5388 87.9118C48.5278 87.8776 48.5216 87.8505 48.518 87.828C49.0545 86.977 49.2028 86.0452 49.3346 85.2168C49.3491 85.1258 49.3634 85.0362 49.378 84.948Z" stroke="white"/>
</svg>
