<svg width="100" height="100" viewBox="0 0 100 100" fill="none" xmlns="http://www.w3.org/2000/svg">
<path d="M15.0329 41.667C16.0043 41.667 16.8446 41.8627 17.5539 42.254C18.2785 42.6297 18.8413 43.2089 19.2422 43.9916C19.6431 44.7586 19.8435 45.7135 19.8435 46.8562V54.0178H18.6871V46.9501C18.6871 45.5726 18.3556 44.5238 17.6926 43.8037C17.0296 43.0837 16.1045 42.7236 14.9173 42.7236C14.0076 42.7236 13.2213 42.9193 12.5583 43.3106C11.8953 43.702 11.3865 44.2499 11.0319 44.9543C10.6772 45.6587 10.4999 46.504 10.4999 47.4902V54.0178H9.34356V46.9501C9.34356 45.5726 9.01206 44.5238 8.34907 43.8037C7.68608 43.0837 6.76097 42.7236 5.57375 42.7236C4.66407 42.7236 3.87773 42.9193 3.21474 43.3106C2.55175 43.702 2.04294 44.2499 1.68832 44.9543C1.33369 45.6587 1.15638 46.504 1.15638 47.4902V54.0178H0V41.7609H1.11013V45.1421L0.948232 44.7664C1.30286 43.8116 1.89646 43.0602 2.72906 42.5123C3.56165 41.9488 4.56385 41.667 5.73565 41.667C6.93828 41.667 7.94819 41.9801 8.76537 42.6062C9.59796 43.2167 10.1222 44.1325 10.338 45.3535L9.94487 45.1891C10.2687 44.1403 10.8777 43.295 11.772 42.6532C12.6662 41.9957 13.7532 41.667 15.0329 41.667Z" fill="white"/>
<path d="M26.4453 54.1117C25.289 54.1117 24.2559 53.8456 23.3462 53.3134C22.452 52.7812 21.735 52.0454 21.1954 51.1062C20.6711 50.167 20.409 49.0947 20.409 47.8894C20.409 46.6684 20.6711 45.5961 21.1954 44.6725C21.735 43.7333 22.452 42.9976 23.3462 42.4653C24.2559 41.9331 25.289 41.667 26.4453 41.667C27.6017 41.667 28.6348 41.9331 29.5444 42.4653C30.4541 42.9976 31.1711 43.7333 31.6953 44.6725C32.2195 45.5961 32.4816 46.6684 32.4816 47.8894C32.4816 49.0947 32.2195 50.167 31.6953 51.1062C31.1711 52.0454 30.4541 52.7812 29.5444 53.3134C28.6348 53.8456 27.6017 54.1117 26.4453 54.1117ZM26.4453 53.0551C27.3704 53.0551 28.203 52.8438 28.9431 52.4211C29.6832 51.9828 30.2614 51.3723 30.6777 50.5896C31.094 49.807 31.3021 48.9069 31.3021 47.8894C31.3021 46.8562 31.094 45.9561 30.6777 45.1891C30.2614 44.4064 29.6832 43.8037 28.9431 43.3811C28.203 42.9428 27.3704 42.7236 26.4453 42.7236C25.5202 42.7236 24.6876 42.9428 23.9476 43.3811C23.2229 43.8037 22.6447 44.4064 22.213 45.1891C21.7967 45.9561 21.5885 46.8562 21.5885 47.8894C21.5885 48.9069 21.7967 49.807 22.213 50.5896C22.6447 51.3723 23.2229 51.9828 23.9476 52.4211C24.6876 52.8438 25.5202 53.0551 26.4453 53.0551Z" fill="white"/>
<path d="M39.0757 41.667C40.0625 41.667 40.9182 41.8627 41.6429 42.254C42.383 42.6297 42.9535 43.2089 43.3543 43.9916C43.7706 44.7586 43.9788 45.7135 43.9788 46.8562V54.0178H42.8224V46.9501C42.8224 45.5726 42.4755 44.5238 41.7817 43.8037C41.1032 43.0837 40.1473 42.7236 38.9138 42.7236C37.9733 42.7236 37.1561 42.9193 36.4623 43.3106C35.7685 43.702 35.2365 44.2499 34.8665 44.9543C34.5119 45.6587 34.3346 46.504 34.3346 47.4902V54.0178H33.1782V41.7609H34.2883V45.1656L34.1264 44.7899C34.4965 43.8194 35.1055 43.0602 35.9535 42.5123C36.8015 41.9488 37.8423 41.667 39.0757 41.667Z" fill="white"/>
<path d="M50.8674 58.667C49.7727 58.667 48.7319 58.4948 47.7451 58.1504C46.7584 57.806 45.9566 57.3286 45.3399 56.7181L45.9643 55.8258C46.5656 56.3894 47.2826 56.8277 48.1152 57.1407C48.9632 57.4538 49.8729 57.6104 50.8442 57.6104C52.4632 57.6104 53.6504 57.2268 54.4059 56.4598C55.1768 55.6928 55.5623 54.4874 55.5623 52.8438V49.4391L55.7936 47.6076L55.6085 45.7761V41.7609H56.7187V52.7029C56.7187 54.7535 56.2253 56.2563 55.2385 57.2112C54.2671 58.1817 52.8101 58.667 50.8674 58.667ZM50.5436 53.5717C49.4026 53.5717 48.3773 53.3212 47.4676 52.8203C46.5733 52.3037 45.8564 51.5993 45.3167 50.707C44.7925 49.7991 44.5304 48.766 44.5304 47.6076C44.5304 46.4336 44.7925 45.4004 45.3167 44.5082C45.8564 43.6159 46.5733 42.9193 47.4676 42.4184C48.3773 41.9175 49.4026 41.667 50.5436 41.667C51.6383 41.667 52.6174 41.9096 53.4808 42.3949C54.3596 42.8645 55.0535 43.5454 55.5623 44.4377C56.0711 45.3143 56.3255 46.371 56.3255 47.6076C56.3255 48.8286 56.0711 49.8852 55.5623 50.7775C55.0535 51.6698 54.3596 52.3585 53.4808 52.8438C52.6174 53.3291 51.6383 53.5717 50.5436 53.5717ZM50.6361 52.5151C51.6075 52.5151 52.4632 52.3116 53.2033 51.9046C53.9433 51.4819 54.5215 50.9027 54.9378 50.167C55.3695 49.4156 55.5854 48.5625 55.5854 47.6076C55.5854 46.6371 55.3695 45.7839 54.9378 45.0482C54.5215 44.3125 53.9433 43.7411 53.2033 43.3341C52.4632 42.9271 51.6075 42.7236 50.6361 42.7236C49.6956 42.7236 48.8476 42.9271 48.0921 43.3341C47.352 43.7411 46.7661 44.3125 46.3344 45.0482C45.9181 45.7839 45.7099 46.6371 45.7099 47.6076C45.7099 48.5625 45.9181 49.4156 46.3344 50.167C46.7661 50.9027 47.352 51.4819 48.0921 51.9046C48.8476 52.3116 49.6956 52.5151 50.6361 52.5151Z" fill="white"/>
<path d="M63.4405 54.1117C62.2841 54.1117 61.2511 53.8456 60.3414 53.3134C59.4471 52.7812 58.7302 52.0454 58.1905 51.1062C57.6663 50.167 57.4042 49.0947 57.4042 47.8894C57.4042 46.6684 57.6663 45.5961 58.1905 44.6725C58.7302 43.7333 59.4471 42.9976 60.3414 42.4653C61.2511 41.9331 62.2841 41.667 63.4405 41.667C64.5969 41.667 65.6299 41.9331 66.5396 42.4653C67.4493 42.9976 68.1662 43.7333 68.6905 44.6725C69.2147 45.5961 69.4768 46.6684 69.4768 47.8894C69.4768 49.0947 69.2147 50.167 68.6905 51.1062C68.1662 52.0454 67.4493 52.7812 66.5396 53.3134C65.6299 53.8456 64.5969 54.1117 63.4405 54.1117ZM63.4405 53.0551C64.3656 53.0551 65.1982 52.8438 65.9383 52.4211C66.6784 51.9828 67.2565 51.3723 67.6728 50.5896C68.0891 49.807 68.2973 48.9069 68.2973 47.8894C68.2973 46.8562 68.0891 45.9561 67.6728 45.1891C67.2565 44.4064 66.6784 43.8037 65.9383 43.3811C65.1982 42.9428 64.3656 42.7236 63.4405 42.7236C62.5154 42.7236 61.6828 42.9428 60.9427 43.3811C60.218 43.8037 59.6398 44.4064 59.2081 45.1891C58.7918 45.9561 58.5837 46.8562 58.5837 47.8894C58.5837 48.9069 58.7918 49.807 59.2081 50.5896C59.6398 51.3723 60.218 51.9828 60.9427 52.4211C61.6828 52.8438 62.5154 53.0551 63.4405 53.0551Z" fill="white"/>
<path d="M74.8914 54.1117C73.735 54.1117 72.702 53.8456 71.7923 53.3134C70.898 52.7812 70.181 52.0454 69.6414 51.1062C69.1172 50.167 68.8551 49.0947 68.8551 47.8894C68.8551 46.6684 69.1172 45.5961 69.6414 44.6725C70.181 43.7333 70.898 42.9976 71.7923 42.4653C72.702 41.9331 73.735 41.667 74.8914 41.667C76.0477 41.667 77.0808 41.9331 77.9905 42.4653C78.9002 42.9976 79.6171 43.7333 80.1413 44.6725C80.6656 45.5961 80.9277 46.6684 80.9277 47.8894C80.9277 49.0947 80.6656 50.167 80.1413 51.1062C79.6171 52.0454 78.9002 52.7812 77.9905 53.3134C77.0808 53.8456 76.0477 54.1117 74.8914 54.1117ZM74.8914 53.0551C75.8165 53.0551 76.6491 52.8438 77.3891 52.4211C78.1292 51.9828 78.7074 51.3723 79.1237 50.5896C79.54 49.807 79.7482 48.9069 79.7482 47.8894C79.7482 46.8562 79.54 45.9561 79.1237 45.1891C78.7074 44.4064 78.1292 43.8037 77.3891 43.3811C76.6491 42.9428 75.8165 42.7236 74.8914 42.7236C73.9663 42.7236 73.1337 42.9428 72.3936 43.3811C71.6689 43.8037 71.0907 44.4064 70.659 45.1891C70.2427 45.9561 70.0346 46.8562 70.0346 47.8894C70.0346 48.9069 70.2427 49.807 70.659 50.5896C71.0907 51.3723 71.6689 51.9828 72.3936 52.4211C73.1337 52.8438 73.9663 53.0551 74.8914 53.0551Z" fill="white"/>
<path d="M84.6771 54.1117C83.6749 54.1117 82.7343 53.963 81.8555 53.6656C80.9921 53.3682 80.3214 52.9925 79.8434 52.5385L80.3753 51.5993C80.8379 52.0063 81.4546 52.3585 82.2255 52.6559C82.9964 52.9377 83.829 53.0786 84.7233 53.0786C85.9876 53.0786 86.8973 52.8673 87.4524 52.4446C88.0074 52.022 88.285 51.4663 88.285 50.7775C88.285 50.2766 88.1385 49.8852 87.8455 49.6035C87.568 49.306 87.1903 49.0791 86.7123 48.9225C86.2343 48.766 85.7101 48.6407 85.1396 48.5468C84.5691 48.4372 83.9986 48.3198 83.4282 48.1946C82.8577 48.0694 82.3335 47.8894 81.8555 47.6546C81.3775 47.4198 80.9921 47.0989 80.6991 46.6919C80.4216 46.2692 80.2828 45.7135 80.2828 45.0247C80.2828 44.3986 80.4524 43.835 80.7916 43.3341C81.1308 42.8332 81.6396 42.434 82.318 42.1366C82.9964 41.8235 83.8445 41.667 84.8621 41.667C85.6176 41.667 86.3731 41.7766 87.1286 41.9957C87.8995 42.2149 88.5239 42.5045 89.0019 42.8645L88.47 43.8037C87.9612 43.4124 87.3907 43.1306 86.7585 42.9584C86.1264 42.7862 85.4865 42.7001 84.8389 42.7001C83.6671 42.7001 82.8037 42.9193 82.2486 43.3576C81.709 43.7959 81.4392 44.3438 81.4392 45.0012C81.4392 45.5178 81.5779 45.9326 81.8555 46.2457C82.1484 46.5431 82.5339 46.7779 83.0119 46.9501C83.4898 47.1067 84.0141 47.2397 84.5845 47.3493C85.155 47.4432 85.7255 47.5528 86.296 47.678C86.8665 47.8033 87.3907 47.9833 87.8687 48.2181C88.3466 48.4372 88.7244 48.7503 89.0019 49.1573C89.2949 49.5487 89.4413 50.0809 89.4413 50.754C89.4413 51.4271 89.2563 52.0141 88.8863 52.5151C88.5317 53.016 87.9997 53.4073 87.2905 53.6891C86.5812 53.9709 85.7101 54.1117 84.6771 54.1117Z" fill="white"/>
<path d="M94.6806 54.1117C93.4626 54.1117 92.3833 53.8456 91.4428 53.3134C90.5177 52.7812 89.7853 52.0454 89.2457 51.1062C88.7214 50.167 88.4593 49.0947 88.4593 47.8894C88.4593 46.6684 88.706 45.5961 89.1994 44.6725C89.7082 43.7333 90.402 42.9976 91.2809 42.4653C92.1597 41.9331 93.1465 41.667 94.2412 41.667C95.3359 41.667 96.315 41.9253 97.1784 42.4419C98.0573 42.9584 98.7434 43.6863 99.2368 44.6256C99.7456 45.5491 100 46.6214 100 47.8424C100 47.8894 99.9923 47.9442 99.9769 48.0068C99.9769 48.0537 99.9769 48.1085 99.9769 48.1711H89.315V47.2554H99.3524L98.8899 47.7015C98.9053 46.7466 98.7049 45.8935 98.2886 45.1421C97.8877 44.3751 97.3403 43.7803 96.6465 43.3576C95.9527 42.9193 95.1509 42.7001 94.2412 42.7001C93.347 42.7001 92.5452 42.9193 91.836 43.3576C91.1421 43.7803 90.5948 44.3751 90.1939 45.1421C89.793 45.8935 89.5926 46.7545 89.5926 47.725V47.9363C89.5926 48.9382 89.8084 49.8304 90.2401 50.6131C90.6873 51.3802 91.2963 51.9828 92.0672 52.4211C92.8382 52.8438 93.717 53.0551 94.7038 53.0551C95.4747 53.0551 96.1917 52.9142 96.8546 52.6325C97.5331 52.3507 98.1035 51.9202 98.5661 51.341L99.2368 52.1159C98.7126 52.7733 98.0496 53.2743 97.2478 53.6186C96.4615 53.9474 95.6058 54.1117 94.6806 54.1117Z" fill="white"/>
</svg>
