<svg width="100" height="100" viewBox="0 0 100 100" fill="none" xmlns="http://www.w3.org/2000/svg">
<g clip-path="url(#clip0_345_346)">
<path d="M45.7306 1.50235L45.7331 1.5009C48.062 0.169121 51.1054 0.163805 53.4301 1.50034L53.4336 1.50227C58.6028 4.42032 63.7724 7.33633 68.9419 10.2523C76.2494 14.3742 83.5566 18.496 90.8621 22.6232L90.8628 22.6236C93.0564 23.858 94.5218 26.3014 94.4996 28.8129V28.8173L94.4996 71.1881L94.4996 71.1912C94.5158 73.8033 92.9071 76.3086 90.5864 77.5185L90.5792 77.5222L90.5721 77.5262C84.0318 81.21 77.4925 84.8966 70.9536 88.583C65.0612 91.9048 59.1691 95.2266 53.2767 98.546L53.2741 98.5475C50.9055 99.9005 47.8069 99.7979 45.506 98.33L45.497 98.3243L45.4877 98.3189C43.4588 97.1438 41.4262 95.971 39.3942 94.7984C37.6949 93.8178 35.996 92.8375 34.2998 91.8562C34.1347 91.7579 33.9647 91.6635 33.802 91.5732C33.77 91.5554 33.7383 91.5378 33.7069 91.5203C33.5117 91.4116 33.3268 91.3067 33.1512 91.1953C32.9382 91.0602 32.7473 90.9206 32.5816 90.7652C32.6971 90.6908 32.833 90.6271 32.9919 90.5673C33.1423 90.5107 33.2992 90.4624 33.473 90.4089L33.5123 90.3968C33.6896 90.3421 33.8846 90.2812 34.074 90.2057C35.5756 89.7262 36.9588 88.9796 38.288 88.2621C38.3778 88.2137 38.4674 88.1653 38.5568 88.1172L38.58 88.1046L38.6019 88.0897C38.7271 88.0041 38.9358 87.9986 39.2 88.1672L39.2101 88.1736L39.2205 88.1796C40.5746 88.9552 41.9298 89.7441 43.2868 90.534C45.1096 91.595 46.9357 92.658 48.767 93.6935C49.2813 93.9893 49.7914 93.9229 50.2033 93.771C50.4955 93.6632 50.7942 93.4878 51.0264 93.3513C51.0957 93.3106 51.1591 93.2733 51.2147 93.2424L51.2172 93.241C57.034 89.9566 62.8568 86.6767 68.6798 83.3967C75.0634 79.8009 81.4472 76.2049 87.8237 72.6028C88.4607 72.2882 88.798 71.6204 88.7561 70.9519C88.7615 62.0613 88.7609 53.1694 88.7603 44.278C88.7599 39.2036 88.7596 34.1294 88.7603 29.0557C88.8206 28.2855 88.3756 27.5946 87.7064 27.2817C80.7942 23.3928 73.8844 19.5007 66.9746 15.6087C61.5088 12.53 56.043 9.45133 50.576 6.37419C50.2825 6.17835 49.9375 6.07347 49.5843 6.07295C49.2308 6.07243 48.8851 6.17647 48.5909 6.37174C43.1003 9.46314 37.6115 12.5568 32.1229 15.6504C25.2371 19.5314 18.3518 23.4123 11.4639 27.288C10.8093 27.5952 10.3349 28.2718 10.406 29.059C10.4075 38.3689 10.407 47.6799 10.4065 56.9912C10.4063 61.6443 10.406 66.2975 10.406 70.9506C10.381 71.2859 10.4569 71.6212 10.6242 71.9132C10.7922 72.2066 11.0444 72.4424 11.3479 72.5906C13.5313 73.8275 15.717 75.0589 17.9022 76.29C19.0214 76.9206 20.1405 77.5511 21.259 78.1822L21.259 78.1823L21.2679 78.1871C23.1875 79.2193 25.635 79.8851 27.8827 79.0459C29.8938 78.3234 31.2941 76.2863 31.258 74.1537C31.2661 67.5348 31.2646 60.9195 31.263 54.3049C31.2613 47.0277 31.2596 39.7512 31.2708 32.4715L31.2708 32.4528L31.2695 32.4341C31.2494 32.1602 31.5368 31.8683 31.8635 31.8999L31.8892 31.9024L31.915 31.9022C33.5045 31.8915 35.0894 31.8809 36.6713 31.9064L36.681 31.9066L36.6907 31.9064C36.9742 31.9 37.2732 32.2173 37.2211 32.6119L37.2168 32.6443L37.2168 32.677C37.2144 37.8296 37.2161 42.9818 37.2178 48.1337C37.2208 56.9652 37.2237 65.7961 37.2061 74.6276V74.6292C37.2103 78.2511 35.7195 82.086 32.4956 83.791C28.4191 85.8997 23.3384 85.4662 19.2472 83.4111L19.2459 83.4105C16.991 82.2861 14.8169 81.0449 12.6285 79.7955C11.2934 79.0333 9.95297 78.268 8.58563 77.5244L8.58568 77.5243L8.57641 77.5195C6.25217 76.3176 4.65057 73.8033 4.66681 71.1916V71.1885L4.66683 28.8173L4.66679 28.8126C4.64258 26.2488 6.16652 23.7606 8.42849 22.5441L8.42854 22.5442L8.43723 22.5393C17.8108 17.2545 27.1832 11.9666 36.5553 6.6789C39.6137 4.95332 42.6722 3.22776 45.7306 1.50235Z" stroke="white"/>
<path d="M57.3812 30.493C63.3213 30.1458 69.6805 30.2873 75.0258 32.9444C79.1643 34.9806 81.4587 39.254 81.5318 43.4288C81.4162 43.9919 80.7679 44.3026 80.1758 44.2639C78.4524 44.2618 76.7285 44.2852 75.0051 44.2533C74.274 44.2788 73.8491 43.6667 73.7573 43.0799C73.2621 41.0823 72.0624 39.104 69.9917 38.1405C66.8131 36.6955 63.1276 36.7682 59.6616 36.7983C57.1312 36.9203 54.4104 37.1192 52.2667 38.4703C50.621 39.4937 50.1211 41.5596 50.7084 43.2235C51.2622 44.4182 52.781 44.8036 54.0237 45.1589C61.1823 46.8589 68.7682 46.6898 75.7901 48.927C78.6972 49.8391 81.5411 51.6121 82.5362 54.376C83.8379 58.0802 83.2673 62.5079 80.3648 65.4816C78.0111 67.9288 74.5829 69.2607 71.1637 69.9841C66.6151 70.905 61.8947 70.9284 57.2754 70.5196C52.9318 70.0699 48.4117 69.0338 45.0585 66.3465C42.1912 64.0859 40.7907 60.5635 40.9297 57.1639C40.9629 56.5898 41.5925 56.1894 42.1982 56.2366C43.9337 56.2238 45.6693 56.2196 47.4049 56.2387C48.0981 56.1937 48.612 56.7377 48.6476 57.3309C48.9678 59.2341 49.7555 61.2316 51.5832 62.36C55.1106 64.4263 59.5366 64.2848 63.5755 64.3426C66.9217 64.2079 70.6779 64.1671 73.4085 62.1589C74.8492 61.0135 75.2761 59.0972 74.8867 57.4487C74.465 56.0568 72.8614 55.4082 71.4844 54.9841C64.4175 52.9543 56.747 53.6909 49.7485 51.3955C46.9073 50.4838 44.1599 48.76 43.0683 46.1097C41.5452 42.3586 42.2431 37.7189 45.4498 34.8455C48.5765 31.9873 53.0899 30.8866 57.3812 30.4926V30.493Z" fill="white"/>
</g>
<defs>
<clipPath id="clip0_345_346">
<rect width="100" height="100" fill="white"/>
</clipPath>
</defs>
</svg>
