<svg width="40" height="40" viewBox="0 0 40 40" fill="none" xmlns="http://www.w3.org/2000/svg">
<rect width="40" height="40" rx="20" fill="#9FC63B"/>
<path d="M19.9999 28.6668C21.3709 28.6668 22.494 27.6058 22.5928 26.2601C23.6143 27.1418 25.1588 27.0978 26.1282 26.1284C27.0976 25.159 27.1414 23.6146 26.2598 22.5931C27.6055 22.4943 28.6666 21.3711 28.6666 20.0002C28.6666 18.6292 27.6055 17.5061 26.2599 17.4072C27.1415 16.3858 27.0976 14.8413 26.1282 13.8719C25.1588 12.9025 23.6144 12.8586 22.5928 13.7403C22.494 12.3946 21.3709 11.3335 19.9999 11.3335C18.6289 11.3335 17.5059 12.3946 17.407 13.7403C16.3855 12.8586 14.8411 12.9025 13.8717 13.8719C12.9022 14.8413 12.8584 16.3858 13.7401 17.4072C12.3943 17.5061 11.3333 18.6292 11.3333 20.0002C11.3333 21.3711 12.3943 22.4943 13.74 22.5931C12.8584 23.6145 12.9022 25.159 13.8716 26.1284C14.8411 27.0978 16.3855 27.1417 17.407 26.26C17.5058 27.6058 18.6289 28.6668 19.9999 28.6668Z" stroke="#122D50" stroke-linecap="square"/>
<path d="M19.9999 21.7333C19.0426 21.7333 18.2666 20.9573 18.2666 19.9999C18.2666 19.0426 19.0426 18.2666 19.9999 18.2666C20.9573 18.2666 21.7333 19.0426 21.7333 19.9999C21.7333 20.9573 20.9573 21.7333 19.9999 21.7333Z" stroke="#122D50" stroke-linecap="square"/>
</svg>
