<svg width="100" height="100" viewBox="0 0 100 100" fill="none" xmlns="http://www.w3.org/2000/svg">
<path d="M86.0773 55.5389C82.5812 55.5587 79.5538 56.3983 77.0148 57.6485C76.0773 55.793 75.1398 54.1718 74.9837 52.961C74.8079 51.5548 74.5931 50.6952 74.8079 49.0157C75.0226 47.3358 75.9992 44.953 75.9992 44.7577C75.9794 44.5819 75.7841 43.7225 73.7726 43.703C71.7611 43.6835 70.0226 44.0936 69.8273 44.621C69.632 45.1483 69.2413 46.3593 68.9874 47.6093C68.6359 49.4452 64.964 55.9491 62.8741 59.3671C62.1906 58.0389 61.6046 56.8671 61.4872 55.9294C61.3117 54.5233 61.0966 53.6637 61.3116 51.9842C61.5265 50.3044 62.5031 47.9218 62.5031 47.7264C62.4835 47.5507 62.2882 46.6913 60.2767 46.6718C58.2648 46.6522 56.5267 47.0624 56.3314 47.5897C56.1361 48.1171 55.9212 49.3671 55.4915 50.578C55.0812 51.7889 50.1984 62.6483 48.9288 65.4803C48.2843 66.9257 47.7181 68.078 47.3077 68.8592C46.8976 69.6405 47.2882 68.9178 47.2492 68.996C46.8976 69.66 46.7023 70.0311 46.7023 70.0311V70.0509C46.4288 70.5391 46.1359 71.0077 45.999 71.0077C45.9013 71.0077 45.706 69.6991 46.038 67.9024C46.7607 64.1327 48.5185 58.254 48.4992 58.0391C48.4992 57.9415 48.831 56.9061 47.3661 56.379C45.9404 55.8516 45.4327 56.7305 45.3154 56.7305C45.1982 56.7305 45.1005 57.043 45.1005 57.043C45.1005 57.043 46.6825 50.4221 42.0732 50.4221C39.1825 50.4221 35.1982 53.5667 33.2255 56.4378C31.9755 57.1214 29.3193 58.5665 26.5068 60.1096C25.4326 60.6956 24.3193 61.3206 23.2646 61.887L23.0499 61.6522C17.464 55.6952 7.13197 51.4764 7.56165 43.4686C7.7179 40.5585 8.73353 32.8827 27.4056 23.5858C42.6986 15.9686 54.9447 18.0585 57.0734 22.7069C60.1007 29.3475 50.5304 41.6913 34.6322 43.4686C28.5775 44.1522 25.3937 41.8085 24.5931 40.9296C23.7533 40.0116 23.6361 39.9725 23.3236 40.1483C22.8158 40.4218 23.1283 41.2421 23.3236 41.7303C23.7923 42.9608 25.7454 45.1483 29.0658 46.2421C31.9757 47.1991 39.0853 47.7264 47.679 44.4061C57.3079 40.6757 64.8275 30.3241 62.6204 21.6718C60.3743 12.8632 45.765 9.97254 31.9564 14.8749C23.7335 17.8046 14.8273 22.3749 8.42103 28.371C0.803841 35.4803 -0.407097 41.6913 0.100716 44.2694C1.87825 53.4686 14.5538 59.4647 19.632 63.8983C19.3781 64.0348 19.1437 64.1716 18.9288 64.2889C16.3898 65.5387 6.72181 70.5975 4.29993 75.9489C1.56556 82.0036 4.72962 86.3593 6.839 86.9452C13.3624 88.7616 20.0421 85.4999 23.6554 80.1288C27.249 74.7577 26.8195 67.785 25.1593 64.6014L25.1005 64.4843L27.0927 63.3124C28.382 62.5507 29.6515 61.8475 30.7646 61.2419C30.1398 62.9411 29.6904 64.9528 29.4562 67.8825C29.1827 71.3202 30.589 75.7731 32.4445 77.5309C33.2648 78.2925 34.2413 78.3122 34.8468 78.3122C36.9952 78.3122 37.9718 76.5346 39.046 74.4059C40.3742 71.8083 41.546 68.8005 41.546 68.8005C41.546 68.8005 40.0812 76.945 44.0851 76.945C45.5499 76.945 47.0148 75.0505 47.6788 74.0739V74.0934C47.6788 74.0934 47.7179 74.0348 47.796 73.8981C47.878 73.7769 47.9561 73.6533 48.0304 73.5272V73.4882C48.6163 72.4725 49.9249 70.1483 51.8781 66.3007C54.3974 61.3397 56.8195 55.1288 56.8195 55.1288C56.8195 55.1288 57.0538 56.6522 57.7765 59.1522C58.206 60.6368 59.1435 62.2577 59.8661 63.8397C59.2802 64.66 58.9286 65.129 58.9286 65.129L58.9482 65.1485C58.4796 65.7735 57.9521 66.4378 57.4054 67.1016C55.4132 69.4844 53.0304 72.1995 52.7179 72.9807C52.3468 73.8985 52.4249 74.5821 53.1476 75.1292C53.6749 75.5198 54.6124 75.5977 55.6085 75.5198C57.4054 75.4024 58.6554 74.9534 59.2804 74.6798C60.257 74.3282 61.3702 73.8009 62.4445 73.0196C64.3976 71.5745 65.589 69.5237 65.4718 66.7893C65.4132 65.2854 64.9249 63.801 64.3195 62.3948C64.4952 62.1409 64.6712 61.8868 64.8468 61.6135C67.9327 57.1016 70.3156 52.1409 70.3156 52.1409C70.3156 52.1409 70.5499 53.6643 71.2726 56.1643C71.6435 57.4339 72.3859 58.8208 73.0499 60.188C70.1593 62.5512 68.3429 65.2856 67.7179 67.0825C66.5656 70.4028 67.464 71.9067 69.1632 72.2583C69.9247 72.4145 71.0187 72.063 71.8388 71.7114C72.8544 71.3794 74.0849 70.8128 75.2179 69.9731C77.171 68.5278 79.046 66.5161 78.9484 63.8013C78.8898 62.5513 78.5577 61.3208 78.1085 60.1489C80.5695 59.1333 83.7529 58.5473 87.796 59.0356C96.4874 60.0512 98.2062 65.4809 97.8744 67.7466C97.5423 70.0124 95.7259 71.2622 95.1202 71.6528C94.5148 72.0239 94.3195 72.1608 94.3781 72.4341C94.4562 72.8444 94.7296 72.8247 95.257 72.7468C95.9796 72.6294 99.8273 70.8913 99.9835 66.7118C100.218 61.3399 95.1202 55.4805 86.0773 55.5389ZM19.046 78.1366C16.1749 81.2811 12.132 82.4725 10.4132 81.4569C8.55775 80.3827 9.28021 75.7538 12.8156 72.4139C14.964 70.3827 17.757 68.5077 19.5929 67.3553C20.0031 67.1014 20.6281 66.7305 21.3702 66.2811C21.4874 66.2032 21.5656 66.1639 21.5656 66.1639C21.7023 66.0858 21.8585 65.9882 22.0148 65.8905C23.3234 70.6561 22.0734 74.8358 19.046 78.1366ZM40.0421 63.8593C39.046 66.3007 36.9367 72.5702 35.6671 72.2186C34.5732 71.9257 33.9093 67.1796 35.4521 62.4921C36.2333 60.1286 37.8935 57.3163 38.8701 56.2223C40.4523 54.4645 42.1708 53.8786 42.6007 54.6012C43.1085 55.5389 40.6671 62.3358 40.0421 63.8593ZM57.3663 72.1405C56.9367 72.3555 56.546 72.5116 56.3702 72.3946C56.2335 72.3165 56.5458 72.0235 56.5458 72.0235C56.5458 72.0235 58.7138 69.6993 59.5732 68.6251C60.0615 68.0003 60.6474 67.2776 61.2724 66.4571V66.6915C61.2726 69.5038 58.5773 71.3788 57.3663 72.1405ZM70.7255 69.0936C70.413 68.8593 70.4523 68.1366 71.5068 65.871C71.9171 64.9725 72.8544 63.4686 74.4755 62.0428C74.6708 62.6288 74.7882 63.195 74.7685 63.7225C74.7492 67.2382 72.2492 68.5468 70.7255 69.0936Z" fill="white"/>
</svg>
