<svg width="40" height="40" viewBox="0 0 40 40" fill="none" xmlns="http://www.w3.org/2000/svg">
<rect width="40" height="40" rx="20" fill="#9FC63B"/>
<path d="M12.2041 16.2878C14.8331 15.5071 18.2648 16.3153 21.0788 18.6406C23.9368 21.0024 25.3779 24.285 25.0478 27.0409" stroke="#122D50"/>
<path d="M18.3551 28.4932C17.6942 26.3779 18.2759 23.132 20.0673 20.0292C21.8534 16.9357 24.3638 14.8124 26.5218 14.3188" stroke="#122D50"/>
<path d="M19.5163 11.3335C19.3599 13.0185 18.7136 14.9993 17.5953 16.9362C15.9194 19.8391 13.6278 21.8735 11.6812 22.4142" stroke="#122D50"/>
<path d="M19.9999 28.6668C24.7864 28.6668 28.6666 24.7866 28.6666 20.0002C28.6666 15.2137 24.7864 11.3335 19.9999 11.3335C15.2135 11.3335 11.3333 15.2137 11.3333 20.0002C11.3333 24.7866 15.2135 28.6668 19.9999 28.6668Z" stroke="#122D50" stroke-linecap="square"/>
</svg>
