<svg width="54" height="460" viewBox="0 0 54 460" fill="none" xmlns="http://www.w3.org/2000/svg">
<path d="M53.1829 442.716H10.3246V460H0.817055V413.935H10.3246V431.218H53.1829V442.716Z" fill="#173864"/>
<path d="M53.1829 409.051H0.817055V373.222H9.80467V398.072H22.0605V374.854H31.1224V398.072H44.1953V373.222H53.1829V409.051Z" fill="#173864"/>
<path d="M54 339.51C54 345.147 52.8858 349.969 50.6575 353.975C48.4292 357.981 45.3095 361.071 41.2985 363.247C37.238 365.374 32.4594 366.437 26.9629 366.437C21.5158 366.437 16.7868 365.374 12.7758 363.247C8.71527 361.071 5.57084 357.981 3.3425 353.975C1.11417 349.969 0 345.147 0 339.51C0 336.048 0.544705 332.735 1.63411 329.57C2.72352 326.405 4.20908 323.809 6.09079 321.781L15.227 325.342C13.4938 327.567 12.2311 329.817 11.4388 332.092C10.597 334.317 10.1761 336.666 10.1761 339.139C10.1761 344.134 11.6369 347.917 14.5585 350.488C17.4305 353.011 21.5653 354.272 26.9629 354.272C32.3604 354.272 36.5199 353.011 39.4415 350.488C42.3631 347.917 43.8239 344.134 43.8239 339.139C43.8239 336.666 43.4278 334.317 42.6355 332.092C41.7937 329.817 40.5062 327.567 38.773 325.342L47.9092 321.781C49.7414 323.809 51.227 326.405 52.3659 329.57C53.4553 332.735 54 336.048 54 339.51Z" fill="#173864"/>
<path d="M53.1829 314.985H0.817055V303.487H21.8377V279.156H0.817055V267.658H53.1829V279.156H31.4195V303.487H53.1829V314.985Z" fill="#173864"/>
<path d="M54 219.249C54 223.354 53.48 227.236 52.4402 230.895C51.4003 234.505 49.989 237.522 48.2063 239.945L39.1444 236.607C40.7785 234.283 42.066 231.637 43.0069 228.67C43.9477 225.653 44.4182 222.513 44.4182 219.249C44.4182 215.689 43.8735 213.142 42.784 211.609C41.6451 210.026 40.2338 209.235 38.5502 209.235C37.1142 209.235 35.9752 209.779 35.1334 210.867C34.2916 211.955 33.5736 213.859 32.9794 216.579L31.1967 224.961C29.216 234.308 24.3631 238.981 16.6382 238.981C13.3205 238.981 10.4237 238.091 7.94773 236.31C5.42228 234.53 3.4663 232.057 2.07978 228.893C0.69326 225.678 0 221.969 0 217.766C0 214.156 0.519944 210.768 1.55983 207.603C2.59972 204.438 4.06052 201.817 5.94223 199.74L14.4099 203.078C11.1912 207.133 9.58184 212.054 9.58184 217.84C9.58184 220.955 10.2008 223.379 11.4388 225.109C12.6272 226.791 14.1871 227.631 16.1183 227.631C17.5543 227.631 18.718 227.112 19.6094 226.074C20.5007 225.035 21.2187 223.23 21.7634 220.659L23.5461 212.276C25.6259 202.682 30.3301 197.885 37.6589 197.885C40.9271 197.885 43.7992 198.776 46.2751 200.556C48.7015 202.287 50.608 204.759 51.9945 207.974C53.3315 211.139 54 214.897 54 219.249Z" fill="#173864"/>
<path d="M53.1829 179.787H10.3246V197.071H0.817055V151.006H10.3246V168.29H53.1829V179.787Z" fill="#173864"/>
<path d="M53.1829 157.998L0.817055 133.964V124.692L53.1829 100.658V112.23L41.8184 117.125V141.53L53.1829 146.352V157.998ZM13.0729 129.439L32.8308 137.673V120.909L13.0729 129.291V129.439Z" fill="#173864"/>
<path d="M54 72.7417C54 78.3794 52.8858 83.201 50.6575 87.2067C48.4292 91.2124 45.3095 94.3032 41.2985 96.4792C37.238 98.6057 32.4594 99.6689 26.9629 99.6689C21.5158 99.6689 16.7868 98.6057 12.7758 96.4792C8.71527 94.3032 5.57084 91.2124 3.3425 87.2067C1.11417 83.201 0 78.3794 0 72.7417C0 69.28 0.544705 65.9667 1.63411 62.8017C2.72352 59.6367 4.20908 57.0404 6.09079 55.0128L15.227 58.5734C13.4938 60.7988 12.2311 63.0489 11.4388 65.3238C10.597 67.5492 10.1761 69.8982 10.1761 72.3708C10.1761 77.3656 11.6369 81.1487 14.5585 83.7203C17.4305 86.2424 21.5653 87.5034 26.9629 87.5034C32.3604 87.5034 36.5199 86.2424 39.4415 83.7203C42.3631 81.1487 43.8239 77.3656 43.8239 72.3708C43.8239 69.8982 43.4278 67.5492 42.6355 65.3238C41.7937 63.0489 40.5062 60.7988 38.773 58.5734L47.9092 55.0128C49.7414 57.0404 51.227 59.6367 52.3659 62.8017C53.4553 65.9667 54 69.28 54 72.7417Z" fill="#173864"/>
<path d="M53.1829 48.2167H0.817055V36.7189H23.6204V36.5705L0.817055 14.8359V1.03851L25.8487 25.3694L53.1829 0V13.9457L29.2655 36.5705V36.7189H53.1829V48.2167Z" fill="#173864"/>
</svg>
