<svg width="100" height="100" viewBox="0 0 100 100" fill="none" xmlns="http://www.w3.org/2000/svg">
<g clip-path="url(#clip0_345_342)">
<mask id="path-1-inside-1_345_342" fill="white">
<path d="M0 50V0H100V100H0"/>
</mask>
<path d="M0 0V-1H-1V0H0ZM100 0H101V-1H100V0ZM100 100V101H101V100H100ZM1 50V0H-1V50H1ZM0 1H100V-1H0V1ZM99 0V100H101V0H99ZM100 99H0V101H100V99Z" fill="white" mask="url(#path-1-inside-1_345_342)"/>
<path d="M21.925 50.1752V54.2502H34.925V91.2502H44.1501V54.2502H57.1501V50.2502C57.1501 48.0002 57.15 46.1752 57.05 46.1252C57.05 46.0502 49.125 46.0252 39.5 46.0252L22 46.1002V50.2002L21.925 50.1752ZM80.35 46.0002C82.9 46.6002 84.8501 47.7502 86.6001 49.5752C87.5251 50.5752 88.9 52.3252 89 52.7752C89 52.9252 84.6751 55.8502 82.0501 57.4752C81.9501 57.5502 81.5501 57.1252 81.1501 56.4752C79.8501 54.6252 78.525 53.8252 76.45 53.6752C73.45 53.4752 71.45 55.0502 71.45 57.6752C71.45 58.4752 71.6001 58.9252 71.9001 59.5752C72.5751 60.9502 73.825 61.7752 77.7 63.4752C84.85 66.5502 87.95 68.5752 89.825 71.4752C91.95 74.7252 92.425 79.8252 91 83.6502C89.4 87.8252 85.5001 90.6502 79.9251 91.5752C78.1751 91.8752 74.1751 91.8252 72.3001 91.5002C68.3001 90.7502 64.475 88.7502 62.125 86.1752C61.2001 85.1752 59.4251 82.5002 59.5251 82.3252L60.475 81.7252L64.225 79.5502L67.0501 77.9002L67.7 78.7752C68.525 80.0752 70.375 81.8252 71.45 82.4252C74.7 84.1002 79.05 83.8752 81.2 81.9252C82.125 81.0752 82.5251 80.1752 82.5251 78.9252C82.5251 77.7752 82.3501 77.2502 81.7751 76.3752C80.9751 75.2752 79.375 74.3752 74.875 72.3752C69.7001 70.1752 67.5 68.7752 65.45 66.6252C64.275 65.3252 63.2001 63.3002 62.7001 61.6252C62.3251 60.1752 62.2001 56.6252 62.55 55.2002C63.625 50.2002 67.4001 46.7002 72.8001 45.7002C74.5501 45.3502 78.6751 45.5002 80.4001 45.9502L80.35 46.0002Z" fill="white"/>
</g>
<defs>
<clipPath id="clip0_345_342">
<rect width="100" height="100" fill="white"/>
</clipPath>
</defs>
</svg>
