<svg width="320" height="344" viewBox="0 0 320 344" fill="none" xmlns="http://www.w3.org/2000/svg">
<g filter="url(#filter0_d)">
<path d="M173.699 307.046L173.699 37.53C173.699 32.0761 169.278 27.6548 163.824 27.6548L-37.0452 27.6548C-42.4991 27.6548 -46.9204 32.0761 -46.9204 37.5301L-46.9204 307.046C-46.9204 312.5 -42.4991 316.921 -37.0452 316.921H163.824C169.278 316.921 173.699 312.5 173.699 307.046Z" fill="white"/>
<path d="M2.62018 56.8275H-13.1379L-15.6523 54.313V38.555L-13.1379 36.0405H2.62018L5.13462 38.555V54.313L2.62018 56.8275Z" fill="#1B2137"/>
<path d="M25.4991 56.8275H9.74101L7.22656 54.313V38.555L9.74101 36.0405H25.4991L28.0135 38.555V54.313L25.4991 56.8275Z" fill="#1B2137"/>
<path d="M13.5189 36.04H12.9199V56.827H13.5189V36.04Z" fill="#1B2137"/>
<path d="M22.3256 36.04H21.7266V56.827H22.3256V36.04Z" fill="#1B2137"/>
<path d="M48.3858 56.8275H32.6277L30.1133 54.313V38.555L32.6277 36.0405H48.3858L50.9002 38.555V54.313L48.3858 56.8275Z" fill="#1B2137"/>
<path d="M36.4056 36.04H35.8066V56.827H36.4056V36.04Z" fill="#1B2137"/>
<path d="M45.2064 36.04H44.6074V56.827H45.2064V36.04Z" fill="#1B2137"/>
<path d="M71.2667 56.8275H55.5086L52.9941 54.313V38.555L55.5086 36.0405H71.2667L73.7811 38.555V54.313L71.2667 56.8275Z" fill="#1B2137"/>
<path d="M59.2865 36.04H58.6875V56.827H59.2865V36.04Z" fill="#1B2137"/>
<path d="M68.0873 36.04H67.4883V56.827H68.0873V36.04Z" fill="#1B2137"/>
<path d="M94.1534 56.8275H78.3953L75.8809 54.313V38.555L78.3953 36.0405H94.1534L96.6678 38.555V54.313L94.1534 56.8275Z" fill="#1B2137"/>
<path d="M82.1732 36.04H81.5742V56.827H82.1732V36.04Z" fill="#1B2137"/>
<path d="M90.974 36.04H90.375V56.827H90.974V36.04Z" fill="#1B2137"/>
<path d="M117.032 56.8275H101.274L98.7598 54.313V38.555L101.274 36.0405H117.032L119.547 38.555V54.313L117.032 56.8275Z" fill="#1B2137"/>
<path d="M105.052 36.04H104.453V56.827H105.052V36.04Z" fill="#1B2137"/>
<path d="M113.853 36.04H113.254V56.827H113.853V36.04Z" fill="#1B2137"/>
<path d="M139.92 56.8275H124.162L121.641 54.313V38.555L124.155 36.0405H139.913L142.428 38.555V54.313L139.92 56.8275Z" fill="#1B2137"/>
<path d="M127.939 36.04H127.34V56.827H127.939V36.04Z" fill="#1B2137"/>
<path d="M136.74 36.04H136.141V56.827H136.74V36.04Z" fill="#1B2137"/>
<path d="M162.8 56.8275H147.042L144.527 54.313V38.555L147.042 36.0405H162.8L165.314 38.555V54.313L162.8 56.8275Z" fill="#1B2137"/>
<path d="M150.82 36.04H150.221V56.827H150.82V36.04Z" fill="#1B2137"/>
<path d="M159.62 36.04H159.021V56.827H159.62V36.04Z" fill="#1B2137"/>
<path d="M2.62018 79.7142H-13.1379L-15.6523 77.1998V61.4417L-13.1379 58.9272H2.62018L5.13462 61.4417V77.1998L2.62018 79.7142Z" fill="#1B2137"/>
<path d="M25.4991 79.7142H9.74101L7.22656 77.1998V61.4417L9.74101 58.9272H25.4991L28.0135 61.4417V77.1998L25.4991 79.7142Z" fill="#1B2137"/>
<path d="M13.5189 58.9272H12.9199V79.7142H13.5189V58.9272Z" fill="#1B2137"/>
<path d="M22.3256 58.9268H21.7266V79.7137H22.3256V58.9268Z" fill="#1B2137"/>
<path d="M48.3858 79.7142H32.6277L30.1133 77.1998V61.4417L32.6277 58.9272H48.3858L50.9003 61.4417V77.1998L48.3858 79.7142Z" fill="#1B2137"/>
<path d="M36.4056 58.9268H35.8066V79.7137H36.4056V58.9268Z" fill="#1B2137"/>
<path d="M45.2064 58.9268H44.6074V79.7137H45.2064V58.9268Z" fill="#1B2137"/>
<path d="M71.2667 79.7142H55.5086L52.9941 77.1998V61.4417L55.5086 58.9272H71.2667L73.7811 61.4417V77.1998L71.2667 79.7142Z" fill="#1B2137"/>
<path d="M59.2865 58.9268H58.6875V79.7137H59.2865V58.9268Z" fill="#1B2137"/>
<path d="M68.0873 58.9268H67.4883V79.7137H68.0873V58.9268Z" fill="#1B2137"/>
<path d="M94.1534 79.7142H78.3953L75.8809 77.1998V61.4417L78.3953 58.9272H94.1534L96.6678 61.4417V77.1998L94.1534 79.7142Z" fill="#1B2137"/>
<path d="M82.1732 58.9272H81.5742V79.7142H82.1732V58.9272Z" fill="#1B2137"/>
<path d="M90.974 58.9268H90.375V79.7137H90.974V58.9268Z" fill="#1B2137"/>
<path d="M117.032 79.7142H101.274L98.7598 77.1998V61.4417L101.274 58.9272H117.032L119.547 61.4417V77.1998L117.032 79.7142Z" fill="#1B2137"/>
<path d="M105.052 58.9268H104.453V79.7137H105.052V58.9268Z" fill="#1B2137"/>
<path d="M113.853 58.9268H113.254V79.7137H113.853V58.9268Z" fill="#1B2137"/>
<path d="M139.92 79.7142H124.162L121.641 77.1998V61.4417L124.155 58.9272H139.913L142.428 61.4417V77.1998L139.92 79.7142Z" fill="#1B2137"/>
<path d="M127.939 58.9272H127.34V79.7142H127.939V58.9272Z" fill="#1B2137"/>
<path d="M136.74 58.9268H136.141V79.7137H136.74V58.9268Z" fill="#1B2137"/>
<path d="M162.8 79.7142H147.042L144.527 77.1998V61.4417L147.042 58.9272H162.8L165.314 61.4417V77.1998L162.8 79.7142Z" fill="#1B2137"/>
<path d="M150.82 58.9268H150.221V79.7137H150.82V58.9268Z" fill="#1B2137"/>
<path d="M159.62 58.9268H159.021V79.7137H159.62V58.9268Z" fill="#1B2137"/>
<path d="M2.62018 102.595H-13.1379L-15.6523 100.08V84.3221L-13.1379 81.8076H2.62018L5.13462 84.3221V100.08L2.62018 102.595Z" fill="#1B2137"/>
<path d="M25.4991 102.595H9.74101L7.22656 100.08V84.3221L9.74101 81.8076H25.4991L28.0135 84.3221V100.08L25.4991 102.595Z" fill="#1B2137"/>
<path d="M13.5189 81.8076H12.9199V102.595H13.5189V81.8076Z" fill="#1B2137"/>
<path d="M22.3256 81.8076H21.7266V102.595H22.3256V81.8076Z" fill="#1B2137"/>
<path d="M48.3858 102.595H32.6277L30.1133 100.08V84.3221L32.6277 81.8076H48.3858L50.9003 84.3221V100.08L48.3858 102.595Z" fill="#1B2137"/>
<path d="M36.4056 81.8076H35.8066V102.595H36.4056V81.8076Z" fill="#1B2137"/>
<path d="M45.2064 81.8076H44.6074V102.595H45.2064V81.8076Z" fill="#1B2137"/>
<path d="M71.2667 102.595H55.5086L52.9941 100.08V84.3221L55.5086 81.8076H71.2667L73.7811 84.3221V100.08L71.2667 102.595Z" fill="#1B2137"/>
<path d="M59.2865 81.8076H58.6875V102.595H59.2865V81.8076Z" fill="#1B2137"/>
<path d="M68.0873 81.8076H67.4883V102.595H68.0873V81.8076Z" fill="#1B2137"/>
<path d="M94.1534 102.595H78.3953L75.8809 100.08V84.3221L78.3953 81.8076H94.1534L96.6678 84.3221V100.08L94.1534 102.595Z" fill="#1B2137"/>
<path d="M82.1732 81.8076H81.5742V102.595H82.1732V81.8076Z" fill="#1B2137"/>
<path d="M90.974 81.8076H90.375V102.595H90.974V81.8076Z" fill="#1B2137"/>
<path d="M117.032 102.595H101.274L98.7598 100.08V84.3221L101.274 81.8076H117.032L119.547 84.3221V100.08L117.032 102.595Z" fill="#1B2137"/>
<path d="M105.052 81.8076H104.453V102.595H105.052V81.8076Z" fill="#1B2137"/>
<path d="M113.853 81.8076H113.254V102.595H113.853V81.8076Z" fill="#1B2137"/>
<path d="M139.92 102.595H124.162L121.641 100.08V84.3221L124.155 81.8076H139.913L142.428 84.3221V100.08L139.92 102.595Z" fill="#1B2137"/>
<path d="M127.939 81.8076H127.34V102.595H127.939V81.8076Z" fill="#1B2137"/>
<path d="M136.74 81.8076H136.141V102.595H136.74V81.8076Z" fill="#1B2137"/>
<path d="M162.8 102.595H147.042L144.527 100.08V84.3221L147.042 81.8076H162.8L165.314 84.3221V100.08L162.8 102.595Z" fill="#1B2137"/>
<path d="M150.82 81.8076H150.221V102.595H150.82V81.8076Z" fill="#1B2137"/>
<path d="M159.62 81.8076H159.021V102.595H159.62V81.8076Z" fill="#1B2137"/>
<path d="M2.62018 125.482H-13.1379L-15.6523 122.968V107.21L-13.1379 104.695H2.62018L5.13462 107.21V122.968L2.62018 125.482Z" fill="#1B2137"/>
<path d="M25.4991 125.481H9.74101L7.22656 122.967V107.209L9.74101 104.694H25.4991L28.0135 107.209V122.967L25.4991 125.481Z" fill="#1B2137"/>
<path d="M13.5189 104.695H12.9199V125.482H13.5189V104.695Z" fill="#1B2137"/>
<path d="M22.3256 104.694H21.7266V125.481H22.3256V104.694Z" fill="#1B2137"/>
<path d="M48.3858 125.482H32.6277L30.1133 122.968V107.21L32.6277 104.695H48.3858L50.9003 107.21V122.968L48.3858 125.482Z" fill="#1B2137"/>
<path d="M36.4056 104.695H35.8066V125.482H36.4056V104.695Z" fill="#1B2137"/>
<path d="M45.2064 104.694H44.6074V125.481H45.2064V104.694Z" fill="#1B2137"/>
<path d="M71.2667 125.482H55.5086L52.9941 122.968V107.21L55.5086 104.695H71.2667L73.7811 107.21V122.968L71.2667 125.482Z" fill="#1B2137"/>
<path d="M59.2865 104.695H58.6875V125.482H59.2865V104.695Z" fill="#1B2137"/>
<path d="M68.0873 104.694H67.4883V125.481H68.0873V104.694Z" fill="#1B2137"/>
<path d="M94.1534 125.481H78.3953L75.8809 122.967V107.209L78.3953 104.694H94.1534L96.6678 107.209V122.967L94.1534 125.481Z" fill="#1B2137"/>
<path d="M82.1732 104.695H81.5742V125.482H82.1732V104.695Z" fill="#1B2137"/>
<path d="M90.974 104.694H90.375V125.481H90.974V104.694Z" fill="#1B2137"/>
<path d="M117.032 125.482H101.274L98.7598 122.968V107.21L101.274 104.695H117.032L119.547 107.21V122.968L117.032 125.482Z" fill="#1B2137"/>
<path d="M105.052 104.695H104.453V125.482H105.052V104.695Z" fill="#1B2137"/>
<path d="M113.853 104.694H113.254V125.481H113.853V104.694Z" fill="#1B2137"/>
<path d="M139.92 125.481H124.162L121.641 122.96V107.209L124.155 104.694H139.913L142.428 107.209V122.967L139.92 125.481Z" fill="#1B2137"/>
<path d="M127.939 104.695H127.34V125.482H127.939V104.695Z" fill="#1B2137"/>
<path d="M136.74 104.694H136.141V125.481H136.74V104.694Z" fill="#1B2137"/>
<path d="M162.8 125.482H147.042L144.527 122.968V107.21L147.042 104.695H162.8L165.314 107.21V122.968L162.8 125.482Z" fill="#1B2137"/>
<path d="M150.82 104.695H150.221V125.482H150.82V104.695Z" fill="#1B2137"/>
<path d="M159.62 104.694H159.021V125.481H159.62V104.694Z" fill="#1B2137"/>
<path d="M2.62018 148.362H-13.1379L-15.6523 145.847V130.089L-13.1379 127.575H2.62018L5.13462 130.089V145.847L2.62018 148.362Z" fill="#1B2137"/>
<path d="M25.4991 148.362H9.74101L7.22656 145.847V130.089L9.74101 127.575H25.4991L28.0135 130.089V145.847L25.4991 148.362Z" fill="#1B2137"/>
<path d="M13.5189 127.575H12.9199V148.362H13.5189V127.575Z" fill="#1B2137"/>
<path d="M22.3256 127.574H21.7266V148.361H22.3256V127.574Z" fill="#1B2137"/>
<path d="M48.3858 148.362H32.6277L30.1133 145.847V130.089L32.6277 127.575H48.3858L50.9003 130.089V145.847L48.3858 148.362Z" fill="#1B2137"/>
<path d="M36.4056 127.575H35.8066V148.362H36.4056V127.575Z" fill="#1B2137"/>
<path d="M45.2064 127.574H44.6074V148.361H45.2064V127.574Z" fill="#1B2137"/>
<path d="M71.2667 148.362H55.5086L52.9941 145.847V130.089L55.5086 127.575H71.2667L73.7811 130.089V145.847L71.2667 148.362Z" fill="#1B2137"/>
<path d="M59.2865 127.575H58.6875V148.362H59.2865V127.575Z" fill="#1B2137"/>
<path d="M68.0873 127.574H67.4883V148.361H68.0873V127.574Z" fill="#1B2137"/>
<path d="M94.1534 148.362H78.3953L75.8809 145.847V130.089L78.3953 127.575H94.1534L96.6678 130.089V145.847L94.1534 148.362Z" fill="#1B2137"/>
<path d="M82.1732 127.575H81.5742V148.362H82.1732V127.575Z" fill="#1B2137"/>
<path d="M90.974 127.574H90.375V148.361H90.974V127.574Z" fill="#1B2137"/>
<path d="M117.032 148.362H101.274L98.7598 145.847V130.089L101.274 127.575H117.032L119.547 130.089V145.847L117.032 148.362Z" fill="#1B2137"/>
<path d="M105.052 127.575H104.453V148.362H105.052V127.575Z" fill="#1B2137"/>
<path d="M113.853 127.574H113.254V148.361H113.853V127.574Z" fill="#1B2137"/>
<path d="M139.92 148.362H124.162L121.641 145.847V130.089L124.155 127.575H139.913L142.428 130.089V145.847L139.92 148.362Z" fill="#1B2137"/>
<path d="M127.939 127.575H127.34V148.362H127.939V127.575Z" fill="#1B2137"/>
<path d="M136.74 127.574H136.141V148.361H136.74V127.574Z" fill="#1B2137"/>
<path d="M162.8 148.362H147.042L144.527 145.847V130.089L147.042 127.575H162.8L165.314 130.089V145.847L162.8 148.362Z" fill="#1B2137"/>
<path d="M150.82 127.575H150.221V148.362H150.82V127.575Z" fill="#1B2137"/>
<path d="M159.62 127.574H159.021V148.361H159.62V127.574Z" fill="#1B2137"/>
<path d="M2.62018 171.248H-13.1379L-15.6523 168.734V152.976L-13.1379 150.461H2.62018L5.13462 152.976V168.727L2.62018 171.248Z" fill="#1B2137"/>
<path d="M25.4991 171.248H9.74101L7.22656 168.734V152.976L9.74101 150.461H25.4991L28.0135 152.976V168.727L25.4991 171.248Z" fill="#1B2137"/>
<path d="M13.5189 150.455H12.9199V171.242H13.5189V150.455Z" fill="#1B2137"/>
<path d="M22.3256 150.455H21.7266V171.242H22.3256V150.455Z" fill="#1B2137"/>
<path d="M48.3858 171.248H32.6277L30.1133 168.734V152.976L32.6277 150.461H48.3858L50.9003 152.976V168.727L48.3858 171.248Z" fill="#1B2137"/>
<path d="M36.4056 150.455H35.8066V171.242H36.4056V150.455Z" fill="#1B2137"/>
<path d="M45.2064 150.455H44.6074V171.242H45.2064V150.455Z" fill="#1B2137"/>
<path d="M71.2667 171.248H55.5086L52.9941 168.734V152.976L55.5086 150.461H71.2667L73.7811 152.976V168.727L71.2667 171.248Z" fill="#1B2137"/>
<path d="M59.2865 150.455H58.6875V171.242H59.2865V150.455Z" fill="#1B2137"/>
<path d="M68.0873 150.455H67.4883V171.242H68.0873V150.455Z" fill="#1B2137"/>
<path d="M94.1534 171.248H78.3953L75.8809 168.734V152.976L78.3953 150.461H94.1534L96.6678 152.976V168.727L94.1534 171.248Z" fill="#1B2137"/>
<path d="M82.1732 150.455H81.5742V171.242H82.1732V150.455Z" fill="#1B2137"/>
<path d="M90.974 150.455H90.375V171.242H90.974V150.455Z" fill="#1B2137"/>
<path d="M117.032 171.248H101.274L98.7598 168.734V152.976L101.274 150.461H117.032L119.547 152.976V168.727L117.032 171.248Z" fill="#1B2137"/>
<path d="M105.052 150.455H104.453V171.242H105.052V150.455Z" fill="#1B2137"/>
<path d="M113.853 150.455H113.254V171.242H113.853V150.455Z" fill="#1B2137"/>
<path d="M139.92 171.248H124.162L121.641 168.727V152.976L124.155 150.461H139.913L142.428 152.976V168.727L139.92 171.248Z" fill="#1B2137"/>
<path d="M127.939 150.455H127.34V171.242H127.939V150.455Z" fill="#1B2137"/>
<path d="M136.74 150.455H136.141V171.242H136.74V150.455Z" fill="#1B2137"/>
<path d="M162.8 171.248H147.042L144.527 168.734V152.976L147.042 150.461H162.8L165.314 152.976V168.727L162.8 171.248Z" fill="#1B2137"/>
<path d="M150.82 150.455H150.221V171.242H150.82V150.455Z" fill="#1B2137"/>
<path d="M159.62 150.455H159.021V171.242H159.62V150.455Z" fill="#1B2137"/>
<path d="M2.62018 194.135H-13.1379L-15.6523 191.62V175.856L-13.1379 173.341H2.62018L5.13462 175.856V191.614L2.62018 194.135Z" fill="#1B2137"/>
<path d="M25.4991 194.135H9.74101L7.22656 191.62V175.856L9.74101 173.341H25.4991L28.0135 175.856V191.614L25.4991 194.135Z" fill="#1B2137"/>
<path d="M13.5189 173.341H12.9199V194.128H13.5189V173.341Z" fill="#1B2137"/>
<path d="M22.3256 173.341H21.7266V194.128H22.3256V173.341Z" fill="#1B2137"/>
<path d="M48.3858 194.135H32.6277L30.1133 191.62V175.856L32.6277 173.341H48.3858L50.9003 175.856V191.614L48.3858 194.135Z" fill="#1B2137"/>
<path d="M36.4056 173.341H35.8066V194.128H36.4056V173.341Z" fill="#1B2137"/>
<path d="M45.2064 173.341H44.6074V194.128H45.2064V173.341Z" fill="#1B2137"/>
<path d="M71.2667 194.135H55.5086L52.9941 191.62V175.856L55.5086 173.341H71.2667L73.7811 175.856V191.614L71.2667 194.135Z" fill="#1B2137"/>
<path d="M59.2865 173.341H58.6875V194.128H59.2865V173.341Z" fill="#1B2137"/>
<path d="M68.0873 173.341H67.4883V194.128H68.0873V173.341Z" fill="#1B2137"/>
<path d="M94.1534 194.135H78.3953L75.8809 191.62V175.856L78.3953 173.341H94.1534L96.6678 175.856V191.614L94.1534 194.135Z" fill="#1B2137"/>
<path d="M82.1732 173.341H81.5742V194.128H82.1732V173.341Z" fill="#1B2137"/>
<path d="M90.974 173.341H90.375V194.128H90.974V173.341Z" fill="#1B2137"/>
<path d="M117.032 194.135H101.274L98.7598 191.62V175.856L101.274 173.341H117.032L119.547 175.856V191.614L117.032 194.135Z" fill="#1B2137"/>
<path d="M105.052 173.341H104.453V194.128H105.052V173.341Z" fill="#1B2137"/>
<path d="M113.853 173.341H113.254V194.128H113.853V173.341Z" fill="#1B2137"/>
<path d="M139.92 194.135H124.162L121.641 191.614V175.856L124.155 173.341H139.913L142.428 175.856V191.614L139.92 194.135Z" fill="#1B2137"/>
<path d="M127.939 173.341H127.34V194.128H127.939V173.341Z" fill="#1B2137"/>
<path d="M136.74 173.341H136.141V194.128H136.74V173.341Z" fill="#1B2137"/>
<path d="M162.8 194.135H147.042L144.527 191.62V175.856L147.042 173.341H162.8L165.314 175.856V191.614L162.8 194.135Z" fill="#1B2137"/>
<path d="M150.82 173.341H150.221V194.128H150.82V173.341Z" fill="#1B2137"/>
<path d="M159.62 173.341H159.021V194.128H159.62V173.341Z" fill="#1B2137"/>
<path d="M2.62018 217.008H-13.1379L-15.6523 214.494V198.742L-13.1379 196.228H2.62018L5.13462 198.742V214.501L2.62018 217.008Z" fill="#1B2137"/>
<path d="M25.4991 217.008H9.74101L7.22656 214.494V198.742L9.74101 196.228H25.4991L28.0135 198.742V214.501L25.4991 217.008Z" fill="#1B2137"/>
<path d="M13.5189 196.221H12.9199V217.008H13.5189V196.221Z" fill="#1B2137"/>
<path d="M22.3256 196.221H21.7266V217.008H22.3256V196.221Z" fill="#1B2137"/>
<path d="M48.3858 217.008H32.6277L30.1133 214.494V198.742L32.6277 196.228H48.3858L50.9003 198.742V214.501L48.3858 217.008Z" fill="#1B2137"/>
<path d="M36.4056 196.221H35.8066V217.008H36.4056V196.221Z" fill="#1B2137"/>
<path d="M45.2064 196.221H44.6074V217.008H45.2064V196.221Z" fill="#1B2137"/>
<path d="M71.2667 217.008H55.5086L52.9941 214.494V198.742L55.5086 196.228H71.2667L73.7811 198.742V214.501L71.2667 217.008Z" fill="#1B2137"/>
<path d="M59.2865 196.221H58.6875V217.008H59.2865V196.221Z" fill="#1B2137"/>
<path d="M68.0873 196.221H67.4883V217.008H68.0873V196.221Z" fill="#1B2137"/>
<path d="M94.1534 217.008H78.3953L75.8809 214.494V198.742L78.3953 196.228H94.1534L96.6678 198.742V214.501L94.1534 217.008Z" fill="#1B2137"/>
<path d="M82.1732 196.221H81.5742V217.008H82.1732V196.221Z" fill="#1B2137"/>
<path d="M90.974 196.221H90.375V217.008H90.974V196.221Z" fill="#1B2137"/>
<path d="M117.032 217.008H101.274L98.7598 214.494V198.742L101.274 196.228H117.032L119.547 198.742V214.501L117.032 217.008Z" fill="#1B2137"/>
<path d="M105.052 196.221H104.453V217.008H105.052V196.221Z" fill="#1B2137"/>
<path d="M113.853 196.221H113.254V217.008H113.853V196.221Z" fill="#1B2137"/>
<path d="M139.92 217.008H124.162L121.641 214.494V198.742L124.155 196.228H139.913L142.428 198.742V214.501L139.92 217.008Z" fill="#1B2137"/>
<path d="M127.939 196.221H127.34V217.008H127.939V196.221Z" fill="#1B2137"/>
<path d="M136.74 196.221H136.141V217.008H136.74V196.221Z" fill="#1B2137"/>
<path d="M162.8 217.008H147.042L144.527 214.494V198.742L147.042 196.228H162.8L165.314 198.742V214.501L162.8 217.008Z" fill="#1B2137"/>
<path d="M150.82 196.221H150.221V217.008H150.82V196.221Z" fill="#1B2137"/>
<path d="M159.62 196.221H159.021V217.008H159.62V196.221Z" fill="#1B2137"/>
<path d="M2.62018 239.895H-13.1379L-15.6523 237.38V221.622L-13.1379 219.108H2.62018L5.13462 221.622V237.38L2.62018 239.895Z" fill="#1B2137"/>
<path d="M25.4991 239.895H9.74101L7.22656 237.381V221.623L9.74101 219.108H25.4991L28.0135 221.623V237.381L25.4991 239.895Z" fill="#1B2137"/>
<path d="M13.5189 219.108H12.9199V239.895H13.5189V219.108Z" fill="#1B2137"/>
<path d="M22.3256 219.108H21.7266V239.895H22.3256V219.108Z" fill="#1B2137"/>
<path d="M48.3858 239.895H32.6277L30.1133 237.38V221.622L32.6277 219.108H48.3858L50.9003 221.622V237.38L48.3858 239.895Z" fill="#1B2137"/>
<path d="M36.4056 219.108H35.8066V239.895H36.4056V219.108Z" fill="#1B2137"/>
<path d="M45.2064 219.108H44.6074V239.895H45.2064V219.108Z" fill="#1B2137"/>
<path d="M71.2667 239.895H55.5086L52.9941 237.38V221.622L55.5086 219.108H71.2667L73.7811 221.622V237.38L71.2667 239.895Z" fill="#1B2137"/>
<path d="M59.2865 219.108H58.6875V239.895H59.2865V219.108Z" fill="#1B2137"/>
<path d="M68.0873 219.108H67.4883V239.895H68.0873V219.108Z" fill="#1B2137"/>
<path d="M94.1534 239.895H78.3953L75.8809 237.381V221.623L78.3953 219.108H94.1534L96.6678 221.623V237.381L94.1534 239.895Z" fill="#1B2137"/>
<path d="M82.1732 219.108H81.5742V239.895H82.1732V219.108Z" fill="#1B2137"/>
<path d="M90.974 219.108H90.375V239.895H90.974V219.108Z" fill="#1B2137"/>
<path d="M117.032 239.895H101.274L98.7598 237.38V221.622L101.274 219.108H117.032L119.547 221.622V237.38L117.032 239.895Z" fill="#1B2137"/>
<path d="M105.052 219.108H104.453V239.895H105.052V219.108Z" fill="#1B2137"/>
<path d="M113.853 219.108H113.254V239.895H113.853V219.108Z" fill="#1B2137"/>
<path d="M139.92 239.895H124.162L121.641 237.381V221.623L124.155 219.108H139.913L142.428 221.623V237.381L139.92 239.895Z" fill="#1B2137"/>
<path d="M127.939 219.108H127.34V239.895H127.939V219.108Z" fill="#1B2137"/>
<path d="M136.74 219.108H136.141V239.895H136.74V219.108Z" fill="#1B2137"/>
<path d="M162.8 239.895H147.042L144.527 237.38V221.622L147.042 219.108H162.8L165.314 221.622V237.38L162.8 239.895Z" fill="#1B2137"/>
<path d="M150.82 219.108H150.221V239.895H150.82V219.108Z" fill="#1B2137"/>
<path d="M159.62 219.108H159.021V239.895H159.62V219.108Z" fill="#1B2137"/>
<path d="M2.62018 262.775H-13.1379L-15.6523 260.261V244.503L-13.1379 241.988H2.62018L5.13462 244.503V260.261L2.62018 262.775Z" fill="#1B2137"/>
<path d="M25.4991 262.775H9.74101L7.22656 260.261V244.503L9.74101 241.988H25.4991L28.0135 244.503V260.261L25.4991 262.775Z" fill="#1B2137"/>
<path d="M13.5189 241.988H12.9199V262.775H13.5189V241.988Z" fill="#1B2137"/>
<path d="M22.3256 241.988H21.7266V262.775H22.3256V241.988Z" fill="#1B2137"/>
<path d="M48.3858 262.775H32.6277L30.1133 260.261V244.503L32.6277 241.988H48.3858L50.9003 244.503V260.261L48.3858 262.775Z" fill="#1B2137"/>
<path d="M36.4056 241.988H35.8066V262.775H36.4056V241.988Z" fill="#1B2137"/>
<path d="M45.2064 241.988H44.6074V262.775H45.2064V241.988Z" fill="#1B2137"/>
<path d="M71.2667 262.775H55.5086L52.9941 260.261V244.503L55.5086 241.988H71.2667L73.7811 244.503V260.261L71.2667 262.775Z" fill="#1B2137"/>
<path d="M59.2865 241.988H58.6875V262.775H59.2865V241.988Z" fill="#1B2137"/>
<path d="M68.0873 241.988H67.4883V262.775H68.0873V241.988Z" fill="#1B2137"/>
<path d="M94.1534 262.775H78.3953L75.8809 260.261V244.503L78.3953 241.988H94.1534L96.6678 244.503V260.261L94.1534 262.775Z" fill="#1B2137"/>
<path d="M82.1732 241.988H81.5742V262.775H82.1732V241.988Z" fill="#1B2137"/>
<path d="M90.974 241.988H90.375V262.775H90.974V241.988Z" fill="#1B2137"/>
<path d="M117.032 262.775H101.274L98.7598 260.261V244.503L101.274 241.988H117.032L119.547 244.503V260.261L117.032 262.775Z" fill="#1B2137"/>
<path d="M105.052 241.988H104.453V262.775H105.052V241.988Z" fill="#1B2137"/>
<path d="M113.853 241.988H113.254V262.775H113.853V241.988Z" fill="#1B2137"/>
<path d="M139.92 262.775H124.162L121.641 260.261V244.503L124.155 241.988H139.913L142.428 244.503V260.261L139.92 262.775Z" fill="#1B2137"/>
<path d="M127.939 241.988H127.34V262.775H127.939V241.988Z" fill="#1B2137"/>
<path d="M136.74 241.988H136.141V262.775H136.74V241.988Z" fill="#1B2137"/>
<path d="M162.8 262.775H147.042L144.527 260.261V244.503L147.042 241.988H162.8L165.314 244.503V260.261L162.8 262.775Z" fill="#1B2137"/>
<path d="M150.82 241.988H150.221V262.775H150.82V241.988Z" fill="#1B2137"/>
<path d="M159.62 241.988H159.021V262.775H159.62V241.988Z" fill="#1B2137"/>
<path d="M2.62018 285.629H-13.1379L-15.6523 283.115V267.389L-13.1379 264.875H2.62018L5.13462 267.389V283.148L2.62018 285.629Z" fill="#1B2137"/>
<path d="M25.4991 285.629H9.74101L7.22656 283.115V267.389L9.74101 264.875H25.4991L28.0135 267.389V283.148L25.4991 285.629Z" fill="#1B2137"/>
<path d="M13.5189 264.875H12.9199V285.662H13.5189V264.875Z" fill="#1B2137"/>
<path d="M22.3256 264.875H21.7266V285.662H22.3256V264.875Z" fill="#1B2137"/>
<path d="M48.3858 285.629H32.6277L30.1133 283.115V267.389L32.6277 264.875H48.3858L50.9003 267.389V283.148L48.3858 285.629Z" fill="#1B2137"/>
<path d="M36.4056 264.875H35.8066V285.662H36.4056V264.875Z" fill="#1B2137"/>
<path d="M45.2064 264.875H44.6074V285.662H45.2064V264.875Z" fill="#1B2137"/>
<path d="M71.2667 285.629H55.5086L52.9941 283.115V267.389L55.5086 264.875H71.2667L73.7811 267.389V283.148L71.2667 285.629Z" fill="#1B2137"/>
<path d="M59.2865 264.875H58.6875V285.662H59.2865V264.875Z" fill="#1B2137"/>
<path d="M68.0873 264.875H67.4883V285.662H68.0873V264.875Z" fill="#1B2137"/>
<path d="M94.1534 285.629H78.3953L75.8809 283.115V267.389L78.3953 264.875H94.1534L96.6678 267.389V283.148L94.1534 285.629Z" fill="#1B2137"/>
<path d="M82.1732 264.875H81.5742V285.662H82.1732V264.875Z" fill="#1B2137"/>
<path d="M90.974 264.875H90.375V285.662H90.974V264.875Z" fill="#1B2137"/>
<path d="M117.032 285.629H101.274L98.7598 283.115V267.389L101.274 264.875H117.032L119.547 267.389V283.148L117.032 285.629Z" fill="#1B2137"/>
<path d="M105.052 264.875H104.453V285.662H105.052V264.875Z" fill="#1B2137"/>
<path d="M113.853 264.875H113.254V285.662H113.853V264.875Z" fill="#1B2137"/>
<path d="M139.92 285.629H124.162L121.641 283.148V267.389L124.155 264.875H139.913L142.428 267.389V283.148L139.92 285.629Z" fill="#1B2137"/>
<path d="M127.939 264.875H127.34V285.662H127.939V264.875Z" fill="#1B2137"/>
<path d="M136.74 264.875H136.141V285.662H136.74V264.875Z" fill="#1B2137"/>
<path d="M162.8 285.629H147.042L144.527 283.115V267.389L147.042 264.875H162.8L165.314 267.389V283.148L162.8 285.629Z" fill="#1B2137"/>
<path d="M150.82 264.875H150.221V285.662H150.82V264.875Z" fill="#1B2137"/>
<path d="M159.62 264.875H159.021V285.662H159.62V264.875Z" fill="#1B2137"/>
<path d="M2.62018 308.542H-13.1379L-15.6523 306.034V290.269L-13.1379 287.755H2.62018L5.13462 290.269V306.034L2.62018 308.542Z" fill="#1B2137"/>
<path d="M25.4991 308.542H9.74101L7.22656 306.034V290.269L9.74101 287.755H25.4991L28.0135 290.269V306.034L25.4991 308.542Z" fill="#1B2137"/>
<path d="M13.5189 287.755H12.9199V308.542H13.5189V287.755Z" fill="#1B2137"/>
<path d="M22.3256 287.755H21.7266V308.542H22.3256V287.755Z" fill="#1B2137"/>
<path d="M48.3858 308.542H32.6277L30.1133 306.034V290.269L32.6277 287.755H48.3858L50.9003 290.269V306.034L48.3858 308.542Z" fill="#1B2137"/>
<path d="M36.4056 287.755H35.8066V308.542H36.4056V287.755Z" fill="#1B2137"/>
<path d="M45.2064 287.755H44.6074V308.542H45.2064V287.755Z" fill="#1B2137"/>
<path d="M71.2667 308.542H55.5086L52.9941 306.034V290.269L55.5086 287.755H71.2667L73.7811 290.269V306.034L71.2667 308.542Z" fill="#1B2137"/>
<path d="M59.2865 287.755H58.6875V308.542H59.2865V287.755Z" fill="#1B2137"/>
<path d="M68.0873 287.755H67.4883V308.542H68.0873V287.755Z" fill="#1B2137"/>
<path d="M94.1534 308.542H78.3953L75.8809 306.034V290.269L78.3953 287.755H94.1534L96.6678 290.269V306.034L94.1534 308.542Z" fill="#1B2137"/>
<path d="M82.1732 287.755H81.5742V308.542H82.1732V287.755Z" fill="#1B2137"/>
<path d="M90.974 287.755H90.375V308.542H90.974V287.755Z" fill="#1B2137"/>
<path d="M117.032 308.542H101.274L98.7598 306.034V290.269L101.274 287.755H117.032L119.547 290.269V306.034L117.032 308.542Z" fill="#1B2137"/>
<path d="M105.052 287.755H104.453V308.542H105.052V287.755Z" fill="#1B2137"/>
<path d="M113.853 287.755H113.254V308.542H113.853V287.755Z" fill="#1B2137"/>
<path d="M139.92 308.542H124.162L121.641 306.034V290.269L124.155 287.755H139.913L142.428 290.269V306.034L139.92 308.542Z" fill="#1B2137"/>
<path d="M127.939 287.755H127.34V308.542H127.939V287.755Z" fill="#1B2137"/>
<path d="M136.74 287.755H136.141V308.542H136.74V287.755Z" fill="#1B2137"/>
<path d="M162.8 308.542H147.042L144.527 306.034V290.269L147.042 287.755H162.8L165.314 290.269V306.034L162.8 308.542Z" fill="#1B2137"/>
<path d="M150.82 287.755H150.221V308.542H150.82V287.755Z" fill="#1B2137"/>
<path d="M159.62 287.755H159.021V308.542H159.62V287.755Z" fill="#1B2137"/>
</g>
<path d="M367.635 316.928V27.6611L147.015 27.6611L147.015 316.928H367.635Z" fill="white"/>
<path d="M173.641 56.8275H157.909L155.395 54.313V38.555L157.909 36.0405H173.641L176.155 38.555V54.313L173.641 56.8275Z" fill="#1B2137"/>
<path d="M161.687 36.04H161.088V56.827H161.687V36.04Z" fill="#1B2137"/>
<path d="M170.488 36.04H169.889V56.827H170.488V36.04Z" fill="#1B2137"/>
<path d="M196.554 56.8275H180.795L178.248 54.313V38.555L180.763 36.0405H196.521L199.035 38.555V54.313L196.554 56.8275Z" fill="#1B2137"/>
<path d="M184.568 36.04H183.969V56.827H184.568V36.04Z" fill="#1B2137"/>
<path d="M193.374 36.04H192.775V56.827H193.374V36.04Z" fill="#1B2137"/>
<path d="M219.435 56.8275H203.677L201.162 54.313V38.555L203.677 36.0405H219.435L221.949 38.555V54.313L219.435 56.8275Z" fill="#1B2137"/>
<path d="M207.454 36.04H206.855V56.827H207.454V36.04Z" fill="#1B2137"/>
<path d="M216.255 36.04H215.656V56.827H216.255V36.04Z" fill="#1B2137"/>
<path d="M242.315 56.8275H226.563L224.049 54.313V38.555L226.563 36.0405H242.321L244.836 38.555V54.313L242.315 56.8275Z" fill="#1B2137"/>
<path d="M230.335 36.04H229.736V56.827H230.335V36.04Z" fill="#1B2137"/>
<path d="M239.142 36.04H238.543V56.827H239.142V36.04Z" fill="#1B2137"/>
<path d="M265.2 56.8275H249.442L246.928 54.313V38.555L249.442 36.0405H265.2L267.715 38.555V54.313L265.2 56.8275Z" fill="#1B2137"/>
<path d="M253.22 36.04H252.621V56.827H253.22V36.04Z" fill="#1B2137"/>
<path d="M262.021 36.04H261.422V56.827H262.021V36.04Z" fill="#1B2137"/>
<path d="M288.08 56.8275H272.329L269.814 54.313V38.555L272.329 36.0405H288.087L290.601 38.555V54.313L288.08 56.8275Z" fill="#1B2137"/>
<path d="M276.101 36.04H275.502V56.827H276.101V36.04Z" fill="#1B2137"/>
<path d="M284.908 36.04H284.309V56.827H284.908V36.04Z" fill="#1B2137"/>
<path d="M310.968 56.8275H295.21L292.695 54.313V38.555L295.21 36.0405H310.968L313.482 38.555V54.313L310.968 56.8275Z" fill="#1B2137"/>
<path d="M298.988 36.04H298.389V56.827H298.988V36.04Z" fill="#1B2137"/>
<path d="M307.788 36.04H307.189V56.827H307.788V36.04Z" fill="#1B2137"/>
<path d="M333.849 56.8275H318.091L315.576 54.313V38.555L318.091 36.0405H333.849L336.363 38.555V54.313L333.849 56.8275Z" fill="#1B2137"/>
<path d="M173.641 79.7137H157.909L155.395 77.1993V61.4412L157.909 58.9268H173.641L176.155 61.4412V77.1993L173.641 79.7137Z" fill="#1B2137"/>
<path d="M161.687 58.9268H161.088V79.7137H161.687V58.9268Z" fill="#1B2137"/>
<path d="M170.488 58.9263H169.889V79.7132H170.488V58.9263Z" fill="#1B2137"/>
<path d="M196.554 79.7137H180.795L178.248 77.1993V61.4412L180.763 58.9268H196.521L199.035 61.4412V77.1993L196.554 79.7137Z" fill="#1B2137"/>
<path d="M184.568 58.9263H183.969V79.7132H184.568V58.9263Z" fill="#1B2137"/>
<path d="M193.374 58.9263H192.775V79.7132H193.374V58.9263Z" fill="#1B2137"/>
<path d="M219.435 79.7137H203.677L201.162 77.1993V61.4412L203.677 58.9268H219.435L221.949 61.4412V77.1993L219.435 79.7137Z" fill="#1B2137"/>
<path d="M207.454 58.9263H206.855V79.7132H207.454V58.9263Z" fill="#1B2137"/>
<path d="M216.255 58.9263H215.656V79.7132H216.255V58.9263Z" fill="#1B2137"/>
<path d="M242.315 79.7137H226.563L224.049 77.1993V61.4412L226.563 58.9268H242.321L244.836 61.4412V77.1993L242.315 79.7137Z" fill="#1B2137"/>
<path d="M230.335 58.9263H229.736V79.7132H230.335V58.9263Z" fill="#1B2137"/>
<path d="M239.142 58.9263H238.543V79.7132H239.142V58.9263Z" fill="#1B2137"/>
<path d="M265.2 79.7137H249.442L246.928 77.1993V61.4412L249.442 58.9268H265.2L267.715 61.4412V77.1993L265.2 79.7137Z" fill="#1B2137"/>
<path d="M253.22 58.9268H252.621V79.7137H253.22V58.9268Z" fill="#1B2137"/>
<path d="M262.021 58.9263H261.422V79.7132H262.021V58.9263Z" fill="#1B2137"/>
<path d="M288.08 79.7137H272.329L269.814 77.1993V61.4412L272.329 58.9268H288.087L290.601 61.4412V77.1993L288.08 79.7137Z" fill="#1B2137"/>
<path d="M276.101 58.9263H275.502V79.7132H276.101V58.9263Z" fill="#1B2137"/>
<path d="M284.908 58.9263H284.309V79.7132H284.908V58.9263Z" fill="#1B2137"/>
<path d="M310.968 79.7137H295.21L292.695 77.1993V61.4412L295.21 58.9268H310.968L313.482 61.4412V77.1993L310.968 79.7137Z" fill="#1B2137"/>
<path d="M298.988 58.9263H298.389V79.7132H298.988V58.9263Z" fill="#1B2137"/>
<path d="M307.788 58.9263H307.189V79.7132H307.788V58.9263Z" fill="#1B2137"/>
<path d="M333.849 79.7137H318.091L315.576 77.1993V61.4412L318.091 58.9268H333.849L336.363 61.4412V77.1993L333.849 79.7137Z" fill="#1B2137"/>
<path d="M173.641 102.594H157.909L155.395 100.08V84.3216L157.909 81.8071H173.641L176.155 84.3216V100.08L173.641 102.594Z" fill="#1B2137"/>
<path d="M161.687 81.8071H161.088V102.594H161.687V81.8071Z" fill="#1B2137"/>
<path d="M170.488 81.8071H169.889V102.594H170.488V81.8071Z" fill="#1B2137"/>
<path d="M196.554 102.594H180.795L178.248 100.08V84.3216L180.763 81.8071H196.521L199.035 84.3216V100.08L196.554 102.594Z" fill="#1B2137"/>
<path d="M184.568 81.8071H183.969V102.594H184.568V81.8071Z" fill="#1B2137"/>
<path d="M193.374 81.8071H192.775V102.594H193.374V81.8071Z" fill="#1B2137"/>
<path d="M219.435 102.594H203.677L201.162 100.08V84.3216L203.677 81.8071H219.435L221.949 84.3216V100.08L219.435 102.594Z" fill="#1B2137"/>
<path d="M207.454 81.8071H206.855V102.594H207.454V81.8071Z" fill="#1B2137"/>
<path d="M216.255 81.8071H215.656V102.594H216.255V81.8071Z" fill="#1B2137"/>
<path d="M242.315 102.594H226.563L224.049 100.08V84.3216L226.563 81.8071H242.321L244.836 84.3216V100.08L242.315 102.594Z" fill="#1B2137"/>
<path d="M230.335 81.8071H229.736V102.594H230.335V81.8071Z" fill="#1B2137"/>
<path d="M239.142 81.8071H238.543V102.594H239.142V81.8071Z" fill="#1B2137"/>
<path d="M265.2 102.594H249.442L246.928 100.08V84.3216L249.442 81.8071H265.2L267.715 84.3216V100.08L265.2 102.594Z" fill="#1B2137"/>
<path d="M253.22 81.8071H252.621V102.594H253.22V81.8071Z" fill="#1B2137"/>
<path d="M262.021 81.8071H261.422V102.594H262.021V81.8071Z" fill="#1B2137"/>
<path d="M288.08 102.594H272.329L269.814 100.08V84.3216L272.329 81.8071H288.087L290.601 84.3216V100.08L288.08 102.594Z" fill="#1B2137"/>
<path d="M276.101 81.8071H275.502V102.594H276.101V81.8071Z" fill="#1B2137"/>
<path d="M284.908 81.8071H284.309V102.594H284.908V81.8071Z" fill="#1B2137"/>
<path d="M310.968 102.594H295.21L292.695 100.08V84.3216L295.21 81.8071H310.968L313.482 84.3216V100.08L310.968 102.594Z" fill="#1B2137"/>
<path d="M298.988 81.8071H298.389V102.594H298.988V81.8071Z" fill="#1B2137"/>
<path d="M307.788 81.8071H307.189V102.594H307.788V81.8071Z" fill="#1B2137"/>
<path d="M333.849 102.594H318.091L315.576 100.08V84.3216L318.091 81.8071H333.849L336.363 84.3216V100.08L333.849 102.594Z" fill="#1B2137"/>
<path d="M173.641 125.481H157.909L155.395 122.966V107.208L157.909 104.694H173.641L176.155 107.208V122.966L173.641 125.481Z" fill="#1B2137"/>
<path d="M161.687 104.694H161.088V125.481H161.687V104.694Z" fill="#1B2137"/>
<path d="M170.488 104.694H169.889V125.481H170.488V104.694Z" fill="#1B2137"/>
<path d="M196.554 125.482H180.795L178.248 122.961V107.209L180.763 104.695H196.521L199.035 107.209V122.967L196.554 125.482Z" fill="#1B2137"/>
<path d="M184.568 104.694H183.969V125.481H184.568V104.694Z" fill="#1B2137"/>
<path d="M193.374 104.694H192.775V125.481H193.374V104.694Z" fill="#1B2137"/>
<path d="M219.435 125.482H203.677L201.162 122.967V107.209L203.677 104.695H219.435L221.949 107.209V122.967L219.435 125.482Z" fill="#1B2137"/>
<path d="M207.454 104.694H206.855V125.481H207.454V104.694Z" fill="#1B2137"/>
<path d="M216.255 104.694H215.656V125.481H216.255V104.694Z" fill="#1B2137"/>
<path d="M242.315 125.482H226.563L224.049 122.967V107.209L226.563 104.695H242.321L244.836 107.209V122.967L242.315 125.482Z" fill="#1B2137"/>
<path d="M230.335 104.694H229.736V125.481H230.335V104.694Z" fill="#1B2137"/>
<path d="M239.142 104.694H238.543V125.481H239.142V104.694Z" fill="#1B2137"/>
<path d="M265.2 125.481H249.442L246.928 122.966V107.208L249.442 104.694H265.2L267.715 107.208V122.966L265.2 125.481Z" fill="#1B2137"/>
<path d="M253.22 104.694H252.621V125.481H253.22V104.694Z" fill="#1B2137"/>
<path d="M262.021 104.694H261.422V125.481H262.021V104.694Z" fill="#1B2137"/>
<path d="M288.08 125.482H272.329L269.814 122.967V107.209L272.329 104.695H288.087L290.601 107.209V122.967L288.08 125.482Z" fill="#1B2137"/>
<path d="M276.101 104.694H275.502V125.481H276.101V104.694Z" fill="#1B2137"/>
<path d="M284.908 104.694H284.309V125.481H284.908V104.694Z" fill="#1B2137"/>
<path d="M310.968 125.482H295.21L292.695 122.967V107.209L295.21 104.695H310.968L313.482 107.209V122.967L310.968 125.482Z" fill="#1B2137"/>
<path d="M298.988 104.694H298.389V125.481H298.988V104.694Z" fill="#1B2137"/>
<path d="M307.788 104.694H307.189V125.481H307.788V104.694Z" fill="#1B2137"/>
<path d="M333.849 125.481H318.091L315.576 122.966V107.208L318.091 104.694H333.849L336.363 107.208V122.966L333.849 125.481Z" fill="#1B2137"/>
<path d="M173.641 148.361H157.909L155.395 145.846V130.088L157.909 127.574H173.641L176.155 130.088V145.846L173.641 148.361Z" fill="#1B2137"/>
<path d="M161.687 127.575H161.088V148.362H161.687V127.575Z" fill="#1B2137"/>
<path d="M170.488 127.574H169.889V148.361H170.488V127.574Z" fill="#1B2137"/>
<path d="M196.554 148.362H180.795L178.248 145.847V130.089L180.763 127.575H196.521L199.035 130.089V145.847L196.554 148.362Z" fill="#1B2137"/>
<path d="M184.568 127.575H183.969V148.362H184.568V127.575Z" fill="#1B2137"/>
<path d="M193.374 127.574H192.775V148.361H193.374V127.574Z" fill="#1B2137"/>
<path d="M219.435 148.362H203.677L201.162 145.847V130.089L203.677 127.575H219.435L221.949 130.089V145.847L219.435 148.362Z" fill="#1B2137"/>
<path d="M207.454 127.575H206.855V148.362H207.454V127.575Z" fill="#1B2137"/>
<path d="M216.255 127.574H215.656V148.361H216.255V127.574Z" fill="#1B2137"/>
<path d="M242.315 148.362H226.563L224.049 145.847V130.089L226.563 127.575H242.321L244.836 130.089V145.847L242.315 148.362Z" fill="#1B2137"/>
<path d="M230.335 127.574H229.736V148.361H230.335V127.574Z" fill="#1B2137"/>
<path d="M239.142 127.574H238.543V148.361H239.142V127.574Z" fill="#1B2137"/>
<path d="M265.2 148.362H249.442L246.928 145.847V130.089L249.442 127.575H265.2L267.715 130.089V145.847L265.2 148.362Z" fill="#1B2137"/>
<path d="M253.22 127.575H252.621V148.362H253.22V127.575Z" fill="#1B2137"/>
<path d="M262.021 127.574H261.422V148.361H262.021V127.574Z" fill="#1B2137"/>
<path d="M288.08 148.362H272.329L269.814 145.847V130.089L272.329 127.575H288.087L290.601 130.089V145.847L288.08 148.362Z" fill="#1B2137"/>
<path d="M276.101 127.575H275.502V148.362H276.101V127.575Z" fill="#1B2137"/>
<path d="M284.908 127.574H284.309V148.361H284.908V127.574Z" fill="#1B2137"/>
<path d="M310.968 148.362H295.21L292.695 145.847V130.089L295.21 127.575H310.968L313.482 130.089V145.847L310.968 148.362Z" fill="#1B2137"/>
<path d="M298.988 127.575H298.389V148.362H298.988V127.575Z" fill="#1B2137"/>
<path d="M307.788 127.574H307.189V148.361H307.788V127.574Z" fill="#1B2137"/>
<path d="M333.849 148.362H318.091L315.576 145.847V130.089L318.091 127.575H333.849L336.363 130.089V145.847L333.849 148.362Z" fill="#1B2137"/>
<path d="M173.641 171.248H157.909L155.395 168.733V152.975L157.909 150.461H173.641L176.155 152.975V168.727L173.641 171.248Z" fill="#1B2137"/>
<path d="M161.687 150.455H161.088V171.242H161.687V150.455Z" fill="#1B2137"/>
<path d="M170.488 150.455H169.889V171.242H170.488V150.455Z" fill="#1B2137"/>
<path d="M196.554 171.248H180.795L178.248 168.727V152.975L180.763 150.461H196.521L199.035 152.975V168.727L196.554 171.248Z" fill="#1B2137"/>
<path d="M184.568 150.455H183.969V171.242H184.568V150.455Z" fill="#1B2137"/>
<path d="M193.374 150.455H192.775V171.242H193.374V150.455Z" fill="#1B2137"/>
<path d="M219.435 171.248H203.677L201.162 168.733V152.975L203.677 150.461H219.435L221.949 152.975V168.727L219.435 171.248Z" fill="#1B2137"/>
<path d="M207.454 150.455H206.855V171.242H207.454V150.455Z" fill="#1B2137"/>
<path d="M216.255 150.455H215.656V171.242H216.255V150.455Z" fill="#1B2137"/>
<path d="M242.315 171.248H226.563L224.049 168.733V152.975L226.563 150.461H242.321L244.836 152.975V168.727L242.315 171.248Z" fill="#1B2137"/>
<path d="M230.335 150.455H229.736V171.242H230.335V150.455Z" fill="#1B2137"/>
<path d="M239.142 150.455H238.543V171.242H239.142V150.455Z" fill="#1B2137"/>
<path d="M265.2 171.248H249.442L246.928 168.733V152.975L249.442 150.461H265.2L267.715 152.975V168.727L265.2 171.248Z" fill="#1B2137"/>
<path d="M253.22 150.455H252.621V171.242H253.22V150.455Z" fill="#1B2137"/>
<path d="M262.021 150.455H261.422V171.242H262.021V150.455Z" fill="#1B2137"/>
<path d="M288.08 171.248H272.329L269.814 168.733V152.975L272.329 150.461H288.087L290.601 152.975V168.727L288.08 171.248Z" fill="#1B2137"/>
<path d="M276.101 150.455H275.502V171.242H276.101V150.455Z" fill="#1B2137"/>
<path d="M284.908 150.455H284.309V171.242H284.908V150.455Z" fill="#1B2137"/>
<path d="M310.968 171.248H295.21L292.695 168.733V152.975L295.21 150.461H310.968L313.482 152.975V168.727L310.968 171.248Z" fill="#1B2137"/>
<path d="M298.988 150.455H298.389V171.242H298.988V150.455Z" fill="#1B2137"/>
<path d="M307.788 150.455H307.189V171.242H307.788V150.455Z" fill="#1B2137"/>
<path d="M333.849 171.248H318.091L315.576 168.733V152.975L318.091 150.461H333.849L336.363 152.975V168.727L333.849 171.248Z" fill="#1B2137"/>
<path d="M173.641 194.134H157.909L155.395 191.62V175.855L157.909 173.341H173.641L176.155 175.855V191.613L173.641 194.134Z" fill="#1B2137"/>
<path d="M161.687 173.341H161.088V194.128H161.687V173.341Z" fill="#1B2137"/>
<path d="M170.488 173.341H169.889V194.128H170.488V173.341Z" fill="#1B2137"/>
<path d="M196.554 194.134H180.795L178.248 191.613V175.855L180.763 173.341H196.521L199.035 175.855V191.613L196.554 194.134Z" fill="#1B2137"/>
<path d="M184.568 173.341H183.969V194.128H184.568V173.341Z" fill="#1B2137"/>
<path d="M193.374 173.341H192.775V194.128H193.374V173.341Z" fill="#1B2137"/>
<path d="M219.435 194.134H203.677L201.162 191.62V175.855L203.677 173.341H219.435L221.949 175.855V191.613L219.435 194.134Z" fill="#1B2137"/>
<path d="M207.454 173.341H206.855V194.128H207.454V173.341Z" fill="#1B2137"/>
<path d="M216.255 173.341H215.656V194.128H216.255V173.341Z" fill="#1B2137"/>
<path d="M242.315 194.134H226.563L224.049 191.62V175.855L226.563 173.341H242.321L244.836 175.855V191.613L242.315 194.134Z" fill="#1B2137"/>
<path d="M230.335 173.341H229.736V194.128H230.335V173.341Z" fill="#1B2137"/>
<path d="M239.142 173.341H238.543V194.128H239.142V173.341Z" fill="#1B2137"/>
<path d="M265.2 194.134H249.442L246.928 191.62V175.855L249.442 173.341H265.2L267.715 175.855V191.613L265.2 194.134Z" fill="#1B2137"/>
<path d="M253.22 173.341H252.621V194.128H253.22V173.341Z" fill="#1B2137"/>
<path d="M262.021 173.341H261.422V194.128H262.021V173.341Z" fill="#1B2137"/>
<path d="M288.08 194.134H272.329L269.814 191.62V175.855L272.329 173.341H288.087L290.601 175.855V191.613L288.08 194.134Z" fill="#1B2137"/>
<path d="M276.101 173.341H275.502V194.128H276.101V173.341Z" fill="#1B2137"/>
<path d="M284.908 173.341H284.309V194.128H284.908V173.341Z" fill="#1B2137"/>
<path d="M310.968 194.134H295.21L292.695 191.62V175.855L295.21 173.341H310.968L313.482 175.855V191.613L310.968 194.134Z" fill="#1B2137"/>
<path d="M298.988 173.341H298.389V194.128H298.988V173.341Z" fill="#1B2137"/>
<path d="M307.788 173.341H307.189V194.128H307.788V173.341Z" fill="#1B2137"/>
<path d="M333.849 194.134H318.091L315.576 191.62V175.855L318.091 173.341H333.849L336.363 175.855V191.613L333.849 194.134Z" fill="#1B2137"/>
<path d="M173.641 217.008H157.909L155.395 214.494V198.742L157.909 196.228H173.641L176.155 198.742V214.501L173.641 217.008Z" fill="#1B2137"/>
<path d="M161.687 196.221H161.088V217.008H161.687V196.221Z" fill="#1B2137"/>
<path d="M170.488 196.221H169.889V217.008H170.488V196.221Z" fill="#1B2137"/>
<path d="M196.554 217.008H180.795L178.248 214.494V198.742L180.763 196.228H196.521L199.035 198.742V214.501L196.554 217.008Z" fill="#1B2137"/>
<path d="M184.568 196.221H183.969V217.008H184.568V196.221Z" fill="#1B2137"/>
<path d="M193.374 196.221H192.775V217.008H193.374V196.221Z" fill="#1B2137"/>
<path d="M219.435 217.008H203.677L201.162 214.494V198.742L203.677 196.228H219.435L221.949 198.742V214.501L219.435 217.008Z" fill="#1B2137"/>
<path d="M207.454 196.221H206.855V217.008H207.454V196.221Z" fill="#1B2137"/>
<path d="M216.255 196.221H215.656V217.008H216.255V196.221Z" fill="#1B2137"/>
<path d="M242.315 217.008H226.563L224.049 214.494V198.742L226.563 196.228H242.321L244.836 198.742V214.501L242.315 217.008Z" fill="#1B2137"/>
<path d="M230.335 196.221H229.736V217.008H230.335V196.221Z" fill="#1B2137"/>
<path d="M239.142 196.221H238.543V217.008H239.142V196.221Z" fill="#1B2137"/>
<path d="M265.2 217.008H249.442L246.928 214.494V198.742L249.442 196.228H265.2L267.715 198.742V214.501L265.2 217.008Z" fill="#1B2137"/>
<path d="M253.22 196.221H252.621V217.008H253.22V196.221Z" fill="#1B2137"/>
<path d="M262.021 196.221H261.422V217.008H262.021V196.221Z" fill="#1B2137"/>
<path d="M288.08 217.008H272.329L269.814 214.494V198.742L272.329 196.228H288.087L290.601 198.742V214.501L288.08 217.008Z" fill="#1B2137"/>
<path d="M276.101 196.221H275.502V217.008H276.101V196.221Z" fill="#1B2137"/>
<path d="M284.908 196.221H284.309V217.008H284.908V196.221Z" fill="#1B2137"/>
<path d="M310.968 217.008H295.21L292.695 214.494V198.742L295.21 196.228H310.968L313.482 198.742V214.501L310.968 217.008Z" fill="#1B2137"/>
<path d="M298.988 196.221H298.389V217.008H298.988V196.221Z" fill="#1B2137"/>
<path d="M307.788 196.221H307.189V217.008H307.788V196.221Z" fill="#1B2137"/>
<path d="M333.849 217.008H318.091L315.576 214.494V198.742L318.091 196.228H333.849L336.363 198.742V214.501L333.849 217.008Z" fill="#1B2137"/>
<path d="M173.641 239.895H157.909L155.395 237.381V221.623L157.909 219.108H173.641L176.155 221.623V237.381L173.641 239.895Z" fill="#1B2137"/>
<path d="M161.687 219.108H161.088V239.895H161.687V219.108Z" fill="#1B2137"/>
<path d="M170.488 219.108H169.889V239.895H170.488V219.108Z" fill="#1B2137"/>
<path d="M196.554 239.894H180.795L178.248 237.38V221.622L180.763 219.107H196.521L199.035 221.622V237.38L196.554 239.894Z" fill="#1B2137"/>
<path d="M184.568 219.108H183.969V239.895H184.568V219.108Z" fill="#1B2137"/>
<path d="M193.374 219.107H192.775V239.894H193.374V219.107Z" fill="#1B2137"/>
<path d="M219.435 239.894H203.677L201.162 237.38V221.622L203.677 219.107H219.435L221.949 221.622V237.38L219.435 239.894Z" fill="#1B2137"/>
<path d="M207.454 219.108H206.855V239.895H207.454V219.108Z" fill="#1B2137"/>
<path d="M216.255 219.107H215.656V239.894H216.255V219.107Z" fill="#1B2137"/>
<path d="M242.315 239.894H226.563L224.049 237.38V221.622L226.563 219.107H242.321L244.836 221.622V237.38L242.315 239.894Z" fill="#1B2137"/>
<path d="M230.335 219.108H229.736V239.895H230.335V219.108Z" fill="#1B2137"/>
<path d="M239.142 219.107H238.543V239.894H239.142V219.107Z" fill="#1B2137"/>
<path d="M265.2 239.895H249.442L246.928 237.38V221.622L249.442 219.108H265.2L267.715 221.622V237.38L265.2 239.895Z" fill="#1B2137"/>
<path d="M253.22 219.108H252.621V239.895H253.22V219.108Z" fill="#1B2137"/>
<path d="M262.021 219.107H261.422V239.894H262.021V219.107Z" fill="#1B2137"/>
<path d="M288.08 239.894H272.329L269.814 237.38V221.622L272.329 219.107H288.087L290.601 221.622V237.38L288.08 239.894Z" fill="#1B2137"/>
<path d="M276.101 219.108H275.502V239.895H276.101V219.108Z" fill="#1B2137"/>
<path d="M284.908 219.107H284.309V239.894H284.908V219.107Z" fill="#1B2137"/>
<path d="M310.968 239.894H295.21L292.695 237.38V221.622L295.21 219.107H310.968L313.482 221.622V237.38L310.968 239.894Z" fill="#1B2137"/>
<path d="M298.988 219.108H298.389V239.895H298.988V219.108Z" fill="#1B2137"/>
<path d="M307.788 219.107H307.189V239.894H307.788V219.107Z" fill="#1B2137"/>
<path d="M333.849 239.895H318.091L315.576 237.38V221.622L318.091 219.108H333.849L336.363 221.622V237.38L333.849 239.895Z" fill="#1B2137"/>
<path d="M173.641 262.775H157.909L155.395 260.261V244.503L157.909 241.988H173.641L176.155 244.503V260.261L173.641 262.775Z" fill="#1B2137"/>
<path d="M161.687 241.988H161.088V262.775H161.687V241.988Z" fill="#1B2137"/>
<path d="M170.488 241.988H169.889V262.775H170.488V241.988Z" fill="#1B2137"/>
<path d="M196.554 262.775H180.795L178.248 260.261V244.503L180.763 241.988H196.521L199.035 244.503V260.261L196.554 262.775Z" fill="#1B2137"/>
<path d="M184.568 241.988H183.969V262.775H184.568V241.988Z" fill="#1B2137"/>
<path d="M193.374 241.988H192.775V262.775H193.374V241.988Z" fill="#1B2137"/>
<path d="M219.435 262.775H203.677L201.162 260.261V244.503L203.677 241.988H219.435L221.949 244.503V260.261L219.435 262.775Z" fill="#1B2137"/>
<path d="M207.454 241.988H206.855V262.775H207.454V241.988Z" fill="#1B2137"/>
<path d="M216.255 241.988H215.656V262.775H216.255V241.988Z" fill="#1B2137"/>
<path d="M242.315 262.775H226.563L224.049 260.261V244.503L226.563 241.988H242.321L244.836 244.503V260.261L242.315 262.775Z" fill="#1B2137"/>
<path d="M230.335 241.988H229.736V262.775H230.335V241.988Z" fill="#1B2137"/>
<path d="M239.142 241.988H238.543V262.775H239.142V241.988Z" fill="#1B2137"/>
<path d="M265.2 262.775H249.442L246.928 260.261V244.503L249.442 241.988H265.2L267.715 244.503V260.261L265.2 262.775Z" fill="#1B2137"/>
<path d="M253.22 241.988H252.621V262.775H253.22V241.988Z" fill="#1B2137"/>
<path d="M262.021 241.988H261.422V262.775H262.021V241.988Z" fill="#1B2137"/>
<path d="M288.08 262.775H272.329L269.814 260.261V244.503L272.329 241.988H288.087L290.601 244.503V260.261L288.08 262.775Z" fill="#1B2137"/>
<path d="M276.101 241.988H275.502V262.775H276.101V241.988Z" fill="#1B2137"/>
<path d="M284.908 241.988H284.309V262.775H284.908V241.988Z" fill="#1B2137"/>
<path d="M310.968 262.775H295.21L292.695 260.261V244.503L295.21 241.988H310.968L313.482 244.503V260.261L310.968 262.775Z" fill="#1B2137"/>
<path d="M298.988 241.988H298.389V262.775H298.988V241.988Z" fill="#1B2137"/>
<path d="M307.788 241.988H307.189V262.775H307.788V241.988Z" fill="#1B2137"/>
<path d="M333.849 262.775H318.091L315.576 260.261V244.503L318.091 241.988H333.849L336.363 244.503V260.261L333.849 262.775Z" fill="#1B2137"/>
<path d="M173.641 285.629H157.909L155.395 283.114V267.389L157.909 264.875H173.641L176.155 267.389V283.147L173.641 285.629Z" fill="#1B2137"/>
<path d="M161.687 264.875H161.088V285.661H161.687V264.875Z" fill="#1B2137"/>
<path d="M170.488 264.875H169.889V285.661H170.488V264.875Z" fill="#1B2137"/>
<path d="M196.554 285.629H180.795L178.248 283.147V267.389L180.763 264.875H196.521L199.035 267.389V283.147L196.554 285.629Z" fill="#1B2137"/>
<path d="M184.568 264.875H183.969V285.661H184.568V264.875Z" fill="#1B2137"/>
<path d="M193.374 264.875H192.775V285.661H193.374V264.875Z" fill="#1B2137"/>
<path d="M219.435 285.629H203.677L201.162 283.114V267.389L203.677 264.875H219.435L221.949 267.389V283.147L219.435 285.629Z" fill="#1B2137"/>
<path d="M207.454 264.875H206.855V285.661H207.454V264.875Z" fill="#1B2137"/>
<path d="M216.255 264.875H215.656V285.661H216.255V264.875Z" fill="#1B2137"/>
<path d="M242.315 285.629H226.563L224.049 283.114V267.389L226.563 264.875H242.321L244.836 267.389V283.147L242.315 285.629Z" fill="#1B2137"/>
<path d="M230.335 264.875H229.736V285.661H230.335V264.875Z" fill="#1B2137"/>
<path d="M239.142 264.875H238.543V285.661H239.142V264.875Z" fill="#1B2137"/>
<path d="M265.2 285.629H249.442L246.928 283.114V267.389L249.442 264.875H265.2L267.715 267.389V283.147L265.2 285.629Z" fill="#1B2137"/>
<path d="M253.22 264.875H252.621V285.661H253.22V264.875Z" fill="#1B2137"/>
<path d="M262.021 264.875H261.422V285.661H262.021V264.875Z" fill="#1B2137"/>
<path d="M288.08 285.629H272.329L269.814 283.114V267.389L272.329 264.875H288.087L290.601 267.389V283.147L288.08 285.629Z" fill="#1B2137"/>
<path d="M276.101 264.875H275.502V285.661H276.101V264.875Z" fill="#1B2137"/>
<path d="M284.908 264.875H284.309V285.661H284.908V264.875Z" fill="#1B2137"/>
<path d="M310.968 285.629H295.21L292.695 283.114V267.389L295.21 264.875H310.968L313.482 267.389V283.147L310.968 285.629Z" fill="#1B2137"/>
<path d="M298.988 264.875H298.389V285.661H298.988V264.875Z" fill="#1B2137"/>
<path d="M307.788 264.875H307.189V285.661H307.788V264.875Z" fill="#1B2137"/>
<path d="M333.849 285.629H318.091L315.576 283.114V267.389L318.091 264.875H333.849L336.363 267.389V283.147L333.849 285.629Z" fill="#1B2137"/>
<path d="M173.641 308.542H157.909L155.395 306.034V290.269L157.909 287.755H173.641L176.155 290.269V306.034L173.641 308.542Z" fill="#1B2137"/>
<path d="M161.687 287.755H161.088V308.542H161.687V287.755Z" fill="#1B2137"/>
<path d="M170.488 287.755H169.889V308.542H170.488V287.755Z" fill="#1B2137"/>
<path d="M196.554 308.542H180.795L178.248 306.034V290.269L180.763 287.755H196.521L199.035 290.269V306.034L196.554 308.542Z" fill="#1B2137"/>
<path d="M184.568 287.755H183.969V308.542H184.568V287.755Z" fill="#1B2137"/>
<path d="M193.374 287.755H192.775V308.542H193.374V287.755Z" fill="#1B2137"/>
<path d="M219.435 308.542H203.677L201.162 306.034V290.269L203.677 287.755H219.435L221.949 290.269V306.034L219.435 308.542Z" fill="#1B2137"/>
<path d="M207.454 287.755H206.855V308.542H207.454V287.755Z" fill="#1B2137"/>
<path d="M216.255 287.755H215.656V308.542H216.255V287.755Z" fill="#1B2137"/>
<path d="M242.315 308.542H226.563L224.049 306.034V290.269L226.563 287.755H242.321L244.836 290.269V306.034L242.315 308.542Z" fill="#1B2137"/>
<path d="M230.335 287.755H229.736V308.542H230.335V287.755Z" fill="#1B2137"/>
<path d="M239.142 287.755H238.543V308.542H239.142V287.755Z" fill="#1B2137"/>
<path d="M265.2 308.542H249.442L246.928 306.034V290.269L249.442 287.755H265.2L267.715 290.269V306.034L265.2 308.542Z" fill="#1B2137"/>
<path d="M253.22 287.755H252.621V308.542H253.22V287.755Z" fill="#1B2137"/>
<path d="M262.021 287.755H261.422V308.542H262.021V287.755Z" fill="#1B2137"/>
<path d="M288.081 308.542H272.33L269.809 306.034V290.269L272.323 287.755H288.081L290.596 290.269V306.034L288.081 308.542Z" fill="#1B2137"/>
<path d="M276.101 287.755H275.502V308.542H276.101V287.755Z" fill="#1B2137"/>
<path d="M284.908 287.755H284.309V308.542H284.908V287.755Z" fill="#1B2137"/>
<path d="M310.968 308.542H295.21L292.695 306.034V290.269L295.21 287.755H310.968L313.482 290.269V306.034L310.968 308.542Z" fill="#1B2137"/>
<path d="M298.988 287.755H298.389V308.542H298.988V287.755Z" fill="#1B2137"/>
<path d="M307.788 287.755H307.189V308.542H307.788V287.755Z" fill="#1B2137"/>
<path d="M333.849 308.542H318.091L315.576 306.034V290.269L318.091 287.755H333.849L336.363 290.269V306.034L333.849 308.542Z" fill="#1B2137"/>
<path d="M299.593 35.0259H299.1V307.583H299.593V35.0259Z" fill="white"/>
<path d="M308.48 35.0259H307.986V307.583H308.48V35.0259Z" fill="white"/>
<path style="mix-blend-mode:multiply" opacity="0.4" d="M36.3706 27.6548H-0.773438V317.323H36.3706V27.6548Z" fill="url(#paint0_linear)"/>
<g filter="url(#filter1_d)">
<path d="M287.469 329.09V15.4924C287.469 10.0385 283.047 5.61719 277.593 5.61719L43.1085 5.61719C37.6545 5.61719 33.2332 10.0385 33.2332 15.4925L33.2332 329.09C33.2332 334.544 37.6545 338.966 43.1085 338.966H277.593C283.047 338.966 287.469 334.544 287.469 329.09Z" fill="white"/>
<path d="M63.9526 39.2336H45.7986L42.9023 36.3374V18.1833L45.7986 15.2871H63.9592L66.8554 18.1833V36.3439L63.9526 39.2336Z" fill="#1B2137"/>
<path d="M50.1501 15.2803H49.459V39.2333H50.1501V15.2803Z" fill="#1B2137"/>
<path d="M60.2927 15.2803H59.6016V39.2333H60.2927V15.2803Z" fill="#1B2137"/>
<path d="M90.3283 39.2336H72.1677L69.2715 36.3374V18.1833L72.1677 15.2871H90.3283L93.2246 18.1833V36.3439L90.3283 39.2336Z" fill="#1B2137"/>
<path d="M76.5173 15.2803H75.8262V39.2333H76.5173V15.2803Z" fill="#1B2137"/>
<path d="M86.6618 15.2803H85.9707V39.2333H86.6618V15.2803Z" fill="#1B2137"/>
<path d="M116.697 39.2336H98.5368L95.6406 36.3374V18.1833L98.5368 15.2871H116.697L119.594 18.1833V36.3439L116.697 39.2336Z" fill="#1B2137"/>
<path d="M102.886 15.2803H102.195V39.2333H102.886V15.2803Z" fill="#1B2137"/>
<path d="M113.031 15.2803H112.34V39.2333H113.031V15.2803Z" fill="#1B2137"/>
<path d="M143.068 39.2336H124.933L122.037 36.3374V18.1833L124.933 15.2871H143.094L145.99 18.1833V36.3439L143.068 39.2336Z" fill="#1B2137"/>
<path d="M129.258 15.2803H128.566V39.2333H129.258V15.2803Z" fill="#1B2137"/>
<path d="M139.41 15.2803H138.719V39.2333H139.41V15.2803Z" fill="#1B2137"/>
<path d="M169.433 39.2336H151.259L148.363 36.3374V18.1833L151.259 15.2871H169.42L172.316 18.1833V36.3439L169.433 39.2336Z" fill="#1B2137"/>
<path d="M155.631 15.2803H154.939V39.2333H155.631V15.2803Z" fill="#1B2137"/>
<path d="M165.773 15.2803H165.082V39.2333H165.773V15.2803Z" fill="#1B2137"/>
<path d="M195.804 39.2336H177.65L174.754 36.3374V18.1833L177.65 15.2871H195.811L198.707 18.1833V36.3439L195.804 39.2336Z" fill="#1B2137"/>
<path d="M182 15.2803H181.309V39.2333H182V15.2803Z" fill="#1B2137"/>
<path d="M192.144 15.2803H191.453V39.2333H192.144V15.2803Z" fill="#1B2137"/>
<path d="M222.173 39.2336H204.019L201.123 36.3374V18.1833L204.019 15.2871H222.18L225.076 18.1833V36.3439L222.173 39.2336Z" fill="#1B2137"/>
<path d="M208.371 15.2803H207.68V39.2333H208.371V15.2803Z" fill="#1B2137"/>
<path d="M218.513 15.2803H217.822V39.2333H218.513V15.2803Z" fill="#1B2137"/>
<path d="M248.549 39.2336H230.388L227.492 36.3374V18.1833L230.388 15.2871H248.549L251.445 18.1833V36.3439L248.549 39.2336Z" fill="#1B2137"/>
<path d="M234.738 15.2803H234.047V39.2333H234.738V15.2803Z" fill="#1B2137"/>
<path d="M244.883 15.2803H244.191V39.2333H244.883V15.2803Z" fill="#1B2137"/>
<path d="M274.916 39.2336H256.756L253.859 36.3374V18.1833L256.756 15.2871H274.916L277.812 18.1833V36.3439L274.916 39.2336Z" fill="#1B2137"/>
<path d="M261.107 15.2803H260.416V39.2333H261.107V15.2803Z" fill="#1B2137"/>
<path d="M271.25 15.2803H270.559V39.2333H271.25V15.2803Z" fill="#1B2137"/>
<path d="M63.9545 65.6083H45.8005L42.9043 62.7121V44.5515L45.8005 41.6553H63.9611L66.8574 44.5515V62.7121L63.9545 65.6083Z" fill="#1B2137"/>
<path d="M50.1521 41.6489H49.4609V65.602H50.1521V41.6489Z" fill="#1B2137"/>
<path d="M60.2947 41.6484H59.6035V65.6015H60.2947V41.6484Z" fill="#1B2137"/>
<path d="M90.3283 65.6088H72.1677L69.2715 62.7126V44.552L72.1677 41.6558H90.3283L93.2246 44.552V62.7126L90.3283 65.6088Z" fill="#1B2137"/>
<path d="M76.5173 41.6489H75.8262V65.602H76.5173V41.6489Z" fill="#1B2137"/>
<path d="M86.6618 41.6484H85.9707V65.6015H86.6618V41.6484Z" fill="#1B2137"/>
<path d="M116.697 65.6088H98.5368L95.6406 62.7126V44.552L98.5368 41.6558H116.697L119.594 44.552V62.7126L116.697 65.6088Z" fill="#1B2137"/>
<path d="M102.886 41.6489H102.195V65.602H102.886V41.6489Z" fill="#1B2137"/>
<path d="M113.031 41.6484H112.34V65.6015H113.031V41.6484Z" fill="#1B2137"/>
<path d="M143.068 65.6088H124.933L122.037 62.7126V44.552L124.933 41.6558H143.094L145.99 44.552V62.7126L143.068 65.6088Z" fill="#1B2137"/>
<path d="M129.258 41.6489H128.566V65.602H129.258V41.6489Z" fill="#1B2137"/>
<path d="M139.41 41.6484H138.719V65.6015H139.41V41.6484Z" fill="#1B2137"/>
<path d="M169.435 65.6088H151.261L148.365 62.7126V44.552L151.261 41.6558H169.422L172.318 44.552V62.7126L169.435 65.6088Z" fill="#1B2137"/>
<path d="M155.633 41.6489H154.941V65.602H155.633V41.6489Z" fill="#1B2137"/>
<path d="M165.775 41.6484H165.084V65.6015H165.775V41.6484Z" fill="#1B2137"/>
<path d="M195.804 65.6088H177.65L174.754 62.7126V44.552L177.65 41.6558H195.811L198.707 44.552V62.7126L195.804 65.6088Z" fill="#1B2137"/>
<path d="M182 41.6489H181.309V65.602H182V41.6489Z" fill="#1B2137"/>
<path d="M192.144 41.6484H191.453V65.6015H192.144V41.6484Z" fill="#1B2137"/>
<path d="M222.175 65.6088H204.021L201.125 62.7126V44.552L204.021 41.6558H222.182L225.078 44.552V62.7126L222.175 65.6088Z" fill="#1B2137"/>
<path d="M208.373 41.6489H207.682V65.602H208.373V41.6489Z" fill="#1B2137"/>
<path d="M218.515 41.6484H217.824V65.6015H218.515V41.6484Z" fill="#1B2137"/>
<path d="M248.549 65.6088H230.388L227.492 62.7126V44.552L230.388 41.6558H248.549L251.445 44.552V62.7126L248.549 65.6088Z" fill="#1B2137"/>
<path d="M234.738 41.6489H234.047V65.602H234.738V41.6489Z" fill="#1B2137"/>
<path d="M244.883 41.6484H244.191V65.6015H244.883V41.6484Z" fill="#1B2137"/>
<path d="M274.918 65.6088H256.758L253.861 62.7126V44.552L256.758 41.6558H274.918L277.814 44.552V62.7126L274.918 65.6088Z" fill="#1B2137"/>
<path d="M261.109 41.6489H260.418V65.602H261.109V41.6489Z" fill="#1B2137"/>
<path d="M271.252 41.6484H270.561V65.6015H271.252V41.6484Z" fill="#1B2137"/>
<path d="M63.9526 91.9775H45.7986L42.9023 89.0813V70.9206L45.7986 68.0244H63.9592L66.8554 70.9206V89.0813L63.9526 91.9775Z" fill="#1B2137"/>
<path d="M50.1501 68.0244H49.459V91.9775H50.1501V68.0244Z" fill="#1B2137"/>
<path d="M60.2927 68.0244H59.6016V91.9775H60.2927V68.0244Z" fill="#1B2137"/>
<path d="M90.3283 91.9775H72.1677L69.2715 89.0813V70.9206L72.1677 68.0244H90.3283L93.2246 70.9206V89.0813L90.3283 91.9775Z" fill="#1B2137"/>
<path d="M76.5173 68.0244H75.8262V91.9775H76.5173V68.0244Z" fill="#1B2137"/>
<path d="M86.6618 68.0244H85.9707V91.9775H86.6618V68.0244Z" fill="#1B2137"/>
<path d="M116.697 91.9775H98.5368L95.6406 89.0813V70.9206L98.5368 68.0244H116.697L119.594 70.9206V89.0813L116.697 91.9775Z" fill="#1B2137"/>
<path d="M102.886 68.0244H102.195V91.9775H102.886V68.0244Z" fill="#1B2137"/>
<path d="M113.031 68.0244H112.34V91.9775H113.031V68.0244Z" fill="#1B2137"/>
<path d="M143.068 91.9775H124.933L122.037 89.0813V70.9206L124.933 68.0244H143.094L145.99 70.9206V89.0813L143.068 91.9775Z" fill="#1B2137"/>
<path d="M129.258 68.0244H128.566V91.9775H129.258V68.0244Z" fill="#1B2137"/>
<path d="M139.41 68.0244H138.719V91.9775H139.41V68.0244Z" fill="#1B2137"/>
<path d="M169.433 91.9775H151.259L148.363 89.0813V70.9206L151.259 68.0244H169.42L172.316 70.9206V89.0813L169.433 91.9775Z" fill="#1B2137"/>
<path d="M155.631 68.0244H154.939V91.9775H155.631V68.0244Z" fill="#1B2137"/>
<path d="M165.773 68.0244H165.082V91.9775H165.773V68.0244Z" fill="#1B2137"/>
<path d="M195.804 91.9775H177.65L174.754 89.0813V70.9206L177.65 68.0244H195.811L198.707 70.9206V89.0813L195.804 91.9775Z" fill="#1B2137"/>
<path d="M182 68.0244H181.309V91.9775H182V68.0244Z" fill="#1B2137"/>
<path d="M192.144 68.0244H191.453V91.9775H192.144V68.0244Z" fill="#1B2137"/>
<path d="M222.173 91.9775H204.019L201.123 89.0813V70.9206L204.019 68.0244H222.18L225.076 70.9206V89.0813L222.173 91.9775Z" fill="#1B2137"/>
<path d="M208.371 68.0244H207.68V91.9775H208.371V68.0244Z" fill="#1B2137"/>
<path d="M218.513 68.0244H217.822V91.9775H218.513V68.0244Z" fill="#1B2137"/>
<path d="M248.549 91.9775H230.388L227.492 89.0813V70.9206L230.388 68.0244H248.549L251.445 70.9206V89.0813L248.549 91.9775Z" fill="#1B2137"/>
<path d="M234.738 68.0244H234.047V91.9775H234.738V68.0244Z" fill="#1B2137"/>
<path d="M244.883 68.0244H244.191V91.9775H244.883V68.0244Z" fill="#1B2137"/>
<path d="M274.916 91.9775H256.756L253.859 89.0813V70.9206L256.756 68.0244H274.916L277.812 70.9206V89.0813L274.916 91.9775Z" fill="#1B2137"/>
<path d="M261.107 68.0244H260.416V91.9775H261.107V68.0244Z" fill="#1B2137"/>
<path d="M271.25 68.0244H270.559V91.9775H271.25V68.0244Z" fill="#1B2137"/>
<path d="M63.9526 118.347H45.7986L42.9023 115.451V97.2903L45.7986 94.394H63.9592L66.8554 97.2903V115.451L63.9526 118.347Z" fill="#1B2137"/>
<path d="M50.1501 94.394H49.459V118.347H50.1501V94.394Z" fill="#1B2137"/>
<path d="M60.2927 94.3931H59.6016V118.346H60.2927V94.3931Z" fill="#1B2137"/>
<path d="M90.3283 118.347H72.1677L69.2715 115.45V97.2898L72.1677 94.3936H90.3283L93.2246 97.2898V115.45L90.3283 118.347Z" fill="#1B2137"/>
<path d="M76.5173 94.3936H75.8262V118.347H76.5173V94.3936Z" fill="#1B2137"/>
<path d="M86.6618 94.3926H85.9707V118.346H86.6618V94.3926Z" fill="#1B2137"/>
<path d="M116.697 118.347H98.5368L95.6406 115.45V97.2898L98.5368 94.3936H116.697L119.594 97.2898V115.45L116.697 118.347Z" fill="#1B2137"/>
<path d="M102.886 94.3936H102.195V118.347H102.886V94.3936Z" fill="#1B2137"/>
<path d="M113.031 94.3926H112.34V118.346H113.031V94.3926Z" fill="#1B2137"/>
<path d="M143.066 118.346H124.931L122.035 115.449V97.2888L124.931 94.3926H143.092L145.988 97.2888V115.449L143.066 118.346Z" fill="#1B2137"/>
<path d="M129.258 94.3936H128.566V118.347H129.258V94.3936Z" fill="#1B2137"/>
<path d="M139.41 94.3926H138.719V118.346H139.41V94.3926Z" fill="#1B2137"/>
<path d="M169.435 118.346H151.261L148.365 115.449V97.2888L151.261 94.3926H169.422L172.318 97.2888V115.449L169.435 118.346Z" fill="#1B2137"/>
<path d="M155.631 94.3936H154.939V118.347H155.631V94.3936Z" fill="#1B2137"/>
<path d="M165.773 94.3926H165.082V118.346H165.773V94.3926Z" fill="#1B2137"/>
<path d="M195.802 118.346H177.648L174.752 115.449V97.2888L177.648 94.3926H195.809L198.705 97.2888V115.449L195.802 118.346Z" fill="#1B2137"/>
<path d="M182 94.3936H181.309V118.347H182V94.3936Z" fill="#1B2137"/>
<path d="M192.144 94.3926H191.453V118.346H192.144V94.3926Z" fill="#1B2137"/>
<path d="M222.173 118.347H204.019L201.123 115.45V97.2898L204.019 94.3936H222.18L225.076 97.2898V115.45L222.173 118.347Z" fill="#1B2137"/>
<path d="M208.371 94.3936H207.68V118.347H208.371V94.3936Z" fill="#1B2137"/>
<path d="M218.513 94.3926H217.822V118.346H218.513V94.3926Z" fill="#1B2137"/>
<path d="M248.547 118.346H230.386L227.49 115.449V97.2888L230.386 94.3926H248.547L251.443 97.2888V115.449L248.547 118.346Z" fill="#1B2137"/>
<path d="M234.738 94.3936H234.047V118.347H234.738V94.3936Z" fill="#1B2137"/>
<path d="M244.883 94.3926H244.191V118.346H244.883V94.3926Z" fill="#1B2137"/>
<path d="M274.916 118.346H256.756L253.859 115.449V97.2888L256.756 94.3926H274.916L277.812 97.2888V115.449L274.916 118.346Z" fill="#1B2137"/>
<path d="M261.107 94.3936H260.416V118.347H261.107V94.3936Z" fill="#1B2137"/>
<path d="M271.25 94.3926H270.559V118.346H271.25V94.3926Z" fill="#1B2137"/>
<path d="M63.9526 144.715H45.7986L42.9023 141.819V123.658L45.7986 120.762H63.9592L66.8554 123.658V141.819L63.9526 144.715Z" fill="#1B2137"/>
<path d="M50.1501 120.762H49.459V144.715H50.1501V120.762Z" fill="#1B2137"/>
<path d="M60.2927 120.762H59.6016V144.715H60.2927V120.762Z" fill="#1B2137"/>
<path d="M90.3283 144.715H72.1677L69.2715 141.819V123.658L72.1677 120.762H90.3283L93.2246 123.658V141.819L90.3283 144.715Z" fill="#1B2137"/>
<path d="M76.5173 120.762H75.8262V144.715H76.5173V120.762Z" fill="#1B2137"/>
<path d="M86.6618 120.762H85.9707V144.715H86.6618V120.762Z" fill="#1B2137"/>
<path d="M116.697 144.715H98.5368L95.6406 141.819V123.658L98.5368 120.762H116.697L119.594 123.658V141.819L116.697 144.715Z" fill="#1B2137"/>
<path d="M102.886 120.762H102.195V144.715H102.886V120.762Z" fill="#1B2137"/>
<path d="M113.031 120.762H112.34V144.715H113.031V120.762Z" fill="#1B2137"/>
<path d="M143.068 144.715H124.933L122.037 141.819V123.658L124.933 120.762H143.094L145.99 123.658V141.819L143.068 144.715Z" fill="#1B2137"/>
<path d="M129.258 120.762H128.566V144.715H129.258V120.762Z" fill="#1B2137"/>
<path d="M139.41 120.762H138.719V144.715H139.41V120.762Z" fill="#1B2137"/>
<path d="M169.433 144.715H151.259L148.363 141.819V123.658L151.259 120.762H169.42L172.316 123.658V141.819L169.433 144.715Z" fill="#1B2137"/>
<path d="M155.631 120.762H154.939V144.715H155.631V120.762Z" fill="#1B2137"/>
<path d="M165.773 120.762H165.082V144.715H165.773V120.762Z" fill="#1B2137"/>
<path d="M195.804 144.715H177.65L174.754 141.819V123.658L177.65 120.762H195.811L198.707 123.658V141.819L195.804 144.715Z" fill="#1B2137"/>
<path d="M182 120.762H181.309V144.715H182V120.762Z" fill="#1B2137"/>
<path d="M192.144 120.762H191.453V144.715H192.144V120.762Z" fill="#1B2137"/>
<path d="M222.173 144.715H204.019L201.123 141.819V123.658L204.019 120.762H222.18L225.076 123.658V141.819L222.173 144.715Z" fill="#1B2137"/>
<path d="M208.371 120.762H207.68V144.715H208.371V120.762Z" fill="#1B2137"/>
<path d="M218.513 120.762H217.822V144.715H218.513V120.762Z" fill="#1B2137"/>
<path d="M248.549 144.715H230.388L227.492 141.819V123.658L230.388 120.762H248.549L251.445 123.658V141.819L248.549 144.715Z" fill="#1B2137"/>
<path d="M234.738 120.762H234.047V144.715H234.738V120.762Z" fill="#1B2137"/>
<path d="M244.883 120.762H244.191V144.715H244.883V120.762Z" fill="#1B2137"/>
<path d="M274.916 144.715H256.756L253.859 141.819V123.658L256.756 120.762H274.916L277.812 123.658V141.819L274.916 144.715Z" fill="#1B2137"/>
<path d="M261.107 120.762H260.416V144.715H261.107V120.762Z" fill="#1B2137"/>
<path d="M271.25 120.762H270.559V144.715H271.25V120.762Z" fill="#1B2137"/>
<path d="M63.9526 171.098H45.7986L42.9023 168.202V150.034L45.7986 147.138H63.9592L66.8554 150.034V168.195L63.9526 171.098Z" fill="#1B2137"/>
<path d="M50.1501 147.131H49.459V171.084H50.1501V147.131Z" fill="#1B2137"/>
<path d="M60.2927 147.131H59.6016V171.084H60.2927V147.131Z" fill="#1B2137"/>
<path d="M90.3283 171.098H72.1677L69.2715 168.202V150.034L72.1677 147.138H90.3283L93.2246 150.034V168.195L90.3283 171.098Z" fill="#1B2137"/>
<path d="M76.5173 147.131H75.8262V171.084H76.5173V147.131Z" fill="#1B2137"/>
<path d="M86.6618 147.13H85.9707V171.083H86.6618V147.13Z" fill="#1B2137"/>
<path d="M116.697 171.098H98.5368L95.6406 168.202V150.034L98.5368 147.138H116.697L119.594 150.034V168.195L116.697 171.098Z" fill="#1B2137"/>
<path d="M102.886 147.131H102.195V171.084H102.886V147.131Z" fill="#1B2137"/>
<path d="M113.031 147.13H112.34V171.083H113.031V147.13Z" fill="#1B2137"/>
<path d="M143.068 171.098H124.933L122.037 168.202V150.034L124.933 147.138H143.094L145.997 150.034V168.195L143.068 171.098Z" fill="#1B2137"/>
<path d="M129.258 147.131H128.566V171.084H129.258V147.131Z" fill="#1B2137"/>
<path d="M139.41 147.13H138.719V171.083H139.41V147.13Z" fill="#1B2137"/>
<path d="M169.433 171.098H151.259L148.363 168.202V150.034L151.259 147.138H169.42L172.323 150.034V168.195L169.433 171.098Z" fill="#1B2137"/>
<path d="M155.631 147.131H154.939V171.084H155.631V147.131Z" fill="#1B2137"/>
<path d="M165.773 147.13H165.082V171.083H165.773V147.13Z" fill="#1B2137"/>
<path d="M195.804 171.098H177.65L174.754 168.202V150.034L177.65 147.138H195.811L198.707 150.034V168.195L195.804 171.098Z" fill="#1B2137"/>
<path d="M182 147.131H181.309V171.084H182V147.131Z" fill="#1B2137"/>
<path d="M192.144 147.13H191.453V171.083H192.144V147.13Z" fill="#1B2137"/>
<path d="M222.173 171.098H204.019L201.123 168.202V150.034L204.019 147.138H222.18L225.076 150.034V168.195L222.173 171.098Z" fill="#1B2137"/>
<path d="M208.371 147.131H207.68V171.084H208.371V147.131Z" fill="#1B2137"/>
<path d="M218.513 147.13H217.822V171.083H218.513V147.13Z" fill="#1B2137"/>
<path d="M248.549 171.098H230.388L227.492 168.202V150.034L230.388 147.138H248.549L251.445 150.034V168.195L248.549 171.098Z" fill="#1B2137"/>
<path d="M234.738 147.131H234.047V171.084H234.738V147.131Z" fill="#1B2137"/>
<path d="M244.883 147.13H244.191V171.083H244.883V147.13Z" fill="#1B2137"/>
<path d="M274.916 171.098H256.756L253.859 168.202V150.034L256.756 147.138H274.916L277.812 150.034V168.195L274.916 171.098Z" fill="#1B2137"/>
<path d="M261.107 147.131H260.416V171.084H261.107V147.131Z" fill="#1B2137"/>
<path d="M271.25 147.13H270.559V171.083H271.25V147.13Z" fill="#1B2137"/>
<path d="M63.9526 197.426H45.7986L42.9023 194.53V176.403L45.7986 173.506H63.9592L66.8554 176.403V194.563L63.9526 197.426Z" fill="#1B2137"/>
<path d="M50.1501 173.5H49.459V197.453H50.1501V173.5Z" fill="#1B2137"/>
<path d="M60.2927 173.5H59.6016V197.453H60.2927V173.5Z" fill="#1B2137"/>
<path d="M90.3283 197.426H72.1677L69.2715 194.53V176.403L72.1677 173.506H90.3283L93.2246 176.403V194.563L90.3283 197.426Z" fill="#1B2137"/>
<path d="M76.5173 173.5H75.8262V197.453H76.5173V173.5Z" fill="#1B2137"/>
<path d="M86.6618 173.5H85.9707V197.453H86.6618V173.5Z" fill="#1B2137"/>
<path d="M116.697 197.426H98.5368L95.6406 194.53V176.403L98.5368 173.506H116.697L119.594 176.403V194.563L116.697 197.426Z" fill="#1B2137"/>
<path d="M102.886 173.5H102.195V197.453H102.886V173.5Z" fill="#1B2137"/>
<path d="M113.031 173.5H112.34V197.453H113.031V173.5Z" fill="#1B2137"/>
<path d="M143.068 197.426H124.933L122.037 194.53V176.403L124.933 173.506H143.094L145.99 176.403V194.563L143.068 197.426Z" fill="#1B2137"/>
<path d="M129.258 173.5H128.566V197.453H129.258V173.5Z" fill="#1B2137"/>
<path d="M139.41 173.5H138.719V197.453H139.41V173.5Z" fill="#1B2137"/>
<path d="M169.433 197.426H151.259L148.363 194.53V176.403L151.259 173.506H169.42L172.316 176.403V194.563L169.433 197.426Z" fill="#1B2137"/>
<path d="M155.631 173.5H154.939V197.453H155.631V173.5Z" fill="#1B2137"/>
<path d="M165.773 173.5H165.082V197.453H165.773V173.5Z" fill="#1B2137"/>
<path d="M195.804 197.426H177.65L174.754 194.53V176.403L177.65 173.506H195.811L198.707 176.403V194.563L195.804 197.426Z" fill="#1B2137"/>
<path d="M182 173.5H181.309V197.453H182V173.5Z" fill="#1B2137"/>
<path d="M192.144 173.5H191.453V197.453H192.144V173.5Z" fill="#1B2137"/>
<path d="M222.173 197.426H204.019L201.123 194.53V176.403L204.019 173.506H222.18L225.076 176.403V194.563L222.173 197.426Z" fill="#1B2137"/>
<path d="M208.371 173.5H207.68V197.453H208.371V173.5Z" fill="#1B2137"/>
<path d="M218.513 173.5H217.822V197.453H218.513V173.5Z" fill="#1B2137"/>
<path d="M248.549 197.426H230.388L227.492 194.53V176.403L230.388 173.506H248.549L251.445 176.403V194.563L248.549 197.426Z" fill="#1B2137"/>
<path d="M234.738 173.5H234.047V197.453H234.738V173.5Z" fill="#1B2137"/>
<path d="M244.883 173.5H244.191V197.453H244.883V173.5Z" fill="#1B2137"/>
<path d="M274.916 197.426H256.756L253.859 194.53V176.403L256.756 173.506H274.916L277.812 176.403V194.563L274.916 197.426Z" fill="#1B2137"/>
<path d="M261.107 173.5H260.416V197.453H261.107V173.5Z" fill="#1B2137"/>
<path d="M271.25 173.5H270.559V197.453H271.25V173.5Z" fill="#1B2137"/>
<path d="M63.9526 223.828H45.7986L42.9023 220.932V202.771L45.7986 199.875H63.9592L66.8554 202.771V220.925L63.9526 223.828Z" fill="#1B2137"/>
<path d="M50.1501 199.869H49.459V223.822H50.1501V199.869Z" fill="#1B2137"/>
<path d="M60.2927 199.869H59.6016V223.822H60.2927V199.869Z" fill="#1B2137"/>
<path d="M90.3283 223.828H72.1677L69.2715 220.932V202.771L72.1677 199.875H90.3283L93.2246 202.771V220.925L90.3283 223.828Z" fill="#1B2137"/>
<path d="M76.5173 199.869H75.8262V223.822H76.5173V199.869Z" fill="#1B2137"/>
<path d="M86.6618 199.869H85.9707V223.822H86.6618V199.869Z" fill="#1B2137"/>
<path d="M116.697 223.828H98.5368L95.6406 220.932V202.771L98.5368 199.875H116.697L119.594 202.771V220.925L116.697 223.828Z" fill="#1B2137"/>
<path d="M102.886 199.869H102.195V223.822H102.886V199.869Z" fill="#1B2137"/>
<path d="M113.031 199.869H112.34V223.822H113.031V199.869Z" fill="#1B2137"/>
<path d="M143.068 223.828H124.933L122.037 220.932V202.771L124.933 199.875H143.094L145.99 202.771V220.925L143.068 223.828Z" fill="#1B2137"/>
<path d="M129.258 199.869H128.566V223.822H129.258V199.869Z" fill="#1B2137"/>
<path d="M139.41 199.869H138.719V223.822H139.41V199.869Z" fill="#1B2137"/>
<path d="M169.433 223.828H151.259L148.363 220.932V202.771L151.259 199.875H169.42L172.316 202.771V220.925L169.433 223.828Z" fill="#1B2137"/>
<path d="M155.631 199.869H154.939V223.822H155.631V199.869Z" fill="#1B2137"/>
<path d="M165.773 199.869H165.082V223.822H165.773V199.869Z" fill="#1B2137"/>
<path d="M195.804 223.828H177.65L174.754 220.932V202.771L177.65 199.875H195.811L198.707 202.771V220.925L195.804 223.828Z" fill="#1B2137"/>
<path d="M182 199.869H181.309V223.822H182V199.869Z" fill="#1B2137"/>
<path d="M192.144 199.869H191.453V223.822H192.144V199.869Z" fill="#1B2137"/>
<path d="M222.173 223.828H204.019L201.123 220.932V202.771L204.019 199.875H222.18L225.076 202.771V220.925L222.173 223.828Z" fill="#1B2137"/>
<path d="M208.371 199.869H207.68V223.822H208.371V199.869Z" fill="#1B2137"/>
<path d="M218.513 199.869H217.822V223.822H218.513V199.869Z" fill="#1B2137"/>
<path d="M248.549 223.828H230.388L227.492 220.932V202.771L230.388 199.875H248.549L251.445 202.771V220.925L248.549 223.828Z" fill="#1B2137"/>
<path d="M234.738 199.869H234.047V223.822H234.738V199.869Z" fill="#1B2137"/>
<path d="M244.883 199.869H244.191V223.822H244.883V199.869Z" fill="#1B2137"/>
<path d="M274.916 223.828H256.756L253.859 220.932V202.771L256.756 199.875H274.916L277.812 202.771V220.925L274.916 223.828Z" fill="#1B2137"/>
<path d="M261.107 199.869H260.416V223.822H261.107V199.869Z" fill="#1B2137"/>
<path d="M271.25 199.869H270.559V223.822H271.25V199.869Z" fill="#1B2137"/>
<path d="M63.9526 250.197H45.7986L42.9023 247.3V229.14L45.7986 226.244H63.9592L66.8554 229.14V247.3L63.9526 250.197Z" fill="#1B2137"/>
<path d="M50.1501 226.244H49.459V250.197H50.1501V226.244Z" fill="#1B2137"/>
<path d="M60.2927 226.244H59.6016V250.197H60.2927V226.244Z" fill="#1B2137"/>
<path d="M90.3283 250.197H72.1677L69.2715 247.3V229.14L72.1677 226.244H90.3283L93.2246 229.14V247.3L90.3283 250.197Z" fill="#1B2137"/>
<path d="M76.5173 226.244H75.8262V250.197H76.5173V226.244Z" fill="#1B2137"/>
<path d="M86.6618 226.244H85.9707V250.197H86.6618V226.244Z" fill="#1B2137"/>
<path d="M116.697 250.197H98.5368L95.6406 247.3V229.14L98.5368 226.244H116.697L119.594 229.14V247.3L116.697 250.197Z" fill="#1B2137"/>
<path d="M102.886 226.244H102.195V250.197H102.886V226.244Z" fill="#1B2137"/>
<path d="M113.031 226.244H112.34V250.197H113.031V226.244Z" fill="#1B2137"/>
<path d="M143.068 250.197H124.933L122.037 247.3V229.14L124.933 226.244H143.094L145.99 229.14V247.3L143.068 250.197Z" fill="#1B2137"/>
<path d="M129.258 226.244H128.566V250.197H129.258V226.244Z" fill="#1B2137"/>
<path d="M139.41 226.244H138.719V250.197H139.41V226.244Z" fill="#1B2137"/>
<path d="M169.433 250.197H151.259L148.363 247.3V229.14L151.259 226.244H169.42L172.316 229.14V247.3L169.433 250.197Z" fill="#1B2137"/>
<path d="M155.631 226.244H154.939V250.197H155.631V226.244Z" fill="#1B2137"/>
<path d="M165.773 226.244H165.082V250.197H165.773V226.244Z" fill="#1B2137"/>
<path d="M195.804 250.197H177.65L174.754 247.3V229.14L177.65 226.244H195.811L198.707 229.14V247.3L195.804 250.197Z" fill="#1B2137"/>
<path d="M182 226.244H181.309V250.197H182V226.244Z" fill="#1B2137"/>
<path d="M192.144 226.244H191.453V250.197H192.144V226.244Z" fill="#1B2137"/>
<path d="M222.173 250.197H204.019L201.123 247.3V229.14L204.019 226.244H222.18L225.076 229.14V247.3L222.173 250.197Z" fill="#1B2137"/>
<path d="M208.371 226.244H207.68V250.197H208.371V226.244Z" fill="#1B2137"/>
<path d="M218.513 226.244H217.822V250.197H218.513V226.244Z" fill="#1B2137"/>
<path d="M248.549 250.197H230.388L227.492 247.3V229.14L230.388 226.244H248.549L251.445 229.14V247.3L248.549 250.197Z" fill="#1B2137"/>
<path d="M234.738 226.244H234.047V250.197H234.738V226.244Z" fill="#1B2137"/>
<path d="M244.883 226.244H244.191V250.197H244.883V226.244Z" fill="#1B2137"/>
<path d="M274.916 250.197H256.756L253.859 247.3V229.14L256.756 226.244H274.916L277.812 229.14V247.3L274.916 250.197Z" fill="#1B2137"/>
<path d="M261.107 226.244H260.416V250.197H261.107V226.244Z" fill="#1B2137"/>
<path d="M271.25 226.244H270.559V250.197H271.25V226.244Z" fill="#1B2137"/>
<path d="M63.9526 276.565H45.7986L42.9023 273.669V255.509L45.7986 252.612H63.9592L66.8554 255.509V273.669L63.9526 276.565Z" fill="#1B2137"/>
<path d="M50.1501 252.612H49.459V276.565H50.1501V252.612Z" fill="#1B2137"/>
<path d="M60.2927 252.612H59.6016V276.565H60.2927V252.612Z" fill="#1B2137"/>
<path d="M90.3283 276.566H72.1677L69.2715 273.67V255.509L72.1677 252.613H90.3283L93.2246 255.509V273.67L90.3283 276.566Z" fill="#1B2137"/>
<path d="M76.5173 252.612H75.8262V276.565H76.5173V252.612Z" fill="#1B2137"/>
<path d="M86.6618 252.612H85.9707V276.565H86.6618V252.612Z" fill="#1B2137"/>
<path d="M116.697 276.566H98.5368L95.6406 273.67V255.509L98.5368 252.613H116.697L119.594 255.509V273.67L116.697 276.566Z" fill="#1B2137"/>
<path d="M102.886 252.612H102.195V276.565H102.886V252.612Z" fill="#1B2137"/>
<path d="M113.031 252.612H112.34V276.565H113.031V252.612Z" fill="#1B2137"/>
<path d="M143.068 276.566H124.933L122.037 273.67V255.509L124.933 252.613H143.094L145.99 255.509V273.67L143.068 276.566Z" fill="#1B2137"/>
<path d="M129.258 252.612H128.566V276.565H129.258V252.612Z" fill="#1B2137"/>
<path d="M139.41 252.612H138.719V276.565H139.41V252.612Z" fill="#1B2137"/>
<path d="M169.433 276.566H151.259L148.363 273.67V255.509L151.259 252.613H169.42L172.316 255.509V273.67L169.433 276.566Z" fill="#1B2137"/>
<path d="M155.631 252.612H154.939V276.565H155.631V252.612Z" fill="#1B2137"/>
<path d="M165.773 252.612H165.082V276.565H165.773V252.612Z" fill="#1B2137"/>
<path d="M195.804 276.566H177.65L174.754 273.67V255.509L177.65 252.613H195.811L198.707 255.509V273.67L195.804 276.566Z" fill="#1B2137"/>
<path d="M182 252.612H181.309V276.565H182V252.612Z" fill="#1B2137"/>
<path d="M192.144 252.612H191.453V276.565H192.144V252.612Z" fill="#1B2137"/>
<path d="M222.173 276.566H204.019L201.123 273.67V255.509L204.019 252.613H222.18L225.076 255.509V273.67L222.173 276.566Z" fill="#1B2137"/>
<path d="M208.371 252.612H207.68V276.565H208.371V252.612Z" fill="#1B2137"/>
<path d="M218.513 252.612H217.822V276.565H218.513V252.612Z" fill="#1B2137"/>
<path d="M248.549 276.566H230.388L227.492 273.67V255.509L230.388 252.613H248.549L251.445 255.509V273.67L248.549 276.566Z" fill="#1B2137"/>
<path d="M234.738 252.612H234.047V276.565H234.738V252.612Z" fill="#1B2137"/>
<path d="M244.883 252.612H244.191V276.565H244.883V252.612Z" fill="#1B2137"/>
<path d="M274.916 276.566H256.756L253.859 273.67V255.509L256.756 252.613H274.916L277.812 255.509V273.67L274.916 276.566Z" fill="#1B2137"/>
<path d="M261.107 252.612H260.416V276.565H261.107V252.612Z" fill="#1B2137"/>
<path d="M271.25 252.612H270.559V276.565H271.25V252.612Z" fill="#1B2137"/>
<path d="M63.9526 302.934H45.7986L42.9023 300.038V281.878L45.7986 278.981H63.9592L66.8554 281.878V300.038L63.9526 302.934Z" fill="#1B2137"/>
<path d="M50.1501 278.981H49.459V302.934H50.1501V278.981Z" fill="#1B2137"/>
<path d="M60.2927 278.981H59.6016V302.934H60.2927V278.981Z" fill="#1B2137"/>
<path d="M90.3283 302.934H72.1677L69.2715 300.038V281.878L72.1677 278.981H90.3283L93.2246 281.878V300.038L90.3283 302.934Z" fill="#1B2137"/>
<path d="M76.5173 278.981H75.8262V302.934H76.5173V278.981Z" fill="#1B2137"/>
<path d="M86.6618 278.981H85.9707V302.934H86.6618V278.981Z" fill="#1B2137"/>
<path d="M116.697 302.934H98.5368L95.6406 300.038V281.878L98.5368 278.981H116.697L119.594 281.878V300.038L116.697 302.934Z" fill="#1B2137"/>
<path d="M102.886 278.981H102.195V302.934H102.886V278.981Z" fill="#1B2137"/>
<path d="M113.031 278.981H112.34V302.934H113.031V278.981Z" fill="#1B2137"/>
<path d="M143.068 302.934H124.933L122.037 300.038V281.878L124.933 278.981H143.094L145.99 281.878V300.038L143.068 302.934Z" fill="#1B2137"/>
<path d="M129.258 278.981H128.566V302.934H129.258V278.981Z" fill="#1B2137"/>
<path d="M139.41 278.981H138.719V302.934H139.41V278.981Z" fill="#1B2137"/>
<path d="M169.433 302.934H151.259L148.363 300.038V281.878L151.259 278.981H169.42L172.316 281.878V300.038L169.433 302.934Z" fill="#1B2137"/>
<path d="M155.631 278.981H154.939V302.934H155.631V278.981Z" fill="#1B2137"/>
<path d="M165.773 278.981H165.082V302.934H165.773V278.981Z" fill="#1B2137"/>
<path d="M195.804 302.934H177.65L174.754 300.038V281.878L177.65 278.981H195.811L198.707 281.878V300.038L195.804 302.934Z" fill="#1B2137"/>
<path d="M182 278.981H181.309V302.934H182V278.981Z" fill="#1B2137"/>
<path d="M192.144 278.981H191.453V302.934H192.144V278.981Z" fill="#1B2137"/>
<path d="M222.173 302.934H204.019L201.123 300.038V281.878L204.019 278.981H222.18L225.076 281.878V300.038L222.173 302.934Z" fill="#1B2137"/>
<path d="M208.371 278.981H207.68V302.934H208.371V278.981Z" fill="#1B2137"/>
<path d="M218.513 278.981H217.822V302.934H218.513V278.981Z" fill="#1B2137"/>
<path d="M248.549 302.934H230.388L227.492 300.038V281.878L230.388 278.981H248.549L251.445 281.878V300.038L248.549 302.934Z" fill="#1B2137"/>
<path d="M234.738 278.981H234.047V302.934H234.738V278.981Z" fill="#1B2137"/>
<path d="M244.883 278.981H244.191V302.934H244.883V278.981Z" fill="#1B2137"/>
<path d="M274.916 302.934H256.756L253.859 300.038V281.878L256.756 278.981H274.916L277.812 281.878V300.038L274.916 302.934Z" fill="#1B2137"/>
<path d="M261.107 278.981H260.416V302.934H261.107V278.981Z" fill="#1B2137"/>
<path d="M271.25 278.981H270.559V302.934H271.25V278.981Z" fill="#1B2137"/>
<path d="M63.9526 329.304H45.7986L42.9023 326.407V308.247L45.7986 305.351H63.9592L66.8554 308.247V326.407L63.9526 329.304Z" fill="#1B2137"/>
<path d="M50.1501 305.35H49.459V329.303H50.1501V305.35Z" fill="#1B2137"/>
<path d="M60.2927 305.35H59.6016V329.303H60.2927V305.35Z" fill="#1B2137"/>
<path d="M90.3283 329.303H72.1677L69.2715 326.407V308.246L72.1677 305.35H90.3283L93.2246 308.246V326.407L90.3283 329.303Z" fill="#1B2137"/>
<path d="M76.5173 305.35H75.8262V329.303H76.5173V305.35Z" fill="#1B2137"/>
<path d="M86.6618 305.35H85.9707V329.303H86.6618V305.35Z" fill="#1B2137"/>
<path d="M116.697 329.303H98.5368L95.6406 326.407V308.246L98.5368 305.35H116.697L119.594 308.246V326.407L116.697 329.303Z" fill="#1B2137"/>
<path d="M102.886 305.35H102.195V329.303H102.886V305.35Z" fill="#1B2137"/>
<path d="M113.031 305.35H112.34V329.303H113.031V305.35Z" fill="#1B2137"/>
<path d="M143.068 329.303H124.933L122.037 326.407V308.246L124.933 305.376H143.094L145.99 308.272V326.433L143.068 329.303Z" fill="#1B2137"/>
<path d="M129.258 305.35H128.566V329.303H129.258V305.35Z" fill="#1B2137"/>
<path d="M139.41 305.35H138.719V329.303H139.41V305.35Z" fill="#1B2137"/>
<path d="M169.433 329.303H151.259L148.363 326.407V308.246L151.259 305.376H169.42L172.316 308.272V326.433L169.433 329.303Z" fill="#1B2137"/>
<path d="M155.631 305.35H154.939V329.303H155.631V305.35Z" fill="#1B2137"/>
<path d="M165.773 305.35H165.082V329.303H165.773V305.35Z" fill="#1B2137"/>
<path d="M195.804 329.303H177.65L174.754 326.407V308.246L177.65 305.35H195.811L198.707 308.246V326.407L195.804 329.303Z" fill="#1B2137"/>
<path d="M182 305.35H181.309V329.303H182V305.35Z" fill="#1B2137"/>
<path d="M192.144 305.35H191.453V329.303H192.144V305.35Z" fill="#1B2137"/>
<path d="M222.173 329.303H204.019L201.123 326.407V308.246L204.019 305.35H222.18L225.076 308.246V326.407L222.173 329.303Z" fill="#1B2137"/>
<path d="M208.371 305.35H207.68V329.303H208.371V305.35Z" fill="#1B2137"/>
<path d="M218.513 305.35H217.822V329.303H218.513V305.35Z" fill="#1B2137"/>
<path d="M248.549 329.303H230.388L227.492 326.407V308.246L230.388 305.35H248.549L251.445 308.246V326.407L248.549 329.303Z" fill="#1B2137"/>
<path d="M234.738 305.35H234.047V329.303H234.738V305.35Z" fill="#1B2137"/>
<path d="M244.883 305.35H244.191V329.303H244.883V305.35Z" fill="#1B2137"/>
<path d="M274.916 329.303H256.756L253.859 326.407V308.246L256.756 305.35H274.916L277.812 308.246V326.407L274.916 329.303Z" fill="#1B2137"/>
<path d="M261.107 305.35H260.416V329.303H261.107V305.35Z" fill="#1B2137"/>
<path d="M271.25 305.35H270.559V329.303H271.25V305.35Z" fill="#1B2137"/>
</g>
<path d="M13.7047 36.0132H13.2109V308.57H13.7047V36.0132Z" fill="white"/>
<path d="M51.2301 15.2749H50.7363V329.308H51.2301V15.2749Z" fill="white"/>
<path d="M77.4 15.2749H76.9062V329.308H77.4V15.2749Z" fill="white"/>
<path d="M103.57 15.2749H103.076V329.308H103.57V15.2749Z" fill="white"/>
<path d="M130.232 15.2749H129.738V329.308H130.232V15.2749Z" fill="white"/>
<path d="M156.402 15.2749H155.908V329.308H156.402V15.2749Z" fill="white"/>
<path d="M182.572 15.2749H182.078V329.308H182.572V15.2749Z" fill="white"/>
<path d="M209.234 15.2749H208.74V329.308H209.234V15.2749Z" fill="white"/>
<path d="M235.404 15.2749H234.91V329.308H235.404V15.2749Z" fill="white"/>
<path d="M262.068 15.2749H261.574V329.308H262.068V15.2749Z" fill="white"/>
<path d="M22.5914 36.0132H22.0977V308.57H22.5914V36.0132Z" fill="white"/>
<path d="M60.1188 15.2749H59.625V329.308H60.1188V15.2749Z" fill="white"/>
<path d="M86.2867 15.2749H85.793V329.308H86.2867V15.2749Z" fill="white"/>
<path d="M112.457 15.2749H111.963V329.308H112.457V15.2749Z" fill="white"/>
<path d="M139.121 15.2749H138.627V329.308H139.121V15.2749Z" fill="white"/>
<path d="M165.291 15.2749H164.797V329.308H165.291V15.2749Z" fill="white"/>
<path d="M191.459 15.2749H190.965V329.308H191.459V15.2749Z" fill="white"/>
<path d="M218.123 15.2749H217.629V329.308H218.123V15.2749Z" fill="white"/>
<path d="M244.293 15.2749H243.799V329.308H244.293V15.2749Z" fill="white"/>
<path d="M270.955 15.2749H270.461V329.308H270.955V15.2749Z" fill="white"/>
<defs>
<filter id="filter0_d" x="-51.8576" y="22.7172" width="230.495" height="299.142" filterUnits="userSpaceOnUse" color-interpolation-filters="sRGB">
<feFlood flood-opacity="0" result="BackgroundImageFix"/>
<feColorMatrix in="SourceAlpha" type="matrix" values="0 0 0 0 0 0 0 0 0 0 0 0 0 0 0 0 0 0 127 0"/>
<feOffset/>
<feGaussianBlur stdDeviation="2.46882"/>
<feColorMatrix type="matrix" values="0 0 0 0 0 0 0 0 0 0 0 0 0 0 0 0 0 0 0.1 0"/>
<feBlend mode="normal" in2="BackgroundImageFix" result="effect1_dropShadow"/>
<feBlend mode="normal" in="SourceGraphic" in2="effect1_dropShadow" result="shape"/>
</filter>
<filter id="filter1_d" x="28.2948" y="0.679557" width="264.111" height="343.224" filterUnits="userSpaceOnUse" color-interpolation-filters="sRGB">
<feFlood flood-opacity="0" result="BackgroundImageFix"/>
<feColorMatrix in="SourceAlpha" type="matrix" values="0 0 0 0 0 0 0 0 0 0 0 0 0 0 0 0 0 0 127 0"/>
<feOffset/>
<feGaussianBlur stdDeviation="2.46882"/>
<feColorMatrix type="matrix" values="0 0 0 0 0 0 0 0 0 0 0 0 0 0 0 0 0 0 0.1 0"/>
<feBlend mode="normal" in2="BackgroundImageFix" result="effect1_dropShadow"/>
<feBlend mode="normal" in="SourceGraphic" in2="effect1_dropShadow" result="shape"/>
</filter>
<linearGradient id="paint0_linear" x1="39.825" y1="168.953" x2="-1.76157" y2="168.953" gradientUnits="userSpaceOnUse">
<stop stop-color="#71756F"/>
<stop offset="0.03" stop-color="#828680"/>
<stop offset="0.1" stop-color="#A3A6A2"/>
<stop offset="0.18" stop-color="#C0C2BF"/>
<stop offset="0.27" stop-color="#D7D8D7"/>
<stop offset="0.37" stop-color="#E9EAE9"/>
<stop offset="0.49" stop-color="#F6F6F6"/>
<stop offset="0.65" stop-color="#FDFDFD"/>
<stop offset="1" stop-color="white"/>
</linearGradient>
</defs>
</svg>
