<svg width="200" height="200" viewBox="0 0 200 200" fill="none" xmlns="http://www.w3.org/2000/svg">
<rect width="200" height="200" fill="#F8F8F8"/>
<path d="M79.7228 157.96H82.2668L88.8908 175H86.0588L84.2588 170.368H77.6828L75.9068 175H73.0508L79.7228 157.96ZM83.7308 168.376L80.9948 160.912L78.1628 168.376H83.7308ZM95.6399 158.032H98.1599L100.272 163.816L102.408 158.032H104.928L102 165.616L104.544 171.88L109.848 157.96H112.8L105.816 175H103.488L100.296 167.368L97.0799 175H94.7279L87.7679 157.96H90.6959L96.0239 171.88L98.5679 165.616L95.6399 158.032ZM124.445 161.968C124.237 161.728 123.893 161.48 123.413 161.224C122.949 160.952 122.405 160.72 121.781 160.528C121.157 160.336 120.509 160.24 119.837 160.24C118.701 160.24 117.861 160.448 117.317 160.864C116.789 161.28 116.525 161.856 116.525 162.592C116.525 163.136 116.677 163.568 116.981 163.888C117.285 164.192 117.749 164.456 118.373 164.68C118.997 164.888 119.781 165.104 120.725 165.328C121.877 165.6 122.869 165.928 123.701 166.312C124.549 166.68 125.197 167.176 125.645 167.8C126.109 168.424 126.341 169.248 126.341 170.272C126.341 171.44 126.061 172.384 125.501 173.104C124.941 173.824 124.181 174.352 123.221 174.688C122.277 175.008 121.237 175.168 120.101 175.168C118.805 175.168 117.549 174.968 116.333 174.568C115.117 174.168 114.029 173.6 113.069 172.864L114.293 170.56C114.565 170.832 114.997 171.144 115.589 171.496C116.181 171.832 116.869 172.128 117.653 172.384C118.453 172.624 119.285 172.744 120.149 172.744C121.205 172.744 122.021 172.56 122.597 172.192C123.173 171.808 123.461 171.264 123.461 170.56C123.461 169.984 123.269 169.528 122.885 169.192C122.517 168.84 121.981 168.552 121.277 168.328C120.589 168.088 119.757 167.84 118.781 167.584C117.661 167.296 116.725 166.968 115.973 166.6C115.221 166.232 114.653 165.768 114.269 165.208C113.901 164.648 113.717 163.92 113.717 163.024C113.717 161.904 113.989 160.96 114.533 160.192C115.077 159.408 115.813 158.824 116.741 158.44C117.685 158.04 118.741 157.84 119.909 157.84C121.061 157.84 122.125 158.024 123.101 158.392C124.077 158.76 124.933 159.216 125.669 159.76L124.445 161.968Z" fill="#171718"/>
<path d="M75.124 75.3979C75.124 76.8936 75.2848 78.1064 75.5663 78.9957C75.888 79.8851 76.2902 80.8553 76.8532 81.9064C77.0542 82.2298 77.1347 82.5532 77.1347 82.8362C77.1347 83.2404 76.8934 83.6447 76.3706 84.0489L73.8372 85.7468C73.4752 85.9894 73.1133 86.1106 72.7916 86.1106C72.3895 86.1106 71.9873 85.9085 71.5852 85.5447C71.0222 84.9383 70.5396 84.2915 70.1375 83.6447C69.7354 82.9575 69.3332 82.1894 68.8909 81.2596C65.7542 84.9787 61.8133 86.8383 57.0681 86.8383C53.6901 86.8383 50.9958 85.8681 49.0254 83.9277C47.0549 81.9872 46.0496 79.4 46.0496 76.166C46.0496 72.7298 47.256 69.9404 49.709 67.8383C52.162 65.7362 55.4193 64.6851 59.5613 64.6851C60.9286 64.6851 62.3361 64.8064 63.824 65.0085C65.3119 65.2106 66.84 65.534 68.4485 65.8979V62.9468C68.4485 59.8745 67.8051 57.7319 66.5585 56.4787C65.2717 55.2255 63.1001 54.6191 60.0037 54.6191C58.5962 54.6191 57.1485 54.7809 55.6606 55.1447C54.1727 55.5085 52.725 55.9532 51.3175 56.5191C50.6741 56.8021 50.1916 56.9638 49.9101 57.0447C49.6286 57.1255 49.4275 57.166 49.2666 57.166C48.7037 57.166 48.4222 56.7617 48.4222 55.9128V53.9319C48.4222 53.2851 48.5026 52.8 48.7037 52.517C48.9047 52.234 49.2666 51.9511 49.8296 51.6681C51.2371 50.9404 52.9261 50.334 54.8966 49.8489C56.867 49.3234 58.9581 49.0809 61.1699 49.0809C65.9553 49.0809 69.4539 50.1723 71.7058 52.3553C73.9176 54.5383 75.0436 57.8532 75.0436 62.3V75.3979H75.124ZM58.7973 81.5426C60.1243 81.5426 61.4916 81.3 62.9393 80.8149C64.387 80.3298 65.6738 79.4404 66.7596 78.2277C67.403 77.4596 67.8855 76.6106 68.1268 75.6404C68.3681 74.6702 68.529 73.4979 68.529 72.1234V70.4255C67.3628 70.1426 66.1161 69.9 64.8293 69.7383C63.5425 69.5766 62.2959 69.4957 61.0492 69.4957C58.3549 69.4957 56.3845 70.0213 55.0574 71.1128C53.7304 72.2043 53.0869 73.7404 53.0869 75.7617C53.0869 77.6617 53.5695 79.0766 54.5748 80.0468C55.54 81.0574 56.9474 81.5426 58.7973 81.5426ZM91.0888 85.9085C90.3649 85.9085 89.8824 85.7872 89.5607 85.5043C89.239 85.2617 88.9575 84.6957 88.7162 83.9277L79.266 52.6787C79.0247 51.8702 78.9041 51.3447 78.9041 51.0617C78.9041 50.4149 79.2258 50.0511 79.8692 50.0511H83.8101C84.5742 50.0511 85.097 50.1723 85.3785 50.4553C85.7002 50.6979 85.9414 51.2638 86.1827 52.0319L92.9386 78.7936L99.2119 52.0319C99.413 51.2234 99.6543 50.6979 99.976 50.4553C100.298 50.2128 100.861 50.0511 101.585 50.0511H104.802C105.566 50.0511 106.088 50.1723 106.41 50.4553C106.732 50.6979 107.013 51.2638 107.174 52.0319L113.528 79.117L120.485 52.0319C120.726 51.2234 121.008 50.6979 121.289 50.4553C121.611 50.2128 122.134 50.0511 122.858 50.0511H126.597C127.241 50.0511 127.603 50.3745 127.603 51.0617C127.603 51.2638 127.563 51.466 127.522 51.7085C127.482 51.9511 127.402 52.2745 127.241 52.7191L117.549 83.9681C117.308 84.7766 117.027 85.3021 116.705 85.5447C116.383 85.7872 115.86 85.9489 115.177 85.9489H111.718C110.954 85.9489 110.432 85.8277 110.11 85.5447C109.788 85.2617 109.507 84.7362 109.346 83.9277L103.113 57.8532L96.9198 83.8872C96.7187 84.6957 96.4774 85.2213 96.1557 85.5043C95.834 85.7872 95.271 85.9085 94.5472 85.9085H91.0888ZM142.763 87C140.672 87 138.581 86.7575 136.57 86.2723C134.56 85.7872 132.991 85.2617 131.946 84.6553C131.302 84.2915 130.86 83.8872 130.699 83.5234C130.538 83.1596 130.458 82.7553 130.458 82.3915V80.3298C130.458 79.4809 130.78 79.0766 131.383 79.0766C131.624 79.0766 131.865 79.117 132.107 79.1979C132.348 79.2787 132.71 79.4404 133.112 79.6021C134.479 80.2085 135.967 80.6936 137.535 81.017C139.144 81.3404 140.712 81.5021 142.321 81.5021C144.854 81.5021 146.825 81.0574 148.192 80.1681C149.559 79.2787 150.283 77.9851 150.283 76.3277C150.283 75.1957 149.921 74.266 149.197 73.4979C148.474 72.7298 147.106 72.0426 145.136 71.3957L139.305 69.5766C136.369 68.6468 134.198 67.2723 132.871 65.4532C131.544 63.6745 130.86 61.6936 130.86 59.5915C130.86 57.8936 131.222 56.3979 131.946 55.1043C132.67 53.8106 133.635 52.6787 134.841 51.7894C136.048 50.8596 137.415 50.1723 139.023 49.6872C140.632 49.2021 142.321 49 144.09 49C144.975 49 145.9 49.0404 146.785 49.1617C147.71 49.283 148.554 49.4447 149.398 49.6064C150.203 49.8085 150.967 50.0106 151.691 50.2532C152.415 50.4957 152.978 50.7383 153.38 50.9809C153.943 51.3043 154.345 51.6277 154.586 51.9915C154.827 52.3149 154.948 52.7596 154.948 53.3255V55.2255C154.948 56.0745 154.626 56.5191 154.023 56.5191C153.701 56.5191 153.179 56.3574 152.495 56.034C150.203 54.983 147.629 54.4574 144.774 54.4574C142.482 54.4574 140.672 54.8213 139.426 55.5894C138.179 56.3574 137.535 57.5298 137.535 59.1872C137.535 60.3191 137.938 61.2894 138.742 62.0574C139.546 62.8255 141.034 63.5936 143.165 64.2809L148.876 66.1C151.771 67.0298 153.862 68.3234 155.109 69.9809C156.355 71.6383 156.959 73.5383 156.959 75.6404C156.959 77.3787 156.597 78.9553 155.913 80.3298C155.189 81.7043 154.224 82.917 152.978 83.8872C151.731 84.8979 150.243 85.6255 148.514 86.1511C146.704 86.717 144.814 87 142.763 87Z" fill="#252F3E"/>
<path fill-rule="evenodd" clip-rule="evenodd" d="M150.298 106.166C136.949 115.856 117.553 121 100.877 121C77.5051 121 56.4462 112.506 40.5405 98.3896C39.2826 97.2731 40.4187 95.7577 41.9201 96.635C59.1242 106.445 80.3454 112.387 102.297 112.387C117.107 112.387 133.378 109.356 148.351 103.135C150.582 102.138 152.489 104.571 150.298 106.166Z" fill="#FF9900"/>
<path fill-rule="evenodd" clip-rule="evenodd" d="M155.857 99.9448C154.153 97.7914 144.577 98.908 140.236 99.4264C138.937 99.5859 138.734 98.4693 139.911 97.6319C147.539 92.3681 160.077 93.8835 161.538 95.6381C162.999 97.4325 161.132 109.755 153.991 115.656C152.895 116.574 151.84 116.095 152.327 114.899C153.95 110.951 157.561 102.058 155.857 99.9448Z" fill="#FF9900"/>
</svg>
