<svg width="200" height="200" viewBox="0 0 200 200" fill="none" xmlns="http://www.w3.org/2000/svg">
<rect width="200" height="200" fill="#F8F8F8"/>
<path d="M77.965 166.36C77.965 165.32 78.149 164.296 78.517 163.288C78.885 162.28 79.421 161.368 80.125 160.552C80.845 159.736 81.709 159.088 82.717 158.608C83.741 158.112 84.909 157.864 86.221 157.864C87.757 157.864 89.085 158.208 90.205 158.896C91.325 159.584 92.157 160.48 92.701 161.584L90.589 163C90.269 162.312 89.861 161.776 89.365 161.392C88.885 160.992 88.357 160.712 87.781 160.552C87.221 160.376 86.669 160.288 86.125 160.288C85.229 160.288 84.445 160.472 83.773 160.84C83.101 161.192 82.533 161.664 82.069 162.256C81.621 162.848 81.277 163.512 81.037 164.248C80.813 164.984 80.701 165.72 80.701 166.456C80.701 167.56 80.933 168.592 81.397 169.552C81.877 170.496 82.525 171.264 83.341 171.856C84.173 172.432 85.125 172.72 86.197 172.72C86.741 172.72 87.309 172.624 87.901 172.432C88.493 172.24 89.037 171.944 89.533 171.544C90.029 171.128 90.429 170.584 90.733 169.912L92.965 171.184C92.613 172.032 92.061 172.752 91.309 173.344C90.573 173.936 89.741 174.384 88.813 174.688C87.901 174.992 86.997 175.144 86.101 175.144C84.901 175.144 83.805 174.896 82.813 174.4C81.821 173.888 80.965 173.216 80.245 172.384C79.525 171.536 78.965 170.592 78.565 169.552C78.165 168.496 77.965 167.432 77.965 166.36ZM105.531 161.968C105.323 161.728 104.979 161.48 104.499 161.224C104.035 160.952 103.491 160.72 102.867 160.528C102.243 160.336 101.595 160.24 100.923 160.24C99.7873 160.24 98.9473 160.448 98.4033 160.864C97.8753 161.28 97.6113 161.856 97.6113 162.592C97.6113 163.136 97.7633 163.568 98.0673 163.888C98.3713 164.192 98.8353 164.456 99.4593 164.68C100.083 164.888 100.867 165.104 101.811 165.328C102.963 165.6 103.955 165.928 104.787 166.312C105.635 166.68 106.283 167.176 106.731 167.8C107.195 168.424 107.427 169.248 107.427 170.272C107.427 171.44 107.147 172.384 106.587 173.104C106.027 173.824 105.267 174.352 104.307 174.688C103.363 175.008 102.323 175.168 101.187 175.168C99.8913 175.168 98.6353 174.968 97.4193 174.568C96.2033 174.168 95.1153 173.6 94.1553 172.864L95.3793 170.56C95.6513 170.832 96.0833 171.144 96.6753 171.496C97.2673 171.832 97.9553 172.128 98.7393 172.384C99.5393 172.624 100.371 172.744 101.235 172.744C102.291 172.744 103.107 172.56 103.683 172.192C104.259 171.808 104.547 171.264 104.547 170.56C104.547 169.984 104.355 169.528 103.971 169.192C103.603 168.84 103.067 168.552 102.363 168.328C101.675 168.088 100.843 167.84 99.8672 167.584C98.7473 167.296 97.8113 166.968 97.0592 166.6C96.3073 166.232 95.7393 165.768 95.3553 165.208C94.9873 164.648 94.8033 163.92 94.8033 163.024C94.8033 161.904 95.0753 160.96 95.6193 160.192C96.1633 159.408 96.8993 158.824 97.8273 158.44C98.7713 158.04 99.8273 157.84 100.995 157.84C102.147 157.84 103.211 158.024 104.187 158.392C105.163 158.76 106.019 159.216 106.755 159.76L105.531 161.968ZM120.203 161.968C119.995 161.728 119.651 161.48 119.171 161.224C118.707 160.952 118.163 160.72 117.539 160.528C116.915 160.336 116.267 160.24 115.595 160.24C114.459 160.24 113.619 160.448 113.075 160.864C112.547 161.28 112.283 161.856 112.283 162.592C112.283 163.136 112.435 163.568 112.739 163.888C113.043 164.192 113.507 164.456 114.131 164.68C114.755 164.888 115.539 165.104 116.483 165.328C117.635 165.6 118.627 165.928 119.459 166.312C120.307 166.68 120.955 167.176 121.403 167.8C121.867 168.424 122.099 169.248 122.099 170.272C122.099 171.44 121.819 172.384 121.259 173.104C120.699 173.824 119.939 174.352 118.979 174.688C118.035 175.008 116.995 175.168 115.859 175.168C114.563 175.168 113.307 174.968 112.091 174.568C110.875 174.168 109.787 173.6 108.827 172.864L110.051 170.56C110.323 170.832 110.755 171.144 111.347 171.496C111.939 171.832 112.627 172.128 113.411 172.384C114.211 172.624 115.043 172.744 115.907 172.744C116.963 172.744 117.779 172.56 118.355 172.192C118.931 171.808 119.219 171.264 119.219 170.56C119.219 169.984 119.027 169.528 118.643 169.192C118.275 168.84 117.739 168.552 117.035 168.328C116.347 168.088 115.515 167.84 114.539 167.584C113.419 167.296 112.483 166.968 111.731 166.6C110.979 166.232 110.411 165.768 110.027 165.208C109.659 164.648 109.475 163.92 109.475 163.024C109.475 161.904 109.747 160.96 110.291 160.192C110.835 159.408 111.571 158.824 112.499 158.44C113.443 158.04 114.499 157.84 115.667 157.84C116.819 157.84 117.883 158.024 118.859 158.392C119.835 158.76 120.691 159.216 121.427 159.76L120.203 161.968Z" fill="#171718"/>
<g clip-path="url(#clip0)">
<path d="M125.526 29.2923H118.061L125.826 36.9907V40.652H109.828V36.3643H117.593L109.828 28.6659V25H125.531L125.526 29.2923ZM106.652 29.2923H99.1763L106.952 36.9907V40.652H90.9487V36.3643H98.7138L90.9487 28.6659V25H106.652V29.2923ZM87.9606 29.4687H79.9058V36.1879H87.9606V40.6566H74.1735V25H87.9606V29.4687Z" fill="#171718"/>
<path d="M63.192 131.687L55 47.8027H145L136.798 131.673L99.9441 141L63.192 131.687Z" fill="#1572B6"/>
<path d="M100 133.873L129.78 126.332L136.783 54.6616H100V133.873Z" fill="#33A9DC"/>
<path d="M100 85.0505H114.91L115.937 74.5169H100V64.2339H128.255L127.986 66.9949L125.216 95.3475H100V85.0505Z" fill="white"/>
<path d="M100.061 111.771H100.01L87.463 108.675L86.6601 100.471H75.358L76.9385 116.624L100.02 122.49H100.086V111.771H100.061Z" fill="#EBEBEB"/>
<path d="M113.955 94.8977L112.598 108.666L100.031 111.761V122.48L123.128 116.633L123.296 114.893L125.257 94.8931H113.955V94.8977Z" fill="white"/>
<path d="M100.04 64.2339V74.5216H72.8322L72.5984 72.2107L72.0851 66.9949L71.8158 64.2339H100.04ZM99.9998 85.0506V95.3382H87.595L87.3765 93.0273L86.8632 87.8116L86.5939 85.0506H99.9948H99.9998Z" fill="#EBEBEB"/>
</g>
<defs>
<clipPath id="clip0">
<rect width="90" height="116" fill="white" transform="translate(55 25)"/>
</clipPath>
</defs>
</svg>
