<svg width="200" height="200" viewBox="0 0 200 200" fill="none" xmlns="http://www.w3.org/2000/svg">
<rect width="200" height="200" fill="#F8F8F8"/>
<path d="M61.5372 175V157.96H67.5852C69.4252 157.96 70.9532 158.344 72.1692 159.112C73.4012 159.864 74.3292 160.888 74.9532 162.184C75.5772 163.464 75.8892 164.888 75.8892 166.456C75.8892 168.184 75.5452 169.688 74.8572 170.968C74.1692 172.248 73.2012 173.24 71.9532 173.944C70.7212 174.648 69.2652 175 67.5852 175H61.5372ZM73.1532 166.456C73.1532 165.256 72.9292 164.2 72.4812 163.288C72.0492 162.376 71.4172 161.656 70.5852 161.128C69.7692 160.6 68.7692 160.336 67.5852 160.336H64.2252V172.624H67.5852C68.7852 172.624 69.7932 172.352 70.6092 171.808C71.4412 171.264 72.0732 170.528 72.5052 169.6C72.9372 168.672 73.1532 167.624 73.1532 166.456ZM84.0209 175.24C82.7089 175.24 81.5649 174.944 80.5889 174.352C79.6289 173.744 78.8849 172.952 78.3569 171.976C77.8289 170.984 77.5649 169.904 77.5649 168.736C77.5649 167.568 77.8289 166.496 78.3569 165.52C78.9009 164.528 79.6529 163.736 80.6129 163.144C81.5889 162.536 82.7249 162.232 84.0209 162.232C85.3169 162.232 86.4449 162.536 87.4049 163.144C88.3809 163.736 89.1329 164.528 89.6609 165.52C90.2049 166.496 90.4769 167.568 90.4769 168.736C90.4769 169.904 90.2129 170.984 89.6849 171.976C89.1569 172.952 88.4049 173.744 87.4289 174.352C86.4689 174.944 85.3329 175.24 84.0209 175.24ZM80.2769 168.76C80.2769 169.56 80.4449 170.28 80.7809 170.92C81.1169 171.56 81.5649 172.064 82.1249 172.432C82.6849 172.8 83.3169 172.984 84.0209 172.984C84.7089 172.984 85.3329 172.8 85.8929 172.432C86.4689 172.048 86.9249 171.536 87.2609 170.896C87.5969 170.256 87.7649 169.536 87.7649 168.736C87.7649 167.936 87.5969 167.216 87.2609 166.576C86.9249 165.936 86.4689 165.432 85.8929 165.064C85.3329 164.68 84.7089 164.488 84.0209 164.488C83.3329 164.488 82.7009 164.68 82.1249 165.064C81.5649 165.432 81.1169 165.944 80.7809 166.6C80.4449 167.24 80.2769 167.96 80.2769 168.76ZM98.5064 175.24C97.2104 175.24 96.0744 174.944 95.0984 174.352C94.1224 173.744 93.3624 172.944 92.8184 171.952C92.2744 170.96 92.0024 169.88 92.0024 168.712C92.0024 167.544 92.2664 166.472 92.7944 165.496C93.3384 164.504 94.0904 163.712 95.0504 163.12C96.0264 162.528 97.1784 162.232 98.5064 162.232C99.8024 162.232 100.914 162.52 101.842 163.096C102.786 163.656 103.49 164.408 103.954 165.352L101.386 166.168C101.098 165.64 100.69 165.232 100.162 164.944C99.6504 164.64 99.0824 164.488 98.4584 164.488C97.7544 164.488 97.1144 164.672 96.5384 165.04C95.9784 165.392 95.5304 165.888 95.1944 166.528C94.8744 167.168 94.7144 167.896 94.7144 168.712C94.7144 169.528 94.8824 170.256 95.2184 170.896C95.5704 171.536 96.0264 172.048 96.5864 172.432C97.1624 172.8 97.7944 172.984 98.4824 172.984C99.1224 172.984 99.7304 172.816 100.306 172.48C100.882 172.144 101.266 171.736 101.458 171.256L104.05 172.024C103.634 172.968 102.938 173.744 101.962 174.352C100.986 174.944 99.8344 175.24 98.5064 175.24ZM114.961 175L110.929 169.216L108.865 171.184V175H106.225V157.48H108.865V168.52L114.673 162.472H117.505L112.633 167.728L117.769 175H114.961ZM124.405 175.24C123.109 175.24 121.973 174.944 120.997 174.352C120.021 173.76 119.261 172.976 118.717 172C118.173 171.008 117.901 169.928 117.901 168.76C117.901 167.576 118.173 166.488 118.717 165.496C119.261 164.504 120.021 163.712 120.997 163.12C121.973 162.528 123.117 162.232 124.429 162.232C125.741 162.232 126.877 162.536 127.837 163.144C128.797 163.736 129.533 164.52 130.045 165.496C130.573 166.472 130.837 167.52 130.837 168.64C130.837 169.04 130.813 169.36 130.765 169.6H120.709C120.757 170.336 120.957 170.984 121.309 171.544C121.677 172.088 122.133 172.52 122.677 172.84C123.237 173.144 123.845 173.296 124.501 173.296C125.205 173.296 125.869 173.12 126.493 172.768C127.117 172.416 127.549 171.952 127.789 171.376L130.045 172.024C129.613 172.968 128.893 173.744 127.885 174.352C126.893 174.944 125.733 175.24 124.405 175.24ZM120.637 167.848H128.221C128.157 167.128 127.949 166.496 127.597 165.952C127.245 165.392 126.789 164.96 126.229 164.656C125.685 164.336 125.077 164.176 124.405 164.176C123.749 164.176 123.141 164.336 122.581 164.656C122.037 164.96 121.589 165.392 121.237 165.952C120.885 166.496 120.685 167.128 120.637 167.848ZM140.046 164.728C139.022 164.76 138.11 165 137.31 165.448C136.526 165.88 135.966 166.504 135.63 167.32V175H132.99V162.448H135.438V165.256C135.87 164.392 136.438 163.704 137.142 163.192C137.846 162.664 138.59 162.376 139.374 162.328C139.518 162.328 139.646 162.328 139.758 162.328C139.87 162.328 139.966 162.336 140.046 162.352V164.728Z" fill="#171718"/>
<path fill-rule="evenodd" clip-rule="evenodd" d="M108.955 68.2628H121.506V81.1754H127.852C130.783 81.1754 133.797 80.65 136.572 79.7038C137.936 79.2381 139.467 78.5907 140.812 77.7759C139.04 75.448 138.136 72.5086 137.87 69.6112C137.508 65.6698 138.298 60.5401 140.948 57.4555L142.268 55.9198L143.84 57.192C147.798 60.3921 151.127 64.8644 151.714 69.9626C156.48 68.5517 162.076 68.8854 166.276 71.3254L168 72.3263L167.093 74.1084C163.54 81.0865 156.112 83.2486 148.85 82.8658C137.984 110.105 114.326 123 85.641 123C70.8208 123 57.2247 117.425 49.482 104.192L49.3552 103.977L48.2272 101.666C45.6101 95.8419 44.7406 89.461 45.3301 83.0851L45.5074 81.1754H56.2405V68.2628H68.791V55.6314H93.8936V43H108.955V68.2628Z" fill="#364548"/>
<path fill-rule="evenodd" clip-rule="evenodd" d="M149.619 73.0399C150.46 66.4574 145.566 61.2874 142.53 58.8325C139.032 62.9027 138.489 73.5697 143.976 78.0608C140.914 80.7985 134.46 83.28 127.852 83.28H47.4144C46.7722 90.2221 47.983 96.6151 50.7489 102.087L51.6639 103.772C52.2433 104.761 52.8764 105.717 53.5603 106.635C56.8674 106.849 59.9165 106.923 62.706 106.861H62.7071C68.1889 106.739 72.6619 106.087 76.0518 104.905C76.2915 104.83 76.5508 104.852 76.7748 104.966C76.9988 105.08 77.17 105.277 77.2522 105.515C77.3344 105.754 77.3212 106.016 77.2153 106.245C77.1094 106.474 76.9191 106.652 76.6847 106.742C76.2335 106.9 75.7637 107.047 75.2785 107.187H75.2768C72.6075 107.954 69.745 108.47 66.0521 108.7C66.2716 108.704 65.8237 108.733 65.8226 108.733C65.6969 108.741 65.5389 108.759 65.4126 108.766C63.9591 108.848 62.3904 108.865 60.7865 108.865C59.0323 108.865 57.3049 108.832 55.3733 108.733L55.3239 108.766C62.0259 116.347 72.5054 120.894 85.6416 120.894C113.442 120.894 137.023 108.491 147.465 80.6472C154.873 81.4123 161.992 79.5109 165.231 73.1482C160.072 70.1525 153.438 71.1076 149.619 73.0399Z" fill="#22A0C8"/>
<path fill-rule="evenodd" clip-rule="evenodd" d="M149.619 73.04C150.46 66.4574 145.566 61.2874 142.53 58.8325C139.032 62.9027 138.489 73.5697 143.977 78.0608C140.914 80.7985 134.46 83.28 127.852 83.28H52.1778C51.8495 93.9117 55.7698 101.982 62.7056 106.861H62.7072C68.189 106.739 72.662 106.087 76.052 104.905C76.2916 104.83 76.5509 104.852 76.7749 104.966C76.9989 105.08 77.1701 105.277 77.2523 105.515C77.3346 105.754 77.3213 106.016 77.2154 106.245C77.1095 106.474 76.9192 106.652 76.6848 106.742C76.2337 106.9 75.7638 107.047 75.2786 107.187H75.2769C72.6076 107.954 69.4993 108.537 65.8063 108.766C65.8052 108.766 65.7168 108.68 65.7157 108.68C75.177 113.565 88.8956 113.547 104.624 107.467C122.26 100.648 138.672 87.6573 150.122 72.7991C149.95 72.8775 149.782 72.9576 149.619 73.04Z" fill="#37B1D9"/>
<path fill-rule="evenodd" clip-rule="evenodd" d="M47.5657 91.7148C48.0652 95.4337 49.1465 98.9155 50.7493 102.087L51.6643 103.772C52.2435 104.761 52.8766 105.717 53.5607 106.635C56.8683 106.849 59.9175 106.923 62.7075 106.861C68.1893 106.739 72.6622 106.087 76.0522 104.905C76.2919 104.83 76.5511 104.852 76.7752 104.966C76.9992 105.08 77.1704 105.277 77.2526 105.516C77.3348 105.754 77.3216 106.016 77.2157 106.245C77.1097 106.474 76.9195 106.652 76.6851 106.743C76.2339 106.901 75.7641 107.048 75.2788 107.187H75.2772C72.6079 107.955 69.516 108.504 65.823 108.733C65.6962 108.741 65.475 108.743 65.3471 108.75C63.8948 108.832 62.3419 108.882 60.7375 108.882C58.9838 108.882 57.19 108.848 55.2595 108.75C61.9615 116.331 72.5058 120.894 85.642 120.894C109.442 120.894 130.149 111.803 142.167 91.7148H47.5657Z" fill="#1B81A5"/>
<path fill-rule="evenodd" clip-rule="evenodd" d="M52.9019 91.7148C54.3246 98.2443 57.7437 103.37 62.7073 106.861C68.1891 106.739 72.6621 106.087 76.052 104.905C76.2917 104.83 76.551 104.852 76.775 104.966C76.999 105.08 77.1702 105.277 77.2524 105.516C77.3346 105.754 77.3214 106.016 77.2155 106.245C77.1096 106.474 76.9193 106.652 76.6849 106.743C76.2337 106.901 75.7639 107.048 75.2787 107.187H75.277C72.6077 107.955 69.4505 108.504 65.757 108.734C75.2177 113.617 88.8967 113.547 104.624 107.467C114.139 103.788 123.296 98.3112 131.511 91.7148H52.9019Z" fill="#1D91B4"/>
<path fill-rule="evenodd" clip-rule="evenodd" d="M58.332 70.3682H69.21V81.3159H58.332V70.3682ZM59.2383 71.2808H60.0967V80.4038H59.2383V71.2808ZM60.852 71.2808H61.7451V80.4038H60.8526V71.2808H60.852ZM62.4998 71.2808H63.3928V80.4038H62.4998V71.2808ZM64.1487 71.2808H65.0412V80.4038H64.1487V71.2808ZM65.797 71.2808H66.6895V80.4038H65.797V71.2808ZM67.4448 71.2808H68.3038V80.4038H67.4448V71.2808ZM70.8831 57.7368H81.7616V68.6839H70.8825V57.7368H70.8831ZM71.7898 58.6494H72.6478V67.7719H71.7898V58.6494ZM73.4036 58.6494H74.2961V67.7719H73.4041V58.6494H73.4036ZM75.0514 58.6494H75.9439V67.7719H75.0514V58.6494ZM76.6997 58.6494H77.5922V67.7719H76.6997V58.6494ZM78.348 58.6494H79.2411V67.7719H78.348V58.6494ZM79.9958 58.6494H80.8554V67.7719H79.9958V58.6494Z" fill="#23A3C2"/>
<path fill-rule="evenodd" clip-rule="evenodd" d="M70.8831 70.3677H81.7617V81.3153H70.8826V70.3677H70.8831ZM71.7899 71.2803H72.6478V80.4033H71.7899V71.2803ZM73.4036 71.2803H74.2961V80.4033H73.4042V71.2803H73.4036ZM75.0514 71.2803H75.9439V80.4033H75.0514V71.2803ZM76.6998 71.2803H77.5923V80.4033H76.6998V71.2803ZM78.3481 71.2803H79.2411V80.4033H78.3481V71.2803ZM79.9959 71.2803H80.8554V80.4033H79.9959V71.2803Z" fill="#34BBDE"/>
<path fill-rule="evenodd" clip-rule="evenodd" d="M83.4346 70.3677H94.3126V81.3153H83.4346V70.3677ZM84.3408 71.2803H85.1987V80.4033H84.3408V71.2803ZM85.9545 71.2803H86.8471V80.4033H85.9545V71.2803ZM87.6029 71.2803H88.4954V80.4033H87.6029V71.2803ZM89.2512 71.2803H90.1437V80.4033H89.2512V71.2803ZM90.899 71.2803H91.7926V80.4033H90.899V71.2803ZM92.5473 71.2803H93.4058V80.4033H92.5473V71.2803Z" fill="#23A3C2"/>
<path fill-rule="evenodd" clip-rule="evenodd" d="M83.4346 57.7368H94.3126V68.6839H83.4346V57.7368ZM84.3408 58.6494H85.1987V67.7719H84.3408V58.6494ZM85.9545 58.6494H86.8471V67.7719H85.9545V58.6494ZM87.6029 58.6494H88.4954V67.7719H87.6029V58.6494ZM89.2512 58.6494H90.1437V67.7719H89.2512V58.6494ZM90.899 58.6494H91.7926V67.7719H90.899V58.6494ZM92.5473 58.6494H93.4058V67.7719H92.5473V58.6494ZM95.9856 70.3682H106.864V81.3159H95.9856V70.3682ZM96.8924 71.2808H97.7503V80.4038H96.8924V71.2808ZM98.5061 71.2808H99.3986V80.4038H98.5061V71.2808ZM100.154 71.2808H101.046V80.4038H100.154V71.2808ZM101.802 71.2808H102.695V80.4038H101.802V71.2808ZM103.451 71.2808H104.344V80.4038H103.451V71.2808ZM105.099 71.2808H105.957V80.4038H105.099V71.2808Z" fill="#34BBDE"/>
<path fill-rule="evenodd" clip-rule="evenodd" d="M95.9854 57.7368H106.863V68.6839H95.9854V57.7368ZM96.8921 58.6494H97.75V67.7719H96.8921V58.6494ZM98.5059 58.6494H99.3984V67.7719H98.5059V58.6494ZM100.154 58.6494H101.046V67.7719H100.154V58.6494ZM101.802 58.6494H102.695V67.7719H101.802V58.6494ZM103.45 58.6494H104.343V67.7719H103.45V58.6494ZM105.099 58.6494H105.957V67.7719H105.099V58.6494Z" fill="#23A3C2"/>
<path fill-rule="evenodd" clip-rule="evenodd" d="M95.9854 45.1045H106.863V56.0533H95.9854V45.1045ZM96.8921 46.0165H97.75V55.1401H96.8921V46.016V46.0165ZM98.5059 46.0165H99.3984V55.1401H98.5059V46.016V46.0165ZM100.154 46.0165H101.046V55.1401H100.154V46.016V46.0165ZM101.802 46.0165H102.695V55.1401H101.802V46.016V46.0165ZM103.45 46.0165H104.343V55.1401H103.45V46.016V46.0165ZM105.099 46.0165H105.957V55.1401H105.099V46.016V46.0165Z" fill="#34BBDE"/>
<path fill-rule="evenodd" clip-rule="evenodd" d="M108.536 70.3677H119.414V81.3153H108.536V70.3677ZM109.442 71.2803H110.301V80.4033H109.443V71.2803H109.442ZM111.056 71.2803H111.949V80.4033H111.056V71.2803H111.056ZM112.705 71.2803H113.598V80.4033H112.705V71.2803ZM114.352 71.2803H115.246V80.4033H114.352V71.2803ZM116.001 71.2803H116.894V80.4033H116.001V71.2803ZM117.649 71.2803H118.508V80.4033H117.649V71.2803Z" fill="#23A3C2"/>
<path fill-rule="evenodd" clip-rule="evenodd" d="M81.0805 99.0652C81.478 99.0599 81.8726 99.1341 82.2414 99.2835C82.6102 99.4329 82.9458 99.6546 83.2288 99.9356C83.5117 100.217 83.7364 100.552 83.8897 100.921C84.043 101.29 84.1219 101.686 84.1219 102.086C84.1218 102.486 84.0427 102.882 83.8893 103.251C83.7358 103.62 83.5111 103.955 83.228 104.236C82.9449 104.517 82.6092 104.739 82.2404 104.888C81.8715 105.037 81.4769 105.111 81.0794 105.106C80.2905 105.095 79.5375 104.772 78.9835 104.207C78.4295 103.641 78.119 102.879 78.1191 102.085C78.1193 101.291 78.4301 100.529 78.9843 99.9637C79.5385 99.3986 80.2916 99.0758 81.0805 99.0652Z" fill="#D3ECEC"/>
<path fill-rule="evenodd" clip-rule="evenodd" d="M81.0803 99.9217C81.3548 99.9217 81.6166 99.9736 81.8581 100.068C81.6914 100.165 81.5613 100.315 81.4877 100.495C81.4142 100.674 81.4014 100.872 81.4512 101.06C81.501 101.247 81.6108 101.413 81.7635 101.531C81.9162 101.649 82.1034 101.714 82.2961 101.714C82.6282 101.714 82.9164 101.529 83.0657 101.255C83.2424 101.684 83.2776 102.158 83.1659 102.608C83.0541 103.059 82.8015 103.461 82.4453 103.755C82.0891 104.05 81.6482 104.221 81.1877 104.244C80.7272 104.267 80.2715 104.141 79.8881 103.883C79.5046 103.626 79.2135 103.251 79.058 102.814C78.9025 102.377 78.8907 101.902 79.0243 101.457C79.158 101.013 79.43 100.624 79.8002 100.348C80.1705 100.071 80.6193 99.9218 81.0803 99.9217ZM28 92.8061H167.599C164.56 92.0305 157.982 90.982 159.067 86.9727C153.539 93.4093 140.211 91.4886 136.846 88.315C133.101 93.7828 111.293 91.704 109.772 87.4444C105.076 92.9912 90.5241 92.9912 85.8277 87.4444C84.3056 91.704 62.4986 93.7828 58.7524 88.3145C55.3888 91.4886 42.0605 93.4093 36.5331 86.9732C37.6177 90.982 31.0403 92.0305 28 92.8066" fill="#364548"/>
<path fill-rule="evenodd" clip-rule="evenodd" d="M89.0575 120.829C81.6254 117.28 77.5466 112.455 75.2769 107.188C72.516 107.981 69.1979 108.488 65.3419 108.705C63.8895 108.787 62.3614 108.829 60.7586 108.829C58.91 108.829 56.9619 108.774 54.9167 108.665C61.7324 115.521 70.1167 120.798 85.6417 120.894C86.7878 120.894 87.9251 120.872 89.0575 120.829Z" fill="#BDD9D7"/>
<path fill-rule="evenodd" clip-rule="evenodd" d="M78.0374 112.048C77.0094 110.643 76.012 108.877 75.2787 107.187C72.5178 107.98 69.1986 108.487 65.342 108.706C67.991 110.152 71.7789 111.493 78.038 112.048" fill="#D3ECEC"/>
</svg>
