<svg width="200" height="200" viewBox="0 0 200 200" fill="none" xmlns="http://www.w3.org/2000/svg">
<rect width="200" height="200" fill="#F8F8F8"/>
<path d="M82.1503 157.96V175H79.4383V167.488H70.8463V175H68.1583V157.96H70.8463V165.088H79.4383V157.96H82.1503ZM98.4982 160.336H92.8342V175H90.1222V160.336H84.4342V157.96H98.4982V160.336ZM115.111 175V162.856L110.095 172.072H108.511L103.471 162.856V175H100.783V157.96H103.663L109.303 168.376L114.943 157.96H117.823V175H115.111ZM121.666 175V157.96H124.354V172.624H133.498V175H121.666Z" fill="#171718"/>
<path d="M144.836 47.7388L136.666 131.4L99.9411 140.707L63.3177 131.413L55.1561 47.7388H144.836Z" fill="#E44D26"/>
<path d="M99.9965 133.593L129.672 126.073L136.653 54.5806H99.9965V133.593Z" fill="#F16529"/>
<path d="M84.1139 75.1051H99.9962V64.8428H71.8444L72.1129 67.5959L74.8725 95.8762H99.9962V85.6139H85.1401L84.1139 75.1051ZM86.6443 101.007H75.3741L76.9469 117.121L99.9445 122.956L99.9962 122.943V112.266L99.947 112.278L87.4437 109.192L86.6443 101.007Z" fill="#EBEBEB"/>
<path d="M63.4999 25H69.2053V30.1525H74.4245V25H80.1302V40.6031H74.4248V35.3783H69.2056V40.6031H63.5002V25H63.4999ZM87.6326 30.1744H82.6106V25H98.3643V30.1744H93.3391V40.6031H87.6337V30.1744H87.6334H87.6326ZM100.864 25H106.813L110.473 30.4825L114.129 25H120.08V40.6031H114.398V32.8694L110.473 38.4171H110.374L106.447 32.8694V40.6031H100.864V25ZM122.92 25H128.627V35.4458H136.65V40.6031H122.919V25H122.92Z" fill="#171718"/>
<path d="M99.958 95.8761H113.783L112.479 109.186L99.9576 112.275V122.951L122.974 117.121L123.142 115.387L125.781 88.3696L126.055 85.6138H99.958V95.8761ZM99.958 75.08V75.1051H127.076L127.301 72.7986L127.813 67.5959L128.081 64.8428H99.958V75.0803V75.08Z" fill="white"/>
</svg>
