<svg width="200" height="200" viewBox="0 0 200 200" fill="none" xmlns="http://www.w3.org/2000/svg">
<rect width="200" height="200" fill="#F8F8F8"/>
<path d="M42.1419 172C42.3979 172.176 42.7899 172.36 43.3179 172.552C43.8459 172.744 44.4699 172.84 45.1899 172.84C46.1339 172.84 46.8459 172.64 47.3259 172.24C47.8059 171.824 48.1259 171.184 48.2859 170.32C48.4459 169.456 48.5259 168.352 48.5259 167.008V157.96H51.2379V166.624C51.2379 167.904 51.1659 169.072 51.0219 170.128C50.8939 171.184 50.6299 172.096 50.2299 172.864C49.8299 173.632 49.2299 174.224 48.4299 174.64C47.6459 175.056 46.5899 175.264 45.2619 175.264C44.4619 175.264 43.7579 175.176 43.1499 175C42.5419 174.824 41.9899 174.56 41.4939 174.208L42.1419 172ZM53.4337 171.328C53.4337 170.528 53.6577 169.832 54.1057 169.24C54.5537 168.632 55.1777 168.168 55.9777 167.848C56.7937 167.512 57.7297 167.344 58.7857 167.344C59.3457 167.344 59.9137 167.392 60.4897 167.488C61.0817 167.568 61.6017 167.688 62.0497 167.848V167.056C62.0497 166.176 61.7857 165.488 61.2577 164.992C60.7297 164.496 59.9697 164.248 58.9777 164.248C58.2897 164.248 57.6257 164.368 56.9857 164.608C56.3457 164.848 55.6817 165.2 54.9937 165.664L54.1057 163.888C54.9377 163.344 55.7697 162.936 56.6017 162.664C57.4497 162.376 58.3377 162.232 59.2657 162.232C60.9457 162.232 62.2657 162.68 63.2257 163.576C64.2017 164.456 64.6897 165.712 64.6897 167.344V172.024C64.6897 172.328 64.7377 172.544 64.8337 172.672C64.9457 172.8 65.1297 172.872 65.3857 172.888V175C65.1457 175.048 64.9297 175.08 64.7377 175.096C64.5457 175.112 64.3857 175.12 64.2577 175.12C63.6817 175.12 63.2497 174.984 62.9617 174.712C62.6897 174.424 62.5297 174.104 62.4817 173.752L62.4097 173.032C61.8657 173.736 61.1697 174.28 60.3217 174.664C59.4737 175.048 58.6177 175.24 57.7537 175.24C56.9217 175.24 56.1777 175.072 55.5217 174.736C54.8657 174.384 54.3537 173.912 53.9857 173.32C53.6177 172.728 53.4337 172.064 53.4337 171.328ZM61.4257 172.096C61.8417 171.68 62.0497 171.288 62.0497 170.92V169.48C61.1057 169.128 60.1457 168.952 59.1697 168.952C58.2097 168.952 57.4257 169.152 56.8177 169.552C56.2257 169.936 55.9297 170.456 55.9297 171.112C55.9297 171.656 56.1457 172.16 56.5777 172.624C57.0257 173.072 57.6657 173.296 58.4977 173.296C59.0577 173.296 59.6017 173.184 60.1297 172.96C60.6577 172.736 61.0897 172.448 61.4257 172.096ZM70.9747 175L66.1987 162.448H68.9347L72.5107 172.552L76.0867 162.448H78.6307L73.8547 175H70.9747ZM79.3087 171.328C79.3087 170.528 79.5327 169.832 79.9807 169.24C80.4287 168.632 81.0527 168.168 81.8527 167.848C82.6687 167.512 83.6047 167.344 84.6607 167.344C85.2207 167.344 85.7887 167.392 86.3647 167.488C86.9567 167.568 87.4767 167.688 87.9247 167.848V167.056C87.9247 166.176 87.6607 165.488 87.1327 164.992C86.6047 164.496 85.8447 164.248 84.8527 164.248C84.1647 164.248 83.5007 164.368 82.8607 164.608C82.2207 164.848 81.5567 165.2 80.8687 165.664L79.9807 163.888C80.8127 163.344 81.6447 162.936 82.4767 162.664C83.3247 162.376 84.2127 162.232 85.1407 162.232C86.8207 162.232 88.1407 162.68 89.1007 163.576C90.0767 164.456 90.5647 165.712 90.5647 167.344V172.024C90.5647 172.328 90.6127 172.544 90.7087 172.672C90.8207 172.8 91.0047 172.872 91.2607 172.888V175C91.0207 175.048 90.8047 175.08 90.6127 175.096C90.4207 175.112 90.2607 175.12 90.1327 175.12C89.5567 175.12 89.1247 174.984 88.8367 174.712C88.5647 174.424 88.4047 174.104 88.3567 173.752L88.2847 173.032C87.7407 173.736 87.0447 174.28 86.1967 174.664C85.3487 175.048 84.4927 175.24 83.6287 175.24C82.7967 175.24 82.0527 175.072 81.3967 174.736C80.7407 174.384 80.2287 173.912 79.8607 173.32C79.4927 172.728 79.3087 172.064 79.3087 171.328ZM87.3007 172.096C87.7167 171.68 87.9247 171.288 87.9247 170.92V169.48C86.9807 169.128 86.0207 168.952 85.0447 168.952C84.0847 168.952 83.3007 169.152 82.6927 169.552C82.1007 169.936 81.8047 170.456 81.8047 171.112C81.8047 171.656 82.0207 172.16 82.4527 172.624C82.9007 173.072 83.5407 173.296 84.3727 173.296C84.9327 173.296 85.4767 173.184 86.0047 172.96C86.5327 172.736 86.9647 172.448 87.3007 172.096ZM104.184 161.968C103.976 161.728 103.632 161.48 103.152 161.224C102.688 160.952 102.144 160.72 101.52 160.528C100.896 160.336 100.248 160.24 99.5756 160.24C98.4396 160.24 97.5996 160.448 97.0556 160.864C96.5276 161.28 96.2636 161.856 96.2636 162.592C96.2636 163.136 96.4156 163.568 96.7196 163.888C97.0236 164.192 97.4876 164.456 98.1116 164.68C98.7356 164.888 99.5196 165.104 100.464 165.328C101.616 165.6 102.608 165.928 103.44 166.312C104.288 166.68 104.936 167.176 105.384 167.8C105.848 168.424 106.08 169.248 106.08 170.272C106.08 171.44 105.8 172.384 105.24 173.104C104.68 173.824 103.92 174.352 102.96 174.688C102.016 175.008 100.976 175.168 99.8396 175.168C98.5436 175.168 97.2876 174.968 96.0716 174.568C94.8556 174.168 93.7676 173.6 92.8076 172.864L94.0316 170.56C94.3036 170.832 94.7356 171.144 95.3276 171.496C95.9196 171.832 96.6076 172.128 97.3916 172.384C98.1916 172.624 99.0236 172.744 99.8876 172.744C100.944 172.744 101.76 172.56 102.336 172.192C102.912 171.808 103.2 171.264 103.2 170.56C103.2 169.984 103.008 169.528 102.624 169.192C102.256 168.84 101.72 168.552 101.016 168.328C100.328 168.088 99.4956 167.84 98.5196 167.584C97.3996 167.296 96.4636 166.968 95.7116 166.6C94.9596 166.232 94.3916 165.768 94.0076 165.208C93.6396 164.648 93.4556 163.92 93.4556 163.024C93.4556 161.904 93.7276 160.96 94.2716 160.192C94.8156 159.408 95.5516 158.824 96.4796 158.44C97.4236 158.04 98.4796 157.84 99.6476 157.84C100.8 157.84 101.864 158.024 102.84 158.392C103.816 158.76 104.672 159.216 105.408 159.76L104.184 161.968ZM114.127 175.24C112.831 175.24 111.695 174.944 110.719 174.352C109.743 173.744 108.983 172.944 108.439 171.952C107.895 170.96 107.623 169.88 107.623 168.712C107.623 167.544 107.887 166.472 108.415 165.496C108.959 164.504 109.711 163.712 110.671 163.12C111.647 162.528 112.799 162.232 114.127 162.232C115.423 162.232 116.535 162.52 117.463 163.096C118.407 163.656 119.111 164.408 119.575 165.352L117.007 166.168C116.719 165.64 116.311 165.232 115.783 164.944C115.271 164.64 114.703 164.488 114.079 164.488C113.375 164.488 112.735 164.672 112.159 165.04C111.599 165.392 111.151 165.888 110.815 166.528C110.495 167.168 110.335 167.896 110.335 168.712C110.335 169.528 110.503 170.256 110.839 170.896C111.191 171.536 111.647 172.048 112.207 172.432C112.783 172.8 113.415 172.984 114.103 172.984C114.743 172.984 115.351 172.816 115.927 172.48C116.503 172.144 116.887 171.736 117.079 171.256L119.671 172.024C119.255 172.968 118.559 173.744 117.583 174.352C116.607 174.944 115.455 175.24 114.127 175.24ZM128.902 164.728C127.878 164.76 126.966 165 126.166 165.448C125.382 165.88 124.822 166.504 124.486 167.32V175H121.846V162.448H124.294V165.256C124.726 164.392 125.294 163.704 125.998 163.192C126.702 162.664 127.446 162.376 128.23 162.328C128.374 162.328 128.502 162.328 128.614 162.328C128.726 162.328 128.822 162.336 128.902 162.352V164.728ZM130.822 160.384V157.48H133.462V160.384H130.822ZM130.822 175V162.448H133.462V175H130.822ZM143.763 175.24C142.755 175.24 141.867 175 141.099 174.52C140.331 174.04 139.723 173.416 139.275 172.648V180.112H136.635V162.448H138.963V164.704C139.443 163.952 140.067 163.352 140.835 162.904C141.603 162.456 142.459 162.232 143.403 162.232C144.555 162.232 145.571 162.536 146.451 163.144C147.347 163.736 148.051 164.528 148.563 165.52C149.075 166.496 149.331 167.56 149.331 168.712C149.331 169.928 149.091 171.032 148.611 172.024C148.131 173 147.475 173.784 146.643 174.376C145.811 174.952 144.851 175.24 143.763 175.24ZM142.899 172.984C143.651 172.984 144.299 172.784 144.843 172.384C145.403 171.968 145.835 171.44 146.139 170.8C146.459 170.144 146.619 169.448 146.619 168.712C146.619 167.944 146.443 167.24 146.091 166.6C145.755 165.96 145.291 165.448 144.699 165.064C144.123 164.68 143.459 164.488 142.707 164.488C142.259 164.488 141.787 164.6 141.291 164.824C140.811 165.048 140.387 165.344 140.019 165.712C139.651 166.08 139.403 166.496 139.275 166.96V170.248C139.595 171.016 140.083 171.664 140.739 172.192C141.411 172.72 142.131 172.984 142.899 172.984ZM158.502 174.352C158.166 174.512 157.702 174.696 157.11 174.904C156.518 175.096 155.886 175.192 155.214 175.192C154.382 175.192 153.662 174.968 153.054 174.52C152.462 174.072 152.166 173.344 152.166 172.336V164.488H150.51V162.448H152.166V158.32H154.806V162.448H157.542V164.488H154.806V171.496C154.838 171.944 154.974 172.272 155.214 172.48C155.47 172.672 155.782 172.768 156.15 172.768C156.518 172.768 156.87 172.704 157.206 172.576C157.542 172.448 157.79 172.344 157.95 172.264L158.502 174.352Z" fill="#171718"/>
<path d="M42 25H158V141H42V25Z" fill="#F0DB4F"/>
<path d="M148.506 113.334C147.657 108.041 144.206 103.598 133.984 99.4517C130.433 97.8197 126.475 96.651 125.295 93.9604C124.876 92.3946 124.821 91.5125 125.085 90.5642C125.846 87.4878 129.518 86.5285 132.429 87.4106C134.304 88.0391 136.079 89.4837 137.149 91.7882C142.155 88.5465 142.144 88.5684 145.639 86.3411C144.36 84.3563 143.676 83.441 142.838 82.5921C139.828 79.229 135.726 77.4978 129.165 77.6301C128.03 77.7734 126.883 77.9277 125.747 78.0712C122.472 78.8982 119.352 80.6183 117.521 82.9229C112.03 89.1529 113.596 100.058 120.278 104.546C126.861 109.486 136.531 110.611 137.766 115.231C138.968 120.888 133.609 122.718 128.283 122.067C124.358 121.251 122.175 119.256 119.815 115.628C115.47 118.142 115.47 118.142 111.005 120.711C112.063 123.027 113.177 124.074 114.952 126.081C123.354 134.605 144.382 134.186 148.153 121.284C148.308 120.843 149.322 117.888 148.506 113.334ZM105.061 78.3136H94.211C94.211 87.6863 94.167 96.9927 94.167 106.365C94.167 112.331 94.4757 117.8 93.5054 119.476C91.9175 122.773 87.8046 122.365 85.9301 121.725C84.0225 120.788 83.0521 119.454 81.9274 117.568C81.6187 117.028 81.3871 116.609 81.3098 116.576C78.3658 118.373 75.4326 120.182 72.4885 121.979C73.9552 124.989 76.1163 127.603 78.884 129.301C83.0189 131.782 88.5764 132.542 94.3875 131.208C98.1696 130.106 101.433 127.823 103.143 124.35C105.612 119.796 105.083 114.282 105.061 108.185C105.116 98.2388 105.061 88.2927 105.061 78.3136Z" fill="#323330"/>
</svg>
