<svg width="369" height="237" viewBox="0 0 369 237" fill="none" xmlns="http://www.w3.org/2000/svg">
<path fill-rule="evenodd" clip-rule="evenodd" d="M365.172 63.9857L311.027 108.898C307.156 111.974 301.551 111.294 298.509 107.379L296.814 105.198C293.772 101.28 294.444 95.6104 298.315 92.5325L342.45 55.9237L298.509 19.3339C294.66 16.2628 293.992 10.6023 297.017 6.69435L298.704 4.51595C301.729 0.607969 307.303 -0.0719594 311.152 3.00096L364.977 47.8211C367.196 49.5904 368.321 52.2226 368.328 54.8792C369.073 58.1753 367.974 61.7585 365.172 63.9857Z" fill="url(#paint0_linear)"/>
<path fill-rule="evenodd" clip-rule="evenodd" d="M202.169 19.1482C182.27 19.1482 166.139 35.5241 166.139 55.7258V92.3034H202.169C222.068 92.3034 238.199 75.9275 238.199 55.7258C238.199 35.5241 222.068 19.1482 202.169 19.1482ZM148.125 55.7258C148.125 25.4246 172.322 0.859375 202.169 0.859375C232.016 0.859375 256.213 25.4246 256.213 55.7258C256.213 86.0269 232.016 110.592 202.169 110.592H148.125V55.7258Z" fill="url(#paint1_linear)"/>
<path fill-rule="evenodd" clip-rule="evenodd" d="M54.7116 18.7512C34.3482 18.7512 17.8413 35.3046 17.8413 55.7258C17.8413 76.1469 34.3482 92.7003 54.7116 92.7003C75.0751 92.7003 91.582 76.1469 91.582 55.7258C91.582 35.3046 75.0751 18.7512 54.7116 18.7512ZM0 55.7258C0 25.4233 24.4948 0.859375 54.7116 0.859375C84.9285 0.859375 109.423 25.4233 109.423 55.7258C109.423 86.0283 84.9285 110.592 54.7116 110.592C24.4948 110.592 0 86.0283 0 55.7258Z" fill="url(#paint2_linear)"/>
<path d="M55.3229 212.323C55.507 212.884 55.599 213.477 55.599 214.101C55.599 215.348 55.1708 216.377 54.3143 217.188C53.5189 217.998 52.5714 218.403 51.4698 218.403C50.6133 218.403 49.8189 218.155 49.0845 217.655C48.4122 217.094 47.8609 216.345 47.4326 215.41L41.7445 201.658H13.3952L7.79822 215.503C7.49305 216.439 6.97275 217.156 6.23835 217.655C5.56599 218.155 4.80159 218.403 3.94512 218.403C2.66043 218.403 1.68191 218.061 1.00955 217.374C0.336184 216.689 0 215.753 0 214.568C0 214.319 0.0610469 213.819 0.183113 213.072L23.5787 155.256C24.007 154.258 24.5883 153.51 25.3217 153.011C26.1171 152.45 27.0046 152.232 27.9831 152.356C28.9006 152.356 29.726 152.606 30.4594 153.105C31.1938 153.604 31.7141 154.321 32.0193 155.256L55.3229 212.323ZM16.8811 193.145H38.2587L27.5239 166.95L16.8811 193.145Z" fill="#07D5D7"/>
<path d="M89.6944 168.261C93.8537 168.261 97.6157 169.352 100.98 171.535C104.343 173.655 106.974 176.649 108.87 180.516C110.827 184.382 111.805 188.748 111.805 193.613C111.805 198.477 110.827 202.843 108.87 206.71C106.974 210.514 104.343 213.508 100.98 215.691C97.6157 217.873 93.9147 218.965 89.8786 218.965C86.6979 218.965 83.7312 218.248 80.9787 216.814C78.2263 215.379 75.9941 213.633 74.2811 211.575V232.343C74.2811 233.59 73.8529 234.651 72.9964 235.524C72.202 236.397 71.1624 236.834 69.8778 236.834C68.6541 236.834 67.6145 236.397 66.7581 235.524C65.9626 234.713 65.5654 233.653 65.5654 232.343V173.499C65.5654 172.19 65.9626 171.098 66.7581 170.225C67.5535 169.352 68.5931 168.915 69.8778 168.915C71.1624 168.915 72.202 169.352 72.9964 170.225C73.8529 171.098 74.2811 172.19 74.2811 173.499V176.212C75.7489 174.029 77.8901 172.158 80.7036 170.599C83.5171 169.04 86.5147 168.261 89.6944 168.261ZM88.6859 210.733C91.4994 210.733 94.0378 209.984 96.301 208.488C98.5632 206.991 100.307 204.964 101.53 202.406C102.815 199.787 103.457 196.855 103.457 193.613C103.457 190.37 102.815 187.47 101.53 184.912C100.307 182.293 98.5632 180.234 96.301 178.738C94.0378 177.241 91.4994 176.492 88.6859 176.492C85.8114 176.492 83.242 177.241 80.9787 178.738C78.7155 180.173 76.9416 182.199 75.6579 184.819C74.4342 187.438 73.8229 190.37 73.8229 193.613C73.8229 196.855 74.4342 199.787 75.6579 202.406C76.9416 205.026 78.7155 207.084 80.9787 208.581C83.242 210.015 85.8114 210.733 88.6859 210.733Z" fill="#07D5D7"/>
<path d="M147.885 168.261C152.045 168.261 155.807 169.352 159.17 171.535C162.534 173.655 165.165 176.649 167.061 180.516C169.018 184.382 169.996 188.748 169.996 193.613C169.996 198.477 169.018 202.843 167.061 206.71C165.165 210.514 162.534 213.508 159.17 215.691C155.807 217.873 152.106 218.965 148.069 218.965C144.889 218.965 141.922 218.248 139.17 216.814C136.417 215.379 134.185 213.633 132.472 211.575V232.343C132.472 233.59 132.044 234.651 131.187 235.524C130.393 236.397 129.352 236.834 128.068 236.834C126.845 236.834 125.805 236.397 124.949 235.524C124.154 234.713 123.756 233.653 123.756 232.343V173.499C123.756 172.19 124.154 171.098 124.949 170.225C125.744 169.352 126.784 168.915 128.068 168.915C129.352 168.915 130.393 169.352 131.187 170.225C132.044 171.098 132.472 172.19 132.472 173.499V176.212C133.94 174.029 136.081 172.158 138.895 170.599C141.708 169.04 144.705 168.261 147.885 168.261ZM146.876 210.733C149.689 210.733 152.228 209.984 154.491 208.488C156.754 206.991 158.497 204.964 159.721 202.406C161.005 199.787 161.648 196.855 161.648 193.613C161.648 190.37 161.005 187.47 159.721 184.912C158.497 182.293 156.754 180.234 154.491 178.738C152.228 177.241 149.689 176.492 146.876 176.492C144.001 176.492 141.433 177.241 139.17 178.738C136.906 180.173 135.132 182.199 133.848 184.819C132.625 187.438 132.013 190.37 132.013 193.613C132.013 196.855 132.625 199.787 133.848 202.406C135.132 205.026 136.906 207.084 139.17 208.581C141.433 210.015 144.001 210.733 146.876 210.733Z" fill="#07D5D7"/>
<path d="M231.032 152.637C232.194 152.637 233.143 153.042 233.876 153.853C234.611 154.601 234.977 155.568 234.977 156.753V213.539C234.977 214.848 234.55 215.94 233.693 216.813C232.898 217.686 231.858 218.123 230.573 218.123C229.901 218.123 229.228 218.029 228.555 217.842C227.943 217.593 227.454 217.249 227.088 216.813L191.03 168.914V214.007C191.03 215.191 190.633 216.19 189.837 217C189.104 217.749 188.156 218.123 186.994 218.123C185.831 218.123 184.884 217.749 184.149 217C183.416 216.19 183.049 215.191 183.049 214.007V157.127C183.049 155.817 183.446 154.757 184.241 153.946C185.098 153.073 186.137 152.637 187.361 152.637C188.095 152.637 188.798 152.793 189.471 153.104C190.144 153.354 190.664 153.728 191.03 154.227L226.996 202.219V156.753C226.996 155.568 227.363 154.601 228.096 153.853C228.892 153.042 229.87 152.637 231.032 152.637Z" fill="#07D5D7"/>
<path d="M289.971 168.447C291.255 168.447 292.295 168.884 293.09 169.756C293.946 170.567 294.374 171.659 294.374 173.031V213.632C294.374 214.879 293.946 215.94 293.09 216.813C292.295 217.686 291.255 218.122 289.971 218.122C288.686 218.122 287.646 217.717 286.851 216.907C286.055 216.033 285.658 214.942 285.658 213.632V211.2C284.068 213.383 281.896 215.254 279.145 216.813C276.392 218.309 273.426 219.058 270.245 219.058C266.086 219.058 262.294 217.966 258.868 215.783C255.504 213.6 252.844 210.576 250.887 206.709C248.991 202.78 248.042 198.383 248.042 193.519C248.042 188.653 248.991 184.288 250.887 180.422C252.844 176.492 255.504 173.436 258.868 171.253C262.233 169.07 265.933 167.979 269.97 167.979C273.212 167.979 276.208 168.665 278.961 170.036C281.774 171.409 284.007 173.155 285.658 175.276V173.031C285.658 171.721 286.055 170.63 286.851 169.756C287.646 168.884 288.686 168.447 289.971 168.447ZM271.255 210.825C274.129 210.825 276.667 210.077 278.869 208.58C281.132 207.083 282.876 205.025 284.098 202.406C285.383 199.786 286.025 196.824 286.025 193.519C286.025 190.275 285.383 187.344 284.098 184.724C282.876 182.105 281.132 180.047 278.869 178.551C276.667 176.991 274.129 176.211 271.255 176.211C268.379 176.211 265.811 176.96 263.547 178.456C261.345 179.953 259.602 182.011 258.318 184.631C257.095 187.25 256.483 190.212 256.483 193.519C256.483 196.824 257.095 199.786 258.318 202.406C259.602 205.025 261.345 207.083 263.547 208.58C265.811 210.077 268.379 210.825 271.255 210.825Z" fill="#07D5D7"/>
<path d="M344.792 168.634C345.955 168.634 346.933 169.039 347.729 169.85C348.524 170.598 348.921 171.502 348.921 172.563C348.921 173.124 348.707 173.904 348.279 174.902L330.848 215.316C330.48 216.127 329.96 216.782 329.288 217.28C328.614 217.779 327.881 218.061 327.086 218.123C326.107 218.247 325.189 218.061 324.333 217.561C323.538 217.062 322.926 216.313 322.498 215.316L305.067 174.902C304.76 173.967 304.607 173.186 304.607 172.563C304.607 171.565 305.005 170.66 305.8 169.85C306.595 169.039 307.635 168.634 308.92 168.634C309.837 168.634 310.663 168.884 311.397 169.382C312.13 169.819 312.712 170.505 313.14 171.44L326.993 204.277L340.848 171.44C341.703 169.569 343.019 168.634 344.792 168.634Z" fill="#07D5D7"/>
<path d="M368.449 213.633C368.449 214.881 368.021 215.941 367.165 216.815C366.369 217.687 365.33 218.124 364.045 218.124C362.822 218.124 361.782 217.687 360.926 216.815C360.131 215.941 359.734 214.881 359.734 213.633V173.126C359.734 171.879 360.131 170.818 360.926 169.945C361.782 169.072 362.822 168.635 364.045 168.635C365.33 168.635 366.369 169.072 367.165 169.945C368.021 170.818 368.449 171.879 368.449 173.126V213.633ZM364.045 162.46C362.272 162.46 360.987 162.149 360.192 161.525C359.458 160.839 359.091 159.779 359.091 158.345V156.848C359.091 155.351 359.489 154.291 360.284 153.667C361.14 153.043 362.424 152.731 364.137 152.731C365.85 152.731 367.073 153.074 367.807 153.761C368.602 154.384 369 155.413 369 156.848V158.345C369 159.841 368.602 160.902 367.807 161.525C367.012 162.149 365.758 162.46 364.045 162.46Z" fill="#07D5D7"/>
<defs>
<linearGradient id="paint0_linear" x1="-0.000635025" y1="56.4033" x2="368.302" y2="56.4033" gradientUnits="userSpaceOnUse">
<stop stop-color="#5EDABB"/>
<stop offset="1" stop-color="#04D5D9"/>
</linearGradient>
<linearGradient id="paint1_linear" x1="0.002707" y1="56.4031" x2="368.306" y2="56.4031" gradientUnits="userSpaceOnUse">
<stop stop-color="#5EDABB"/>
<stop offset="1" stop-color="#04D5D9"/>
</linearGradient>
<linearGradient id="paint2_linear" x1="0" y1="56.4031" x2="368.303" y2="56.4031" gradientUnits="userSpaceOnUse">
<stop stop-color="#5EDABB"/>
<stop offset="1" stop-color="#04D5D9"/>
</linearGradient>
</defs>
</svg>
