<svg width="244" height="464" viewBox="0 0 244 464" fill="none" xmlns="http://www.w3.org/2000/svg" preserveAspectRatio="none">
<path d="M6.01035 0V39.5C6.01035 57.1731 20.3372 71.5 38.0103 71.5H154.383C172.056 71.5 186.383 85.8269 186.383 103.5V106.5C186.383 124.173 172.056 138.5 154.383 138.5H98.3949C83.3452 138.5 71.1449 150.7 71.1449 165.75C71.1449 180.8 83.3452 193 98.3949 193H217C231.359 193 243 204.641 243 219C243 233.359 231.359 245 217 245H33C15.3269 245 1 259.327 1 277V281C1 298.673 15.3269 313 33 313H120.313C137.986 313 152.313 327.327 152.313 345V347C152.313 360.255 141.567 371 128.313 371H102.395C85.136 371 71.1449 384.991 71.1449 402.25C71.1449 419.509 85.136 433.5 102.395 433.5H206.738C223.444 433.5 236.988 447.043 236.988 463.75" stroke="#05D89C"/>
</svg>
