<svg width="200" height="200" viewBox="0 0 200 200" fill="none" xmlns="http://www.w3.org/2000/svg">
<rect width="200" height="200" fill="#F8F8F8"/>
<path d="M71.6197 162.952V175H68.9317V157.96H71.1397L80.7877 170.272V157.984H83.4997V175H81.1477L71.6197 162.952ZM91.7747 175.12C90.6387 175.12 89.6387 174.824 88.7747 174.232C87.9267 173.64 87.2547 172.864 86.7587 171.904C86.2787 170.928 86.0387 169.872 86.0387 168.736C86.0387 167.552 86.2867 166.464 86.7827 165.472C87.2787 164.48 87.9587 163.696 88.8227 163.12C89.7027 162.528 90.7187 162.232 91.8707 162.232C92.8787 162.232 93.7587 162.472 94.5107 162.952C95.2787 163.432 95.9107 164.056 96.4067 164.824V162.448H98.7347V174.64C98.7347 175.856 98.4387 176.888 97.8467 177.736C97.2707 178.584 96.4787 179.232 95.4707 179.68C94.4627 180.128 93.3267 180.352 92.0627 180.352C90.6707 180.352 89.5107 180.112 88.5827 179.632C87.6707 179.152 86.9027 178.496 86.2787 177.664L87.7667 176.272C88.2467 176.944 88.8627 177.456 89.6147 177.808C90.3827 178.16 91.1987 178.336 92.0627 178.336C92.7827 178.336 93.4467 178.2 94.0547 177.928C94.6787 177.672 95.1747 177.272 95.5427 176.728C95.9107 176.184 96.0947 175.488 96.0947 174.64V172.72C95.6467 173.472 95.0307 174.064 94.2467 174.496C93.4627 174.912 92.6387 175.12 91.7747 175.12ZM92.6387 172.984C93.1667 172.984 93.6707 172.872 94.1507 172.648C94.6307 172.408 95.0387 172.096 95.3747 171.712C95.7267 171.328 95.9667 170.92 96.0947 170.488V167.2C95.7747 166.4 95.2707 165.752 94.5827 165.256C93.9107 164.744 93.1987 164.488 92.4467 164.488C91.6787 164.488 91.0147 164.696 90.4547 165.112C89.9107 165.528 89.4867 166.072 89.1827 166.744C88.8787 167.4 88.7267 168.088 88.7267 168.808C88.7267 169.576 88.8947 170.28 89.2307 170.92C89.5827 171.544 90.0547 172.048 90.6467 172.432C91.2387 172.8 91.9027 172.984 92.6387 172.984ZM101.9 160.384V157.48H104.54V160.384H101.9ZM101.9 175V162.448H104.54V175H101.9ZM118.969 175H116.329V167.968C116.329 166.784 116.137 165.928 115.753 165.4C115.385 164.856 114.833 164.584 114.097 164.584C113.585 164.584 113.073 164.712 112.561 164.968C112.065 165.224 111.617 165.576 111.217 166.024C110.817 166.472 110.529 166.976 110.353 167.536V175H107.713V162.448H110.113V164.968C110.593 164.136 111.289 163.472 112.201 162.976C113.113 162.48 114.121 162.232 115.225 162.232C116.217 162.232 116.985 162.472 117.529 162.952C118.073 163.416 118.449 164.032 118.657 164.8C118.865 165.568 118.969 166.416 118.969 167.344V175ZM123.521 162.448L126.497 166.744L126.713 167.152L126.929 166.744L129.881 162.448H132.737L128.225 168.736L132.785 175H129.929L126.929 170.728L126.713 170.344L126.497 170.728L123.497 175H120.641L125.201 168.76L120.689 162.448H123.521Z" fill="#171718"/>
<path d="M53.0035 83.0812V57.3049C52.9783 56.8511 53.0882 56.4001 53.3192 56.0089C53.5502 55.6177 53.892 55.304 54.3013 55.1076L98.7042 29.4291C99.5031 28.9296 100.4 28.8283 101.199 29.3278L145.8 55.1042C146.183 55.3245 146.497 55.6463 146.708 56.034C146.919 56.4217 147.019 56.8604 146.997 57.3015V108.756C147.019 109.197 146.919 109.636 146.708 110.024C146.497 110.412 146.183 110.733 145.8 110.954L107.485 133.129C105.478 134.332 103.448 135.497 101.397 136.625C100.501 137.125 99.6008 137.125 98.7008 136.625L54.2002 110.947C53.4013 110.447 53.0035 109.847 53.0035 108.847V83.0711V83.0812Z" fill="#009438"/>
<path d="M84.22 73.601V103.671C84.22 107.07 81.5059 110.07 77.8929 109.972C75.6877 109.871 73.9779 108.972 72.804 107.073C72.2002 106.175 72 105.175 72 104.073V62.3027C72 59.4985 73.7064 57.505 75.915 56.6029C78.1235 55.7008 80.3321 55.9036 82.544 56.6029C84.6542 57.2043 86.2589 58.5018 87.6329 60.1032L114.346 92.0079C114.448 92.1093 114.549 92.312 114.746 92.508V62.1C114.746 58.9004 116.951 56.4002 120.072 56.0995C123.987 55.5995 126.6 58.397 127 61.3027V103.874C127 106.239 125.894 107.975 123.886 109.077C122.379 109.878 120.771 110.077 119.068 109.976C116.605 109.812 114.269 108.825 112.439 107.175C111.435 106.276 110.733 105.175 109.827 104.174L84.4167 73.8679C84.4167 73.7665 84.3149 73.6652 84.2132 73.5638L84.22 73.601Z" fill="#FEFEFE"/>
</svg>
