<svg width="200" height="200" viewBox="0 0 200 200" fill="none" xmlns="http://www.w3.org/2000/svg">
<rect width="200" height="200" fill="#F8F8F8"/>
<path d="M73.5182 162.952V175H70.8302V157.96H73.0382L82.6862 170.272V157.984H85.3982V175H83.0462L73.5182 162.952ZM94.3217 175.24C93.0097 175.24 91.8657 174.944 90.8897 174.352C89.9297 173.744 89.1857 172.952 88.6577 171.976C88.1297 170.984 87.8657 169.904 87.8657 168.736C87.8657 167.568 88.1297 166.496 88.6577 165.52C89.2017 164.528 89.9537 163.736 90.9137 163.144C91.8897 162.536 93.0257 162.232 94.3217 162.232C95.6177 162.232 96.7457 162.536 97.7057 163.144C98.6817 163.736 99.4337 164.528 99.9617 165.52C100.506 166.496 100.778 167.568 100.778 168.736C100.778 169.904 100.514 170.984 99.9857 171.976C99.4577 172.952 98.7057 173.744 97.7297 174.352C96.7697 174.944 95.6337 175.24 94.3217 175.24ZM90.5777 168.76C90.5777 169.56 90.7457 170.28 91.0817 170.92C91.4177 171.56 91.8657 172.064 92.4257 172.432C92.9857 172.8 93.6177 172.984 94.3217 172.984C95.0097 172.984 95.6337 172.8 96.1937 172.432C96.7697 172.048 97.2257 171.536 97.5617 170.896C97.8977 170.256 98.0657 169.536 98.0657 168.736C98.0657 167.936 97.8977 167.216 97.5617 166.576C97.2257 165.936 96.7697 165.432 96.1937 165.064C95.6337 164.68 95.0097 164.488 94.3217 164.488C93.6337 164.488 93.0017 164.68 92.4257 165.064C91.8657 165.432 91.4177 165.944 91.0817 166.6C90.7457 167.24 90.5777 167.96 90.5777 168.76ZM102.327 168.736C102.327 167.536 102.567 166.448 103.047 165.472C103.543 164.48 104.215 163.696 105.063 163.12C105.911 162.528 106.887 162.232 107.991 162.232C108.951 162.232 109.815 162.48 110.583 162.976C111.367 163.472 111.975 164.088 112.407 164.824V157.48H115.047V172.024C115.047 172.328 115.103 172.544 115.215 172.672C115.327 172.8 115.511 172.872 115.767 172.888V175C115.271 175.08 114.887 175.12 114.615 175.12C114.119 175.12 113.695 174.984 113.343 174.712C113.007 174.424 112.831 174.072 112.815 173.656L112.791 172.72C112.311 173.52 111.663 174.144 110.847 174.592C110.031 175.024 109.183 175.24 108.303 175.24C107.151 175.24 106.119 174.944 105.207 174.352C104.311 173.76 103.607 172.976 103.095 172C102.583 171.008 102.327 169.92 102.327 168.736ZM112.407 170.488V167.2C112.215 166.688 111.927 166.232 111.543 165.832C111.159 165.416 110.719 165.088 110.223 164.848C109.743 164.608 109.263 164.488 108.783 164.488C108.031 164.488 107.375 164.696 106.815 165.112C106.271 165.512 105.839 166.04 105.519 166.696C105.215 167.352 105.063 168.048 105.063 168.784C105.063 169.552 105.231 170.256 105.567 170.896C105.919 171.536 106.391 172.048 106.983 172.432C107.575 172.8 108.239 172.984 108.975 172.984C109.423 172.984 109.887 172.88 110.367 172.672C110.863 172.448 111.295 172.152 111.663 171.784C112.031 171.4 112.279 170.968 112.407 170.488ZM124.088 175.24C122.792 175.24 121.656 174.944 120.68 174.352C119.704 173.76 118.944 172.976 118.4 172C117.856 171.008 117.584 169.928 117.584 168.76C117.584 167.576 117.856 166.488 118.4 165.496C118.944 164.504 119.704 163.712 120.68 163.12C121.656 162.528 122.8 162.232 124.112 162.232C125.424 162.232 126.56 162.536 127.52 163.144C128.48 163.736 129.216 164.52 129.728 165.496C130.256 166.472 130.52 167.52 130.52 168.64C130.52 169.04 130.496 169.36 130.448 169.6H120.392C120.44 170.336 120.64 170.984 120.992 171.544C121.36 172.088 121.816 172.52 122.36 172.84C122.92 173.144 123.528 173.296 124.184 173.296C124.888 173.296 125.552 173.12 126.176 172.768C126.8 172.416 127.232 171.952 127.472 171.376L129.728 172.024C129.296 172.968 128.576 173.744 127.568 174.352C126.576 174.944 125.416 175.24 124.088 175.24ZM120.32 167.848H127.904C127.84 167.128 127.632 166.496 127.28 165.952C126.928 165.392 126.472 164.96 125.912 164.656C125.368 164.336 124.76 164.176 124.088 164.176C123.432 164.176 122.824 164.336 122.264 164.656C121.72 164.96 121.272 165.392 120.92 165.952C120.568 166.496 120.368 167.128 120.32 167.848Z" fill="#171718"/>
<g clip-path="url(#clip0)">
<path fill-rule="evenodd" clip-rule="evenodd" d="M51.484 84.1368C51.484 83.4156 51.1112 82.7531 50.5002 82.3925L34.2219 72.8403C33.9452 72.6756 33.6378 72.5894 33.3265 72.5776C33.2996 72.5776 33.1805 72.5776 33.1574 72.5776C32.8462 72.5894 32.5387 72.6756 32.2582 72.8403L15.9838 82.3925C15.3766 82.7531 15 83.4156 15 84.1368L15.0346 109.866C15.0346 110.222 15.2152 110.555 15.5265 110.732C15.8301 110.916 16.2028 110.916 16.5026 110.732L26.175 105.084C26.786 104.711 27.1588 104.061 27.1588 103.343V91.3255C27.1588 90.6082 27.5315 89.9458 28.1387 89.5891L32.2582 87.1706C32.5656 86.9903 32.9 86.9002 33.242 86.9002C33.5763 86.9002 33.9222 86.9903 34.2181 87.1706L38.3337 89.5891C38.9448 89.9458 39.3175 90.6082 39.3175 91.3255V103.343C39.3175 104.057 39.6941 104.715 40.3013 105.084L49.9699 110.732C50.2735 110.916 50.6501 110.916 50.9536 110.732C51.2534 110.555 51.4417 110.222 51.4417 109.866L51.484 84.1368Z" fill="#333333"/>
<path fill-rule="evenodd" clip-rule="evenodd" d="M129.798 48.7695C129.494 48.5971 129.121 48.601 128.822 48.7813C128.522 48.9616 128.337 49.2909 128.337 49.6476V75.1255C128.337 75.3764 128.207 75.6076 127.995 75.7331C127.784 75.8585 127.519 75.8585 127.307 75.7331L123.23 73.3381C122.623 72.9814 121.874 72.9814 121.267 73.3381L104.984 82.9217C104.377 83.2784 104.001 83.9409 104.001 84.6582V103.833C104.001 104.551 104.377 105.213 104.984 105.57L121.267 115.161C121.874 115.518 122.623 115.518 123.234 115.161L139.52 105.57C140.127 105.209 140.504 104.551 140.504 103.833V56.0366C140.504 55.3115 140.12 54.6412 139.497 54.2845L129.798 48.7695ZM128.287 97.5343C128.287 97.7146 128.195 97.8793 128.041 97.9694L122.45 101.258C122.3 101.348 122.112 101.348 121.958 101.258L116.367 97.9694C116.213 97.8793 116.121 97.7146 116.121 97.5343V90.9493C116.121 90.769 116.213 90.6043 116.367 90.5142L121.958 87.2216C122.112 87.1315 122.296 87.1315 122.45 87.2216L128.041 90.5142C128.191 90.6043 128.287 90.769 128.287 90.9493V97.5343Z" fill="#333333"/>
<path fill-rule="evenodd" clip-rule="evenodd" d="M184.02 90.7774C184.627 90.4168 185 89.7583 185 89.0449V84.3962C185 83.6828 184.627 83.0204 184.02 82.6597L167.842 73.08C167.235 72.7194 166.481 72.7194 165.87 73.0761L149.592 82.6597C148.985 83.0164 148.608 83.6789 148.608 84.3962V103.563C148.608 104.285 148.989 104.951 149.6 105.308L165.774 114.711C166.37 115.06 167.1 115.064 167.703 114.723L177.487 109.176C177.799 109 177.991 108.667 177.994 108.306C177.998 107.946 177.81 107.609 177.503 107.428L161.121 97.8407C160.813 97.6604 160.625 97.3311 160.625 96.9705V90.9616C160.625 90.6049 160.813 90.2718 161.117 90.0915L166.216 87.0929C166.52 86.9126 166.893 86.9126 167.196 87.0929L172.296 90.0915C172.599 90.2718 172.787 90.601 172.787 90.9616V95.6888C172.787 96.0494 172.976 96.3786 173.279 96.5589C173.583 96.7393 173.96 96.7353 174.263 96.555L184.02 90.7774Z" fill="#333333"/>
<path fill-rule="evenodd" clip-rule="evenodd" d="M166.615 89.8791C166.731 89.8085 166.877 89.8085 166.992 89.8791L170.116 91.7174C170.231 91.788 170.304 91.9134 170.304 92.0506V95.7312C170.304 95.8684 170.231 95.9938 170.116 96.0644L166.992 97.9027C166.877 97.9732 166.731 97.9732 166.615 97.9027L163.495 96.0644C163.38 95.9938 163.307 95.8684 163.307 95.7312V92.0506C163.307 91.9134 163.38 91.788 163.495 91.7174L166.615 89.8791Z" fill="#679E63"/>
<mask id="mask0" mask-type="alpha" maskUnits="userSpaceOnUse" x="59" y="72" width="38" height="44">
<path fill-rule="evenodd" clip-rule="evenodd" d="M76.9665 73.2496C77.5619 72.8908 78.3081 72.8908 78.9115 73.2496L95.0463 82.7574C95.6496 83.1142 96.0187 83.771 96.0187 84.4805V103.516C96.0187 104.226 95.6496 104.883 95.0463 105.24L78.9115 114.747C78.3081 115.106 77.5619 115.106 76.9665 114.747L60.8417 105.24C60.2264 104.883 59.8494 104.226 59.8494 103.516V84.4805C59.8494 83.771 60.2066 83.1142 60.8219 82.7574L76.9665 73.2496Z" fill="#689F63"/>
</mask>
<g mask="url(#mask0)">
<path d="M78.9147 73.2474C78.3133 72.8915 77.5701 72.8915 76.9649 73.2474L60.8262 82.7538C60.2209 83.1096 59.8494 83.7666 59.8494 84.4783V103.511C59.8494 104.222 60.2209 104.879 60.8224 105.235L76.961 114.749C77.5663 115.105 78.3094 115.105 78.9109 114.749L95.0457 105.235C95.6471 104.879 96.0187 104.222 96.0187 103.511V84.4783C96.0187 83.7666 95.6471 83.1096 95.0419 82.7538L78.9147 73.2474Z" fill="url(#paint0_linear)"/>
<path d="M94.9983 82.7062L78.9124 73.1775C78.7525 73.0834 78.585 73.0168 78.4099 72.9697L60.348 104.778C60.5041 104.958 60.6869 105.115 60.8887 105.237L77.0012 114.773C77.4581 115.044 77.9987 115.106 78.4974 114.965L95.4285 83.0433C95.3029 82.9179 95.1582 82.8003 94.9983 82.7062Z" fill="url(#paint1_linear)"/>
<path d="M95.0212 105.241C95.4845 104.962 95.8273 104.5 95.9591 103.971L78.5112 72.9541C78.0555 72.86 77.5733 72.9306 77.1627 73.1775L61.3534 82.6514L78.4321 115.024C78.677 114.989 78.9143 114.906 79.1328 114.777L95.0212 105.241Z" fill="url(#paint2_linear)"/>
</g>
</g>
<defs>
<linearGradient id="paint0_linear" x1="84.5021" y1="80.3283" x2="69.4296" y2="110.449" gradientUnits="userSpaceOnUse">
<stop stop-color="#3F873F"/>
<stop offset="0.3296" stop-color="#3F8B3D"/>
<stop offset="0.6367" stop-color="#3E9638"/>
<stop offset="0.9341" stop-color="#3DA92E"/>
<stop offset="1" stop-color="#3DAE2B"/>
</linearGradient>
<linearGradient id="paint1_linear" x1="75.517" y1="96.2042" x2="117.01" y2="66.426" gradientUnits="userSpaceOnUse">
<stop offset="0.1376" stop-color="#3F873F"/>
<stop offset="0.4016" stop-color="#52A044"/>
<stop offset="0.7129" stop-color="#64B749"/>
<stop offset="0.9081" stop-color="#6ABF4B"/>
</linearGradient>
<linearGradient id="paint2_linear" x1="59.8039" y1="93.9693" x2="96.4991" y2="93.9693" gradientUnits="userSpaceOnUse">
<stop offset="0.0919" stop-color="#6ABF4B"/>
<stop offset="0.2871" stop-color="#64B749"/>
<stop offset="0.5984" stop-color="#52A044"/>
<stop offset="0.8624" stop-color="#3F873F"/>
</linearGradient>
<clipPath id="clip0">
<rect width="170" height="114" fill="white" transform="translate(15 25)"/>
</clipPath>
</defs>
</svg>
