<svg width="999" height="933" viewBox="0 0 999 933" fill="none" xmlns="http://www.w3.org/2000/svg">
<path d="M661.206 503H900.692C953.874 503 997 547.575 997 602.544V632.369C997 687.337 953.874 731.913 900.692 731.913H525.308C472.126 731.913 429 776.488 429 831.456C429 886.424 472.126 931 525.308 931M570 2C570 45.5621 526.874 80.8879 473.692 80.8879H98.3076C45.1263 80.8879 2 116.214 2 159.776C2 203.338 45.1263 238.664 98.3076 238.664H473.692C526.874 238.664 570 273.99 570 317.552V400" stroke="#05D89C" stroke-width="4" stroke-miterlimit="10" stroke-linecap="round" stroke-linejoin="round"/>
</svg>
