<svg width="82" height="88" viewBox="0 0 82 88" fill="none" xmlns="http://www.w3.org/2000/svg">
<path d="M50.2723 4.3287C49.7214 6.28124 51.9157 8.93581 55.1934 10.2631C58.4619 11.5904 61.5651 11.0748 62.116 9.1223C62.6669 7.16976 60.4726 4.51519 57.1949 3.1879C53.9172 1.87159 50.8231 2.37617 50.2723 4.3287Z" fill="url(#paint0_linear)"/>
<path d="M42.4782 1.13632C42.1936 2.25518 43.4789 3.72506 45.3611 4.41613C47.2432 5.10719 48.9968 4.75617 49.2906 3.62634C49.5752 2.50747 48.2899 1.03759 46.4077 0.346525C44.5256 -0.333572 42.7628 0.0174474 42.4782 1.13632Z" fill="url(#paint1_linear)"/>
<path d="M34.5981 6.0895C34.5981 6.0895 51.2497 13.3718 65.6694 18.661C80.0983 23.9502 85.8294 36.3026 79.3543 51.7432C72.8792 67.1838 60.3056 86.3695 42.5427 87.9135C24.789 89.4576 1.11133 70.2719 0 33.4445C0 12.7147 6.65878 2.79332 20.3437 3.01234C29.6109 2.99043 34.5981 6.0895 34.5981 6.0895Z" fill="url(#paint2_linear)"/>
<path d="M47.0103 53.917H43.5728V59.835H37.6743V53.917H25.4868V49.7178L38.0063 31.2803H43.5728V49.2295H47.0103V53.917ZM37.6743 49.2295V44.3857C37.6743 43.5785 37.7069 42.4066 37.772 40.8701C37.8371 39.3337 37.8892 38.4417 37.9282 38.1943H37.772C37.2902 39.262 36.7108 40.3037 36.0337 41.3193L30.7993 49.2295H37.6743Z" fill="white"/>
<defs>
<linearGradient id="paint0_linear" x1="62.1922" y1="6.72374" x2="50.1825" y2="6.72374" gradientUnits="userSpaceOnUse">
<stop stop-color="#9FF2CB"/>
<stop offset="1" stop-color="#82B9EC"/>
</linearGradient>
<linearGradient id="paint1_linear" x1="49.3252" y1="2.38272" x2="42.4358" y2="2.38272" gradientUnits="userSpaceOnUse">
<stop stop-color="#9FF2CB"/>
<stop offset="1" stop-color="#82B9EC"/>
</linearGradient>
<linearGradient id="paint2_linear" x1="194.37" y1="46.029" x2="-85.037" y2="46.029" gradientUnits="userSpaceOnUse">
<stop stop-color="#5EDABB"/>
<stop offset="1" stop-color="#04D5D9"/>
</linearGradient>
</defs>
</svg>
