<svg width="82" height="88" viewBox="0 0 82 88" fill="none" xmlns="http://www.w3.org/2000/svg">
<path d="M50.2723 4.3287C49.7214 6.28124 51.9157 8.93581 55.1934 10.2631C58.4619 11.5904 61.5651 11.0748 62.116 9.1223C62.6669 7.16976 60.4726 4.51519 57.1949 3.1879C53.9172 1.87159 50.8231 2.37617 50.2723 4.3287Z" fill="url(#paint0_linear)"/>
<path d="M42.4782 1.13632C42.1936 2.25518 43.4789 3.72506 45.3611 4.41613C47.2432 5.10719 48.9968 4.75617 49.2906 3.62634C49.5752 2.50747 48.2899 1.03759 46.4077 0.346525C44.5256 -0.333572 42.7628 0.0174474 42.4782 1.13632Z" fill="url(#paint1_linear)"/>
<path d="M34.5981 6.0895C34.5981 6.0895 51.2497 13.3718 65.6694 18.661C80.0983 23.9502 85.8294 36.3026 79.3543 51.7432C72.8792 67.1838 60.3056 86.3695 42.5427 87.9135C24.789 89.4576 1.11133 70.2719 0 33.4445C0 12.7147 6.65878 2.79332 20.3437 3.01234C29.6109 2.99043 34.5981 6.0895 34.5981 6.0895Z" fill="url(#paint2_linear)"/>
<path d="M26.2095 47.7061C26.2095 42.055 27.4009 37.8493 29.7837 35.0889C32.1795 32.3285 35.7603 30.9482 40.5259 30.9482C42.1535 30.9482 43.4295 31.0459 44.354 31.2412V36.0654C43.1951 35.805 42.0493 35.6748 40.9165 35.6748C38.8462 35.6748 37.1535 35.9873 35.8384 36.6123C34.5363 37.2373 33.5597 38.1618 32.9087 39.3857C32.2576 40.6097 31.8735 42.348 31.7563 44.6006H32.0103C33.2993 42.387 35.3631 41.2803 38.2017 41.2803C40.7537 41.2803 42.7524 42.0811 44.1978 43.6826C45.6431 45.2842 46.3657 47.4977 46.3657 50.3232C46.3657 53.3701 45.5063 55.7855 43.7876 57.5693C42.0688 59.3402 39.686 60.2256 36.6392 60.2256C34.5298 60.2256 32.6873 59.7373 31.1118 58.7607C29.5493 57.7842 28.3384 56.3584 27.479 54.4834C26.6326 52.6084 26.2095 50.3493 26.2095 47.7061ZM36.522 55.4014C37.811 55.4014 38.8006 54.9717 39.4907 54.1123C40.1808 53.2399 40.5259 52.0029 40.5259 50.4014C40.5259 49.0081 40.2004 47.9144 39.5493 47.1201C38.9113 46.3128 37.9412 45.9092 36.6392 45.9092C35.4152 45.9092 34.367 46.3063 33.4946 47.1006C32.6353 47.8949 32.2056 48.8193 32.2056 49.874C32.2056 51.4235 32.6092 52.7321 33.4165 53.7998C34.2368 54.8675 35.272 55.4014 36.522 55.4014Z" fill="white"/>
<defs>
<linearGradient id="paint0_linear" x1="62.1922" y1="6.72374" x2="50.1825" y2="6.72374" gradientUnits="userSpaceOnUse">
<stop stop-color="#9FF2CB"/>
<stop offset="1" stop-color="#82B9EC"/>
</linearGradient>
<linearGradient id="paint1_linear" x1="49.3252" y1="2.38272" x2="42.4358" y2="2.38272" gradientUnits="userSpaceOnUse">
<stop stop-color="#9FF2CB"/>
<stop offset="1" stop-color="#82B9EC"/>
</linearGradient>
<linearGradient id="paint2_linear" x1="410.359" y1="45.8551" x2="0.281346" y2="45.8551" gradientUnits="userSpaceOnUse">
<stop stop-color="#5EDABB"/>
<stop offset="1" stop-color="#04D5D9"/>
</linearGradient>
</defs>
</svg>
