<svg width="235" height="211" viewBox="0 0 235 211" fill="none" xmlns="http://www.w3.org/2000/svg">
<path d="M91.349 11.0224C92.9215 15.6731 86.6577 21.9959 77.3014 25.1574C67.9713 28.3188 59.113 27.0909 57.5405 22.4402C55.968 17.7895 62.2318 11.4666 71.5881 8.30513C80.9182 5.16982 89.7765 6.37167 91.349 11.0224Z" fill="url(#paint0_linear)"/>
<path d="M113.601 3.44623C114.413 6.11124 110.744 9.61232 105.371 11.2584C99.9985 12.9044 94.9928 12.0683 94.1541 9.37716C93.3417 6.71215 97.0108 3.21108 102.383 1.56504C107.756 -0.0809984 112.788 0.755088 113.601 3.44623Z" fill="url(#paint1_linear)"/>
<path d="M136.245 15.229C136.245 15.229 88.7293 32.6038 47.5825 45.2235C6.43577 57.8431 -9.94431 87.315 8.53242 124.155C27.0091 160.995 62.8881 206.77 113.575 210.454C164.235 214.138 231.799 168.363 234.971 80.4957C234.971 31.0362 215.97 7.36457 176.92 7.88712C150.502 7.83487 136.245 15.229 136.245 15.229Z" fill="url(#paint2_linear)"/>
<path d="M123.437 97.4676C126.818 97.4676 129.963 98.0425 132.872 99.1922C135.78 100.274 138.282 101.83 140.379 103.859C142.476 105.888 144.099 108.323 145.249 111.164C146.466 114.004 147.075 117.149 147.075 120.598C147.075 124.251 146.398 127.565 145.046 130.541C143.761 133.517 141.934 136.053 139.567 138.15C137.2 140.314 134.393 141.971 131.147 143.121C127.9 144.338 124.383 144.947 120.596 144.947C115.32 144.947 110.586 143.831 106.393 141.599C102.267 139.367 99.122 136.323 96.9577 132.468L104.769 124.352C106.663 126.99 109.03 129.087 111.871 130.642C114.712 132.198 117.654 132.976 120.697 132.976C124.35 132.976 127.325 131.893 129.625 129.729C131.992 127.497 133.176 124.555 133.176 120.903C133.176 117.386 132.06 114.545 129.828 112.381C127.664 110.217 124.891 109.134 121.509 109.134C119.277 109.134 117.18 109.642 115.219 110.656C113.325 111.671 111.803 113.057 110.654 114.816H98.7838C98.7838 114.613 98.9191 113.869 99.1896 112.584C99.4602 111.231 99.7984 109.54 100.204 107.511C100.61 105.415 101.05 103.115 101.523 100.613C101.996 98.0425 102.504 95.4385 103.045 92.8008C104.262 86.5785 105.615 79.6121 107.103 71.9018H142.611V84.2789H116.944L114.002 100.41C114.813 99.5304 115.997 98.8203 117.552 98.2792C119.176 97.7381 121.137 97.4676 123.437 97.4676Z" fill="white"/>
<defs>
<linearGradient id="paint0_linear" x1="57.323" y1="16.7271" x2="91.6053" y2="16.7271" gradientUnits="userSpaceOnUse">
<stop stop-color="#9FF2CB"/>
<stop offset="1" stop-color="#82B9EC"/>
</linearGradient>
<linearGradient id="paint1_linear" x1="94.0554" y1="6.40615" x2="113.722" y2="6.40615" gradientUnits="userSpaceOnUse">
<stop stop-color="#9FF2CB"/>
<stop offset="1" stop-color="#82B9EC"/>
</linearGradient>
<linearGradient id="paint2_linear" x1="-319.656" y1="110.521" x2="477.62" y2="110.521" gradientUnits="userSpaceOnUse">
<stop stop-color="#5EDABB"/>
<stop offset="1" stop-color="#04D5D9"/>
</linearGradient>
</defs>
</svg>
