<svg width="234" height="212" viewBox="0 0 234 212" fill="none" xmlns="http://www.w3.org/2000/svg">
<path d="M90.5303 10.8025C92.1022 15.4647 85.8408 21.8033 76.4881 24.9726C67.1616 28.1418 58.3066 26.9108 56.7348 22.2485C55.1629 17.5863 61.4242 11.2478 70.7769 8.07854C80.1296 4.90926 88.9584 6.14025 90.5303 10.8025Z" fill="url(#paint0_linear)"/>
<path d="M135.259 15.2602C135.259 15.2602 87.7447 32.7344 46.5987 45.4261C5.42648 58.1178 -10.9271 87.7581 7.54932 124.809C26.0257 161.859 61.9039 207.896 112.589 211.601C163.275 215.306 230.812 169.269 233.983 80.8999C233.983 31.1578 214.983 7.35089 175.933 7.87643C149.49 7.85015 135.259 15.2602 135.259 15.2602Z" fill="url(#paint1_linear)"/>
<path d="M112.77 3.18028C113.582 5.8519 109.914 9.36173 104.543 11.0118C99.1728 12.662 94.1689 11.8238 93.3306 9.12599C92.5185 6.45437 96.1862 2.94454 101.557 1.29442C106.927 -0.355694 111.957 0.482465 112.77 3.18028Z" fill="url(#paint2_linear)"/>
<path d="M138.093 105.26C142.226 105.994 145.56 107.994 148.093 111.26C150.693 114.46 151.993 118.394 151.993 123.06C151.993 126.194 151.36 129.027 150.093 131.56C148.893 134.094 147.16 136.227 144.893 137.96C142.693 139.76 139.993 141.127 136.793 142.06C133.593 143.06 129.993 143.56 125.993 143.56C120.926 143.56 116.426 142.727 112.493 141.06C108.626 139.46 105.393 137.094 102.793 133.96L110.393 124.46C112.126 126.66 114.193 128.36 116.593 129.56C118.993 130.76 121.993 131.36 125.593 131.36C129.66 131.36 132.76 130.56 134.893 128.96C137.026 127.36 138.093 124.894 138.093 121.56C138.093 118.094 136.86 115.427 134.393 113.56C131.926 111.694 128.193 110.76 123.193 110.76H120.393V100.76H123.493C127.626 100.76 130.826 99.8603 133.093 98.0603C135.36 96.1937 136.493 93.827 136.493 90.9604C136.493 88.227 135.56 86.1937 133.693 84.8603C131.826 83.527 129.393 82.8604 126.393 82.8604C123.326 82.8604 120.56 83.5604 118.093 84.9604C115.693 86.3604 113.726 88.327 112.193 90.8603L103.793 81.4603C104.793 79.927 106.126 78.5603 107.793 77.3603C109.46 76.0937 111.326 75.027 113.393 74.1603C115.526 73.227 117.826 72.527 120.293 72.0603C122.76 71.527 125.293 71.2603 127.893 71.2603C131.293 71.2603 134.393 71.6937 137.193 72.5603C139.993 73.427 142.393 74.627 144.393 76.1604C146.46 77.6937 148.026 79.5604 149.093 81.7603C150.226 83.8937 150.793 86.2937 150.793 88.9603C150.793 90.9603 150.493 92.8604 149.893 94.6604C149.293 96.4603 148.426 98.0937 147.293 99.5604C146.16 101.027 144.793 102.26 143.193 103.26C141.66 104.26 139.96 104.927 138.093 105.26Z" fill="white"/>
<defs>
<linearGradient id="paint0_linear" x1="56.5173" y1="16.5156" x2="90.7865" y2="16.5156" gradientUnits="userSpaceOnUse">
<stop stop-color="#9FF2CB"/>
<stop offset="1" stop-color="#82B9EC"/>
</linearGradient>
<linearGradient id="paint1_linear" x1="0" y1="111.097" x2="787.553" y2="111.097" gradientUnits="userSpaceOnUse">
<stop stop-color="#5EDABB"/>
<stop offset="1" stop-color="#04D5D9"/>
</linearGradient>
<linearGradient id="paint2_linear" x1="93.2321" y1="6.1534" x2="112.89" y2="6.1534" gradientUnits="userSpaceOnUse">
<stop stop-color="#9FF2CB"/>
<stop offset="1" stop-color="#82B9EC"/>
</linearGradient>
</defs>
</svg>
