<svg width="82" height="88" viewBox="0 0 82 88" fill="none" xmlns="http://www.w3.org/2000/svg">
<path d="M31.7277 4.3287C32.2786 6.28124 30.0843 8.93581 26.8066 10.2631C23.5381 11.5904 20.4349 11.0748 19.884 9.1223C19.3331 7.16976 21.5274 4.51519 24.8051 3.1879C28.0828 1.87159 31.1769 2.37617 31.7277 4.3287Z" fill="url(#paint0_linear)"/>
<path d="M39.5218 1.13632C39.8064 2.25518 38.5211 3.72506 36.6389 4.41613C34.7568 5.10719 33.0032 4.75617 32.7094 3.62634C32.4248 2.50747 33.7101 1.03759 35.5923 0.346525C37.4744 -0.333572 39.2372 0.0174474 39.5218 1.13632Z" fill="url(#paint1_linear)"/>
<path d="M47.4019 6.0895C47.4019 6.0895 30.7503 13.3718 16.3306 18.661C1.90172 23.9502 -3.82942 36.3026 2.64568 51.7432C9.12077 67.1838 21.6944 86.3695 39.4573 87.9135C57.211 89.4576 80.8887 70.2719 82 33.4445C82 12.7147 75.3412 2.79332 61.6563 3.01234C52.3891 2.99043 47.4019 6.0895 47.4019 6.0895Z" fill="url(#paint2_linear)"/>
<path d="M46.79 41.5928C49.5505 41.5928 51.7445 42.3675 53.3721 43.917C55.0127 45.4665 55.833 47.5889 55.833 50.2842C55.833 53.4743 54.8499 55.9287 52.8838 57.6475C50.9176 59.3662 48.1051 60.2256 44.4463 60.2256C41.2692 60.2256 38.7041 59.7113 36.751 58.6826V53.4678C37.7796 54.0146 38.9775 54.4639 40.3447 54.8154C41.7119 55.154 43.0075 55.3232 44.2314 55.3232C47.9163 55.3232 49.7588 53.8128 49.7588 50.792C49.7588 47.9144 47.8512 46.4756 44.0361 46.4756C43.346 46.4756 42.5843 46.5472 41.751 46.6904C40.9176 46.8206 40.2406 46.9639 39.7197 47.1201L37.3174 45.8311L38.3916 31.2803H53.8799V36.3975H43.6846L43.1572 42.0029L43.8408 41.8662C44.6351 41.6839 45.6182 41.5928 46.79 41.5928Z" fill="white"/>
<defs>
<linearGradient id="paint0_linear" x1="19.8078" y1="6.72374" x2="31.8175" y2="6.72374" gradientUnits="userSpaceOnUse">
<stop stop-color="#9FF2CB"/>
<stop offset="1" stop-color="#82B9EC"/>
</linearGradient>
<linearGradient id="paint1_linear" x1="32.6748" y1="2.38272" x2="39.5642" y2="2.38272" gradientUnits="userSpaceOnUse">
<stop stop-color="#9FF2CB"/>
<stop offset="1" stop-color="#82B9EC"/>
</linearGradient>
<linearGradient id="paint2_linear" x1="-112.37" y1="46.029" x2="167.037" y2="46.029" gradientUnits="userSpaceOnUse">
<stop stop-color="#5EDABB"/>
<stop offset="1" stop-color="#04D5D9"/>
</linearGradient>
</defs>
</svg>
