<svg width="82" height="88" viewBox="0 0 82 88" fill="none" xmlns="http://www.w3.org/2000/svg">
<path d="M31.7277 4.3287C32.2786 6.28124 30.0843 8.93581 26.8066 10.2631C23.5381 11.5904 20.4349 11.0748 19.884 9.1223C19.3331 7.16976 21.5274 4.51519 24.8051 3.1879C28.0828 1.87159 31.1769 2.37617 31.7277 4.3287Z" fill="url(#paint0_linear)"/>
<path d="M39.5218 1.13632C39.8064 2.25518 38.5211 3.72506 36.6389 4.41613C34.7568 5.10719 33.0032 4.75617 32.7094 3.62634C32.4248 2.50747 33.7101 1.03759 35.5923 0.346525C37.4744 -0.333572 39.2372 0.0174474 39.5218 1.13632Z" fill="url(#paint1_linear)"/>
<path d="M47.4019 6.0895C47.4019 6.0895 30.7503 13.3718 16.3306 18.661C1.90172 23.9502 -3.82942 36.3026 2.64568 51.7432C9.12077 67.1838 21.6944 86.3695 39.4573 87.9135C57.211 89.4576 80.8887 70.2719 82 33.4445C82 12.7147 75.3412 2.79332 61.6563 3.01234C52.3891 2.99043 47.4019 6.0895 47.4019 6.0895Z" fill="url(#paint2_linear)"/>
<path d="M55.2471 37.667C55.2471 39.4508 54.7067 40.9678 53.626 42.2178C52.5452 43.4678 51.0283 44.3271 49.0752 44.7959V44.9131C51.3799 45.1995 53.1247 45.9027 54.3096 47.0225C55.4945 48.1292 56.0869 49.6266 56.0869 51.5146C56.0869 54.262 55.0908 56.404 53.0986 57.9404C51.1064 59.4639 48.2614 60.2256 44.5635 60.2256C41.4645 60.2256 38.7171 59.7113 36.3213 58.6826V53.5459C37.4281 54.1058 38.6455 54.5615 39.9736 54.9131C41.3018 55.2646 42.6169 55.4404 43.9189 55.4404C45.9111 55.4404 47.3825 55.1019 48.333 54.4248C49.2835 53.7477 49.7588 52.6605 49.7588 51.1631C49.7588 49.8219 49.2119 48.8714 48.1182 48.3115C47.0244 47.7516 45.2796 47.4717 42.8838 47.4717H40.7158V42.8428H42.9229C45.1364 42.8428 46.751 42.5563 47.7666 41.9834C48.7952 41.3975 49.3096 40.4014 49.3096 38.9951C49.3096 36.8337 47.9554 35.7529 45.2471 35.7529C44.3096 35.7529 43.3525 35.9092 42.376 36.2217C41.4124 36.5342 40.3382 37.0745 39.1533 37.8428L36.3604 33.6826C38.9645 31.8076 42.07 30.8701 45.6768 30.8701C48.6325 30.8701 50.9632 31.4691 52.6689 32.667C54.3877 33.8649 55.2471 35.5316 55.2471 37.667Z" fill="white"/>
<defs>
<linearGradient id="paint0_linear" x1="19.8078" y1="6.72374" x2="31.8175" y2="6.72374" gradientUnits="userSpaceOnUse">
<stop stop-color="#9FF2CB"/>
<stop offset="1" stop-color="#82B9EC"/>
</linearGradient>
<linearGradient id="paint1_linear" x1="32.6748" y1="2.38272" x2="39.5642" y2="2.38272" gradientUnits="userSpaceOnUse">
<stop stop-color="#9FF2CB"/>
<stop offset="1" stop-color="#82B9EC"/>
</linearGradient>
<linearGradient id="paint2_linear" x1="0" y1="46.029" x2="276" y2="46.029" gradientUnits="userSpaceOnUse">
<stop stop-color="#5EDABB"/>
<stop offset="1" stop-color="#04D5D9"/>
</linearGradient>
</defs>
</svg>
