<svg width="82" height="88" viewBox="0 0 82 88" fill="none" xmlns="http://www.w3.org/2000/svg">
<path d="M31.7277 4.3287C32.2786 6.28124 30.0843 8.93581 26.8066 10.2631C23.5381 11.5904 20.4349 11.0748 19.884 9.1223C19.3331 7.16976 21.5274 4.51519 24.8051 3.1879C28.0828 1.87159 31.1769 2.37617 31.7277 4.3287Z" fill="url(#paint0_linear)"/>
<path d="M39.5218 1.13632C39.8064 2.25518 38.5211 3.72506 36.6389 4.41613C34.7568 5.10719 33.0032 4.75617 32.7094 3.62634C32.4248 2.50747 33.7101 1.03759 35.5923 0.346525C37.4744 -0.333572 39.2372 0.0174474 39.5218 1.13632Z" fill="url(#paint1_linear)"/>
<path d="M47.4019 6.0895C47.4019 6.0895 30.7503 13.3718 16.3306 18.661C1.90172 23.9502 -3.82942 36.3026 2.64568 51.7432C9.12077 67.1838 21.6944 86.3695 39.4573 87.9135C57.211 89.4576 80.8887 70.2719 82 33.4445C82 12.7147 75.3412 2.79332 61.6563 3.01234C52.3891 2.99043 47.4019 6.0895 47.4019 6.0895Z" fill="url(#paint2_linear)"/>
<path d="M51.3213 59.835H45.2861V43.3115L45.3447 40.5967L45.4424 37.6279C44.4398 38.6305 43.7432 39.2881 43.3525 39.6006L40.0713 42.2373L37.1611 38.6045L46.3604 31.2803H51.3213V59.835Z" fill="white"/>
<defs>
<linearGradient id="paint0_linear" x1="19.8078" y1="6.72374" x2="31.8175" y2="6.72374" gradientUnits="userSpaceOnUse">
<stop stop-color="#9FF2CB"/>
<stop offset="1" stop-color="#82B9EC"/>
</linearGradient>
<linearGradient id="paint1_linear" x1="32.6748" y1="2.38272" x2="39.5642" y2="2.38272" gradientUnits="userSpaceOnUse">
<stop stop-color="#9FF2CB"/>
<stop offset="1" stop-color="#82B9EC"/>
</linearGradient>
<linearGradient id="paint2_linear" x1="-328.359" y1="45.8551" x2="81.7187" y2="45.8551" gradientUnits="userSpaceOnUse">
<stop stop-color="#5EDABB"/>
<stop offset="1" stop-color="#04D5D9"/>
</linearGradient>
</defs>
</svg>
