<svg width="82" height="88" viewBox="0 0 82 88" fill="none" xmlns="http://www.w3.org/2000/svg">
<path d="M50.2723 4.3287C49.7214 6.28124 51.9157 8.93581 55.1934 10.2631C58.4619 11.5904 61.5651 11.0748 62.116 9.1223C62.6669 7.16976 60.4726 4.51519 57.1949 3.1879C53.9172 1.87159 50.8231 2.37617 50.2723 4.3287Z" fill="url(#paint0_linear)"/>
<path d="M42.4782 1.13632C42.1936 2.25518 43.4789 3.72506 45.3611 4.41613C47.2432 5.10719 48.9968 4.75617 49.2906 3.62634C49.5752 2.50747 48.2899 1.03759 46.4077 0.346525C44.5256 -0.333572 42.7628 0.0174474 42.4782 1.13632Z" fill="url(#paint1_linear)"/>
<path d="M34.5981 6.0895C34.5981 6.0895 51.2497 13.3718 65.6694 18.661C80.0983 23.9502 85.8294 36.3026 79.3543 51.7432C72.8792 67.1838 60.3056 86.3695 42.5427 87.9135C24.789 89.4576 1.11133 70.2719 0 33.4445C0 12.7147 6.65878 2.79332 20.3437 3.01234C29.6109 2.99043 34.5981 6.0895 34.5981 6.0895Z" fill="url(#paint2_linear)"/>
<path d="M46.3657 59.835H26.4048V55.6357L33.5728 48.3896C35.6951 46.2152 37.0819 44.7113 37.7329 43.8779C38.384 43.0316 38.8527 42.2503 39.1392 41.5342C39.4256 40.818 39.5688 40.0758 39.5688 39.3076C39.5688 38.1618 39.2498 37.3089 38.6118 36.749C37.9868 36.1891 37.147 35.9092 36.0923 35.9092C34.9855 35.9092 33.9113 36.1631 32.8696 36.6709C31.828 37.1787 30.7407 37.9014 29.6079 38.8389L26.3267 34.9521C27.7329 33.7542 28.8983 32.9079 29.8228 32.4131C30.7472 31.9183 31.7563 31.5407 32.8501 31.2803C33.9438 31.0068 35.1678 30.8701 36.522 30.8701C38.3058 30.8701 39.8813 31.1956 41.2485 31.8467C42.6157 32.4977 43.6769 33.4092 44.4321 34.5811C45.1873 35.7529 45.5649 37.0941 45.5649 38.6045C45.5649 39.9196 45.3306 41.1566 44.8618 42.3154C44.4061 43.4613 43.6899 44.6396 42.7134 45.8506C41.7498 47.0615 40.0441 48.7868 37.5962 51.0264L33.9243 54.4834V54.7568H46.3657V59.835Z" fill="white"/>
<defs>
<linearGradient id="paint0_linear" x1="62.1922" y1="6.72374" x2="50.1825" y2="6.72374" gradientUnits="userSpaceOnUse">
<stop stop-color="#9FF2CB"/>
<stop offset="1" stop-color="#82B9EC"/>
</linearGradient>
<linearGradient id="paint1_linear" x1="49.3252" y1="2.38272" x2="42.4358" y2="2.38272" gradientUnits="userSpaceOnUse">
<stop stop-color="#9FF2CB"/>
<stop offset="1" stop-color="#82B9EC"/>
</linearGradient>
<linearGradient id="paint2_linear" x1="82" y1="46.029" x2="-194" y2="46.029" gradientUnits="userSpaceOnUse">
<stop stop-color="#5EDABB"/>
<stop offset="1" stop-color="#04D5D9"/>
</linearGradient>
</defs>
</svg>
