<svg width="234" height="212" viewBox="0 0 234 212" fill="none" xmlns="http://www.w3.org/2000/svg">
<path d="M90.3266 11.0408C91.8985 15.703 85.6371 22.0415 76.2844 25.2108C66.9579 28.3801 58.1029 27.1491 56.531 22.4869C54.9591 17.8246 61.2205 11.4861 70.5732 8.31678C79.8997 5.17369 88.7547 6.37853 90.3266 11.0408Z" fill="url(#paint0_linear)"/>
<path d="M112.57 3.44541C113.382 6.11704 109.715 9.62679 104.344 11.2769C98.9734 12.927 93.9696 12.0889 93.1313 9.39105C92.3191 6.71943 95.9869 3.20968 101.357 1.55956C106.728 -0.0905572 111.758 0.747602 112.57 3.44541Z" fill="url(#paint1_linear)"/>
<path d="M135.257 15.3923C135.257 15.3923 87.742 32.8665 46.5952 45.5582C5.44847 58.2499 -10.9316 87.8902 7.54511 124.941C26.0218 161.991 61.9008 208.028 112.587 211.733C163.248 215.438 230.812 169.401 233.983 81.032C233.983 31.2898 214.982 7.48297 175.932 8.00851C149.514 7.95596 135.257 15.3923 135.257 15.3923Z" fill="url(#paint2_linear)"/>
<path d="M96.5654 137C96.5654 134 96.7987 131.3 97.2654 128.9C97.732 126.433 98.532 124.167 99.6654 122.1C100.865 120.033 102.465 118.1 104.465 116.3C106.532 114.5 109.132 112.733 112.265 111C114.999 109.533 117.399 108.267 119.465 107.2C121.599 106.067 123.365 105.033 124.765 104.1C126.165 103.167 127.232 102.233 127.965 101.3C128.699 100.3 129.065 99.1667 129.065 97.9C129.065 95.9 128.265 94.2 126.665 92.8C125.065 91.3333 122.765 90.6 119.765 90.6C118.165 90.6 116.699 90.8333 115.365 91.3C114.032 91.7 112.765 92.2667 111.565 93C110.432 93.7333 109.365 94.5667 108.365 95.5C107.432 96.3667 106.565 97.3 105.765 98.3L97.1654 88.4C98.032 87.4667 99.2654 86.4667 100.865 85.4C102.465 84.2667 104.332 83.2333 106.465 82.3C108.665 81.3 111.065 80.5 113.665 79.9C116.332 79.2333 119.165 78.9 122.165 78.9C125.565 78.9 128.599 79.3333 131.265 80.2C133.932 81 136.165 82.1667 137.965 83.7C139.832 85.1667 141.232 86.9667 142.165 89.1C143.165 91.1667 143.665 93.4333 143.665 95.9C143.665 98.2333 143.232 100.3 142.365 102.1C141.499 103.9 140.399 105.5 139.065 106.9C137.732 108.3 136.265 109.533 134.665 110.6C133.132 111.6 131.632 112.5 130.165 113.3C128.965 113.967 127.599 114.733 126.065 115.6C124.532 116.467 122.999 117.433 121.465 118.5C119.999 119.5 118.632 120.567 117.365 121.7C116.099 122.767 115.132 123.833 114.465 124.9H144.765V137H96.5654Z" fill="white"/>
<defs>
<linearGradient id="paint0_linear" x1="56.3136" y1="16.7596" x2="90.5828" y2="16.7596" gradientUnits="userSpaceOnUse">
<stop stop-color="#9FF2CB"/>
<stop offset="1" stop-color="#82B9EC"/>
</linearGradient>
<linearGradient id="paint1_linear" x1="93.0325" y1="6.41267" x2="112.691" y2="6.41267" gradientUnits="userSpaceOnUse">
<stop stop-color="#9FF2CB"/>
<stop offset="1" stop-color="#82B9EC"/>
</linearGradient>
<linearGradient id="paint2_linear" x1="0" y1="111.229" x2="787.553" y2="111.229" gradientUnits="userSpaceOnUse">
<stop stop-color="#5EDABB"/>
<stop offset="1" stop-color="#04D5D9"/>
</linearGradient>
</defs>
</svg>
