<svg width="235" height="212" viewBox="0 0 235 212" fill="none" xmlns="http://www.w3.org/2000/svg">
<path d="M91.301 11.021C92.8734 15.6938 86.6098 22.0468 77.2536 25.2233C67.9237 28.3998 59.0656 27.1659 57.4931 22.4931C55.9207 17.8202 62.1843 11.4673 71.5404 8.2908C80.8965 5.11431 89.7285 6.34809 91.301 11.021Z" fill="url(#paint0_linear)"/>
<path d="M136.22 15.22C136.22 15.22 88.7051 32.6776 47.5591 45.3574C6.38693 58.0371 -9.96662 87.6493 8.50977 124.665C26.9861 161.68 62.8644 207.673 113.55 211.375C164.235 215.077 231.773 169.083 234.944 80.7976C234.944 31.1025 215.943 7.31818 176.894 7.84322C150.45 7.81697 136.22 15.22 136.22 15.22Z" fill="url(#paint1_linear)"/>
<path d="M113.548 3.38108C114.361 6.05878 110.692 9.5766 105.319 11.2305C99.9464 12.8844 94.9408 12.0443 94.1021 9.34033C93.2897 6.66263 96.9587 3.14481 102.331 1.49093C107.704 -0.162947 112.736 0.677121 113.548 3.38108Z" fill="url(#paint2_linear)"/>
<path d="M151.287 120.803C151.287 124.32 150.611 127.6 149.258 130.644C147.906 133.688 146.046 136.359 143.678 138.659C141.311 140.891 138.504 142.649 135.258 143.934C132.079 145.219 128.63 145.862 124.91 145.862C120.852 145.862 117.166 145.118 113.852 143.63C110.605 142.142 107.832 139.978 105.533 137.137C103.233 134.296 101.475 130.847 100.257 126.789C99.0399 122.663 98.4312 117.996 98.4312 112.789C98.4312 106.228 99.0737 100.445 100.359 95.4403C101.644 90.3678 103.504 86.1406 105.939 82.7589C108.373 79.3096 111.315 76.7057 114.765 74.9472C118.214 73.1887 122.069 72.3094 126.33 72.3094C130.862 72.3094 135.021 73.2901 138.809 75.2515C142.664 77.2129 145.91 80.0197 148.548 83.672L140.736 92.1939C139.113 89.6238 137.017 87.6286 134.446 86.2083C131.876 84.7879 129.103 84.0778 126.127 84.0778C121.596 84.0778 117.977 85.8701 115.272 89.4547C112.567 93.0393 111.146 98.1119 111.011 104.672C112.431 102.238 114.427 100.31 116.997 98.8897C119.635 97.4694 122.678 96.7592 126.127 96.7592C129.644 96.7592 132.925 97.3679 135.968 98.5853C139.079 99.8028 141.751 101.494 143.983 103.658C146.282 105.822 148.075 108.392 149.36 111.368C150.645 114.276 151.287 117.421 151.287 120.803ZM125.011 134.398C126.77 134.398 128.461 134.06 130.084 133.383C131.707 132.639 133.128 131.658 134.345 130.441C135.562 129.156 136.509 127.702 137.186 126.079C137.93 124.388 138.302 122.629 138.302 120.803C138.302 118.977 137.93 117.286 137.186 115.731C136.509 114.107 135.562 112.687 134.345 111.47C133.128 110.252 131.707 109.305 130.084 108.629C128.528 107.953 126.838 107.615 125.011 107.615C123.185 107.615 121.461 107.953 119.837 108.629C118.214 109.305 116.794 110.252 115.576 111.47C114.359 112.687 113.412 114.107 112.736 115.731C112.059 117.286 111.721 118.977 111.721 120.803C111.721 122.629 112.059 124.388 112.736 126.079C113.48 127.702 114.46 129.122 115.678 130.34C116.895 131.557 118.282 132.538 119.837 133.282C121.461 134.026 123.185 134.398 125.011 134.398Z" fill="white"/>
<defs>
<linearGradient id="paint0_linear" x1="57.2756" y1="16.7471" x2="91.5573" y2="16.7471" gradientUnits="userSpaceOnUse">
<stop stop-color="#9FF2CB"/>
<stop offset="1" stop-color="#82B9EC"/>
</linearGradient>
<linearGradient id="paint1_linear" x1="-935.997" y1="110.549" x2="234.141" y2="110.549" gradientUnits="userSpaceOnUse">
<stop stop-color="#5EDABB"/>
<stop offset="1" stop-color="#04D5D9"/>
</linearGradient>
<linearGradient id="paint2_linear" x1="94.0036" y1="6.36097" x2="113.669" y2="6.36097" gradientUnits="userSpaceOnUse">
<stop stop-color="#9FF2CB"/>
<stop offset="1" stop-color="#82B9EC"/>
</linearGradient>
</defs>
</svg>
