<svg width="1235" height="390" viewBox="0 0 1235 390" fill="none" xmlns="http://www.w3.org/2000/svg">
<path fill-rule="evenodd" clip-rule="evenodd" d="M1294.01 223.882L1102.15 383.165C1088.43 394.077 1068.57 391.665 1057.79 377.779L1051.78 370.044C1041 356.149 1043.38 336.041 1057.1 325.125L1213.5 195.289L1057.79 65.5207C1044.15 54.6286 1041.78 34.5534 1052.5 20.6934L1058.48 12.9676C1069.2 -0.892391 1088.95 -3.30381 1102.59 7.59456L1293.32 166.553C1301.18 172.828 1305.17 182.163 1305.19 191.585C1307.84 203.275 1303.94 215.983 1294.01 223.882Z" fill="#F8F8F8"/>
<path fill-rule="evenodd" clip-rule="evenodd" d="M716.399 64.8627C645.886 64.8627 588.726 122.941 588.726 194.588V324.313H716.399C786.913 324.313 844.073 266.235 844.073 194.588C844.073 122.941 786.913 64.8627 716.399 64.8627ZM524.889 194.588C524.889 87.1226 610.634 0 716.399 0C822.165 0 907.91 87.1226 907.91 194.588C907.91 302.053 822.165 389.176 716.399 389.176H524.889V194.588Z" fill="#F8F8F8"/>
<path fill-rule="evenodd" clip-rule="evenodd" d="M193.874 63.455C121.715 63.455 63.222 122.163 63.222 194.588C63.222 267.013 121.715 325.721 193.874 325.721C266.034 325.721 324.527 267.013 324.527 194.588C324.527 122.163 266.034 63.455 193.874 63.455ZM0 194.588C0 87.1178 86.799 3.35339e-05 193.874 3.35339e-05C300.95 3.35339e-05 387.749 87.1178 387.749 194.588C387.749 302.058 300.95 389.176 193.874 389.176C86.799 389.176 0 302.058 0 194.588Z" fill="#F8F8F8"/>
</svg>
