<svg width="241" height="200" viewBox="0 0 241 200" fill="none" xmlns="http://www.w3.org/2000/svg">
<g filter="url(#filter0_d_77_7350)">
<path d="M44.5643 30.8222L44.5643 30.8221C44.2296 21.1934 51.7055 12.5009 61.542 12.5C61.5425 12.5 61.543 12.5 61.5436 12.5H178.478C188.314 12.5 195.79 21.1941 195.455 30.8221C195.089 41.3564 195.548 55.228 199.066 66.6683L199.066 66.6686C202.341 77.3174 207.992 85.1708 217.503 87.0742V92.9253C207.991 94.8268 202.341 102.683 199.066 113.331L199.066 113.332C195.549 124.774 195.089 138.643 195.455 149.178C195.79 158.807 188.314 167.5 178.478 167.5H61.5451C51.7059 167.5 44.2292 158.805 44.5639 149.178L42.0654 149.091L44.5639 149.178C44.9297 138.644 44.4709 124.774 40.9535 113.332L40.9534 113.332C37.6777 102.68 32.0145 94.8288 22.5029 92.9258V87.0746C32.0149 85.1726 37.6779 77.3176 40.9538 66.6686L40.9539 66.6681C44.4709 55.2264 44.9301 41.3565 44.5643 30.8222Z" stroke="#6800FD" stroke-width="5" shape-rendering="crispEdges"/>
</g>
<g filter="url(#filter1_d_77_7350)">
<path d="M123.792 95.3791H102.289C101.193 95.3791 100.301 94.4959 100.29 93.3993L100.204 84.9487C100.193 83.8363 101.092 82.9286 102.204 82.9286H119.9C123.374 82.9286 126.22 82.5055 128.439 81.6593C130.657 80.7729 132.311 79.5037 133.399 77.8516C134.529 76.1593 135.094 74.1044 135.094 71.6868C135.094 68.9469 134.55 66.7308 133.462 65.0385C132.415 63.3462 130.762 62.1172 128.502 61.3516C126.283 60.5861 123.416 60.2033 119.9 60.2033H108.839C107.735 60.2033 106.839 61.0987 106.839 62.2033V132C106.839 133.105 105.944 134 104.839 134H90.0029C88.8984 134 88.0029 133.105 88.0029 132V48C88.0029 46.8954 88.8984 46 90.0029 46H119.9C125.216 46 129.967 46.4835 134.153 47.4505C138.38 48.4176 141.959 49.8883 144.889 51.8626C147.819 53.837 150.059 56.3352 151.608 59.3571C153.157 62.3388 153.931 65.8846 153.931 69.9945C153.931 73.6209 153.073 76.9652 151.357 80.0275C149.682 83.0897 147.024 85.5879 143.382 87.522C139.928 89.3782 135.451 90.4364 129.952 90.6967C129.501 90.7181 129.068 90.8847 128.724 91.1775L123.792 95.3791ZM122.976 134H98.4534C96.9531 134 95.987 132.409 96.6786 131.078L101.947 120.935C102.291 120.273 102.975 119.857 103.722 119.857H122.976C126.283 119.857 128.983 119.353 131.076 118.346C133.169 117.299 134.718 115.888 135.722 114.115C136.727 112.342 137.229 110.308 137.229 108.011C137.229 105.432 136.769 103.196 135.848 101.302C134.969 99.4084 133.546 97.9579 131.578 96.9506C129.611 95.9029 127.016 95.3791 123.792 95.3791H107.667C106.554 95.3791 105.656 94.4713 105.667 93.359L105.752 84.9084C105.763 83.8118 106.655 82.9286 107.752 82.9286H127.475C128.048 82.9286 128.593 83.1742 128.973 83.6031L132.1 87.1365C132.486 87.5731 133.044 87.8167 133.627 87.8203C138.77 87.8521 142.943 88.8003 146.145 90.6648C149.578 92.5989 152.068 95.1172 153.617 98.2198C155.208 101.322 156.003 104.647 156.003 108.192C156.003 113.833 154.726 118.588 152.173 122.456C149.619 126.284 145.873 129.165 140.934 131.099C136.036 133.033 130.05 134 122.976 134Z" fill="#6800FD"/>
</g>
<defs>
<filter id="filter0_d_77_7350" x="0.00292969" y="0" width="240" height="200" filterUnits="userSpaceOnUse" color-interpolation-filters="sRGB">
<feFlood flood-opacity="0" result="BackgroundImageFix"/>
<feColorMatrix in="SourceAlpha" type="matrix" values="0 0 0 0 0 0 0 0 0 0 0 0 0 0 0 0 0 0 127 0" result="hardAlpha"/>
<feOffset dy="10"/>
<feGaussianBlur stdDeviation="10"/>
<feComposite in2="hardAlpha" operator="out"/>
<feColorMatrix type="matrix" values="0 0 0 0 0.466667 0 0 0 0 0.117647 0 0 0 0 0.968627 0 0 0 0.2 0"/>
<feBlend mode="normal" in2="BackgroundImageFix" result="effect1_dropShadow_77_7350"/>
<feBlend mode="normal" in="SourceGraphic" in2="effect1_dropShadow_77_7350" result="shape"/>
</filter>
<filter id="filter1_d_77_7350" x="68.0029" y="36" width="108" height="128" filterUnits="userSpaceOnUse" color-interpolation-filters="sRGB">
<feFlood flood-opacity="0" result="BackgroundImageFix"/>
<feColorMatrix in="SourceAlpha" type="matrix" values="0 0 0 0 0 0 0 0 0 0 0 0 0 0 0 0 0 0 127 0" result="hardAlpha"/>
<feOffset dy="10"/>
<feGaussianBlur stdDeviation="10"/>
<feComposite in2="hardAlpha" operator="out"/>
<feColorMatrix type="matrix" values="0 0 0 0 0.466667 0 0 0 0 0.117647 0 0 0 0 0.968627 0 0 0 0.2 0"/>
<feBlend mode="normal" in2="BackgroundImageFix" result="effect1_dropShadow_77_7350"/>
<feBlend mode="normal" in="SourceGraphic" in2="effect1_dropShadow_77_7350" result="shape"/>
</filter>
</defs>
</svg>
