<svg width="200" height="200" viewBox="0 0 200 200" fill="none" xmlns="http://www.w3.org/2000/svg">
<g filter="url(#filter0_d_77_7341)">
<path d="M179.628 46.5052C179.688 46.7173 179.718 46.9358 179.718 47.1555V81.2901C179.718 81.7282 179.599 82.1585 179.372 82.5376C179.145 82.9167 178.818 83.2312 178.425 83.4491L148.804 99.944V132.638C148.804 133.528 148.315 134.349 147.517 134.797L85.6852 169.224C85.5437 169.302 85.3893 169.352 85.2349 169.405C85.177 169.423 85.1223 169.458 85.0612 169.473C84.629 169.583 84.1747 169.583 83.7424 169.473C83.6717 169.455 83.6073 169.417 83.5398 169.392C83.3983 169.343 83.2503 169.299 83.1152 169.224L21.296 134.797C20.9033 134.579 20.577 134.265 20.3499 133.886C20.1229 133.506 20.0032 133.076 20.0029 132.638V30.2344C20.0029 30.0104 20.0351 29.7926 20.093 29.5811C20.1123 29.5095 20.1573 29.4442 20.1831 29.3726C20.2313 29.2419 20.2763 29.1082 20.3471 28.9868C20.3954 28.906 20.4661 28.8406 20.524 28.766C20.598 28.6664 20.6655 28.5637 20.7524 28.4766C20.8264 28.4051 20.9229 28.3522 21.0065 28.29C21.0998 28.2153 21.1834 28.1344 21.2896 28.0753H21.2928L52.204 10.8618C52.5954 10.6439 53.039 10.5293 53.4906 10.5293C53.9422 10.5293 54.3858 10.6439 54.7772 10.8618L85.6885 28.0753H85.6949C85.7978 28.1375 85.8847 28.2153 85.978 28.2869C86.0616 28.3491 86.1549 28.4051 86.2289 28.4735C86.3189 28.5637 86.3832 28.6664 86.4604 28.766C86.5151 28.8406 86.5891 28.906 86.6341 28.9868C86.7081 29.1113 86.7499 29.2419 86.8014 29.3726C86.8271 29.4442 86.8722 29.5095 86.8915 29.5842C86.9507 29.7962 86.981 30.0148 86.9815 30.2344V94.1947L112.74 79.8496V47.1523C112.74 46.9346 112.772 46.7137 112.83 46.5052C112.852 46.4306 112.894 46.3652 112.92 46.2937C112.971 46.163 113.016 46.0293 113.087 45.9079C113.135 45.827 113.206 45.7617 113.261 45.687C113.338 45.5875 113.402 45.4848 113.492 45.3977C113.566 45.3262 113.66 45.2733 113.743 45.211C113.84 45.1364 113.924 45.0555 114.026 44.9964H114.03L144.944 27.7829C145.335 27.5647 145.779 27.4499 146.231 27.4499C146.682 27.4499 147.126 27.5647 147.517 27.7829L178.429 44.9964C178.538 45.0586 178.622 45.1364 178.718 45.2079C178.798 45.2702 178.892 45.3262 178.966 45.3946C179.056 45.4848 179.12 45.5875 179.197 45.687C179.255 45.7617 179.326 45.827 179.371 45.9079C179.445 46.0293 179.487 46.163 179.538 46.2937C179.567 46.3652 179.609 46.4306 179.628 46.5052ZM174.565 79.8496V51.4643L163.748 57.4873L148.804 65.8094V94.1947L174.569 79.8496H174.565ZM143.654 131.198V102.794L128.955 110.914L86.9783 134.085V162.756L143.654 131.198ZM25.1559 34.5432V131.198L81.8254 162.753V134.088L52.2201 117.882L52.2104 117.876L52.1976 117.87C52.0978 117.814 52.0142 117.733 51.9209 117.665C51.8405 117.602 51.7472 117.553 51.6765 117.484L51.67 117.475C51.5864 117.397 51.5285 117.301 51.4577 117.214C51.3934 117.13 51.3162 117.058 51.2648 116.971L51.2615 116.962C51.2036 116.868 51.1683 116.756 51.1264 116.65C51.0846 116.557 51.0299 116.47 51.0042 116.37V116.367C50.972 116.249 50.9656 116.125 50.9527 116.003C50.9399 115.91 50.9141 115.817 50.9141 115.723V48.8883L35.9732 40.5631L25.1559 34.5463V34.5432ZM53.4938 15.8955L27.7388 30.2344L53.4874 44.5733L79.2392 30.2313L53.4874 15.8955H53.4938ZM66.8876 105.382L81.8286 97.0631V34.5432L71.0113 40.5662L56.0671 48.8883V111.408L66.8876 105.382ZM146.231 32.8166L120.479 47.1555L146.231 61.4944L171.979 47.1523L146.231 32.8166ZM143.654 65.8094L128.71 57.4873L117.893 51.4643V79.8496L132.834 88.1686L143.654 94.1947V65.8094ZM84.3986 129.776L122.171 108.919L141.052 98.4973L115.319 84.1678L85.6917 100.666L58.6886 115.702L84.3986 129.776Z" fill="#6800FD"/>
</g>
<defs>
<filter id="filter0_d_77_7341" x="0.00292969" y="0.529297" width="199.715" height="199.026" filterUnits="userSpaceOnUse" color-interpolation-filters="sRGB">
<feFlood flood-opacity="0" result="BackgroundImageFix"/>
<feColorMatrix in="SourceAlpha" type="matrix" values="0 0 0 0 0 0 0 0 0 0 0 0 0 0 0 0 0 0 127 0" result="hardAlpha"/>
<feOffset dy="10"/>
<feGaussianBlur stdDeviation="10"/>
<feComposite in2="hardAlpha" operator="out"/>
<feColorMatrix type="matrix" values="0 0 0 0 0.466667 0 0 0 0 0.117647 0 0 0 0 0.968627 0 0 0 0.2 0"/>
<feBlend mode="normal" in2="BackgroundImageFix" result="effect1_dropShadow_77_7341"/>
<feBlend mode="normal" in="SourceGraphic" in2="effect1_dropShadow_77_7341" result="shape"/>
</filter>
</defs>
</svg>
