<svg width="200" height="200" viewBox="0 0 200 200" fill="none" xmlns="http://www.w3.org/2000/svg">
<g filter="url(#filter0_d_532_493)">
<path d="M167.283 133.306C158.584 133.086 151.843 133.969 146.188 136.399C144.557 137.061 141.947 137.062 141.729 139.161C142.599 140.045 142.708 141.481 143.469 142.696C144.776 144.904 147.058 147.887 149.124 149.435C151.407 151.201 153.691 152.968 156.083 154.515C160.324 157.166 165.109 158.712 169.241 161.364C171.634 162.909 174.024 164.899 176.417 166.555C177.613 167.438 178.374 168.875 179.897 169.427V169.096C179.135 168.101 178.918 166.666 178.157 165.561C177.071 164.456 175.982 163.462 174.894 162.357C171.741 158.05 167.827 154.294 163.586 151.201C160.107 148.771 152.494 145.457 151.081 141.37C151.081 141.37 150.972 141.26 150.864 141.15C153.256 140.929 156.083 140.045 158.367 139.382C162.064 138.387 165.434 138.609 169.241 137.614C170.98 137.173 172.72 136.62 174.459 136.068V135.074C172.503 133.086 171.089 130.435 169.023 128.557C163.478 123.695 157.388 118.946 151.081 114.97C147.71 112.761 143.36 111.324 139.772 109.447C138.468 108.783 136.293 108.453 135.532 107.348C133.574 104.918 132.486 101.715 131.073 98.8428C127.921 92.7667 124.875 86.0291 122.156 79.6229C120.2 75.3145 119.004 71.006 116.611 67.0302C105.411 48.2517 93.2325 36.8742 74.53 25.717C70.5063 23.3977 65.7219 22.4034 60.6113 21.1889C57.8938 21.0778 55.1744 20.8575 52.4563 20.7463C50.7163 19.973 48.9763 17.8747 47.4538 16.8804C41.2569 12.9034 25.2713 4.28835 20.7044 15.6658C17.7682 22.8453 25.0544 29.9144 27.5544 33.5606C29.4044 36.1009 31.7957 38.9725 33.1007 41.8449C33.8619 43.7216 34.0788 45.7114 34.84 47.6993C36.5807 52.5582 38.2107 57.9721 40.495 62.5015C41.6913 64.8208 42.9957 67.2506 44.5182 69.3496C45.3882 70.5641 46.91 71.1171 47.2369 73.105C45.715 75.3145 45.6057 78.6287 44.735 81.3899C40.8207 93.8721 42.3438 109.336 47.8888 118.505C49.6282 121.265 53.7607 127.342 59.3063 125.022C64.2 123.034 63.1125 116.738 64.525 111.215C64.8525 109.888 64.635 109.005 65.2869 108.121V108.343C66.8094 111.435 68.3313 114.418 69.745 117.511C73.1163 122.923 78.9875 128.557 83.8807 132.313C86.4913 134.3 88.5569 137.725 91.8194 138.94V138.608H91.6013C90.9488 137.614 89.97 137.173 89.1007 136.399C87.1438 134.411 84.9682 131.981 83.4463 129.772C78.88 123.585 74.8557 116.737 71.2675 109.667C69.5282 106.244 68.005 102.488 66.5919 99.0637C65.9388 97.7368 65.9388 95.7495 64.8519 95.0873C63.2207 97.5171 60.8288 99.6161 59.6325 102.598C57.5675 107.348 57.3494 113.202 56.5882 119.277C56.1532 119.389 56.37 119.277 56.1525 119.499C52.6738 118.614 51.4775 114.97 50.1719 111.877C46.9094 104.034 46.3657 91.4417 49.1938 82.3841C49.955 80.0642 53.2175 72.7742 51.9125 70.5648C51.26 68.4658 49.0844 67.2506 47.8888 65.5941C46.4757 63.4951 44.9525 60.845 43.9744 58.5244C41.3644 52.3386 40.0594 45.4898 37.2325 39.304C35.9275 36.4317 33.645 33.4501 31.7957 30.7988C29.73 27.8166 27.4463 25.717 25.815 22.1825C25.2719 20.9679 24.51 18.9794 25.38 17.6537C25.5975 16.7699 26.0319 16.4392 26.9025 16.2182C28.3163 15.0024 32.34 16.549 33.7525 17.2118C37.7763 18.8677 41.1469 20.4156 44.5182 22.7349C46.04 23.8396 47.6713 25.9386 49.6282 26.491H51.9119C55.3919 27.2636 59.3057 26.7119 62.5682 27.7055C68.3319 29.5829 73.5507 32.3448 78.2269 35.3276C92.4719 44.4956 104.214 57.5302 112.153 73.105C113.458 75.6446 114.001 77.9658 115.198 80.6159C117.482 86.0291 120.309 91.5522 122.591 96.8542C124.875 102.045 127.049 107.348 130.312 111.656C131.943 113.975 138.467 115.191 141.403 116.406C143.578 117.4 146.949 118.284 148.906 119.499C152.603 121.817 156.3 124.47 159.78 127.01C161.52 128.335 166.956 131.097 167.283 133.306Z" fill="#6800FD"/>
</g>
<defs>
<filter id="filter0_d_532_493" x="0.0184021" y="0" width="199.879" height="199.427" filterUnits="userSpaceOnUse" color-interpolation-filters="sRGB">
<feFlood flood-opacity="0" result="BackgroundImageFix"/>
<feColorMatrix in="SourceAlpha" type="matrix" values="0 0 0 0 0 0 0 0 0 0 0 0 0 0 0 0 0 0 127 0" result="hardAlpha"/>
<feOffset dy="10"/>
<feGaussianBlur stdDeviation="10"/>
<feComposite in2="hardAlpha" operator="out"/>
<feColorMatrix type="matrix" values="0 0 0 0 0.466667 0 0 0 0 0.117647 0 0 0 0 0.968627 0 0 0 0.2 0"/>
<feBlend mode="normal" in2="BackgroundImageFix" result="effect1_dropShadow_532_493"/>
<feBlend mode="normal" in="SourceGraphic" in2="effect1_dropShadow_532_493" result="shape"/>
</filter>
</defs>
</svg>
