<svg width="220" height="200" viewBox="0 0 220 200" fill="none" xmlns="http://www.w3.org/2000/svg">
<g filter="url(#filter0_d_77_7353)">
<path d="M199.778 90.0183C199.778 78.1163 184.864 66.8368 161.998 59.8421C167.275 36.5507 164.93 18.0201 154.596 12.0874C152.214 10.6958 149.429 10.0366 146.388 10.0366V18.2032C148.074 18.2032 149.429 18.5328 150.565 19.1554C155.549 22.0119 157.711 32.8885 156.025 46.878C155.622 50.3204 154.963 53.946 154.156 57.6448C146.974 55.8869 139.132 54.5319 130.888 53.653C125.941 46.878 120.81 40.7256 115.644 35.3422C127.59 24.2458 138.803 18.1666 146.425 18.1666V10C136.348 10 123.156 17.1778 109.817 29.6292C96.4789 17.2511 83.2871 10.1465 73.21 10.1465V18.3131C80.7953 18.3131 92.045 24.3557 103.991 35.3788C98.8607 40.7622 93.7306 46.878 88.8569 53.653C80.5754 54.5319 72.7336 55.8869 65.5514 57.6814C64.7086 54.0192 64.0856 50.4669 63.6459 47.0611C61.9236 33.0716 64.049 22.195 68.9959 19.3019C70.0952 18.6427 71.5243 18.3497 73.21 18.3497V10.1831C70.1319 10.1831 67.3469 10.8423 64.9284 12.2339C54.6315 18.1666 52.3229 36.6606 57.6363 59.8787C34.8437 66.91 20.0029 78.1529 20.0029 90.0183C20.0029 101.92 34.917 113.2 57.7829 120.195C52.5061 143.486 54.8513 162.016 65.1849 167.949C67.5668 169.341 70.3517 170 73.4298 170C83.5069 170 96.6987 162.822 110.037 150.371C123.376 162.749 136.567 169.854 146.644 169.854C149.723 169.854 152.508 169.194 154.926 167.803C165.223 161.87 167.532 143.376 162.218 120.158C184.937 113.163 199.778 101.884 199.778 90.0183ZM152.068 65.5917C150.712 70.3159 149.026 75.1865 147.121 80.0572C145.618 77.1275 144.043 74.1978 142.32 71.268C140.635 68.3383 138.839 65.4818 137.044 62.6986C142.247 63.4676 147.267 64.4198 152.068 65.5917ZM135.285 104.594C132.427 109.538 129.495 114.225 126.454 118.583C120.994 119.059 115.46 119.316 109.891 119.316C104.357 119.316 98.8241 119.059 93.4008 118.62C90.3593 114.262 87.3912 109.611 84.533 104.704C81.748 99.9062 79.2196 95.0355 76.911 90.1282C79.1829 85.2209 81.748 80.3136 84.4963 75.5161C87.3545 70.5722 90.286 65.8846 93.3275 61.5267C98.7875 61.0506 104.321 60.7942 109.891 60.7942C115.424 60.7942 120.957 61.0506 126.38 61.49C129.422 65.848 132.39 70.499 135.248 75.4063C138.033 80.2037 140.562 85.0744 142.87 89.9817C140.562 94.889 138.033 99.7963 135.285 104.594ZM147.121 99.8329C149.1 104.74 150.785 109.648 152.178 114.408C147.377 115.58 142.32 116.569 137.08 117.338C138.876 114.518 140.672 111.625 142.357 108.659C144.043 105.729 145.618 102.763 147.121 99.8329ZM109.964 138.908C106.556 135.393 103.148 131.474 99.7768 127.189C103.075 127.336 106.446 127.446 109.854 127.446C113.298 127.446 116.706 127.372 120.041 127.189C116.743 131.474 113.335 135.393 109.964 138.908ZM82.7007 117.338C77.4973 116.569 72.4771 115.617 67.6767 114.445C69.0326 109.721 70.7182 104.85 72.6237 99.9794C74.1261 102.909 75.7018 105.839 77.424 108.769C79.1463 111.698 80.9052 114.555 82.7007 117.338ZM109.781 41.1284C113.189 44.6441 116.596 48.5626 119.968 52.8473C116.67 52.7008 113.298 52.591 109.891 52.591C106.446 52.591 103.038 52.6642 99.7036 52.8473C103.002 48.5626 106.409 44.6441 109.781 41.1284ZM82.6641 62.6986C80.8686 65.5184 79.073 68.4115 77.3874 71.3779C75.7018 74.3076 74.1261 77.2374 72.6237 80.1671C70.6449 75.2598 68.9593 70.3525 67.5668 65.5917C72.3672 64.4564 77.424 63.4676 82.6641 62.6986ZM49.5013 108.549C36.5294 103.019 28.1379 95.7679 28.1379 90.0183C28.1379 84.2687 36.5294 76.981 49.5013 71.4877C52.6527 70.1327 56.0972 68.9242 59.6517 67.789C61.7404 74.9668 64.4887 82.4376 67.8966 90.0916C64.5253 97.7089 61.8137 105.143 59.7616 112.284C56.1339 111.149 52.6894 109.904 49.5013 108.549ZM69.2158 160.881C64.2322 158.025 62.0702 147.148 63.7558 133.159C64.1589 129.716 64.8185 126.091 65.6247 122.392C72.8069 124.15 80.6487 125.505 88.8936 126.384C93.8405 133.159 98.9707 139.311 104.137 144.694C92.1915 155.791 80.9785 161.87 73.3565 161.87C71.7076 161.833 70.3151 161.504 69.2158 160.881ZM156.135 132.975C157.858 146.965 155.732 157.842 150.785 160.735C149.686 161.394 148.257 161.687 146.571 161.687C138.986 161.687 127.736 155.644 115.79 144.621C120.92 139.238 126.051 133.122 130.924 126.347C139.206 125.468 147.048 124.113 154.23 122.319C155.073 126.017 155.732 129.57 156.135 132.975ZM170.243 108.549C167.092 109.904 163.647 111.112 160.093 112.248C158.004 105.07 155.256 97.599 151.848 89.9451C155.219 82.3278 157.931 74.8936 159.983 67.7523C163.611 68.8876 167.055 70.1327 170.28 71.4877C183.252 77.0176 191.643 84.2687 191.643 90.0183C191.607 95.7679 183.215 103.056 170.243 108.549Z" fill="#6800FD"/>
<path d="M109.854 106.754C119.103 106.754 126.6 99.2614 126.6 90.0183C126.6 80.7752 119.103 73.2822 109.854 73.2822C100.605 73.2822 93.1076 80.7752 93.1076 90.0183C93.1076 99.2614 100.605 106.754 109.854 106.754Z" fill="#6800FD"/>
</g>
<defs>
<filter id="filter0_d_77_7353" x="0.00292969" y="0" width="219.775" height="200" filterUnits="userSpaceOnUse" color-interpolation-filters="sRGB">
<feFlood flood-opacity="0" result="BackgroundImageFix"/>
<feColorMatrix in="SourceAlpha" type="matrix" values="0 0 0 0 0 0 0 0 0 0 0 0 0 0 0 0 0 0 127 0" result="hardAlpha"/>
<feOffset dy="10"/>
<feGaussianBlur stdDeviation="10"/>
<feComposite in2="hardAlpha" operator="out"/>
<feColorMatrix type="matrix" values="0 0 0 0 0.466667 0 0 0 0 0.117647 0 0 0 0 0.968627 0 0 0 0.2 0"/>
<feBlend mode="normal" in2="BackgroundImageFix" result="effect1_dropShadow_77_7353"/>
<feBlend mode="normal" in="SourceGraphic" in2="effect1_dropShadow_77_7353" result="shape"/>
</filter>
</defs>
</svg>
