<svg width="260" height="284" viewBox="0 0 260 284" fill="none" xmlns="http://www.w3.org/2000/svg">
<g filter="url(#filter0_bd_215_3941)">
<rect x="20" y="16" width="220" height="244" rx="10" fill="white" fill-opacity="0.5" shape-rendering="crispEdges"/>
<rect x="20.5" y="16.5" width="219" height="243" rx="9.5" stroke="white" shape-rendering="crispEdges"/>
</g>
<path d="M74.8564 68.9784C74.672 67.3655 75.6209 65.8375 77.1484 65.2877L128.1 46.9474C128.851 46.6773 129.671 46.6716 130.425 46.9312L182.769 64.9524C184.334 65.4911 185.307 67.0518 185.103 68.6939L176.566 137.322C176.428 138.427 175.773 139.4 174.801 139.944L130.967 164.47C129.904 165.064 128.609 165.064 127.546 164.468L84.4734 140.311C83.4926 139.761 82.8358 138.773 82.7081 137.656L74.8564 68.9784Z" stroke="#FE531E"/>
<path d="M114.687 119.223H114.347L114.222 119.539L107.432 136.688L95.6878 136.89L129.353 61.2184L164.646 137.11L153.476 136.909L146.034 119.527L145.904 119.223H145.574H114.687ZM129.883 84.5927L129.402 83.5767L128.969 84.6144L118.731 109.189L118.443 109.881H119.193H141.068H141.858L141.52 109.167L129.883 84.5927Z" stroke="#FE531E"/>
<path d="M59.8195 194.28H62.2515L71.5315 217H68.4595L65.7715 210.344H56.2355L53.5795 217H50.5075L59.8195 194.28ZM65.1315 208.104L61.0355 197.608L56.8115 208.104H65.1315ZM88.6118 217H85.7958V207.656C85.7958 205.885 85.5184 204.595 84.9638 203.784C84.4304 202.952 83.6091 202.536 82.4998 202.536C81.7318 202.536 80.9638 202.728 80.1958 203.112C79.4491 203.496 78.7771 204.019 78.1798 204.68C77.6038 205.32 77.1878 206.067 76.9318 206.92V217H74.1158V200.296H76.6758V203.88C77.1238 203.091 77.6998 202.408 78.4038 201.832C79.1078 201.256 79.9078 200.808 80.8038 200.488C81.6998 200.168 82.6384 200.008 83.6198 200.008C84.5798 200.008 85.3798 200.189 86.0198 200.552C86.6811 200.893 87.1931 201.384 87.5558 202.024C87.9398 202.643 88.2064 203.379 88.3558 204.232C88.5264 205.085 88.6118 206.013 88.6118 207.016V217ZM99.6468 217.192C98.5161 217.192 97.4708 216.968 96.5108 216.52C95.5721 216.051 94.7614 215.421 94.0788 214.632C93.3961 213.821 92.8628 212.904 92.4788 211.88C92.1161 210.856 91.9348 209.789 91.9348 208.68C91.9348 207.507 92.1161 206.397 92.4788 205.352C92.8628 204.307 93.3961 203.389 94.0788 202.6C94.7828 201.789 95.6041 201.16 96.5428 200.712C97.4814 200.243 98.5268 200.008 99.6788 200.008C101.065 200.008 102.271 200.349 103.295 201.032C104.34 201.715 105.215 202.579 105.919 203.624V200.296H108.415V216.808C108.415 218.387 108.031 219.72 107.263 220.808C106.516 221.896 105.492 222.717 104.191 223.272C102.911 223.848 101.481 224.136 99.9028 224.136C98.0254 224.136 96.4894 223.805 95.2948 223.144C94.1001 222.483 93.1081 221.587 92.3188 220.456L93.9508 219.016C94.6121 219.997 95.4654 220.733 96.5108 221.224C97.5774 221.715 98.7081 221.96 99.9028 221.96C100.927 221.96 101.865 221.768 102.719 221.384C103.593 221.021 104.287 220.456 104.799 219.688C105.332 218.92 105.599 217.96 105.599 216.808V213.864C104.98 214.888 104.127 215.699 103.039 216.296C101.972 216.893 100.841 217.192 99.6468 217.192ZM100.511 214.888C101.108 214.888 101.684 214.781 102.239 214.568C102.793 214.355 103.305 214.077 103.775 213.736C104.244 213.373 104.639 212.968 104.959 212.52C105.279 212.072 105.492 211.613 105.599 211.144V206.344C105.3 205.576 104.873 204.904 104.319 204.328C103.764 203.731 103.135 203.272 102.431 202.952C101.727 202.611 101.001 202.44 100.255 202.44C99.4014 202.44 98.6334 202.621 97.9508 202.984C97.2894 203.347 96.7241 203.837 96.2548 204.456C95.7854 205.053 95.4228 205.725 95.1668 206.472C94.9108 207.219 94.7828 207.976 94.7828 208.744C94.7828 209.576 94.9321 210.365 95.2308 211.112C95.5294 211.837 95.9348 212.488 96.4468 213.064C96.9588 213.64 97.5668 214.088 98.2708 214.408C98.9748 214.728 99.7214 214.888 100.511 214.888ZM112.799 210.312V200.296H115.616V209.768C115.616 211.475 115.914 212.755 116.512 213.608C117.109 214.461 117.994 214.888 119.168 214.888C119.936 214.888 120.672 214.728 121.376 214.408C122.101 214.067 122.752 213.587 123.328 212.968C123.904 212.349 124.352 211.613 124.672 210.76V200.296H127.488V213.8C127.488 214.141 127.552 214.397 127.68 214.568C127.829 214.717 128.064 214.803 128.384 214.824V217C128.064 217.043 127.808 217.064 127.616 217.064C127.445 217.085 127.274 217.096 127.104 217.096C126.57 217.096 126.112 216.936 125.728 216.616C125.344 216.275 125.141 215.859 125.12 215.368L125.056 213.416C124.33 214.653 123.349 215.613 122.112 216.296C120.896 216.979 119.562 217.32 118.112 217.32C116.362 217.32 115.04 216.733 114.144 215.56C113.248 214.365 112.799 212.616 112.799 210.312ZM132.242 193.64H135.058V212.68C135.058 213.597 135.186 214.163 135.442 214.376C135.698 214.589 136.008 214.696 136.37 214.696C136.818 214.696 137.245 214.653 137.65 214.568C138.056 214.461 138.397 214.355 138.674 214.248L139.122 216.552C138.653 216.744 138.098 216.904 137.458 217.032C136.818 217.16 136.253 217.224 135.762 217.224C134.674 217.224 133.81 216.915 133.17 216.296C132.552 215.677 132.242 214.813 132.242 213.704V193.64ZM140.023 212.168C140.023 211.101 140.321 210.184 140.919 209.416C141.537 208.627 142.38 208.019 143.447 207.592C144.513 207.165 145.751 206.952 147.159 206.952C147.905 206.952 148.695 207.016 149.527 207.144C150.359 207.251 151.095 207.421 151.735 207.656V206.44C151.735 205.16 151.351 204.157 150.583 203.432C149.815 202.685 148.727 202.312 147.319 202.312C146.401 202.312 145.516 202.483 144.663 202.824C143.831 203.144 142.945 203.613 142.007 204.232L140.983 202.248C142.071 201.501 143.159 200.947 144.247 200.584C145.335 200.2 146.465 200.008 147.639 200.008C149.772 200.008 151.457 200.605 152.695 201.8C153.932 202.973 154.551 204.616 154.551 206.728V213.8C154.551 214.141 154.615 214.397 154.743 214.568C154.892 214.717 155.127 214.803 155.447 214.824V217C155.169 217.043 154.924 217.075 154.711 217.096C154.519 217.117 154.359 217.128 154.231 217.128C153.569 217.128 153.068 216.947 152.727 216.584C152.407 216.221 152.225 215.837 152.183 215.432L152.119 214.376C151.393 215.315 150.444 216.04 149.271 216.552C148.097 217.064 146.935 217.32 145.783 217.32C144.673 217.32 143.681 217.096 142.807 216.648C141.932 216.179 141.249 215.56 140.759 214.792C140.268 214.003 140.023 213.128 140.023 212.168ZM150.903 213.352C151.159 213.053 151.361 212.755 151.511 212.456C151.66 212.136 151.735 211.869 151.735 211.656V209.576C151.073 209.32 150.38 209.128 149.655 209C148.929 208.851 148.215 208.776 147.51 208.776C146.081 208.776 144.919 209.064 144.023 209.64C143.148 210.195 142.711 210.963 142.711 211.944C142.711 212.477 142.849 213 143.127 213.512C143.425 214.003 143.852 214.408 144.407 214.728C144.983 215.048 145.687 215.208 146.519 215.208C147.393 215.208 148.225 215.037 149.015 214.696C149.804 214.333 150.433 213.885 150.903 213.352ZM167.885 202.76C166.477 202.781 165.229 203.144 164.141 203.848C163.075 204.531 162.317 205.48 161.869 206.696V217H159.053V200.296H161.677V204.168C162.253 203.016 163.011 202.088 163.949 201.384C164.909 200.659 165.912 200.253 166.957 200.168C167.171 200.168 167.352 200.168 167.501 200.168C167.651 200.168 167.779 200.179 167.885 200.2V202.76ZM189.382 214.44V217H177.894V214.44H182.438V201.96C182.246 202.216 181.947 202.493 181.542 202.792C181.137 203.069 180.678 203.336 180.166 203.592C179.654 203.848 179.142 204.061 178.63 204.232C178.118 204.381 177.649 204.456 177.222 204.456V201.768C177.691 201.768 178.203 201.64 178.758 201.384C179.334 201.107 179.889 200.787 180.422 200.424C180.955 200.061 181.403 199.72 181.766 199.4C182.15 199.08 182.374 198.856 182.438 198.728H185.318V214.44H189.382ZM208.076 207.624C208.076 209.501 207.724 211.176 207.02 212.648C206.316 214.099 205.356 215.24 204.14 216.072C202.924 216.904 201.538 217.32 199.98 217.32C198.423 217.32 197.036 216.904 195.82 216.072C194.604 215.24 193.644 214.099 192.94 212.648C192.236 211.176 191.884 209.501 191.884 207.624C191.884 205.747 192.236 204.083 192.94 202.632C193.644 201.16 194.604 200.008 195.82 199.176C197.036 198.323 198.423 197.896 199.98 197.896C201.538 197.896 202.924 198.323 204.14 199.176C205.356 200.008 206.316 201.16 207.02 202.632C207.724 204.083 208.076 205.747 208.076 207.624ZM205.228 207.624C205.228 206.216 205.004 204.979 204.556 203.912C204.108 202.845 203.49 202.013 202.7 201.416C201.911 200.819 201.004 200.52 199.98 200.52C198.935 200.52 198.018 200.819 197.228 201.416C196.439 202.013 195.82 202.845 195.372 203.912C194.924 204.979 194.7 206.216 194.7 207.624C194.7 209.032 194.924 210.269 195.372 211.336C195.82 212.381 196.439 213.203 197.228 213.8C198.018 214.397 198.935 214.696 199.98 214.696C201.004 214.696 201.911 214.397 202.7 213.8C203.49 213.203 204.108 212.381 204.556 211.336C205.004 210.269 205.228 209.032 205.228 207.624Z" fill="#25333A"/>
<defs>
<filter id="filter0_bd_215_3941" x="0" y="-4" width="260" height="288" filterUnits="userSpaceOnUse" color-interpolation-filters="sRGB">
<feFlood flood-opacity="0" result="BackgroundImageFix"/>
<feGaussianBlur in="BackgroundImageFix" stdDeviation="10"/>
<feComposite in2="SourceAlpha" operator="in" result="effect1_backgroundBlur_215_3941"/>
<feColorMatrix in="SourceAlpha" type="matrix" values="0 0 0 0 0 0 0 0 0 0 0 0 0 0 0 0 0 0 127 0" result="hardAlpha"/>
<feOffset dy="4"/>
<feGaussianBlur stdDeviation="10"/>
<feComposite in2="hardAlpha" operator="out"/>
<feColorMatrix type="matrix" values="0 0 0 0 0.0470588 0 0 0 0 0.0901961 0 0 0 0 0.0862745 0 0 0 0.06 0"/>
<feBlend mode="normal" in2="effect1_backgroundBlur_215_3941" result="effect2_dropShadow_215_3941"/>
<feBlend mode="normal" in="SourceGraphic" in2="effect2_dropShadow_215_3941" result="shape"/>
</filter>
</defs>
</svg>
