<svg width="260" height="284" viewBox="0 0 260 284" fill="none" xmlns="http://www.w3.org/2000/svg">
<g filter="url(#filter0_bd_215_3951)">
<rect x="20" y="16" width="220" height="244" rx="10" fill="white" fill-opacity="0.5" shape-rendering="crispEdges"/>
<rect x="20.5" y="16.5" width="219" height="243" rx="9.5" stroke="white" shape-rendering="crispEdges"/>
</g>
<g filter="url(#filter1_b_215_3951)">
<mask id="path-3-outside-1_215_3951" maskUnits="userSpaceOnUse" x="71.5542" y="87" width="59" height="21" fill="black">
<rect fill="white" x="71.5542" y="87" width="59" height="21"/>
<path d="M87.4078 101.076C87.3873 101.677 87.4695 102.277 87.6338 102.858C87.8187 103.358 88.0447 103.839 88.2912 104.299C88.3734 104.439 88.435 104.6 88.435 104.76C88.4145 105 88.2707 105.24 88.0447 105.36L86.7504 106.201C86.586 106.301 86.4011 106.381 86.2162 106.381C85.9903 106.361 85.7643 106.261 85.5999 106.101C85.3328 105.821 85.0658 105.501 84.8603 105.16C84.6549 104.82 84.4494 104.439 84.2234 103.979C82.621 105.821 80.6076 106.742 78.1834 106.742C76.4576 106.742 75.0812 106.261 74.0745 105.3C73.0678 104.339 72.5542 103.058 72.5542 101.456C72.5542 99.7545 73.1705 98.3731 74.4237 97.332C75.677 96.2909 77.3411 95.7703 79.4571 95.7703C80.1762 95.7703 80.9158 95.8304 81.6348 95.9305C82.395 96.0306 83.1757 96.1908 83.9974 96.3709V94.9094C83.9974 93.3878 83.6687 92.3267 83.0319 91.706C82.395 91.0854 81.265 90.7851 79.6831 90.7851C78.9435 90.7851 78.1834 90.8652 77.4643 91.0454C76.7042 91.2255 75.9646 91.4458 75.2455 91.7261C75.0195 91.8262 74.773 91.9063 74.5265 91.9863C74.4237 92.0264 74.3005 92.0464 74.1978 92.0464C73.9101 92.0464 73.7663 91.8462 73.7663 91.4258V90.4447C73.7458 90.2045 73.8074 89.9642 73.9101 89.744C74.0745 89.5638 74.2594 89.4236 74.4854 89.3235C75.3072 88.9231 76.17 88.6228 77.074 88.4226C78.1217 88.1623 79.2106 88.0422 80.2789 88.0422C82.7237 88.0422 84.5111 88.5828 85.6615 89.6639C86.812 90.745 87.3667 92.3868 87.3667 94.5891V101.076H87.4078ZM79.0668 104.119C79.7858 104.119 80.5049 103.999 81.1829 103.759C81.943 103.498 82.6004 103.058 83.1346 102.477C83.4633 102.117 83.7098 101.677 83.8331 101.196C83.9769 100.635 84.0385 100.035 84.0385 99.4542V98.6133C83.4222 98.4732 82.7853 98.353 82.1484 98.2729C81.5116 98.1929 80.8541 98.1528 80.2173 98.1528C78.8408 98.1528 77.8341 98.4131 77.1562 98.9537C76.4782 99.4942 76.1495 100.255 76.1495 101.256C76.1495 102.197 76.396 102.898 76.9096 103.378C77.4232 103.859 78.1217 104.119 79.0668 104.119ZM95.564 106.281C95.2969 106.301 95.0093 106.241 94.7833 106.081C94.5778 105.861 94.4135 105.601 94.3518 105.3L89.5239 89.8241C89.4212 89.5638 89.3595 89.3035 89.339 89.0232C89.3185 88.783 89.4828 88.5627 89.7293 88.5227H91.866C92.2563 88.5227 92.5234 88.5828 92.6672 88.7229C92.811 88.8631 92.9548 89.1233 93.0781 89.5037L96.509 102.758L99.7139 89.5037C99.8167 89.1033 99.9399 88.843 100.104 88.7229C100.351 88.5828 100.638 88.5027 100.926 88.5227H102.57C102.96 88.5227 103.227 88.5828 103.391 88.7229C103.597 88.9431 103.741 89.2034 103.782 89.5037L107.028 102.918L110.582 89.5037C110.644 89.2034 110.787 88.9431 110.993 88.7229C111.239 88.5828 111.506 88.5027 111.794 88.5227H113.705C113.951 88.4827 114.177 88.6628 114.218 88.9031V89.0232C114.218 89.1233 114.198 89.2435 114.177 89.3436C114.136 89.5238 114.095 89.6839 114.033 89.8441L109.082 105.32C108.959 105.721 108.815 105.981 108.651 106.101C108.425 106.241 108.137 106.321 107.87 106.301H106.103C105.713 106.301 105.446 106.241 105.281 106.101C105.076 105.881 104.932 105.601 104.891 105.3L101.707 92.3868L98.5429 105.28C98.5018 105.581 98.358 105.861 98.1526 106.081C97.906 106.241 97.6184 106.301 97.3308 106.281H95.564ZM121.964 106.822C120.895 106.822 119.827 106.702 118.8 106.462C117.772 106.221 116.971 105.961 116.437 105.661C116.17 105.541 115.944 105.34 115.8 105.1C115.718 104.92 115.677 104.74 115.677 104.54V103.518C115.677 103.098 115.841 102.898 116.149 102.898C116.273 102.898 116.396 102.918 116.519 102.958C116.643 102.998 116.827 103.078 117.033 103.158C117.752 103.478 118.512 103.699 119.293 103.859C120.094 104.019 120.916 104.099 121.738 104.099C123.032 104.099 124.039 103.879 124.737 103.438C125.415 103.038 125.826 102.317 125.805 101.536C125.826 101.016 125.62 100.515 125.251 100.135C124.881 99.7545 124.182 99.4141 123.176 99.0938L120.197 98.1929C118.697 97.7324 117.588 97.0517 116.91 96.1507C116.252 95.3098 115.882 94.3088 115.882 93.2477C115.862 92.4668 116.047 91.706 116.437 91.0253C116.807 90.3847 117.3 89.8241 117.916 89.3836C118.553 88.9031 119.272 88.5627 120.053 88.3425C120.895 88.1023 121.758 87.9821 122.642 88.0022C123.093 88.0022 123.566 88.0222 124.018 88.0822C124.491 88.1423 124.922 88.2224 125.353 88.3025C125.785 88.3826 126.155 88.5027 126.524 88.6228C126.833 88.7229 127.12 88.843 127.387 88.9832C127.634 89.1033 127.839 89.2635 128.004 89.4837C128.147 89.6839 128.209 89.9042 128.189 90.1444V91.0854C128.189 91.5058 128.024 91.7261 127.716 91.7261C127.449 91.686 127.182 91.6059 126.935 91.4858C125.703 90.9452 124.347 90.685 122.991 90.705C121.82 90.705 120.895 90.8852 120.258 91.2656C119.621 91.646 119.293 92.2266 119.293 93.0475C119.272 93.588 119.498 94.1086 119.909 94.4689C120.32 94.8493 121.08 95.2297 122.169 95.5701L125.086 96.4711C126.565 96.9315 127.634 97.5722 128.271 98.3931C128.908 99.1939 129.236 100.195 129.216 101.196C129.236 101.997 129.051 102.798 128.682 103.518C128.312 104.199 127.798 104.8 127.182 105.28C126.504 105.801 125.723 106.181 124.901 106.401C123.956 106.682 122.97 106.822 121.964 106.822Z"/>
</mask>
<path d="M87.4078 101.076C87.3873 101.677 87.4695 102.277 87.6338 102.858C87.8187 103.358 88.0447 103.839 88.2912 104.299C88.3734 104.439 88.435 104.6 88.435 104.76C88.4145 105 88.2707 105.24 88.0447 105.36L86.7504 106.201C86.586 106.301 86.4011 106.381 86.2162 106.381C85.9903 106.361 85.7643 106.261 85.5999 106.101C85.3328 105.821 85.0658 105.501 84.8603 105.16C84.6549 104.82 84.4494 104.439 84.2234 103.979C82.621 105.821 80.6076 106.742 78.1834 106.742C76.4576 106.742 75.0812 106.261 74.0745 105.3C73.0678 104.339 72.5542 103.058 72.5542 101.456C72.5542 99.7545 73.1705 98.3731 74.4237 97.332C75.677 96.2909 77.3411 95.7703 79.4571 95.7703C80.1762 95.7703 80.9158 95.8304 81.6348 95.9305C82.395 96.0306 83.1757 96.1908 83.9974 96.3709V94.9094C83.9974 93.3878 83.6687 92.3267 83.0319 91.706C82.395 91.0854 81.265 90.7851 79.6831 90.7851C78.9435 90.7851 78.1834 90.8652 77.4643 91.0454C76.7042 91.2255 75.9646 91.4458 75.2455 91.7261C75.0195 91.8262 74.773 91.9063 74.5265 91.9863C74.4237 92.0264 74.3005 92.0464 74.1978 92.0464C73.9101 92.0464 73.7663 91.8462 73.7663 91.4258V90.4447C73.7458 90.2045 73.8074 89.9642 73.9101 89.744C74.0745 89.5638 74.2594 89.4236 74.4854 89.3235C75.3072 88.9231 76.17 88.6228 77.074 88.4226C78.1217 88.1623 79.2106 88.0422 80.2789 88.0422C82.7237 88.0422 84.5111 88.5828 85.6615 89.6639C86.812 90.745 87.3667 92.3868 87.3667 94.5891V101.076H87.4078ZM79.0668 104.119C79.7858 104.119 80.5049 103.999 81.1829 103.759C81.943 103.498 82.6004 103.058 83.1346 102.477C83.4633 102.117 83.7098 101.677 83.8331 101.196C83.9769 100.635 84.0385 100.035 84.0385 99.4542V98.6133C83.4222 98.4732 82.7853 98.353 82.1484 98.2729C81.5116 98.1929 80.8541 98.1528 80.2173 98.1528C78.8408 98.1528 77.8341 98.4131 77.1562 98.9537C76.4782 99.4942 76.1495 100.255 76.1495 101.256C76.1495 102.197 76.396 102.898 76.9096 103.378C77.4232 103.859 78.1217 104.119 79.0668 104.119ZM95.564 106.281C95.2969 106.301 95.0093 106.241 94.7833 106.081C94.5778 105.861 94.4135 105.601 94.3518 105.3L89.5239 89.8241C89.4212 89.5638 89.3595 89.3035 89.339 89.0232C89.3185 88.783 89.4828 88.5627 89.7293 88.5227H91.866C92.2563 88.5227 92.5234 88.5828 92.6672 88.7229C92.811 88.8631 92.9548 89.1233 93.0781 89.5037L96.509 102.758L99.7139 89.5037C99.8167 89.1033 99.9399 88.843 100.104 88.7229C100.351 88.5828 100.638 88.5027 100.926 88.5227H102.57C102.96 88.5227 103.227 88.5828 103.391 88.7229C103.597 88.9431 103.741 89.2034 103.782 89.5037L107.028 102.918L110.582 89.5037C110.644 89.2034 110.787 88.9431 110.993 88.7229C111.239 88.5828 111.506 88.5027 111.794 88.5227H113.705C113.951 88.4827 114.177 88.6628 114.218 88.9031V89.0232C114.218 89.1233 114.198 89.2435 114.177 89.3436C114.136 89.5238 114.095 89.6839 114.033 89.8441L109.082 105.32C108.959 105.721 108.815 105.981 108.651 106.101C108.425 106.241 108.137 106.321 107.87 106.301H106.103C105.713 106.301 105.446 106.241 105.281 106.101C105.076 105.881 104.932 105.601 104.891 105.3L101.707 92.3868L98.5429 105.28C98.5018 105.581 98.358 105.861 98.1526 106.081C97.906 106.241 97.6184 106.301 97.3308 106.281H95.564ZM121.964 106.822C120.895 106.822 119.827 106.702 118.8 106.462C117.772 106.221 116.971 105.961 116.437 105.661C116.17 105.541 115.944 105.34 115.8 105.1C115.718 104.92 115.677 104.74 115.677 104.54V103.518C115.677 103.098 115.841 102.898 116.149 102.898C116.273 102.898 116.396 102.918 116.519 102.958C116.643 102.998 116.827 103.078 117.033 103.158C117.752 103.478 118.512 103.699 119.293 103.859C120.094 104.019 120.916 104.099 121.738 104.099C123.032 104.099 124.039 103.879 124.737 103.438C125.415 103.038 125.826 102.317 125.805 101.536C125.826 101.016 125.62 100.515 125.251 100.135C124.881 99.7545 124.182 99.4141 123.176 99.0938L120.197 98.1929C118.697 97.7324 117.588 97.0517 116.91 96.1507C116.252 95.3098 115.882 94.3088 115.882 93.2477C115.862 92.4668 116.047 91.706 116.437 91.0253C116.807 90.3847 117.3 89.8241 117.916 89.3836C118.553 88.9031 119.272 88.5627 120.053 88.3425C120.895 88.1023 121.758 87.9821 122.642 88.0022C123.093 88.0022 123.566 88.0222 124.018 88.0822C124.491 88.1423 124.922 88.2224 125.353 88.3025C125.785 88.3826 126.155 88.5027 126.524 88.6228C126.833 88.7229 127.12 88.843 127.387 88.9832C127.634 89.1033 127.839 89.2635 128.004 89.4837C128.147 89.6839 128.209 89.9042 128.189 90.1444V91.0854C128.189 91.5058 128.024 91.7261 127.716 91.7261C127.449 91.686 127.182 91.6059 126.935 91.4858C125.703 90.9452 124.347 90.685 122.991 90.705C121.82 90.705 120.895 90.8852 120.258 91.2656C119.621 91.646 119.293 92.2266 119.293 93.0475C119.272 93.588 119.498 94.1086 119.909 94.4689C120.32 94.8493 121.08 95.2297 122.169 95.5701L125.086 96.4711C126.565 96.9315 127.634 97.5722 128.271 98.3931C128.908 99.1939 129.236 100.195 129.216 101.196C129.236 101.997 129.051 102.798 128.682 103.518C128.312 104.199 127.798 104.8 127.182 105.28C126.504 105.801 125.723 106.181 124.901 106.401C123.956 106.682 122.97 106.822 121.964 106.822Z" stroke="#FE531E" stroke-width="2" mask="url(#path-3-outside-1_215_3951)"/>
<path d="M126.138 116.958L126.139 116.957C126.493 116.702 126.728 116.377 126.808 116.013C126.888 115.646 126.798 115.292 126.6 115.013C126.206 114.459 125.422 114.238 124.665 114.57C117.351 117.567 109.487 119.135 101.541 119.175C90.5144 119.175 79.8557 116.215 71.2203 111.333C70.6827 111.023 70.0541 111.074 69.704 111.526C69.3452 111.988 69.4762 112.612 69.9433 113.023L69.9433 113.023C78.0873 120.19 88.8671 124.5 100.823 124.5C109.349 124.5 119.277 121.897 126.138 116.958ZM100.823 124C88.9896 124 78.3271 119.735 70.2737 112.648L124.86 115.03C125.99 114.53 126.956 115.751 125.846 116.552C119.087 121.417 109.267 124 100.823 124Z" stroke="#FE531E"/>
<path d="M128.27 113.741L128.27 113.741L128.273 113.744C128.301 113.779 128.346 113.864 128.37 114.042C128.394 114.216 128.393 114.442 128.364 114.719C128.306 115.271 128.143 115.956 127.92 116.693C127.477 118.162 126.823 119.752 126.412 120.745L126.411 120.747C126.323 120.961 126.281 121.199 126.337 121.432C126.397 121.678 126.559 121.877 126.789 121.981C127.214 122.172 127.692 121.986 128.034 121.703C129.948 120.133 131.129 117.736 131.74 115.652C132.047 114.604 132.216 113.615 132.26 112.819C132.281 112.422 132.272 112.06 132.228 111.758C132.187 111.475 132.105 111.165 131.92 110.945C131.744 110.736 131.466 110.59 131.197 110.483C130.909 110.369 130.555 110.27 130.157 110.19C129.358 110.028 128.338 109.93 127.226 109.946C125.014 109.976 122.349 110.456 120.305 111.855L120.305 111.855L120.299 111.859C119.939 112.113 119.622 112.527 119.707 112.996C119.754 113.249 119.913 113.451 120.135 113.565C120.344 113.673 120.582 113.693 120.811 113.665C121.912 113.535 123.651 113.332 125.219 113.295C126.004 113.277 126.726 113.301 127.293 113.389C127.576 113.434 127.805 113.492 127.978 113.561C128.155 113.632 128.237 113.699 128.27 113.741Z" stroke="#FE531E"/>
<path d="M166.923 111.58L166.93 111.582C167.383 111.692 167.857 111.748 168.332 111.748C168.678 111.748 169.007 111.714 169.384 111.675L169.419 111.671C169.773 111.616 170.107 111.528 170.414 111.378L170.425 111.373L170.425 111.373C170.704 111.245 170.948 111.054 171.124 110.837C171.298 110.609 171.381 110.346 171.367 110.071L171.365 110.047L171.366 110.022C171.38 109.74 171.262 109.457 171.05 109.247C170.759 108.982 170.388 108.772 169.976 108.608C169.455 108.401 168.907 108.248 168.324 108.11C167.676 107.968 167.011 107.785 166.36 107.607C165.665 107.442 164.992 107.237 164.32 106.992C163.66 106.756 163.019 106.412 162.462 105.979C161.89 105.554 161.434 105.019 161.094 104.4L161.09 104.394L161.087 104.387C160.723 103.678 160.539 102.899 160.559 102.096C160.539 101.189 160.767 100.28 161.246 99.4791C161.672 98.7585 162.255 98.1246 162.952 97.6423C163.664 97.1436 164.457 96.8024 165.279 96.5705L165.282 96.5696C166.131 96.3364 166.997 96.2313 167.86 96.2313C168.82 96.2313 169.76 96.3354 170.699 96.5431C171.605 96.7372 172.445 97.1037 173.196 97.6201C173.936 98.1229 174.544 98.7808 174.973 99.5512L174.978 99.5587L174.981 99.5663C175.431 100.442 175.655 101.425 175.632 102.409L175.621 102.897H175.132H171.27H170.792L170.771 102.42C170.753 102.037 170.651 101.668 170.479 101.33C170.337 101.071 170.135 100.859 169.886 100.705L166.923 111.58ZM166.923 111.58L166.916 111.578M166.923 111.58L166.916 111.578M166.916 111.578C166.518 111.494 166.146 111.324 165.8 111.094C165.495 110.879 165.247 110.602 165.083 110.285C164.89 109.873 164.788 109.433 164.805 108.942L164.824 108.424H164.306H160.443H159.964L159.944 108.903C159.899 109.969 160.122 111.016 160.615 111.975L160.615 111.975L160.617 111.98C161.067 112.835 161.716 113.552 162.491 114.114L166.916 111.578ZM175.708 112.02L175.708 112.02C175.346 112.791 174.804 113.474 174.125 114.003L174.124 114.005C173.373 114.585 172.514 115.014 171.59 115.272C170.476 115.585 169.34 115.731 168.184 115.711C168.182 115.711 168.181 115.711 168.179 115.711L175.708 112.02ZM175.708 112.02L175.711 112.015M175.708 112.02L175.711 112.015M175.711 112.015C176.069 111.229 176.249 110.397 176.249 109.545C176.249 108.468 176.005 107.566 175.508 106.826L175.711 112.015ZM167.675 100.234C168.095 100.234 168.515 100.271 168.937 100.346L165.57 102.307C165.472 102.121 165.429 101.945 165.441 101.771L165.443 101.739L165.441 101.706C165.427 101.471 165.483 101.26 165.604 101.074C165.739 100.878 165.895 100.717 166.083 100.604C166.302 100.473 166.555 100.374 166.805 100.325C167.09 100.27 167.386 100.234 167.675 100.234ZM183.348 104.02L183.335 104.021L183.322 104.022C182.944 104.059 182.545 104.059 182.166 104.022L181.618 103.968V104.52V106.982V107.482H182.118C182.504 107.482 182.907 107.499 183.358 107.517C183.396 107.519 183.434 107.52 183.473 107.522C183.879 107.54 184.277 107.611 184.651 107.75C184.979 107.878 185.247 108.082 185.431 108.337L185.437 108.344L185.443 108.352C185.609 108.564 185.726 108.932 185.726 109.545C185.726 110.263 185.486 110.797 185.057 111.169C184.6 111.565 183.983 111.785 183.343 111.768L183.343 111.768H183.33C182.915 111.768 182.538 111.698 182.184 111.534L182.184 111.534L182.172 111.529C181.895 111.408 181.647 111.207 181.413 110.946C181.18 110.647 181.011 110.344 180.911 110.018L180.908 110.011L180.906 110.004C180.783 109.644 180.726 109.235 180.706 108.821L180.684 108.344H180.207H176.776H176.287L176.276 108.833C176.254 109.814 176.407 110.779 176.761 111.704C177.077 112.54 177.573 113.263 178.221 113.873L178.221 113.873L178.227 113.879C178.875 114.467 179.655 114.923 180.501 115.205L180.501 115.205L180.508 115.207C181.432 115.5 182.41 115.671 183.397 115.651C184.291 115.65 185.178 115.502 186.017 115.25C186.867 115.01 187.619 114.598 188.294 114.088L188.294 114.088L188.301 114.083C188.975 113.557 189.517 112.898 189.899 112.13C190.304 111.319 190.507 110.401 190.486 109.485C190.507 108.474 190.183 107.465 189.539 106.635L189.539 106.635L189.535 106.63C189.146 106.143 188.659 105.754 188.115 105.477C188.516 105.211 188.861 104.866 189.131 104.453L189.131 104.453L189.137 104.443C189.594 103.708 189.849 102.837 189.829 101.957C189.849 101.147 189.641 100.338 189.224 99.6387L189.223 99.6369C188.84 99.0001 188.322 98.4288 187.711 97.9877L187.711 97.9876L187.704 97.9827C187.089 97.5548 186.403 97.2086 185.645 96.9915C184.902 96.7784 184.136 96.6718 183.371 96.6718C182.474 96.6718 181.573 96.8209 180.712 97.1431C179.919 97.4305 179.224 97.8921 178.625 98.4755C178.013 99.0719 177.567 99.7935 177.258 100.546L177.258 100.546L177.256 100.552C176.926 101.388 176.75 102.267 176.728 103.166L176.716 103.678H177.228H180.659H181.185L181.158 103.153C181.123 102.466 181.316 101.806 181.729 101.266C182.089 100.827 182.611 100.575 183.412 100.575C183.944 100.575 184.447 100.742 184.843 101.064L184.852 101.071L184.861 101.077C185.218 101.342 185.418 101.755 185.418 102.377V102.389L185.419 102.402C185.434 102.707 185.345 103.006 185.158 103.246C184.966 103.478 184.711 103.664 184.426 103.772L184.426 103.772L184.414 103.777C184.07 103.918 183.715 104.003 183.348 104.02ZM147.13 87.8826H146.63V88.3826V123.62V124.12H147.13H148.568H149.068V123.62V88.3826V87.8826H148.568H147.13Z" stroke="#FE531E"/>
</g>
<path d="M71.9914 194.28H74.4234L83.7034 217H80.6314L77.9434 210.344H68.4074L65.7514 217H62.6794L71.9914 194.28ZM77.3034 208.104L73.2074 197.608L68.9834 208.104H77.3034ZM93.1806 194.408H95.9006L98.9086 202.312L101.949 194.408H104.669L100.733 204.296L104.637 213.672L112.317 194.28H115.453L105.949 217H103.453L98.9406 206.28L94.3966 217H91.9006L82.4286 194.28H85.5326L93.2446 213.672L97.1166 204.296L93.1806 194.408ZM131.205 199.048C130.949 198.749 130.607 198.461 130.181 198.184C129.754 197.907 129.274 197.661 128.741 197.448C128.207 197.213 127.621 197.032 126.981 196.904C126.362 196.755 125.711 196.68 125.029 196.68C123.279 196.68 121.989 197.011 121.157 197.672C120.325 198.333 119.909 199.24 119.909 200.392C119.909 201.203 120.122 201.843 120.549 202.312C120.975 202.781 121.626 203.165 122.501 203.464C123.397 203.763 124.527 204.072 125.893 204.392C127.471 204.733 128.837 205.149 129.989 205.64C131.141 206.131 132.026 206.792 132.645 207.624C133.263 208.435 133.573 209.523 133.573 210.888C133.573 211.976 133.359 212.925 132.933 213.736C132.527 214.525 131.951 215.187 131.205 215.72C130.458 216.232 129.583 216.616 128.581 216.872C127.578 217.107 126.49 217.224 125.317 217.224C124.165 217.224 123.034 217.107 121.925 216.872C120.837 216.616 119.802 216.253 118.821 215.784C117.839 215.315 116.922 214.728 116.069 214.024L117.445 211.592C117.786 211.955 118.223 212.317 118.757 212.68C119.311 213.021 119.93 213.341 120.613 213.64C121.317 213.939 122.074 214.184 122.885 214.376C123.695 214.547 124.527 214.632 125.381 214.632C127.002 214.632 128.261 214.344 129.157 213.768C130.053 213.171 130.501 212.307 130.501 211.176C130.501 210.323 130.245 209.64 129.733 209.128C129.242 208.616 128.506 208.189 127.525 207.848C126.543 207.507 125.349 207.165 123.941 206.824C122.405 206.44 121.114 206.024 120.069 205.576C119.023 205.107 118.234 204.499 117.701 203.752C117.189 203.005 116.933 202.035 116.933 200.84C116.933 199.389 117.285 198.163 117.989 197.16C118.693 196.157 119.663 195.4 120.901 194.888C122.138 194.376 123.535 194.12 125.093 194.12C126.117 194.12 127.066 194.227 127.941 194.44C128.837 194.653 129.669 194.952 130.437 195.336C131.205 195.72 131.909 196.179 132.549 196.712L131.205 199.048ZM144.078 205.928C144.078 203.752 144.516 201.619 145.39 199.528C146.286 197.437 147.364 195.325 148.622 193.192L150.798 194.152C150.393 194.749 149.956 195.507 149.486 196.424C149.017 197.341 148.569 198.344 148.142 199.432C147.716 200.52 147.364 201.629 147.086 202.76C146.83 203.891 146.702 204.979 146.702 206.024C146.702 207.709 147.065 209.523 147.79 211.464C148.516 213.384 149.497 215.315 150.734 217.256L148.654 218.344C147.758 217 146.958 215.645 146.254 214.28C145.572 212.893 145.038 211.496 144.654 210.088C144.27 208.68 144.078 207.293 144.078 205.928ZM167.861 199.048C167.605 198.749 167.264 198.461 166.837 198.184C166.41 197.907 165.93 197.661 165.397 197.448C164.864 197.213 164.277 197.032 163.637 196.904C163.018 196.755 162.368 196.68 161.685 196.68C159.936 196.68 158.645 197.011 157.813 197.672C156.981 198.333 156.565 199.24 156.565 200.392C156.565 201.203 156.778 201.843 157.205 202.312C157.632 202.781 158.282 203.165 159.157 203.464C160.053 203.763 161.184 204.072 162.549 204.392C164.128 204.733 165.493 205.149 166.645 205.64C167.797 206.131 168.682 206.792 169.301 207.624C169.92 208.435 170.229 209.523 170.229 210.888C170.229 211.976 170.016 212.925 169.589 213.736C169.184 214.525 168.608 215.187 167.861 215.72C167.114 216.232 166.24 216.616 165.237 216.872C164.234 217.107 163.146 217.224 161.973 217.224C160.821 217.224 159.69 217.107 158.581 216.872C157.493 216.616 156.458 216.253 155.477 215.784C154.496 215.315 153.578 214.728 152.725 214.024L154.101 211.592C154.442 211.955 154.88 212.317 155.413 212.68C155.968 213.021 156.586 213.341 157.269 213.64C157.973 213.939 158.73 214.184 159.541 214.376C160.352 214.547 161.184 214.632 162.037 214.632C163.658 214.632 164.917 214.344 165.813 213.768C166.709 213.171 167.157 212.307 167.157 211.176C167.157 210.323 166.901 209.64 166.389 209.128C165.898 208.616 165.162 208.189 164.181 207.848C163.2 207.507 162.005 207.165 160.597 206.824C159.061 206.44 157.77 206.024 156.725 205.576C155.68 205.107 154.89 204.499 154.357 203.752C153.845 203.005 153.589 202.035 153.589 200.84C153.589 199.389 153.941 198.163 154.645 197.16C155.349 196.157 156.32 195.4 157.557 194.888C158.794 194.376 160.192 194.12 161.749 194.12C162.773 194.12 163.722 194.227 164.597 194.44C165.493 194.653 166.325 194.952 167.093 195.336C167.861 195.72 168.565 196.179 169.205 196.712L167.861 199.048ZM182.753 209.448C183.67 209.597 184.46 209.939 185.121 210.472C185.782 210.984 186.294 211.645 186.657 212.456C187.02 213.245 187.201 214.141 187.201 215.144C187.201 216.445 186.881 217.587 186.241 218.568C185.622 219.571 184.737 220.339 183.585 220.872C182.433 221.427 181.089 221.704 179.553 221.704C177.932 221.704 176.502 221.395 175.265 220.776C174.049 220.179 173.1 219.325 172.417 218.216L174.305 216.328C174.796 217.181 175.457 217.864 176.289 218.376C177.142 218.888 178.23 219.144 179.553 219.144C181.025 219.144 182.177 218.803 183.009 218.12C183.862 217.459 184.289 216.467 184.289 215.144C184.289 213.8 183.83 212.733 182.913 211.944C182.017 211.133 180.705 210.728 178.977 210.728H178.145V208.36H179.041C180.577 208.36 181.75 207.987 182.561 207.24C183.393 206.493 183.809 205.565 183.809 204.456C183.809 203.688 183.628 203.059 183.265 202.568C182.902 202.077 182.412 201.715 181.793 201.48C181.174 201.224 180.46 201.096 179.649 201.096C178.476 201.096 177.441 201.352 176.545 201.864C175.67 202.355 174.988 203.048 174.497 203.944L172.769 202.152C173.153 201.427 173.697 200.797 174.401 200.264C175.126 199.731 175.958 199.315 176.897 199.016C177.857 198.717 178.87 198.568 179.937 198.568C181.281 198.568 182.465 198.803 183.489 199.272C184.534 199.741 185.345 200.403 185.921 201.256C186.497 202.109 186.785 203.112 186.785 204.264C186.785 205.096 186.625 205.885 186.305 206.632C185.985 207.357 185.516 207.976 184.897 208.488C184.3 208.979 183.585 209.299 182.753 209.448ZM196.29 205.928C196.29 207.293 196.098 208.68 195.714 210.088C195.33 211.496 194.786 212.893 194.082 214.28C193.399 215.645 192.61 217 191.714 218.344L189.634 217.256C190.871 215.315 191.853 213.384 192.578 211.464C193.303 209.523 193.666 207.709 193.666 206.024C193.666 204.979 193.527 203.891 193.25 202.76C192.994 201.629 192.653 200.52 192.226 199.432C191.799 198.344 191.351 197.341 190.882 196.424C190.413 195.507 189.975 194.749 189.57 194.152L191.746 193.192C193.005 195.325 194.071 197.437 194.946 199.528C195.842 201.619 196.29 203.752 196.29 205.928Z" fill="#25333A"/>
<defs>
<filter id="filter0_bd_215_3951" x="0" y="-4" width="260" height="288" filterUnits="userSpaceOnUse" color-interpolation-filters="sRGB">
<feFlood flood-opacity="0" result="BackgroundImageFix"/>
<feGaussianBlur in="BackgroundImageFix" stdDeviation="10"/>
<feComposite in2="SourceAlpha" operator="in" result="effect1_backgroundBlur_215_3951"/>
<feColorMatrix in="SourceAlpha" type="matrix" values="0 0 0 0 0 0 0 0 0 0 0 0 0 0 0 0 0 0 127 0" result="hardAlpha"/>
<feOffset dy="4"/>
<feGaussianBlur stdDeviation="10"/>
<feComposite in2="hardAlpha" operator="out"/>
<feColorMatrix type="matrix" values="0 0 0 0 0.0470588 0 0 0 0 0.0901961 0 0 0 0 0.0862745 0 0 0 0.06 0"/>
<feBlend mode="normal" in2="effect1_backgroundBlur_215_3951" result="effect2_dropShadow_215_3951"/>
<feBlend mode="normal" in="SourceGraphic" in2="effect2_dropShadow_215_3951" result="shape"/>
</filter>
<filter id="filter1_b_215_3951" x="48.9971" y="67" width="161.991" height="78" filterUnits="userSpaceOnUse" color-interpolation-filters="sRGB">
<feFlood flood-opacity="0" result="BackgroundImageFix"/>
<feGaussianBlur in="BackgroundImageFix" stdDeviation="10"/>
<feComposite in2="SourceAlpha" operator="in" result="effect1_backgroundBlur_215_3951"/>
<feBlend mode="normal" in="SourceGraphic" in2="effect1_backgroundBlur_215_3951" result="shape"/>
</filter>
</defs>
</svg>
