<svg width="260" height="284" viewBox="0 0 260 284" fill="none" xmlns="http://www.w3.org/2000/svg">
<g filter="url(#filter0_bd_215_3950)">
<rect x="20" y="16" width="220" height="244" rx="10" fill="white" fill-opacity="0.5" shape-rendering="crispEdges"/>
<rect x="20.5" y="16.5" width="219" height="243" rx="9.5" stroke="white" shape-rendering="crispEdges"/>
</g>
<mask id="path-3-outside-1_215_3950" maskUnits="userSpaceOnUse" x="69" y="87" width="122" height="38" fill="black">
<rect fill="white" x="69" y="87" width="122" height="38"/>
<path d="M70.7809 116.072V102.238H87.4553V101.429H70.7809V88.8089H88.5095V88H70V116.881H88.6656V116.072H70.7812H70.7809ZM103.7 96.0898L96.7884 105.515L90.0325 96.09H89.0172L96.3196 106.122L88.3141 116.881H89.2513L96.7879 106.728L104.364 116.881H105.34L97.2955 106.121L104.637 96.0895H103.7L103.7 96.0898ZM107.683 124V111.056H107.761C108.23 112.944 109.154 114.461 110.534 115.607C111.914 116.753 113.671 117.326 115.805 117.326C117.185 117.326 118.409 117.036 119.476 116.456C120.543 115.877 121.435 115.088 122.151 114.09C122.867 113.092 123.414 111.933 123.791 110.611C124.169 109.29 124.357 107.901 124.357 106.445C124.357 104.881 124.162 103.438 123.771 102.117C123.381 100.796 122.815 99.6496 122.073 98.679C121.331 97.7081 120.433 96.9528 119.378 96.4139C118.324 95.8744 117.133 95.6047 115.805 95.6047C114.79 95.6047 113.846 95.7598 112.974 96.0699C112.102 96.3801 111.328 96.8181 110.651 97.3845C109.97 97.9552 109.377 98.6304 108.894 99.3867C108.399 100.155 108.021 100.998 107.761 101.915H107.683V96.0898H106.902V124H107.683ZM115.805 116.557C113.358 116.557 111.393 115.688 109.909 113.948C108.425 112.209 107.683 109.708 107.683 106.445C107.683 105.097 107.865 103.816 108.23 102.602C108.594 101.389 109.121 100.324 109.811 99.4068C110.501 98.4899 111.354 97.7618 112.369 97.2226C113.384 96.6831 114.53 96.4134 115.805 96.4134C117.107 96.4134 118.246 96.6831 119.222 97.2226C120.198 97.7618 121.006 98.4967 121.643 99.427C122.281 100.357 122.763 101.423 123.088 102.622C123.414 103.822 123.576 105.097 123.576 106.445C123.576 107.659 123.427 108.865 123.127 110.065C122.828 111.265 122.366 112.344 121.741 113.301C121.116 114.258 120.316 115.04 119.339 115.647C118.363 116.254 117.185 116.557 115.805 116.557ZM128.653 116.881V105.11C128.653 103.978 128.809 102.872 129.122 101.793C129.434 100.715 129.915 99.7639 130.566 98.9417C131.217 98.1191 132.044 97.4719 133.046 96.9999C134.048 96.528 135.239 96.3325 136.619 96.4134V95.6045C135.421 95.5778 134.374 95.7123 133.476 96.0089C132.577 96.3056 131.803 96.7101 131.152 97.2226C130.501 97.7348 129.981 98.3347 129.59 99.0225C129.2 99.7092 128.91 100.452 128.731 101.227H128.653V96.0898H127.872V116.881H128.653V116.881ZM137.595 106.647H154.386C154.439 105.218 154.302 103.843 153.977 102.521C153.651 101.2 153.13 100.027 152.415 99.0024C151.699 97.9776 150.775 97.1551 149.642 96.5348C148.51 95.9145 147.162 95.6045 145.6 95.6045C144.481 95.6045 143.388 95.8472 142.32 96.3328C141.253 96.8181 140.316 97.5258 139.509 98.4561C138.702 99.3864 138.051 100.526 137.556 101.874C137.062 103.223 136.814 104.76 136.814 106.485C136.814 108.022 136.983 109.458 137.322 110.793C137.66 112.128 138.181 113.288 138.884 114.272C139.587 115.256 140.492 116.018 141.598 116.557C142.704 117.097 144.038 117.353 145.6 117.326C147.891 117.326 149.818 116.658 151.38 115.324C152.942 113.989 153.866 112.108 154.152 109.681H153.371C153.033 111.973 152.167 113.692 150.775 114.838C149.382 115.984 147.631 116.557 145.522 116.557C144.09 116.557 142.88 116.301 141.891 115.789C140.901 115.277 140.094 114.575 139.469 113.685C138.845 112.795 138.383 111.751 138.083 110.55C137.784 109.351 137.621 108.049 137.595 106.647ZM153.606 105.838H137.595C137.673 104.382 137.934 103.074 138.376 101.915C138.819 100.755 139.398 99.7639 140.114 98.9417C140.83 98.1191 141.663 97.4923 142.613 97.0606C143.563 96.6292 144.585 96.4134 145.679 96.4134C146.98 96.4134 148.125 96.663 149.115 97.1619C150.104 97.6608 150.931 98.3418 151.595 99.2046C152.258 100.067 152.759 101.072 153.098 102.218C153.436 103.364 153.606 104.571 153.606 105.838ZM170.592 102.238H171.373C171.373 99.9191 170.722 98.2337 169.421 97.182C168.119 96.1303 166.349 95.6045 164.11 95.6045C162.86 95.6045 161.806 95.7664 160.947 96.09C160.088 96.4134 159.385 96.8315 158.838 97.3437C158.292 97.856 157.901 98.4224 157.667 99.0427C157.432 99.6629 157.315 100.256 157.315 100.822C157.315 101.955 157.51 102.858 157.901 103.533C158.292 104.207 158.903 104.733 159.736 105.11C160.309 105.38 160.96 105.622 161.689 105.838C162.418 106.054 163.264 106.283 164.227 106.526C165.086 106.742 165.932 106.957 166.765 107.173C167.598 107.389 168.334 107.679 168.972 108.043C169.61 108.407 170.13 108.872 170.534 109.438C170.937 110.004 171.139 110.746 171.139 111.663C171.139 112.553 170.937 113.308 170.534 113.928C170.134 114.545 169.607 115.063 168.991 115.445C168.366 115.836 167.67 116.119 166.902 116.294C166.134 116.47 165.386 116.557 164.657 116.557C162.288 116.557 160.472 116.011 159.209 114.919C157.947 113.827 157.315 112.108 157.315 109.762H156.534C156.534 112.378 157.218 114.292 158.584 115.506C159.951 116.719 161.975 117.326 164.657 117.326C165.516 117.326 166.381 117.225 167.254 117.022C168.126 116.82 168.907 116.49 169.596 116.031C170.28 115.579 170.855 114.97 171.276 114.252C171.705 113.523 171.92 112.634 171.92 111.582C171.92 110.584 171.731 109.775 171.354 109.155C170.976 108.535 170.482 108.022 169.87 107.618C169.258 107.214 168.568 106.897 167.8 106.668C167.028 106.437 166.253 106.214 165.477 106C164.521 105.74 163.564 105.484 162.606 105.231C161.787 105.016 161.025 104.76 160.322 104.463C159.645 104.166 159.105 103.742 158.702 103.189C158.298 102.636 158.096 101.847 158.096 100.822C158.096 100.634 158.148 100.297 158.253 99.8113C158.357 99.3257 158.604 98.8336 158.995 98.3347C159.385 97.8361 159.984 97.3911 160.791 96.9999C161.598 96.6091 162.704 96.4134 164.11 96.4134C165.073 96.4134 165.952 96.5214 166.746 96.737C167.54 96.9528 168.223 97.2966 168.796 97.7686C169.369 98.2405 169.811 98.8404 170.124 99.5685C170.436 100.297 170.592 101.187 170.592 102.238ZM188.672 102.238H189.453C189.453 99.9191 188.803 98.2337 187.501 97.182C186.199 96.1303 184.429 95.6045 182.19 95.6045C180.94 95.6045 179.886 95.7664 179.027 96.09C178.168 96.4134 177.465 96.8315 176.918 97.3437C176.372 97.856 175.981 98.4224 175.747 99.0427C175.512 99.6629 175.395 100.256 175.395 100.822C175.395 101.955 175.591 102.858 175.981 103.533C176.372 104.207 176.984 104.733 177.816 105.11C178.389 105.38 179.04 105.622 179.769 105.838C180.498 106.054 181.344 106.283 182.307 106.526C183.166 106.742 184.012 106.957 184.845 107.173C185.679 107.389 186.414 107.679 187.052 108.043C187.69 108.407 188.21 108.872 188.614 109.438C189.017 110.004 189.219 110.746 189.219 111.663C189.219 112.553 189.017 113.308 188.614 113.928C188.214 114.545 187.687 115.063 187.071 115.445C186.446 115.836 185.75 116.119 184.982 116.294C184.214 116.47 183.466 116.557 182.737 116.557C180.368 116.557 178.552 116.011 177.289 114.919C176.027 113.827 175.395 112.108 175.395 109.762H174.614C174.614 112.378 175.298 114.292 176.665 115.506C178.031 116.719 180.055 117.326 182.737 117.326C183.596 117.326 184.461 117.225 185.334 117.022C186.205 116.82 186.987 116.49 187.677 116.031C188.361 115.579 188.935 114.97 189.356 114.252C189.785 113.523 190 112.634 190 111.582C190 110.584 189.811 109.775 189.434 109.155C189.056 108.535 188.562 108.022 187.95 107.618C187.338 107.214 186.648 106.897 185.88 106.668C185.108 106.437 184.333 106.214 183.557 106C182.601 105.74 181.644 105.484 180.687 105.231C179.867 105.016 179.105 104.76 178.402 104.463C177.725 104.166 177.185 103.742 176.782 103.189C176.378 102.636 176.176 101.847 176.176 100.822C176.176 100.634 176.228 100.297 176.333 99.8113C176.437 99.3257 176.684 98.8336 177.074 98.3347C177.465 97.8361 178.064 97.3911 178.871 96.9999C179.678 96.6091 180.784 96.4134 182.19 96.4134C183.153 96.4134 184.032 96.5214 184.826 96.737C185.62 96.9528 186.303 97.2966 186.876 97.7686C187.449 98.2405 187.891 98.8404 188.204 99.5685C188.516 100.297 188.673 101.187 188.673 102.238H188.672Z"/>
</mask>
<path d="M70.7809 116.072V102.238H87.4553V101.429H70.7809V88.8089H88.5095V88H70V116.881H88.6656V116.072H70.7812H70.7809ZM103.7 96.0898L96.7884 105.515L90.0325 96.09H89.0172L96.3196 106.122L88.3141 116.881H89.2513L96.7879 106.728L104.364 116.881H105.34L97.2955 106.121L104.637 96.0895H103.7L103.7 96.0898ZM107.683 124V111.056H107.761C108.23 112.944 109.154 114.461 110.534 115.607C111.914 116.753 113.671 117.326 115.805 117.326C117.185 117.326 118.409 117.036 119.476 116.456C120.543 115.877 121.435 115.088 122.151 114.09C122.867 113.092 123.414 111.933 123.791 110.611C124.169 109.29 124.357 107.901 124.357 106.445C124.357 104.881 124.162 103.438 123.771 102.117C123.381 100.796 122.815 99.6496 122.073 98.679C121.331 97.7081 120.433 96.9528 119.378 96.4139C118.324 95.8744 117.133 95.6047 115.805 95.6047C114.79 95.6047 113.846 95.7598 112.974 96.0699C112.102 96.3801 111.328 96.8181 110.651 97.3845C109.97 97.9552 109.377 98.6304 108.894 99.3867C108.399 100.155 108.021 100.998 107.761 101.915H107.683V96.0898H106.902V124H107.683ZM115.805 116.557C113.358 116.557 111.393 115.688 109.909 113.948C108.425 112.209 107.683 109.708 107.683 106.445C107.683 105.097 107.865 103.816 108.23 102.602C108.594 101.389 109.121 100.324 109.811 99.4068C110.501 98.4899 111.354 97.7618 112.369 97.2226C113.384 96.6831 114.53 96.4134 115.805 96.4134C117.107 96.4134 118.246 96.6831 119.222 97.2226C120.198 97.7618 121.006 98.4967 121.643 99.427C122.281 100.357 122.763 101.423 123.088 102.622C123.414 103.822 123.576 105.097 123.576 106.445C123.576 107.659 123.427 108.865 123.127 110.065C122.828 111.265 122.366 112.344 121.741 113.301C121.116 114.258 120.316 115.04 119.339 115.647C118.363 116.254 117.185 116.557 115.805 116.557ZM128.653 116.881V105.11C128.653 103.978 128.809 102.872 129.122 101.793C129.434 100.715 129.915 99.7639 130.566 98.9417C131.217 98.1191 132.044 97.4719 133.046 96.9999C134.048 96.528 135.239 96.3325 136.619 96.4134V95.6045C135.421 95.5778 134.374 95.7123 133.476 96.0089C132.577 96.3056 131.803 96.7101 131.152 97.2226C130.501 97.7348 129.981 98.3347 129.59 99.0225C129.2 99.7092 128.91 100.452 128.731 101.227H128.653V96.0898H127.872V116.881H128.653V116.881ZM137.595 106.647H154.386C154.439 105.218 154.302 103.843 153.977 102.521C153.651 101.2 153.13 100.027 152.415 99.0024C151.699 97.9776 150.775 97.1551 149.642 96.5348C148.51 95.9145 147.162 95.6045 145.6 95.6045C144.481 95.6045 143.388 95.8472 142.32 96.3328C141.253 96.8181 140.316 97.5258 139.509 98.4561C138.702 99.3864 138.051 100.526 137.556 101.874C137.062 103.223 136.814 104.76 136.814 106.485C136.814 108.022 136.983 109.458 137.322 110.793C137.66 112.128 138.181 113.288 138.884 114.272C139.587 115.256 140.492 116.018 141.598 116.557C142.704 117.097 144.038 117.353 145.6 117.326C147.891 117.326 149.818 116.658 151.38 115.324C152.942 113.989 153.866 112.108 154.152 109.681H153.371C153.033 111.973 152.167 113.692 150.775 114.838C149.382 115.984 147.631 116.557 145.522 116.557C144.09 116.557 142.88 116.301 141.891 115.789C140.901 115.277 140.094 114.575 139.469 113.685C138.845 112.795 138.383 111.751 138.083 110.55C137.784 109.351 137.621 108.049 137.595 106.647ZM153.606 105.838H137.595C137.673 104.382 137.934 103.074 138.376 101.915C138.819 100.755 139.398 99.7639 140.114 98.9417C140.83 98.1191 141.663 97.4923 142.613 97.0606C143.563 96.6292 144.585 96.4134 145.679 96.4134C146.98 96.4134 148.125 96.663 149.115 97.1619C150.104 97.6608 150.931 98.3418 151.595 99.2046C152.258 100.067 152.759 101.072 153.098 102.218C153.436 103.364 153.606 104.571 153.606 105.838ZM170.592 102.238H171.373C171.373 99.9191 170.722 98.2337 169.421 97.182C168.119 96.1303 166.349 95.6045 164.11 95.6045C162.86 95.6045 161.806 95.7664 160.947 96.09C160.088 96.4134 159.385 96.8315 158.838 97.3437C158.292 97.856 157.901 98.4224 157.667 99.0427C157.432 99.6629 157.315 100.256 157.315 100.822C157.315 101.955 157.51 102.858 157.901 103.533C158.292 104.207 158.903 104.733 159.736 105.11C160.309 105.38 160.96 105.622 161.689 105.838C162.418 106.054 163.264 106.283 164.227 106.526C165.086 106.742 165.932 106.957 166.765 107.173C167.598 107.389 168.334 107.679 168.972 108.043C169.61 108.407 170.13 108.872 170.534 109.438C170.937 110.004 171.139 110.746 171.139 111.663C171.139 112.553 170.937 113.308 170.534 113.928C170.134 114.545 169.607 115.063 168.991 115.445C168.366 115.836 167.67 116.119 166.902 116.294C166.134 116.47 165.386 116.557 164.657 116.557C162.288 116.557 160.472 116.011 159.209 114.919C157.947 113.827 157.315 112.108 157.315 109.762H156.534C156.534 112.378 157.218 114.292 158.584 115.506C159.951 116.719 161.975 117.326 164.657 117.326C165.516 117.326 166.381 117.225 167.254 117.022C168.126 116.82 168.907 116.49 169.596 116.031C170.28 115.579 170.855 114.97 171.276 114.252C171.705 113.523 171.92 112.634 171.92 111.582C171.92 110.584 171.731 109.775 171.354 109.155C170.976 108.535 170.482 108.022 169.87 107.618C169.258 107.214 168.568 106.897 167.8 106.668C167.028 106.437 166.253 106.214 165.477 106C164.521 105.74 163.564 105.484 162.606 105.231C161.787 105.016 161.025 104.76 160.322 104.463C159.645 104.166 159.105 103.742 158.702 103.189C158.298 102.636 158.096 101.847 158.096 100.822C158.096 100.634 158.148 100.297 158.253 99.8113C158.357 99.3257 158.604 98.8336 158.995 98.3347C159.385 97.8361 159.984 97.3911 160.791 96.9999C161.598 96.6091 162.704 96.4134 164.11 96.4134C165.073 96.4134 165.952 96.5214 166.746 96.737C167.54 96.9528 168.223 97.2966 168.796 97.7686C169.369 98.2405 169.811 98.8404 170.124 99.5685C170.436 100.297 170.592 101.187 170.592 102.238ZM188.672 102.238H189.453C189.453 99.9191 188.803 98.2337 187.501 97.182C186.199 96.1303 184.429 95.6045 182.19 95.6045C180.94 95.6045 179.886 95.7664 179.027 96.09C178.168 96.4134 177.465 96.8315 176.918 97.3437C176.372 97.856 175.981 98.4224 175.747 99.0427C175.512 99.6629 175.395 100.256 175.395 100.822C175.395 101.955 175.591 102.858 175.981 103.533C176.372 104.207 176.984 104.733 177.816 105.11C178.389 105.38 179.04 105.622 179.769 105.838C180.498 106.054 181.344 106.283 182.307 106.526C183.166 106.742 184.012 106.957 184.845 107.173C185.679 107.389 186.414 107.679 187.052 108.043C187.69 108.407 188.21 108.872 188.614 109.438C189.017 110.004 189.219 110.746 189.219 111.663C189.219 112.553 189.017 113.308 188.614 113.928C188.214 114.545 187.687 115.063 187.071 115.445C186.446 115.836 185.75 116.119 184.982 116.294C184.214 116.47 183.466 116.557 182.737 116.557C180.368 116.557 178.552 116.011 177.289 114.919C176.027 113.827 175.395 112.108 175.395 109.762H174.614C174.614 112.378 175.298 114.292 176.665 115.506C178.031 116.719 180.055 117.326 182.737 117.326C183.596 117.326 184.461 117.225 185.334 117.022C186.205 116.82 186.987 116.49 187.677 116.031C188.361 115.579 188.935 114.97 189.356 114.252C189.785 113.523 190 112.634 190 111.582C190 110.584 189.811 109.775 189.434 109.155C189.056 108.535 188.562 108.022 187.95 107.618C187.338 107.214 186.648 106.897 185.88 106.668C185.108 106.437 184.333 106.214 183.557 106C182.601 105.74 181.644 105.484 180.687 105.231C179.867 105.016 179.105 104.76 178.402 104.463C177.725 104.166 177.185 103.742 176.782 103.189C176.378 102.636 176.176 101.847 176.176 100.822C176.176 100.634 176.228 100.297 176.333 99.8113C176.437 99.3257 176.684 98.8336 177.074 98.3347C177.465 97.8361 178.064 97.3911 178.871 96.9999C179.678 96.6091 180.784 96.4134 182.19 96.4134C183.153 96.4134 184.032 96.5214 184.826 96.737C185.62 96.9528 186.303 97.2966 186.876 97.7686C187.449 98.2405 187.891 98.8404 188.204 99.5685C188.516 100.297 188.673 101.187 188.673 102.238H188.672Z" stroke="#FE531E" stroke-width="2" mask="url(#path-3-outside-1_215_3950)"/>
<path d="M89.5971 214.44V217H74.1731V194.28H89.3091V196.84H77.0531V204.2H87.7091V206.6H77.0531V214.44H89.5971ZM94.3481 200.296L98.7641 206.44L99.0201 206.952L99.3081 206.44L103.692 200.296H106.828L100.652 208.68L106.86 217H103.724L99.3081 210.888L99.0201 210.408L98.7641 210.888L94.3481 217H91.2121L97.4201 208.68L91.2441 200.296H94.3481ZM118.498 217.32C117.133 217.32 115.917 216.979 114.85 216.296C113.784 215.613 112.941 214.749 112.322 213.704V223.816H109.506V200.296H112.002V203.432C112.664 202.408 113.528 201.587 114.594 200.968C115.661 200.328 116.824 200.008 118.082 200.008C119.234 200.008 120.29 200.243 121.25 200.712C122.21 201.181 123.042 201.821 123.746 202.632C124.45 203.443 124.994 204.371 125.378 205.416C125.784 206.44 125.986 207.517 125.986 208.648C125.986 210.227 125.666 211.677 125.026 213C124.408 214.323 123.533 215.379 122.402 216.168C121.272 216.936 119.97 217.32 118.498 217.32ZM117.634 214.888C118.466 214.888 119.213 214.717 119.874 214.376C120.557 214.013 121.133 213.544 121.602 212.968C122.093 212.371 122.466 211.699 122.722 210.952C122.978 210.205 123.106 209.437 123.106 208.648C123.106 207.816 122.957 207.027 122.658 206.28C122.381 205.533 121.976 204.872 121.442 204.296C120.93 203.72 120.322 203.272 119.618 202.952C118.936 202.611 118.189 202.44 117.378 202.44C116.866 202.44 116.333 202.536 115.778 202.728C115.245 202.92 114.733 203.197 114.242 203.56C113.752 203.901 113.336 204.296 112.994 204.744C112.653 205.192 112.429 205.672 112.322 206.184V210.952C112.642 211.677 113.069 212.339 113.602 212.936C114.136 213.533 114.754 214.013 115.458 214.376C116.162 214.717 116.888 214.888 117.634 214.888ZM138.276 202.76C136.868 202.781 135.62 203.144 134.532 203.848C133.465 204.531 132.708 205.48 132.26 206.696V217H129.444V200.296H132.068V204.168C132.644 203.016 133.401 202.088 134.34 201.384C135.3 200.659 136.303 200.253 137.348 200.168C137.561 200.168 137.743 200.168 137.892 200.168C138.041 200.168 138.169 200.179 138.276 200.2V202.76ZM148.055 217.32C146.796 217.32 145.644 217.096 144.599 216.648C143.575 216.179 142.679 215.549 141.911 214.76C141.164 213.949 140.577 213.021 140.151 211.976C139.745 210.931 139.543 209.821 139.543 208.648C139.543 207.069 139.905 205.629 140.631 204.328C141.356 203.027 142.359 201.981 143.639 201.192C144.94 200.403 146.423 200.008 148.087 200.008C149.772 200.008 151.233 200.413 152.471 201.224C153.729 202.013 154.7 203.059 155.383 204.36C156.087 205.64 156.439 207.027 156.439 208.52C156.439 208.733 156.428 208.947 156.407 209.16C156.407 209.352 156.396 209.501 156.375 209.608H142.519C142.604 210.696 142.903 211.667 143.415 212.52C143.948 213.352 144.631 214.013 145.463 214.504C146.295 214.973 147.191 215.208 148.151 215.208C149.175 215.208 150.135 214.952 151.031 214.44C151.948 213.928 152.577 213.256 152.919 212.424L155.351 213.096C154.988 213.907 154.444 214.632 153.719 215.272C153.015 215.912 152.172 216.413 151.191 216.776C150.231 217.139 149.185 217.32 148.055 217.32ZM142.423 207.656H153.815C153.729 206.568 153.42 205.608 152.887 204.776C152.353 203.944 151.671 203.293 150.839 202.824C150.007 202.355 149.089 202.12 148.087 202.12C147.105 202.12 146.199 202.355 145.367 202.824C144.535 203.293 143.852 203.944 143.319 204.776C142.807 205.608 142.508 206.568 142.423 207.656ZM165.297 217.32C163.91 217.32 162.609 217.096 161.393 216.648C160.177 216.179 159.132 215.485 158.257 214.568L159.345 212.584C160.305 213.48 161.265 214.12 162.225 214.504C163.185 214.888 164.166 215.08 165.169 215.08C166.321 215.08 167.26 214.867 167.985 214.44C168.71 213.992 169.073 213.341 169.073 212.488C169.073 211.869 168.881 211.411 168.497 211.112C168.134 210.813 167.612 210.568 166.929 210.376C166.246 210.163 165.436 209.928 164.497 209.672C163.345 209.331 162.374 208.968 161.585 208.584C160.796 208.2 160.198 207.72 159.793 207.144C159.388 206.568 159.185 205.843 159.185 204.968C159.185 203.901 159.462 203.005 160.017 202.28C160.572 201.533 161.329 200.968 162.289 200.584C163.27 200.2 164.38 200.008 165.617 200.008C166.854 200.008 167.974 200.2 168.977 200.584C169.98 200.968 170.844 201.533 171.569 202.28L170.289 204.232C169.628 203.549 168.902 203.048 168.113 202.728C167.324 202.387 166.438 202.216 165.457 202.216C164.881 202.216 164.316 202.291 163.761 202.44C163.206 202.568 162.748 202.813 162.385 203.176C162.022 203.517 161.841 204.008 161.841 204.648C161.841 205.181 161.98 205.608 162.257 205.928C162.556 206.227 162.982 206.483 163.537 206.696C164.113 206.909 164.806 207.144 165.617 207.4C166.876 207.763 167.964 208.125 168.881 208.488C169.82 208.851 170.545 209.32 171.057 209.896C171.569 210.472 171.825 211.272 171.825 212.296C171.825 213.875 171.228 215.112 170.033 216.008C168.838 216.883 167.26 217.32 165.297 217.32ZM180.922 217.32C179.535 217.32 178.234 217.096 177.018 216.648C175.802 216.179 174.757 215.485 173.882 214.568L174.97 212.584C175.93 213.48 176.89 214.12 177.85 214.504C178.81 214.888 179.791 215.08 180.794 215.08C181.946 215.08 182.885 214.867 183.61 214.44C184.335 213.992 184.698 213.341 184.698 212.488C184.698 211.869 184.506 211.411 184.122 211.112C183.759 210.813 183.237 210.568 182.554 210.376C181.871 210.163 181.061 209.928 180.122 209.672C178.97 209.331 177.999 208.968 177.21 208.584C176.421 208.2 175.823 207.72 175.418 207.144C175.013 206.568 174.81 205.843 174.81 204.968C174.81 203.901 175.087 203.005 175.642 202.28C176.197 201.533 176.954 200.968 177.914 200.584C178.895 200.2 180.005 200.008 181.242 200.008C182.479 200.008 183.599 200.2 184.602 200.584C185.605 200.968 186.469 201.533 187.194 202.28L185.914 204.232C185.253 203.549 184.527 203.048 183.738 202.728C182.949 202.387 182.063 202.216 181.082 202.216C180.506 202.216 179.941 202.291 179.386 202.44C178.831 202.568 178.373 202.813 178.01 203.176C177.647 203.517 177.466 204.008 177.466 204.648C177.466 205.181 177.605 205.608 177.882 205.928C178.181 206.227 178.607 206.483 179.162 206.696C179.738 206.909 180.431 207.144 181.242 207.4C182.501 207.763 183.589 208.125 184.506 208.488C185.445 208.851 186.17 209.32 186.682 209.896C187.194 210.472 187.45 211.272 187.45 212.296C187.45 213.875 186.853 215.112 185.658 216.008C184.463 216.883 182.885 217.32 180.922 217.32Z" fill="#25333A"/>
<defs>
<filter id="filter0_bd_215_3950" x="0" y="-4" width="260" height="288" filterUnits="userSpaceOnUse" color-interpolation-filters="sRGB">
<feFlood flood-opacity="0" result="BackgroundImageFix"/>
<feGaussianBlur in="BackgroundImageFix" stdDeviation="10"/>
<feComposite in2="SourceAlpha" operator="in" result="effect1_backgroundBlur_215_3950"/>
<feColorMatrix in="SourceAlpha" type="matrix" values="0 0 0 0 0 0 0 0 0 0 0 0 0 0 0 0 0 0 127 0" result="hardAlpha"/>
<feOffset dy="4"/>
<feGaussianBlur stdDeviation="10"/>
<feComposite in2="hardAlpha" operator="out"/>
<feColorMatrix type="matrix" values="0 0 0 0 0.0470588 0 0 0 0 0.0901961 0 0 0 0 0.0862745 0 0 0 0.06 0"/>
<feBlend mode="normal" in2="effect1_backgroundBlur_215_3950" result="effect2_dropShadow_215_3950"/>
<feBlend mode="normal" in="SourceGraphic" in2="effect2_dropShadow_215_3950" result="shape"/>
</filter>
</defs>
</svg>
