<svg width="260" height="284" viewBox="0 0 260 284" fill="none" xmlns="http://www.w3.org/2000/svg">
<g filter="url(#filter0_bd_215_3952)">
<rect x="20" y="16" width="220" height="244" rx="10" fill="white" fill-opacity="0.5" shape-rendering="crispEdges"/>
<rect x="20.5" y="16.5" width="219" height="243" rx="9.5" stroke="white" shape-rendering="crispEdges"/>
</g>
<path d="M129.5 141.55C129.5 151.47 121.648 159.5 112 159.5C102.352 159.5 94.5 151.47 94.5 141.55C94.5 131.63 102.352 123.6 112 123.6H129.5V141.55Z" stroke="#FE531E"/>
<path d="M94.5 105.55C94.5 95.6301 102.352 87.6001 112 87.6001H129.5V123.5H112C102.352 123.5 94.5 115.47 94.5 105.55Z" stroke="#FE531E"/>
<path d="M94.5 70C94.5 60.3401 102.34 52.5 112 52.5H129.5V87.5H112C102.34 87.5 94.5 79.6598 94.5 70Z" stroke="#FE531E"/>
<path d="M129.6 52.5H147.55C157.47 52.5 165.5 60.3517 165.5 70C165.5 79.6483 157.47 87.5 147.55 87.5H129.6V52.5Z" stroke="#FE531E"/>
<path d="M165.5 106C165.5 115.66 157.66 123.5 148 123.5C138.34 123.5 130.5 115.66 130.5 106C130.5 96.3401 138.34 88.5 148 88.5C157.66 88.5 165.5 96.3401 165.5 106Z" stroke="#FE531E"/>
<path d="M86.0794 217V194.28H101.087V196.84H88.9594V204.424H99.1674V206.824H88.9594V217H86.0794ZM104.288 217V200.296H107.104V217H104.288ZM104.288 197.16V193.64H107.104V197.16H104.288ZM118.319 217.192C117.188 217.192 116.143 216.968 115.183 216.52C114.244 216.051 113.433 215.421 112.751 214.632C112.068 213.821 111.535 212.904 111.151 211.88C110.788 210.856 110.607 209.789 110.607 208.68C110.607 207.507 110.788 206.397 111.151 205.352C111.535 204.307 112.068 203.389 112.751 202.6C113.455 201.789 114.276 201.16 115.215 200.712C116.153 200.243 117.199 200.008 118.351 200.008C119.737 200.008 120.943 200.349 121.967 201.032C123.012 201.715 123.887 202.579 124.591 203.624V200.296H127.087V216.808C127.087 218.387 126.703 219.72 125.935 220.808C125.188 221.896 124.164 222.717 122.863 223.272C121.583 223.848 120.153 224.136 118.575 224.136C116.697 224.136 115.161 223.805 113.967 223.144C112.772 222.483 111.78 221.587 110.991 220.456L112.623 219.016C113.284 219.997 114.137 220.733 115.183 221.224C116.249 221.715 117.38 221.96 118.575 221.96C119.599 221.96 120.537 221.768 121.391 221.384C122.265 221.021 122.959 220.456 123.471 219.688C124.004 218.92 124.271 217.96 124.271 216.808V213.864C123.652 214.888 122.799 215.699 121.711 216.296C120.644 216.893 119.513 217.192 118.319 217.192ZM119.183 214.888C119.78 214.888 120.356 214.781 120.911 214.568C121.465 214.355 121.977 214.077 122.447 213.736C122.916 213.373 123.311 212.968 123.631 212.52C123.951 212.072 124.164 211.613 124.271 211.144V206.344C123.972 205.576 123.545 204.904 122.991 204.328C122.436 203.731 121.807 203.272 121.103 202.952C120.399 202.611 119.673 202.44 118.927 202.44C118.073 202.44 117.305 202.621 116.623 202.984C115.961 203.347 115.396 203.837 114.927 204.456C114.457 205.053 114.095 205.725 113.839 206.472C113.583 207.219 113.455 207.976 113.455 208.744C113.455 209.576 113.604 210.365 113.903 211.112C114.201 211.837 114.607 212.488 115.119 213.064C115.631 213.64 116.239 214.088 116.943 214.408C117.647 214.728 118.393 214.888 119.183 214.888ZM156.815 217H153.999V207.656C153.999 205.907 153.711 204.616 153.135 203.784C152.581 202.952 151.749 202.536 150.639 202.536C149.509 202.536 148.485 202.952 147.567 203.784C146.65 204.595 145.999 205.651 145.615 206.952V217H142.799V207.656C142.799 205.885 142.522 204.595 141.967 203.784C141.413 202.952 140.581 202.536 139.471 202.536C138.362 202.536 137.338 202.941 136.399 203.752C135.482 204.541 134.831 205.597 134.447 206.92V217H131.631V200.296H134.191V203.88C134.874 202.643 135.759 201.693 136.847 201.032C137.935 200.349 139.162 200.008 140.527 200.008C141.914 200.008 143.023 200.392 143.855 201.16C144.687 201.907 145.199 202.877 145.391 204.072C146.138 202.749 147.045 201.747 148.111 201.064C149.178 200.36 150.394 200.008 151.759 200.008C152.719 200.008 153.519 200.189 154.159 200.552C154.821 200.893 155.343 201.384 155.727 202.024C156.111 202.643 156.389 203.379 156.559 204.232C156.73 205.085 156.815 206.013 156.815 207.016V217ZM159.882 212.168C159.882 211.101 160.181 210.184 160.778 209.416C161.397 208.627 162.239 208.019 163.306 207.592C164.373 207.165 165.61 206.952 167.018 206.952C167.765 206.952 168.554 207.016 169.386 207.144C170.218 207.251 170.954 207.421 171.594 207.656V206.44C171.594 205.16 171.21 204.157 170.442 203.432C169.674 202.685 168.586 202.312 167.178 202.312C166.261 202.312 165.375 202.483 164.522 202.824C163.69 203.144 162.805 203.613 161.866 204.232L160.842 202.248C161.93 201.501 163.018 200.947 164.106 200.584C165.194 200.2 166.325 200.008 167.498 200.008C169.631 200.008 171.317 200.605 172.554 201.8C173.791 202.973 174.41 204.616 174.41 206.728V213.8C174.41 214.141 174.474 214.397 174.602 214.568C174.751 214.717 174.986 214.803 175.306 214.824V217C175.029 217.043 174.783 217.075 174.57 217.096C174.378 217.117 174.218 217.128 174.09 217.128C173.429 217.128 172.927 216.947 172.586 216.584C172.266 216.221 172.085 215.837 172.042 215.432L171.978 214.376C171.253 215.315 170.303 216.04 169.13 216.552C167.957 217.064 166.794 217.32 165.642 217.32C164.533 217.32 163.541 217.096 162.666 216.648C161.791 216.179 161.109 215.56 160.618 214.792C160.127 214.003 159.882 213.128 159.882 212.168ZM170.762 213.352C171.018 213.053 171.221 212.755 171.37 212.456C171.519 212.136 171.594 211.869 171.594 211.656V209.576C170.933 209.32 170.239 209.128 169.514 209C168.789 208.851 168.074 208.776 167.37 208.776C165.941 208.776 164.778 209.064 163.882 209.64C163.007 210.195 162.57 210.963 162.57 211.944C162.57 212.477 162.709 213 162.986 213.512C163.285 214.003 163.711 214.408 164.266 214.728C164.842 215.048 165.546 215.208 166.378 215.208C167.253 215.208 168.085 215.037 168.874 214.696C169.663 214.333 170.293 213.885 170.762 213.352Z" fill="#25333A"/>
<defs>
<filter id="filter0_bd_215_3952" x="0" y="-4" width="260" height="288" filterUnits="userSpaceOnUse" color-interpolation-filters="sRGB">
<feFlood flood-opacity="0" result="BackgroundImageFix"/>
<feGaussianBlur in="BackgroundImageFix" stdDeviation="10"/>
<feComposite in2="SourceAlpha" operator="in" result="effect1_backgroundBlur_215_3952"/>
<feColorMatrix in="SourceAlpha" type="matrix" values="0 0 0 0 0 0 0 0 0 0 0 0 0 0 0 0 0 0 127 0" result="hardAlpha"/>
<feOffset dy="4"/>
<feGaussianBlur stdDeviation="10"/>
<feComposite in2="hardAlpha" operator="out"/>
<feColorMatrix type="matrix" values="0 0 0 0 0.0470588 0 0 0 0 0.0901961 0 0 0 0 0.0862745 0 0 0 0.06 0"/>
<feBlend mode="normal" in2="effect1_backgroundBlur_215_3952" result="effect2_dropShadow_215_3952"/>
<feBlend mode="normal" in="SourceGraphic" in2="effect2_dropShadow_215_3952" result="shape"/>
</filter>
</defs>
</svg>
