<svg width="260" height="284" viewBox="0 0 260 284" fill="none" xmlns="http://www.w3.org/2000/svg">
<g filter="url(#filter0_bd_215_3942)">
<rect x="20" y="16" width="220" height="244" rx="10" fill="white" fill-opacity="0.5" shape-rendering="crispEdges"/>
<rect x="20.5" y="16.5" width="219" height="243" rx="9.5" stroke="white" shape-rendering="crispEdges"/>
</g>
<path d="M89.5148 153.867C88.11 153.467 87.1006 152.238 86.9828 150.782L78.849 50.2914C78.6838 48.2508 80.2976 46.5048 82.3449 46.509L177.65 46.7072C179.698 46.7114 181.305 48.4656 181.13 50.5062L172.528 150.818C172.404 152.257 171.41 153.473 170.024 153.878L131.359 165.196C130.726 165.381 130.054 165.384 129.419 165.204L89.5148 153.867Z" stroke="#FE531E"/>
<path d="M159.682 95.3515L156.122 135.305L129.537 142.75L103.166 135.306L101.457 115.267H113.513L114.263 125.052L114.289 125.396L114.621 125.493L129.397 129.822L129.532 129.862L129.669 129.825L144.23 125.857L144.561 125.767L144.596 125.426L146.379 108.253L146.437 107.701H145.882H100.87L97.3202 68.436H162.108L160.987 80.5695H111.121H110.569L110.623 81.1184L111.979 94.9005L112.024 95.3515H112.477H159.682Z" stroke="#FE531E"/>
<path d="M97.2108 194.28V217H94.3308V206.664H81.8188V217H78.9388V194.28H81.8188V204.104H94.3308V194.28H97.2108ZM119.042 196.84H111.202V217H108.322V196.84H100.482V194.28H119.042V196.84ZM141.962 217V199.656L134.474 213H132.714L125.194 199.656V217H122.314V194.28H125.354L133.578 209.032L141.834 194.28H144.842V217H141.962ZM150.283 217V194.28H153.163V214.44H165.835V217H150.283ZM174.634 221.768C173.013 221.768 171.551 221.384 170.25 220.616C168.949 219.848 167.967 218.824 167.306 217.544L169.066 216.008C169.663 216.989 170.453 217.779 171.434 218.376C172.437 218.973 173.514 219.272 174.666 219.272C175.647 219.272 176.522 219.059 177.29 218.632C178.058 218.205 178.666 217.619 179.114 216.872C179.562 216.104 179.786 215.229 179.786 214.248C179.786 213.288 179.562 212.445 179.114 211.72C178.687 210.995 178.101 210.429 177.354 210.024C176.629 209.619 175.807 209.416 174.89 209.416C173.973 209.416 173.109 209.619 172.298 210.024C171.509 210.429 170.858 211.005 170.346 211.752H167.818L170.378 198.728H181.418V201.32H172.458L171.082 208.552C171.551 208.061 172.138 207.677 172.842 207.4C173.567 207.101 174.367 206.952 175.242 206.952C176.65 206.952 177.909 207.261 179.018 207.88C180.149 208.499 181.034 209.352 181.674 210.44C182.335 211.528 182.666 212.787 182.666 214.216C182.666 215.709 182.303 217.021 181.578 218.152C180.874 219.304 179.914 220.189 178.698 220.808C177.482 221.448 176.127 221.768 174.634 221.768Z" fill="#25333A"/>
<defs>
<filter id="filter0_bd_215_3942" x="0" y="-4" width="260" height="288" filterUnits="userSpaceOnUse" color-interpolation-filters="sRGB">
<feFlood flood-opacity="0" result="BackgroundImageFix"/>
<feGaussianBlur in="BackgroundImageFix" stdDeviation="10"/>
<feComposite in2="SourceAlpha" operator="in" result="effect1_backgroundBlur_215_3942"/>
<feColorMatrix in="SourceAlpha" type="matrix" values="0 0 0 0 0 0 0 0 0 0 0 0 0 0 0 0 0 0 127 0" result="hardAlpha"/>
<feOffset dy="4"/>
<feGaussianBlur stdDeviation="10"/>
<feComposite in2="hardAlpha" operator="out"/>
<feColorMatrix type="matrix" values="0 0 0 0 0.0470588 0 0 0 0 0.0901961 0 0 0 0 0.0862745 0 0 0 0.06 0"/>
<feBlend mode="normal" in2="effect1_backgroundBlur_215_3942" result="effect2_dropShadow_215_3942"/>
<feBlend mode="normal" in="SourceGraphic" in2="effect2_dropShadow_215_3942" result="shape"/>
</filter>
</defs>
</svg>
