<svg width="260" height="284" viewBox="0 0 260 284" fill="none" xmlns="http://www.w3.org/2000/svg">
<g filter="url(#filter0_bd_215_3945)">
<rect x="20" y="16" width="220" height="244" rx="10" fill="white" fill-opacity="0.5" shape-rendering="crispEdges"/>
<rect x="20.5" y="16.5" width="219" height="243" rx="9.5" stroke="white" shape-rendering="crispEdges"/>
</g>
<g clip-path="url(#clip0_215_3945)">
<path d="M174.1 92C174.1 97.493 172.158 103.95 169.052 110.749C165.951 117.54 161.709 124.631 157.153 131.379C148.041 144.877 137.7 156.965 132.798 162.49C131.458 164 129.142 164 127.802 162.49C122.9 156.965 112.559 144.877 103.447 131.379C98.8911 124.631 94.649 117.54 91.5475 110.749C88.4423 103.95 86.5 97.493 86.5 92C86.5 79.291 87.5929 69.2645 96.4992 60.4135C105.463 51.5052 117.622 46.5 130.3 46.5C142.978 46.5 155.137 51.5052 164.101 60.4135C173.007 69.2645 174.1 79.291 174.1 92Z" stroke="#FE531E"/>
<path d="M140.253 101.253C137.534 103.972 133.846 105.5 130 105.5C126.154 105.5 122.466 103.972 119.747 101.253C117.028 98.5338 115.5 94.8456 115.5 91C115.5 87.1544 117.028 83.4662 119.747 80.747C122.466 78.0277 126.154 76.5 130 76.5C133.846 76.5 137.534 78.0277 140.253 80.747C142.972 83.4662 144.5 87.1544 144.5 91C144.5 94.8456 142.972 98.5338 140.253 101.253Z" stroke="#FE531E" stroke-linecap="round" stroke-linejoin="round"/>
</g>
<path d="M41.7775 217.16C40.2842 217.16 38.8868 216.84 37.5855 216.2C36.3055 215.539 35.1855 214.664 34.2255 213.576C33.2655 212.467 32.5188 211.229 31.9855 209.864C31.4522 208.477 31.1855 207.048 31.1855 205.576C31.1855 204.04 31.4522 202.589 31.9855 201.224C32.5188 199.837 33.2548 198.611 34.1935 197.544C35.1535 196.477 36.2735 195.645 37.5535 195.048C38.8548 194.429 40.2628 194.12 41.7775 194.12C43.9748 194.12 45.7882 194.579 47.2175 195.496C48.6468 196.413 49.7242 197.608 50.4495 199.08L48.2415 200.616C47.5802 199.293 46.6735 198.312 45.5215 197.672C44.3695 197.032 43.1002 196.712 41.7135 196.712C40.5615 196.712 39.5162 196.957 38.5775 197.448C37.6388 197.939 36.8282 198.611 36.1455 199.464C35.4842 200.296 34.9722 201.245 34.6095 202.312C34.2682 203.379 34.0975 204.488 34.0975 205.64C34.0975 206.856 34.2895 208.008 34.6735 209.096C35.0788 210.163 35.6442 211.112 36.3695 211.944C37.0948 212.755 37.9375 213.395 38.8975 213.864C39.8575 214.333 40.8922 214.568 42.0015 214.568C43.3028 214.568 44.5402 214.237 45.7135 213.576C46.8868 212.915 47.9962 211.901 49.0415 210.536V213.512C46.9935 215.944 44.5722 217.16 41.7775 217.16ZM48.6895 207.848H43.7935V205.672H51.1215V217H48.6895V207.848ZM62.3493 217.32C61.0906 217.32 59.9493 217.096 58.9253 216.648C57.9013 216.179 57.0159 215.549 56.2693 214.76C55.5226 213.949 54.9466 213.021 54.5413 211.976C54.1359 210.931 53.9333 209.832 53.9333 208.68C53.9333 207.507 54.1359 206.397 54.5413 205.352C54.9466 204.307 55.5226 203.389 56.2693 202.6C57.0159 201.789 57.9013 201.16 58.9253 200.712C59.9706 200.243 61.1119 200.008 62.3493 200.008C63.6079 200.008 64.7493 200.243 65.7733 200.712C66.7973 201.16 67.6826 201.789 68.4293 202.6C69.1973 203.389 69.7839 204.307 70.1893 205.352C70.5946 206.397 70.7973 207.507 70.7973 208.68C70.7973 209.832 70.5946 210.931 70.1893 211.976C69.7839 213.021 69.2079 213.949 68.4613 214.76C67.7146 215.549 66.8186 216.179 65.7733 216.648C64.7493 217.096 63.6079 217.32 62.3493 217.32ZM56.8133 208.712C56.8133 209.864 57.0586 210.909 57.5493 211.848C58.0613 212.787 58.7333 213.533 59.5653 214.088C60.3973 214.621 61.3253 214.888 62.3493 214.888C63.3733 214.888 64.3013 214.611 65.1333 214.056C65.9866 213.501 66.6586 212.755 67.1493 211.816C67.6613 210.856 67.9173 209.8 67.9173 208.648C67.9173 207.496 67.6613 206.451 67.1493 205.512C66.6586 204.573 65.9866 203.827 65.1333 203.272C64.3013 202.717 63.3733 202.44 62.3493 202.44C61.3253 202.44 60.3973 202.728 59.5653 203.304C58.7333 203.859 58.0613 204.605 57.5493 205.544C57.0586 206.483 56.8133 207.539 56.8133 208.712ZM81.5055 217.32C80.2468 217.32 79.1055 217.096 78.0815 216.648C77.0575 216.179 76.1722 215.549 75.4255 214.76C74.6788 213.949 74.1028 213.021 73.6975 211.976C73.2922 210.931 73.0895 209.832 73.0895 208.68C73.0895 207.507 73.2922 206.397 73.6975 205.352C74.1028 204.307 74.6788 203.389 75.4255 202.6C76.1722 201.789 77.0575 201.16 78.0815 200.712C79.1268 200.243 80.2682 200.008 81.5055 200.008C82.7642 200.008 83.9055 200.243 84.9295 200.712C85.9535 201.16 86.8388 201.789 87.5855 202.6C88.3535 203.389 88.9402 204.307 89.3455 205.352C89.7508 206.397 89.9535 207.507 89.9535 208.68C89.9535 209.832 89.7508 210.931 89.3455 211.976C88.9402 213.021 88.3642 213.949 87.6175 214.76C86.8708 215.549 85.9748 216.179 84.9295 216.648C83.9055 217.096 82.7642 217.32 81.5055 217.32ZM75.9695 208.712C75.9695 209.864 76.2148 210.909 76.7055 211.848C77.2175 212.787 77.8895 213.533 78.7215 214.088C79.5535 214.621 80.4815 214.888 81.5055 214.888C82.5295 214.888 83.4575 214.611 84.2895 214.056C85.1428 213.501 85.8148 212.755 86.3055 211.816C86.8175 210.856 87.0735 209.8 87.0735 208.648C87.0735 207.496 86.8175 206.451 86.3055 205.512C85.8148 204.573 85.1428 203.827 84.2895 203.272C83.4575 202.717 82.5295 202.44 81.5055 202.44C80.4815 202.44 79.5535 202.728 78.7215 203.304C77.8895 203.859 77.2175 204.605 76.7055 205.544C76.2148 206.483 75.9695 207.539 75.9695 208.712ZM100.022 217.192C98.8911 217.192 97.8458 216.968 96.8858 216.52C95.9471 216.051 95.1364 215.421 94.4538 214.632C93.7711 213.821 93.2378 212.904 92.8538 211.88C92.4911 210.856 92.3098 209.789 92.3098 208.68C92.3098 207.507 92.4911 206.397 92.8538 205.352C93.2378 204.307 93.7711 203.389 94.4538 202.6C95.1578 201.789 95.9791 201.16 96.9178 200.712C97.8564 200.243 98.9018 200.008 100.054 200.008C101.44 200.008 102.646 200.349 103.67 201.032C104.715 201.715 105.59 202.579 106.294 203.624V200.296H108.79V216.808C108.79 218.387 108.406 219.72 107.638 220.808C106.891 221.896 105.867 222.717 104.566 223.272C103.286 223.848 101.856 224.136 100.278 224.136C98.4004 224.136 96.8644 223.805 95.6698 223.144C94.4751 222.483 93.4831 221.587 92.6938 220.456L94.3258 219.016C94.9871 219.997 95.8404 220.733 96.8858 221.224C97.9524 221.715 99.0831 221.96 100.278 221.96C101.302 221.96 102.24 221.768 103.094 221.384C103.968 221.021 104.662 220.456 105.174 219.688C105.707 218.92 105.974 217.96 105.974 216.808V213.864C105.355 214.888 104.502 215.699 103.414 216.296C102.347 216.893 101.216 217.192 100.022 217.192ZM100.886 214.888C101.483 214.888 102.059 214.781 102.614 214.568C103.168 214.355 103.68 214.077 104.15 213.736C104.619 213.373 105.014 212.968 105.334 212.52C105.654 212.072 105.867 211.613 105.974 211.144V206.344C105.675 205.576 105.248 204.904 104.694 204.328C104.139 203.731 103.51 203.272 102.806 202.952C102.102 202.611 101.376 202.44 100.63 202.44C99.7764 202.44 99.0084 202.621 98.3258 202.984C97.6644 203.347 97.0991 203.837 96.6298 204.456C96.1604 205.053 95.7978 205.725 95.5418 206.472C95.2858 207.219 95.1578 207.976 95.1578 208.744C95.1578 209.576 95.3071 210.365 95.6058 211.112C95.9044 211.837 96.3098 212.488 96.8218 213.064C97.3338 213.64 97.9418 214.088 98.6458 214.408C99.3498 214.728 100.096 214.888 100.886 214.888ZM113.399 193.64H116.215V212.68C116.215 213.597 116.343 214.163 116.599 214.376C116.855 214.589 117.164 214.696 117.527 214.696C117.975 214.696 118.401 214.653 118.807 214.568C119.212 214.461 119.553 214.355 119.831 214.248L120.279 216.552C119.809 216.744 119.255 216.904 118.615 217.032C117.975 217.16 117.409 217.224 116.919 217.224C115.831 217.224 114.967 216.915 114.327 216.296C113.708 215.677 113.399 214.813 113.399 213.704V193.64ZM129.883 217.32C128.624 217.32 127.472 217.096 126.427 216.648C125.403 216.179 124.507 215.549 123.739 214.76C122.992 213.949 122.405 213.021 121.979 211.976C121.573 210.931 121.371 209.821 121.371 208.648C121.371 207.069 121.733 205.629 122.459 204.328C123.184 203.027 124.187 201.981 125.467 201.192C126.768 200.403 128.251 200.008 129.915 200.008C131.6 200.008 133.061 200.413 134.299 201.224C135.557 202.013 136.528 203.059 137.211 204.36C137.915 205.64 138.267 207.027 138.267 208.52C138.267 208.733 138.256 208.947 138.235 209.16C138.235 209.352 138.224 209.501 138.203 209.608H124.347C124.432 210.696 124.731 211.667 125.243 212.52C125.776 213.352 126.459 214.013 127.291 214.504C128.123 214.973 129.019 215.208 129.979 215.208C131.003 215.208 131.963 214.952 132.859 214.44C133.776 213.928 134.405 213.256 134.747 212.424L137.179 213.096C136.816 213.907 136.272 214.632 135.547 215.272C134.843 215.912 134 216.413 133.019 216.776C132.059 217.139 131.013 217.32 129.883 217.32ZM124.251 207.656H135.643C135.557 206.568 135.248 205.608 134.715 204.776C134.181 203.944 133.499 203.293 132.667 202.824C131.835 202.355 130.917 202.12 129.915 202.12C128.933 202.12 128.027 202.355 127.195 202.824C126.363 203.293 125.68 203.944 125.147 204.776C124.635 205.608 124.336 206.568 124.251 207.656ZM174.675 217H171.859V207.656C171.859 205.907 171.571 204.616 170.995 203.784C170.44 202.952 169.608 202.536 168.499 202.536C167.368 202.536 166.344 202.952 165.427 203.784C164.509 204.595 163.859 205.651 163.475 206.952V217H160.659V207.656C160.659 205.885 160.381 204.595 159.827 203.784C159.272 202.952 158.44 202.536 157.331 202.536C156.221 202.536 155.197 202.941 154.259 203.752C153.341 204.541 152.691 205.597 152.307 206.92V217H149.491V200.296H152.051V203.88C152.733 202.643 153.619 201.693 154.707 201.032C155.795 200.349 157.021 200.008 158.387 200.008C159.773 200.008 160.883 200.392 161.715 201.16C162.547 201.907 163.059 202.877 163.251 204.072C163.997 202.749 164.904 201.747 165.971 201.064C167.037 200.36 168.253 200.008 169.619 200.008C170.579 200.008 171.379 200.189 172.019 200.552C172.68 200.893 173.203 201.384 173.587 202.024C173.971 202.643 174.248 203.379 174.419 204.232C174.589 205.085 174.675 206.013 174.675 207.016V217ZM177.741 212.168C177.741 211.101 178.04 210.184 178.637 209.416C179.256 208.627 180.099 208.019 181.165 207.592C182.232 207.165 183.469 206.952 184.877 206.952C185.624 206.952 186.413 207.016 187.245 207.144C188.077 207.251 188.813 207.421 189.453 207.656V206.44C189.453 205.16 189.069 204.157 188.301 203.432C187.533 202.685 186.445 202.312 185.037 202.312C184.12 202.312 183.235 202.483 182.381 202.824C181.549 203.144 180.664 203.613 179.725 204.232L178.701 202.248C179.789 201.501 180.877 200.947 181.965 200.584C183.053 200.2 184.184 200.008 185.357 200.008C187.491 200.008 189.176 200.605 190.413 201.8C191.651 202.973 192.269 204.616 192.269 206.728V213.8C192.269 214.141 192.333 214.397 192.461 214.568C192.611 214.717 192.845 214.803 193.165 214.824V217C192.888 217.043 192.643 217.075 192.429 217.096C192.237 217.117 192.077 217.128 191.949 217.128C191.288 217.128 190.787 216.947 190.445 216.584C190.125 216.221 189.944 215.837 189.901 215.432L189.837 214.376C189.112 215.315 188.163 216.04 186.989 216.552C185.816 217.064 184.653 217.32 183.501 217.32C182.392 217.32 181.4 217.096 180.525 216.648C179.651 216.179 178.968 215.56 178.477 214.792C177.987 214.003 177.741 213.128 177.741 212.168ZM188.621 213.352C188.877 213.053 189.08 212.755 189.229 212.456C189.379 212.136 189.453 211.869 189.453 211.656V209.576C188.792 209.32 188.099 209.128 187.373 209C186.648 208.851 185.933 208.776 185.229 208.776C183.8 208.776 182.637 209.064 181.741 209.64C180.867 210.195 180.429 210.963 180.429 211.944C180.429 212.477 180.568 213 180.845 213.512C181.144 214.003 181.571 214.408 182.125 214.728C182.701 215.048 183.405 215.208 184.237 215.208C185.112 215.208 185.944 215.037 186.733 214.696C187.523 214.333 188.152 213.885 188.621 213.352ZM205.764 217.32C204.399 217.32 203.183 216.979 202.116 216.296C201.049 215.613 200.207 214.749 199.588 213.704V223.816H196.772V200.296H199.268V203.432C199.929 202.408 200.793 201.587 201.86 200.968C202.927 200.328 204.089 200.008 205.348 200.008C206.5 200.008 207.556 200.243 208.516 200.712C209.476 201.181 210.308 201.821 211.012 202.632C211.716 203.443 212.26 204.371 212.644 205.416C213.049 206.44 213.252 207.517 213.252 208.648C213.252 210.227 212.932 211.677 212.292 213C211.673 214.323 210.799 215.379 209.668 216.168C208.537 216.936 207.236 217.32 205.764 217.32ZM204.9 214.888C205.732 214.888 206.479 214.717 207.14 214.376C207.823 214.013 208.399 213.544 208.868 212.968C209.359 212.371 209.732 211.699 209.988 210.952C210.244 210.205 210.372 209.437 210.372 208.648C210.372 207.816 210.223 207.027 209.924 206.28C209.647 205.533 209.241 204.872 208.708 204.296C208.196 203.72 207.588 203.272 206.884 202.952C206.201 202.611 205.455 202.44 204.644 202.44C204.132 202.44 203.599 202.536 203.044 202.728C202.511 202.92 201.999 203.197 201.508 203.56C201.017 203.901 200.601 204.296 200.26 204.744C199.919 205.192 199.695 205.672 199.588 206.184V210.952C199.908 211.677 200.335 212.339 200.868 212.936C201.401 213.533 202.02 214.013 202.724 214.376C203.428 214.717 204.153 214.888 204.9 214.888ZM222.438 217.32C221.051 217.32 219.75 217.096 218.534 216.648C217.318 216.179 216.272 215.485 215.398 214.568L216.486 212.584C217.446 213.48 218.406 214.12 219.366 214.504C220.326 214.888 221.307 215.08 222.31 215.08C223.462 215.08 224.4 214.867 225.126 214.44C225.851 213.992 226.214 213.341 226.214 212.488C226.214 211.869 226.022 211.411 225.638 211.112C225.275 210.813 224.752 210.568 224.07 210.376C223.387 210.163 222.576 209.928 221.638 209.672C220.486 209.331 219.515 208.968 218.726 208.584C217.936 208.2 217.339 207.72 216.934 207.144C216.528 206.568 216.326 205.843 216.326 204.968C216.326 203.901 216.603 203.005 217.158 202.28C217.712 201.533 218.47 200.968 219.43 200.584C220.411 200.2 221.52 200.008 222.758 200.008C223.995 200.008 225.115 200.2 226.118 200.584C227.12 200.968 227.984 201.533 228.71 202.28L227.43 204.232C226.768 203.549 226.043 203.048 225.254 202.728C224.464 202.387 223.579 202.216 222.598 202.216C222.022 202.216 221.456 202.291 220.902 202.44C220.347 202.568 219.888 202.813 219.526 203.176C219.163 203.517 218.982 204.008 218.982 204.648C218.982 205.181 219.12 205.608 219.398 205.928C219.696 206.227 220.123 206.483 220.678 206.696C221.254 206.909 221.947 207.144 222.758 207.4C224.016 207.763 225.104 208.125 226.022 208.488C226.96 208.851 227.686 209.32 228.198 209.896C228.71 210.472 228.966 211.272 228.966 212.296C228.966 213.875 228.368 215.112 227.174 216.008C225.979 216.883 224.4 217.32 222.438 217.32Z" fill="#25333A"/>
<defs>
<filter id="filter0_bd_215_3945" x="0" y="-4" width="260" height="288" filterUnits="userSpaceOnUse" color-interpolation-filters="sRGB">
<feFlood flood-opacity="0" result="BackgroundImageFix"/>
<feGaussianBlur in="BackgroundImageFix" stdDeviation="10"/>
<feComposite in2="SourceAlpha" operator="in" result="effect1_backgroundBlur_215_3945"/>
<feColorMatrix in="SourceAlpha" type="matrix" values="0 0 0 0 0 0 0 0 0 0 0 0 0 0 0 0 0 0 127 0" result="hardAlpha"/>
<feOffset dy="4"/>
<feGaussianBlur stdDeviation="10"/>
<feComposite in2="hardAlpha" operator="out"/>
<feColorMatrix type="matrix" values="0 0 0 0 0.0470588 0 0 0 0 0.0901961 0 0 0 0 0.0862745 0 0 0 0.06 0"/>
<feBlend mode="normal" in2="effect1_backgroundBlur_215_3945" result="effect2_dropShadow_215_3945"/>
<feBlend mode="normal" in="SourceGraphic" in2="effect2_dropShadow_215_3945" result="shape"/>
</filter>
<clipPath id="clip0_215_3945">
<rect width="120" height="120" fill="white" transform="translate(70 46)"/>
</clipPath>
</defs>
</svg>
