<svg width="260" height="284" viewBox="0 0 260 284" fill="none" xmlns="http://www.w3.org/2000/svg">
<g filter="url(#filter0_bd_215_3949)">
<rect x="20" y="16" width="220" height="244" rx="10" fill="white" fill-opacity="0.5" shape-rendering="crispEdges"/>
<rect x="20.5" y="16.5" width="219" height="243" rx="9.5" stroke="white" shape-rendering="crispEdges"/>
</g>
<mask id="path-3-outside-1_215_3949" maskUnits="userSpaceOnUse" x="69" y="95" width="123" height="23" fill="black">
<rect fill="white" x="69" y="95" width="123" height="23"/>
<path d="M88.0395 96C89.2052 96 90.2135 96.2348 91.0646 96.7044C91.9342 97.1552 92.6096 97.8503 93.0906 98.7895C93.5717 99.7099 93.8122 100.856 93.8122 102.227V110.821H92.4245V102.34C92.4245 100.687 92.0267 99.4282 91.2311 98.5641C90.4356 97.7 89.3254 97.268 87.9008 97.268C86.8092 97.268 85.8655 97.5028 85.07 97.9724C84.2744 98.442 83.6638 99.0994 83.2382 99.9448C82.8127 100.79 82.5999 101.804 82.5999 102.988V110.821H81.2123V102.34C81.2123 100.687 80.8145 99.4282 80.0189 98.5641C79.2233 97.7 78.1132 97.268 76.6885 97.268C75.5969 97.268 74.6533 97.5028 73.8577 97.9724C73.0621 98.442 72.4515 99.0994 72.026 99.9448C71.6004 100.79 71.3877 101.804 71.3877 102.988V110.821H70V96.1127H71.3322V100.17L71.1379 99.7193C71.5634 98.5735 72.2758 97.6718 73.2749 97.0144C74.274 96.3381 75.4766 96 76.8828 96C78.3259 96 79.5378 96.3757 80.5184 97.1271C81.5176 97.8597 82.1466 98.9586 82.4057 100.424L81.9338 100.227C82.3224 98.968 83.0532 97.9536 84.1263 97.1834C85.1995 96.3945 86.5039 96 88.0395 96Z"/>
<path d="M101.734 110.934C100.347 110.934 99.1071 110.614 98.0155 109.976C96.9424 109.337 96.082 108.454 95.4344 107.327C94.8054 106.2 94.4908 104.913 94.4908 103.467C94.4908 102.002 94.8054 100.715 95.4344 99.6066C96.082 98.4796 96.9424 97.5967 98.0155 96.958C99.1071 96.3193 100.347 96 101.734 96C103.122 96 104.362 96.3193 105.453 96.958C106.545 97.5967 107.405 98.4796 108.034 99.6066C108.663 100.715 108.978 102.002 108.978 103.467C108.978 104.913 108.663 106.2 108.034 107.327C107.405 108.454 106.545 109.337 105.453 109.976C104.362 110.614 103.122 110.934 101.734 110.934ZM101.734 109.666C102.845 109.666 103.844 109.412 104.732 108.905C105.62 108.379 106.314 107.646 106.813 106.707C107.313 105.768 107.563 104.688 107.563 103.467C107.563 102.227 107.313 101.147 106.813 100.227C106.314 99.2873 105.62 98.5641 104.732 98.0569C103.844 97.5309 102.845 97.268 101.734 97.268C100.624 97.268 99.6252 97.5309 98.7371 98.0569C97.8675 98.5641 97.1736 99.2873 96.6556 100.227C96.156 101.147 95.9063 102.227 95.9063 103.467C95.9063 104.688 96.156 105.768 96.6556 106.707C97.1736 107.646 97.8675 108.379 98.7371 108.905C99.6252 109.412 100.624 109.666 101.734 109.666Z"/>
<path d="M116.891 96C118.075 96 119.102 96.2348 119.971 96.7044C120.86 97.1552 121.544 97.8503 122.025 98.7895C122.525 99.7099 122.775 100.856 122.775 102.227V110.821H121.387V102.34C121.387 100.687 120.971 99.4282 120.138 98.5641C119.324 97.7 118.177 97.268 116.697 97.268C115.568 97.268 114.587 97.5028 113.755 97.9724C112.922 98.442 112.284 99.0994 111.84 99.9448C111.414 100.79 111.201 101.804 111.201 102.988V110.821H109.814V96.1127H111.146V100.198L110.952 99.7475C111.396 98.5829 112.127 97.6718 113.144 97.0144C114.162 96.3381 115.411 96 116.891 96Z"/>
<path d="M131.041 116.4C129.727 116.4 128.478 116.193 127.294 115.78C126.11 115.367 125.148 114.794 124.408 114.061L125.157 112.991C125.879 113.667 126.739 114.193 127.738 114.569C128.756 114.944 129.847 115.132 131.013 115.132C132.956 115.132 134.38 114.672 135.287 113.751C136.212 112.831 136.675 111.385 136.675 109.412V105.327L136.952 103.129L136.73 100.931V96.1127H138.062V109.243C138.062 111.704 137.47 113.507 136.286 114.653C135.121 115.818 133.372 116.4 131.041 116.4ZM130.652 110.286C129.283 110.286 128.053 109.985 126.961 109.384C125.888 108.764 125.028 107.919 124.38 106.848C123.751 105.759 123.436 104.519 123.436 103.129C123.436 101.72 123.751 100.48 124.38 99.4094C125.028 98.3387 125.888 97.5028 126.961 96.9017C128.053 96.3006 129.283 96 130.652 96C131.966 96 133.141 96.2912 134.177 96.8735C135.232 97.437 136.064 98.2541 136.675 99.3249C137.285 100.377 137.591 101.645 137.591 103.129C137.591 104.594 137.285 105.862 136.675 106.933C136.064 108.003 135.232 108.83 134.177 109.412C133.141 109.994 131.966 110.286 130.652 110.286ZM130.763 109.018C131.929 109.018 132.956 108.773 133.844 108.285C134.732 107.778 135.426 107.083 135.925 106.2C136.443 105.298 136.702 104.275 136.702 103.129C136.702 101.964 136.443 100.94 135.925 100.057C135.426 99.1746 134.732 98.489 133.844 98.0006C132.956 97.5122 131.929 97.268 130.763 97.268C129.635 97.268 128.617 97.5122 127.71 98.0006C126.822 98.489 126.119 99.1746 125.601 100.057C125.102 100.94 124.852 101.964 124.852 103.129C124.852 104.275 125.102 105.298 125.601 106.2C126.119 107.083 126.822 107.778 127.71 108.285C128.617 108.773 129.635 109.018 130.763 109.018Z"/>
<path d="M146.129 110.934C144.741 110.934 143.501 110.614 142.41 109.976C141.337 109.337 140.476 108.454 139.829 107.327C139.2 106.2 138.885 104.913 138.885 103.467C138.885 102.002 139.2 100.715 139.829 99.6066C140.476 98.4796 141.337 97.5967 142.41 96.958C143.501 96.3193 144.741 96 146.129 96C147.516 96 148.756 96.3193 149.848 96.958C150.939 97.5967 151.799 98.4796 152.429 99.6066C153.058 100.715 153.372 102.002 153.372 103.467C153.372 104.913 153.058 106.2 152.429 107.327C151.799 108.454 150.939 109.337 149.848 109.976C148.756 110.614 147.516 110.934 146.129 110.934ZM146.129 109.666C147.239 109.666 148.238 109.412 149.126 108.905C150.014 108.379 150.708 107.646 151.207 106.707C151.707 105.768 151.957 104.688 151.957 103.467C151.957 102.227 151.707 101.147 151.207 100.227C150.708 99.2873 150.014 98.5641 149.126 98.0569C148.238 97.5309 147.239 97.268 146.129 97.268C145.018 97.268 144.019 97.5309 143.131 98.0569C142.262 98.5641 141.568 99.2873 141.05 100.227C140.55 101.147 140.3 102.227 140.3 103.467C140.3 104.688 140.55 105.768 141.05 106.707C141.568 107.646 142.262 108.379 143.131 108.905C144.019 109.412 145.018 109.666 146.129 109.666Z"/>
<path d="M159.87 110.934C158.482 110.934 157.242 110.614 156.151 109.976C155.078 109.337 154.217 108.454 153.57 107.327C152.941 106.2 152.626 104.913 152.626 103.467C152.626 102.002 152.941 100.715 153.57 99.6066C154.217 98.4796 155.078 97.5967 156.151 96.958C157.242 96.3193 158.482 96 159.87 96C161.257 96 162.497 96.3193 163.589 96.958C164.68 97.5967 165.541 98.4796 166.17 99.6066C166.799 100.715 167.113 102.002 167.113 103.467C167.113 104.913 166.799 106.2 166.17 107.327C165.541 108.454 164.68 109.337 163.589 109.976C162.497 110.614 161.257 110.934 159.87 110.934ZM159.87 109.666C160.98 109.666 161.979 109.412 162.867 108.905C163.755 108.379 164.449 107.646 164.948 106.707C165.448 105.768 165.698 104.688 165.698 103.467C165.698 102.227 165.448 101.147 164.948 100.227C164.449 99.2873 163.755 98.5641 162.867 98.0569C161.979 97.5309 160.98 97.268 159.87 97.268C158.76 97.268 157.76 97.5309 156.872 98.0569C156.003 98.5641 155.309 99.2873 154.791 100.227C154.291 101.147 154.041 102.227 154.041 103.467C154.041 104.688 154.291 105.768 154.791 106.707C155.309 107.646 156.003 108.379 156.872 108.905C157.76 109.412 158.76 109.666 159.87 109.666Z"/>
<path d="M171.612 110.934C170.41 110.934 169.281 110.755 168.227 110.398C167.19 110.041 166.386 109.591 165.812 109.046L166.45 107.919C167.005 108.407 167.746 108.83 168.671 109.187C169.596 109.525 170.595 109.694 171.668 109.694C173.185 109.694 174.277 109.44 174.943 108.933C175.609 108.426 175.942 107.759 175.942 106.933C175.942 106.331 175.766 105.862 175.415 105.524C175.082 105.167 174.628 104.894 174.055 104.707C173.481 104.519 172.852 104.369 172.168 104.256C171.483 104.124 170.798 103.983 170.114 103.833C169.429 103.683 168.8 103.467 168.227 103.185C167.653 102.903 167.19 102.518 166.839 102.03C166.506 101.523 166.339 100.856 166.339 100.029C166.339 99.2779 166.543 98.6017 166.95 98.0006C167.357 97.3994 167.968 96.9204 168.782 96.5635C169.596 96.1878 170.613 96 171.834 96C172.741 96 173.648 96.1315 174.554 96.3945C175.479 96.6575 176.229 97.005 176.802 97.437L176.164 98.5641C175.553 98.0945 174.869 97.7564 174.11 97.5497C173.352 97.3431 172.584 97.2398 171.807 97.2398C170.401 97.2398 169.364 97.5028 168.698 98.0287C168.051 98.5547 167.727 99.2122 167.727 100.001C167.727 100.621 167.894 101.119 168.227 101.494C168.578 101.851 169.041 102.133 169.614 102.34C170.188 102.528 170.817 102.687 171.501 102.819C172.186 102.931 172.871 103.063 173.555 103.213C174.24 103.364 174.869 103.58 175.442 103.861C176.016 104.124 176.469 104.5 176.802 104.988C177.154 105.458 177.33 106.097 177.33 106.904C177.33 107.712 177.108 108.417 176.664 109.018C176.238 109.619 175.6 110.088 174.749 110.427C173.897 110.765 172.852 110.934 171.612 110.934Z"/>
<path d="M183.617 110.934C182.155 110.934 180.86 110.614 179.731 109.976C178.621 109.337 177.742 108.454 177.095 107.327C176.466 106.2 176.151 104.913 176.151 103.467C176.151 102.002 176.447 100.715 177.039 99.6066C177.65 98.4796 178.482 97.5967 179.537 96.958C180.592 96.3193 181.776 96 183.089 96C184.403 96 185.578 96.3099 186.614 96.9298C187.669 97.5497 188.492 98.4232 189.084 99.5503C189.695 100.659 190 101.945 190 103.41C190 103.467 189.991 103.533 189.972 103.608C189.972 103.664 189.972 103.73 189.972 103.805H177.178V102.706H189.223L188.668 103.241C188.686 102.096 188.446 101.072 187.946 100.17C187.465 99.2497 186.808 98.5359 185.976 98.0287C185.143 97.5028 184.181 97.2398 183.089 97.2398C182.016 97.2398 181.054 97.5028 180.203 98.0287C179.371 98.5359 178.714 99.2497 178.233 100.17C177.752 101.072 177.511 102.105 177.511 103.27V103.523C177.511 104.725 177.77 105.796 178.288 106.735C178.825 107.656 179.556 108.379 180.481 108.905C181.406 109.412 182.46 109.666 183.645 109.666C184.57 109.666 185.43 109.497 186.226 109.159C187.04 108.82 187.724 108.304 188.279 107.609L189.084 108.539C188.455 109.328 187.659 109.929 186.697 110.342C185.754 110.736 184.727 110.934 183.617 110.934Z"/>
</mask>
<path d="M88.0395 96C89.2052 96 90.2135 96.2348 91.0646 96.7044C91.9342 97.1552 92.6096 97.8503 93.0906 98.7895C93.5717 99.7099 93.8122 100.856 93.8122 102.227V110.821H92.4245V102.34C92.4245 100.687 92.0267 99.4282 91.2311 98.5641C90.4356 97.7 89.3254 97.268 87.9008 97.268C86.8092 97.268 85.8655 97.5028 85.07 97.9724C84.2744 98.442 83.6638 99.0994 83.2382 99.9448C82.8127 100.79 82.5999 101.804 82.5999 102.988V110.821H81.2123V102.34C81.2123 100.687 80.8145 99.4282 80.0189 98.5641C79.2233 97.7 78.1132 97.268 76.6885 97.268C75.5969 97.268 74.6533 97.5028 73.8577 97.9724C73.0621 98.442 72.4515 99.0994 72.026 99.9448C71.6004 100.79 71.3877 101.804 71.3877 102.988V110.821H70V96.1127H71.3322V100.17L71.1379 99.7193C71.5634 98.5735 72.2758 97.6718 73.2749 97.0144C74.274 96.3381 75.4766 96 76.8828 96C78.3259 96 79.5378 96.3757 80.5184 97.1271C81.5176 97.8597 82.1466 98.9586 82.4057 100.424L81.9338 100.227C82.3224 98.968 83.0532 97.9536 84.1263 97.1834C85.1995 96.3945 86.5039 96 88.0395 96Z" stroke="#FE531E" stroke-width="2" mask="url(#path-3-outside-1_215_3949)"/>
<path d="M101.734 110.934C100.347 110.934 99.1071 110.614 98.0155 109.976C96.9424 109.337 96.082 108.454 95.4344 107.327C94.8054 106.2 94.4908 104.913 94.4908 103.467C94.4908 102.002 94.8054 100.715 95.4344 99.6066C96.082 98.4796 96.9424 97.5967 98.0155 96.958C99.1071 96.3193 100.347 96 101.734 96C103.122 96 104.362 96.3193 105.453 96.958C106.545 97.5967 107.405 98.4796 108.034 99.6066C108.663 100.715 108.978 102.002 108.978 103.467C108.978 104.913 108.663 106.2 108.034 107.327C107.405 108.454 106.545 109.337 105.453 109.976C104.362 110.614 103.122 110.934 101.734 110.934ZM101.734 109.666C102.845 109.666 103.844 109.412 104.732 108.905C105.62 108.379 106.314 107.646 106.813 106.707C107.313 105.768 107.563 104.688 107.563 103.467C107.563 102.227 107.313 101.147 106.813 100.227C106.314 99.2873 105.62 98.5641 104.732 98.0569C103.844 97.5309 102.845 97.268 101.734 97.268C100.624 97.268 99.6252 97.5309 98.7371 98.0569C97.8675 98.5641 97.1736 99.2873 96.6556 100.227C96.156 101.147 95.9063 102.227 95.9063 103.467C95.9063 104.688 96.156 105.768 96.6556 106.707C97.1736 107.646 97.8675 108.379 98.7371 108.905C99.6252 109.412 100.624 109.666 101.734 109.666Z" stroke="#FE531E" stroke-width="2" mask="url(#path-3-outside-1_215_3949)"/>
<path d="M116.891 96C118.075 96 119.102 96.2348 119.971 96.7044C120.86 97.1552 121.544 97.8503 122.025 98.7895C122.525 99.7099 122.775 100.856 122.775 102.227V110.821H121.387V102.34C121.387 100.687 120.971 99.4282 120.138 98.5641C119.324 97.7 118.177 97.268 116.697 97.268C115.568 97.268 114.587 97.5028 113.755 97.9724C112.922 98.442 112.284 99.0994 111.84 99.9448C111.414 100.79 111.201 101.804 111.201 102.988V110.821H109.814V96.1127H111.146V100.198L110.952 99.7475C111.396 98.5829 112.127 97.6718 113.144 97.0144C114.162 96.3381 115.411 96 116.891 96Z" stroke="#FE531E" stroke-width="2" mask="url(#path-3-outside-1_215_3949)"/>
<path d="M131.041 116.4C129.727 116.4 128.478 116.193 127.294 115.78C126.11 115.367 125.148 114.794 124.408 114.061L125.157 112.991C125.879 113.667 126.739 114.193 127.738 114.569C128.756 114.944 129.847 115.132 131.013 115.132C132.956 115.132 134.38 114.672 135.287 113.751C136.212 112.831 136.675 111.385 136.675 109.412V105.327L136.952 103.129L136.73 100.931V96.1127H138.062V109.243C138.062 111.704 137.47 113.507 136.286 114.653C135.121 115.818 133.372 116.4 131.041 116.4ZM130.652 110.286C129.283 110.286 128.053 109.985 126.961 109.384C125.888 108.764 125.028 107.919 124.38 106.848C123.751 105.759 123.436 104.519 123.436 103.129C123.436 101.72 123.751 100.48 124.38 99.4094C125.028 98.3387 125.888 97.5028 126.961 96.9017C128.053 96.3006 129.283 96 130.652 96C131.966 96 133.141 96.2912 134.177 96.8735C135.232 97.437 136.064 98.2541 136.675 99.3249C137.285 100.377 137.591 101.645 137.591 103.129C137.591 104.594 137.285 105.862 136.675 106.933C136.064 108.003 135.232 108.83 134.177 109.412C133.141 109.994 131.966 110.286 130.652 110.286ZM130.763 109.018C131.929 109.018 132.956 108.773 133.844 108.285C134.732 107.778 135.426 107.083 135.925 106.2C136.443 105.298 136.702 104.275 136.702 103.129C136.702 101.964 136.443 100.94 135.925 100.057C135.426 99.1746 134.732 98.489 133.844 98.0006C132.956 97.5122 131.929 97.268 130.763 97.268C129.635 97.268 128.617 97.5122 127.71 98.0006C126.822 98.489 126.119 99.1746 125.601 100.057C125.102 100.94 124.852 101.964 124.852 103.129C124.852 104.275 125.102 105.298 125.601 106.2C126.119 107.083 126.822 107.778 127.71 108.285C128.617 108.773 129.635 109.018 130.763 109.018Z" stroke="#FE531E" stroke-width="2" mask="url(#path-3-outside-1_215_3949)"/>
<path d="M146.129 110.934C144.741 110.934 143.501 110.614 142.41 109.976C141.337 109.337 140.476 108.454 139.829 107.327C139.2 106.2 138.885 104.913 138.885 103.467C138.885 102.002 139.2 100.715 139.829 99.6066C140.476 98.4796 141.337 97.5967 142.41 96.958C143.501 96.3193 144.741 96 146.129 96C147.516 96 148.756 96.3193 149.848 96.958C150.939 97.5967 151.799 98.4796 152.429 99.6066C153.058 100.715 153.372 102.002 153.372 103.467C153.372 104.913 153.058 106.2 152.429 107.327C151.799 108.454 150.939 109.337 149.848 109.976C148.756 110.614 147.516 110.934 146.129 110.934ZM146.129 109.666C147.239 109.666 148.238 109.412 149.126 108.905C150.014 108.379 150.708 107.646 151.207 106.707C151.707 105.768 151.957 104.688 151.957 103.467C151.957 102.227 151.707 101.147 151.207 100.227C150.708 99.2873 150.014 98.5641 149.126 98.0569C148.238 97.5309 147.239 97.268 146.129 97.268C145.018 97.268 144.019 97.5309 143.131 98.0569C142.262 98.5641 141.568 99.2873 141.05 100.227C140.55 101.147 140.3 102.227 140.3 103.467C140.3 104.688 140.55 105.768 141.05 106.707C141.568 107.646 142.262 108.379 143.131 108.905C144.019 109.412 145.018 109.666 146.129 109.666Z" stroke="#FE531E" stroke-width="2" mask="url(#path-3-outside-1_215_3949)"/>
<path d="M159.87 110.934C158.482 110.934 157.242 110.614 156.151 109.976C155.078 109.337 154.217 108.454 153.57 107.327C152.941 106.2 152.626 104.913 152.626 103.467C152.626 102.002 152.941 100.715 153.57 99.6066C154.217 98.4796 155.078 97.5967 156.151 96.958C157.242 96.3193 158.482 96 159.87 96C161.257 96 162.497 96.3193 163.589 96.958C164.68 97.5967 165.541 98.4796 166.17 99.6066C166.799 100.715 167.113 102.002 167.113 103.467C167.113 104.913 166.799 106.2 166.17 107.327C165.541 108.454 164.68 109.337 163.589 109.976C162.497 110.614 161.257 110.934 159.87 110.934ZM159.87 109.666C160.98 109.666 161.979 109.412 162.867 108.905C163.755 108.379 164.449 107.646 164.948 106.707C165.448 105.768 165.698 104.688 165.698 103.467C165.698 102.227 165.448 101.147 164.948 100.227C164.449 99.2873 163.755 98.5641 162.867 98.0569C161.979 97.5309 160.98 97.268 159.87 97.268C158.76 97.268 157.76 97.5309 156.872 98.0569C156.003 98.5641 155.309 99.2873 154.791 100.227C154.291 101.147 154.041 102.227 154.041 103.467C154.041 104.688 154.291 105.768 154.791 106.707C155.309 107.646 156.003 108.379 156.872 108.905C157.76 109.412 158.76 109.666 159.87 109.666Z" stroke="#FE531E" stroke-width="2" mask="url(#path-3-outside-1_215_3949)"/>
<path d="M171.612 110.934C170.41 110.934 169.281 110.755 168.227 110.398C167.19 110.041 166.386 109.591 165.812 109.046L166.45 107.919C167.005 108.407 167.746 108.83 168.671 109.187C169.596 109.525 170.595 109.694 171.668 109.694C173.185 109.694 174.277 109.44 174.943 108.933C175.609 108.426 175.942 107.759 175.942 106.933C175.942 106.331 175.766 105.862 175.415 105.524C175.082 105.167 174.628 104.894 174.055 104.707C173.481 104.519 172.852 104.369 172.168 104.256C171.483 104.124 170.798 103.983 170.114 103.833C169.429 103.683 168.8 103.467 168.227 103.185C167.653 102.903 167.19 102.518 166.839 102.03C166.506 101.523 166.339 100.856 166.339 100.029C166.339 99.2779 166.543 98.6017 166.95 98.0006C167.357 97.3994 167.968 96.9204 168.782 96.5635C169.596 96.1878 170.613 96 171.834 96C172.741 96 173.648 96.1315 174.554 96.3945C175.479 96.6575 176.229 97.005 176.802 97.437L176.164 98.5641C175.553 98.0945 174.869 97.7564 174.11 97.5497C173.352 97.3431 172.584 97.2398 171.807 97.2398C170.401 97.2398 169.364 97.5028 168.698 98.0287C168.051 98.5547 167.727 99.2122 167.727 100.001C167.727 100.621 167.894 101.119 168.227 101.494C168.578 101.851 169.041 102.133 169.614 102.34C170.188 102.528 170.817 102.687 171.501 102.819C172.186 102.931 172.871 103.063 173.555 103.213C174.24 103.364 174.869 103.58 175.442 103.861C176.016 104.124 176.469 104.5 176.802 104.988C177.154 105.458 177.33 106.097 177.33 106.904C177.33 107.712 177.108 108.417 176.664 109.018C176.238 109.619 175.6 110.088 174.749 110.427C173.897 110.765 172.852 110.934 171.612 110.934Z" stroke="#FE531E" stroke-width="2" mask="url(#path-3-outside-1_215_3949)"/>
<path d="M183.617 110.934C182.155 110.934 180.86 110.614 179.731 109.976C178.621 109.337 177.742 108.454 177.095 107.327C176.466 106.2 176.151 104.913 176.151 103.467C176.151 102.002 176.447 100.715 177.039 99.6066C177.65 98.4796 178.482 97.5967 179.537 96.958C180.592 96.3193 181.776 96 183.089 96C184.403 96 185.578 96.3099 186.614 96.9298C187.669 97.5497 188.492 98.4232 189.084 99.5503C189.695 100.659 190 101.945 190 103.41C190 103.467 189.991 103.533 189.972 103.608C189.972 103.664 189.972 103.73 189.972 103.805H177.178V102.706H189.223L188.668 103.241C188.686 102.096 188.446 101.072 187.946 100.17C187.465 99.2497 186.808 98.5359 185.976 98.0287C185.143 97.5028 184.181 97.2398 183.089 97.2398C182.016 97.2398 181.054 97.5028 180.203 98.0287C179.371 98.5359 178.714 99.2497 178.233 100.17C177.752 101.072 177.511 102.105 177.511 103.27V103.523C177.511 104.725 177.77 105.796 178.288 106.735C178.825 107.656 179.556 108.379 180.481 108.905C181.406 109.412 182.46 109.666 183.645 109.666C184.57 109.666 185.43 109.497 186.226 109.159C187.04 108.82 187.724 108.304 188.279 107.609L189.084 108.539C188.455 109.328 187.659 109.929 186.697 110.342C185.754 110.736 184.727 110.934 183.617 110.934Z" stroke="#FE531E" stroke-width="2" mask="url(#path-3-outside-1_215_3949)"/>
<path d="M73.1024 217V199.656L65.6144 213H63.8544L56.3344 199.656V217H53.4544V194.28H56.4944L64.7184 209.032L72.9744 194.28H75.9824V217H73.1024ZM87.9899 217.32C86.7312 217.32 85.5899 217.096 84.5659 216.648C83.5419 216.179 82.6565 215.549 81.9099 214.76C81.1632 213.949 80.5872 213.021 80.1819 211.976C79.7765 210.931 79.5739 209.832 79.5739 208.68C79.5739 207.507 79.7765 206.397 80.1819 205.352C80.5872 204.307 81.1632 203.389 81.9099 202.6C82.6565 201.789 83.5419 201.16 84.5659 200.712C85.6112 200.243 86.7525 200.008 87.9899 200.008C89.2485 200.008 90.3899 200.243 91.4139 200.712C92.4379 201.16 93.3232 201.789 94.0699 202.6C94.8379 203.389 95.4245 204.307 95.8299 205.352C96.2352 206.397 96.4379 207.507 96.4379 208.68C96.4379 209.832 96.2352 210.931 95.8299 211.976C95.4245 213.021 94.8485 213.949 94.1019 214.76C93.3552 215.549 92.4592 216.179 91.4139 216.648C90.3899 217.096 89.2485 217.32 87.9899 217.32ZM82.4539 208.712C82.4539 209.864 82.6992 210.909 83.1899 211.848C83.7019 212.787 84.3739 213.533 85.2059 214.088C86.0379 214.621 86.9659 214.888 87.9899 214.888C89.0139 214.888 89.9419 214.611 90.7739 214.056C91.6272 213.501 92.2992 212.755 92.7899 211.816C93.3019 210.856 93.5579 209.8 93.5579 208.648C93.5579 207.496 93.3019 206.451 92.7899 205.512C92.2992 204.573 91.6272 203.827 90.7739 203.272C89.9419 202.717 89.0139 202.44 87.9899 202.44C86.9659 202.44 86.0379 202.728 85.2059 203.304C84.3739 203.859 83.7019 204.605 83.1899 205.544C82.6992 206.483 82.4539 207.539 82.4539 208.712ZM114.346 217H111.53V207.656C111.53 205.885 111.253 204.595 110.698 203.784C110.165 202.952 109.343 202.536 108.234 202.536C107.466 202.536 106.698 202.728 105.93 203.112C105.183 203.496 104.511 204.019 103.914 204.68C103.338 205.32 102.922 206.067 102.666 206.92V217H99.8501V200.296H102.41V203.88C102.858 203.091 103.434 202.408 104.138 201.832C104.842 201.256 105.642 200.808 106.538 200.488C107.434 200.168 108.373 200.008 109.354 200.008C110.314 200.008 111.114 200.189 111.754 200.552C112.415 200.893 112.927 201.384 113.29 202.024C113.674 202.643 113.941 203.379 114.09 204.232C114.261 205.085 114.346 206.013 114.346 207.016V217ZM125.381 217.192C124.25 217.192 123.205 216.968 122.245 216.52C121.306 216.051 120.496 215.421 119.813 214.632C119.13 213.821 118.597 212.904 118.213 211.88C117.85 210.856 117.669 209.789 117.669 208.68C117.669 207.507 117.85 206.397 118.213 205.352C118.597 204.307 119.13 203.389 119.813 202.6C120.517 201.789 121.338 201.16 122.277 200.712C123.216 200.243 124.261 200.008 125.413 200.008C126.8 200.008 128.005 200.349 129.029 201.032C130.074 201.715 130.949 202.579 131.653 203.624V200.296H134.149V216.808C134.149 218.387 133.765 219.72 132.997 220.808C132.25 221.896 131.226 222.717 129.925 223.272C128.645 223.848 127.216 224.136 125.637 224.136C123.76 224.136 122.224 223.805 121.029 223.144C119.834 222.483 118.842 221.587 118.053 220.456L119.685 219.016C120.346 219.997 121.2 220.733 122.245 221.224C123.312 221.715 124.442 221.96 125.637 221.96C126.661 221.96 127.6 221.768 128.453 221.384C129.328 221.021 130.021 220.456 130.533 219.688C131.066 218.92 131.333 217.96 131.333 216.808V213.864C130.714 214.888 129.861 215.699 128.773 216.296C127.706 216.893 126.576 217.192 125.381 217.192ZM126.245 214.888C126.842 214.888 127.418 214.781 127.973 214.568C128.528 214.355 129.04 214.077 129.509 213.736C129.978 213.373 130.373 212.968 130.693 212.52C131.013 212.072 131.226 211.613 131.333 211.144V206.344C131.034 205.576 130.608 204.904 130.053 204.328C129.498 203.731 128.869 203.272 128.165 202.952C127.461 202.611 126.736 202.44 125.989 202.44C125.136 202.44 124.368 202.621 123.685 202.984C123.024 203.347 122.458 203.837 121.989 204.456C121.52 205.053 121.157 205.725 120.901 206.472C120.645 207.219 120.517 207.976 120.517 208.744C120.517 209.576 120.666 210.365 120.965 211.112C121.264 211.837 121.669 212.488 122.181 213.064C122.693 213.64 123.301 214.088 124.005 214.408C124.709 214.728 125.456 214.888 126.245 214.888ZM145.99 217.32C144.731 217.32 143.59 217.096 142.566 216.648C141.542 216.179 140.657 215.549 139.91 214.76C139.163 213.949 138.587 213.021 138.182 211.976C137.777 210.931 137.574 209.832 137.574 208.68C137.574 207.507 137.777 206.397 138.182 205.352C138.587 204.307 139.163 203.389 139.91 202.6C140.657 201.789 141.542 201.16 142.566 200.712C143.611 200.243 144.753 200.008 145.99 200.008C147.249 200.008 148.39 200.243 149.414 200.712C150.438 201.16 151.323 201.789 152.07 202.6C152.838 203.389 153.425 204.307 153.83 205.352C154.235 206.397 154.438 207.507 154.438 208.68C154.438 209.832 154.235 210.931 153.83 211.976C153.425 213.021 152.849 213.949 152.102 214.76C151.355 215.549 150.459 216.179 149.414 216.648C148.39 217.096 147.249 217.32 145.99 217.32ZM140.454 208.712C140.454 209.864 140.699 210.909 141.19 211.848C141.702 212.787 142.374 213.533 143.206 214.088C144.038 214.621 144.966 214.888 145.99 214.888C147.014 214.888 147.942 214.611 148.774 214.056C149.627 213.501 150.299 212.755 150.79 211.816C151.302 210.856 151.558 209.8 151.558 208.648C151.558 207.496 151.302 206.451 150.79 205.512C150.299 204.573 149.627 203.827 148.774 203.272C147.942 202.717 147.014 202.44 145.99 202.44C144.966 202.44 144.038 202.728 143.206 203.304C142.374 203.859 141.702 204.605 141.19 205.544C140.699 206.483 140.454 207.539 140.454 208.712ZM165.146 217.32C163.887 217.32 162.746 217.096 161.722 216.648C160.698 216.179 159.813 215.549 159.066 214.76C158.319 213.949 157.743 213.021 157.338 211.976C156.933 210.931 156.73 209.832 156.73 208.68C156.73 207.507 156.933 206.397 157.338 205.352C157.743 204.307 158.319 203.389 159.066 202.6C159.813 201.789 160.698 201.16 161.722 200.712C162.767 200.243 163.909 200.008 165.146 200.008C166.405 200.008 167.546 200.243 168.57 200.712C169.594 201.16 170.479 201.789 171.226 202.6C171.994 203.389 172.581 204.307 172.986 205.352C173.391 206.397 173.594 207.507 173.594 208.68C173.594 209.832 173.391 210.931 172.986 211.976C172.581 213.021 172.005 213.949 171.258 214.76C170.511 215.549 169.615 216.179 168.57 216.648C167.546 217.096 166.405 217.32 165.146 217.32ZM159.61 208.712C159.61 209.864 159.855 210.909 160.346 211.848C160.858 212.787 161.53 213.533 162.362 214.088C163.194 214.621 164.122 214.888 165.146 214.888C166.17 214.888 167.098 214.611 167.93 214.056C168.783 213.501 169.455 212.755 169.946 211.816C170.458 210.856 170.714 209.8 170.714 208.648C170.714 207.496 170.458 206.451 169.946 205.512C169.455 204.573 168.783 203.827 167.93 203.272C167.098 202.717 166.17 202.44 165.146 202.44C164.122 202.44 163.194 202.728 162.362 203.304C161.53 203.859 160.858 204.605 160.346 205.544C159.855 206.483 159.61 207.539 159.61 208.712ZM182.734 217.32C181.348 217.32 180.046 217.096 178.83 216.648C177.614 216.179 176.569 215.485 175.694 214.568L176.782 212.584C177.742 213.48 178.702 214.12 179.662 214.504C180.622 214.888 181.604 215.08 182.606 215.08C183.758 215.08 184.697 214.867 185.422 214.44C186.148 213.992 186.51 213.341 186.51 212.488C186.51 211.869 186.318 211.411 185.934 211.112C185.572 210.813 185.049 210.568 184.366 210.376C183.684 210.163 182.873 209.928 181.934 209.672C180.782 209.331 179.812 208.968 179.022 208.584C178.233 208.2 177.636 207.72 177.23 207.144C176.825 206.568 176.622 205.843 176.622 204.968C176.622 203.901 176.9 203.005 177.454 202.28C178.009 201.533 178.766 200.968 179.726 200.584C180.708 200.2 181.817 200.008 183.054 200.008C184.292 200.008 185.412 200.2 186.414 200.584C187.417 200.968 188.281 201.533 189.006 202.28L187.726 204.232C187.065 203.549 186.34 203.048 185.55 202.728C184.761 202.387 183.876 202.216 182.894 202.216C182.318 202.216 181.753 202.291 181.198 202.44C180.644 202.568 180.185 202.813 179.822 203.176C179.46 203.517 179.278 204.008 179.278 204.648C179.278 205.181 179.417 205.608 179.694 205.928C179.993 206.227 180.42 206.483 180.974 206.696C181.55 206.909 182.244 207.144 183.054 207.4C184.313 207.763 185.401 208.125 186.318 208.488C187.257 208.851 187.982 209.32 188.494 209.896C189.006 210.472 189.262 211.272 189.262 212.296C189.262 213.875 188.665 215.112 187.47 216.008C186.276 216.883 184.697 217.32 182.734 217.32ZM200.023 217.32C198.765 217.32 197.613 217.096 196.567 216.648C195.543 216.179 194.647 215.549 193.879 214.76C193.133 213.949 192.546 213.021 192.119 211.976C191.714 210.931 191.511 209.821 191.511 208.648C191.511 207.069 191.874 205.629 192.599 204.328C193.325 203.027 194.327 201.981 195.607 201.192C196.909 200.403 198.391 200.008 200.055 200.008C201.741 200.008 203.202 200.413 204.439 201.224C205.698 202.013 206.669 203.059 207.351 204.36C208.055 205.64 208.407 207.027 208.407 208.52C208.407 208.733 208.397 208.947 208.375 209.16C208.375 209.352 208.365 209.501 208.343 209.608H194.487C194.573 210.696 194.871 211.667 195.383 212.52C195.917 213.352 196.599 214.013 197.431 214.504C198.263 214.973 199.159 215.208 200.119 215.208C201.143 215.208 202.103 214.952 202.999 214.44C203.917 213.928 204.546 213.256 204.887 212.424L207.319 213.096C206.957 213.907 206.413 214.632 205.687 215.272C204.983 215.912 204.141 216.413 203.159 216.776C202.199 217.139 201.154 217.32 200.023 217.32ZM194.391 207.656H205.783C205.698 206.568 205.389 205.608 204.855 204.776C204.322 203.944 203.639 203.293 202.807 202.824C201.975 202.355 201.058 202.12 200.055 202.12C199.074 202.12 198.167 202.355 197.335 202.824C196.503 203.293 195.821 203.944 195.287 204.776C194.775 205.608 194.477 206.568 194.391 207.656Z" fill="#25333A"/>
<defs>
<filter id="filter0_bd_215_3949" x="0" y="-4" width="260" height="288" filterUnits="userSpaceOnUse" color-interpolation-filters="sRGB">
<feFlood flood-opacity="0" result="BackgroundImageFix"/>
<feGaussianBlur in="BackgroundImageFix" stdDeviation="10"/>
<feComposite in2="SourceAlpha" operator="in" result="effect1_backgroundBlur_215_3949"/>
<feColorMatrix in="SourceAlpha" type="matrix" values="0 0 0 0 0 0 0 0 0 0 0 0 0 0 0 0 0 0 127 0" result="hardAlpha"/>
<feOffset dy="4"/>
<feGaussianBlur stdDeviation="10"/>
<feComposite in2="hardAlpha" operator="out"/>
<feColorMatrix type="matrix" values="0 0 0 0 0.0470588 0 0 0 0 0.0901961 0 0 0 0 0.0862745 0 0 0 0.06 0"/>
<feBlend mode="normal" in2="effect1_backgroundBlur_215_3949" result="effect2_dropShadow_215_3949"/>
<feBlend mode="normal" in="SourceGraphic" in2="effect2_dropShadow_215_3949" result="shape"/>
</filter>
</defs>
</svg>
