<svg width="260" height="284" viewBox="0 0 260 284" fill="none" xmlns="http://www.w3.org/2000/svg">
<g filter="url(#filter0_bd_215_3946)">
<rect x="20" y="16" width="220" height="244" rx="10" fill="white" fill-opacity="0.5" shape-rendering="crispEdges"/>
<rect x="20.5" y="16.5" width="219" height="243" rx="9.5" stroke="white" shape-rendering="crispEdges"/>
</g>
<g clip-path="url(#clip0_215_3946)">
<g filter="url(#filter1_b_215_3946)">
<path d="M129.926 48.1925L132.261 52.5772L132.271 52.5962L132.283 52.6143C133.02 53.7506 133.822 54.7612 134.768 55.7037L134.77 55.7052C137.447 58.3488 139.942 61.1703 142.238 64.1504C147.62 71.2169 151.256 79.0714 153.856 87.5844C155.41 92.7685 156.254 98.0838 156.317 103.457L156.317 103.459C156.577 119.535 151.072 133.325 139.961 144.798C138.201 146.569 135.889 148.506 133.846 149.994C133.498 149.966 133.25 149.841 133.044 149.664C132.79 149.447 132.585 149.138 132.358 148.75C131.557 147.352 130.912 145.466 130.673 143.87L130.671 143.858L130.669 143.845C130.289 141.955 130.372 140.557 130.499 138.531L130.5 138.516V138.5V137V136.89L130.494 136.877C130.493 136.836 130.491 136.781 130.49 136.712C130.486 136.538 130.481 136.281 130.475 135.947C130.465 135.278 130.452 134.301 130.437 133.061C130.407 130.58 130.37 127.047 130.329 122.81C130.248 114.337 130.151 103.053 130.07 91.7601C129.989 80.4673 129.923 69.1668 129.901 60.6611C129.89 56.408 129.891 52.8549 129.906 50.3512C129.911 49.5069 129.918 48.7831 129.926 48.1925Z" stroke="#FE531E"/>
<path d="M128.479 50.0818L128.486 50.0722L128.492 50.0623C128.94 49.3633 129.456 48.5074 129.754 47.5935C129.782 47.6606 129.809 47.7259 129.835 47.788L129.845 47.8126L129.851 47.8282C129.906 47.9605 129.959 48.0877 130 48.1827V57.5V69L130 92L130 92.0054L130.5 137.965L129.006 147.923C129.006 147.924 129.006 147.924 129.006 147.925C128.89 148.667 128.485 150.01 128.214 150.89C128.102 150.856 127.959 150.82 127.797 150.803C125.826 149.269 123.926 147.677 122.15 145.967C114.747 138.694 109.046 130.329 105.873 120.359C105.303 118.513 104.637 114.327 104.155 110.1C103.672 105.868 103.385 101.702 103.543 99.8986L103.543 99.8986L103.544 99.8894C104.252 89.6271 106.749 79.8921 111.585 70.8134C115.225 64.0593 119.764 58.0321 125.522 53.0465L125.524 53.0449C125.64 52.9438 125.756 52.8426 125.873 52.7411C126.794 51.9426 127.742 51.1199 128.479 50.0818Z" stroke="#FE531E"/>
<path d="M129.155 147.919C129.574 145.861 129.894 143.784 130.114 141.696C130.316 143.298 130.609 144.91 131.132 146.479L131.133 146.482C131.398 147.262 131.738 148.013 132.148 148.727L132.153 148.736L132.159 148.745C132.546 149.357 133.044 149.959 133.702 150.37C133.039 151.456 132.433 152.63 132.288 154.019L132.277 154.1C132.256 154.262 132.232 154.429 132.207 154.6C132.089 155.422 131.957 156.338 132.01 157.255V163.255V163.278L132.012 163.3L132.201 165.38C131.989 165.267 131.78 165.188 131.585 165.125C131.465 165.086 131.343 165.051 131.232 165.019C131.206 165.011 131.181 165.004 131.156 164.997C131.023 164.958 130.905 164.922 130.793 164.881C130.576 164.794 130.374 164.721 130.223 164.667C130.152 164.642 130.093 164.62 130.049 164.604C129.966 164.572 129.922 164.551 129.901 164.54C129.896 164.518 129.89 164.479 129.885 164.412C129.875 164.272 129.875 164.086 129.875 163.805C129.876 163.738 129.876 163.664 129.876 163.585V162.273V162.259L129.875 162.245C129.676 158.644 129.351 155.058 128.151 151.526C128.131 151.463 128.123 151.416 128.118 151.377C128.118 151.375 128.118 151.373 128.118 151.371C128.765 150.36 128.942 149.25 129.103 148.244C129.12 148.134 129.137 148.026 129.155 147.919Z" stroke="#FE531E"/>
</g>
</g>
<path d="M77.8993 217V199.656L70.4113 213H68.6513L61.1313 199.656V217H58.2513V194.28H61.2913L69.5153 209.032L77.7713 194.28H80.7793V217H77.8993ZM92.7868 217.32C91.5281 217.32 90.3868 217.096 89.3628 216.648C88.3388 216.179 87.4534 215.549 86.7068 214.76C85.9601 213.949 85.3841 213.021 84.9788 211.976C84.5734 210.931 84.3708 209.832 84.3708 208.68C84.3708 207.507 84.5734 206.397 84.9788 205.352C85.3841 204.307 85.9601 203.389 86.7068 202.6C87.4534 201.789 88.3388 201.16 89.3628 200.712C90.4081 200.243 91.5494 200.008 92.7868 200.008C94.0454 200.008 95.1868 200.243 96.2108 200.712C97.2348 201.16 98.1201 201.789 98.8668 202.6C99.6348 203.389 100.221 204.307 100.627 205.352C101.032 206.397 101.235 207.507 101.235 208.68C101.235 209.832 101.032 210.931 100.627 211.976C100.221 213.021 99.6454 213.949 98.8988 214.76C98.1521 215.549 97.2561 216.179 96.2108 216.648C95.1868 217.096 94.0454 217.32 92.7868 217.32ZM87.2508 208.712C87.2508 209.864 87.4961 210.909 87.9868 211.848C88.4988 212.787 89.1708 213.533 90.0028 214.088C90.8348 214.621 91.7628 214.888 92.7868 214.888C93.8108 214.888 94.7388 214.611 95.5708 214.056C96.4241 213.501 97.0961 212.755 97.5868 211.816C98.0988 210.856 98.3548 209.8 98.3548 208.648C98.3548 207.496 98.0988 206.451 97.5868 205.512C97.0961 204.573 96.4241 203.827 95.5708 203.272C94.7388 202.717 93.8108 202.44 92.7868 202.44C91.7628 202.44 90.8348 202.728 90.0028 203.304C89.1708 203.859 88.4988 204.605 87.9868 205.544C87.4961 206.483 87.2508 207.539 87.2508 208.712ZM119.143 217H116.327V207.656C116.327 205.885 116.05 204.595 115.495 203.784C114.962 202.952 114.14 202.536 113.031 202.536C112.263 202.536 111.495 202.728 110.727 203.112C109.98 203.496 109.308 204.019 108.711 204.68C108.135 205.32 107.719 206.067 107.463 206.92V217H104.647V200.296H107.207V203.88C107.655 203.091 108.231 202.408 108.935 201.832C109.639 201.256 110.439 200.808 111.335 200.488C112.231 200.168 113.17 200.008 114.151 200.008C115.111 200.008 115.911 200.189 116.551 200.552C117.212 200.893 117.724 201.384 118.087 202.024C118.471 202.643 118.738 203.379 118.887 204.232C119.058 205.085 119.143 206.013 119.143 207.016V217ZM130.178 217.192C129.047 217.192 128.002 216.968 127.042 216.52C126.103 216.051 125.293 215.421 124.61 214.632C123.927 213.821 123.394 212.904 123.01 211.88C122.647 210.856 122.466 209.789 122.466 208.68C122.466 207.507 122.647 206.397 123.01 205.352C123.394 204.307 123.927 203.389 124.61 202.6C125.314 201.789 126.135 201.16 127.074 200.712C128.013 200.243 129.058 200.008 130.21 200.008C131.597 200.008 132.802 200.349 133.826 201.032C134.871 201.715 135.746 202.579 136.45 203.624V200.296H138.946V216.808C138.946 218.387 138.562 219.72 137.794 220.808C137.047 221.896 136.023 222.717 134.722 223.272C133.442 223.848 132.013 224.136 130.434 224.136C128.557 224.136 127.021 223.805 125.826 223.144C124.631 222.483 123.639 221.587 122.85 220.456L124.482 219.016C125.143 219.997 125.997 220.733 127.042 221.224C128.109 221.715 129.239 221.96 130.434 221.96C131.458 221.96 132.397 221.768 133.25 221.384C134.125 221.021 134.818 220.456 135.33 219.688C135.863 218.92 136.13 217.96 136.13 216.808V213.864C135.511 214.888 134.658 215.699 133.57 216.296C132.503 216.893 131.373 217.192 130.178 217.192ZM131.042 214.888C131.639 214.888 132.215 214.781 132.77 214.568C133.325 214.355 133.837 214.077 134.306 213.736C134.775 213.373 135.17 212.968 135.49 212.52C135.81 212.072 136.023 211.613 136.13 211.144V206.344C135.831 205.576 135.405 204.904 134.85 204.328C134.295 203.731 133.666 203.272 132.962 202.952C132.258 202.611 131.533 202.44 130.786 202.44C129.933 202.44 129.165 202.621 128.482 202.984C127.821 203.347 127.255 203.837 126.786 204.456C126.317 205.053 125.954 205.725 125.698 206.472C125.442 207.219 125.314 207.976 125.314 208.744C125.314 209.576 125.463 210.365 125.762 211.112C126.061 211.837 126.466 212.488 126.978 213.064C127.49 213.64 128.098 214.088 128.802 214.408C129.506 214.728 130.253 214.888 131.042 214.888ZM150.787 217.32C149.528 217.32 148.387 217.096 147.363 216.648C146.339 216.179 145.453 215.549 144.707 214.76C143.96 213.949 143.384 213.021 142.979 211.976C142.573 210.931 142.371 209.832 142.371 208.68C142.371 207.507 142.573 206.397 142.979 205.352C143.384 204.307 143.96 203.389 144.707 202.6C145.453 201.789 146.339 201.16 147.363 200.712C148.408 200.243 149.549 200.008 150.787 200.008C152.045 200.008 153.187 200.243 154.211 200.712C155.235 201.16 156.12 201.789 156.867 202.6C157.635 203.389 158.221 204.307 158.627 205.352C159.032 206.397 159.235 207.507 159.235 208.68C159.235 209.832 159.032 210.931 158.627 211.976C158.221 213.021 157.645 213.949 156.899 214.76C156.152 215.549 155.256 216.179 154.211 216.648C153.187 217.096 152.045 217.32 150.787 217.32ZM145.251 208.712C145.251 209.864 145.496 210.909 145.987 211.848C146.499 212.787 147.171 213.533 148.003 214.088C148.835 214.621 149.763 214.888 150.787 214.888C151.811 214.888 152.739 214.611 153.571 214.056C154.424 213.501 155.096 212.755 155.587 211.816C156.099 210.856 156.355 209.8 156.355 208.648C156.355 207.496 156.099 206.451 155.587 205.512C155.096 204.573 154.424 203.827 153.571 203.272C152.739 202.717 151.811 202.44 150.787 202.44C149.763 202.44 148.835 202.728 148.003 203.304C147.171 203.859 146.499 204.605 145.987 205.544C145.496 206.483 145.251 207.539 145.251 208.712ZM162.814 217V194.28H170.686C173.118 194.28 175.144 194.792 176.766 195.816C178.408 196.819 179.635 198.184 180.446 199.912C181.256 201.619 181.662 203.517 181.662 205.608C181.662 207.912 181.214 209.917 180.318 211.624C179.422 213.331 178.152 214.653 176.51 215.592C174.867 216.531 172.926 217 170.686 217H162.814ZM178.75 205.608C178.75 203.901 178.43 202.387 177.79 201.064C177.171 199.741 176.264 198.707 175.07 197.96C173.875 197.213 172.414 196.84 170.686 196.84H165.694V214.44H170.686C172.435 214.44 173.907 214.056 175.102 213.288C176.296 212.499 177.203 211.443 177.822 210.12C178.44 208.776 178.75 207.272 178.75 205.608ZM203.16 211.144C203.16 212.317 202.861 213.341 202.264 214.216C201.667 215.091 200.856 215.773 199.832 216.264C198.829 216.755 197.72 217 196.504 217H185.72V194.28H197.016C198.083 194.28 199 194.568 199.768 195.144C200.557 195.699 201.155 196.424 201.56 197.32C201.987 198.195 202.2 199.112 202.2 200.072C202.2 201.181 201.912 202.227 201.336 203.208C200.781 204.168 199.981 204.883 198.936 205.352C200.237 205.736 201.261 206.451 202.008 207.496C202.776 208.52 203.16 209.736 203.16 211.144ZM200.248 210.632C200.248 209.928 200.088 209.277 199.768 208.68C199.469 208.083 199.053 207.603 198.52 207.24C198.008 206.877 197.411 206.696 196.728 206.696H188.6V214.504H196.504C197.208 214.504 197.837 214.323 198.392 213.96C198.968 213.597 199.416 213.128 199.736 212.552C200.077 211.955 200.248 211.315 200.248 210.632ZM188.6 196.776V204.36H195.832C196.515 204.36 197.112 204.189 197.624 203.848C198.157 203.507 198.573 203.048 198.872 202.472C199.192 201.896 199.352 201.267 199.352 200.584C199.352 199.859 199.203 199.219 198.904 198.664C198.627 198.088 198.232 197.629 197.72 197.288C197.229 196.947 196.664 196.776 196.024 196.776H188.6Z" fill="#25333A"/>
<defs>
<filter id="filter0_bd_215_3946" x="0" y="-4" width="260" height="288" filterUnits="userSpaceOnUse" color-interpolation-filters="sRGB">
<feFlood flood-opacity="0" result="BackgroundImageFix"/>
<feGaussianBlur in="BackgroundImageFix" stdDeviation="10"/>
<feComposite in2="SourceAlpha" operator="in" result="effect1_backgroundBlur_215_3946"/>
<feColorMatrix in="SourceAlpha" type="matrix" values="0 0 0 0 0 0 0 0 0 0 0 0 0 0 0 0 0 0 127 0" result="hardAlpha"/>
<feOffset dy="4"/>
<feGaussianBlur stdDeviation="10"/>
<feComposite in2="hardAlpha" operator="out"/>
<feColorMatrix type="matrix" values="0 0 0 0 0.0470588 0 0 0 0 0.0901961 0 0 0 0 0.0862745 0 0 0 0.06 0"/>
<feBlend mode="normal" in2="effect1_backgroundBlur_215_3946" result="effect2_dropShadow_215_3946"/>
<feBlend mode="normal" in="SourceGraphic" in2="effect2_dropShadow_215_3946" result="shape"/>
</filter>
<filter id="filter1_b_215_3946" x="83" y="25.9939" width="93.8257" height="160.006" filterUnits="userSpaceOnUse" color-interpolation-filters="sRGB">
<feFlood flood-opacity="0" result="BackgroundImageFix"/>
<feGaussianBlur in="BackgroundImageFix" stdDeviation="10"/>
<feComposite in2="SourceAlpha" operator="in" result="effect1_backgroundBlur_215_3946"/>
<feBlend mode="normal" in="SourceGraphic" in2="effect1_backgroundBlur_215_3946" result="shape"/>
</filter>
<clipPath id="clip0_215_3946">
<rect width="120" height="120" fill="white" transform="translate(70 46)"/>
</clipPath>
</defs>
</svg>
