<svg width="260" height="284" viewBox="0 0 260 284" fill="none" xmlns="http://www.w3.org/2000/svg">
<g filter="url(#filter0_bd_215_3944)">
<rect x="20" y="16" width="220" height="244" rx="10" fill="white" fill-opacity="0.5" shape-rendering="crispEdges"/>
<rect x="20.5" y="16.5" width="219" height="243" rx="9.5" stroke="white" shape-rendering="crispEdges"/>
</g>
<g clip-path="url(#clip0_215_3944)">
<path d="M124.828 47.7157L124.83 47.7143C127.656 46.0986 131.346 46.092 134.166 47.7137L134.17 47.7156C140.372 51.2167 146.574 54.7154 152.777 58.2139C161.547 63.1608 170.316 68.1075 179.084 73.0607L179.085 73.0611C181.747 74.5596 183.527 77.5247 183.5 80.5763V80.5807L183.5 131.426L183.5 131.429C183.519 134.603 181.566 137.643 178.75 139.111L178.743 139.115L178.736 139.119C170.887 143.539 163.039 147.964 155.192 152.387C148.122 156.373 141.052 160.359 133.981 164.342L133.979 164.344C131.104 165.986 127.345 165.861 124.554 164.08L124.545 164.075L124.535 164.069C122.101 162.659 119.663 161.252 117.225 159.846C115.185 158.669 113.146 157.492 111.109 156.314C110.912 156.196 110.709 156.084 110.514 155.975C110.475 155.954 110.437 155.933 110.4 155.912C110.165 155.781 109.941 155.654 109.728 155.519C109.432 155.331 109.167 155.133 108.942 154.905C109.11 154.778 109.314 154.678 109.555 154.587C109.739 154.518 109.93 154.459 110.138 154.395L110.186 154.381C110.4 154.315 110.631 154.242 110.855 154.153C112.649 153.58 114.302 152.688 115.9 151.826C116.007 151.768 116.114 151.71 116.221 151.653L116.244 151.64L116.266 151.625C116.464 151.49 116.76 151.503 117.094 151.716L117.104 151.723L117.114 151.729C118.741 152.66 120.368 153.607 121.996 154.555C124.183 155.828 126.372 157.103 128.57 158.345C129.153 158.681 129.731 158.608 130.21 158.431C130.551 158.306 130.897 158.102 131.175 157.939C131.26 157.889 131.339 157.843 131.409 157.804L131.412 157.802C138.391 153.861 145.377 149.926 152.364 145.991C160.026 141.675 167.688 137.359 175.342 133.035C176.07 132.677 176.457 131.913 176.407 131.145C176.414 120.476 176.413 109.805 176.413 99.1346C176.412 93.0437 176.412 86.953 176.413 80.8629C176.483 79.9801 175.973 79.1859 175.202 78.8271C166.906 74.1597 158.613 69.4885 150.32 64.8173C143.76 61.1223 137.2 57.4274 130.639 53.7343C130.303 53.5089 129.907 53.3881 129.501 53.3875C129.095 53.3869 128.699 53.5067 128.362 53.7314C121.773 57.4411 115.186 61.1536 108.6 64.8659C100.335 69.5243 92.0702 74.1825 83.8027 78.8346C83.0468 79.1877 82.5041 79.9659 82.5875 80.8662C82.5892 92.0397 82.5886 103.214 82.588 114.389C82.5877 119.974 82.5874 125.559 82.5874 131.145C82.5581 131.528 82.6446 131.912 82.836 132.246L83.2699 131.998L82.836 132.246C83.0282 132.582 83.3169 132.851 83.6643 133.02C86.2856 134.505 88.9096 135.983 91.5331 137.462C92.8757 138.218 94.2182 138.974 95.5602 139.732L95.5601 139.732L95.5691 139.736C97.8614 140.969 100.766 141.754 103.425 140.761C105.798 139.909 107.453 137.502 107.41 134.985C107.42 127.043 107.418 119.104 107.416 111.165C107.414 102.433 107.412 93.7006 107.425 84.9656L107.425 84.9469L107.424 84.9282C107.395 84.5309 107.799 84.1372 108.246 84.1804L108.272 84.1828L108.297 84.1827C110.205 84.1698 112.108 84.1571 114.007 84.1877L114.017 84.1879L114.027 84.1877C114.443 84.1783 114.833 84.6284 114.765 85.1473L114.76 85.1798L114.76 85.2125C114.758 91.3955 114.76 97.5781 114.762 103.76C114.765 114.358 114.769 124.956 114.748 135.553V135.555C114.753 139.922 112.955 144.568 109.041 146.638C104.115 149.187 97.9831 148.66 93.052 146.183L93.0507 146.182C90.3429 144.832 87.7289 143.34 85.1005 141.839C83.4989 140.925 81.8919 140.007 80.2552 139.117L80.2552 139.117L80.246 139.112C77.4254 137.654 75.4806 134.603 75.5004 131.429V131.426L75.5004 80.5807L75.5003 80.576C75.4709 77.4609 77.3212 74.4416 80.067 72.9649L80.0671 72.965L80.0758 72.9601C91.3231 66.6188 102.569 60.2739 113.815 53.9292C117.486 51.858 121.157 49.7868 124.828 47.7157Z" stroke="#FE531E"/>
<path d="M124.877 88.1836C128.501 84.8708 133.772 83.5624 138.882 83.0909L138.887 83.0907C146.004 82.6747 153.52 82.8549 159.809 85.981L159.81 85.9819C164.568 88.3228 167.23 93.235 167.337 98.0591C167.293 98.2065 167.18 98.3442 166.991 98.4523C166.78 98.5728 166.507 98.6349 166.244 98.6177L166.228 98.6167L166.212 98.6166C165.554 98.6158 164.898 98.6181 164.243 98.6203C162.831 98.6252 161.425 98.6301 160.015 98.604L160.002 98.6037L159.989 98.6042C159.469 98.6223 159.093 98.193 159.003 97.6185L159 97.5968L158.994 97.5755C158.376 95.0827 156.865 92.5545 154.201 91.3152L154.197 91.3134C150.38 89.5779 145.989 89.6179 141.959 89.6546C141.836 89.6557 141.712 89.6569 141.59 89.6579L141.58 89.658L141.57 89.6585C138.552 89.804 135.155 90.0396 132.455 91.7405C130.25 93.1123 129.609 95.8539 130.379 98.0346L130.387 98.0569L130.397 98.0784C130.797 98.9428 131.535 99.4843 132.313 99.8579C133.017 100.196 133.808 100.42 134.495 100.616C134.561 100.634 134.627 100.653 134.691 100.671L134.702 100.675L134.713 100.677C138.497 101.576 142.379 102.042 146.227 102.505C146.782 102.572 147.336 102.638 147.889 102.706C152.291 103.246 156.632 103.862 160.796 105.189L160.799 105.189C164.232 106.267 167.457 108.323 168.573 111.419C170.082 115.717 169.407 120.82 166.08 124.229L166.078 124.231C163.354 127.063 159.356 128.632 155.295 129.491C149.901 130.583 144.29 130.613 138.778 130.126C133.593 129.589 128.291 128.357 124.383 125.226L124.38 125.223C121.078 122.62 119.456 118.556 119.615 114.622C119.625 114.465 119.718 114.302 119.906 114.17C120.097 114.037 120.353 113.963 120.599 113.982L120.62 113.984L120.642 113.984C122.723 113.969 124.802 113.963 126.88 113.986L126.899 113.987L126.918 113.985C127.449 113.951 127.85 114.366 127.878 114.827L127.88 114.854L127.884 114.88C128.278 117.222 129.264 119.792 131.637 121.257L131.637 121.258L131.647 121.263C135.646 123.606 140.565 123.654 145.04 123.697C145.459 123.701 145.874 123.705 146.284 123.711L146.297 123.711L146.311 123.711C146.519 123.702 146.728 123.694 146.94 123.686C148.756 123.616 150.689 123.542 152.548 123.237C154.629 122.897 156.661 122.263 158.387 120.993L158.394 120.988L158.402 120.982C160.314 119.462 160.852 116.947 160.351 114.823L160.347 114.808L160.343 114.793C160.042 113.801 159.327 113.103 158.517 112.6C157.709 112.097 156.764 111.76 155.929 111.503L155.929 111.503L155.919 111.5C151.829 110.325 147.577 109.915 143.38 109.51C143.172 109.49 142.965 109.47 142.757 109.45C138.341 109.021 133.993 108.557 129.854 107.199L129.851 107.198C126.5 106.123 123.373 104.122 122.145 101.142C120.386 96.8087 121.204 91.4748 124.874 88.1869L124.874 88.1869L124.877 88.1836Z" stroke="#FE531E"/>
</g>
<path d="M73.2094 199.592V217H70.3294V194.28H72.7614L86.6494 212.04V194.312H89.5294V217H86.9054L73.2094 199.592ZM101.521 217.32C100.262 217.32 99.1211 217.096 98.0971 216.648C97.0731 216.179 96.1878 215.549 95.4411 214.76C94.6945 213.949 94.1185 213.021 93.7131 211.976C93.3078 210.931 93.1051 209.832 93.1051 208.68C93.1051 207.507 93.3078 206.397 93.7131 205.352C94.1185 204.307 94.6945 203.389 95.4411 202.6C96.1878 201.789 97.0731 201.16 98.0971 200.712C99.1425 200.243 100.284 200.008 101.521 200.008C102.78 200.008 103.921 200.243 104.945 200.712C105.969 201.16 106.854 201.789 107.601 202.6C108.369 203.389 108.956 204.307 109.361 205.352C109.766 206.397 109.969 207.507 109.969 208.68C109.969 209.832 109.766 210.931 109.361 211.976C108.956 213.021 108.38 213.949 107.633 214.76C106.886 215.549 105.99 216.179 104.945 216.648C103.921 217.096 102.78 217.32 101.521 217.32ZM95.9851 208.712C95.9851 209.864 96.2305 210.909 96.7211 211.848C97.2331 212.787 97.9051 213.533 98.7371 214.088C99.5691 214.621 100.497 214.888 101.521 214.888C102.545 214.888 103.473 214.611 104.305 214.056C105.158 213.501 105.83 212.755 106.321 211.816C106.833 210.856 107.089 209.8 107.089 208.648C107.089 207.496 106.833 206.451 106.321 205.512C105.83 204.573 105.158 203.827 104.305 203.272C103.473 202.717 102.545 202.44 101.521 202.44C100.497 202.44 99.5691 202.728 98.7371 203.304C97.9051 203.859 97.2331 204.605 96.7211 205.544C96.2305 206.483 95.9851 207.539 95.9851 208.712ZM112.293 208.68C112.293 207.101 112.613 205.661 113.253 204.36C113.915 203.037 114.811 201.981 115.941 201.192C117.093 200.403 118.405 200.008 119.877 200.008C121.221 200.008 122.427 200.36 123.493 201.064C124.56 201.768 125.392 202.621 125.989 203.624V193.64H128.805V213.8C128.805 214.141 128.869 214.397 128.997 214.568C129.147 214.717 129.381 214.803 129.701 214.824V217C129.168 217.085 128.752 217.128 128.453 217.128C127.899 217.128 127.408 216.936 126.981 216.552C126.576 216.168 126.373 215.741 126.373 215.272V213.864C125.712 214.931 124.827 215.773 123.717 216.392C122.608 217.011 121.456 217.32 120.261 217.32C119.109 217.32 118.043 217.096 117.061 216.648C116.101 216.179 115.259 215.539 114.533 214.728C113.829 213.917 113.275 213 112.869 211.976C112.485 210.931 112.293 209.832 112.293 208.68ZM125.989 211.144V206.344C125.733 205.619 125.317 204.968 124.741 204.392C124.165 203.795 123.515 203.325 122.789 202.984C122.085 202.621 121.381 202.44 120.677 202.44C119.845 202.44 119.088 202.621 118.405 202.984C117.744 203.325 117.168 203.795 116.677 204.392C116.208 204.968 115.845 205.629 115.589 206.376C115.333 207.123 115.205 207.901 115.205 208.712C115.205 209.544 115.344 210.333 115.621 211.08C115.92 211.827 116.325 212.488 116.837 213.064C117.371 213.64 117.979 214.088 118.661 214.408C119.365 214.728 120.123 214.888 120.933 214.888C121.445 214.888 121.968 214.792 122.501 214.6C123.056 214.408 123.579 214.141 124.069 213.8C124.56 213.459 124.976 213.064 125.317 212.616C125.659 212.147 125.883 211.656 125.989 211.144ZM140.898 217.32C139.64 217.32 138.488 217.096 137.442 216.648C136.418 216.179 135.522 215.549 134.754 214.76C134.008 213.949 133.421 213.021 132.994 211.976C132.589 210.931 132.386 209.821 132.386 208.648C132.386 207.069 132.749 205.629 133.474 204.328C134.2 203.027 135.202 201.981 136.482 201.192C137.784 200.403 139.266 200.008 140.93 200.008C142.616 200.008 144.077 200.413 145.314 201.224C146.573 202.013 147.544 203.059 148.226 204.36C148.93 205.64 149.282 207.027 149.282 208.52C149.282 208.733 149.272 208.947 149.25 209.16C149.25 209.352 149.24 209.501 149.218 209.608H135.362C135.448 210.696 135.746 211.667 136.258 212.52C136.792 213.352 137.474 214.013 138.306 214.504C139.138 214.973 140.034 215.208 140.994 215.208C142.018 215.208 142.978 214.952 143.874 214.44C144.792 213.928 145.421 213.256 145.762 212.424L148.194 213.096C147.832 213.907 147.288 214.632 146.562 215.272C145.858 215.912 145.016 216.413 144.034 216.776C143.074 217.139 142.029 217.32 140.898 217.32ZM135.266 207.656H146.658C146.573 206.568 146.264 205.608 145.73 204.776C145.197 203.944 144.514 203.293 143.682 202.824C142.85 202.355 141.933 202.12 140.93 202.12C139.949 202.12 139.042 202.355 138.21 202.824C137.378 203.293 136.696 203.944 136.162 204.776C135.65 205.608 135.352 206.568 135.266 207.656ZM158.479 213.608C158.885 213.885 159.439 214.152 160.143 214.408C160.869 214.643 161.722 214.76 162.703 214.76C163.706 214.76 164.527 214.6 165.167 214.28C165.807 213.939 166.298 213.437 166.639 212.776C166.981 212.093 167.215 211.229 167.343 210.184C167.471 209.139 167.535 207.901 167.535 206.472V194.28H170.415V205.832C170.415 207.517 170.33 209.064 170.159 210.472C169.989 211.88 169.647 213.107 169.135 214.152C168.623 215.176 167.855 215.965 166.831 216.52C165.829 217.075 164.485 217.352 162.799 217.352C161.733 217.352 160.794 217.235 159.983 217C159.173 216.765 158.426 216.413 157.743 215.944L158.479 213.608ZM188.955 199.048C188.699 198.749 188.357 198.461 187.931 198.184C187.504 197.907 187.024 197.661 186.491 197.448C185.957 197.213 185.371 197.032 184.731 196.904C184.112 196.755 183.461 196.68 182.779 196.68C181.029 196.68 179.739 197.011 178.907 197.672C178.075 198.333 177.659 199.24 177.659 200.392C177.659 201.203 177.872 201.843 178.299 202.312C178.725 202.781 179.376 203.165 180.251 203.464C181.147 203.763 182.277 204.072 183.643 204.392C185.221 204.733 186.587 205.149 187.739 205.64C188.891 206.131 189.776 206.792 190.395 207.624C191.013 208.435 191.323 209.523 191.323 210.888C191.323 211.976 191.109 212.925 190.683 213.736C190.277 214.525 189.701 215.187 188.955 215.72C188.208 216.232 187.333 216.616 186.331 216.872C185.328 217.107 184.24 217.224 183.067 217.224C181.915 217.224 180.784 217.107 179.675 216.872C178.587 216.616 177.552 216.253 176.571 215.784C175.589 215.315 174.672 214.728 173.819 214.024L175.195 211.592C175.536 211.955 175.973 212.317 176.507 212.68C177.061 213.021 177.68 213.341 178.363 213.64C179.067 213.939 179.824 214.184 180.635 214.376C181.445 214.547 182.277 214.632 183.131 214.632C184.752 214.632 186.011 214.344 186.907 213.768C187.803 213.171 188.251 212.307 188.251 211.176C188.251 210.323 187.995 209.64 187.483 209.128C186.992 208.616 186.256 208.189 185.275 207.848C184.293 207.507 183.099 207.165 181.691 206.824C180.155 206.44 178.864 206.024 177.819 205.576C176.773 205.107 175.984 204.499 175.451 203.752C174.939 203.005 174.683 202.035 174.683 200.84C174.683 199.389 175.035 198.163 175.739 197.16C176.443 196.157 177.413 195.4 178.651 194.888C179.888 194.376 181.285 194.12 182.843 194.12C183.867 194.12 184.816 194.227 185.691 194.44C186.587 194.653 187.419 194.952 188.187 195.336C188.955 195.72 189.659 196.179 190.299 196.712L188.955 199.048Z" fill="#25333A"/>
<defs>
<filter id="filter0_bd_215_3944" x="0" y="-4" width="260" height="288" filterUnits="userSpaceOnUse" color-interpolation-filters="sRGB">
<feFlood flood-opacity="0" result="BackgroundImageFix"/>
<feGaussianBlur in="BackgroundImageFix" stdDeviation="10"/>
<feComposite in2="SourceAlpha" operator="in" result="effect1_backgroundBlur_215_3944"/>
<feColorMatrix in="SourceAlpha" type="matrix" values="0 0 0 0 0 0 0 0 0 0 0 0 0 0 0 0 0 0 127 0" result="hardAlpha"/>
<feOffset dy="4"/>
<feGaussianBlur stdDeviation="10"/>
<feComposite in2="hardAlpha" operator="out"/>
<feColorMatrix type="matrix" values="0 0 0 0 0.0470588 0 0 0 0 0.0901961 0 0 0 0 0.0862745 0 0 0 0.06 0"/>
<feBlend mode="normal" in2="effect1_backgroundBlur_215_3944" result="effect2_dropShadow_215_3944"/>
<feBlend mode="normal" in="SourceGraphic" in2="effect2_dropShadow_215_3944" result="shape"/>
</filter>
<clipPath id="clip0_215_3944">
<rect width="120" height="120" fill="white" transform="translate(70 46)"/>
</clipPath>
</defs>
</svg>
