<svg width="260" height="284" viewBox="0 0 260 284" fill="none" xmlns="http://www.w3.org/2000/svg">
<g filter="url(#filter0_bd_215_3948)">
<rect x="20" y="16" width="220" height="244" rx="10" fill="white" fill-opacity="0.5" shape-rendering="crispEdges"/>
<rect x="20.5" y="16.5" width="219" height="243" rx="9.5" stroke="white" shape-rendering="crispEdges"/>
</g>
<mask id="path-3-outside-1_215_3948" maskUnits="userSpaceOnUse" x="68" y="60" width="123" height="92" fill="black">
<rect fill="white" x="68" y="60" width="123" height="92"/>
<path d="M173.293 112.647C169.097 112.67 165.465 113.678 162.418 115.178C161.293 112.952 160.168 111.006 159.98 109.553C159.77 107.866 159.512 106.834 159.77 104.819C160.027 102.803 161.199 99.9436 161.199 99.7092C161.175 99.4983 160.941 98.467 158.527 98.4436C156.113 98.4202 154.027 98.9124 153.793 99.5452C153.558 100.178 153.09 101.631 152.785 103.131C152.363 105.334 147.957 113.139 145.449 117.24C144.629 115.647 143.926 114.24 143.785 113.115C143.574 111.428 143.316 110.396 143.574 108.381C143.832 106.365 145.004 103.506 145.004 103.272C144.98 103.061 144.746 102.03 142.332 102.006C139.918 101.983 137.832 102.475 137.598 103.108C137.363 103.74 137.105 105.24 136.59 106.694C136.097 108.147 130.238 121.178 128.715 124.576C127.941 126.311 127.262 127.694 126.769 128.631C126.277 129.569 126.746 128.701 126.699 128.795C126.277 129.592 126.043 130.037 126.043 130.037V130.061C125.715 130.647 125.363 131.209 125.199 131.209C125.082 131.209 124.847 129.639 125.246 127.483C126.113 122.959 128.222 115.905 128.199 115.647C128.199 115.53 128.597 114.287 126.839 113.655C125.128 113.022 124.519 114.077 124.378 114.077C124.238 114.077 124.121 114.452 124.121 114.452C124.121 114.452 126.019 106.507 120.488 106.507C117.019 106.507 112.238 110.28 109.871 113.725C108.371 114.546 105.183 116.28 101.808 118.132C100.519 118.835 99.1831 119.585 97.9175 120.264L97.6599 119.983C90.9568 112.834 78.5584 107.772 79.074 98.1624C79.2615 94.6702 80.4802 85.4592 102.887 74.303C121.238 65.1624 135.934 67.6702 138.488 73.2483C142.121 81.217 130.636 96.0295 111.559 98.1624C104.293 98.9827 100.472 96.1702 99.5117 95.1155C98.5039 94.0139 98.3633 93.967 97.9883 94.178C97.3789 94.5061 97.7539 95.4905 97.9883 96.0764C98.5508 97.553 100.895 100.178 104.879 101.49C108.371 102.639 116.902 103.272 127.215 99.2874C138.77 94.8108 147.793 82.3889 145.145 72.0061C142.449 61.4358 124.918 57.967 108.348 63.8499C98.4802 67.3655 87.7927 72.8499 80.1052 80.0452C70.9646 88.5764 69.5115 96.0295 70.1209 99.1233C72.2539 110.162 87.4646 117.358 93.5584 122.678C93.2537 122.842 92.9724 123.006 92.7146 123.147C89.6677 124.646 78.0662 130.717 75.1599 137.139C71.8787 144.404 75.6755 149.631 78.2068 150.334C86.0349 152.514 94.0505 148.6 98.3865 142.155C102.699 135.709 102.183 127.342 100.191 123.522L100.121 123.381L102.511 121.975C104.058 121.061 105.582 120.217 106.917 119.49C106.168 121.529 105.628 123.943 105.347 127.459C105.019 131.584 106.707 136.928 108.933 139.037C109.918 139.951 111.09 139.975 111.816 139.975C114.394 139.975 115.566 137.842 116.855 135.287C118.449 132.17 119.855 128.561 119.855 128.561C119.855 128.561 118.097 138.334 122.902 138.334C124.66 138.334 126.418 136.061 127.215 134.889V134.912C127.215 134.912 127.261 134.842 127.355 134.678C127.454 134.532 127.547 134.384 127.636 134.233V134.186C128.34 132.967 129.91 130.178 132.254 125.561C135.277 119.608 138.183 112.155 138.183 112.155C138.183 112.155 138.465 113.983 139.332 116.983C139.847 118.764 140.972 120.709 141.839 122.608C141.136 123.592 140.714 124.155 140.714 124.155L140.738 124.178C140.176 124.928 139.542 125.725 138.886 126.522C136.496 129.381 133.636 132.639 133.261 133.577C132.816 134.678 132.91 135.499 133.777 136.155C134.41 136.624 135.535 136.717 136.73 136.624C138.886 136.483 140.386 135.944 141.136 135.616C142.308 135.194 143.644 134.561 144.933 133.624C147.277 131.889 148.707 129.428 148.566 126.147C148.496 124.343 147.91 122.561 147.183 120.874C147.394 120.569 147.605 120.264 147.816 119.936C151.519 114.522 154.379 108.569 154.379 108.569C154.379 108.569 154.66 110.397 155.527 113.397C155.972 114.921 156.863 116.585 157.66 118.226C154.191 121.061 152.011 124.343 151.261 126.499C149.879 130.483 150.957 132.288 152.996 132.71C153.91 132.897 155.222 132.476 156.207 132.054C157.425 131.655 158.902 130.975 160.261 129.968C162.605 128.233 164.855 125.819 164.738 122.562C164.668 121.062 164.269 119.585 163.73 118.179C166.683 116.96 170.503 116.257 175.355 116.843C185.785 118.061 187.847 124.577 187.449 127.296C187.051 130.015 184.871 131.515 184.144 131.983C183.418 132.429 183.183 132.593 183.254 132.921C183.347 133.413 183.676 133.39 184.308 133.296C185.176 133.155 189.793 131.07 189.98 126.054C190.261 119.608 184.144 112.577 173.293 112.647ZM92.8552 139.764C89.4099 143.537 84.5584 144.967 82.4959 143.748C80.2693 142.459 81.1362 136.905 85.3787 132.897C87.9568 130.459 91.3084 128.209 93.5115 126.826C94.0037 126.522 94.7537 126.077 95.6443 125.537C95.7849 125.444 95.8787 125.397 95.8787 125.397C96.0427 125.303 96.2302 125.186 96.4177 125.069C97.988 130.787 96.488 135.803 92.8552 139.764ZM118.051 122.631C116.855 125.561 114.324 133.084 112.801 132.662C111.488 132.311 110.691 126.615 112.542 120.99C113.48 118.154 115.472 114.78 116.644 113.467C118.543 111.357 120.605 110.654 121.121 111.521C121.73 112.647 118.801 120.803 118.051 122.631ZM138.84 132.569C138.324 132.827 137.855 133.014 137.644 132.874C137.48 132.78 137.855 132.428 137.855 132.428C137.855 132.428 140.457 129.639 141.488 128.35C142.074 127.6 142.777 126.733 143.527 125.749V126.03C143.527 129.405 140.293 131.655 138.84 132.569ZM154.871 128.912C154.496 128.631 154.543 127.764 155.808 125.045C156.301 123.967 157.425 122.162 159.371 120.451C159.605 121.155 159.746 121.834 159.722 122.467C159.699 126.686 156.699 128.256 154.871 128.912Z"/>
</mask>
<path d="M173.293 112.647C169.097 112.67 165.465 113.678 162.418 115.178C161.293 112.952 160.168 111.006 159.98 109.553C159.77 107.866 159.512 106.834 159.77 104.819C160.027 102.803 161.199 99.9436 161.199 99.7092C161.175 99.4983 160.941 98.467 158.527 98.4436C156.113 98.4202 154.027 98.9124 153.793 99.5452C153.558 100.178 153.09 101.631 152.785 103.131C152.363 105.334 147.957 113.139 145.449 117.24C144.629 115.647 143.926 114.24 143.785 113.115C143.574 111.428 143.316 110.396 143.574 108.381C143.832 106.365 145.004 103.506 145.004 103.272C144.98 103.061 144.746 102.03 142.332 102.006C139.918 101.983 137.832 102.475 137.598 103.108C137.363 103.74 137.105 105.24 136.59 106.694C136.097 108.147 130.238 121.178 128.715 124.576C127.941 126.311 127.262 127.694 126.769 128.631C126.277 129.569 126.746 128.701 126.699 128.795C126.277 129.592 126.043 130.037 126.043 130.037V130.061C125.715 130.647 125.363 131.209 125.199 131.209C125.082 131.209 124.847 129.639 125.246 127.483C126.113 122.959 128.222 115.905 128.199 115.647C128.199 115.53 128.597 114.287 126.839 113.655C125.128 113.022 124.519 114.077 124.378 114.077C124.238 114.077 124.121 114.452 124.121 114.452C124.121 114.452 126.019 106.507 120.488 106.507C117.019 106.507 112.238 110.28 109.871 113.725C108.371 114.546 105.183 116.28 101.808 118.132C100.519 118.835 99.1831 119.585 97.9175 120.264L97.6599 119.983C90.9568 112.834 78.5584 107.772 79.074 98.1624C79.2615 94.6702 80.4802 85.4592 102.887 74.303C121.238 65.1624 135.934 67.6702 138.488 73.2483C142.121 81.217 130.636 96.0295 111.559 98.1624C104.293 98.9827 100.472 96.1702 99.5117 95.1155C98.5039 94.0139 98.3633 93.967 97.9883 94.178C97.3789 94.5061 97.7539 95.4905 97.9883 96.0764C98.5508 97.553 100.895 100.178 104.879 101.49C108.371 102.639 116.902 103.272 127.215 99.2874C138.77 94.8108 147.793 82.3889 145.145 72.0061C142.449 61.4358 124.918 57.967 108.348 63.8499C98.4802 67.3655 87.7927 72.8499 80.1052 80.0452C70.9646 88.5764 69.5115 96.0295 70.1209 99.1233C72.2539 110.162 87.4646 117.358 93.5584 122.678C93.2537 122.842 92.9724 123.006 92.7146 123.147C89.6677 124.646 78.0662 130.717 75.1599 137.139C71.8787 144.404 75.6755 149.631 78.2068 150.334C86.0349 152.514 94.0505 148.6 98.3865 142.155C102.699 135.709 102.183 127.342 100.191 123.522L100.121 123.381L102.511 121.975C104.058 121.061 105.582 120.217 106.917 119.49C106.168 121.529 105.628 123.943 105.347 127.459C105.019 131.584 106.707 136.928 108.933 139.037C109.918 139.951 111.09 139.975 111.816 139.975C114.394 139.975 115.566 137.842 116.855 135.287C118.449 132.17 119.855 128.561 119.855 128.561C119.855 128.561 118.097 138.334 122.902 138.334C124.66 138.334 126.418 136.061 127.215 134.889V134.912C127.215 134.912 127.261 134.842 127.355 134.678C127.454 134.532 127.547 134.384 127.636 134.233V134.186C128.34 132.967 129.91 130.178 132.254 125.561C135.277 119.608 138.183 112.155 138.183 112.155C138.183 112.155 138.465 113.983 139.332 116.983C139.847 118.764 140.972 120.709 141.839 122.608C141.136 123.592 140.714 124.155 140.714 124.155L140.738 124.178C140.176 124.928 139.542 125.725 138.886 126.522C136.496 129.381 133.636 132.639 133.261 133.577C132.816 134.678 132.91 135.499 133.777 136.155C134.41 136.624 135.535 136.717 136.73 136.624C138.886 136.483 140.386 135.944 141.136 135.616C142.308 135.194 143.644 134.561 144.933 133.624C147.277 131.889 148.707 129.428 148.566 126.147C148.496 124.343 147.91 122.561 147.183 120.874C147.394 120.569 147.605 120.264 147.816 119.936C151.519 114.522 154.379 108.569 154.379 108.569C154.379 108.569 154.66 110.397 155.527 113.397C155.972 114.921 156.863 116.585 157.66 118.226C154.191 121.061 152.011 124.343 151.261 126.499C149.879 130.483 150.957 132.288 152.996 132.71C153.91 132.897 155.222 132.476 156.207 132.054C157.425 131.655 158.902 130.975 160.261 129.968C162.605 128.233 164.855 125.819 164.738 122.562C164.668 121.062 164.269 119.585 163.73 118.179C166.683 116.96 170.503 116.257 175.355 116.843C185.785 118.061 187.847 124.577 187.449 127.296C187.051 130.015 184.871 131.515 184.144 131.983C183.418 132.429 183.183 132.593 183.254 132.921C183.347 133.413 183.676 133.39 184.308 133.296C185.176 133.155 189.793 131.07 189.98 126.054C190.261 119.608 184.144 112.577 173.293 112.647ZM92.8552 139.764C89.4099 143.537 84.5584 144.967 82.4959 143.748C80.2693 142.459 81.1362 136.905 85.3787 132.897C87.9568 130.459 91.3084 128.209 93.5115 126.826C94.0037 126.522 94.7537 126.077 95.6443 125.537C95.7849 125.444 95.8787 125.397 95.8787 125.397C96.0427 125.303 96.2302 125.186 96.4177 125.069C97.988 130.787 96.488 135.803 92.8552 139.764ZM118.051 122.631C116.855 125.561 114.324 133.084 112.801 132.662C111.488 132.311 110.691 126.615 112.542 120.99C113.48 118.154 115.472 114.78 116.644 113.467C118.543 111.357 120.605 110.654 121.121 111.521C121.73 112.647 118.801 120.803 118.051 122.631ZM138.84 132.569C138.324 132.827 137.855 133.014 137.644 132.874C137.48 132.78 137.855 132.428 137.855 132.428C137.855 132.428 140.457 129.639 141.488 128.35C142.074 127.6 142.777 126.733 143.527 125.749V126.03C143.527 129.405 140.293 131.655 138.84 132.569ZM154.871 128.912C154.496 128.631 154.543 127.764 155.808 125.045C156.301 123.967 157.425 122.162 159.371 120.451C159.605 121.155 159.746 121.834 159.722 122.467C159.699 126.686 156.699 128.256 154.871 128.912Z" stroke="#FE531E" stroke-width="2" mask="url(#path-3-outside-1_215_3948)"/>
<path d="M105.908 199.048C105.652 198.749 105.31 198.461 104.884 198.184C104.457 197.907 103.977 197.661 103.444 197.448C102.91 197.213 102.324 197.032 101.684 196.904C101.065 196.755 100.414 196.68 99.7318 196.68C97.9824 196.68 96.6918 197.011 95.8598 197.672C95.0278 198.333 94.6118 199.24 94.6118 200.392C94.6118 201.203 94.8251 201.843 95.2518 202.312C95.6784 202.781 96.3291 203.165 97.2038 203.464C98.0998 203.763 99.2304 204.072 100.596 204.392C102.174 204.733 103.54 205.149 104.692 205.64C105.844 206.131 106.729 206.792 107.348 207.624C107.966 208.435 108.276 209.523 108.276 210.888C108.276 211.976 108.062 212.925 107.636 213.736C107.23 214.525 106.654 215.187 105.908 215.72C105.161 216.232 104.286 216.616 103.284 216.872C102.281 217.107 101.193 217.224 100.02 217.224C98.8678 217.224 97.7371 217.107 96.6278 216.872C95.5398 216.616 94.5051 216.253 93.5238 215.784C92.5424 215.315 91.6251 214.728 90.7718 214.024L92.1478 211.592C92.4891 211.955 92.9264 212.317 93.4598 212.68C94.0144 213.021 94.6331 213.341 95.3158 213.64C96.0198 213.939 96.7771 214.184 97.5878 214.376C98.3984 214.547 99.2304 214.632 100.084 214.632C101.705 214.632 102.964 214.344 103.86 213.768C104.756 213.171 105.204 212.307 105.204 211.176C105.204 210.323 104.948 209.64 104.436 209.128C103.945 208.616 103.209 208.189 102.228 207.848C101.246 207.507 100.052 207.165 98.6438 206.824C97.1078 206.44 95.8171 206.024 94.7718 205.576C93.7264 205.107 92.9371 204.499 92.4038 203.752C91.8918 203.005 91.6358 202.035 91.6358 200.84C91.6358 199.389 91.9878 198.163 92.6918 197.16C93.3958 196.157 94.3664 195.4 95.6038 194.888C96.8411 194.376 98.2384 194.12 99.7958 194.12C100.82 194.12 101.769 194.227 102.644 194.44C103.54 194.653 104.372 194.952 105.14 195.336C105.908 195.72 106.612 196.179 107.252 196.712L105.908 199.048ZM110.592 205.48C110.592 204.093 110.826 202.739 111.296 201.416C111.786 200.072 112.49 198.856 113.408 197.768C114.346 196.659 115.488 195.784 116.832 195.144C118.176 194.483 119.701 194.152 121.408 194.152C123.434 194.152 125.173 194.621 126.624 195.56C128.074 196.477 129.152 197.661 129.856 199.112L127.584 200.584C127.136 199.624 126.56 198.867 125.856 198.312C125.173 197.736 124.426 197.331 123.616 197.096C122.826 196.861 122.048 196.744 121.28 196.744C120.021 196.744 118.901 197 117.92 197.512C116.96 198.024 116.149 198.707 115.488 199.56C114.826 200.413 114.325 201.373 113.984 202.44C113.664 203.485 113.504 204.541 113.504 205.608C113.504 206.781 113.696 207.912 114.08 209C114.485 210.088 115.04 211.048 115.744 211.88C116.448 212.712 117.28 213.373 118.24 213.864C119.2 214.355 120.245 214.6 121.376 214.6C122.165 214.6 122.976 214.461 123.808 214.184C124.64 213.907 125.418 213.48 126.144 212.904C126.869 212.307 127.445 211.539 127.872 210.6L130.272 211.912C129.802 213.043 129.077 214.003 128.096 214.792C127.114 215.581 126.016 216.179 124.8 216.584C123.605 216.989 122.421 217.192 121.248 217.192C119.69 217.192 118.261 216.861 116.96 216.2C115.658 215.517 114.528 214.621 113.568 213.512C112.629 212.381 111.893 211.123 111.36 209.736C110.848 208.328 110.592 206.909 110.592 205.48ZM147.22 199.048C146.964 198.749 146.623 198.461 146.196 198.184C145.77 197.907 145.29 197.661 144.756 197.448C144.223 197.213 143.636 197.032 142.996 196.904C142.378 196.755 141.727 196.68 141.044 196.68C139.295 196.68 138.004 197.011 137.172 197.672C136.34 198.333 135.924 199.24 135.924 200.392C135.924 201.203 136.138 201.843 136.564 202.312C136.991 202.781 137.642 203.165 138.516 203.464C139.412 203.763 140.543 204.072 141.908 204.392C143.487 204.733 144.852 205.149 146.004 205.64C147.156 206.131 148.042 206.792 148.66 207.624C149.279 208.435 149.588 209.523 149.588 210.888C149.588 211.976 149.375 212.925 148.948 213.736C148.543 214.525 147.967 215.187 147.22 215.72C146.474 216.232 145.599 216.616 144.596 216.872C143.594 217.107 142.506 217.224 141.332 217.224C140.18 217.224 139.05 217.107 137.94 216.872C136.852 216.616 135.818 216.253 134.836 215.784C133.855 215.315 132.938 214.728 132.084 214.024L133.46 211.592C133.802 211.955 134.239 212.317 134.772 212.68C135.327 213.021 135.946 213.341 136.628 213.64C137.332 213.939 138.09 214.184 138.9 214.376C139.711 214.547 140.543 214.632 141.396 214.632C143.018 214.632 144.276 214.344 145.172 213.768C146.068 213.171 146.516 212.307 146.516 211.176C146.516 210.323 146.26 209.64 145.748 209.128C145.258 208.616 144.522 208.189 143.54 207.848C142.559 207.507 141.364 207.165 139.956 206.824C138.42 206.44 137.13 206.024 136.084 205.576C135.039 205.107 134.25 204.499 133.716 203.752C133.204 203.005 132.948 202.035 132.948 200.84C132.948 199.389 133.3 198.163 134.004 197.16C134.708 196.157 135.679 195.4 136.916 194.888C138.154 194.376 139.551 194.12 141.108 194.12C142.132 194.12 143.082 194.227 143.956 194.44C144.852 194.653 145.684 194.952 146.452 195.336C147.22 195.72 147.924 196.179 148.564 196.712L147.22 199.048ZM166.72 199.048C166.464 198.749 166.123 198.461 165.696 198.184C165.27 197.907 164.79 197.661 164.256 197.448C163.723 197.213 163.136 197.032 162.496 196.904C161.878 196.755 161.227 196.68 160.544 196.68C158.795 196.68 157.504 197.011 156.672 197.672C155.84 198.333 155.424 199.24 155.424 200.392C155.424 201.203 155.638 201.843 156.064 202.312C156.491 202.781 157.142 203.165 158.016 203.464C158.912 203.763 160.043 204.072 161.408 204.392C162.987 204.733 164.352 205.149 165.504 205.64C166.656 206.131 167.542 206.792 168.16 207.624C168.779 208.435 169.088 209.523 169.088 210.888C169.088 211.976 168.875 212.925 168.448 213.736C168.043 214.525 167.467 215.187 166.72 215.72C165.974 216.232 165.099 216.616 164.096 216.872C163.094 217.107 162.006 217.224 160.832 217.224C159.68 217.224 158.55 217.107 157.44 216.872C156.352 216.616 155.318 216.253 154.336 215.784C153.355 215.315 152.438 214.728 151.584 214.024L152.96 211.592C153.302 211.955 153.739 212.317 154.272 212.68C154.827 213.021 155.446 213.341 156.128 213.64C156.832 213.939 157.59 214.184 158.4 214.376C159.211 214.547 160.043 214.632 160.896 214.632C162.518 214.632 163.776 214.344 164.672 213.768C165.568 213.171 166.016 212.307 166.016 211.176C166.016 210.323 165.76 209.64 165.248 209.128C164.758 208.616 164.022 208.189 163.04 207.848C162.059 207.507 160.864 207.165 159.456 206.824C157.92 206.44 156.63 206.024 155.584 205.576C154.539 205.107 153.75 204.499 153.216 203.752C152.704 203.005 152.448 202.035 152.448 200.84C152.448 199.389 152.8 198.163 153.504 197.16C154.208 196.157 155.179 195.4 156.416 194.888C157.654 194.376 159.051 194.12 160.608 194.12C161.632 194.12 162.582 194.227 163.456 194.44C164.352 194.653 165.184 194.952 165.952 195.336C166.72 195.72 167.424 196.179 168.064 196.712L166.72 199.048Z" fill="#25333A"/>
<defs>
<filter id="filter0_bd_215_3948" x="0" y="-4" width="260" height="288" filterUnits="userSpaceOnUse" color-interpolation-filters="sRGB">
<feFlood flood-opacity="0" result="BackgroundImageFix"/>
<feGaussianBlur in="BackgroundImageFix" stdDeviation="10"/>
<feComposite in2="SourceAlpha" operator="in" result="effect1_backgroundBlur_215_3948"/>
<feColorMatrix in="SourceAlpha" type="matrix" values="0 0 0 0 0 0 0 0 0 0 0 0 0 0 0 0 0 0 127 0" result="hardAlpha"/>
<feOffset dy="4"/>
<feGaussianBlur stdDeviation="10"/>
<feComposite in2="hardAlpha" operator="out"/>
<feColorMatrix type="matrix" values="0 0 0 0 0.0470588 0 0 0 0 0.0901961 0 0 0 0 0.0862745 0 0 0 0.06 0"/>
<feBlend mode="normal" in2="effect1_backgroundBlur_215_3948" result="effect2_dropShadow_215_3948"/>
<feBlend mode="normal" in="SourceGraphic" in2="effect2_dropShadow_215_3948" result="shape"/>
</filter>
</defs>
</svg>
