<svg width="260" height="284" viewBox="0 0 260 284" fill="none" xmlns="http://www.w3.org/2000/svg">
<g filter="url(#filter0_bd_215_3943)">
<rect x="20" y="16" width="220" height="244" rx="10" fill="white" fill-opacity="0.5" shape-rendering="crispEdges"/>
<rect x="20.5" y="16.5" width="219" height="243" rx="9.5" stroke="white" shape-rendering="crispEdges"/>
</g>
<g clip-path="url(#clip0_215_3943)">
<mask id="path-3-inside-1_215_3943" fill="white">
<path d="M70 106V50C70 47.7909 71.7909 46 74 46H186C188.209 46 190 47.7909 190 50V162C190 164.209 188.209 166 186 166H70"/>
</mask>
<path d="M71 106V50H69V106H71ZM74 47H186V45H74V47ZM189 50V162H191V50H189ZM186 165H70V167H186V165ZM189 162C189 163.657 187.657 165 186 165V167C188.761 167 191 164.761 191 162H189ZM186 47C187.657 47 189 48.3431 189 50H191C191 47.2386 188.761 45 186 45V47ZM71 50C71 48.3431 72.3431 47 74 47V45C71.2386 45 69 47.2386 69 50H71Z" fill="#FE531E" mask="url(#path-3-inside-1_215_3943)"/>
<path d="M138.08 106.3V110.6H122.98H122.48V111.1V155H112.41V111.1V110.6H111.91H96.8101V106.904L96.9001 106.934V106.24V101.818L117.4 101.73C117.4 101.73 117.401 101.73 117.401 101.73C123.175 101.73 128.439 101.737 132.259 101.756C134.169 101.766 135.717 101.778 136.786 101.793C137.322 101.801 137.734 101.809 138.012 101.819C138.019 101.819 138.025 101.819 138.032 101.819C138.047 102.062 138.058 102.409 138.065 102.843C138.08 103.731 138.08 104.948 138.08 106.3ZM161.914 101.13C163.216 101.174 164.496 101.284 165.47 101.443L165.432 101.481L166.306 101.687C169.267 102.384 171.522 103.712 173.556 105.833C174.099 106.42 174.777 107.231 175.334 107.961C175.613 108.326 175.857 108.666 176.036 108.943C176.099 109.04 176.152 109.127 176.196 109.203C176.06 109.307 175.875 109.444 175.648 109.607C175.118 109.988 174.375 110.501 173.531 111.072C171.933 112.153 169.984 113.431 168.45 114.387C168.442 114.378 168.433 114.369 168.424 114.359C168.256 114.175 168.034 113.879 167.806 113.508L167.798 113.495L167.789 113.482C166.983 112.336 166.148 111.483 165.165 110.896C164.18 110.307 163.08 110.006 161.776 109.911L161.773 109.911C159.883 109.785 158.25 110.215 157.079 111.148C155.898 112.088 155.24 113.499 155.24 115.21C155.24 116.264 155.446 116.876 155.826 117.699L155.826 117.7L155.831 117.71C156.734 119.55 158.42 120.601 163.039 122.628L163.043 122.629C171.622 126.319 175.21 128.701 177.37 132.041L177.372 132.044C179.828 135.8 180.39 141.751 178.732 146.203C176.891 151.004 172.392 154.308 165.828 155.397L165.826 155.397C164.822 155.569 163.133 155.645 161.397 155.626C159.664 155.608 157.935 155.496 156.849 155.308C152.138 154.424 147.654 152.069 144.919 149.073L144.917 149.07C144.39 148.5 143.597 147.424 142.944 146.45C142.619 145.966 142.337 145.518 142.145 145.183C142.105 145.114 142.07 145.052 142.041 144.996L142.829 144.498L147.321 141.892L147.322 141.892L150.326 140.138L150.828 140.814C151.353 141.636 152.181 142.576 153.03 143.395C153.883 144.217 154.796 144.956 155.496 145.347L155.504 145.351L155.511 145.354C157.546 146.403 159.915 146.853 162.111 146.741C164.3 146.628 166.374 145.952 167.776 144.68L167.778 144.678C168.99 143.565 169.53 142.352 169.53 140.71C169.53 139.996 169.476 139.439 169.318 138.912C169.159 138.384 168.905 137.918 168.548 137.375L168.541 137.365L168.534 137.356C167.995 136.615 167.207 135.973 165.905 135.222C164.605 134.472 162.753 133.593 160.053 132.393L160.053 132.393L160.046 132.39C153.864 129.762 151.296 128.115 148.907 125.61C147.556 124.114 146.304 121.76 145.722 119.816C145.512 119 145.364 117.55 145.324 116.07C145.283 114.579 145.353 113.144 145.546 112.359L145.547 112.352L145.549 112.345C146.793 106.561 151.151 102.498 157.451 101.332L157.451 101.332L157.458 101.33C158.449 101.132 160.164 101.07 161.914 101.13Z" stroke="#FE531E"/>
</g>
<path d="M70.8071 196.84H62.9671V217H60.0871V196.84H52.2471V194.28H70.8071V196.84ZM71.7744 221.544C72.0517 221.565 72.329 221.587 72.6064 221.608C72.8837 221.651 73.097 221.672 73.2464 221.672C73.5877 221.672 73.8864 221.555 74.1424 221.32C74.3984 221.085 74.6757 220.627 74.9744 219.944C75.2944 219.283 75.6997 218.301 76.1904 217L69.1184 200.296H72.0944L77.7264 214.152L82.8144 200.296H85.5984L77.4704 221.384C77.2784 221.875 76.9904 222.333 76.6064 222.76C76.2437 223.208 75.7744 223.56 75.1984 223.816C74.6224 224.072 73.929 224.2 73.1184 224.2C72.9264 224.2 72.7237 224.189 72.5104 224.168C72.3184 224.147 72.073 224.104 71.7744 224.04V221.544ZM97.4359 217.32C96.0705 217.32 94.8545 216.979 93.7879 216.296C92.7212 215.613 91.8785 214.749 91.2599 213.704V223.816H88.4439V200.296H90.9399V203.432C91.6012 202.408 92.4652 201.587 93.5319 200.968C94.5985 200.328 95.7612 200.008 97.0199 200.008C98.1719 200.008 99.2279 200.243 100.188 200.712C101.148 201.181 101.98 201.821 102.684 202.632C103.388 203.443 103.932 204.371 104.316 205.416C104.721 206.44 104.924 207.517 104.924 208.648C104.924 210.227 104.604 211.677 103.964 213C103.345 214.323 102.471 215.379 101.34 216.168C100.209 216.936 98.9079 217.32 97.4359 217.32ZM96.5719 214.888C97.4039 214.888 98.1505 214.717 98.8119 214.376C99.4945 214.013 100.071 213.544 100.54 212.968C101.031 212.371 101.404 211.699 101.66 210.952C101.916 210.205 102.044 209.437 102.044 208.648C102.044 207.816 101.895 207.027 101.596 206.28C101.319 205.533 100.913 204.872 100.38 204.296C99.8679 203.72 99.2599 203.272 98.5559 202.952C97.8732 202.611 97.1265 202.44 96.3159 202.44C95.8039 202.44 95.2705 202.536 94.7159 202.728C94.1825 202.92 93.6705 203.197 93.1799 203.56C92.6892 203.901 92.2732 204.296 91.9319 204.744C91.5905 205.192 91.3665 205.672 91.2599 206.184V210.952C91.5799 211.677 92.0065 212.339 92.5399 212.936C93.0732 213.533 93.6919 214.013 94.3959 214.376C95.0999 214.717 95.8252 214.888 96.5719 214.888ZM115.773 217.32C114.515 217.32 113.363 217.096 112.317 216.648C111.293 216.179 110.397 215.549 109.629 214.76C108.883 213.949 108.296 213.021 107.869 211.976C107.464 210.931 107.261 209.821 107.261 208.648C107.261 207.069 107.624 205.629 108.349 204.328C109.075 203.027 110.077 201.981 111.357 201.192C112.659 200.403 114.141 200.008 115.805 200.008C117.491 200.008 118.952 200.413 120.189 201.224C121.448 202.013 122.419 203.059 123.101 204.36C123.805 205.64 124.157 207.027 124.157 208.52C124.157 208.733 124.147 208.947 124.125 209.16C124.125 209.352 124.115 209.501 124.093 209.608H110.237C110.323 210.696 110.621 211.667 111.133 212.52C111.667 213.352 112.349 214.013 113.181 214.504C114.013 214.973 114.909 215.208 115.869 215.208C116.893 215.208 117.853 214.952 118.749 214.44C119.667 213.928 120.296 213.256 120.637 212.424L123.069 213.096C122.707 213.907 122.163 214.632 121.437 215.272C120.733 215.912 119.891 216.413 118.909 216.776C117.949 217.139 116.904 217.32 115.773 217.32ZM110.141 207.656H121.533C121.448 206.568 121.139 205.608 120.605 204.776C120.072 203.944 119.389 203.293 118.557 202.824C117.725 202.355 116.808 202.12 115.805 202.12C114.824 202.12 113.917 202.355 113.085 202.824C112.253 203.293 111.571 203.944 111.037 204.776C110.525 205.608 110.227 206.568 110.141 207.656ZM133.016 217.32C131.629 217.32 130.328 217.096 129.112 216.648C127.896 216.179 126.85 215.485 125.976 214.568L127.064 212.584C128.024 213.48 128.984 214.12 129.944 214.504C130.904 214.888 131.885 215.08 132.888 215.08C134.04 215.08 134.978 214.867 135.704 214.44C136.429 213.992 136.792 213.341 136.792 212.488C136.792 211.869 136.6 211.411 136.216 211.112C135.853 210.813 135.33 210.568 134.648 210.376C133.965 210.163 133.154 209.928 132.216 209.672C131.064 209.331 130.093 208.968 129.304 208.584C128.514 208.2 127.917 207.72 127.512 207.144C127.106 206.568 126.904 205.843 126.904 204.968C126.904 203.901 127.181 203.005 127.736 202.28C128.29 201.533 129.048 200.968 130.008 200.584C130.989 200.2 132.098 200.008 133.336 200.008C134.573 200.008 135.693 200.2 136.696 200.584C137.698 200.968 138.562 201.533 139.288 202.28L138.008 204.232C137.346 203.549 136.621 203.048 135.832 202.728C135.042 202.387 134.157 202.216 133.176 202.216C132.6 202.216 132.034 202.291 131.48 202.44C130.925 202.568 130.466 202.813 130.104 203.176C129.741 203.517 129.56 204.008 129.56 204.648C129.56 205.181 129.698 205.608 129.976 205.928C130.274 206.227 130.701 206.483 131.256 206.696C131.832 206.909 132.525 207.144 133.336 207.4C134.594 207.763 135.682 208.125 136.6 208.488C137.538 208.851 138.264 209.32 138.776 209.896C139.288 210.472 139.544 211.272 139.544 212.296C139.544 213.875 138.946 215.112 137.752 216.008C136.557 216.883 134.978 217.32 133.016 217.32ZM150.305 217.32C149.046 217.32 147.894 217.096 146.849 216.648C145.825 216.179 144.929 215.539 144.161 214.728C143.414 213.917 142.827 212.989 142.401 211.944C141.995 210.899 141.793 209.789 141.793 208.616C141.793 207.037 142.145 205.597 142.849 204.296C143.553 202.995 144.545 201.96 145.825 201.192C147.105 200.403 148.587 200.008 150.273 200.008C151.915 200.008 153.345 200.381 154.561 201.128C155.798 201.853 156.715 202.835 157.313 204.072L154.561 204.936C154.134 204.147 153.537 203.539 152.769 203.112C152.001 202.664 151.147 202.44 150.209 202.44C149.185 202.44 148.246 202.707 147.393 203.24C146.561 203.773 145.899 204.509 145.409 205.448C144.918 206.365 144.673 207.421 144.673 208.616C144.673 209.789 144.918 210.856 145.409 211.816C145.921 212.755 146.593 213.501 147.425 214.056C148.278 214.611 149.217 214.888 150.241 214.888C150.902 214.888 151.531 214.771 152.129 214.536C152.747 214.301 153.281 213.992 153.729 213.608C154.198 213.203 154.518 212.765 154.689 212.296L157.441 213.128C157.099 213.939 156.577 214.664 155.873 215.304C155.19 215.923 154.369 216.413 153.409 216.776C152.47 217.139 151.435 217.32 150.305 217.32ZM169.463 202.76C168.055 202.781 166.807 203.144 165.719 203.848C164.653 204.531 163.895 205.48 163.447 206.696V217H160.631V200.296H163.255V204.168C163.831 203.016 164.589 202.088 165.527 201.384C166.487 200.659 167.49 200.253 168.535 200.168C168.749 200.168 168.93 200.168 169.079 200.168C169.229 200.168 169.357 200.179 169.463 200.2V202.76ZM172.256 217V200.296H175.072V217H172.256ZM172.256 197.16V193.64H175.072V197.16H172.256ZM188.623 217.32C187.258 217.32 186.042 216.979 184.975 216.296C183.909 215.613 183.066 214.749 182.447 213.704V223.816H179.631V200.296H182.127V203.432C182.789 202.408 183.653 201.587 184.719 200.968C185.786 200.328 186.949 200.008 188.207 200.008C189.359 200.008 190.415 200.243 191.375 200.712C192.335 201.181 193.167 201.821 193.871 202.632C194.575 203.443 195.119 204.371 195.503 205.416C195.909 206.44 196.111 207.517 196.111 208.648C196.111 210.227 195.791 211.677 195.151 213C194.533 214.323 193.658 215.379 192.527 216.168C191.397 216.936 190.095 217.32 188.623 217.32ZM187.759 214.888C188.591 214.888 189.338 214.717 189.999 214.376C190.682 214.013 191.258 213.544 191.727 212.968C192.218 212.371 192.591 211.699 192.847 210.952C193.103 210.205 193.231 209.437 193.231 208.648C193.231 207.816 193.082 207.027 192.783 206.28C192.506 205.533 192.101 204.872 191.567 204.296C191.055 203.72 190.447 203.272 189.743 202.952C189.061 202.611 188.314 202.44 187.503 202.44C186.991 202.44 186.458 202.536 185.903 202.728C185.37 202.92 184.858 203.197 184.367 203.56C183.877 203.901 183.461 204.296 183.119 204.744C182.778 205.192 182.554 205.672 182.447 206.184V210.952C182.767 211.677 183.194 212.339 183.727 212.936C184.261 213.533 184.879 214.013 185.583 214.376C186.287 214.717 187.013 214.888 187.759 214.888ZM207.959 216.168C207.724 216.275 207.404 216.413 206.999 216.584C206.594 216.755 206.124 216.904 205.591 217.032C205.058 217.16 204.492 217.224 203.895 217.224C203.212 217.224 202.583 217.107 202.007 216.872C201.431 216.616 200.972 216.232 200.631 215.72C200.29 215.187 200.119 214.525 200.119 213.736V202.504H197.847V200.296H200.119V194.728H202.935V200.296H206.679V202.504H202.935V212.872C202.978 213.469 203.18 213.917 203.543 214.216C203.906 214.493 204.332 214.632 204.823 214.632C205.378 214.632 205.89 214.536 206.359 214.344C206.828 214.152 207.138 214.013 207.287 213.928L207.959 216.168Z" fill="#25333A"/>
<defs>
<filter id="filter0_bd_215_3943" x="0" y="-4" width="260" height="288" filterUnits="userSpaceOnUse" color-interpolation-filters="sRGB">
<feFlood flood-opacity="0" result="BackgroundImageFix"/>
<feGaussianBlur in="BackgroundImageFix" stdDeviation="10"/>
<feComposite in2="SourceAlpha" operator="in" result="effect1_backgroundBlur_215_3943"/>
<feColorMatrix in="SourceAlpha" type="matrix" values="0 0 0 0 0 0 0 0 0 0 0 0 0 0 0 0 0 0 127 0" result="hardAlpha"/>
<feOffset dy="4"/>
<feGaussianBlur stdDeviation="10"/>
<feComposite in2="hardAlpha" operator="out"/>
<feColorMatrix type="matrix" values="0 0 0 0 0.0470588 0 0 0 0 0.0901961 0 0 0 0 0.0862745 0 0 0 0.06 0"/>
<feBlend mode="normal" in2="effect1_backgroundBlur_215_3943" result="effect2_dropShadow_215_3943"/>
<feBlend mode="normal" in="SourceGraphic" in2="effect2_dropShadow_215_3943" result="shape"/>
</filter>
<clipPath id="clip0_215_3943">
<rect width="120" height="120" fill="white" transform="translate(70 46)"/>
</clipPath>
</defs>
</svg>
