<svg width="80" height="75" viewBox="0 0 80 75" fill="none" xmlns="http://www.w3.org/2000/svg">
<path d="M19.6037 37.0167V36.5167H19.1037H7.99986C6.01752 36.5167 4.11201 35.6965 2.7038 34.2296C1.29492 32.762 0.5 30.7673 0.5 28.6833L0.5 8.33334C0.5 6.24937 1.29492 4.25466 2.7038 2.78704C4.11202 1.32012 6.01752 0.5 7.99986 0.5H23.9996C25.9819 0.5 27.8874 1.32012 29.2956 2.78704C30.7045 4.25466 31.4994 6.24937 31.4994 8.33334L31.4994 37.0167L31.4995 37.0199C31.5305 41.8473 31.0354 46.6627 30.0236 51.3736C29.0239 55.6202 27.3711 59.6697 25.1296 63.3648C22.9069 66.6959 19.9977 69.4649 16.6167 71.4699L16.6164 71.4701C13.3489 73.4106 9.55724 74.424 5.21191 74.4959V62.5753C7.89867 62.4878 10.1602 61.6877 11.9694 60.148C13.8612 58.71 15.3923 56.7544 16.5785 54.283L16.5788 54.2824C17.7544 51.8246 18.599 49.0191 19.1014 45.879L19.1033 45.8674L19.1046 45.8557C19.4346 42.9127 19.6037 39.9608 19.6037 37.0167ZM67.6028 37.0167V36.5167H67.1028H55.999C54.0167 36.5167 52.1112 35.6965 50.703 34.2296C49.2941 32.762 48.4992 30.7673 48.4992 28.6833L48.4992 8.33334C48.4992 6.24937 49.2941 4.25466 50.703 2.78704C52.1112 1.32012 54.0167 0.5 55.999 0.5H71.9988C73.9811 0.5 75.8866 1.32012 77.2948 2.78704C78.7037 4.25466 79.4986 6.24937 79.4986 8.33334L79.4986 37.0167L79.4986 37.0199C79.5297 41.8473 79.0346 46.6627 78.0228 51.3735C77.0231 55.6202 75.3702 59.6696 73.1288 63.3648C70.9061 66.6959 67.9969 69.4649 64.6158 71.4699L64.6156 71.4701C61.3481 73.4106 57.5564 74.424 53.2111 74.4959V62.5753C55.8978 62.4878 58.1593 61.6877 59.9686 60.148C61.8603 58.7101 63.3914 56.7544 64.5777 54.283L64.5779 54.2824C65.7536 51.8246 66.5982 49.0191 67.1006 45.879L67.1024 45.8674L67.1037 45.8557C67.4337 42.9127 67.6028 39.9608 67.6028 37.0167Z" stroke="#FE531E"/>
</svg>
