<svg width="200" height="62" viewBox="0 0 200 62" fill="none" xmlns="http://www.w3.org/2000/svg">
<path d="M29.0154 22.5191C28.9812 23.5535 29.1182 24.5879 29.3921 25.5878C29.7003 26.4499 30.077 27.2774 30.4879 28.0704C30.6249 28.3118 30.7276 28.5877 30.7276 28.8635C30.6934 29.2773 30.4537 29.691 30.077 29.8979L27.9196 31.3461C27.6457 31.5185 27.3375 31.6564 27.0293 31.6564C26.6526 31.622 26.2759 31.4496 26.0019 31.1737C25.5568 30.691 25.1116 30.1393 24.7691 29.5531C24.4267 28.9669 24.0843 28.3118 23.7076 27.5188C21.0365 30.691 17.6806 32.2771 13.6398 32.2771C10.7632 32.2771 8.46888 31.4496 6.79091 29.7945C5.11294 28.1394 4.25684 25.9326 4.25684 23.1742C4.25684 20.2433 5.28416 17.8642 7.37306 16.0712C9.46196 14.2782 12.2357 13.3817 15.7629 13.3817C16.9615 13.3817 18.1942 13.4851 19.3928 13.6575C20.6598 13.8299 21.9611 14.1058 23.3309 14.4161V11.899C23.3309 9.27851 22.783 7.45103 21.7214 6.38214C20.6598 5.31324 18.7764 4.79603 16.1396 4.79603C14.9068 4.79603 13.6398 4.93395 12.4412 5.24427C11.1742 5.5546 9.94138 5.93389 8.74283 6.41662C8.36615 6.58902 7.95522 6.72694 7.54428 6.86486C7.37306 6.93383 7.1676 6.96831 6.99638 6.96831C6.51696 6.96831 6.27725 6.6235 6.27725 5.89941V4.20986C6.243 3.79609 6.34574 3.38232 6.51696 3.00303C6.79091 2.69271 7.09911 2.45134 7.4758 2.27894C8.84557 1.58933 10.2838 1.07212 11.7906 0.727312C13.537 0.279064 15.352 0.07218 17.1327 0.07218C21.2077 0.07218 24.187 1.00316 26.1047 2.86511C28.0223 4.72706 28.9469 7.55448 28.9469 11.3473V22.5191H29.0154ZM15.1123 27.7601C16.3108 27.7601 17.5094 27.5532 18.6394 27.1395C19.9065 26.6912 21.0023 25.9327 21.8926 24.9327C22.4405 24.3121 22.8515 23.5535 23.0569 22.726C23.2966 21.7605 23.3994 20.7261 23.3994 19.7261V18.278C22.372 18.0366 21.3105 17.8297 20.2489 17.6918C19.1873 17.5539 18.0915 17.4849 17.0299 17.4849C14.7356 17.4849 13.0576 17.9331 11.9275 18.8641C10.7975 19.7951 10.2496 21.1054 10.2496 22.8294C10.2496 24.45 10.6605 25.6568 11.5166 26.4843C12.3727 27.3119 13.537 27.7601 15.1123 27.7601ZM42.6104 31.484C42.1652 31.5185 41.6858 31.4151 41.3091 31.1392C40.9667 30.7599 40.6927 30.3117 40.59 29.7945L32.5426 3.14096C32.3714 2.69271 32.2686 2.24446 32.2344 1.76173C32.2001 1.34796 32.4741 0.968676 32.885 0.899715H36.4464C37.0971 0.899715 37.5423 1.00316 37.782 1.24452C38.0217 1.48589 38.2614 1.93413 38.4668 2.58927L44.1856 25.4154L49.5277 2.58927C49.699 1.89965 49.9044 1.45141 50.1784 1.24452C50.5893 1.00316 51.0687 0.865234 51.5482 0.899715H54.2877C54.9383 0.899715 55.3835 1.00316 55.6575 1.24452C55.9999 1.62381 56.2396 2.07206 56.3081 2.58927L61.7187 25.6913L67.643 2.58927C67.7457 2.07206 67.9854 1.62381 68.3278 1.24452C68.7388 1.00316 69.1839 0.865234 69.6634 0.899715H72.8481C73.259 0.830754 73.6357 1.14108 73.7042 1.55485V1.76173C73.7042 1.93413 73.6699 2.14102 73.6357 2.31342C73.5672 2.62375 73.4987 2.89959 73.396 3.17544L65.1431 29.829C64.9377 30.5186 64.6979 30.9668 64.424 31.1737C64.0473 31.4151 63.5679 31.553 63.1227 31.5185H60.1777C59.5271 31.5185 59.0819 31.4151 58.8079 31.1737C58.4655 30.7944 58.2258 30.3117 58.1573 29.7945L52.8494 7.55448L47.5758 29.76C47.5073 30.2772 47.2676 30.7599 46.9252 31.1392C46.5142 31.4151 46.0348 31.5185 45.5554 31.484H42.6104ZM86.6143 32.415C84.8336 32.415 83.0529 32.2081 81.3407 31.7944C79.6284 31.3806 78.2929 30.9323 77.4026 30.4151C76.9574 30.2082 76.5807 29.8634 76.341 29.4497C76.204 29.1393 76.1355 28.829 76.1355 28.4842V26.7257C76.1355 26.0016 76.4095 25.6568 76.9231 25.6568C77.1286 25.6568 77.3341 25.6913 77.5395 25.7602C77.745 25.8292 78.0532 25.9671 78.3956 26.1051C79.5942 26.6567 80.8612 27.036 82.1625 27.3119C83.498 27.5877 84.8678 27.7256 86.2376 27.7256C88.395 27.7256 90.0729 27.3464 91.2372 26.5878C92.3673 25.8982 93.0522 24.6569 93.0179 23.3121C93.0522 22.4156 92.7097 21.5536 92.0933 20.8985C91.477 20.2433 90.3126 19.6572 88.6347 19.1055L83.6693 17.5539C81.1694 16.7608 79.3202 15.5885 78.1902 14.0368C77.0944 12.5886 76.478 10.8646 76.478 9.03714C76.4437 7.6924 76.7519 6.38213 77.4026 5.20979C78.019 4.10641 78.8408 3.14096 79.8681 2.38238C80.9297 1.55485 82.1283 0.968676 83.4296 0.589389C84.8336 0.175622 86.2718 -0.0312619 87.7443 0.00321873C88.4977 0.00321873 89.2853 0.0376994 90.0387 0.141141C90.8263 0.244583 91.5454 0.382506 92.2646 0.520428C92.9837 0.658351 93.6001 0.865234 94.2165 1.07212C94.7302 1.24452 95.2096 1.45141 95.6547 1.69277C96.0657 1.89965 96.4081 2.1755 96.6821 2.55479C96.9218 2.89959 97.0245 3.27888 96.9903 3.69265V5.31324C96.9903 6.03733 96.7163 6.41662 96.2027 6.41662C95.7575 6.34765 95.3123 6.20973 94.9014 6.00285C92.8467 5.07187 90.5866 4.62362 88.3265 4.6581C86.3746 4.6581 84.8336 4.96843 83.772 5.62356C82.7104 6.27869 82.1625 7.27863 82.1625 8.69234C82.1283 9.62331 82.505 10.5198 83.1898 11.1405C83.8747 11.7956 85.1418 12.4507 86.9567 13.0369L91.8194 14.5885C94.285 15.3816 96.0657 16.485 97.1273 17.8987C98.1888 19.2779 98.7367 21.0019 98.7025 22.726C98.7367 24.1052 98.4285 25.4844 97.8121 26.7257C97.1957 27.898 96.3396 28.9325 95.3123 29.76C94.1822 30.6565 92.881 31.3116 91.5112 31.6909C89.936 32.1736 88.2922 32.415 86.6143 32.415Z" fill="white"/>
<path d="M93.0868 49.173C81.8205 57.5518 65.4517 61.9998 51.3773 61.9998C31.6526 61.9998 13.8799 54.6554 0.456139 42.4493C-0.605432 41.4838 0.353406 40.1735 1.62044 40.9321C16.14 49.4144 34.0497 54.552 52.5759 54.552C65.9311 54.483 79.1494 51.759 91.4431 46.5525C93.3265 45.6904 94.936 47.7938 93.0868 49.173Z" fill="#F1AD4D"/>
<path d="M97.7783 43.7941C96.34 41.9321 88.2583 42.8976 84.5942 43.3458C83.4984 43.4838 83.3272 42.5183 84.3203 41.7942C90.7582 37.2428 101.34 38.553 102.572 40.0702C103.805 41.5873 102.23 52.2763 96.203 57.3795C95.2784 58.1725 94.3881 57.7587 94.799 56.7243C96.1688 53.3107 99.2165 45.6216 97.7783 43.7941Z" fill="#F1AD4D"/>
<path d="M157.741 38.7593C158.083 39.4489 158.597 40.0351 159.213 40.4833C159.864 40.9316 160.583 41.2764 161.37 41.4488C162.192 41.6557 163.048 41.7591 163.905 41.7591C164.555 41.7591 165.172 41.6901 165.822 41.6212C166.473 41.5177 167.123 41.3453 167.74 41.035C168.322 40.7592 168.836 40.3454 169.212 39.8627C169.623 39.311 169.829 38.6558 169.795 37.9662C169.829 37.2077 169.521 36.4836 169.007 35.9664C168.425 35.4147 167.706 35.0009 166.952 34.6906C166.028 34.3113 165.069 34.0354 164.076 33.7941C163.014 33.5527 161.918 33.2424 160.823 32.9321C159.692 32.6562 158.597 32.3114 157.501 31.8976C156.474 31.5184 155.48 30.9667 154.624 30.2771C153.768 29.6219 153.083 28.7944 152.57 27.8289C152.022 26.7256 151.748 25.5187 151.782 24.2774C151.748 22.8637 152.09 21.45 152.809 20.2087C153.46 19.0709 154.35 18.0709 155.412 17.3123C156.508 16.5193 157.741 15.9676 159.042 15.5883C160.377 15.209 161.747 15.0366 163.117 15.0366C164.658 15.0366 166.165 15.209 167.671 15.5538C169.075 15.8642 170.377 16.4503 171.541 17.2779C172.671 18.0709 173.596 19.1053 174.246 20.3122C174.931 21.6914 175.274 23.243 175.239 24.7946H168.801C168.767 24.0016 168.562 23.243 168.219 22.5534C167.911 21.9672 167.466 21.4845 166.918 21.1397C166.336 20.7949 165.719 20.5535 165.069 20.4156C164.315 20.2777 163.562 20.2087 162.809 20.2087C162.261 20.2087 161.713 20.2777 161.199 20.3811C160.686 20.4846 160.172 20.6914 159.727 20.9673C159.282 21.2431 158.939 21.6224 158.665 22.0362C158.357 22.5189 158.22 23.0706 158.254 23.6568C158.22 24.174 158.357 24.6567 158.597 25.105C158.939 25.5877 159.384 25.9325 159.932 26.1394C160.823 26.5187 161.747 26.829 162.672 27.0704C163.836 27.3807 165.377 27.7945 167.26 28.2772C167.808 28.3806 168.596 28.5875 169.623 28.8978C170.685 29.2082 171.678 29.6909 172.603 30.3115C173.63 31.0012 174.52 31.8632 175.171 32.8976C175.89 34.001 176.267 35.3802 176.267 37.1042C176.267 38.449 175.993 39.7592 175.445 41.0005C174.897 42.2074 174.075 43.2763 173.048 44.1038C171.883 45.0348 170.548 45.7244 169.11 46.1381C167.329 46.6554 165.514 46.8967 163.665 46.8622C162.021 46.8622 160.412 46.6554 158.802 46.2416C157.295 45.8623 155.891 45.2072 154.659 44.2762C153.46 43.3797 152.467 42.2418 151.782 40.8971C151.029 39.3799 150.686 37.7249 150.755 36.0353H157.193C157.158 37.0353 157.364 37.9318 157.741 38.7593ZM188.971 28.4496C189.69 28.4151 190.375 28.2427 191.026 27.9669C191.642 27.7255 192.19 27.3117 192.601 26.7945C193.046 26.2083 193.252 25.4843 193.218 24.7602C193.218 23.4844 192.807 22.4844 191.951 21.8293C191.129 21.1397 190.101 20.7949 189.04 20.7949C187.499 20.7949 186.369 21.3121 185.581 22.312C184.759 23.4154 184.383 24.7602 184.451 26.1394H178.732C178.767 24.6912 179.04 23.2775 179.554 21.9327C180.034 20.7259 180.718 19.5881 181.643 18.6571C182.568 17.7261 183.629 17.002 184.828 16.5538C186.163 16.0366 187.567 15.7952 188.971 15.7952C190.17 15.7952 191.368 15.9676 192.533 16.3124C193.697 16.6572 194.759 17.2089 195.717 17.8985C196.642 18.5881 197.43 19.4846 198.012 20.4846C198.628 21.5535 198.936 22.7948 198.902 24.0361C198.936 25.3808 198.56 26.7256 197.875 27.8634C197.156 29.0013 196.06 29.7943 194.759 30.1391V30.2426C196.265 30.5529 197.635 31.3804 198.594 32.6217C199.553 33.8975 200.032 35.4492 199.998 37.0008C200.032 38.449 199.724 39.8972 199.108 41.1729C198.525 42.3798 197.704 43.4142 196.676 44.2417C195.615 45.0692 194.45 45.7244 193.149 46.1037C191.814 46.5174 190.41 46.7588 189.006 46.7588C187.465 46.7933 185.924 46.5174 184.451 46.0347C183.15 45.5865 181.951 44.8624 180.958 43.9314C179.965 42.9659 179.212 41.8281 178.732 40.5178C178.184 39.0351 177.945 37.4835 177.979 35.8974H183.698C183.732 36.656 183.835 37.449 184.074 38.1731C184.28 38.8627 184.622 39.4834 185.067 40.0696C185.513 40.5868 186.026 41.035 186.643 41.3109C187.362 41.6557 188.115 41.7936 188.903 41.7936C190.17 41.8281 191.403 41.3798 192.327 40.5523C193.252 39.7247 193.731 38.5524 193.731 37.1042C193.731 35.9664 193.526 35.1043 193.081 34.5182C192.67 33.932 192.088 33.4838 191.403 33.2079C190.684 32.9321 189.93 32.7941 189.177 32.7597C188.355 32.7252 187.602 32.6907 186.882 32.6907V28.4496C187.567 28.5185 188.286 28.5185 188.971 28.4496ZM128.564 0.658203H130.962V61.3441H128.564V0.658203Z" fill="white"/>
</svg>
