<svg width="200" height="60" viewBox="0 0 200 60" fill="none" xmlns="http://www.w3.org/2000/svg">
<path d="M1.30156 46.7865V23.7305H29.0922V22.3819H1.30156V1.34821H30.8492V0H0V48.1347H31.1094V46.7865H1.30195H1.30156ZM56.1668 13.483L44.6473 29.1909L33.3875 13.4834H31.6953L43.866 30.2025L30.5234 48.1343H32.0855L44.6465 31.2129L57.2727 48.1343H58.8996L45.4926 30.2017L57.7281 13.4825H56.1664L56.1668 13.483ZM62.8051 60V38.4274H62.9352C63.7164 41.5733 65.2566 44.1014 67.5563 46.0117C69.8559 47.9215 72.7844 48.8768 76.3422 48.8768C78.6418 48.8768 80.6813 48.3937 82.4602 47.4275C84.2391 46.4612 85.725 45.1466 86.9184 43.4836C88.1113 41.8205 89.0227 39.8881 89.652 37.6857C90.2809 35.4837 90.5957 33.1688 90.5957 30.7423C90.5957 28.1353 90.2699 25.7306 89.6191 23.5286C88.9684 21.3262 88.0246 19.416 86.7883 17.7983C85.5516 16.1802 84.0547 14.9214 82.2973 14.0231C80.5402 13.1241 78.5551 12.6745 76.3422 12.6745C74.65 12.6745 73.0773 12.9331 71.6238 13.4498C70.1703 13.9669 68.8797 14.6968 67.7516 15.6408C66.6168 16.5921 65.6291 17.7174 64.8227 18.9778C63.9984 20.2588 63.3691 21.6633 62.9352 23.1916H62.8051V13.483H61.5035V60H62.8051ZM76.3422 47.5954C72.2641 47.5954 68.9879 46.146 66.5148 43.2473C64.0418 40.3485 62.8051 36.1797 62.8051 30.7415C62.8051 28.4942 63.109 26.3594 63.7164 24.3371C64.3238 22.3147 65.2023 20.5392 66.352 19.0114C67.502 17.4831 68.923 16.2696 70.6148 15.3709C72.307 14.4719 74.2164 14.0223 76.3422 14.0223C78.5117 14.0223 80.4102 14.4719 82.0371 15.3709C83.6641 16.2696 85.0094 17.4944 86.0723 19.0449C87.1352 20.5955 87.9379 22.371 88.4805 24.3706C89.0227 26.3707 89.2937 28.4942 89.2937 30.7415C89.2937 32.7642 89.0445 34.7756 88.5453 36.7753C88.0465 38.7753 87.2762 40.5731 86.2348 42.1689C85.1937 43.764 83.8598 45.0673 82.2324 46.0788C80.6051 47.09 78.6418 47.5954 76.3422 47.5954ZM97.7547 48.1347V28.5168C97.7547 26.6293 98.0148 24.7862 98.5359 22.9888C99.0563 21.1911 99.859 19.6066 100.944 18.2361C102.029 16.8652 103.406 15.7865 105.077 14.9999C106.747 14.2133 108.732 13.8876 111.032 14.0223V12.6741C109.036 12.6296 107.289 12.8538 105.793 13.3482C104.295 13.8427 103.005 14.5168 101.92 15.3709C100.835 16.2247 99.9676 17.2245 99.3168 18.3708C98.6665 19.5153 98.1839 20.7535 97.8848 22.0448H97.7547V13.483H96.4531V48.1351H97.7547V48.1347ZM112.659 31.0785H140.644C140.731 28.6965 140.504 26.4047 139.961 24.2023C139.419 21.9999 138.551 20.0448 137.358 18.3373C136.164 16.6293 134.624 15.2585 132.737 14.2246C130.849 13.1908 128.604 12.6741 126.001 12.6741C124.135 12.6741 122.312 13.0787 120.534 13.888C118.755 14.6968 117.193 15.8763 115.848 17.4268C114.503 18.9774 113.418 20.8763 112.594 23.124C111.77 25.3709 111.357 27.9326 111.357 30.809C111.357 33.3707 111.639 35.7641 112.203 37.9887C112.767 40.2134 113.635 42.1463 114.806 43.7866C115.978 45.427 117.486 46.6967 119.33 47.5954C121.173 48.4945 123.397 48.9213 126.001 48.8764C129.819 48.8764 133.03 47.7637 135.633 45.5395C138.236 43.3144 139.777 40.1798 140.254 36.1347H138.952C138.388 39.9552 136.945 42.8204 134.624 44.7302C132.303 46.6405 129.385 47.5954 125.87 47.5954C123.484 47.5954 121.466 47.1685 119.818 46.3147C118.169 45.461 116.824 44.292 115.782 42.8091C114.741 41.3257 113.971 39.5842 113.472 37.5841C112.973 35.5844 112.702 33.4156 112.659 31.0785ZM139.343 29.7303H112.659C112.789 27.3034 113.223 25.1236 113.96 23.1912C114.698 21.2583 115.663 19.6066 116.857 18.2361C118.05 16.8652 119.438 15.8205 121.022 15.1011C122.605 14.382 124.309 14.0223 126.131 14.0223C128.3 14.0223 130.209 14.4383 131.858 15.2698C133.507 16.1013 134.884 17.2363 135.991 18.6743C137.097 20.1124 137.932 21.7867 138.496 23.6965C139.061 25.6068 139.343 27.6182 139.343 29.7303ZM167.654 23.7305H168.955C168.955 19.8651 167.871 17.0562 165.702 15.3034C163.532 13.5505 160.581 12.6741 156.85 12.6741C154.767 12.6741 153.01 12.944 151.578 13.4834C150.146 14.0223 148.975 14.7191 148.064 15.5728C147.153 16.4266 146.502 17.3706 146.111 18.4044C145.721 19.4382 145.525 20.4272 145.525 21.3707C145.525 23.2583 145.851 24.7639 146.502 25.8876C147.153 27.0112 148.172 27.8876 149.561 28.5168C150.515 28.966 151.6 29.3706 152.815 29.7307C154.03 30.09 155.44 30.472 157.045 30.8762C158.477 31.2363 159.887 31.5956 161.276 31.955C162.664 32.3147 163.89 32.7978 164.953 33.4043C166.016 34.0113 166.884 34.7865 167.556 35.7305C168.229 36.6741 168.565 37.9102 168.565 39.4381C168.565 40.9215 168.229 42.1799 167.556 43.2133C166.889 44.2417 166.012 45.1051 164.986 45.7418C163.944 46.3932 162.783 46.865 161.504 47.1572C160.223 47.4493 158.976 47.5954 157.761 47.5954C153.813 47.5954 150.786 46.6854 148.682 44.8654C146.578 43.0449 145.526 40.1798 145.526 36.2695H144.224C144.224 40.6293 145.363 43.8202 147.641 45.8429C149.919 47.8653 153.292 48.8764 157.761 48.8764C159.193 48.8764 160.636 48.7077 162.089 48.3706C163.543 48.0336 164.845 47.4833 165.994 46.719C167.134 45.9654 168.091 44.9507 168.793 43.753C169.509 42.5392 169.867 41.0562 169.867 39.3034C169.867 37.6404 169.552 36.2921 168.923 35.2583C168.294 34.2249 167.47 33.3707 166.45 32.6966C165.43 32.0225 164.28 31.4945 163 31.1125C161.713 30.7283 160.422 30.3574 159.128 29.9998C157.535 29.5669 155.94 29.14 154.344 28.7192C152.978 28.3594 151.709 27.9326 150.537 27.4381C149.409 26.9437 148.509 26.236 147.836 25.3146C147.163 24.3933 146.827 23.0787 146.827 21.3707C146.827 21.0563 146.914 20.4943 147.088 19.6855C147.261 18.8762 147.673 18.056 148.324 17.2245C148.975 16.3934 149.973 15.6518 151.318 14.9999C152.663 14.3484 154.507 14.0223 156.85 14.0223C158.455 14.0223 159.92 14.2024 161.243 14.5617C162.566 14.9214 163.705 15.4944 164.66 16.2809C165.614 17.0675 166.352 18.0674 166.873 19.2808C167.393 20.4947 167.654 21.9777 167.654 23.7305ZM197.787 23.7305H199.089C199.089 19.8651 198.004 17.0562 195.835 15.3034C193.665 13.5505 190.715 12.6741 186.983 12.6741C184.901 12.6741 183.143 12.944 181.712 13.4834C180.28 14.0223 179.108 14.7191 178.197 15.5728C177.286 16.4266 176.635 17.3706 176.245 18.4044C175.854 19.4382 175.659 20.4272 175.659 21.3707C175.659 23.2583 175.984 24.7639 176.636 25.8876C177.286 27.0112 178.306 27.8876 179.694 28.5168C180.649 28.966 181.733 29.3706 182.948 29.7307C184.163 30.09 185.573 30.472 187.179 30.8762C188.611 31.2363 190.021 31.5956 191.409 31.955C192.798 32.3147 194.023 32.7978 195.086 33.4043C196.149 34.0113 197.017 34.7865 197.689 35.7305C198.362 36.6741 198.698 37.9102 198.698 39.4381C198.698 40.9215 198.362 42.1799 197.689 43.2133C197.023 44.2417 196.145 45.105 195.119 45.7418C194.077 46.3932 192.917 46.865 191.637 47.1572C190.357 47.4493 189.109 47.5954 187.895 47.5954C183.946 47.5954 180.92 46.6854 178.816 44.8654C176.711 43.0449 175.659 40.1798 175.659 36.2695H174.357C174.357 40.6293 175.496 43.8202 177.774 45.8429C180.052 47.8653 183.425 48.8764 187.895 48.8764C189.327 48.8764 190.769 48.7077 192.223 48.3706C193.676 48.0336 194.978 47.4833 196.128 46.719C197.268 45.9654 198.225 44.9507 198.926 43.753C199.642 42.5392 200 41.0562 200 39.3034C200 37.6404 199.686 36.2921 199.056 35.2583C198.427 34.2249 197.603 33.3707 196.583 32.6966C195.564 32.0225 194.414 31.4945 193.134 31.1125C191.847 30.7283 190.556 30.3574 189.261 29.9998C187.668 29.5669 186.074 29.14 184.478 28.7192C183.111 28.3594 181.842 27.9326 180.67 27.4381C179.542 26.9437 178.642 26.236 177.97 25.3146C177.297 24.3933 176.961 23.0787 176.961 21.3707C176.961 21.0563 177.047 20.4943 177.221 19.6855C177.395 18.8762 177.807 18.056 178.457 17.2245C179.108 16.3934 180.106 15.6518 181.451 14.9999C182.796 14.3484 184.64 14.0223 186.984 14.0223C188.589 14.0223 190.053 14.2024 191.377 14.5617C192.7 14.9214 193.839 15.4944 194.793 16.2809C195.748 17.0675 196.486 18.0674 197.006 19.2808C197.527 20.4947 197.788 21.9777 197.788 23.7305H197.787Z" fill="white"/>
</svg>
