<svg width="85" height="120" viewBox="0 0 85 120" fill="none" xmlns="http://www.w3.org/2000/svg">
<path d="M23.6299 88.8958C27.349 93.5262 31.1369 99.3484 33.1191 102.865C35.5331 107.437 36.5341 110.524 38.3299 116.053C39.3799 119.081 40.3808 120 42.4808 120C44.777 120 45.827 118.456 46.6317 116.053C48.3098 110.866 49.6051 106.919 51.656 103.158C59.5653 88.3096 72.4597 77.7593 79.7214 63.3014C79.7214 63.3014 84.5004 54.4704 84.5004 42.1031C84.5004 30.5759 79.7901 22.5654 79.7901 22.5654L23.6593 88.9935L23.6299 88.8958Z" fill="#538B9E"/>
<path d="M4.59213 61.7389C9.11595 71.9962 17.7416 80.9835 23.6295 88.8963L54.835 52.0678C54.835 52.0678 50.429 57.8118 42.4706 57.8118C33.5996 57.8118 26.3771 50.7783 26.3771 41.8886C26.3771 35.7734 30.0374 31.5337 30.0374 31.5337C7.07484 34.9332 8.35053 40.4722 4.52344 61.7194L4.59213 61.7389Z" fill="#9DBFCA"/>
<path d="M55.2278 1.92432C65.6296 5.25549 74.4614 12.2793 79.7604 22.5365L54.8352 52.1361C54.8352 52.1361 58.4955 47.8769 58.4955 41.7811C58.4955 32.7059 50.8021 25.8579 42.5002 25.8579C34.6203 25.8579 30.1357 31.5336 30.1357 31.5336C32.0493 27.1963 51.8226 3.39941 55.2572 1.93409L55.2278 1.92432Z" fill="#9DBFCA"/>
<path d="M10.2832 14.9463C16.4851 7.60015 27.3579 0 42.3719 0C49.6238 0 55.1289 1.91469 55.1289 1.91469L30.1056 31.5142C28.4178 30.6028 11.9514 17.8379 10.2832 14.9072V14.9463Z" fill="#F1AD4D"/>
<path d="M4.59205 61.7385C4.59205 61.7385 0.5 53.6499 0.5 42.0054C0.5 30.9667 4.83738 21.2955 10.3131 15.0435L30.1355 31.6505L4.62149 61.7385H4.59205Z" fill="#F1AD4D"/>
</svg>
