<svg width="200" height="34" viewBox="0 0 200 34" fill="none" xmlns="http://www.w3.org/2000/svg">
<path d="M30.0659 0C32.0086 0 33.6892 0.391344 35.1077 1.17403C36.557 1.92541 37.6826 3.08379 38.4843 4.64917C39.2861 6.18324 39.687 8.093 39.687 10.3785V24.7017H37.3742V10.5663C37.3742 7.81123 36.7112 5.71363 35.3853 4.27348C34.0593 2.83333 32.2091 2.11326 29.8346 2.11326C28.0152 2.11326 26.4426 2.5046 25.1166 3.28729C23.7906 4.06998 22.773 5.16575 22.0637 6.57459C21.3545 7.98343 20.9999 9.67403 20.9999 11.6464V24.7017H18.6871V10.5663C18.6871 7.81123 18.0241 5.71363 16.6981 4.27348C15.3722 2.83333 13.5219 2.11326 11.1475 2.11326C9.32814 2.11326 7.75546 2.5046 6.42948 3.28729C5.10349 4.06998 4.08588 5.16575 3.37663 6.57459C2.66738 7.98343 2.31276 9.67403 2.31276 11.6464V24.7017H0V0.187846H2.22025V6.95028L1.89646 6.19889C2.60571 4.28913 3.79293 2.78637 5.45812 1.69061C7.1233 0.563536 9.1277 0 11.4713 0C13.8766 0 15.8964 0.626151 17.5307 1.87845C19.1959 3.09945 20.2444 4.93094 20.6761 7.37293L19.8897 7.0442C20.5373 4.94659 21.7554 3.25599 23.5439 1.97238C25.3324 0.657458 27.5064 0 30.0659 0Z" fill="white"/>
<path d="M52.8907 24.8895C50.5779 24.8895 48.5119 24.3573 46.6925 23.2928C44.9039 22.2284 43.47 20.7569 42.3907 18.8785C41.3423 17 40.8181 14.8554 40.8181 12.4448C40.8181 10.0028 41.3423 7.85819 42.3907 6.01105C43.47 4.1326 44.9039 2.66114 46.6925 1.59669C48.5119 0.532228 50.5779 0 52.8907 0C55.2034 0 57.2695 0.532228 59.0889 1.59669C60.9083 2.66114 62.3422 4.1326 63.3906 6.01105C64.4391 7.85819 64.9633 10.0028 64.9633 12.4448C64.9633 14.8554 64.4391 17 63.3906 18.8785C62.3422 20.7569 60.9083 22.2284 59.0889 23.2928C57.2695 24.3573 55.2034 24.8895 52.8907 24.8895ZM52.8907 22.7762C54.7409 22.7762 56.4061 22.3536 57.8862 21.5083C59.3664 20.6317 60.5228 19.4107 61.3554 17.8453C62.188 16.2799 62.6043 14.4797 62.6043 12.4448C62.6043 10.3785 62.188 8.57827 61.3554 7.0442C60.5228 5.47882 59.3664 4.27348 57.8862 3.42818C56.4061 2.55156 54.7409 2.11326 52.8907 2.11326C51.0405 2.11326 49.3753 2.55156 47.8951 3.42818C46.4458 4.27348 45.2894 5.47882 44.426 7.0442C43.5934 8.57827 43.1771 10.3785 43.1771 12.4448C43.1771 14.4797 43.5934 16.2799 44.426 17.8453C45.2894 19.4107 46.4458 20.6317 47.8951 21.5083C49.3753 22.3536 51.0405 22.7762 52.8907 22.7762Z" fill="white"/>
<path d="M78.1515 0C80.125 0 81.8365 0.391344 83.2858 1.17403C84.766 1.92541 85.9069 3.08379 86.7087 4.64917C87.5413 6.18324 87.9576 8.093 87.9576 10.3785V24.7017H85.6448V10.5663C85.6448 7.81123 84.951 5.71363 83.5633 4.27348C82.2065 2.83333 80.2946 2.11326 77.8277 2.11326C75.9466 2.11326 74.3123 2.5046 72.9246 3.28729C71.537 4.06998 70.4731 5.16575 69.733 6.57459C69.0238 7.98343 68.6691 9.67403 68.6691 11.6464V24.7017H66.3564V0.187846H68.5766V6.99724L68.2528 6.24586C68.9929 4.30479 70.211 2.78637 71.907 1.69061C73.603 0.563536 75.6845 0 78.1515 0Z" fill="white"/>
<path d="M101.735 34C99.5453 34 97.4639 33.6556 95.4903 32.9668C93.5167 32.2781 91.9132 31.3232 90.6797 30.1022L91.9286 28.3177C93.1313 29.4447 94.5652 30.3214 96.2304 30.9475C97.9264 31.5737 99.7458 31.8867 101.688 31.8867C104.926 31.8867 107.301 31.1197 108.812 29.5856C110.354 28.0516 111.125 25.6409 111.125 22.3536V15.5442L111.587 11.8812L111.217 8.21823V0.187846H113.437V22.0718C113.437 26.1731 112.451 29.1786 110.477 31.0884C108.534 33.0295 105.62 34 101.735 34ZM101.087 23.8094C98.8053 23.8094 96.7546 23.3085 94.9352 22.3066C93.1467 21.2735 91.7128 19.8646 90.6335 18.0801C89.585 16.2643 89.0608 14.198 89.0608 11.8812C89.0608 9.53315 89.585 7.46685 90.6335 5.68232C91.7128 3.89779 93.1467 2.5046 94.9352 1.50276C96.7546 0.500921 98.8053 0 101.087 0C103.277 0 105.235 0.485267 106.962 1.4558C108.719 2.39503 110.107 3.75691 111.125 5.54144C112.142 7.29466 112.651 9.40792 112.651 11.8812C112.651 14.3232 112.142 16.4365 111.125 18.221C110.107 20.0055 108.719 21.3831 106.962 22.3536C105.235 23.3241 103.277 23.8094 101.087 23.8094ZM101.272 21.6961C103.215 21.6961 104.926 21.2891 106.407 20.4751C107.887 19.6298 109.043 18.4715 109.876 17C110.739 15.4972 111.171 13.791 111.171 11.8812C111.171 9.94015 110.739 8.23388 109.876 6.76243C109.043 5.29098 107.887 4.14825 106.407 3.33425C104.926 2.52026 103.215 2.11326 101.272 2.11326C99.3912 2.11326 97.6951 2.52026 96.1841 3.33425C94.704 4.14825 93.5322 5.29098 92.6687 6.76243C91.8361 8.23388 91.4198 9.94015 91.4198 11.8812C91.4198 13.791 91.8361 15.4972 92.6687 17C93.5322 18.4715 94.704 19.6298 96.1841 20.4751C97.6951 21.2891 99.3912 21.6961 101.272 21.6961Z" fill="white"/>
<path d="M126.881 24.8895C124.568 24.8895 122.502 24.3573 120.683 23.2928C118.894 22.2284 117.46 20.7569 116.381 18.8785C115.333 17 114.808 14.8554 114.808 12.4448C114.808 10.0028 115.333 7.85819 116.381 6.01105C117.46 4.1326 118.894 2.66114 120.683 1.59669C122.502 0.532228 124.568 0 126.881 0C129.194 0 131.26 0.532228 133.079 1.59669C134.899 2.66114 136.332 4.1326 137.381 6.01105C138.429 7.85819 138.954 10.0028 138.954 12.4448C138.954 14.8554 138.429 17 137.381 18.8785C136.332 20.7569 134.899 22.2284 133.079 23.2928C131.26 24.3573 129.194 24.8895 126.881 24.8895ZM126.881 22.7762C128.731 22.7762 130.396 22.3536 131.877 21.5083C133.357 20.6317 134.513 19.4107 135.346 17.8453C136.178 16.2799 136.595 14.4797 136.595 12.4448C136.595 10.3785 136.178 8.57827 135.346 7.0442C134.513 5.47882 133.357 4.27348 131.877 3.42818C130.396 2.55156 128.731 2.11326 126.881 2.11326C125.031 2.11326 123.366 2.55156 121.885 3.42818C120.436 4.27348 119.28 5.47882 118.416 7.0442C117.584 8.57827 117.167 10.3785 117.167 12.4448C117.167 14.4797 117.584 16.2799 118.416 17.8453C119.28 19.4107 120.436 20.6317 121.885 21.5083C123.366 22.3536 125.031 22.7762 126.881 22.7762Z" fill="white"/>
<path d="M149.783 24.8895C147.47 24.8895 145.404 24.3573 143.585 23.2928C141.796 22.2284 140.362 20.7569 139.283 18.8785C138.234 17 137.71 14.8554 137.71 12.4448C137.71 10.0028 138.234 7.85819 139.283 6.01105C140.362 4.1326 141.796 2.66114 143.585 1.59669C145.404 0.532228 147.47 0 149.783 0C152.095 0 154.162 0.532228 155.981 1.59669C157.8 2.66114 159.234 4.1326 160.283 6.01105C161.331 7.85819 161.855 10.0028 161.855 12.4448C161.855 14.8554 161.331 17 160.283 18.8785C159.234 20.7569 157.8 22.2284 155.981 23.2928C154.162 24.3573 152.095 24.8895 149.783 24.8895ZM149.783 22.7762C151.633 22.7762 153.298 22.3536 154.778 21.5083C156.258 20.6317 157.415 19.4107 158.247 17.8453C159.08 16.2799 159.496 14.4797 159.496 12.4448C159.496 10.3785 159.08 8.57827 158.247 7.0442C157.415 5.47882 156.258 4.27348 154.778 3.42818C153.298 2.55156 151.633 2.11326 149.783 2.11326C147.933 2.11326 146.267 2.55156 144.787 3.42818C143.338 4.27348 142.181 5.47882 141.318 7.0442C140.485 8.57827 140.069 10.3785 140.069 12.4448C140.069 14.4797 140.485 16.2799 141.318 17.8453C142.181 19.4107 143.338 20.6317 144.787 21.5083C146.267 22.3536 147.933 22.7762 149.783 22.7762Z" fill="white"/>
<path d="M169.354 24.8895C167.35 24.8895 165.469 24.5921 163.711 23.9972C161.984 23.4024 160.643 22.651 159.687 21.7431L160.751 19.8646C161.676 20.6786 162.909 21.3831 164.451 21.9779C165.993 22.5414 167.658 22.8232 169.447 22.8232C171.975 22.8232 173.795 22.4006 174.905 21.5552C176.015 20.7099 176.57 19.5985 176.57 18.221C176.57 17.2192 176.277 16.4365 175.691 15.8729C175.136 15.2781 174.381 14.8241 173.425 14.511C172.469 14.198 171.42 13.9475 170.279 13.7597C169.138 13.5405 167.997 13.3057 166.856 13.0552C165.715 12.8048 164.667 12.4448 163.711 11.9751C162.755 11.5055 161.984 10.8637 161.398 10.0497C160.843 9.20442 160.566 8.093 160.566 6.71547C160.566 5.46317 160.905 4.3361 161.583 3.33425C162.262 2.33241 163.279 1.53407 164.636 0.939226C165.993 0.313075 167.689 0 169.724 0C171.235 0 172.746 0.219153 174.257 0.657458C175.799 1.09576 177.048 1.67495 178.004 2.39503L176.94 4.27348C175.922 3.49079 174.781 2.92726 173.517 2.58287C172.253 2.23849 170.973 2.0663 169.678 2.0663C167.334 2.0663 165.607 2.5046 164.497 3.38121C163.418 4.25783 162.878 5.35359 162.878 6.66851C162.878 7.70166 163.156 8.53131 163.711 9.15746C164.297 9.7523 165.068 10.2219 166.024 10.5663C166.98 10.8794 168.028 11.1455 169.169 11.3646C170.31 11.5525 171.451 11.7716 172.592 12.0221C173.733 12.2726 174.781 12.6326 175.737 13.1022C176.693 13.5405 177.449 14.1667 178.004 14.9807C178.59 15.7634 178.883 16.8278 178.883 18.174C178.883 19.5203 178.513 20.6943 177.773 21.6961C177.063 22.698 175.999 23.4807 174.581 24.0442C173.162 24.6077 171.42 24.8895 169.354 24.8895Z" fill="white"/>
<path d="M189.361 24.8895C186.925 24.8895 184.767 24.3573 182.886 23.2928C181.035 22.2284 179.571 20.7569 178.491 18.8785C177.443 17 176.919 14.8554 176.919 12.4448C176.919 10.0028 177.412 7.85819 178.399 6.01105C179.416 4.1326 180.804 2.66114 182.562 1.59669C184.319 0.532228 186.293 0 188.482 0C190.672 0 192.63 0.516574 194.357 1.54972C196.115 2.58287 197.487 4.03867 198.474 5.91713C199.491 7.76427 200 9.90884 200 12.3508C200 12.4448 199.985 12.5543 199.954 12.6796C199.954 12.7735 199.954 12.8831 199.954 13.0083H178.63V11.1768H198.705L197.78 12.0691C197.811 10.1593 197.41 8.45304 196.577 6.95028C195.775 5.41621 194.681 4.22652 193.293 3.38121C191.905 2.5046 190.302 2.0663 188.482 2.0663C186.694 2.0663 185.09 2.5046 183.672 3.38121C182.284 4.22652 181.19 5.41621 180.388 6.95028C179.586 8.45304 179.185 10.175 179.185 12.116V12.5387C179.185 14.5424 179.617 16.3269 180.48 17.8923C181.375 19.4263 182.593 20.6317 184.134 21.5083C185.676 22.3536 187.434 22.7762 189.408 22.7762C190.949 22.7762 192.383 22.4945 193.709 21.9309C195.066 21.3674 196.207 20.5064 197.132 19.3481L198.474 20.8978C197.425 22.2127 196.099 23.2145 194.496 23.9033C192.923 24.5608 191.212 24.8895 189.361 24.8895Z" fill="white"/>
</svg>
