<svg width="55" height="120" viewBox="0 0 55 120" fill="none" xmlns="http://www.w3.org/2000/svg">
<path d="M27.1238 0.327637L30.332 6.34219C31.0533 7.4521 31.8347 8.43453 32.755 9.34946C35.4534 12.0092 37.9686 14.848 40.2834 17.8463C45.7193 24.9708 49.3858 32.8827 52.0042 41.4396C53.5745 46.6667 54.4272 52.0288 54.4911 57.4509C54.7541 73.6609 49.1867 87.5798 37.9618 99.1477C36.1359 100.982 34.1634 102.665 32.0638 104.18C30.9518 104.18 30.4259 103.329 29.9676 102.545C29.133 101.092 28.5775 99.4958 28.3297 97.8391C27.9352 95.878 27.676 93.9169 27.8037 91.892V90.9771C27.7136 90.7821 26.7331 0.788852 27.1238 0.327637Z" fill="#F1AD4D"/>
<path d="M27.1238 0.129002C26.9923 -0.133479 26.8608 0.0652564 26.7293 0.192747C26.7932 1.50515 26.3349 2.67506 25.6174 3.79248C24.8285 4.90239 23.7841 5.75358 22.736 6.66851C16.9132 11.7006 12.33 17.7789 8.65977 24.5772C3.7761 33.7265 1.25914 43.532 0.545368 53.855C0.218538 57.5785 1.72496 70.7175 2.9008 74.5084C6.10899 84.5727 11.8717 93.0058 19.3362 100.325C21.1695 102.088 23.1305 103.723 25.1591 105.294C25.7488 105.294 25.8127 104.769 25.948 104.379C26.2065 103.544 26.4037 102.692 26.5378 101.829L27.8526 92.0271L27.1238 0.129002Z" fill="#538B9E"/>
<path d="M30.3321 108.162C30.4636 106.662 31.1849 105.417 31.97 104.176C31.1811 103.85 30.5951 103.201 30.1368 102.477C29.7416 101.792 29.4144 101.07 29.16 100.321C28.2434 97.5766 28.0481 94.6968 27.7851 91.892V90.1934C27.4583 90.4558 27.3906 92.6757 27.3906 93.0056C27.1995 95.9701 26.8054 98.918 26.211 101.829C26.0157 103.006 25.8842 104.18 25.1592 105.226C25.1592 105.357 25.1592 105.488 25.223 105.683C26.4026 109.148 26.7257 112.677 26.9248 116.273V117.585C26.9248 119.152 26.861 118.822 28.1645 119.347C28.6904 119.542 29.2765 119.61 29.8024 120C30.1969 120 30.2607 119.674 30.2607 119.411L30.0654 117.255V111.241C30.0015 110.191 30.1969 109.148 30.3284 108.166L30.3321 108.162Z" fill="white"/>
</svg>
