<svg width="120" height="137" viewBox="0 0 120 137" fill="none" xmlns="http://www.w3.org/2000/svg">
<path d="M54.5989 1.73944C57.8616 -0.196533 62.1113 -0.205278 65.3712 1.73944C81.7715 11.346 98.177 20.9374 114.575 30.5498C117.659 32.3507 119.722 35.9088 119.69 39.5927V97.3893C119.713 101.226 117.446 104.869 114.193 106.629C97.8461 116.183 81.5081 125.748 65.1645 135.301C61.8343 137.275 57.4993 137.123 54.2732 134.987C49.3725 132.042 44.4634 129.112 39.5623 126.17C38.5608 125.551 37.4318 125.058 36.7247 124.052C37.3498 123.178 38.4676 123.069 39.3758 122.688C41.4214 122.014 43.3002 120.931 45.1795 119.881C45.6547 119.544 46.2349 119.673 46.6904 119.975C50.8811 122.466 55.0347 125.029 59.2394 127.496C60.1364 128.033 61.0447 127.32 61.8114 126.877C77.8522 117.479 93.9128 108.116 109.951 98.715C110.545 98.4187 110.874 97.7648 110.825 97.09C110.837 78.0242 110.828 58.9549 110.831 39.8891C110.899 39.1234 110.471 38.4195 109.804 38.1061C93.514 28.5963 77.2327 19.0719 60.9458 9.55962C60.6636 9.35851 60.3293 9.25061 59.9869 9.25009C59.6444 9.24957 59.3099 9.35646 59.0271 9.5567C42.7402 19.0719 26.4617 28.605 10.1748 38.1144C9.50936 38.4282 9.06274 39.1205 9.14194 39.8891C9.14475 58.9549 9.14194 78.0242 9.14194 97.0929C9.1137 97.4221 9.18346 97.7525 9.34182 98.0394C9.50019 98.3263 9.73955 98.556 10.0277 98.6976C14.3739 101.252 18.7258 103.789 23.0748 106.336C25.5249 107.703 28.5332 108.515 31.2326 107.467C33.6147 106.582 35.2845 104.062 35.239 101.44C35.2615 82.4854 35.2278 63.5279 35.2559 44.5762C35.1964 43.7348 35.9664 43.0396 36.7556 43.1188C38.8439 43.1042 40.935 43.0896 43.0233 43.1246C43.895 43.1042 44.4948 44.0103 44.387 44.858C44.3786 63.9326 44.4095 83.0077 44.373 102.082C44.3786 107.166 42.3639 112.697 37.8279 115.185C32.2397 118.186 25.3328 117.549 19.8121 114.672C15.0328 112.199 10.472 109.281 5.77752 106.631C2.51527 104.881 0.259666 101.223 0.28263 97.3897V39.5927C0.248419 35.8325 2.39342 32.2098 5.57366 30.4351C21.9173 20.8738 38.2581 11.3052 54.5989 1.73944Z" fill="white"/>
<path d="M68.8566 41.7753C75.9847 41.2997 83.6157 41.4935 90.0301 45.1337C94.9963 47.9233 97.7497 53.7779 97.8373 59.4974C97.6986 60.2688 96.9206 60.6944 96.2101 60.6415C94.142 60.6386 92.0734 60.6706 90.0052 60.6269C89.1279 60.6619 88.6181 59.8234 88.5079 59.0193C87.9137 56.2827 86.474 53.5724 83.9892 52.2524C80.1749 50.2727 75.7523 50.3723 71.593 50.4136C68.5567 50.5807 65.2916 50.8533 62.7192 52.7042C60.7443 54.1063 60.1444 56.9366 60.8493 59.2161C61.5138 60.8528 63.3364 61.3809 64.8276 61.8677C73.4179 64.1967 82.521 63.9649 90.9472 67.0299C94.4358 68.2795 97.8485 70.7085 99.0427 74.495C100.605 79.5698 99.92 85.6357 96.437 89.7098C93.6124 93.0624 89.4986 94.8871 85.3956 95.8782C79.9373 97.1398 74.2728 97.1719 68.7296 96.6117C63.5173 95.9957 58.0932 94.5762 54.0694 90.8947C50.6286 87.7976 48.948 82.972 49.1148 78.3145C49.1547 77.5279 49.9101 76.9795 50.637 77.0441C52.7197 77.0266 54.8023 77.0207 56.885 77.047C57.7168 76.9853 58.3336 77.7305 58.3762 78.5433C58.7605 81.1507 59.7058 83.8873 61.8991 85.4331C66.1319 88.264 71.4431 88.0701 76.2898 88.1493C80.3052 87.9647 84.8126 87.9088 88.0894 85.1577C89.8183 83.5885 90.3305 80.9631 89.8633 78.7046C89.3571 76.7978 87.4328 75.9092 85.7804 75.3282C77.3002 72.5473 68.0955 73.5564 59.6974 70.4117C56.2879 69.1627 52.991 66.8011 51.6811 63.1701C49.8534 58.0312 50.6909 51.6748 54.5389 47.7382C58.2909 43.8225 63.7071 42.3146 68.8566 41.7748V41.7753Z" fill="#F1AD4D"/>
</svg>
