<svg width="120" height="137" viewBox="0 0 120 137" fill="none" xmlns="http://www.w3.org/2000/svg">
<path d="M0 68.5V0H120V137H0" fill="#F1AD4D"/>
<path d="M26.3096 68.7399V74.3227H41.9096V125.013H52.9796V74.3227H68.5796V68.8427C68.5796 65.7602 68.5796 63.2599 68.4596 63.1914C68.4596 63.0887 58.9496 63.0544 47.3996 63.0544L26.3996 63.1572V68.7742L26.3096 68.7399ZM96.4196 63.0202C99.4796 63.8422 101.82 65.4177 103.92 67.9179C105.03 69.2879 106.68 71.6854 106.8 72.3019C106.8 72.5074 101.61 76.5147 98.4596 78.7409C98.3396 78.8437 97.8596 78.2614 97.3796 77.3709C95.8196 74.8364 94.2296 73.7404 91.7396 73.5349C88.1396 73.2609 85.7396 75.4187 85.7396 79.0149C85.7396 80.1109 85.9196 80.7274 86.2796 81.6179C87.0896 83.5017 88.5896 84.6319 93.2396 86.9609C101.82 91.1737 105.54 93.9479 107.79 97.9209C110.34 102.373 110.91 109.36 109.2 114.601C107.28 120.32 102.6 124.191 95.9096 125.458C93.8096 125.869 89.0096 125.8 86.7596 125.355C81.9596 124.328 77.3696 121.588 74.5496 118.06C73.4396 116.69 71.3096 113.025 71.4296 112.785L72.5696 111.963L77.0696 108.984L80.4596 106.723L81.2396 107.922C82.2296 109.703 84.4496 112.1 85.7396 112.922C89.6396 115.217 94.8596 114.909 97.4396 112.237C98.5496 111.073 99.0296 109.84 99.0296 108.127C99.0296 106.552 98.8196 105.833 98.1296 104.634C97.1696 103.127 95.2496 101.894 89.8496 99.1539C83.6396 96.1399 80.9996 94.2219 78.5396 91.2764C77.1296 89.4954 75.8396 86.7212 75.2396 84.4264C74.7896 82.4399 74.6396 77.5764 75.0596 75.6242C76.3496 68.7742 80.8796 63.9792 87.3596 62.6092C89.4596 62.1297 94.4096 62.3352 96.4796 62.9517L96.4196 63.0202Z" fill="white"/>
</svg>
