<svg width="32" height="32" viewBox="0 0 32 32" fill="none" xmlns="http://www.w3.org/2000/svg">
<path fill-rule="evenodd" clip-rule="evenodd" d="M16 29.2C23.2902 29.2 29.2 23.2902 29.2 16C29.2 8.70984 23.2902 2.8 16 2.8C8.70984 2.8 2.8 8.70984 2.8 16C2.8 23.2902 8.70984 29.2 16 29.2ZM16 31C24.2843 31 31 24.2843 31 16C31 7.71573 24.2843 1 16 1C7.71573 1 1 7.71573 1 16C1 24.2843 7.71573 31 16 31Z" stroke="#828282"/>
<path fill-rule="evenodd" clip-rule="evenodd" d="M15.4 10H17.2V16.0772L21.5864 20.4636L20.3136 21.7364L15.4 16.8228V10Z" stroke="#828282"/>
</svg>
