<svg width="41" height="40" viewBox="0 0 41 40" fill="none" xmlns="http://www.w3.org/2000/svg">
<g clip-path="url(#clip0)">
<path d="M11.0902 16.703L7.28876 22.1686C6.52471 21.649 5.61372 21.3769 4.68084 21.3978C3.56091 21.4229 2.49142 21.8684 1.68496 22.6459C0.878495 23.4234 0.394106 24.4759 0.328073 25.5942C0.262041 26.7124 0.6192 27.8146 1.32856 28.6816C2.03792 29.5486 3.04753 30.1169 4.15673 30.2736C5.26592 30.4303 6.39347 30.1639 7.31526 29.5274C8.24858 28.8829 8.8861 27.8291 9.12993 26.7572L9.13477 26.7384C9.13919 26.7209 9.14527 26.6964 9.15239 26.6661C9.16657 26.6057 9.18518 26.5212 9.20321 26.4233C9.23768 26.2361 9.27648 25.9668 9.26455 25.7187C9.23703 25.1461 9.08451 24.541 8.93876 24.1282L12.9955 18.3802C13.3825 18.557 13.7937 18.6775 14.2167 18.7373C14.793 18.8187 15.3797 18.7858 15.9432 18.6404C16.5068 18.495 17.0362 18.24 17.5012 17.8899C17.7561 17.698 17.9889 17.4796 18.1959 17.2388L22.402 23.8786C22.2033 24.5184 22.1513 25.1959 22.2514 25.8604C22.3642 26.609 22.6661 27.3164 23.1287 27.9156C23.5913 28.5148 24.1991 28.986 24.8947 29.2847C25.5903 29.5833 26.3506 29.6995 27.1036 29.6221C27.8566 29.5448 28.5775 29.2766 29.1978 28.8428C29.8182 28.409 30.3176 27.8241 30.6487 27.1433C30.9799 26.4626 31.1318 25.7086 31.09 24.9528C31.0538 24.296 30.8724 23.6567 30.5604 23.0804L33.6573 17.2982C34.2627 17.5936 34.9296 17.7486 35.608 17.7482L35.6779 17.7482L35.7098 17.7391C36.6772 17.7241 37.6141 17.3933 38.3771 16.7961C39.159 16.184 39.7131 15.3273 39.9508 14.3632C40.1885 13.399 40.096 12.383 39.6881 11.4776C39.2803 10.5722 38.5806 9.82967 37.701 9.36881C36.8214 8.90795 35.8126 8.75534 34.8361 8.9354C33.8595 9.11545 32.9715 9.61776 32.3141 10.362C31.6567 11.1063 31.2678 12.0495 31.2096 13.0408C31.1576 13.9281 31.3732 14.8081 31.8248 15.5681L28.7758 21.2612C27.9955 20.8381 27.1018 20.6568 26.2101 20.7482C25.3397 20.8374 24.52 21.1814 23.8505 21.7304L19.2542 14.7729C19.2703 14.6265 19.2794 14.4794 19.2814 14.332L19.2814 14.332L19.2814 14.3263C19.2829 13.6206 19.1164 12.9248 18.7955 12.2963C18.4746 11.6678 18.0086 11.1248 17.4361 10.7122C16.8637 10.2996 16.2012 10.0293 15.5035 9.92365C14.8058 9.818 14.0929 9.88005 13.424 10.1047C12.755 10.3293 12.1492 10.71 11.6566 11.2153C11.164 11.7206 10.7989 12.3359 10.5914 13.0104C10.3839 13.6849 10.3401 14.3991 10.4635 15.0938C10.5654 15.6672 10.7787 16.2138 11.0902 16.703Z" stroke="#828282"/>
<circle cx="4.85007" cy="25.7876" r="2.05319" stroke="#828282"/>
<path d="M28.6904 25.1914C28.6904 26.3253 27.7711 27.2446 26.6372 27.2446C25.5032 27.2446 24.584 26.3253 24.584 25.1914C24.584 24.0574 25.5032 23.1382 26.6372 23.1382C27.7711 23.1382 28.6904 24.0574 28.6904 25.1914Z" stroke="#828282"/>
<circle cx="14.893" cy="14.2978" r="2.05319" stroke="#828282"/>
<path d="M37.6279 13.1914C37.6279 14.3253 36.7086 15.2446 35.5747 15.2446C34.4407 15.2446 33.5215 14.3253 33.5215 13.1914C33.5215 12.0574 34.4407 11.1382 35.5747 11.1382C36.7086 11.1382 37.6279 12.0574 37.6279 13.1914Z" stroke="#828282"/>
</g>
<defs>
<clipPath id="clip0">
<rect width="40.8511" height="40" fill="white"/>
</clipPath>
</defs>
</svg>
