<svg width="28" height="39" viewBox="0 0 28 39" fill="none" xmlns="http://www.w3.org/2000/svg">
<path d="M13.6643 13.1667H13.1643V13.6667V31.1667C13.1643 34.1106 10.7753 36.5 7.83217 36.5C4.88905 36.5 2.5 34.1106 2.5 31.1667C2.5 29.0272 3.76185 27.1793 5.58369 26.3298C6.26648 26.0114 7.02801 25.8333 7.83217 25.8333V25.3333V24.8333C7.02801 24.8333 6.26648 24.6553 5.5837 24.3369C3.76185 23.4874 2.5 21.6395 2.5 19.5C2.5 17.3605 3.76185 15.5126 5.5837 14.6631C6.26649 14.3447 7.02801 14.1667 7.83217 14.1667V13.6667V13.1667C7.02801 13.1667 6.26649 12.9886 5.58371 12.6702C3.76192 11.8207 2.50014 9.97283 2.50014 7.83333C2.50014 4.88938 4.88919 2.5 7.83231 2.5H19.4966C22.4397 2.5 24.8287 4.88938 24.8287 7.83333C24.8287 9.97283 23.5669 11.8207 21.745 12.6702C21.0622 12.9886 20.3007 13.1667 19.4966 13.1667L13.6643 13.1667ZM16.512 15.0806C17.3637 14.5037 18.3904 14.1667 19.4966 14.1667C20.3007 14.1667 21.0622 14.3447 21.745 14.6631C23.5669 15.5126 24.8287 17.3605 24.8287 19.5C24.8287 22.4439 22.4397 24.8333 19.4966 24.8333C17.6597 24.8333 16.0383 23.9031 15.0783 22.4855C14.5014 21.6335 14.1644 20.6066 14.1644 19.5C14.1644 18.3934 14.5014 17.3665 15.0783 16.5145C15.4605 15.9502 15.9478 15.4628 16.512 15.0806ZM15.1643 31.1667V25.4159C16.3781 26.3066 17.8763 26.8333 19.4966 26.8333C23.5446 26.8333 26.8287 23.5481 26.8287 19.5C26.8287 17.121 25.6943 15.0062 23.9391 13.6667C25.6943 12.3272 26.8287 10.2123 26.8287 7.83333C26.8287 3.78519 23.5446 0.5 19.4966 0.5H7.83231C3.78424 0.5 0.500142 3.78519 0.500142 7.83333C0.500142 10.2123 1.63447 12.3271 3.3896 13.6666C1.63441 15.0061 0.5 17.121 0.5 19.5C0.5 21.879 1.6344 23.9938 3.38958 25.3333C1.6344 26.6728 0.5 28.7877 0.5 31.1667C0.5 35.2148 3.7841 38.5 7.83217 38.5C11.8802 38.5 15.1643 35.2148 15.1643 31.1667Z" stroke="#828282"/>
</svg>
