<svg width="82" height="82" viewBox="0 0 82 82" fill="none" xmlns="http://www.w3.org/2000/svg">
<path fill-rule="evenodd" clip-rule="evenodd" d="M81 54.4641L72.2693 69.5861L54.8079 69.5861L46.0772 54.4641L54.8079 39.342L72.2693 39.342L81 54.4641ZM70.7927 41.8996L56.2845 41.8996L49.0304 54.4641L56.2845 67.0285L70.7927 67.0285L78.0468 54.4641L70.7927 41.8996Z" stroke="#828282"/>
<path fill-rule="evenodd" clip-rule="evenodd" d="M63.0981 52.7088C64.3006 52.7088 65.2755 51.7339 65.2755 50.5314C65.2755 49.3288 64.3006 48.354 63.0981 48.354C61.8955 48.354 60.9207 49.3288 60.9207 50.5314C60.9207 51.7339 61.8955 52.7088 63.0981 52.7088ZM63.0981 54.3677C65.2168 54.3677 66.9344 52.6501 66.9344 50.5314C66.9344 48.4126 65.2168 46.695 63.0981 46.695C60.9793 46.695 59.2617 48.4126 59.2617 50.5314C59.2617 52.6501 60.9793 54.3677 63.0981 54.3677Z" fill="#828282"/>
<path fill-rule="evenodd" clip-rule="evenodd" d="M68.164 60.362C67.916 59.6606 67.5133 59.0161 66.9772 58.48C66.0329 57.5357 64.7522 57.0052 63.4167 57.0052C62.0813 57.0052 60.8006 57.5357 59.8563 58.48C59.3202 59.0161 58.9175 59.6606 58.6695 60.362L63.4167 60.362H68.164ZM69.9172 60.362C69.6199 59.2106 69.0192 58.1484 68.164 57.2932C66.9049 56.0341 65.1973 55.3268 63.4167 55.3268C61.6362 55.3268 59.9285 56.0341 58.6695 57.2932C57.8143 58.1484 57.2136 59.2106 56.9163 60.362C56.7759 60.9057 56.7031 61.4693 56.7031 62.0404L63.4167 62.0404L70.1304 62.0404C70.1304 61.4693 70.0576 60.9057 69.9172 60.362Z" fill="#828282"/>
<path fill-rule="evenodd" clip-rule="evenodd" d="M18.018 64.2178C19.2205 64.2178 20.1954 63.243 20.1954 62.0405C20.1954 60.8379 19.2205 59.8631 18.018 59.8631C16.8155 59.8631 15.8406 60.8379 15.8406 62.0405C15.8406 63.243 16.8155 64.2178 18.018 64.2178ZM18.018 65.8768C20.1368 65.8768 21.8543 64.1592 21.8543 62.0405C21.8543 59.9217 20.1368 58.2041 18.018 58.2041C15.8992 58.2041 14.1816 59.9217 14.1816 62.0405C14.1816 64.1592 15.8992 65.8768 18.018 65.8768Z" fill="#828282"/>
<path fill-rule="evenodd" clip-rule="evenodd" d="M23.0859 71.8711C22.8379 71.1697 22.4351 70.5252 21.8991 69.9891C20.9548 69.0448 19.674 68.5143 18.3386 68.5143C17.0032 68.5143 15.7225 69.0448 14.7782 69.9891C14.2421 70.5252 13.8394 71.1697 13.5914 71.8711L18.3386 71.8711L23.0859 71.8711ZM24.8391 71.8711C24.5417 70.7197 23.9411 69.6575 23.0859 68.8023C21.8268 67.5432 20.1192 66.8359 18.3386 66.8359C16.5581 66.8359 14.8504 67.5432 13.5914 68.8022C12.7362 69.6575 12.1355 70.7197 11.8382 71.8711C11.6978 72.4148 11.625 72.9784 11.625 73.5495L18.3386 73.5495L25.0522 73.5495C25.0522 72.9784 24.9795 72.4148 24.8391 71.8711Z" fill="#828282"/>
<path fill-rule="evenodd" clip-rule="evenodd" d="M31.766 14.6649C32.9686 14.6649 33.9434 13.69 33.9434 12.4875C33.9434 11.2849 32.9686 10.3101 31.766 10.3101C30.5635 10.3101 29.5887 11.2849 29.5887 12.4875C29.5887 13.69 30.5635 14.6649 31.766 14.6649ZM31.766 16.3238C33.8848 16.3238 35.6024 14.6062 35.6024 12.4875C35.6024 10.3687 33.8848 8.65112 31.766 8.65112C29.6473 8.65112 27.9297 10.3687 27.9297 12.4875C27.9297 14.6062 29.6473 16.3238 31.766 16.3238Z" fill="#828282"/>
<path fill-rule="evenodd" clip-rule="evenodd" d="M36.8339 22.3182C36.5859 21.6168 36.1832 20.9722 35.6471 20.4361C34.7028 19.4919 33.4221 18.9614 32.0867 18.9614C30.7512 18.9614 29.4705 19.4919 28.5262 20.4361C27.9901 20.9722 27.5874 21.6168 27.3394 22.3182L32.0867 22.3182L36.8339 22.3182ZM38.5871 22.3182C38.2898 21.1667 37.6891 20.1045 36.8339 19.2493C35.5749 17.9903 33.8672 17.283 32.0867 17.283C30.3061 17.283 28.5985 17.9903 27.3394 19.2493C26.4842 20.1045 25.8835 21.1667 25.5862 22.3182C25.4458 22.8619 25.373 23.4255 25.373 23.9966L32.0867 23.9966L38.8003 23.9966C38.8003 23.4255 38.7275 22.8619 38.5871 22.3182Z" fill="#828282"/>
<path fill-rule="evenodd" clip-rule="evenodd" d="M49.6699 16.4202L40.9392 31.5422L23.4778 31.5422L14.7471 16.4202L23.4778 1.29816L40.9392 1.29816L49.6699 16.4202ZM39.4626 3.85573L24.9544 3.85572L17.7003 16.4202L24.9544 28.9847L39.4626 28.9847L46.7167 16.4202L39.4626 3.85573Z" stroke="#828282"/>
<path fill-rule="evenodd" clip-rule="evenodd" d="M35.9238 65.973L27.1931 81.0951L9.7317 81.0951L1.00099 65.973L9.7317 50.851L27.1931 50.851L35.9238 65.973ZM25.7165 53.4086L11.2083 53.4086L3.95421 65.973L11.2083 78.5375L25.7165 78.5375L32.9706 65.973L25.7165 53.4086Z" stroke="#828282"/>
<path d="M45.0344 24.4761L54.7852 39.342" stroke="#828282"/>
<path d="M50.7891 62.8397L35.9232 66.0366" stroke="#828282"/>
</svg>
