<svg width="42" height="42" viewBox="0 0 42 42" fill="none" xmlns="http://www.w3.org/2000/svg">
<path d="M21.6965 13C21.1442 13 20.677 13.4473 20.653 13.9991L20.3918 19.9934H14.3918C13.8395 19.9934 13.3723 20.4407 13.3483 20.9924C13.3242 21.5442 13.7524 21.9915 14.3047 21.9915H20.3047L20.0435 27.9858C20.0195 28.5375 20.4477 28.9848 21 28.9848C21.5523 28.9848 22.0195 28.5375 22.0435 27.9858L22.3047 21.9915H28.3047C28.857 21.9915 29.3242 21.5442 29.3483 20.9924C29.3723 20.4407 28.9441 19.9934 28.3918 19.9934H22.3918L22.653 13.9991C22.677 13.4473 22.2488 13 21.6965 13Z" fill="#FFFFFF1A"/>
</svg>
