<svg width="768" height="1024" viewBox="0 0 768 1024" fill="none" xmlns="http://www.w3.org/2000/svg">
<rect width="768" height="1024" fill="url(#paint0_linear_1303_2484)"/>
<path d="M806 20C806 53.1371 779.137 80 746 80C712.863 80 686 53.1371 686 20C686 -13.1371 712.863 -40 746 -40C779.137 -40 806 -13.1371 806 20ZM712.4 20C712.4 38.5568 727.443 53.6 746 53.6C764.557 53.6 779.6 38.5568 779.6 20C779.6 1.44323 764.557 -13.6 746 -13.6C727.443 -13.6 712.4 1.44323 712.4 20Z" fill="white"/>
<path d="M692 118C692 134.569 678.569 148 662 148C645.431 148 632 134.569 632 118C632 101.431 645.431 88 662 88C678.569 88 692 101.431 692 118ZM645.2 118C645.2 127.278 652.722 134.8 662 134.8C671.278 134.8 678.8 127.278 678.8 118C678.8 108.722 671.278 101.2 662 101.2C652.722 101.2 645.2 108.722 645.2 118Z" fill="#CEECF6"/>
<defs>
<linearGradient id="paint0_linear_1303_2484" x1="768" y1="-62.4833" x2="110.629" y2="184.676" gradientUnits="userSpaceOnUse">
<stop stop-color="#0A82AA"/>
<stop offset="1" stop-color="#08566F"/>
</linearGradient>
</defs>
</svg>
