<svg width="1366" height="1953" viewBox="0 0 1366 1953" fill="none" xmlns="http://www.w3.org/2000/svg">
<mask id="mask0_544_8186" style="mask-type:alpha" maskUnits="userSpaceOnUse" x="0" y="57" width="1366" height="1896">
<rect y="57" width="1366" height="1896" fill="#D9D9D9"/>
</mask>
<g mask="url(#mask0_544_8186)">
<path d="M-6919.47 4520.78C-6942.61 4560.22 -6928.05 4611 -6887.53 4632.17L-2684.7 6828.6C-2661.02 6840.98 -2632.72 6840.72 -2609.27 6827.9L2428.42 4073.7C2461.26 4055.74 2477.26 4017.42 2466.94 3981.45L1358.4 115.514C1348.09 79.5394 1314.21 55.5238 1276.85 57.6999L-4454.86 391.574C-4481.54 393.128 -4505.68 407.9 -4519.2 430.947L-6919.47 4520.78Z" fill="url(#paint0_linear_544_8186)"/>
</g>
<path d="M1156 80C1156 124.183 1120.18 160 1076 160C1031.82 160 996 124.183 996 80C996 35.8172 1031.82 0 1076 0C1120.18 0 1156 35.8172 1156 80ZM1031.2 80C1031.2 104.742 1051.26 124.8 1076 124.8C1100.74 124.8 1120.8 104.742 1120.8 80C1120.8 55.2576 1100.74 35.2 1076 35.2C1051.26 35.2 1031.2 55.2576 1031.2 80Z" fill="white"/>
<path d="M1273 213C1273 235.091 1255.09 253 1233 253C1210.91 253 1193 235.091 1193 213C1193 190.909 1210.91 173 1233 173C1255.09 173 1273 190.909 1273 213ZM1210.6 213C1210.6 225.371 1220.63 235.4 1233 235.4C1245.37 235.4 1255.4 225.371 1255.4 213C1255.4 200.629 1245.37 190.6 1233 190.6C1220.63 190.6 1210.6 200.629 1210.6 213Z" fill="#CEECF6"/>
<path d="M120 1839C120 1883.18 84.1828 1919 40 1919C-4.18278 1919 -40 1883.18 -40 1839C-40 1794.82 -4.18278 1759 40 1759C84.1828 1759 120 1794.82 120 1839ZM-4.8 1839C-4.8 1863.74 15.2576 1883.8 40 1883.8C64.7424 1883.8 84.8 1863.74 84.8 1839C84.8 1814.26 64.7424 1794.2 40 1794.2C15.2576 1794.2 -4.8 1814.26 -4.8 1839Z" fill="#CEECF6"/>
<defs>
<linearGradient id="paint0_linear_544_8186" x1="-1069.18" y1="4930.3" x2="1230.58" y2="5.55113" gradientUnits="userSpaceOnUse">
<stop stop-color="#0A82AA"/>
<stop offset="0.47555" stop-color="#07556E"/>
</linearGradient>
</defs>
</svg>
