<svg width="375" height="492" viewBox="0 0 375 492" fill="none" xmlns="http://www.w3.org/2000/svg">
<mask id="mask0_240_4617" style="mask-type:alpha" maskUnits="userSpaceOnUse" x="0" y="0" width="375" height="468">
<rect width="375" height="468" fill="#D9D9D9"/>
</mask>
<g mask="url(#mask0_240_4617)">
<path d="M1906.19 352.854C1947.6 350.324 1980.2 316.563 1981.29 275.093L2030.32 -1601.84C2031.1 -1631.38 2015.52 -1658.94 1989.81 -1673.52L122.599 -2732.31C90.8511 -2750.31 50.9439 -2744.54 25.591 -2718.29L-1153.62 -1497.18C-1178.97 -1470.93 -1183.34 -1430.85 -1164.24 -1399.75L-40.9321 429.379C-25.4671 454.561 2.62104 469.166 32.118 467.364L1906.19 352.854Z" fill="url(#paint0_linear_240_4617)"/>
</g>
<path d="M25 431C25 436.523 20.5228 441 15 441C9.47715 441 5 436.523 5 431C5 425.477 9.47715 421 15 421C20.5228 421 25 425.477 25 431ZM9.4 431C9.4 434.093 11.9072 436.6 15 436.6C18.0928 436.6 20.6 434.093 20.6 431C20.6 427.907 18.0928 425.4 15 425.4C11.9072 425.4 9.4 427.907 9.4 431Z" fill="#CEECF6"/>
<path d="M83 467C83 480.807 71.8071 492 58 492C44.1929 492 33 480.807 33 467C33 453.193 44.1929 442 58 442C71.8071 442 83 453.193 83 467ZM44 467C44 474.732 50.268 481 58 481C65.732 481 72 474.732 72 467C72 459.268 65.732 453 58 453C50.268 453 44 459.268 44 467Z" fill="white"/>
<defs>
<linearGradient id="paint0_linear_240_4617" x1="-428.949" y1="742.617" x2="257.991" y2="-390.751" gradientUnits="userSpaceOnUse">
<stop stop-color="#0A82AA"/>
<stop offset="1" stop-color="#08566F"/>
</linearGradient>
</defs>
</svg>
