<svg width="375" height="859" viewBox="0 0 375 859" fill="none" xmlns="http://www.w3.org/2000/svg">
<mask id="mask0_1367_9661" style="mask-type:alpha" maskUnits="userSpaceOnUse" x="0" y="23" width="375" height="836">
<rect y="23" width="375" height="836" fill="#D9D9D9"/>
</mask>
<g mask="url(#mask0_1367_9661)">
<path d="M-7763.67 4629.55C-7786.12 4669.39 -7770.67 4719.9 -7729.79 4740.37L-3489.27 6863.12C-3465.37 6875.08 -3437.08 6874.32 -3413.86 6861.09L1574.99 4019.39C1607.51 4000.87 1622.84 3962.28 1611.9 3926.49L436.062 80.4864C425.12 44.6976 390.829 21.277 353.513 24.1048L-5371.5 457.961C-5398.14 459.98 -5422.02 475.17 -5435.14 498.45L-7763.67 4629.55Z" fill="url(#paint0_linear_1367_9661)"/>
</g>
<path d="M305 30C305 46.5685 291.569 60 275 60C258.431 60 245 46.5685 245 30C245 13.4315 258.431 0 275 0C291.569 0 305 13.4315 305 30ZM258.2 30C258.2 39.2784 265.722 46.8 275 46.8C284.278 46.8 291.8 39.2784 291.8 30C291.8 20.7216 284.278 13.2 275 13.2C265.722 13.2 258.2 20.7216 258.2 30Z" fill="white"/>
<path d="M345 74C345 82.2843 338.284 89 330 89C321.716 89 315 82.2843 315 74C315 65.7157 321.716 59 330 59C338.284 59 345 65.7157 345 74ZM321.6 74C321.6 78.6392 325.361 82.4 330 82.4C334.639 82.4 338.4 78.6392 338.4 74C338.4 69.3608 334.639 65.6 330 65.6C325.361 65.6 321.6 69.3608 321.6 74Z" fill="#CEECF6"/>
<defs>
<linearGradient id="paint0_linear_1367_9661" x1="-1907.12" y1="4936.9" x2="306.34" y2="-27.2285" gradientUnits="userSpaceOnUse">
<stop stop-color="#0A82AA"/>
<stop offset="0.47555" stop-color="#07556E"/>
</linearGradient>
</defs>
</svg>
