<svg width="768" height="1522" viewBox="0 0 768 1522" fill="none" xmlns="http://www.w3.org/2000/svg">
<path d="M-498.276 965.84C-539.678 963.307 -572.278 929.549 -573.364 888.084L-597.82 -45.4959C-598.594 -75.0408 -583.016 -102.605 -557.306 -117.183L384.301 -651.072C415.516 -668.771 454.698 -663.519 480.151 -638.226L1198.51 75.6492C1228.23 105.182 1230.13 152.642 1202.87 184.454L507.712 995.573C491.398 1014.61 467.105 1024.89 442.083 1023.36L-498.276 965.84Z" fill="url(#paint0_linear_544_8372)"/>
<path d="M64.3145 983.462C64.3145 1016.6 37.4515 1043.46 4.31445 1043.46C-28.8226 1043.46 -55.6855 1016.6 -55.6855 983.462C-55.6855 950.325 -28.8226 923.462 4.31445 923.462C37.4515 923.462 64.3145 950.325 64.3145 983.462ZM-29.2855 983.462C-29.2855 1002.02 -14.2423 1017.06 4.31445 1017.06C22.8712 1017.06 37.9145 1002.02 37.9145 983.462C37.9145 964.906 22.8712 949.862 4.31445 949.862C-14.2423 949.862 -29.2855 964.906 -29.2855 983.462Z" fill="white"/>
<path d="M846.996 151.999C846.996 196.182 811.179 231.999 766.996 231.999C722.813 231.999 686.996 196.182 686.996 151.999C686.996 107.816 722.813 71.999 766.996 71.999C811.179 71.999 846.996 107.816 846.996 151.999ZM722.196 151.999C722.196 176.741 742.254 196.799 766.996 196.799C791.738 196.799 811.796 176.741 811.796 151.999C811.796 127.257 791.738 107.199 766.996 107.199C742.254 107.199 722.196 127.257 722.196 151.999Z" fill="#CEECF6"/>
<defs>
<linearGradient id="paint0_linear_544_8372" x1="-701.577" y1="1200.39" x2="709.667" y2="113.413" gradientUnits="userSpaceOnUse">
<stop stop-color="#0A82AA"/>
<stop offset="0.40238" stop-color="#07556E"/>
</linearGradient>
</defs>
</svg>
