<svg width="1366" height="717" viewBox="0 0 1366 717" fill="none" xmlns="http://www.w3.org/2000/svg">
<g clip-path="url(#clip0_544_8323)">
<mask id="mask0_544_8323" style="mask-type:alpha" maskUnits="userSpaceOnUse" x="-1530" y="65" width="3272" height="2372">
<path d="M-1518.81 1582.9C-1541.96 1622.33 -1527.4 1673.11 -1486.87 1694.29L-84.0469 2427.42C-60.3632 2439.8 -32.0636 2439.53 -8.61635 2426.71L1699.48 1492.86C1732.32 1474.91 1748.32 1436.59 1738 1400.62L1371.66 123.018C1361.34 87.0438 1327.47 63.0281 1290.1 65.2044L-653.308 178.407C-679.986 179.961 -704.126 194.732 -717.652 217.779L-1518.81 1582.9Z" fill="url(#paint0_linear_544_8323)"/>
</mask>
<g mask="url(#mask0_544_8323)">
<rect y="64.8843" width="1366" height="652" fill="url(#paint1_linear_544_8323)"/>
</g>
</g>
<path d="M1144 80C1144 124.183 1108.18 160 1064 160C1019.82 160 984 124.183 984 80C984 35.8172 1019.82 0 1064 0C1108.18 0 1144 35.8172 1144 80ZM1019.2 80C1019.2 104.742 1039.26 124.8 1064 124.8C1088.74 124.8 1108.8 104.742 1108.8 80C1108.8 55.2576 1088.74 35.2 1064 35.2C1039.26 35.2 1019.2 55.2576 1019.2 80Z" fill="white"/>
<path d="M1266 175C1266 197.091 1248.09 215 1226 215C1203.91 215 1186 197.091 1186 175C1186 152.909 1203.91 135 1226 135C1248.09 135 1266 152.909 1266 175ZM1203.6 175C1203.6 187.371 1213.63 197.4 1226 197.4C1238.37 197.4 1248.4 187.371 1248.4 175C1248.4 162.629 1238.37 152.6 1226 152.6C1213.63 152.6 1203.6 162.629 1203.6 175Z" fill="#CEECF6"/>
<defs>
<linearGradient id="paint0_linear_544_8323" x1="349.704" y1="543.918" x2="1349.13" y2="68.1821" gradientUnits="userSpaceOnUse">
<stop stop-color="#0A82AA"/>
<stop offset="0.826624" stop-color="#07556E"/>
</linearGradient>
<linearGradient id="paint1_linear_544_8323" x1="1366" y1="25.1" x2="731.456" y2="691.555" gradientUnits="userSpaceOnUse">
<stop stop-color="#0A82AA"/>
<stop offset="1" stop-color="#08566F"/>
</linearGradient>
<clipPath id="clip0_544_8323">
<rect width="1366" height="652" fill="white" transform="translate(0 65)"/>
</clipPath>
</defs>
</svg>
