<svg width="768" height="1045" viewBox="0 0 768 1045" fill="none" xmlns="http://www.w3.org/2000/svg">
<mask id="mask0_544_8419" style="mask-type:alpha" maskUnits="userSpaceOnUse" x="0" y="49" width="768" height="996">
<rect y="49" width="768" height="996" fill="#D9D9D9"/>
</mask>
<g mask="url(#mask0_544_8419)">
<path d="M-7495.47 4512.78C-7518.61 4552.22 -7504.05 4603 -7463.53 4624.17L-3260.7 6820.6C-3237.02 6832.98 -3208.72 6832.72 -3185.27 6819.9L1852.42 4065.7C1885.26 4047.74 1901.26 4009.42 1890.94 3973.45L782.405 107.514C772.089 71.5394 738.212 47.5238 700.852 49.6999L-5030.86 383.574C-5057.54 385.128 -5081.68 399.9 -5095.2 422.947L-7495.47 4512.78Z" fill="url(#paint0_linear_544_8419)"/>
</g>
<path d="M660 60C660 93.1371 633.137 120 600 120C566.863 120 540 93.1371 540 60C540 26.8629 566.863 0 600 0C633.137 0 660 26.8629 660 60ZM566.4 60C566.4 78.5568 581.443 93.6 600 93.6C618.557 93.6 633.6 78.5568 633.6 60C633.6 41.4432 618.557 26.4 600 26.4C581.443 26.4 566.4 41.4432 566.4 60Z" fill="white"/>
<path d="M738 131C738 147.569 724.569 161 708 161C691.431 161 678 147.569 678 131C678 114.431 691.431 101 708 101C724.569 101 738 114.431 738 131ZM691.2 131C691.2 140.278 698.722 147.8 708 147.8C717.278 147.8 724.8 140.278 724.8 131C724.8 121.722 717.278 114.2 708 114.2C698.722 114.2 691.2 121.722 691.2 131Z" fill="#CEECF6"/>
<defs>
<linearGradient id="paint0_linear_544_8419" x1="-1645.18" y1="4922.3" x2="654.582" y2="-2.44887" gradientUnits="userSpaceOnUse">
<stop stop-color="#0A82AA"/>
<stop offset="0.47555" stop-color="#07556E"/>
</linearGradient>
</defs>
</svg>
