<svg width="768" height="923" viewBox="0 0 768 923" fill="none" xmlns="http://www.w3.org/2000/svg">
<mask id="mask0_544_8503" style="mask-type:alpha" maskUnits="userSpaceOnUse" x="0" y="0" width="768" height="862">
<rect width="768" height="862" fill="#D9D9D9"/>
</mask>
<g mask="url(#mask0_544_8503)">
<path d="M1954.42 779.532C1995.86 777.725 2029.05 744.537 2030.86 703.092L2112.64 -1172.7C2113.93 -1202.22 2098.83 -1230.05 2073.39 -1245.07L224.936 -2336.29C193.507 -2354.84 153.505 -2349.77 127.698 -2323.97L-1072.64 -1123.63C-1098.45 -1097.82 -1103.52 -1057.82 -1084.97 -1026.39L6.25086 822.062C21.274 847.51 49.103 862.604 78.6268 861.317L1954.42 779.532Z" fill="url(#paint0_linear_544_8503)"/>
</g>
<path d="M72 769C72 785.569 58.5685 799 42 799C25.4315 799 12 785.569 12 769C12 752.431 25.4315 739 42 739C58.5685 739 72 752.431 72 769ZM25.2 769C25.2 778.278 32.7216 785.8 42 785.8C51.2784 785.8 58.8 778.278 58.8 769C58.8 759.722 51.2784 752.2 42 752.2C32.7216 752.2 25.2 759.722 25.2 769Z" fill="#CEECF6"/>
<path d="M180 863C180 896.137 153.137 923 120 923C86.8629 923 60 896.137 60 863C60 829.863 86.8629 803 120 803C153.137 803 180 829.863 180 863ZM86.4 863C86.4 881.557 101.443 896.6 120 896.6C138.557 896.6 153.6 881.557 153.6 863C153.6 844.443 138.557 829.4 120 829.4C101.443 829.4 86.4 844.443 86.4 863Z" fill="white"/>
<defs>
<linearGradient id="paint0_linear_544_8503" x1="-387.174" y1="1128.48" x2="319.442" y2="7.2749" gradientUnits="userSpaceOnUse">
<stop stop-color="#0A82AA"/>
<stop offset="1" stop-color="#08566F"/>
</linearGradient>
</defs>
</svg>
