<svg width="1920" height="987" viewBox="0 0 1920 987" fill="none" xmlns="http://www.w3.org/2000/svg">
<mask id="mask0_240_4384" style="mask-type:alpha" maskUnits="userSpaceOnUse" x="0" y="0" width="1920" height="895">
<rect width="1920" height="895" fill="#D9D9D9"/>
</mask>
<g mask="url(#mask0_240_4384)">
<path d="M1978.19 779.854C2019.6 777.324 2052.2 743.563 2053.29 702.093L2102.32 -1174.84C2103.1 -1204.38 2087.52 -1231.94 2061.81 -1246.52L194.599 -2305.31C162.851 -2323.31 122.944 -2317.54 97.591 -2291.29L-1081.62 -1070.18C-1106.97 -1043.93 -1111.34 -1003.85 -1092.24 -972.746L31.0679 856.379C46.5329 881.561 74.621 896.166 104.118 894.364L1978.19 779.854Z" fill="url(#paint0_linear_240_4384)"/>
</g>
<path d="M180 687C180 720.137 153.137 747 120 747C86.8629 747 60 720.137 60 687C60 653.863 86.8629 627 120 627C153.137 627 180 653.863 180 687ZM86.4 687C86.4 705.557 101.443 720.6 120 720.6C138.557 720.6 153.6 705.557 153.6 687C153.6 668.443 138.557 653.4 120 653.4C101.443 653.4 86.4 668.443 86.4 687Z" fill="#CEECF6"/>
<path d="M420 867C420 933.274 366.274 987 300 987C233.726 987 180 933.274 180 867C180 800.726 233.726 747 300 747C366.274 747 420 800.726 420 867ZM232.8 867C232.8 904.114 262.886 934.2 300 934.2C337.114 934.2 367.2 904.114 367.2 867C367.2 829.886 337.114 799.8 300 799.8C262.886 799.8 232.8 829.886 232.8 867Z" fill="white"/>
<defs>
<linearGradient id="paint0_linear_240_4384" x1="-356.949" y1="1169.62" x2="329.991" y2="36.2494" gradientUnits="userSpaceOnUse">
<stop stop-color="#0A82AA"/>
<stop offset="1" stop-color="#08566F"/>
</linearGradient>
</defs>
</svg>
