<svg width="1920" height="975" viewBox="0 0 1920 975" fill="none" xmlns="http://www.w3.org/2000/svg">
<g clip-path="url(#clip0_240_4445)">
<mask id="mask0_240_4445" style="mask-type:alpha" maskUnits="userSpaceOnUse" x="-986" y="97" width="3268" height="2395">
<path d="M-975.344 1664C-997.796 1703.83 -982.352 1754.35 -941.463 1774.82L473.945 2483.35C497.841 2495.32 526.131 2494.56 549.351 2481.33L2240.89 1517.81C2273.41 1499.29 2288.74 1460.7 2277.8 1424.91L1889.21 153.895C1878.27 118.107 1843.98 94.6859 1806.66 97.5138L-134.481 244.616C-161.127 246.636 -185.006 261.826 -198.127 285.106L-975.344 1664Z" fill="url(#paint0_linear_240_4445)"/>
</mask>
<g mask="url(#mask0_240_4445)">
<rect y="96.8604" width="1920" height="878" fill="url(#paint1_linear_240_4445)"/>
</g>
</g>
<path d="M1616 120C1616 186.274 1562.27 240 1496 240C1429.73 240 1376 186.274 1376 120C1376 53.7258 1429.73 0 1496 0C1562.27 0 1616 53.7258 1616 120ZM1428.8 120C1428.8 157.114 1458.89 187.2 1496 187.2C1533.11 187.2 1563.2 157.114 1563.2 120C1563.2 82.8865 1533.11 52.8 1496 52.8C1458.89 52.8 1428.8 82.8865 1428.8 120Z" fill="white"/>
<path d="M1794 283C1794 316.137 1767.14 343 1734 343C1700.86 343 1674 316.137 1674 283C1674 249.863 1700.86 223 1734 223C1767.14 223 1794 249.863 1794 283ZM1700.4 283C1700.4 301.557 1715.44 316.6 1734 316.6C1752.56 316.6 1767.6 301.557 1767.6 283C1767.6 264.443 1752.56 249.4 1734 249.4C1715.44 249.4 1700.4 264.443 1700.4 283Z" fill="#CEECF6"/>
<defs>
<linearGradient id="paint0_linear_240_4445" x1="874.757" y1="592.567" x2="1865.73" y2="99.4609" gradientUnits="userSpaceOnUse">
<stop stop-color="#0A82AA"/>
<stop offset="0.826624" stop-color="#07556E"/>
</linearGradient>
<linearGradient id="paint1_linear_240_4445" x1="1920" y1="43.2858" x2="1068.08" y2="977.212" gradientUnits="userSpaceOnUse">
<stop stop-color="#0A82AA"/>
<stop offset="1" stop-color="#08566F"/>
</linearGradient>
<clipPath id="clip0_240_4445">
<rect width="1920" height="878" fill="white" transform="translate(0 97)"/>
</clipPath>
</defs>
</svg>
