<svg width="1920" height="2317" viewBox="0 0 1920 2317" fill="none" xmlns="http://www.w3.org/2000/svg">
<mask id="mask0_240_4309" style="mask-type:alpha" maskUnits="userSpaceOnUse" x="0" y="89" width="1920" height="2228">
<rect y="89" width="1920" height="2228" fill="#D9D9D9"/>
</mask>
<g mask="url(#mask0_240_4309)">
<path d="M-6295.67 4695.55C-6318.12 4735.39 -6302.67 4785.9 -6261.79 4806.37L-2021.27 6929.12C-1997.37 6941.08 -1969.08 6940.32 -1945.86 6927.09L3042.99 4085.39C3075.51 4066.87 3090.84 4028.28 3079.9 3992.49L1904.06 146.486C1893.12 110.698 1858.83 87.277 1821.51 90.1048L-3903.5 523.961C-3930.14 525.98 -3954.02 541.17 -3967.14 564.45L-6295.67 4695.55Z" fill="url(#paint0_linear_240_4309)"/>
</g>
<path d="M1596 120C1596 186.274 1542.27 240 1476 240C1409.73 240 1356 186.274 1356 120C1356 53.7258 1409.73 0 1476 0C1542.27 0 1596 53.7258 1596 120ZM1408.8 120C1408.8 157.114 1438.89 187.2 1476 187.2C1513.11 187.2 1543.2 157.114 1543.2 120C1543.2 82.8865 1513.11 52.8 1476 52.8C1438.89 52.8 1408.8 82.8865 1408.8 120Z" fill="white"/>
<path d="M1785 337C1785 370.137 1758.14 397 1725 397C1691.86 397 1665 370.137 1665 337C1665 303.863 1691.86 277 1725 277C1758.14 277 1785 303.863 1785 337ZM1691.4 337C1691.4 355.557 1706.44 370.6 1725 370.6C1743.56 370.6 1758.6 355.557 1758.6 337C1758.6 318.443 1743.56 303.4 1725 303.4C1706.44 303.4 1691.4 318.443 1691.4 337Z" fill="#CEECF6"/>
<path d="M168 2135C168 2201.27 114.274 2255 48 2255C-18.2742 2255 -72 2201.27 -72 2135C-72 2068.73 -18.2742 2015 48 2015C114.274 2015 168 2068.73 168 2135ZM-19.2 2135C-19.2 2172.11 10.8865 2202.2 48 2202.2C85.1135 2202.2 115.2 2172.11 115.2 2135C115.2 2097.89 85.1135 2067.8 48 2067.8C10.8865 2067.8 -19.2 2097.89 -19.2 2135Z" fill="#CEECF6"/>
<defs>
<linearGradient id="paint0_linear_240_4309" x1="-439.124" y1="5002.9" x2="1774.34" y2="38.7715" gradientUnits="userSpaceOnUse">
<stop stop-color="#0A82AA"/>
<stop offset="0.47555" stop-color="#07556E"/>
</linearGradient>
</defs>
</svg>
