<svg width="1366" height="763" viewBox="0 0 1366 763" fill="none" xmlns="http://www.w3.org/2000/svg">
<mask id="mask0_544_8262" style="mask-type:alpha" maskUnits="userSpaceOnUse" x="0" y="0" width="1366" height="666">
<rect width="1366" height="666" fill="#D9D9D9"/>
</mask>
<g mask="url(#mask0_544_8262)">
<path d="M1962.42 583.532C2003.86 581.725 2037.05 548.537 2038.86 507.092L2120.64 -1368.7C2121.93 -1398.22 2106.83 -1426.05 2081.39 -1441.07L232.936 -2532.29C201.507 -2550.84 161.505 -2545.77 135.698 -2519.97L-1064.64 -1319.63C-1090.45 -1293.82 -1095.52 -1253.82 -1076.97 -1222.39L14.2509 626.062C29.274 651.51 57.103 666.604 86.6268 665.317L1962.42 583.532Z" fill="url(#paint0_linear_544_8262)"/>
</g>
<path d="M100 571C100 593.091 82.0914 611 60 611C37.9086 611 20 593.091 20 571C20 548.909 37.9086 531 60 531C82.0914 531 100 548.909 100 571ZM37.6 571C37.6 583.371 47.6288 593.4 60 593.4C72.3712 593.4 82.4 583.371 82.4 571C82.4 558.629 72.3712 548.6 60 548.6C47.6288 548.6 37.6 558.629 37.6 571Z" fill="#CEECF6"/>
<path d="M244 683C244 727.183 208.183 763 164 763C119.817 763 84 727.183 84 683C84 638.817 119.817 603 164 603C208.183 603 244 638.817 244 683ZM119.2 683C119.2 707.742 139.258 727.8 164 727.8C188.742 727.8 208.8 707.742 208.8 683C208.8 658.258 188.742 638.2 164 638.2C139.258 638.2 119.2 658.258 119.2 683Z" fill="white"/>
<defs>
<linearGradient id="paint0_linear_544_8262" x1="-379.174" y1="932.481" x2="327.442" y2="-188.725" gradientUnits="userSpaceOnUse">
<stop stop-color="#0A82AA"/>
<stop offset="1" stop-color="#08566F"/>
</linearGradient>
</defs>
</svg>
