<svg width="375" height="1699" viewBox="0 0 375 1699" fill="none" xmlns="http://www.w3.org/2000/svg">
<path d="M-1044.25 1007.13C-1085.66 1004.6 -1118.26 970.838 -1119.34 929.367L-1150.44 -261.934C-1151.21 -291.475 -1135.64 -319.035 -1109.93 -333.612L84.9243 -1011.16C116.14 -1028.86 155.323 -1023.61 180.777 -998.317L1097.96 -86.8685C1127.68 -57.3351 1129.58 -9.87478 1102.31 21.938L219.062 1052.5C202.751 1071.53 178.461 1081.81 153.442 1080.29L-1044.25 1007.13Z" fill="url(#paint0_linear_240_4495)"/>
<path d="M24 1066C24 1077.05 15.0457 1086 4 1086C-7.0457 1086 -16 1077.05 -16 1066C-16 1054.95 -7.0457 1046 4 1046C15.0457 1046 24 1054.95 24 1066ZM-7.2 1066C-7.2 1072.19 -2.18559 1077.2 4 1077.2C10.1856 1077.2 15.2 1072.19 15.2 1066C15.2 1059.81 10.1856 1054.8 4 1054.8C-2.18559 1054.8 -7.2 1059.81 -7.2 1066Z" fill="white"/>
<path d="M431 91.9984C431 125.135 404.137 151.998 371 151.998C337.863 151.998 311 125.135 311 91.9984C311 58.8613 337.863 31.9984 371 31.9984C404.137 31.9984 431 58.8613 431 91.9984ZM337.4 91.9984C337.4 110.555 352.443 125.598 371 125.598C389.557 125.598 404.6 110.555 404.6 91.9984C404.6 73.4416 389.557 58.3984 371 58.3984C352.443 58.3984 337.4 73.4416 337.4 91.9984Z" fill="#CEECF6"/>
<defs>
<linearGradient id="paint0_linear_240_4495" x1="-1279.39" y1="1300.11" x2="476.853" y2="-52.542" gradientUnits="userSpaceOnUse">
<stop stop-color="#0A82AA"/>
<stop offset="0.40238" stop-color="#07556E"/>
</linearGradient>
</defs>
</svg>
