<svg width="1366" height="1266" viewBox="0 0 1366 1266" fill="none" xmlns="http://www.w3.org/2000/svg">
<path d="M-34.2771 709.831C-75.6794 707.299 -108.279 673.541 -109.365 632.076L-133.821 -301.504C-134.595 -331.049 -119.017 -358.614 -93.3071 -373.191L848.3 -907.08C879.515 -924.779 918.697 -919.528 944.15 -894.234L1662.51 -180.359C1692.23 -150.826 1694.13 -103.367 1666.87 -71.5541L971.711 739.564C955.397 758.599 931.104 768.886 906.082 767.356L-34.2771 709.831Z" fill="url(#paint0_linear_544_8139)"/>
<path d="M448.318 743.462C448.318 776.599 421.455 803.462 388.318 803.462C355.181 803.462 328.318 776.599 328.318 743.462C328.318 710.325 355.181 683.462 388.318 683.462C421.455 683.462 448.318 710.325 448.318 743.462ZM354.718 743.462C354.718 762.019 369.762 777.062 388.318 777.062C406.875 777.062 421.918 762.019 421.918 743.462C421.918 724.905 406.875 709.862 388.318 709.862C369.762 709.862 354.718 724.905 354.718 743.462Z" fill="white"/>
<path d="M887 159.998C887 204.181 851.183 239.998 807 239.998C762.817 239.998 727 204.181 727 159.998C727 115.816 762.817 79.9984 807 79.9984C851.183 79.9984 887 115.816 887 159.998ZM762.2 159.998C762.2 184.741 782.258 204.798 807 204.798C831.742 204.798 851.8 184.741 851.8 159.998C851.8 135.256 831.742 115.198 807 115.198C782.258 115.198 762.2 135.256 762.2 159.998Z" fill="#CEECF6"/>
<defs>
<linearGradient id="paint0_linear_544_8139" x1="-237.578" y1="944.385" x2="1173.67" y2="-142.595" gradientUnits="userSpaceOnUse">
<stop stop-color="#0A82AA"/>
<stop offset="0.40238" stop-color="#07556E"/>
</linearGradient>
</defs>
</svg>
