<svg width="1920" height="1000" viewBox="0 0 1920 1000" fill="none" xmlns="http://www.w3.org/2000/svg">
<rect width="1920" height="1000" fill="url(#paint0_linear_947_2360)"/>
<path d="M1830 17C1830 83.2742 1776.27 137 1710 137C1643.73 137 1590 83.2742 1590 17C1590 -49.2742 1643.73 -103 1710 -103C1776.27 -103 1830 -49.2742 1830 17ZM1642.8 17C1642.8 54.1135 1672.89 84.2 1710 84.2C1747.11 84.2 1777.2 54.1135 1777.2 17C1777.2 -20.1135 1747.11 -50.2 1710 -50.2C1672.89 -50.2 1642.8 -20.1135 1642.8 17Z" fill="white"/>
<path d="M1620 229C1620 262.137 1593.14 289 1560 289C1526.86 289 1500 262.137 1500 229C1500 195.863 1526.86 169 1560 169C1593.14 169 1620 195.863 1620 229ZM1526.4 229C1526.4 247.557 1541.44 262.6 1560 262.6C1578.56 262.6 1593.6 247.557 1593.6 229C1593.6 210.443 1578.56 195.4 1560 195.4C1541.44 195.4 1526.4 210.443 1526.4 229Z" fill="#CEECF6"/>
<defs>
<linearGradient id="paint0_linear_947_2360" x1="1920" y1="-61.0188" x2="946.312" y2="876.17" gradientUnits="userSpaceOnUse">
<stop stop-color="#0A82AA"/>
<stop offset="1" stop-color="#08566F"/>
</linearGradient>
</defs>
</svg>
