<svg width="375" height="812" viewBox="0 0 375 812" fill="none" xmlns="http://www.w3.org/2000/svg">
<rect width="375" height="812" fill="url(#paint0_linear_1283_2551)"/>
<path d="M399 9C399 31.0914 381.091 49 359 49C336.909 49 319 31.0914 319 9C319 -13.0914 336.909 -31 359 -31C381.091 -31 399 -13.0914 399 9ZM336.6 9C336.6 21.3712 346.629 31.4 359 31.4C371.371 31.4 381.4 21.3712 381.4 9C381.4 -3.37118 371.371 -13.4 359 -13.4C346.629 -13.4 336.6 -3.37118 336.6 9Z" fill="white"/>
<path d="M322 72C322 80.2843 315.284 87 307 87C298.716 87 292 80.2843 292 72C292 63.7157 298.716 57 307 57C315.284 57 322 63.7157 322 72ZM298.6 72C298.6 76.6392 302.361 80.4 307 80.4C311.639 80.4 315.4 76.6392 315.4 72C315.4 67.3608 311.639 63.6 307 63.6C302.361 63.6 298.6 67.3608 298.6 72Z" fill="#CEECF6"/>
<defs>
<linearGradient id="paint0_linear_1283_2551" x1="375" y1="-49.5473" x2="27.2811" y2="30.9552" gradientUnits="userSpaceOnUse">
<stop stop-color="#0A82AA"/>
<stop offset="1" stop-color="#08566F"/>
</linearGradient>
</defs>
</svg>
