<svg width="1920" height="1699" viewBox="0 0 1920 1699" fill="none" xmlns="http://www.w3.org/2000/svg">
<path d="M75.7529 1007.15C34.3446 1004.62 1.73998 970.857 0.657363 929.385L-30.4412 -261.915C-31.2124 -291.456 -15.6358 -319.016 10.07 -333.593L1204.92 -1011.14C1236.14 -1028.84 1275.32 -1023.59 1300.78 -998.298L2217.96 -86.8499C2247.68 -57.3165 2249.58 -9.85622 2222.31 21.9565L1339.06 1052.51C1322.75 1071.55 1298.46 1081.83 1273.44 1080.31L75.7529 1007.15Z" fill="url(#paint0_linear_240_4263)"/>
<path d="M568.318 1027.46C568.318 1071.64 532.501 1107.46 488.318 1107.46C444.136 1107.46 408.318 1071.64 408.318 1027.46C408.318 983.279 444.136 947.462 488.318 947.462C532.501 947.462 568.318 983.279 568.318 1027.46ZM443.518 1027.46C443.518 1052.2 463.576 1072.26 488.318 1072.26C513.061 1072.26 533.118 1052.2 533.118 1027.46C533.118 1002.72 513.061 982.662 488.318 982.662C463.576 982.662 443.518 1002.72 443.518 1027.46Z" fill="white"/>
<path d="M1198.99 203.998C1198.99 259.227 1154.22 303.998 1098.99 303.998C1043.76 303.998 998.993 259.227 998.993 203.998C998.993 148.77 1043.76 103.998 1098.99 103.998C1154.22 103.998 1198.99 148.77 1198.99 203.998ZM1042.99 203.998C1042.99 234.926 1068.07 259.998 1098.99 259.998C1129.92 259.998 1154.99 234.926 1154.99 203.998C1154.99 173.07 1129.92 147.998 1098.99 147.998C1068.07 147.998 1042.99 173.07 1042.99 203.998Z" fill="#CEECF6"/>
<defs>
<linearGradient id="paint0_linear_240_4263" x1="-159.386" y1="1300.12" x2="1596.85" y2="-52.5234" gradientUnits="userSpaceOnUse">
<stop stop-color="#0A82AA"/>
<stop offset="0.40238" stop-color="#07556E"/>
</linearGradient>
</defs>
</svg>
