<svg width="260" height="260" viewBox="0 0 260 260" fill="none" xmlns="http://www.w3.org/2000/svg">
<g filter="url(#filter0_d_240_4380)">
<path d="M227 123C227 178.228 182.228 223 127 223C71.7715 223 27 178.228 27 123C27 67.7715 71.7715 23 127 23C182.228 23 227 67.7715 227 123ZM71 123C71 153.928 96.0721 179 127 179C157.928 179 183 153.928 183 123C183 92.0721 157.928 67 127 67C96.0721 67 71 92.0721 71 123Z" fill="url(#paint0_linear_240_4380)"/>
</g>
<defs>
<filter id="filter0_d_240_4380" x="0" y="0" width="260" height="260" filterUnits="userSpaceOnUse" color-interpolation-filters="sRGB">
<feFlood flood-opacity="0" result="BackgroundImageFix"/>
<feColorMatrix in="SourceAlpha" type="matrix" values="0 0 0 0 0 0 0 0 0 0 0 0 0 0 0 0 0 0 127 0" result="hardAlpha"/>
<feOffset dx="3" dy="7"/>
<feGaussianBlur stdDeviation="15"/>
<feComposite in2="hardAlpha" operator="out"/>
<feColorMatrix type="matrix" values="0 0 0 0 0.945098 0 0 0 0 0.678431 0 0 0 0 0.301961 0 0 0 0.5 0"/>
<feBlend mode="normal" in2="BackgroundImageFix" result="effect1_dropShadow_240_4380"/>
<feBlend mode="normal" in="SourceGraphic" in2="effect1_dropShadow_240_4380" result="shape"/>
</filter>
<linearGradient id="paint0_linear_240_4380" x1="49.6667" y1="185.333" x2="212.333" y2="67.6667" gradientUnits="userSpaceOnUse">
<stop stop-color="#EE9820"/>
<stop offset="1" stop-color="#F1AD4D"/>
</linearGradient>
</defs>
</svg>
