<svg width="200" height="200" viewBox="0 0 200 200" fill="none" xmlns="http://www.w3.org/2000/svg">
<g filter="url(#filter0_d_240_4381)">
<path d="M177 93C177 137.183 141.183 173 97 173C52.8172 173 17 137.183 17 93C17 48.8172 52.8172 13 97 13C141.183 13 177 48.8172 177 93ZM52.2 93C52.2 117.742 72.2576 137.8 97 137.8C121.742 137.8 141.8 117.742 141.8 93C141.8 68.2576 121.742 48.2 97 48.2C72.2576 48.2 52.2 68.2576 52.2 93Z" fill="url(#paint0_linear_240_4381)"/>
</g>
<defs>
<filter id="filter0_d_240_4381" x="0" y="0" width="200" height="200" filterUnits="userSpaceOnUse" color-interpolation-filters="sRGB">
<feFlood flood-opacity="0" result="BackgroundImageFix"/>
<feColorMatrix in="SourceAlpha" type="matrix" values="0 0 0 0 0 0 0 0 0 0 0 0 0 0 0 0 0 0 127 0" result="hardAlpha"/>
<feOffset dx="3" dy="7"/>
<feGaussianBlur stdDeviation="10"/>
<feComposite in2="hardAlpha" operator="out"/>
<feColorMatrix type="matrix" values="0 0 0 0 0.945098 0 0 0 0 0.678431 0 0 0 0 0.301961 0 0 0 0.3 0"/>
<feBlend mode="normal" in2="BackgroundImageFix" result="effect1_dropShadow_240_4381"/>
<feBlend mode="normal" in="SourceGraphic" in2="effect1_dropShadow_240_4381" result="shape"/>
</filter>
<linearGradient id="paint0_linear_240_4381" x1="35.1333" y1="142.867" x2="165.267" y2="48.7333" gradientUnits="userSpaceOnUse">
<stop stop-color="#EE9820"/>
<stop offset="1" stop-color="#F1AD4D"/>
</linearGradient>
</defs>
</svg>
