<svg width="156" height="156" viewBox="0 0 156 156" fill="none" xmlns="http://www.w3.org/2000/svg">
<g filter="url(#filter0_d_714_642)">
<circle cx="75" cy="71" r="48" fill="url(#paint0_linear_714_642)"/>
<path d="M96 87.3333H68M54 54.6666H63.3333H54ZM96 54.6666H72.6667H96ZM54 71H82H54ZM96 71H91.3333H96ZM54 87.3333H58.6667H54Z" stroke="white" stroke-width="3" stroke-linecap="round"/>
<path d="M67.9997 59.3333C70.577 59.3333 72.6663 57.244 72.6663 54.6667C72.6663 52.0893 70.577 50 67.9997 50C65.4223 50 63.333 52.0893 63.333 54.6667C63.333 57.244 65.4223 59.3333 67.9997 59.3333Z" stroke="white" stroke-width="3" stroke-linecap="round"/>
<path d="M86.6667 75.6667C89.244 75.6667 91.3333 73.5774 91.3333 71C91.3333 68.4227 89.244 66.3334 86.6667 66.3334C84.0893 66.3334 82 68.4227 82 71C82 73.5774 84.0893 75.6667 86.6667 75.6667Z" stroke="white" stroke-width="3" stroke-linecap="round"/>
<path d="M63.3337 92C65.911 92 68.0003 89.9106 68.0003 87.3333C68.0003 84.756 65.911 82.6666 63.3337 82.6666C60.7563 82.6666 58.667 84.756 58.667 87.3333C58.667 89.9106 60.7563 92 63.3337 92Z" stroke="white" stroke-width="3" stroke-linecap="round"/>
</g>
<defs>
<filter id="filter0_d_714_642" x="0" y="0" width="156" height="156" filterUnits="userSpaceOnUse" color-interpolation-filters="sRGB">
<feFlood flood-opacity="0" result="BackgroundImageFix"/>
<feColorMatrix in="SourceAlpha" type="matrix" values="0 0 0 0 0 0 0 0 0 0 0 0 0 0 0 0 0 0 127 0" result="hardAlpha"/>
<feOffset dx="3" dy="7"/>
<feGaussianBlur stdDeviation="15"/>
<feComposite in2="hardAlpha" operator="out"/>
<feColorMatrix type="matrix" values="0 0 0 0 0.945098 0 0 0 0 0.678431 0 0 0 0 0.301961 0 0 0 0.5 0"/>
<feBlend mode="normal" in2="BackgroundImageFix" result="effect1_dropShadow_714_642"/>
<feBlend mode="normal" in="SourceGraphic" in2="effect1_dropShadow_714_642" result="shape"/>
</filter>
<linearGradient id="paint0_linear_714_642" x1="37.88" y1="100.92" x2="115.96" y2="44.44" gradientUnits="userSpaceOnUse">
<stop stop-color="#EE9820"/>
<stop offset="1" stop-color="#F1AD4D"/>
</linearGradient>
</defs>
</svg>
