<svg width="22" height="26" viewBox="0 0 22 26" fill="none" xmlns="http://www.w3.org/2000/svg">
<path d="M20 11.2858C20 17.7143 11 23.7143 11 23.7143C11 23.7143 2 17.7143 2 11.2858C2 8.89882 2.94821 6.60963 4.63604 4.92181C6.32387 3.23398 8.61305 2.28577 11 2.28577C13.3869 2.28577 15.6761 3.23398 17.364 4.92181C19.0518 6.60963 20 8.89882 20 11.2858V11.2858Z" stroke="#054155" stroke-width="3" stroke-linecap="round" stroke-linejoin="round"/>
<path d="M10.9983 13.4287C12.1818 13.4287 13.1412 12.4693 13.1412 11.2858C13.1412 10.1023 12.1818 9.14294 10.9983 9.14294C9.81486 9.14294 8.85547 10.1023 8.85547 11.2858C8.85547 12.4693 9.81486 13.4287 10.9983 13.4287Z" fill="#054155" stroke="#054155" stroke-width="3" stroke-linecap="round" stroke-linejoin="round"/>
</svg>
