<svg width="156" height="156" viewBox="0 0 156 156" fill="none" xmlns="http://www.w3.org/2000/svg">
<g filter="url(#filter0_d_714_658)">
<circle cx="75" cy="71" r="48" fill="url(#paint0_linear_714_658)"/>
<path d="M62.4932 73.3738C62.4932 66.7258 67.8821 61.3369 74.53 61.3369C81.178 61.3369 86.5669 66.7258 86.5669 73.3738V92.6328H62.4932V73.3738Z" stroke="white" stroke-width="3" stroke-linejoin="round"/>
<path d="M52.8632 92.6328H97.3996M74.5296 49.3V52.9111V49.3ZM88.8438 54.5096L86.5219 57.2757L88.8438 54.5096ZM96.4595 67.702L92.9026 68.3279L96.4595 67.702ZM52.5996 67.702L56.1553 68.3279L52.5996 67.702ZM60.2153 54.5096L62.5372 57.2757L60.2153 54.5096Z" stroke="white" stroke-width="3" stroke-linecap="round" stroke-linejoin="round"/>
</g>
<defs>
<filter id="filter0_d_714_658" x="0" y="0" width="156" height="156" filterUnits="userSpaceOnUse" color-interpolation-filters="sRGB">
<feFlood flood-opacity="0" result="BackgroundImageFix"/>
<feColorMatrix in="SourceAlpha" type="matrix" values="0 0 0 0 0 0 0 0 0 0 0 0 0 0 0 0 0 0 127 0" result="hardAlpha"/>
<feOffset dx="3" dy="7"/>
<feGaussianBlur stdDeviation="15"/>
<feComposite in2="hardAlpha" operator="out"/>
<feColorMatrix type="matrix" values="0 0 0 0 0.945098 0 0 0 0 0.678431 0 0 0 0 0.301961 0 0 0 0.5 0"/>
<feBlend mode="normal" in2="BackgroundImageFix" result="effect1_dropShadow_714_658"/>
<feBlend mode="normal" in="SourceGraphic" in2="effect1_dropShadow_714_658" result="shape"/>
</filter>
<linearGradient id="paint0_linear_714_658" x1="37.88" y1="100.92" x2="115.96" y2="44.44" gradientUnits="userSpaceOnUse">
<stop stop-color="#EE9820"/>
<stop offset="1" stop-color="#F1AD4D"/>
</linearGradient>
</defs>
</svg>
