<svg width="156" height="156" viewBox="0 0 156 156" fill="none" xmlns="http://www.w3.org/2000/svg">
<g filter="url(#filter0_d_714_700)">
<circle cx="75" cy="71" r="48" fill="url(#paint0_linear_714_700)"/>
<path d="M74.9994 70.7669C78.0922 70.7669 80.5994 68.2597 80.5994 65.1669C80.5994 62.0741 78.0922 59.5669 74.9994 59.5669C71.9066 59.5669 69.3994 62.0741 69.3994 65.1669C69.3994 68.2597 71.9066 70.7669 74.9994 70.7669Z" stroke="white" stroke-width="3" stroke-linecap="round" stroke-linejoin="round"/>
<path d="M74.9998 47.9001C70.1729 47.9001 65.5436 49.8176 62.1305 53.2308C58.7173 56.644 56.7998 61.2732 56.7998 66.1001C56.7998 70.4044 57.7144 73.2209 60.2123 76.3376L74.9998 93.4001L89.7873 76.3376C92.2853 73.2209 93.1998 70.4044 93.1998 66.1001C93.1998 61.2732 91.2823 56.644 87.8691 53.2308C84.456 49.8176 79.8267 47.9001 74.9998 47.9001V47.9001Z" stroke="white" stroke-width="3" stroke-linecap="round" stroke-linejoin="round"/>
</g>
<defs>
<filter id="filter0_d_714_700" x="0" y="0" width="156" height="156" filterUnits="userSpaceOnUse" color-interpolation-filters="sRGB">
<feFlood flood-opacity="0" result="BackgroundImageFix"/>
<feColorMatrix in="SourceAlpha" type="matrix" values="0 0 0 0 0 0 0 0 0 0 0 0 0 0 0 0 0 0 127 0" result="hardAlpha"/>
<feOffset dx="3" dy="7"/>
<feGaussianBlur stdDeviation="15"/>
<feComposite in2="hardAlpha" operator="out"/>
<feColorMatrix type="matrix" values="0 0 0 0 0.945098 0 0 0 0 0.678431 0 0 0 0 0.301961 0 0 0 0.5 0"/>
<feBlend mode="normal" in2="BackgroundImageFix" result="effect1_dropShadow_714_700"/>
<feBlend mode="normal" in="SourceGraphic" in2="effect1_dropShadow_714_700" result="shape"/>
</filter>
<linearGradient id="paint0_linear_714_700" x1="37.88" y1="100.92" x2="115.96" y2="44.44" gradientUnits="userSpaceOnUse">
<stop stop-color="#EE9820"/>
<stop offset="1" stop-color="#F1AD4D"/>
</linearGradient>
</defs>
</svg>
