<svg width="80" height="80" viewBox="0 0 80 80" fill="none" xmlns="http://www.w3.org/2000/svg">
<path fill-rule="evenodd" clip-rule="evenodd" d="M19.0002 40.4869C18.9906 42.7779 19.3343 45.0566 20.0192 47.2427H50.0051C50.8889 47.2402 51.7635 47.0634 52.5789 46.7223C53.3943 46.3812 54.1343 45.8826 54.7566 45.255C55.3789 44.6275 55.8713 43.8833 56.2055 43.0651C56.5397 42.2469 56.7092 41.3708 56.7042 40.4869C56.7067 39.5991 56.5337 38.7194 56.1951 37.8987C55.8564 37.0779 55.3589 36.3322 54.7311 35.7043C54.1032 35.0765 53.3575 34.579 52.5367 34.2403C51.716 33.9017 50.8363 33.7287 49.9485 33.7312H20.0192C19.3399 35.8636 19.0002 38.1281 19.0002 40.4869ZM20.7642 34.7312C20.2561 36.5555 20.0002 38.4817 20.0002 40.4869V40.4911C19.9921 42.4355 20.2504 44.3706 20.767 46.2427H50.0036C50.7554 46.2404 51.4994 46.0899 52.193 45.7998C52.887 45.5095 53.5169 45.0851 54.0465 44.5509C54.5762 44.0168 54.9953 43.3833 55.2798 42.6869C55.5642 41.9905 55.7085 41.2448 55.7043 40.4926L55.7042 40.4841C55.7064 39.728 55.559 38.979 55.2706 38.2801C54.9823 37.5811 54.5586 36.9461 54.024 36.4114C53.4893 35.8768 52.8543 35.4531 52.1553 35.1648C51.4564 34.8764 50.7074 34.729 49.9513 34.7312L49.9485 34.7312L20.7642 34.7312ZM37.4006 50.5072H22.4384C24.1287 53.721 26.6186 56.4567 29.6785 58.4437L29.6871 58.4493C33.1905 60.7758 37.3049 62.0114 41.5104 61.9999L41.5132 61.9999C48.6916 61.9999 55.0109 58.4824 58.9401 53.1247C58.1003 52.3802 57.145 51.7743 56.1098 51.3316C54.8235 50.7817 53.4401 50.4949 52.0412 50.4884L37.4006 50.5072ZM52.0431 49.4884C53.5765 49.4952 55.093 49.8093 56.5029 50.4122C57.9129 51.015 59.1877 51.8944 60.252 52.9983C56.1947 58.9993 49.3446 62.9999 41.5132 62.9999C37.1099 63.0119 32.802 61.7182 29.1339 59.2823C25.7833 57.1067 23.0856 54.0736 21.3154 50.5072C21.1522 50.1783 20.9968 49.8449 20.8495 49.5072H37.3993L52.0431 49.4884ZM60.252 27.9944C57.9998 24.6378 54.8875 21.9477 51.2403 20.2051C47.593 18.4625 43.5448 17.7313 39.5184 18.0881C35.492 18.4448 31.6353 19.8763 28.3513 22.2331C25.3669 24.3748 22.955 27.2091 21.3187 30.4855C21.1545 30.8145 20.998 31.1479 20.8495 31.4855H52.0431C55.2512 31.4855 58.1762 30.1268 60.252 27.9944ZM22.4431 30.4855H52.0431C54.6714 30.4855 57.0967 29.4842 58.9399 27.863C56.8346 24.9752 54.0417 22.6519 50.8092 21.1074C47.3235 19.442 43.4546 18.7432 39.6066 19.0842C35.7587 19.4251 32.0729 20.7932 28.9344 23.0455C26.2188 24.9943 23.9991 27.5432 22.4431 30.4855Z" fill="white"/>
</svg>
