<svg width="80" height="80" viewBox="0 0 80 80" fill="none" xmlns="http://www.w3.org/2000/svg">
<path fill-rule="evenodd" clip-rule="evenodd" d="M44.7872 60.4316C43.5363 61.5859 42.67 62.1579 42.67 62.1579C42.338 62.5938 42.0668 63.1044 41.9538 63.6819C41.8685 64.0658 41.8108 64.5325 41.7733 65.0366C41.7 66.0216 41.7038 67.1493 41.7293 68.0806C41.7485 68.7825 41.7801 69.3728 41.8003 69.7065C41.8116 69.8936 41.8194 70 41.8194 70L40.2062 69.4623C40.2062 69.4623 40.4777 67.693 39.9694 65.1478C39.8155 64.3775 39.5903 63.5361 39.2644 62.6512C39.2644 62.6512 26.2705 53.6893 27.0322 37.9164C27.794 22.1434 37.0248 14.3913 38.8171 12.9574C38.9923 12.7758 39.143 12.6111 39.273 12.4584C40.0409 11.5561 40.0848 11.073 40.1614 10C40.1614 10 40.6972 11.3931 41.3546 12.605C41.5473 12.9604 41.7506 13.3002 41.9538 13.5848C42.1368 13.9812 42.6632 14.5228 43.4045 15.2855C45.9315 17.8853 50.955 23.0537 53.3803 33.7939C55.8371 48.1647 48.5616 56.9489 44.7872 60.4316ZM51.6214 34.1424C53.1519 43.1677 50.6284 49.7901 47.7536 54.167C46.3056 56.3716 44.762 58.0142 43.5868 59.1004C43.0001 59.6427 42.5081 60.0437 42.1701 60.3043C42.0012 60.4345 41.8711 60.5293 41.7872 60.589C41.7453 60.6188 41.715 60.6398 41.6972 60.652L41.6825 60.662L41.6811 60.663L41.6801 60.6636L41.6788 60.6645L41.4284 60.8298L41.2439 61.072C41.0981 61.2635 40.9556 61.4724 40.8235 61.6983L40.75 61.4985L40.2839 61.177L40.2831 61.1765L40.2825 61.1761L40.282 61.1757L40.2648 61.1635C40.247 61.1509 40.2174 61.1297 40.177 61.1001C40.096 61.0409 39.9714 60.948 39.8096 60.8218C39.4859 60.5694 39.0142 60.1849 38.4456 59.6727C37.3067 58.6468 35.7903 57.1186 34.2975 55.1245C31.3105 51.1345 28.4676 45.3521 28.8225 38.0028C29.5484 22.9737 38.3217 15.6492 39.9368 14.357L40.0271 14.2848L40.1074 14.2016C40.1285 14.1797 40.1494 14.1579 40.1702 14.1361C40.2502 14.2652 40.3318 14.3909 40.4146 14.5114C40.642 14.9303 40.9626 15.3037 41.2165 15.5854C41.4759 15.873 41.7957 16.2019 42.1295 16.5454C42.203 16.6209 42.2771 16.6972 42.3514 16.7738C43.2002 17.6495 44.2511 18.7589 45.3684 20.2229C47.586 23.1289 50.1139 27.498 51.6214 34.1424Z" fill="white"/>
</svg>
