<svg width="80" height="80" viewBox="0 0 80 80" fill="none" xmlns="http://www.w3.org/2000/svg">
<path fill-rule="evenodd" clip-rule="evenodd" d="M49.713 18.0008C53.033 17.9691 57.2751 18.901 60.3201 22.7929C61.0047 23.6674 61.2085 24.9456 61.1848 26.5205C61.1591 28.0935 60.8682 29.9771 60.336 32.0408C59.3032 36.0375 57.3523 40.6971 54.604 44.8778C54.7011 44.9468 54.806 45.0039 54.9166 45.048C55.4904 45.2854 56.7983 45.4892 59.408 44.953C60.0649 44.8145 60.5457 44.7215 61.0443 45.1014C61.1655 45.2041 61.2612 45.3335 61.324 45.4793C61.3869 45.6252 61.415 45.7837 61.4064 45.9423C61.3798 46.1825 61.2911 46.4116 61.1492 46.6071C60.6446 47.3649 59.6494 48.0831 58.3732 48.6747C57.2435 49.201 55.623 49.476 54.1865 49.4919C53.4663 49.4998 52.8015 49.4444 52.2376 49.2683L52.202 49.2544C51.9844 51.3517 51.4838 55.4929 51.1573 57.3824C50.8962 58.906 50.4391 60.1168 49.5666 61.023C48.696 61.9292 47.4633 62.4753 45.8053 62.8315C43.7515 63.2727 42.2537 62.7978 41.2882 61.9846C40.3246 61.1734 39.8834 60.0971 39.6183 59.4382C39.4362 58.9831 39.3413 58.3935 39.2502 57.606C39.1592 56.8185 39.092 55.855 39.0464 54.7687C38.9858 53.1055 38.966 51.441 38.9871 49.7768C38.1292 50.5625 37.0631 51.0846 35.9163 51.2805C34.5531 51.512 33.3363 51.2845 32.6101 51.1024C32.2522 51.0125 31.9066 50.879 31.5813 50.7047C31.2449 50.5247 30.9244 50.3209 30.7107 49.9192C30.5851 49.6892 30.5452 49.4221 30.5979 49.1654C30.6648 48.9052 30.8166 48.6747 31.0292 48.5105C31.421 48.1919 31.9394 48.0139 32.7209 47.8516C34.1435 47.5588 34.6401 47.359 34.9429 47.1195C35.1152 46.9817 35.3026 46.7498 35.5621 46.4285C35.6901 46.2701 35.8355 46.0901 36.0054 45.8889C36.0029 45.8619 36.0009 45.8348 35.9994 45.8077C35.0788 45.7818 34.1772 45.5392 33.3679 45.0994C33.0711 45.412 31.5555 47.0147 29.7075 49.2386C28.93 50.1685 28.0713 50.7028 27.1651 50.7403C26.2589 50.7799 25.4397 50.3229 24.7433 49.6482C23.3523 48.2968 22.2424 45.972 21.2748 43.3444C20.3093 40.7169 19.5238 37.7905 18.9658 35.2975C18.4059 32.8045 18.0755 30.7943 18.028 29.8248C17.8202 25.7054 18.7838 22.9294 20.4359 21.1784C22.09 19.4273 24.3575 18.7645 26.5675 18.6379C30.5346 18.4103 34.3018 19.7934 35.0636 20.0902C36.5317 19.0929 38.4232 18.4717 40.7856 18.5112C41.9072 18.527 43.0232 18.6717 44.1116 18.9426L44.1512 18.9248C44.6303 18.7564 45.1184 18.615 45.6134 18.5014C46.9572 18.1879 48.3312 18.0213 49.711 18.0047L49.713 18.0008ZM49.7248 19.3264H50.0137C53.0251 19.3502 56.6182 20.2128 59.2735 23.6081C59.6118 24.0394 59.8769 25.0722 59.8572 26.4968C59.8334 27.9214 59.5624 29.7199 59.0519 31.7044C58.0982 35.3905 56.3096 39.7137 53.8284 43.6214C53.7532 43.5264 53.682 43.4315 53.6029 43.3365C54.5407 41.7794 54.7148 40.1925 54.6436 38.7482C54.5684 37.2108 54.2617 35.8021 54.3013 34.603C54.3527 32.949 54.7821 31.7737 54.7227 30.0404C54.7247 30.0345 54.7346 30.0206 54.7346 30.0147C54.7663 29.8821 54.7623 29.805 54.7584 29.7298C54.7485 29.5794 54.7208 29.435 54.6792 29.2629C54.5961 28.9206 54.4497 28.4793 54.2321 27.957C53.6567 26.5973 52.9035 25.3198 51.9923 24.1581C50.6805 22.4803 48.8187 20.7985 46.3533 19.7063C47.462 19.4695 48.5913 19.3422 49.7248 19.3264ZM35.2476 21.6038C36.5198 20.5452 38.1976 19.8389 40.5363 19.8329V19.8369H40.7639C45.738 19.918 48.9572 22.4387 50.9456 24.9812C51.7823 26.0492 52.4748 27.2227 53.0053 28.4714C53.0893 28.6706 53.1344 28.8156 53.1788 28.9586C53.1962 29.0144 53.2134 29.07 53.2329 29.1283C50.8863 28.8909 49.3232 29.3143 48.4328 30.3352C47.4277 31.4848 47.4851 33.1152 47.8769 34.6901C48.2706 36.267 49.0284 37.8855 49.7248 39.2211C50.0315 39.8082 50.3259 40.3387 50.5715 40.7812C50.6048 40.8412 50.6372 40.8996 50.6686 40.9563C50.8486 41.2691 51.0182 41.5879 51.1771 41.9119C51.509 42.6966 51.9529 43.429 52.4949 44.0864C52.6624 44.2952 52.8227 44.5097 52.9757 44.7294C52.8312 44.771 52.6551 44.8284 52.4672 44.9134C52.0912 45.0836 51.6559 45.3982 51.375 45.9126C51.1019 46.4132 50.9753 47.0701 51.0149 47.9248C50.9278 49.0586 50.2076 55.0833 49.8495 57.1608C49.6101 58.5478 49.2361 59.454 48.6109 60.105C47.9837 60.7559 47.0458 61.209 45.5263 61.5355C43.7733 61.9114 42.8137 61.5355 42.1449 60.9736C41.4761 60.4097 41.1061 59.5806 40.8529 58.9475C40.7757 58.7576 40.655 58.1956 40.57 57.4576C40.4849 56.7176 40.4176 55.7798 40.3721 54.7153C40.2799 52.251 40.2714 49.7843 40.3464 47.3194C40.3495 47.2339 40.336 47.1485 40.3068 47.0681C40.2791 46.8722 40.2316 46.6823 40.1663 46.5062C39.915 45.8335 39.4501 45.2439 38.7734 44.9629C38.5518 44.8679 38.1798 44.7096 37.705 44.7492C37.6369 44.7555 37.5688 44.772 37.5008 44.7885C37.4838 44.7926 37.4667 44.7967 37.4497 44.8007C37.6308 44.121 37.8494 43.4518 38.1046 42.7963C38.206 42.5239 38.3335 42.2382 38.4722 41.9273C39.2545 40.1742 40.3938 37.6211 39.2107 32.1476C38.9198 30.8061 38.1185 29.9217 37.149 29.5458C36.1795 29.1699 35.1091 29.2411 34.1158 29.4686C33.1226 29.6981 32.1946 30.0939 31.4883 30.4896L31.4625 30.5054C31.5555 29.3103 31.791 27.5494 32.4776 25.7291C33.0553 24.1957 33.9358 22.6979 35.2476 21.6038ZM26.6427 19.9576C26.892 19.9437 27.1433 19.9358 27.3946 19.9358C27.6453 19.9362 27.894 19.9427 28.1445 19.9556C30.4792 20.0704 32.6358 20.6798 33.8507 21.0794C32.6141 22.2903 31.789 23.7861 31.235 25.2582C30.4589 27.3997 30.0625 29.6621 30.0637 31.9399L30.0657 31.9517V31.9616C30.0653 31.9742 30.0653 31.9867 30.0657 31.9992C30.0657 32.1953 30.0808 32.4443 30.0996 32.7543C30.1228 33.1355 30.1515 33.6089 30.1646 34.1895C30.1883 35.2698 30.1606 36.637 29.9568 38.0992C29.7876 39.2484 29.9104 40.4216 30.314 41.5109C30.7175 42.6001 31.3888 43.5702 32.2658 44.3317C31.0297 45.6444 29.8354 46.9958 28.6846 48.3839C28.0535 49.1417 27.537 49.389 27.1077 49.4088C26.6803 49.4266 26.2094 49.2149 25.6673 48.6905C24.5909 47.6419 23.4572 45.4259 22.5213 42.8794C21.5874 40.333 20.8099 37.4502 20.2618 35.0007C19.7118 32.5513 19.3912 30.4896 19.3536 29.7535C19.1597 25.8656 20.0501 23.5171 21.4034 22.0846C22.7548 20.6521 24.6444 20.0723 26.6427 19.9576ZM49.432 31.2038C49.8277 30.7507 50.5816 30.4045 51.925 30.3867C52.4146 30.387 52.9037 30.4188 53.3892 30.4817C53.375 31.1032 53.2919 31.6778 53.203 32.2918C53.1057 32.964 53.0016 33.6835 52.9737 34.5635C52.9452 35.4259 53.0495 36.282 53.1525 37.1287C53.2216 37.6961 53.2902 38.2593 53.318 38.8174C53.3714 39.9413 53.2784 41.0196 52.758 42.1177C52.6353 41.9001 52.5146 41.6666 52.4058 41.4014C52.301 41.1482 52.1377 40.8565 51.9185 40.4649C51.8893 40.4129 51.8592 40.3591 51.8281 40.3033C51.8037 40.2595 51.7788 40.2148 51.7534 40.1692C51.5044 39.7221 51.2073 39.1888 50.9021 38.6018C50.2294 37.3097 49.5131 35.7546 49.1669 34.3636C48.8187 32.9747 48.8721 31.8469 49.432 31.2038ZM34.4146 30.7606C34.8142 30.6672 35.223 30.6181 35.6334 30.6142C35.9862 30.6064 36.3375 30.6628 36.6702 30.7804C37.2637 31.0099 37.6951 31.4175 37.9127 32.4266C39.0142 37.523 38.1229 39.4841 37.3273 41.2348C37.161 41.6006 36.999 41.9573 36.8601 42.3314C36.8273 42.4192 36.7945 42.5066 36.7619 42.5934C36.519 43.24 36.2862 43.86 36.1379 44.4722C33.2532 44.4682 30.7977 41.6666 31.2706 38.2832C31.4883 36.7261 31.516 35.2876 31.4922 34.1598C31.475 33.414 31.4403 32.8411 31.4178 32.4719C31.4093 32.3309 31.4025 32.2196 31.3992 32.1397L31.4428 32.1001C31.6595 31.9302 31.8905 31.7792 32.1333 31.649C32.8509 31.2529 33.6181 30.9542 34.4146 30.7606ZM53.7453 45.881L53.7513 45.879C53.9495 46.0426 54.1708 46.174 54.4081 46.2727C55.3638 46.6665 56.9229 46.8188 59.6791 46.249C59.1184 46.7416 58.4901 47.1514 57.8133 47.4658C56.9882 47.8496 55.435 48.1445 54.1727 48.1583C53.5396 48.1682 52.9717 48.1009 52.6334 47.998C52.5289 47.9679 52.43 47.9212 52.3405 47.8595C52.3089 47.173 52.4157 46.7693 52.5404 46.5418C52.6409 46.3476 52.8092 46.197 53.0133 46.1184C53.1238 46.0696 53.2456 46.0345 53.381 45.9955C53.4928 45.9633 53.6138 45.9284 53.7453 45.881ZM37.8197 46.065H37.8613V46.0689C38.0014 46.0862 38.1378 46.1263 38.2649 46.1876C38.4786 46.2767 38.7813 46.5952 38.9198 46.9652C39.0563 47.3352 39.0385 47.6795 38.8723 47.913C37.9088 49.2643 36.779 49.7847 35.6928 49.9707C34.6065 50.1547 33.5658 49.9707 32.9326 49.8124C32.7091 49.755 32.4321 49.6502 32.2164 49.5314C32.1566 49.5002 32.1406 49.4848 32.1179 49.4628C32.1076 49.4528 32.0958 49.4414 32.0779 49.4266C32.256 49.3415 32.5231 49.2366 32.99 49.1417C34.4641 48.8389 35.2021 48.5975 35.7699 48.1464C36.1169 47.8695 36.342 47.5808 36.6218 47.2221C36.7998 46.9937 36.9999 46.737 37.2677 46.4369C37.5625 46.1105 37.7149 46.0749 37.8197 46.065Z" fill="white"/>
<path d="M35.8253 31.3503C35.9302 31.3503 36.041 31.3601 36.1538 31.376C36.4565 31.4175 36.7256 31.4986 36.9313 31.6174C37.0317 31.6697 37.121 31.741 37.1945 31.8271C37.2345 31.8728 37.2646 31.9262 37.283 31.9841C37.3014 32.042 37.3076 32.1031 37.3013 32.1635C37.2823 32.2772 37.2308 32.383 37.1529 32.4682C37.072 32.5675 36.9766 32.6542 36.87 32.7254C36.6127 32.9077 36.2966 32.9874 35.9836 32.9489C35.6637 32.8964 35.3709 32.7374 35.1526 32.4978C35.0597 32.4014 34.9811 32.2921 34.9191 32.1733C34.8539 32.0689 34.8254 31.9456 34.838 31.8231C34.8677 31.6095 35.0438 31.4986 35.2159 31.4373C35.412 31.3747 35.6178 31.3479 35.8233 31.3582L35.8253 31.3503Z" fill="white"/>
<path d="M51.2978 31.0179H51.3967C51.5273 31.0218 51.648 31.0357 51.7529 31.0614C51.8597 31.0851 51.9508 31.1207 52.0259 31.1702C52.0645 31.1941 52.0977 31.2258 52.1232 31.2633C52.1488 31.3008 52.1662 31.3432 52.1743 31.3878L52.1724 31.4037C52.1762 31.4976 52.1521 31.5906 52.1031 31.6708C52.0448 31.7794 51.9715 31.8793 51.8855 31.9676C51.6847 32.1886 51.4159 32.3362 51.1217 32.387C50.8354 32.4216 50.5465 32.349 50.3105 32.1832C50.2139 32.1183 50.1273 32.0396 50.0533 31.9498C49.9893 31.8792 49.9461 31.7922 49.9286 31.6985C49.9245 31.6528 49.9297 31.6068 49.944 31.5633C49.9583 31.5197 49.9814 31.4796 50.0117 31.4452C50.0767 31.3715 50.1553 31.311 50.2432 31.2672C50.4332 31.1603 50.6904 31.0812 50.9812 31.0376C51.0901 31.0218 51.1969 31.0139 51.2978 31.0119V31.0179Z" fill="white"/>
</svg>
