<svg width="80" height="80" viewBox="0 0 80 80" fill="none" xmlns="http://www.w3.org/2000/svg">
<path fill-rule="evenodd" clip-rule="evenodd" d="M18.0043 49.6703C18.0092 49.6557 18.0139 49.6003 18.0183 49.5122L18.0417 48.6749C18.0533 48.0567 18.0624 47.2521 18.0688 46.5625C18.0762 45.7499 18.08 45.097 18.08 45.097C18.08 45.3268 18.4594 45.6514 19.0734 46.0264C21.6771 47.6164 28.4995 50.111 28.4995 50.111C29.5418 50.5444 30.5935 50.9882 31.6182 51.4206L31.6194 51.4211C35.6839 53.1362 39.3246 54.6725 40.2781 54.6725C41.5684 54.6725 43.0376 53.9614 45.3748 52.8302C47.3783 51.8605 50.0198 50.582 53.7332 49.1781C54.1545 48.9953 54.573 48.8144 54.9861 48.6358C57.939 47.3596 60.6124 46.2041 62 45.3253C62.6199 44.9327 62.9831 44.5953 63 44.327V48.9601C62.7043 49.8729 60.5433 50.8073 57.1422 52.278C56.5771 52.5224 55.9778 52.7815 55.3471 53.0578C52.3209 54.1234 49.4686 55.4807 47.0217 56.6451C44.0237 58.0716 41.6341 59.2087 40.2781 59.1653C39.4318 59.5404 35.853 57.9412 31.8975 56.1737L31.8964 56.1733C30.7764 55.6728 29.6263 55.1589 28.4995 54.6725C26.8755 53.9715 25.2548 53.378 23.7893 52.8413C21.4466 51.9834 19.5005 51.2707 18.5714 50.4962C18.254 50.2316 18.0553 49.9598 18 49.6726C18.0013 49.675 18.0025 49.6747 18.0037 49.6719L18.0043 49.6703ZM19.0627 47.1755L19.0598 47.4343C19.0531 48.0134 19.0447 48.5934 19.0346 49.0239C19.0298 49.2274 19.0244 49.4051 19.0183 49.5353C19.0774 49.6125 19.2258 49.7688 19.5855 49.9929C20.1037 50.3159 20.8555 50.6552 21.8208 51.0359C22.484 51.2974 23.2509 51.5785 24.0793 51.8821C25.5676 52.4276 27.2546 53.0459 28.8959 53.7544C30.0537 54.2542 31.2097 54.7709 32.328 55.2708C33.7286 55.8968 35.0702 56.4965 36.2826 57.0036C37.3608 57.4545 38.2808 57.8077 38.9846 58.0184C39.3381 58.1242 39.6065 58.1847 39.7961 58.2089C39.8689 58.2182 39.916 58.2201 39.9423 58.2203L40.0818 58.1585L40.3102 58.1658C40.7092 58.1786 41.3746 58.0238 42.3671 57.6438C43.3284 57.2758 44.471 56.7482 45.7827 56.1266C46.0462 56.0018 46.3159 55.8735 46.5914 55.7423L46.5931 55.7415C49.0261 54.5836 51.9136 53.2094 54.9797 52.127C55.6145 51.849 56.2121 51.5906 56.7719 51.3486C58.1773 50.7409 59.3443 50.2362 60.2622 49.7839C60.9047 49.4672 61.3746 49.2 61.6924 48.9685C61.8585 48.8475 61.9507 48.759 62 48.7049V46.4894C61.5768 46.7292 61.0945 46.9774 60.574 47.2311C59.1413 47.9295 57.3041 48.7235 55.3743 49.5575C54.9632 49.7352 54.5478 49.9147 54.1313 50.0954L54.1093 50.105L54.0868 50.1135C50.4162 51.5012 47.8096 52.7628 45.8088 53.7311C45.6424 53.8117 45.4802 53.8902 45.3219 53.9666C44.2983 54.4605 43.4047 54.8826 42.609 55.1789C41.8103 55.4763 41.0457 55.6725 40.2781 55.6725C39.9968 55.6725 39.6804 55.6074 39.3923 55.5332C39.0847 55.4541 38.7279 55.3424 38.3373 55.2083C37.5552 54.9398 36.5853 54.5632 35.5066 54.1257C34.2198 53.6037 32.7455 52.9817 31.2187 52.3374L31.2171 52.3367C30.1998 51.9075 29.1592 51.4684 28.1352 51.0425L28.1247 51.0387L28.0359 51.0059C27.9585 50.9773 27.8453 50.9354 27.7016 50.8816C27.4142 50.7741 27.0041 50.6195 26.5123 50.4302C25.5295 50.0519 24.216 49.5337 22.8999 48.9764C21.5895 48.4216 20.2525 47.8179 19.2336 47.2687C19.1761 47.2377 19.119 47.2066 19.0627 47.1755Z" fill="white"/>
<path fill-rule="evenodd" clip-rule="evenodd" d="M18.0799 34.4153V29.7369C18.0799 29.2594 19.7029 28.5335 28.938 25.0843C29.6434 24.8053 30.3507 24.5229 31.0507 24.2435C35.5755 22.4371 39.8132 20.9654 41.5 21C43.1051 21.033 46.081 22.0261 50.0585 23.6471C50.6953 23.9066 51.3577 24.1765 52.0442 24.4538C55.2759 25.7588 57.6028 26.5793 59.2564 27.1623C62.0819 28.1585 62.942 28.4618 62.9927 29.3057C62.9927 29.3484 62.9917 29.5654 62.9902 29.8838L62.9901 29.9062L62.99 29.9196C62.9843 31.1414 62.972 33.7521 62.9811 33.9149C62.829 34.723 61.4972 35.5108 51.8557 39.5062C48.9015 40.828 46.7646 41.8355 45.1866 42.5794C42.2859 43.947 41.2738 44.4242 40.5448 44.327C39.5928 44.4041 36.4711 43.0631 32.7891 41.4814C31.4037 40.8862 29.939 40.257 28.4807 39.6564C27.5192 39.2605 26.5605 38.8771 25.6358 38.5074C21.4487 36.8333 17.9599 35.4384 18.0799 34.4153ZM61.6952 29.1739C61.8799 29.2722 61.961 29.3381 61.9925 29.3683L61.99 29.9149L61.9893 30.0755C61.9843 31.1266 61.9753 33.0286 61.9791 33.7214C61.9593 33.7417 61.9308 33.7686 61.8904 33.8026C61.6837 33.9766 61.2851 34.2341 60.5211 34.6253C59.0062 35.401 56.3014 36.5815 51.4729 38.5824L51.46 38.5878L51.4473 38.5934C48.4841 39.9193 46.3394 40.9304 44.7602 41.6749C43.2946 42.3659 42.3534 42.809 41.6852 43.0719C40.9987 43.342 40.7701 43.3482 40.677 43.3357L40.5708 43.3216L40.4635 43.3302C40.4566 43.3303 40.397 43.3306 40.2628 43.3069C40.1256 43.2827 39.9477 43.2404 39.7262 43.1765C39.2828 43.0486 38.7191 42.8506 38.0499 42.593C36.7121 42.0781 35.0312 41.3562 33.1838 40.5626L33.1812 40.5614C31.7977 39.9671 30.327 39.3353 28.8615 38.7318C27.8953 38.3339 26.9327 37.949 26.0095 37.5799L26.007 37.5789C23.8986 36.7359 22.0236 35.9854 20.6876 35.3216C20.0146 34.9873 19.5363 34.7027 19.2461 34.4703C19.1661 34.4062 19.1133 34.3562 19.0799 34.321V30.0969C19.3173 29.9549 19.7347 29.7479 20.4415 29.4433C21.9745 28.7827 24.6644 27.7479 29.2879 26.0211L29.2968 26.0177L29.3058 26.0142C30.0127 25.7346 30.7208 25.4519 31.4204 25.1726L31.4215 25.1722C33.69 24.2666 35.8589 23.4009 37.6705 22.765C38.5758 22.4473 39.3752 22.1929 40.0414 22.021C40.7265 21.8442 41.199 21.7742 41.479 21.78C42.1025 21.7928 43.1099 22.0494 44.5559 22.5609C45.9708 23.0613 47.6848 23.7596 49.6811 24.5732L49.6826 24.5737L49.6846 24.5746C50.3201 24.8335 50.9827 25.1036 51.6697 25.381C54.9223 26.6945 57.2664 27.521 58.9239 28.1054C60.3761 28.6175 61.2047 28.9128 61.6952 29.1739ZM62.0195 33.673C62.0195 33.673 62.0184 33.6756 62.0143 33.6812C62.0171 33.6758 62.0195 33.673 62.0195 33.673ZM62.4811 37.661C62.793 37.4147 62.9695 37.1967 62.9811 37.0116V41.6447C62.6854 42.5575 60.5244 43.492 57.1233 44.9626C56.5582 45.207 55.9589 45.4661 55.3282 45.7425C52.3021 46.808 49.4498 48.1653 47.0029 49.3296C44.0049 50.7562 41.6152 51.8933 40.2592 51.8499C39.4375 52.2141 35.8754 50.6272 32.1025 48.9464C30.889 48.4058 29.6537 47.8554 28.4807 47.3571C27.3349 46.8704 26.1913 46.4001 25.1038 45.9528C21.4423 44.4468 18.416 43.2021 18.0799 42.4747C18.0312 42.315 18.0434 40.5157 18.0594 39.1883C18.0689 38.3915 18.0799 37.7647 18.0799 37.7647C18.1323 38.0028 18.485 38.3018 19.0664 38.6502C20.4876 39.5019 23.2751 40.6496 26.3821 41.9288C27.0698 42.2119 27.7731 42.5014 28.4807 42.7956C29.5223 43.2287 30.5733 43.6722 31.5974 44.1044L31.6006 44.1057C35.6651 45.8209 39.3057 47.3571 40.2592 47.3571C41.5495 47.3571 43.0187 46.6461 45.3559 45.5148C47.3594 44.5451 50.0009 43.2667 53.7143 41.8627C54.1356 41.6799 54.5541 41.499 54.9672 41.3204C57.9201 40.0442 60.5935 38.8887 61.9811 38.0099C62.1733 37.8881 62.3409 37.7717 62.4811 37.661ZM60.5551 39.9157C61.0756 39.662 61.5579 39.4138 61.9811 39.174V41.3895C61.9318 41.4437 61.8396 41.5321 61.6735 41.6531C61.3557 41.8846 60.8858 42.1518 60.2433 42.4685C59.3254 42.9208 58.1584 43.4255 56.7531 44.0332C56.1933 44.2752 55.5956 44.5336 54.9608 44.8116C51.8947 45.894 49.0072 47.2682 46.5742 48.4261C46.2981 48.5575 46.0278 48.6862 45.7638 48.8113C44.4521 49.4328 43.3095 49.9604 42.3482 50.3284C41.3558 50.7084 40.6903 50.8632 40.2913 50.8504L40.0629 50.8431L39.9293 50.9023C39.9014 50.9017 39.8521 50.899 39.7763 50.8885C39.5776 50.861 39.2976 50.795 38.9316 50.6828C38.2031 50.4595 37.2546 50.091 36.1578 49.63C35.0661 49.1711 33.8561 48.6328 32.6088 48.0772L32.5063 48.0315C31.2953 47.492 30.0529 46.9385 28.8716 46.4367C27.6969 45.9377 26.5499 45.4661 25.4657 45.0203C24.1945 44.4976 23.0095 44.0104 21.9671 43.556C21.0132 43.1402 20.2319 42.7742 19.671 42.4626C19.3895 42.3062 19.1883 42.177 19.0566 42.0757L19.0541 42.0737C19.0508 41.9523 19.0484 41.8001 19.047 41.6229C19.0434 41.1778 19.0458 40.6036 19.0507 40.0324L19.0528 39.7918C19.6031 40.0891 20.2634 40.4055 20.9922 40.7347C22.4093 41.3746 24.1661 42.0979 26.0176 42.8602C26.7018 43.1418 27.399 43.4289 28.0967 43.719C29.1276 44.1476 30.1755 44.5898 31.1998 45.022C32.7266 45.6663 34.2009 46.2883 35.4877 46.8103C36.5664 47.2478 37.5363 47.6244 38.3184 47.8929C38.709 48.027 39.0658 48.1387 39.3734 48.2179C39.6615 48.292 39.9779 48.3571 40.2592 48.3571C41.0268 48.3571 41.7915 48.1609 42.5901 47.8635C43.3858 47.5673 44.2794 47.1451 45.303 46.6512C45.4613 46.5748 45.6235 46.4963 45.7899 46.4157C47.7907 45.4474 50.3973 44.1858 54.068 42.7981L54.0904 42.7896L54.1124 42.78C54.529 42.5993 54.9443 42.4198 55.3554 42.2421C57.2852 41.4081 59.1224 40.6141 60.5551 39.9157ZM19.0663 42.3245C19.0663 42.3245 19.0656 42.3201 19.0646 42.3092C19.0659 42.3186 19.0663 42.3245 19.0663 42.3245Z" fill="white"/>
</svg>
