<svg width="375" height="877" viewBox="0 0 375 877" fill="none" xmlns="http://www.w3.org/2000/svg">
<path d="M210.814 493.523C210.447 493.636 210.241 494.025 210.354 494.391C210.354 494.392 210.354 494.392 210.354 494.392C208.002 495.12 205.668 495.872 203.352 496.651C203.352 496.651 203.351 496.65 203.351 496.65C203.228 496.287 202.834 496.092 202.47 496.215C199.69 497.158 196.935 498.14 194.209 499.164C193.85 499.299 193.668 499.7 193.803 500.059C193.803 500.059 193.803 500.06 193.803 500.06C191.502 500.931 189.221 501.833 186.961 502.768C186.961 502.767 186.961 502.767 186.961 502.767C186.813 502.412 186.406 502.245 186.052 502.393C183.344 503.522 180.666 504.698 178.02 505.925C177.671 506.086 177.52 506.5 177.681 506.848C177.681 506.848 177.682 506.848 177.682 506.849C175.455 507.89 173.252 508.967 171.072 510.082C171.071 510.082 171.071 510.081 171.071 510.081C170.895 509.74 170.476 509.606 170.135 509.782C167.531 511.126 164.96 512.524 162.425 513.981C162.092 514.173 161.978 514.597 162.169 514.93C162.169 514.931 162.169 514.931 162.169 514.931C160.047 516.162 157.95 517.433 155.879 518.749C155.879 518.749 155.879 518.748 155.878 518.748C155.671 518.425 155.241 518.33 154.918 518.538C152.456 520.115 150.031 521.754 147.644 523.459C147.332 523.682 147.26 524.116 147.483 524.428C147.483 524.429 147.483 524.429 147.484 524.43C145.498 525.86 143.54 527.336 141.61 528.86C141.609 528.86 141.609 528.859 141.609 528.859C141.369 528.559 140.932 528.509 140.632 528.748C138.351 530.565 136.11 532.448 133.908 534.403C133.621 534.658 133.595 535.097 133.85 535.384C133.85 535.384 133.85 535.385 133.851 535.385C132.033 537.013 130.244 538.689 128.483 540.416C128.483 540.416 128.482 540.415 128.482 540.415C128.212 540.142 127.772 540.14 127.499 540.41C126.462 541.436 125.434 542.48 124.417 543.543C123.426 544.578 122.442 545.621 121.468 546.672C121.207 546.953 121.223 547.393 121.505 547.654C121.505 547.654 121.505 547.655 121.506 547.655C119.881 549.417 118.281 551.201 116.71 553.008C116.71 553.008 116.71 553.008 116.709 553.008C116.419 552.757 115.98 552.789 115.729 553.079C113.852 555.253 112.016 557.459 110.231 559.698C109.991 559.999 110.041 560.436 110.341 560.675C110.341 560.675 110.341 560.676 110.342 560.676C108.852 562.558 107.397 564.463 105.983 566.391C105.983 566.39 105.983 566.39 105.982 566.39C105.672 566.164 105.237 566.233 105.011 566.543C103.318 568.87 101.683 571.231 100.115 573.626C99.9043 573.947 99.9942 574.378 100.315 574.588C100.316 574.588 100.316 574.589 100.316 574.589C99.0088 576.604 97.7488 578.643 96.5413 580.705C96.5408 580.705 96.5404 580.704 96.5399 580.704C96.2078 580.512 95.7825 580.625 95.5901 580.957C94.146 583.45 92.778 585.978 91.4946 588.54C91.3226 588.883 91.4615 589.301 91.8047 589.473C91.8052 589.473 91.8058 589.473 91.8063 589.473C90.7423 591.625 89.7387 593.801 88.8002 596.001C88.7996 596.001 88.799 596 88.7984 596C88.4445 595.852 88.0372 596.018 87.8885 596.372C86.7739 599.026 85.7536 601.715 84.8362 604.44C84.7137 604.804 84.9093 605.198 85.2731 605.32C85.2737 605.321 85.2744 605.321 85.2751 605.321C84.525 607.595 83.8473 609.893 83.2468 612.215C83.2461 612.215 83.2454 612.214 83.2446 612.214C82.8724 612.121 82.4947 612.346 82.401 612.719C81.7009 615.501 81.111 618.318 80.6399 621.17C80.5773 621.549 80.8336 621.907 81.2123 621.969C81.2131 621.97 81.2139 621.97 81.2147 621.97C80.8424 624.324 80.5518 626.701 80.3474 629.102C80.3466 629.101 80.3458 629.101 80.345 629.101C79.9623 629.071 79.6279 629.357 79.598 629.74C79.4864 631.17 79.4052 632.608 79.3554 634.054C79.3042 635.542 79.2924 637.019 79.3181 638.485C79.3249 638.868 79.6414 639.174 80.0252 639.167C80.0262 639.167 80.0271 639.167 80.0281 639.167C80.092 641.654 80.2644 644.109 80.5357 646.536C80.5348 646.537 80.5339 646.537 80.533 646.537C80.1519 646.582 79.8799 646.928 79.9255 647.309C80.2785 650.257 80.7753 653.163 81.3989 656.032C81.4804 656.407 81.8506 656.645 82.2257 656.563C82.2265 656.563 82.2273 656.563 82.2281 656.563C82.769 658.969 83.3992 661.35 84.1085 663.709C84.1078 663.709 84.1072 663.709 84.1065 663.71C83.7396 663.822 83.5336 664.211 83.6464 664.578C84.5102 667.387 85.484 670.165 86.5506 672.917C86.6894 673.274 87.092 673.452 87.4499 673.313C87.4504 673.313 87.451 673.313 87.4515 673.313C88.3507 675.598 89.3138 677.866 90.331 680.12C90.3305 680.12 90.3301 680.121 90.3297 680.121C89.9804 680.28 89.8265 680.692 89.9858 681.042C91.1995 683.703 92.4865 686.344 93.8303 688.97C94.0051 689.312 94.4239 689.447 94.7656 689.273C94.7659 689.272 94.7662 689.272 94.7665 689.272C95.891 691.454 97.0545 693.626 98.2476 695.793C98.2474 695.794 98.2472 695.794 98.247 695.794C97.9111 695.98 97.7895 696.403 97.9754 696.738C99.3901 699.295 100.844 701.843 102.322 704.386C102.515 704.718 102.94 704.831 103.272 704.638C103.272 704.638 103.272 704.638 103.273 704.638C104.51 706.761 105.763 708.883 107.024 711.007C107.024 711.007 107.024 711.007 107.024 711.007C106.694 711.203 106.586 711.629 106.782 711.959C107.442 713.071 108.104 714.181 108.766 715.292C109.601 716.695 110.438 718.099 111.273 719.506C111.469 719.836 111.895 719.945 112.225 719.749C113.481 721.867 114.732 723.991 115.97 726.123C115.638 726.315 115.524 726.74 115.717 727.072C116.449 728.337 117.176 729.605 117.896 730.876C118.621 732.157 119.335 733.453 120.036 734.762C120.218 735.1 120.638 735.228 120.976 735.047C122.145 737.246 123.282 739.483 124.394 741.752C124.049 741.92 123.906 742.335 124.074 742.68C125.362 745.328 126.615 748.018 127.842 750.743C128 751.093 128.411 751.249 128.76 751.092C129.781 753.37 130.783 755.67 131.771 757.987C131.418 758.138 131.254 758.546 131.404 758.899C132.56 761.621 133.698 764.367 134.825 767.126C134.97 767.481 135.376 767.651 135.731 767.506C136.676 769.826 137.614 772.154 138.548 774.486C138.192 774.628 138.018 775.033 138.161 775.389C138.744 776.846 139.326 778.302 139.907 779.758C140.427 781.061 140.948 782.365 141.47 783.67C141.612 784.026 142.017 784.199 142.373 784.057C143.308 786.391 144.245 788.72 145.189 791.04C145.189 791.04 145.189 791.04 145.189 791.04C144.833 791.185 144.663 791.59 144.808 791.946C145.935 794.71 147.073 797.46 148.228 800.187C148.378 800.541 148.786 800.706 149.14 800.556C149.14 800.556 149.14 800.556 149.14 800.556C150.128 802.878 151.129 805.182 152.148 807.462C152.147 807.462 152.147 807.462 152.147 807.462C151.797 807.619 151.641 808.03 151.798 808.381C153.027 811.116 154.282 813.818 155.573 816.475C155.74 816.821 156.156 816.965 156.501 816.797C156.502 816.797 156.502 816.797 156.502 816.797C157.614 819.071 158.751 821.311 159.919 823.51C159.919 823.51 159.919 823.511 159.918 823.511C159.58 823.692 159.452 824.113 159.634 824.452C161.057 827.109 162.526 829.707 164.05 832.236C164.248 832.564 164.676 832.67 165.004 832.472C165.005 832.472 165.005 832.471 165.006 832.471C166.323 834.634 167.681 836.743 169.086 838.791C169.085 838.791 169.085 838.792 169.084 838.792C168.769 839.011 168.691 839.444 168.91 839.759C170.634 842.243 172.429 844.638 174.305 846.93C174.548 847.227 174.986 847.271 175.283 847.028C175.284 847.027 175.284 847.027 175.285 847.026C176.899 848.971 178.573 850.839 180.313 852.621C180.312 852.621 180.311 852.622 180.311 852.623C180.038 852.893 180.037 853.333 180.307 853.606C182.428 855.743 184.646 857.756 186.974 859.631C187.273 859.872 187.711 859.824 187.951 859.525C187.952 859.525 187.953 859.524 187.953 859.523C189.919 861.076 191.963 862.529 194.09 863.873C194.089 863.874 194.089 863.875 194.088 863.876C193.886 864.202 193.988 864.631 194.314 864.832C196.841 866.394 199.485 867.805 202.257 869.051C202.607 869.209 203.018 869.052 203.176 868.702C203.176 868.701 203.177 868.7 203.177 868.699C205.44 869.689 207.787 870.568 210.226 871.33C210.226 871.331 210.225 871.332 210.225 871.333C210.114 871.701 210.322 872.088 210.69 872.199C212.113 872.629 213.566 873.018 215.051 873.367C216.579 873.727 218.104 874.042 219.626 874.316C220.003 874.384 220.365 874.133 220.433 873.755C220.433 873.754 220.433 873.753 220.433 873.752C223.045 874.201 225.646 874.524 228.235 874.729C228.235 874.73 228.234 874.731 228.234 874.732C228.207 875.115 228.495 875.448 228.878 875.475C232.002 875.697 235.108 875.749 238.196 875.641C238.579 875.627 238.879 875.306 238.866 874.922C238.866 874.921 238.866 874.92 238.866 874.919C241.49 874.807 244.101 874.579 246.698 874.243C246.698 874.244 246.699 874.245 246.699 874.246C246.751 874.626 247.101 874.892 247.482 874.84C250.554 874.419 253.607 873.848 256.639 873.139C257.012 873.051 257.244 872.677 257.157 872.304C257.157 872.303 257.157 872.302 257.156 872.301C259.694 871.689 262.218 870.98 264.727 870.18C264.728 870.18 264.728 870.181 264.728 870.182C264.847 870.547 265.239 870.746 265.604 870.627C268.536 869.673 271.447 868.596 274.336 867.407C274.691 867.261 274.861 866.855 274.715 866.5C274.714 866.5 274.714 866.499 274.714 866.499C277.116 865.496 279.504 864.415 281.876 863.264C281.877 863.265 281.877 863.265 281.877 863.266C282.046 863.61 282.463 863.752 282.807 863.583C285.569 862.227 288.309 860.776 291.027 859.24C291.361 859.052 291.479 858.628 291.29 858.293C291.29 858.293 291.29 858.293 291.29 858.292C293.552 857.002 295.8 855.652 298.033 854.249C298.033 854.249 298.034 854.25 298.034 854.25C298.239 854.574 298.669 854.671 298.993 854.465C301.591 852.82 304.168 851.103 306.723 849.324C307.038 849.105 307.116 848.672 306.896 848.357C306.896 848.356 306.896 848.356 306.896 848.356C309.034 846.858 311.156 845.316 313.264 843.736C313.264 843.737 313.264 843.737 313.264 843.737C313.495 844.044 313.931 844.105 314.238 843.874C316.697 842.02 319.134 840.115 321.55 838.167C321.848 837.926 321.895 837.489 321.654 837.19C321.654 837.19 321.654 837.189 321.654 837.189C323.687 835.542 325.704 833.865 327.705 832.163C327.706 832.163 327.706 832.163 327.706 832.163C327.955 832.455 328.394 832.49 328.686 832.241C331.033 830.236 333.359 828.198 335.661 826.133C335.947 825.877 335.971 825.438 335.714 825.152C335.714 825.152 335.714 825.152 335.714 825.152C337.664 823.398 339.597 821.626 341.514 819.84C341.514 819.841 341.514 819.841 341.514 819.841C341.776 820.121 342.216 820.136 342.496 819.874C344.759 817.76 346.999 815.629 349.214 813.488C349.49 813.221 349.498 812.781 349.231 812.505C349.231 812.505 349.231 812.505 349.231 812.505C351.12 810.675 352.991 808.838 354.844 807C354.844 807 354.844 807 354.844 807C355.115 807.273 355.555 807.274 355.827 807.004C358.033 804.813 360.212 802.621 362.365 800.436C362.634 800.163 362.631 799.722 362.358 799.453C362.358 799.453 362.357 799.453 362.357 799.453C364.209 797.571 366.042 795.695 367.855 793.83C368.13 794.098 368.57 794.091 368.837 793.816C369.917 792.705 370.989 791.598 372.054 790.496C373.08 789.434 374.1 788.367 375.113 787.293C375.376 787.014 375.363 786.574 375.084 786.311C375.084 786.311 375.084 786.31 375.084 786.31C376.785 784.5 378.468 782.673 380.13 780.828C380.13 780.829 380.13 780.829 380.131 780.829C380.416 781.085 380.856 781.062 381.112 780.776C383.086 778.577 385.03 776.354 386.944 774.108C387.193 773.816 387.158 773.377 386.865 773.129C386.865 773.128 386.865 773.128 386.865 773.128C388.473 771.232 390.059 769.32 391.62 767.391C391.62 767.392 391.621 767.392 391.621 767.392C391.92 767.633 392.357 767.586 392.598 767.287C394.454 764.985 396.276 762.66 398.061 760.312C398.294 760.007 398.234 759.571 397.929 759.338C397.929 759.338 397.928 759.338 397.928 759.338C399.429 757.355 400.904 755.356 402.351 753.342C402.351 753.342 402.352 753.342 402.352 753.342C402.664 753.565 403.098 753.493 403.321 753.181C405.042 750.774 406.723 748.345 408.364 745.893C408.577 745.574 408.491 745.142 408.172 744.929C408.172 744.929 408.172 744.929 408.172 744.929C409.549 742.858 410.897 740.772 412.214 738.671C412.215 738.671 412.215 738.671 412.215 738.671C412.541 738.874 412.97 738.775 413.173 738.449C414.738 735.937 416.259 733.403 417.733 730.847C417.925 730.515 417.811 730.09 417.478 729.898C417.478 729.898 417.478 729.898 417.478 729.898C418.714 727.741 419.918 725.568 421.086 723.38C421.086 723.38 421.087 723.381 421.087 723.381C421.426 723.561 421.847 723.432 422.027 723.093C423.414 720.478 424.751 717.842 426.037 715.185C426.204 714.839 426.06 714.424 425.714 714.256C425.714 714.256 425.714 714.256 425.713 714.256C426.789 712.015 427.828 709.759 428.829 707.488C428.829 707.489 428.83 707.489 428.83 707.489C429.182 707.643 429.591 707.482 429.745 707.13C430.929 704.419 432.059 701.687 433.132 698.935C433.271 698.577 433.094 698.174 432.736 698.035C432.736 698.035 432.736 698.035 432.735 698.034C433.63 695.716 434.484 693.384 435.295 691.037C435.296 691.038 435.296 691.038 435.296 691.038C435.659 691.162 436.055 690.968 436.179 690.605C437.136 687.808 438.033 684.99 438.868 682.153C438.976 681.784 438.765 681.398 438.397 681.29C438.397 681.29 438.396 681.289 438.396 681.289C439.088 678.906 439.737 676.508 440.339 674.097C440.339 674.097 440.34 674.097 440.34 674.097C440.713 674.189 441.089 673.961 441.181 673.589C441.887 670.721 442.528 667.834 443.103 664.928C443.177 664.551 442.933 664.186 442.556 664.111C442.556 664.111 442.555 664.111 442.555 664.111C443.027 661.677 443.452 659.229 443.828 656.769C443.829 656.769 443.829 656.769 443.83 656.769C444.209 656.826 444.563 656.564 444.62 656.184C445.055 653.268 445.422 650.334 445.719 647.382C445.757 647 445.479 646.659 445.097 646.621C445.096 646.621 445.096 646.621 445.095 646.621C445.334 644.157 445.523 641.68 445.661 639.192C445.662 639.192 445.662 639.192 445.662 639.192C446.046 639.212 446.373 638.917 446.392 638.534C446.469 637.059 446.528 635.58 446.568 634.097C446.61 632.556 446.642 631.009 446.664 629.457C446.669 629.073 446.362 628.758 445.978 628.753C445.978 628.753 445.978 628.753 445.977 628.753C446.008 626.139 446.008 623.511 445.976 620.872C445.976 620.872 445.976 620.872 445.977 620.872C446.36 620.866 446.667 620.551 446.662 620.167C446.618 617.083 446.53 613.984 446.396 610.876C446.38 610.492 446.056 610.195 445.672 610.211C445.672 610.211 445.672 610.211 445.671 610.211C445.553 607.594 445.402 604.971 445.216 602.345C445.216 602.345 445.216 602.345 445.217 602.345C445.6 602.317 445.887 601.984 445.859 601.601C445.634 598.516 445.361 595.428 445.038 592.343C444.998 591.961 444.656 591.684 444.274 591.724C444.274 591.724 444.274 591.724 444.274 591.724C443.994 589.113 443.678 586.503 443.325 583.9C443.325 583.9 443.325 583.9 443.326 583.9C443.706 583.847 443.971 583.496 443.919 583.116C443.494 580.045 443.017 576.981 442.485 573.931C442.419 573.553 442.059 573.3 441.681 573.366C441.681 573.366 441.68 573.366 441.68 573.366C441.221 570.775 440.722 568.195 440.181 565.628C440.182 565.628 440.182 565.628 440.182 565.628C440.558 565.547 440.797 565.178 440.717 564.803C440.068 561.764 439.361 558.744 438.593 555.749C438.498 555.377 438.119 555.153 437.747 555.248C437.747 555.248 437.746 555.248 437.746 555.248C437.084 552.699 436.377 550.168 435.625 547.659C435.625 547.659 435.626 547.659 435.626 547.659C435.993 547.547 436.201 547.159 436.089 546.792C435.185 543.812 434.215 540.864 433.178 537.953C433.049 537.591 432.651 537.402 432.29 537.531C432.289 537.531 432.289 537.532 432.289 537.532C431.394 535.052 430.451 532.6 429.456 530.18C429.457 530.18 429.457 530.18 429.458 530.18C429.812 530.032 429.98 529.626 429.833 529.271C428.636 526.392 427.366 523.558 426.021 520.775C425.854 520.429 425.438 520.285 425.093 520.452C425.092 520.452 425.092 520.452 425.091 520.452C423.933 518.083 422.72 515.753 421.449 513.464C421.45 513.464 421.45 513.463 421.451 513.463C421.786 513.275 421.905 512.852 421.717 512.517C420.191 509.799 418.585 507.141 416.894 504.549C416.684 504.227 416.254 504.136 415.932 504.346C415.932 504.347 415.931 504.347 415.931 504.347C414.48 502.148 412.969 499.999 411.394 497.902C411.395 497.901 411.395 497.901 411.396 497.901C411.701 497.668 411.761 497.232 411.529 496.927C409.646 494.449 407.675 492.046 405.612 489.724C405.357 489.437 404.918 489.411 404.631 489.666C404.631 489.666 404.63 489.667 404.63 489.667C402.874 487.714 401.053 485.821 399.164 483.991C399.164 483.99 399.165 483.99 399.165 483.989C399.43 483.712 399.421 483.272 399.143 483.007C396.904 480.864 394.571 478.809 392.141 476.849C391.843 476.608 391.405 476.655 391.164 476.953C391.164 476.954 391.163 476.955 391.163 476.955C389.118 475.327 387.005 473.766 384.822 472.276C384.823 472.275 384.823 472.274 384.824 472.274C385.038 471.955 384.954 471.523 384.635 471.309C383.349 470.443 382.039 469.602 380.705 468.785C379.311 467.932 377.908 467.133 376.496 466.385C376.157 466.205 375.737 466.335 375.557 466.674C375.556 466.675 375.556 466.676 375.555 466.677C373.089 465.398 370.596 464.278 368.08 463.305C368.08 463.304 368.081 463.303 368.081 463.302C368.216 462.943 368.034 462.542 367.675 462.407C364.625 461.26 361.541 460.325 358.426 459.584C358.052 459.495 357.678 459.726 357.589 460.1C357.589 460.101 357.588 460.102 357.588 460.103C354.919 459.493 352.228 459.025 349.516 458.687C349.516 458.686 349.516 458.685 349.516 458.684C349.561 458.303 349.288 457.958 348.906 457.913C345.718 457.543 342.504 457.348 339.267 457.312C338.883 457.307 338.569 457.615 338.564 457.999C338.564 457.999 338.564 458 338.564 458.001C335.849 457.989 333.117 458.087 330.37 458.285C330.37 458.284 330.37 458.283 330.37 458.283C330.34 457.9 330.006 457.614 329.623 457.644C326.447 457.891 323.253 458.268 320.045 458.757C319.665 458.815 319.404 459.17 319.462 459.549C319.462 459.55 319.462 459.55 319.463 459.551C316.784 459.973 314.094 460.472 311.394 461.04C311.394 461.04 311.394 461.039 311.393 461.039C311.313 460.664 310.944 460.424 310.568 460.505C307.461 461.171 304.342 461.925 301.215 462.753C300.844 462.851 300.623 463.231 300.721 463.602C300.721 463.603 300.721 463.603 300.721 463.603C298.099 464.305 295.47 465.059 292.835 465.854C292.835 465.853 292.835 465.853 292.835 465.853C292.723 465.486 292.335 465.279 291.968 465.39C288.921 466.317 285.868 467.299 282.812 468.322C282.448 468.444 282.252 468.838 282.374 469.202C282.374 469.202 282.374 469.202 282.374 469.202C279.792 470.071 277.208 470.968 274.622 471.886C274.622 471.886 274.622 471.886 274.622 471.886C274.493 471.524 274.095 471.335 273.734 471.464C270.727 472.535 267.718 473.632 264.711 474.743C264.351 474.876 264.167 475.275 264.3 475.635C264.3 475.635 264.3 475.635 264.3 475.636C261.737 476.584 259.174 477.541 256.613 478.5C256.478 478.14 256.078 477.958 255.718 478.092L254.586 478.516C251.966 479.497 249.348 480.477 246.735 481.448C246.375 481.581 246.192 481.981 246.326 482.341C243.753 483.295 241.184 484.238 238.621 485.164C238.491 484.803 238.093 484.616 237.732 484.746C234.709 485.834 231.695 486.896 228.691 487.917C228.328 488.04 228.133 488.435 228.257 488.798C225.65 489.68 223.051 490.53 220.462 491.341C220.348 490.975 219.959 490.771 219.592 490.884C218.063 491.36 216.537 491.82 215.015 492.265C213.609 492.676 212.209 493.095 210.814 493.523Z" stroke="#E6EBFF" stroke-width="1.39" stroke-linecap="round" stroke-linejoin="round" stroke-dasharray="9.27 9.27"/>
<path fill-rule="evenodd" clip-rule="evenodd" d="M95.7666 -146.356C165.479 -141.483 256.053 -166.838 293.774 -108.061C331.408 -49.4209 277.563 25.1623 245.51 86.9728C221.674 132.939 179.941 160.24 138.515 191.345C87.2417 229.842 43.7415 291.761 -20.2129 286.485C-89.5543 280.764 -148.185 226.837 -180.083 165.061C-210.748 105.674 -209.501 33.3725 -182.444 -27.6972C-158.624 -81.4591 -102.609 -108.897 -48.4738 -131.986C-2.288 -151.685 45.6525 -149.86 95.7666 -146.356Z" fill="#F6F7FF"/>
</svg>
