<svg width="1366" height="941" viewBox="0 0 1366 941" fill="none" xmlns="http://www.w3.org/2000/svg">
<path fill-rule="evenodd" clip-rule="evenodd" d="M227.123 -515.145C406.301 -502.632 639.107 -567.841 736.047 -416.73C832.762 -265.971 694.349 -74.1997 611.952 84.7268C550.676 202.914 443.405 273.118 336.919 353.099C205.125 452.09 93.3029 611.299 -71.0761 597.748C-249.301 583.057 -399.985 444.417 -481.958 285.596C-560.762 132.914 -557.541 -52.9787 -487.982 -210C-426.747 -348.231 -282.765 -418.788 -143.618 -478.164C-24.9033 -528.821 98.3165 -524.141 227.123 -515.145Z" fill="#F6F7FF"/>
<path d="M1144.5 316.639C1143.71 316.888 1143.27 317.73 1143.52 318.52C1143.52 318.521 1143.52 318.521 1143.52 318.522C1137.65 320.391 1131.85 322.358 1126.12 324.435C1126.12 324.434 1126.12 324.433 1126.12 324.432C1125.84 323.655 1124.97 323.255 1124.2 323.54C1117.45 326.016 1110.79 328.646 1104.25 331.45C1103.49 331.777 1103.14 332.659 1103.47 333.42C1103.47 333.421 1103.47 333.422 1103.47 333.423C1097.83 335.868 1092.27 338.445 1086.8 341.164C1086.8 341.163 1086.8 341.162 1086.8 341.161C1086.43 340.421 1085.53 340.123 1084.79 340.495C1078.38 343.719 1072.09 347.141 1065.94 350.782C1065.22 351.204 1064.99 352.124 1065.41 352.837C1065.41 352.838 1065.41 352.839 1065.41 352.84C1060.16 355.983 1055 359.287 1049.95 362.765C1049.95 362.764 1049.95 362.763 1049.94 362.762C1049.47 362.082 1048.54 361.915 1047.86 362.388C1042 366.464 1036.28 370.776 1030.71 375.342C1030.07 375.868 1029.98 376.813 1030.5 377.453C1030.5 377.455 1030.5 377.456 1030.5 377.457C1025.82 381.339 1021.24 385.405 1016.77 389.666C1016.77 389.665 1016.77 389.664 1016.77 389.663C1016.2 389.066 1015.25 389.049 1014.65 389.624C1012.08 392.098 1009.56 394.636 1007.06 397.241C1004.64 399.776 1002.25 402.34 999.884 404.935C999.326 405.547 999.37 406.496 999.983 407.054C999.984 407.054 999.984 407.055 999.985 407.055C995.964 411.505 992.043 416.043 988.249 420.668C988.248 420.667 988.248 420.666 988.247 420.666C987.604 420.143 986.659 420.241 986.137 420.883C981.692 426.349 977.425 431.938 973.377 437.65C972.898 438.326 973.057 439.262 973.733 439.741C973.734 439.742 973.735 439.743 973.736 439.744C970.284 444.669 966.998 449.684 963.906 454.788C963.905 454.787 963.903 454.787 963.902 454.786C963.191 454.361 962.27 454.593 961.845 455.304C958.221 461.369 954.869 467.561 951.834 473.882C951.476 474.629 951.79 475.525 952.537 475.883C952.539 475.884 952.54 475.885 952.542 475.886C949.98 481.318 947.657 486.842 945.601 492.459C945.599 492.459 945.597 492.458 945.595 492.457C944.815 492.179 943.957 492.585 943.678 493.365C941.31 499.997 939.311 506.758 937.727 513.649C937.542 514.456 938.046 515.261 938.854 515.447C938.856 515.447 938.858 515.448 938.86 515.448C937.577 521.266 936.594 527.176 935.94 533.175C935.938 533.175 935.936 533.175 935.933 533.175C935.109 533.093 934.374 533.694 934.292 534.519C933.944 538.008 933.706 541.528 933.584 545.078C933.459 548.737 933.478 552.354 933.633 555.931C933.669 556.759 934.369 557.401 935.196 557.365C935.199 557.365 935.202 557.365 935.205 557.365C935.541 563.589 936.287 569.694 937.387 575.7C937.385 575.7 937.383 575.701 937.38 575.701C936.567 575.858 936.035 576.645 936.192 577.458C937.567 584.573 939.427 591.545 941.677 598.403C941.935 599.19 942.783 599.619 943.57 599.361C943.572 599.361 943.573 599.36 943.575 599.359C945.532 605.173 947.769 610.91 950.226 616.591C950.225 616.591 950.224 616.592 950.222 616.592C949.464 616.926 949.119 617.811 949.453 618.569C952.329 625.113 955.489 631.578 958.841 637.993C959.225 638.727 960.131 639.011 960.865 638.627C960.866 638.627 960.867 638.626 960.867 638.626C963.724 644.043 966.716 649.43 969.79 654.804C969.79 654.805 969.79 654.805 969.789 654.805C969.071 655.218 968.823 656.135 969.236 656.853C972.793 663.042 976.451 669.215 980.123 675.391C980.547 676.104 981.467 676.337 982.179 675.914C982.39 676.268 982.601 676.623 982.812 676.977C985.746 681.909 988.685 686.85 991.589 691.815C990.874 692.233 990.632 693.151 991.05 693.866C992.85 696.954 994.634 700.05 996.392 703.158C998.074 706.133 999.717 709.159 1001.32 712.23C1001.71 712.963 1002.61 713.247 1003.35 712.865C1006.04 718.068 1008.64 723.394 1011.15 728.813C1010.4 729.161 1010.08 730.051 1010.42 730.802C1013.29 737.016 1016.06 743.35 1018.77 749.762C1019.09 750.524 1019.97 750.881 1020.73 750.56C1023.02 755.996 1025.27 761.482 1027.49 766.991C1026.72 767.301 1026.35 768.174 1026.66 768.943C1028.52 773.563 1030.37 778.196 1032.22 782.83C1032.93 784.627 1033.65 786.423 1034.37 788.22C1034.67 788.989 1035.55 789.364 1036.31 789.056C1038.52 794.569 1040.73 800.067 1042.97 805.524C1042.97 805.524 1042.97 805.524 1042.97 805.524C1042.2 805.84 1041.84 806.716 1042.15 807.482C1044.81 813.936 1047.51 820.333 1050.3 826.627C1050.63 827.385 1051.52 827.727 1052.28 827.392C1052.28 827.392 1052.28 827.392 1052.28 827.391C1054.71 832.853 1057.2 838.232 1059.78 843.498C1059.78 843.498 1059.78 843.499 1059.78 843.499C1059.03 843.866 1058.73 844.766 1059.1 845.508C1062.22 851.825 1065.47 857.981 1068.89 863.922C1069.3 864.64 1070.22 864.887 1070.94 864.473C1070.94 864.473 1070.94 864.472 1070.94 864.471C1073.96 869.655 1077.11 874.666 1080.42 879.469C1080.42 879.47 1080.42 879.471 1080.42 879.472C1079.74 879.947 1079.58 880.883 1080.05 881.561C1084.12 887.365 1088.42 892.867 1093.02 898C1093.58 898.617 1094.53 898.669 1095.14 898.116C1095.14 898.114 1095.15 898.113 1095.15 898.111C1099.18 902.516 1103.42 906.633 1107.93 910.421C1107.92 910.423 1107.92 910.425 1107.92 910.428C1107.39 911.068 1107.49 912.013 1108.13 912.539C1113.53 916.97 1119.29 920.94 1125.47 924.378C1126.19 924.781 1127.1 924.521 1127.51 923.797C1127.51 923.794 1127.51 923.791 1127.51 923.788C1132.63 926.548 1138.04 928.94 1143.76 930.924C1143.76 930.928 1143.75 930.931 1143.75 930.934C1143.49 931.72 1143.92 932.569 1144.7 932.83C1147.98 933.918 1151.36 934.875 1154.84 935.694C1157.96 936.429 1161.07 937.053 1164.17 937.569C1164.99 937.705 1165.76 937.153 1165.9 936.336C1165.9 936.333 1165.9 936.331 1165.9 936.328C1171.18 937.15 1176.44 937.66 1181.66 937.878C1181.66 937.88 1181.66 937.883 1181.66 937.885C1181.64 938.714 1182.29 939.406 1183.12 939.431C1189.5 939.629 1195.84 939.397 1202.13 938.771C1202.96 938.689 1203.56 937.954 1203.48 937.13C1203.48 937.127 1203.48 937.125 1203.47 937.122C1208.72 936.548 1213.93 935.698 1219.11 934.595C1219.11 934.597 1219.11 934.599 1219.11 934.601C1219.29 935.41 1220.09 935.92 1220.9 935.74C1227.05 934.37 1233.14 932.649 1239.19 930.612C1239.97 930.347 1240.39 929.496 1240.13 928.711C1240.13 928.709 1240.13 928.707 1240.13 928.705C1245.08 926.991 1250 925.063 1254.88 922.942C1254.88 922.943 1254.88 922.945 1254.88 922.947C1255.22 923.704 1256.1 924.046 1256.86 923.711C1262.59 921.176 1268.26 918.379 1273.87 915.353C1274.6 914.96 1274.88 914.051 1274.48 913.321C1274.48 913.32 1274.48 913.319 1274.48 913.318C1279.08 910.806 1283.64 908.14 1288.17 905.337C1288.17 905.338 1288.17 905.339 1288.17 905.34C1288.61 906.042 1289.54 906.255 1290.24 905.815C1295.54 902.493 1300.79 898.987 1305.99 895.325C1306.67 894.848 1306.83 893.912 1306.35 893.235C1306.35 893.234 1306.35 893.233 1306.35 893.233C1310.63 890.189 1314.88 887.04 1319.08 883.801C1319.08 883.802 1319.08 883.802 1319.08 883.803C1319.59 884.458 1320.53 884.577 1321.19 884.069C1326.15 880.224 1331.05 876.258 1335.9 872.197C1336.53 871.665 1336.62 870.719 1336.09 870.084C1336.08 870.083 1336.08 870.083 1336.08 870.082C1340.12 866.684 1344.11 863.221 1348.06 859.708C1348.06 859.708 1348.06 859.709 1348.06 859.709C1348.62 860.327 1349.56 860.381 1350.18 859.829C1354.88 855.634 1359.52 851.371 1364.1 847.067C1364.7 846.499 1364.73 845.55 1364.17 844.946C1364.17 844.946 1364.17 844.946 1364.17 844.945C1368.02 841.312 1371.83 837.649 1375.6 833.973C1375.6 833.973 1375.6 833.973 1375.6 833.973C1376.18 834.565 1377.13 834.576 1377.72 833.996C1382.24 829.569 1386.7 825.126 1391.09 820.693C1391.68 820.104 1391.67 819.155 1391.09 818.572C1391.09 818.571 1391.08 818.571 1391.08 818.571C1394.83 814.785 1398.53 811.009 1402.17 807.257C1402.77 807.835 1403.72 807.821 1404.3 807.227C1406.5 804.957 1408.69 802.698 1410.85 800.454C1413.24 797.978 1415.61 795.483 1417.96 792.967C1418.52 792.361 1418.49 791.412 1417.88 790.847C1417.88 790.846 1417.88 790.846 1417.88 790.846C1421.87 786.544 1425.79 782.185 1429.64 777.769C1429.64 777.769 1429.64 777.769 1429.64 777.77C1430.27 778.313 1431.22 778.245 1431.76 777.619C1436.27 772.413 1440.69 767.127 1444.99 761.765C1445.5 761.119 1445.4 760.175 1444.75 759.656C1444.75 759.656 1444.75 759.656 1444.75 759.655C1448.41 755.064 1451.99 750.416 1455.47 745.714C1455.47 745.714 1455.47 745.715 1455.48 745.715C1456.14 746.207 1457.08 746.064 1457.57 745.397C1461.66 739.843 1465.63 734.212 1469.46 728.507C1469.92 727.82 1469.74 726.888 1469.05 726.426C1469.05 726.426 1469.05 726.425 1469.05 726.425C1472.31 721.537 1475.46 716.595 1478.51 711.6C1478.51 711.6 1478.51 711.6 1478.51 711.601C1479.22 712.03 1480.15 711.804 1480.57 711.095C1484.15 705.192 1487.58 699.214 1490.84 693.165C1491.23 692.436 1490.96 691.526 1490.23 691.133C1490.23 691.132 1490.23 691.132 1490.23 691.131C1493 685.953 1495.65 680.723 1498.17 675.441C1498.18 675.442 1498.18 675.442 1498.18 675.443C1498.93 675.797 1499.82 675.477 1500.17 674.728C1503.13 668.491 1505.9 662.181 1508.49 655.803C1508.8 655.036 1508.43 654.161 1507.66 653.849C1507.66 653.849 1507.66 653.848 1507.66 653.848C1509.85 648.403 1511.89 642.908 1513.79 637.365C1513.79 637.365 1513.8 637.366 1513.8 637.366C1514.58 637.631 1515.43 637.21 1515.7 636.426C1517.91 629.897 1519.91 623.301 1521.71 616.639C1521.93 615.839 1521.45 615.016 1520.65 614.8C1520.65 614.8 1520.65 614.8 1520.65 614.799C1522.15 609.14 1523.49 603.434 1524.68 597.682C1524.68 597.682 1524.68 597.682 1524.68 597.683C1525.49 597.846 1526.28 597.32 1526.45 596.508C1527.8 589.768 1528.93 582.965 1529.84 576.103C1529.95 575.281 1529.37 574.528 1528.55 574.42C1528.55 574.42 1528.54 574.42 1528.54 574.419C1529.28 568.626 1529.84 562.791 1530.24 556.913C1530.24 556.913 1530.24 556.913 1530.24 556.913C1531.07 556.965 1531.78 556.336 1531.83 555.509C1532.05 552.077 1532.2 548.631 1532.3 545.171C1532.38 542.029 1532.44 538.871 1532.47 535.7C1532.48 534.872 1531.82 534.194 1530.99 534.185C1530.99 534.185 1530.99 534.185 1530.99 534.185C1531.03 528.92 1530.99 523.619 1530.87 518.293C1530.87 518.293 1530.87 518.293 1530.87 518.293C1531.7 518.272 1532.36 517.584 1532.34 516.756C1532.18 510.473 1531.91 504.157 1531.52 497.827C1531.47 497 1530.76 496.371 1529.93 496.422C1529.93 496.422 1529.93 496.422 1529.93 496.422C1529.59 491.147 1529.17 485.863 1528.65 480.581C1528.65 480.581 1528.65 480.58 1528.65 480.58C1529.48 480.498 1530.08 479.762 1530 478.938C1529.37 472.656 1528.61 466.378 1527.72 460.12C1527.6 459.3 1526.84 458.73 1526.02 458.847C1526.02 458.847 1526.02 458.847 1526.02 458.847C1525.25 453.6 1524.39 448.369 1523.43 443.165C1523.43 443.165 1523.43 443.165 1523.43 443.164C1524.25 443.011 1524.78 442.227 1524.63 441.413C1523.46 435.184 1522.14 428.995 1520.67 422.864C1520.48 422.058 1519.67 421.561 1518.87 421.754C1518.86 421.754 1518.86 421.755 1518.86 421.755C1517.6 416.59 1516.24 411.468 1514.76 406.4C1514.76 406.4 1514.76 406.4 1514.76 406.399C1515.55 406.164 1516.01 405.329 1515.77 404.535C1513.96 398.44 1511.99 392.424 1509.84 386.504C1509.56 385.725 1508.7 385.323 1507.92 385.605C1507.92 385.606 1507.92 385.606 1507.91 385.607C1506.07 380.612 1504.11 375.689 1502.02 370.85C1502.02 370.849 1502.02 370.848 1502.02 370.848C1502.78 370.515 1503.12 369.63 1502.79 368.871C1500.23 363.041 1497.48 357.331 1494.53 351.763C1494.14 351.031 1493.23 350.751 1492.5 351.139C1492.5 351.14 1492.5 351.141 1492.5 351.141C1489.98 346.456 1487.31 341.874 1484.5 337.408C1484.5 337.407 1484.51 337.407 1484.51 337.406C1485.21 336.96 1485.41 336.032 1484.96 335.334C1481.54 329.971 1477.89 324.777 1474.03 319.773C1473.52 319.118 1472.58 318.997 1471.92 319.504C1471.92 319.505 1471.92 319.506 1471.92 319.507C1468.64 315.336 1465.21 311.302 1461.61 307.418C1461.61 307.416 1461.61 307.415 1461.61 307.414C1462.21 306.846 1462.24 305.896 1461.68 305.293C1457.33 300.682 1452.75 296.284 1447.93 292.121C1447.3 291.58 1446.35 291.65 1445.81 292.278C1445.81 292.279 1445.81 292.281 1445.81 292.283C1441.79 288.875 1437.6 285.631 1433.23 282.564C1433.23 282.562 1433.24 282.561 1433.24 282.559C1433.71 281.877 1433.54 280.943 1432.85 280.472C1430.25 278.677 1427.59 276.944 1424.87 275.275C1421.93 273.477 1418.97 271.823 1415.99 270.309C1415.25 269.934 1414.35 270.229 1413.97 270.968C1413.97 270.97 1413.97 270.973 1413.97 270.976C1408.77 268.414 1403.5 266.275 1398.16 264.522C1398.16 264.519 1398.16 264.516 1398.17 264.513C1398.41 263.723 1397.98 262.881 1397.19 262.631C1390.68 260.579 1384.08 259.087 1377.41 258.089C1376.59 257.967 1375.83 258.532 1375.7 259.351C1375.7 259.354 1375.7 259.356 1375.7 259.359C1370.08 258.582 1364.41 258.154 1358.68 258.035C1358.68 258.032 1358.68 258.03 1358.68 258.028C1358.69 257.199 1358.03 256.52 1357.2 256.511C1350.51 256.434 1343.77 256.77 1336.98 257.454C1336.15 257.537 1335.55 258.273 1335.64 259.097C1335.64 259.099 1335.64 259.101 1335.64 259.103C1330.04 259.708 1324.4 260.549 1318.74 261.589C1318.74 261.588 1318.74 261.586 1318.74 261.585C1318.58 260.771 1317.8 260.236 1316.99 260.391C1310.46 261.629 1303.89 263.127 1297.3 264.829C1296.5 265.036 1296.02 265.854 1296.23 266.656C1296.23 266.657 1296.23 266.658 1296.23 266.659C1290.77 268.094 1285.29 269.669 1279.8 271.351C1279.8 271.351 1279.8 271.35 1279.8 271.349C1279.55 270.558 1278.71 270.115 1277.92 270.36C1271.55 272.331 1265.17 274.443 1258.79 276.649C1258.01 276.919 1257.59 277.773 1257.86 278.556C1257.86 278.557 1257.86 278.557 1257.86 278.558C1252.5 280.42 1247.14 282.346 1241.77 284.308C1241.77 284.308 1241.77 284.307 1241.77 284.307C1241.49 283.529 1240.63 283.13 1239.85 283.416C1233.57 285.721 1227.28 288.072 1221.01 290.422C1220.24 290.713 1219.84 291.577 1220.13 292.353C1219.99 292.408 1219.84 292.463 1219.7 292.517C1214.5 294.466 1209.31 296.413 1204.13 298.331C1203.84 297.555 1202.98 297.158 1202.2 297.445C1195.89 299.777 1189.6 302.062 1183.33 304.256C1182.55 304.53 1182.14 305.385 1182.41 306.166C1176.99 308.053 1171.59 309.87 1166.21 311.585C1165.96 310.797 1165.12 310.359 1164.33 310.609C1161.13 311.62 1157.94 312.594 1154.76 313.524C1151.32 314.531 1147.9 315.569 1144.5 316.639Z" stroke="#E6EBFF" stroke-width="3" stroke-linecap="round" stroke-linejoin="round" stroke-dasharray="20 20"/>
</svg>
