<svg width="1920" height="1237" viewBox="0 0 1920 1237" fill="none" xmlns="http://www.w3.org/2000/svg">
<path fill-rule="evenodd" clip-rule="evenodd" d="M299.12 -443.145C478.298 -430.632 711.104 -495.841 808.044 -344.73C904.759 -193.971 766.346 -2.19971 683.948 156.727C622.672 274.914 515.402 345.118 408.916 425.099C277.121 524.09 165.3 683.299 0.92072 669.748C-177.304 655.057 -327.988 516.417 -409.961 357.596C-488.766 204.914 -485.544 19.0213 -415.985 -138C-354.75 -276.231 -210.768 -346.788 -71.6213 -406.164C47.0935 -456.821 170.313 -452.141 299.12 -443.145Z" fill="#F6F7FF"/>
<path d="M1488.25 502.487C1487.46 502.732 1487.02 503.572 1487.26 504.364C1487.26 504.364 1487.26 504.365 1487.26 504.365C1481.79 506.078 1476.36 507.862 1470.99 509.724C1470.99 509.723 1470.99 509.723 1470.99 509.722C1470.71 508.94 1469.86 508.528 1469.08 508.801C1462.69 511.034 1456.38 513.378 1450.15 515.844C1449.38 516.149 1449 517.02 1449.3 517.791C1449.3 517.791 1449.31 517.792 1449.31 517.793C1443.98 519.92 1438.72 522.136 1433.52 524.451C1433.52 524.45 1433.51 524.449 1433.51 524.448C1433.18 523.693 1432.29 523.355 1431.53 523.695C1425.37 526.463 1419.29 529.369 1413.3 532.426C1412.57 532.802 1412.27 533.706 1412.65 534.444C1412.65 534.445 1412.65 534.445 1412.65 534.446C1407.57 537.067 1402.55 539.797 1397.6 542.644C1397.6 542.643 1397.6 542.643 1397.6 542.642C1397.19 541.925 1396.27 541.682 1395.55 542.099C1389.73 545.485 1384 549.035 1378.37 552.76C1377.68 553.217 1377.49 554.148 1377.95 554.839C1377.95 554.84 1377.95 554.841 1377.95 554.842C1373.21 558.01 1368.54 561.305 1363.96 564.732C1363.95 564.731 1363.95 564.73 1363.95 564.73C1363.45 564.068 1362.51 563.936 1361.85 564.435C1356.49 568.478 1351.24 572.703 1346.1 577.123C1345.47 577.663 1345.4 578.61 1345.94 579.239C1345.94 579.24 1345.94 579.241 1345.94 579.241C1341.65 582.963 1337.44 586.821 1333.32 590.824C1333.31 590.823 1333.31 590.822 1333.31 590.822C1332.73 590.23 1331.78 590.219 1331.19 590.799C1328.79 593.148 1326.42 595.547 1324.08 597.996C1321.79 600.379 1319.53 602.785 1317.3 605.214C1316.74 605.823 1316.77 606.772 1317.38 607.333C1317.38 607.334 1317.39 607.334 1317.39 607.335C1313.61 611.455 1309.92 615.64 1306.3 619.889C1306.3 619.888 1306.3 619.888 1306.3 619.887C1305.67 619.353 1304.72 619.433 1304.19 620.066C1299.92 625.124 1295.77 630.274 1291.78 635.515C1291.27 636.174 1291.4 637.115 1292.06 637.617C1292.06 637.618 1292.06 637.619 1292.06 637.619C1288.68 642.083 1285.42 646.613 1282.28 651.208C1282.28 651.207 1282.28 651.206 1282.27 651.206C1281.59 650.741 1280.66 650.921 1280.19 651.607C1276.47 657.103 1272.93 662.694 1269.59 668.379C1269.17 669.093 1269.41 670.013 1270.13 670.432C1270.13 670.432 1270.13 670.433 1270.13 670.434C1267.32 675.277 1264.66 680.188 1262.18 685.167C1262.17 685.166 1262.17 685.165 1262.17 685.165C1261.43 684.799 1260.53 685.104 1260.16 685.847C1257.23 691.801 1254.53 697.852 1252.1 704.001C1251.8 704.771 1252.18 705.643 1252.95 705.947C1252.95 705.948 1252.95 705.948 1252.95 705.949C1250.93 711.156 1249.11 716.432 1247.5 721.776C1247.49 721.776 1247.49 721.775 1247.49 721.775C1246.7 721.541 1245.86 721.995 1245.63 722.79C1243.76 729.134 1242.19 735.575 1240.94 742.112C1240.78 742.926 1241.32 743.712 1242.13 743.867C1242.13 743.868 1242.13 743.868 1242.14 743.868C1241.13 749.328 1240.36 754.854 1239.83 760.447C1239.83 760.447 1239.83 760.447 1239.83 760.447C1239 760.375 1238.27 760.986 1238.2 761.812C1237.92 765.101 1237.71 768.413 1237.6 771.748C1237.48 775.182 1237.47 778.585 1237.57 781.957C1237.59 782.785 1238.28 783.438 1239.11 783.414C1239.11 783.414 1239.11 783.414 1239.11 783.414C1239.33 789.211 1239.85 794.92 1240.64 800.551C1240.64 800.551 1240.64 800.552 1240.64 800.552C1239.82 800.675 1239.25 801.438 1239.38 802.257C1240.39 809.013 1241.78 815.656 1243.51 822.203C1243.72 823.004 1244.54 823.482 1245.34 823.271C1245.34 823.271 1245.34 823.27 1245.35 823.27C1246.85 828.802 1248.58 834.27 1250.52 839.684C1250.52 839.685 1250.52 839.686 1250.52 839.686C1249.74 839.97 1249.34 840.831 1249.62 841.609C1251.93 847.95 1254.51 854.215 1257.3 860.422C1257.64 861.177 1258.53 861.514 1259.29 861.174C1259.29 861.174 1259.29 861.173 1259.29 861.173C1261.66 866.371 1264.17 871.531 1266.8 876.665C1266.8 876.666 1266.8 876.666 1266.8 876.666C1266.06 877.046 1265.77 877.951 1266.15 878.687C1269.24 884.662 1272.47 890.599 1275.8 896.515C1276.21 897.236 1277.12 897.492 1277.85 897.086C1277.85 897.085 1277.85 897.085 1277.85 897.085C1280.66 902.061 1283.55 907.026 1286.46 911.989C1286.46 911.989 1286.46 911.99 1286.46 911.99C1285.75 912.41 1285.51 913.33 1285.93 914.044C1288.61 918.59 1291.32 923.136 1294.03 927.686C1294.77 928.934 1295.52 930.183 1296.26 931.431C1296.68 932.143 1297.6 932.377 1298.32 931.953C1301.25 936.881 1304.17 941.822 1307.06 946.783C1306.35 947.199 1306.1 948.117 1306.52 948.833C1308.21 951.743 1309.89 954.66 1311.54 957.586C1313.09 960.314 1314.6 963.078 1316.09 965.876C1316.48 966.606 1317.39 966.884 1318.12 966.496C1320.59 971.175 1322.99 975.941 1325.33 980.781C1324.58 981.139 1324.27 982.034 1324.62 982.781C1327.33 988.434 1329.97 994.185 1332.54 1000.01C1332.88 1000.77 1333.76 1001.11 1334.52 1000.78C1336.66 1005.64 1338.76 1010.55 1340.83 1015.49C1340.06 1015.81 1339.7 1016.69 1340.02 1017.46C1342.45 1023.27 1344.84 1029.14 1347.22 1035.02C1347.52 1035.79 1348.4 1036.16 1349.17 1035.86C1351.16 1040.8 1353.14 1045.76 1355.12 1050.72C1354.35 1051.02 1353.97 1051.9 1354.28 1052.67C1356.63 1058.56 1358.99 1064.45 1361.36 1070.31C1361.67 1071.08 1362.54 1071.45 1363.31 1071.14C1363.31 1071.14 1363.31 1071.14 1363.31 1071.14C1365.32 1076.1 1367.35 1081.04 1369.41 1085.94C1369.41 1085.95 1369.41 1085.95 1369.41 1085.95C1368.64 1086.27 1368.28 1087.15 1368.6 1087.91C1371.08 1093.8 1373.59 1099.63 1376.17 1105.39C1376.51 1106.14 1377.39 1106.48 1378.15 1106.14C1378.15 1106.14 1378.15 1106.14 1378.15 1106.14C1380.36 1111.04 1382.61 1115.88 1384.91 1120.64C1384.91 1120.64 1384.91 1120.64 1384.91 1120.64C1384.17 1121.01 1383.86 1121.91 1384.22 1122.65C1387.03 1128.42 1389.94 1134.08 1392.95 1139.61C1393.34 1140.33 1394.26 1140.6 1394.98 1140.21C1394.98 1140.2 1394.99 1140.2 1394.99 1140.2C1397.59 1144.93 1400.27 1149.55 1403.05 1154.04C1403.05 1154.04 1403.04 1154.04 1403.04 1154.04C1402.34 1154.48 1402.13 1155.41 1402.57 1156.11C1405.99 1161.58 1409.55 1166.87 1413.29 1171.93C1413.79 1172.6 1414.72 1172.74 1415.39 1172.25C1415.39 1172.25 1415.39 1172.25 1415.4 1172.25C1418.62 1176.56 1421.98 1180.71 1425.47 1184.67C1425.47 1184.67 1425.47 1184.67 1425.47 1184.68C1424.85 1185.23 1424.8 1186.18 1425.36 1186.79C1429.66 1191.59 1434.18 1196.1 1438.94 1200.31C1439.56 1200.86 1440.51 1200.8 1441.06 1200.18C1441.06 1200.18 1441.06 1200.17 1441.06 1200.17C1445.1 1203.67 1449.31 1206.93 1453.72 1209.95C1453.72 1209.95 1453.71 1209.95 1453.71 1209.95C1453.25 1210.64 1453.44 1211.57 1454.13 1212.03C1459.41 1215.56 1464.96 1218.74 1470.81 1221.53C1471.56 1221.89 1472.46 1221.57 1472.81 1220.82C1472.81 1220.82 1472.82 1220.81 1472.82 1220.81C1477.58 1223.01 1482.54 1224.96 1487.72 1226.62C1487.72 1226.63 1487.72 1226.63 1487.72 1226.63C1487.48 1227.42 1487.92 1228.26 1488.71 1228.51C1491.73 1229.44 1494.83 1230.29 1498 1231.03C1501.26 1231.8 1504.51 1232.46 1507.75 1233.02C1508.57 1233.17 1509.35 1232.62 1509.49 1231.8C1509.49 1231.8 1509.49 1231.8 1509.49 1231.8C1515.05 1232.71 1520.59 1233.33 1526.1 1233.68C1526.1 1233.68 1526.1 1233.68 1526.1 1233.68C1526.06 1234.51 1526.69 1235.22 1527.52 1235.26C1534.19 1235.62 1540.82 1235.57 1547.41 1235.15C1548.23 1235.1 1548.86 1234.38 1548.81 1233.56C1548.81 1233.56 1548.81 1233.55 1548.81 1233.55C1554.37 1233.15 1559.9 1232.48 1565.4 1231.56C1565.4 1231.56 1565.4 1231.56 1565.4 1231.57C1565.54 1232.38 1566.32 1232.93 1567.14 1232.78C1573.64 1231.64 1580.1 1230.16 1586.5 1228.36C1587.3 1228.14 1587.76 1227.31 1587.54 1226.51C1587.54 1226.51 1587.54 1226.51 1587.54 1226.51C1592.86 1224.97 1598.16 1223.22 1603.42 1221.26C1603.42 1221.27 1603.42 1221.27 1603.42 1221.27C1603.71 1222.04 1604.58 1222.43 1605.35 1222.14C1611.49 1219.82 1617.58 1217.22 1623.61 1214.39C1624.36 1214.03 1624.68 1213.14 1624.33 1212.39C1624.33 1212.39 1624.33 1212.39 1624.33 1212.39C1629.33 1210.01 1634.29 1207.46 1639.22 1204.77C1639.22 1204.77 1639.22 1204.77 1639.22 1204.77C1639.62 1205.5 1640.53 1205.76 1641.26 1205.36C1646.99 1202.19 1652.67 1198.82 1658.3 1195.27C1659 1194.83 1659.21 1193.9 1658.76 1193.2C1658.76 1193.2 1658.76 1193.2 1658.76 1193.2C1663.44 1190.23 1668.08 1187.14 1672.69 1183.94C1672.69 1183.94 1672.69 1183.94 1672.69 1183.94C1673.16 1184.62 1674.1 1184.78 1674.78 1184.31C1680.15 1180.55 1685.48 1176.64 1690.75 1172.62C1691.41 1172.12 1691.53 1171.18 1691.03 1170.52C1691.03 1170.52 1691.03 1170.52 1691.03 1170.52C1695.43 1167.13 1699.8 1163.67 1704.14 1160.13C1704.14 1160.13 1704.14 1160.13 1704.14 1160.13C1704.66 1160.77 1705.61 1160.87 1706.25 1160.34C1711.33 1156.17 1716.36 1151.91 1721.34 1147.57C1721.96 1147.03 1722.03 1146.08 1721.49 1145.46C1721.48 1145.46 1721.48 1145.46 1721.48 1145.46C1725.68 1141.79 1729.83 1138.06 1733.95 1134.31C1733.95 1134.31 1733.95 1134.31 1733.95 1134.31C1734.51 1134.92 1735.46 1134.96 1736.07 1134.4C1740.94 1129.94 1745.74 1125.44 1750.49 1120.9C1751.09 1120.33 1751.12 1119.38 1750.54 1118.78C1750.54 1118.78 1750.54 1118.78 1750.54 1118.78C1754.58 1114.91 1758.58 1111.02 1762.54 1107.12C1762.54 1107.12 1762.54 1107.12 1762.54 1107.12C1763.13 1107.71 1764.08 1107.72 1764.67 1107.14C1769.38 1102.48 1774.04 1097.82 1778.63 1093.18C1779.21 1092.59 1779.2 1091.64 1778.62 1091.05C1778.62 1091.05 1778.62 1091.05 1778.62 1091.05C1782.56 1087.06 1786.46 1083.07 1790.31 1079.11C1790.91 1079.69 1791.85 1079.67 1792.43 1079.08C1794.74 1076.71 1797.02 1074.35 1799.29 1072C1801.75 1069.45 1804.19 1066.89 1806.62 1064.3C1807.18 1063.7 1807.15 1062.75 1806.55 1062.18C1806.55 1062.18 1806.55 1062.18 1806.55 1062.18C1810.69 1057.75 1814.77 1053.26 1818.79 1048.71C1818.79 1048.71 1818.79 1048.72 1818.79 1048.72C1819.41 1049.26 1820.36 1049.2 1820.91 1048.58C1825.59 1043.26 1830.18 1037.87 1834.68 1032.4C1835.21 1031.76 1835.12 1030.82 1834.48 1030.29C1834.48 1030.29 1834.48 1030.29 1834.47 1030.29C1838.32 1025.59 1842.1 1020.84 1845.8 1016.04C1845.8 1016.04 1845.8 1016.04 1845.8 1016.04C1846.46 1016.55 1847.4 1016.42 1847.9 1015.76C1852.22 1010.13 1856.42 1004.43 1860.51 998.657C1860.99 997.981 1860.83 997.045 1860.16 996.565C1860.16 996.565 1860.16 996.565 1860.16 996.564C1863.66 991.598 1867.07 986.582 1870.39 981.517C1870.39 981.517 1870.39 981.517 1870.39 981.518C1871.09 981.97 1872.02 981.774 1872.47 981.08C1876.35 975.131 1880.1 969.115 1883.71 963.033C1884.13 962.321 1883.9 961.401 1883.19 960.978C1883.19 960.977 1883.18 960.977 1883.18 960.976C1886.27 955.743 1889.26 950.461 1892.14 945.133C1892.14 945.133 1892.14 945.133 1892.14 945.134C1892.87 945.525 1893.78 945.251 1894.17 944.521C1897.53 938.262 1900.74 931.939 1903.79 925.552C1904.14 924.804 1903.83 923.909 1903.08 923.552C1903.08 923.551 1903.08 923.551 1903.08 923.551C1905.68 918.062 1908.16 912.526 1910.53 906.946C1910.53 906.946 1910.53 906.946 1910.53 906.947C1911.29 907.267 1912.17 906.907 1912.49 906.143C1915.23 899.597 1917.81 892.988 1920.21 886.319C1920.49 885.539 1920.09 884.68 1919.31 884.399C1919.31 884.399 1919.31 884.399 1919.3 884.398C1921.34 878.682 1923.24 872.921 1925.01 867.117C1925.01 867.117 1925.01 867.117 1925.01 867.117C1925.8 867.355 1926.64 866.905 1926.88 866.112C1928.92 859.322 1930.77 852.473 1932.43 845.566C1932.62 844.761 1932.12 843.951 1931.32 843.758C1931.32 843.757 1931.32 843.757 1931.31 843.757C1932.7 837.862 1933.95 831.924 1935.05 825.946C1935.05 825.947 1935.05 825.947 1935.05 825.947C1935.87 826.093 1936.65 825.551 1936.79 824.736C1938.04 817.773 1939.09 810.754 1939.93 803.682C1940.03 802.86 1939.44 802.114 1938.62 802.016C1938.62 802.016 1938.62 802.016 1938.62 802.015C1939.31 796.011 1939.84 789.968 1940.22 783.888C1940.22 783.888 1940.22 783.888 1940.22 783.888C1941.05 783.936 1941.76 783.304 1941.81 782.477C1942.01 778.944 1942.16 775.399 1942.26 771.841C1942.35 768.556 1942.42 765.256 1942.46 761.944C1942.47 761.115 1941.8 760.436 1940.97 760.426C1940.97 760.426 1940.97 760.426 1940.97 760.426C1941.03 754.871 1941.01 749.281 1940.92 743.667C1940.92 743.667 1940.92 743.667 1940.92 743.667C1941.75 743.651 1942.41 742.967 1942.39 742.139C1942.27 735.567 1942.04 728.962 1941.7 722.339C1941.65 721.511 1940.95 720.875 1940.12 720.917C1940.12 720.917 1940.12 720.917 1940.12 720.917C1939.82 715.35 1939.44 709.772 1938.98 704.19C1938.98 704.19 1938.98 704.19 1938.99 704.19C1939.81 704.12 1940.42 703.394 1940.35 702.568C1939.79 695.996 1939.12 689.42 1938.32 682.857C1938.22 682.034 1937.48 681.448 1936.65 681.548C1936.65 681.548 1936.65 681.548 1936.65 681.548C1935.96 676.002 1935.19 670.465 1934.32 664.947C1934.32 664.947 1934.33 664.947 1934.33 664.947C1935.14 664.816 1935.7 664.047 1935.57 663.229C1934.52 656.695 1933.35 650.187 1932.04 643.721C1931.88 642.909 1931.09 642.384 1930.28 642.548C1930.27 642.548 1930.27 642.548 1930.27 642.548C1929.15 637.064 1927.92 631.611 1926.59 626.198C1926.59 626.198 1926.59 626.198 1926.6 626.197C1927.4 625.997 1927.89 625.184 1927.69 624.38C1926.09 617.941 1924.34 611.559 1922.44 605.25C1922.2 604.456 1921.37 604.007 1920.57 604.245C1920.57 604.246 1920.57 604.246 1920.57 604.246C1918.93 598.881 1917.19 593.57 1915.33 588.323C1915.33 588.322 1915.33 588.322 1915.33 588.322C1916.11 588.042 1916.51 587.182 1916.23 586.403C1913.99 580.147 1911.58 573.982 1908.99 567.924C1908.67 567.162 1907.79 566.808 1907.03 567.133C1907.02 567.133 1907.02 567.134 1907.02 567.134C1904.8 561.983 1902.45 556.913 1899.97 551.932C1899.97 551.931 1899.97 551.931 1899.98 551.93C1900.72 551.557 1901.01 550.656 1900.64 549.916C1897.65 543.975 1894.47 538.162 1891.1 532.495C1890.68 531.783 1889.76 531.549 1889.04 531.973C1889.04 531.973 1889.04 531.974 1889.04 531.975C1886.15 527.172 1883.11 522.477 1879.94 517.9C1879.94 517.9 1879.94 517.899 1879.94 517.898C1880.62 517.421 1880.78 516.486 1880.3 515.808C1876.48 510.374 1872.45 505.109 1868.21 500.029C1867.68 499.393 1866.73 499.308 1866.1 499.839C1866.1 499.84 1866.09 499.841 1866.09 499.842C1862.48 495.577 1858.72 491.448 1854.8 487.464C1854.8 487.463 1854.8 487.462 1854.8 487.46C1855.39 486.875 1855.39 485.926 1854.8 485.339C1850.13 480.658 1845.24 476.18 1840.12 471.924C1839.48 471.394 1838.53 471.482 1838 472.119C1838 472.12 1838 472.122 1838 472.123C1833.7 468.602 1829.24 465.237 1824.61 462.04C1824.61 462.038 1824.61 462.037 1824.62 462.035C1825.08 461.35 1824.9 460.417 1824.22 459.951C1821.49 458.092 1818.7 456.291 1815.85 454.549C1812.84 452.706 1809.81 450.993 1806.75 449.404C1806.02 449.022 1805.11 449.308 1804.73 450.043C1804.73 450.045 1804.73 450.048 1804.73 450.05C1799.37 447.336 1793.96 445.007 1788.48 443.032C1788.48 443.03 1788.49 443.027 1788.49 443.025C1788.76 442.242 1788.35 441.387 1787.56 441.114C1780.92 438.795 1774.2 436.989 1767.4 435.642C1766.59 435.481 1765.8 436.009 1765.64 436.822C1765.64 436.824 1765.64 436.827 1765.64 436.829C1759.85 435.74 1754 434.984 1748.1 434.529C1748.1 434.527 1748.1 434.525 1748.1 434.523C1748.16 433.696 1747.54 432.98 1746.71 432.924C1739.82 432.452 1732.87 432.385 1725.87 432.669C1725.04 432.703 1724.39 433.401 1724.43 434.229C1724.43 434.231 1724.43 434.232 1724.43 434.234C1718.59 434.513 1712.71 435.036 1706.8 435.773C1706.8 435.772 1706.8 435.77 1706.8 435.769C1706.69 434.948 1705.94 434.369 1705.12 434.476C1698.32 435.365 1691.48 436.532 1684.61 437.931C1683.8 438.096 1683.27 438.889 1683.44 439.7C1683.44 439.701 1683.44 439.703 1683.44 439.704C1677.72 440.896 1671.97 442.249 1666.21 443.736C1666.21 443.736 1666.21 443.735 1666.21 443.734C1666 442.932 1665.18 442.453 1664.38 442.663C1657.74 444.4 1651.08 446.311 1644.41 448.356C1643.62 448.599 1643.17 449.437 1643.42 450.23C1643.42 450.23 1643.42 450.231 1643.42 450.231C1637.81 451.964 1632.2 453.791 1626.58 455.687C1626.58 455.687 1626.58 455.687 1626.58 455.686C1626.31 454.902 1625.46 454.482 1624.68 454.748C1618.16 456.959 1611.64 459.261 1605.12 461.616C1604.34 461.898 1603.94 462.758 1604.22 463.537C1604.22 463.537 1604.22 463.537 1604.22 463.538C1598.68 465.544 1593.14 467.589 1587.6 469.649C1587.6 469.649 1587.6 469.648 1587.6 469.648C1587.32 468.872 1586.45 468.477 1585.68 468.766C1581.72 470.241 1577.76 471.724 1573.8 473.205C1571.29 474.144 1568.79 475.083 1566.29 476.018C1565.51 476.308 1565.12 477.172 1565.41 477.948C1559.86 480.018 1554.33 482.073 1548.81 484.091C1548.52 483.313 1547.66 482.913 1546.88 483.196C1540.37 485.571 1533.88 487.89 1527.41 490.119C1526.63 490.388 1526.21 491.241 1526.48 492.024C1520.86 493.95 1515.26 495.806 1509.67 497.567C1509.43 496.778 1508.59 496.338 1507.8 496.585C1504.49 497.618 1501.2 498.617 1497.92 499.577C1494.68 500.523 1491.46 501.493 1488.25 502.487Z" stroke="#E6EBFF" stroke-width="3" stroke-linecap="round" stroke-linejoin="round" stroke-dasharray="20 20"/>
</svg>
